  0
SECTION
  2
HEADER
  9
$ACADVER
  1
AC1015
  9
$ACADMAINTVER
 70
     6
  9
$DWGCODEPAGE
  3
ANSI_1252
  9
$INSBASE
 10
0.0
 20
0.0
 30
0.0
  9
$EXTMIN
 10
-28.4879100237
 20
-4.1302258451
 30
0.0
  9
$EXTMAX
 10
66.7620899763
 20
281.6197741549
 30
0.0
  9
$LIMMIN
 10
0.0
 20
0.0
  9
$LIMMAX
 10
420.0
 20
297.0
  9
$ORTHOMODE
 70
     0
  9
$REGENMODE
 70
     1
  9
$FILLMODE
 70
     1
  9
$QTEXTMODE
 70
     0
  9
$MIRRTEXT
 70
     1
  9
$LTSCALE
 40
1.0
  9
$ATTMODE
 70
     1
  9
$TEXTSIZE
 40
3.5
  9
$TRACEWID
 40
1.0
  9
$TEXTSTYLE
  7
Standard
  9
$CLAYER
  8
0
  9
$CELTYPE
  6
ByLayer
  9
$CECOLOR
 62
   256
  9
$CELTSCALE
 40
1.0
  9
$DISPSILH
 70
     0
  9
$DIMSCALE
 40
1.0
  9
$DIMASZ
 40
3.302
  9
$DIMEXO
 40
0.0
  9
$DIMDLI
 40
3.75
  9
$DIMRND
 40
0.0
  9
$DIMDLE
 40
0.0
  9
$DIMEXE
 40
3.175
  9
$DIMTP
 40
0.0
  9
$DIMTM
 40
0.0
  9
$DIMTXT
 40
3.5
  9
$DIMCEN
 40
2.5
  9
$DIMTSZ
 40
0.0
  9
$DIMTOL
 70
     0
  9
$DIMLIM
 70
     0
  9
$DIMTIH
 70
     1
  9
$DIMTOH
 70
     1
  9
$DIMSE1
 70
     0
  9
$DIMSE2
 70
     0
  9
$DIMTAD
 70
     1
  9
$DIMZIN
 70
     1
  9
$DIMBLK
  1

  9
$DIMASO
 70
     1
  9
$DIMSHO
 70
     1
  9
$DIMPOST
  1

  9
$DIMAPOST
  1

  9
$DIMALT
 70
     0
  9
$DIMALTD
 70
     3
  9
$DIMALTF
 40
0.0393700787
  9
$DIMLFAC
 40
1.0
  9
$DIMTOFL
 70
     1
  9
$DIMTVP
 40
0.0
  9
$DIMTIX
 70
     0
  9
$DIMSOXD
 70
     0
  9
$DIMSAH
 70
     0
  9
$DIMBLK1
  1

  9
$DIMBLK2
  1

  9
$DIMSTYLE
  2
ISO-25
  9
$DIMCLRD
 70
     0
  9
$DIMCLRE
 70
     0
  9
$DIMCLRT
 70
     0
  9
$DIMTFAC
 40
1.0
  9
$DIMGAP
 40
1.524
  9
$DIMJUST
 70
     0
  9
$DIMSD1
 70
     0
  9
$DIMSD2
 70
     0
  9
$DIMTOLJ
 70
     0
  9
$DIMTZIN
 70
     1
  9
$DIMALTZ
 70
     0
  9
$DIMALTTZ
 70
     0
  9
$DIMUPT
 70
     0
  9
$DIMDEC
 70
     2
  9
$DIMTDEC
 70
     2
  9
$DIMALTU
 70
     2
  9
$DIMALTTD
 70
     3
  9
$DIMTXSTY
  7
Standard
  9
$DIMAUNIT
 70
     0
  9
$DIMADEC
 70
     2
  9
$DIMALTRND
 40
0.0
  9
$DIMAZIN
 70
     0
  9
$DIMDSEP
 70
    44
  9
$DIMATFIT
 70
     3
  9
$DIMFRAC
 70
     0
  9
$DIMLDRBLK
  1

  9
$DIMLUNIT
 70
     2
  9
$DIMLWD
 70
    -2
  9
$DIMLWE
 70
    -2
  9
$DIMTMOVE
 70
     0
  9
$LUNITS
 70
     2
  9
$LUPREC
 70
     3
  9
$SKETCHINC
 40
1.0
  9
$FILLETRAD
 40
0.0
  9
$AUNITS
 70
     0
  9
$AUPREC
 70
     6
  9
$MENU
  1
.
  9
$ELEVATION
 40
0.0
  9
$PELEVATION
 40
0.0
  9
$THICKNESS
 40
0.0
  9
$LIMCHECK
 70
     0
  9
$CHAMFERA
 40
0.0
  9
$CHAMFERB
 40
0.0
  9
$CHAMFERC
 40
0.0
  9
$CHAMFERD
 40
0.0
  9
$SKPOLY
 70
     0
  9
$TDCREATE
 40
2460166.858193982
  9
$TDUCREATE
 40
2460167.066527315
  9
$TDUPDATE
 40
2460166.858238218
  9
$TDUUPDATE
 40
2460167.066571551
  9
$TDINDWG
 40
0.0000000116
  9
$TDUSRTIMER
 40
0.0000000116
  9
$USRTIMER
 70
     1
  9
$ANGBASE
 50
0.0
  9
$ANGDIR
 70
     0
  9
$PDMODE
 70
     0
  9
$PDSIZE
 40
-1.0
  9
$PLINEWID
 40
0.0
  9
$SPLFRAME
 70
     0
  9
$SPLINETYPE
 70
     6
  9
$SPLINESEGS
 70
     8
  9
$HANDSEED
  5
7C1
  9
$SURFTAB1
 70
     6
  9
$SURFTAB2
 70
     6
  9
$SURFTYPE
 70
     6
  9
$SURFU
 70
     6
  9
$SURFV
 70
     6
  9
$UCSBASE
  2

  9
$UCSNAME
  2

  9
$UCSORG
 10
0.0
 20
0.0
 30
0.0
  9
$UCSXDIR
 10
1.0
 20
0.0
 30
0.0
  9
$UCSYDIR
 10
0.0
 20
1.0
 30
0.0
  9
$UCSORTHOREF
  2

  9
$UCSORTHOVIEW
 70
     0
  9
$UCSORGTOP
 10
0.0
 20
0.0
 30
0.0
  9
$UCSORGBOTTOM
 10
0.0
 20
0.0
 30
0.0
  9
$UCSORGLEFT
 10
0.0
 20
0.0
 30
0.0
  9
$UCSORGRIGHT
 10
0.0
 20
0.0
 30
0.0
  9
$UCSORGFRONT
 10
0.0
 20
0.0
 30
0.0
  9
$UCSORGBACK
 10
0.0
 20
0.0
 30
0.0
  9
$PUCSBASE
  2

  9
$PUCSNAME
  2

  9
$PUCSORG
 10
0.0
 20
0.0
 30
0.0
  9
$PUCSXDIR
 10
1.0
 20
0.0
 30
0.0
  9
$PUCSYDIR
 10
0.0
 20
1.0
 30
0.0
  9
$PUCSORTHOREF
  2

  9
$PUCSORTHOVIEW
 70
     0
  9
$PUCSORGTOP
 10
0.0
 20
0.0
 30
0.0
  9
$PUCSORGBOTTOM
 10
0.0
 20
0.0
 30
0.0
  9
$PUCSORGLEFT
 10
0.0
 20
0.0
 30
0.0
  9
$PUCSORGRIGHT
 10
0.0
 20
0.0
 30
0.0
  9
$PUCSORGFRONT
 10
0.0
 20
0.0
 30
0.0
  9
$PUCSORGBACK
 10
0.0
 20
0.0
 30
0.0
  9
$USERI1
 70
     0
  9
$USERI2
 70
     0
  9
$USERI3
 70
     0
  9
$USERI4
 70
     0
  9
$USERI5
 70
     0
  9
$USERR1
 40
0.0
  9
$USERR2
 40
0.0
  9
$USERR3
 40
0.0
  9
$USERR4
 40
0.0
  9
$USERR5
 40
0.0
  9
$WORLDVIEW
 70
     1
  9
$SHADEDGE
 70
     3
  9
$SHADEDIF
 70
    70
  9
$TILEMODE
 70
     1
  9
$MAXACTVP
 70
    64
  9
$PINSBASE
 10
0.0
 20
0.0
 30
0.0
  9
$PLIMCHECK
 70
     0
  9
$PEXTMIN
 10
1.0000000000E+20
 20
1.0000000000E+20
 30
1.0000000000E+20
  9
$PEXTMAX
 10
-1.0000000000E+20
 20
-1.0000000000E+20
 30
-1.0000000000E+20
  9
$PLIMMIN
 10
0.0
 20
0.0
  9
$PLIMMAX
 10
420.0
 20
297.0
  9
$UNITMODE
 70
     0
  9
$VISRETAIN
 70
     1
  9
$PLINEGEN
 70
     0
  9
$PSLTSCALE
 70
     1
  9
$TREEDEPTH
 70
  3020
  9
$CMLSTYLE
  2
Standard
  9
$CMLJUST
 70
     0
  9
$CMLSCALE
 40
20.0
  9
$PROXYGRAPHICS
 70
     1
  9
$MEASUREMENT
 70
     1
  9
$CELWEIGHT
370
    -1
  9
$ENDCAPS
280
     0
  9
$JOINSTYLE
280
     0
  9
$LWDISPLAY
290
     1
  9
$INSUNITS
 70
     4
  9
$HYPERLINKBASE
  1

  9
$STYLESHEET
  1

  9
$XEDIT
290
     1
  9
$CEPSNTYPE
380
     0
  9
$PSTYLEMODE
290
     1
  9
$FINGERPRINTGUID
  2
{70cfd551-3f8a-4d58-b1ce-2f13dab735f9}
  9
$VERSIONGUID
  2
{FAEB1C32-E019-11D5-929B-00C0DF256EC4}
  9
$EXTNAMES
290
     1
  9
$PSVPSCALE
 40
0.0
  9
$OLESTARTUP
290
     0
  0
ENDSEC
  0
SECTION
  2
CLASSES
  0
CLASS
  1
ACDBDICTIONARYWDFLT
  2
AcDbDictionaryWithDefault
  3
ObjectDBX Classes
 90
        0
280
     0
281
     0
  0
CLASS
  1
VISUALSTYLE
  2
AcDbVisualStyle
  3
ObjectDBX Classes
 90
     4095
280
     0
281
     0
  0
CLASS
  1
MATERIAL
  2
AcDbMaterial
  3
ObjectDBX Classes
 90
     1153
280
     0
281
     0
  0
CLASS
  1
SCALE
  2
AcDbScale
  3
ObjectDBX Classes
 90
     1153
280
     0
281
     0
  0
CLASS
  1
TABLESTYLE
  2
AcDbTableStyle
  3
ObjectDBX Classes
 90
     4095
280
     0
281
     0
  0
CLASS
  1
MLEADERSTYLE
  2
AcDbMLeaderStyle
  3
ACDB_MLEADERSTYLE_CLASS
 90
     4095
280
     0
281
     0
  0
CLASS
  1
SUN
  2
AcDbSun
  3
SCENEOE
 90
     1153
280
     0
281
     0
  0
CLASS
  1
ACDBPLACEHOLDER
  2
AcDbPlaceHolder
  3
ObjectDBX Classes
 90
        0
280
     0
281
     0
  0
CLASS
  1
LAYOUT
  2
AcDbLayout
  3
ObjectDBX Classes
 90
        0
280
     0
281
     0
  0
ENDSEC
  0
SECTION
  2
TABLES
  0
TABLE
  2
VPORT
  5
8
330
0
100
AcDbSymbolTable
 70
     1
  0
VPORT
  5
29
330
8
100
AcDbSymbolTableRecord
100
AcDbViewportTableRecord
  2
*Active
 70
     0
 10
0.0
 20
0.0
 11
1.0
 21
1.0
 12
19.1370899763
 22
138.7447741549
 13
0.0
 23
0.0
 14
10.0
 24
10.0
 15
10.0
 25
10.0
 16
0.0
 26
0.0
 36
1.0
 17
0.0
 27
0.0
 37
0.0
 40
291.465
 41
0.3333333333
 42
50.0
 43
0.0
 44
0.0
 50
0.0
 51
0.0
 71
     0
 72
   100
 73
     1
 74
     3
 75
     0
 76
     0
 77
     0
 78
     0
281
     0
 65
     1
110
0.0
120
0.0
130
0.0
111
1.0
121
0.0
131
0.0
112
0.0
122
1.0
132
0.0
 79
     0
146
0.0
  0
ENDTAB
  0
TABLE
  2
LTYPE
  5
5
330
0
100
AcDbSymbolTable
 70
     6
  0
LTYPE
  5
14
330
5
100
AcDbSymbolTableRecord
100
AcDbLinetypeTableRecord
  2
ByBlock
 70
     0
  3

 72
    65
 73
     0
 40
0.0
  0
LTYPE
  5
15
330
5
100
AcDbSymbolTableRecord
100
AcDbLinetypeTableRecord
  2
ByLayer
 70
     0
  3

 72
    65
 73
     0
 40
0.0
  0
LTYPE
  5
16
330
5
100
AcDbSymbolTableRecord
100
AcDbLinetypeTableRecord
  2
Continuous
 70
     0
  3
Solid line
 72
    65
 73
     0
 40
0.0
  0
LTYPE
  5
5E
330
5
100
AcDbSymbolTableRecord
100
AcDbLinetypeTableRecord
  2
HIDDEN
 70
     0
  3
Hidden __ __ __ __ __ __ __ __ __ __ __ __ __ __
 72
    65
 73
     2
 40
1.905
 49
1.27
 74
     0
 49
-0.635
 74
     0
  0
LTYPE
  5
5F
330
5
100
AcDbSymbolTableRecord
100
AcDbLinetypeTableRecord
  2
PHANTOM
 70
     0
  3
Phantom ______  __  __  ______  __  __  ______
 72
    65
 73
     6
 40
12.7
 49
6.35
 74
     0
 49
-1.27
 74
     0
 49
1.27
 74
     0
 49
-1.27
 74
     0
 49
1.27
 74
     0
 49
-1.27
 74
     0
  0
LTYPE
  5
60
330
5
100
AcDbSymbolTableRecord
100
AcDbLinetypeTableRecord
  2
CENTER
 70
     0
  3
Center ____ _ ____ _ ____ _ ____ _ ____ _ ____
 72
    65
 73
     4
 40
10.16
 49
6.35
 74
     0
 49
-1.27
 74
     0
 49
1.27
 74
     0
 49
-1.27
 74
     0
  0
LTYPE
  5
61
330
5
100
AcDbSymbolTableRecord
100
AcDbLinetypeTableRecord
  2
CENTERX2
 70
     0
  3
Center (2x) ________  __  ________  __  _____
 72
    65
 73
     4
 40
20.32
 49
12.7
 74
     0
 49
-2.54
 74
     0
 49
2.54
 74
     0
 49
-2.54
 74
     0
  0
LTYPE
  5
62
330
5
100
AcDbSymbolTableRecord
100
AcDbLinetypeTableRecord
  2
DOT2
 70
     0
  3
Dot (.5x) ........................................
 72
    65
 73
     2
 40
0.635
 49
0.0
 74
     0
 49
-0.635
 74
     0
  0
ENDTAB
  0
TABLE
  2
LAYER
  5
2
330
0
100
AcDbSymbolTable
 70
     1
  0
LAYER
  5
10
330
2
100
AcDbSymbolTableRecord
100
AcDbLayerTableRecord
  2
0
 70
     0
 62
     7
  6
Continuous
370
    -3
390
F
  0
ENDTAB
  0
TABLE
  2
STYLE
  5
3
330
0
100
AcDbSymbolTable
 70
     2
  0
STYLE
  5
11
330
3
100
AcDbSymbolTableRecord
100
AcDbTextStyleTableRecord
  2
Standard
 70
     0
 40
0.0
 41
1.0
 50
0.0
 71
     0
 42
3.5
  3
txt
  4

  0
STYLE
  5
7BD
330
3
100
AcDbSymbolTableRecord
100
AcDbTextStyleTableRecord
  2
SLDTEXTSTYLE0
 70
     0
 40
0.0
 41
0.7
 50
0.0
 71
     0
 42
3.5
  3
TXT
  4

  0
ENDTAB
  0
TABLE
  2
VIEW
  5
6
330
0
100
AcDbSymbolTable
 70
     0
  0
ENDTAB
  0
TABLE
  2
UCS
  5
7
330
0
100
AcDbSymbolTable
 70
     0
  0
ENDTAB
  0
TABLE
  2
APPID
  5
9
330
0
100
AcDbSymbolTable
 70
     1
  0
APPID
  5
12
330
9
100
AcDbSymbolTableRecord
100
AcDbRegAppTableRecord
  2
ACAD
 70
     0
  0
ENDTAB
  0
TABLE
  2
DIMSTYLE
  5
A
330
0
100
AcDbSymbolTable
 70
     1
100
AcDbDimStyleTable
  0
DIMSTYLE
105
27
330
A
100
AcDbSymbolTableRecord
100
AcDbDimStyleTableRecord
  2
ISO-25
 70
     0
 41
2.5
 42
0.625
 43
3.75
 44
1.25
 73
     0
 74
     0
 77
     1
 78
     8
140
2.5
141
2.5
143
0.0393700787
147
0.625
171
     3
172
     1
178
     0
271
     2
272
     2
274
     3
278
    44
283
     0
284
     8
340
11
  0
ENDTAB
  0
TABLE
  2
BLOCK_RECORD
  5
1
330
0
100
AcDbSymbolTable
 70
     1
  0
BLOCK_RECORD
  5
1F
330
1
100
AcDbSymbolTableRecord
100
AcDbBlockTableRecord
  2
*Model_Space
340
22
  0
BLOCK_RECORD
  5
1B
330
1
100
AcDbSymbolTableRecord
100
AcDbBlockTableRecord
  2
*Paper_Space
340
1E
  0
BLOCK_RECORD
  5
23
330
1
100
AcDbSymbolTableRecord
100
AcDbBlockTableRecord
  2
*Paper_Space0
340
26
  0
ENDTAB
  0
ENDSEC
  0
SECTION
  2
BLOCKS
  0
BLOCK
  5
20
330
1F
100
AcDbEntity
  8
0
100
AcDbBlockBegin
  2
*Model_Space
 70
     0
 10
0.0
 20
0.0
 30
0.0
  3
*Model_Space
  1

  0
ENDBLK
  5
21
330
1F
100
AcDbEntity
  8
0
100
AcDbBlockEnd
  0
BLOCK
  5
1C
330
1B
100
AcDbEntity
 67
     1
  8
0
100
AcDbBlockBegin
  2
*Paper_Space
 70
     0
 10
0.0
 20
0.0
 30
0.0
  3
*Paper_Space
  1

  0
ENDBLK
  5
1D
330
1B
100
AcDbEntity
 67
     1
  8
0
100
AcDbBlockEnd
  0
BLOCK
  5
24
330
23
100
AcDbEntity
  8
0
100
AcDbBlockBegin
  2
*Paper_Space0
 70
     0
 10
0.0
 20
0.0
 30
0.0
  3
*Paper_Space0
  1

  0
ENDBLK
  5
25
330
23
100
AcDbEntity
  8
0
100
AcDbBlockEnd
  0
ENDSEC
  0
SECTION
  2
ENTITIES
  0
LINE
  5
423
330
1F
100
AcDbEntity
  8
0
  6
Continuous
 62
     7
370
    25
100
AcDbLine
 10
19.1370899763
 20
281.6197741549
 30
0.0
 11
19.1370899763
 21
-4.1302258451
 31
0.0
  0
LINE
  5
424
330
1F
100
AcDbEntity
  8
0
  6
Continuous
 62
     7
370
    25
100
AcDbLine
 10
66.7620899763
 20
186.3697741549
 30
0.0
 11
-28.4879100237
 21
186.3697741549
 31
0.0
  0
LINE
  5
425
330
1F
100
AcDbEntity
  8
0
  6
Continuous
 62
     7
370
    25
100
AcDbLine
 10
-28.4879100237
 20
281.6197741549
 30
0.0
 11
-28.4879100237
 21
-4.1302258451
 31
0.0
  0
LINE
  5
426
330
1F
100
AcDbEntity
  8
0
  6
Continuous
 62
     7
370
    25
100
AcDbLine
 10
-28.4879100237
 20
233.9947741549
 30
0.0
 11
66.7620899763
 21
233.9947741549
 31
0.0
  0
LINE
  5
427
330
1F
100
AcDbEntity
  8
0
  6
Continuous
 62
     7
370
    25
100
AcDbLine
 10
-1.0970578582
 20
228.0664041419
 30
0.0
 11
3.6628692284
 21
228.0664041419
 31
0.0
  0
LINE
  5
428
330
1F
100
AcDbEntity
  8
0
  6
Continuous
 62
     7
370
    25
100
AcDbLine
 10
3.6628692284
 20
228.0664041419
 30
0.0
 11
3.6628692284
 21
230.004335507
 31
0.0
  0
LINE
  5
429
330
1F
100
AcDbEntity
  8
0
  6
Continuous
 62
     7
370
    25
100
AcDbLine
 10
3.6628692284
 20
230.004335507
 30
0.0
 11
-13.0136892759
 21
230.004335507
 31
0.0
  0
LINE
  5
42A
330
1F
100
AcDbEntity
  8
0
  6
Continuous
 62
     7
370
    25
100
AcDbLine
 10
-13.0136892759
 20
230.004335507
 30
0.0
 11
-13.0136892759
 21
228.0664041419
 31
0.0
  0
LINE
  5
42B
330
1F
100
AcDbEntity
  8
0
  6
Continuous
 62
     7
370
    25
100
AcDbLine
 10
-13.0136892759
 20
228.0664041419
 30
0.0
 11
-8.2537621892
 21
228.0664041419
 31
0.0
  0
LINE
  5
42C
330
1F
100
AcDbEntity
  8
0
  6
Continuous
 62
     7
370
    25
100
AcDbLine
 10
-8.2537621892
 20
228.0664041419
 30
0.0
 11
-8.2537621892
 21
213.7606263205
 31
0.0
  0
LINE
  5
42D
330
1F
100
AcDbEntity
  8
0
  6
Continuous
 62
     7
370
    25
100
AcDbLine
 10
-8.2537621892
 20
213.7606263205
 30
0.0
 11
-22.5595400107
 21
213.7606263205
 31
0.0
  0
LINE
  5
42E
330
1F
100
AcDbEntity
  8
0
  6
Continuous
 62
     7
370
    25
100
AcDbLine
 10
-22.5595400107
 20
213.7606263205
 30
0.0
 11
-22.5595400107
 21
218.5205534071
 31
0.0
  0
LINE
  5
42F
330
1F
100
AcDbEntity
  8
0
  6
Continuous
 62
     7
370
    25
100
AcDbLine
 10
-22.5595400107
 20
218.5205534071
 30
0.0
 11
-24.4974713757
 21
218.5205534071
 31
0.0
  0
LINE
  5
430
330
1F
100
AcDbEntity
  8
0
  6
Continuous
 62
     7
370
    25
100
AcDbLine
 10
-24.4974713757
 20
218.5205534071
 30
0.0
 11
-24.4974713757
 21
201.8439949028
 31
0.0
  0
LINE
  5
431
330
1F
100
AcDbEntity
  8
0
  6
Continuous
 62
     7
370
    25
100
AcDbLine
 10
-24.4974713757
 20
201.8439949028
 30
0.0
 11
-22.5595400107
 21
201.8439949028
 31
0.0
  0
LINE
  5
432
330
1F
100
AcDbEntity
  8
0
  6
Continuous
 62
     7
370
    25
100
AcDbLine
 10
-22.5595400107
 20
201.8439949028
 30
0.0
 11
-22.5595400107
 21
206.6039219894
 31
0.0
  0
LINE
  5
433
330
1F
100
AcDbEntity
  8
0
  6
Continuous
 62
     7
370
    25
100
AcDbLine
 10
-22.5595400107
 20
206.6039219894
 30
0.0
 11
-8.2537621892
 21
206.6039219894
 31
0.0
  0
LINE
  5
434
330
1F
100
AcDbEntity
  8
0
  6
Continuous
 62
     7
370
    25
100
AcDbLine
 10
-8.2537621892
 20
206.6039219894
 30
0.0
 11
-8.2537621892
 21
192.298144168
 31
0.0
  0
LINE
  5
435
330
1F
100
AcDbEntity
  8
0
  6
Continuous
 62
     7
370
    25
100
AcDbLine
 10
-8.2537621892
 20
192.298144168
 30
0.0
 11
-13.0136892759
 21
192.298144168
 31
0.0
  0
LINE
  5
436
330
1F
100
AcDbEntity
  8
0
  6
Continuous
 62
     7
370
    25
100
AcDbLine
 10
-13.0136892759
 20
192.298144168
 30
0.0
 11
-13.0136892759
 21
190.3602128029
 31
0.0
  0
LINE
  5
437
330
1F
100
AcDbEntity
  8
0
  6
Continuous
 62
     7
370
    25
100
AcDbLine
 10
-13.0136892759
 20
190.3602128029
 30
0.0
 11
3.6628692284
 21
190.3602128029
 31
0.0
  0
LINE
  5
438
330
1F
100
AcDbEntity
  8
0
  6
Continuous
 62
     7
370
    25
100
AcDbLine
 10
3.6628692284
 20
190.3602128029
 30
0.0
 11
3.6628692284
 21
192.298144168
 31
0.0
  0
LINE
  5
439
330
1F
100
AcDbEntity
  8
0
  6
Continuous
 62
     7
370
    25
100
AcDbLine
 10
3.6628692284
 20
192.298144168
 30
0.0
 11
-1.0970578582
 21
192.298144168
 31
0.0
  0
LINE
  5
43A
330
1F
100
AcDbEntity
  8
0
  6
Continuous
 62
     7
370
    25
100
AcDbLine
 10
-1.0970578582
 20
192.298144168
 30
0.0
 11
-1.0970578582
 21
206.6039219894
 31
0.0
  0
LINE
  5
43B
330
1F
100
AcDbEntity
  8
0
  6
Continuous
 62
     7
370
    25
100
AcDbLine
 10
-1.0970578582
 20
206.6039219894
 30
0.0
 11
13.2087199633
 21
206.6039219894
 31
0.0
  0
LINE
  5
43C
330
1F
100
AcDbEntity
  8
0
  6
Continuous
 62
     7
370
    25
100
AcDbLine
 10
13.2087199633
 20
206.6039219894
 30
0.0
 11
13.2087199633
 21
201.8439949028
 31
0.0
  0
LINE
  5
43D
330
1F
100
AcDbEntity
  8
0
  6
Continuous
 62
     7
370
    25
100
AcDbLine
 10
13.2087199633
 20
201.8439949028
 30
0.0
 11
15.1466513283
 21
201.8439949028
 31
0.0
  0
LINE
  5
43E
330
1F
100
AcDbEntity
  8
0
  6
Continuous
 62
     7
370
    25
100
AcDbLine
 10
15.1466513283
 20
201.8439949028
 30
0.0
 11
15.1466513283
 21
218.5205534071
 31
0.0
  0
LINE
  5
43F
330
1F
100
AcDbEntity
  8
0
  6
Continuous
 62
     7
370
    25
100
AcDbLine
 10
15.1466513283
 20
218.5205534071
 30
0.0
 11
13.2087199633
 21
218.5205534071
 31
0.0
  0
LINE
  5
440
330
1F
100
AcDbEntity
  8
0
  6
Continuous
 62
     7
370
    25
100
AcDbLine
 10
13.2087199633
 20
218.5205534071
 30
0.0
 11
13.2087199633
 21
213.7606263205
 31
0.0
  0
LINE
  5
441
330
1F
100
AcDbEntity
  8
0
  6
Continuous
 62
     7
370
    25
100
AcDbLine
 10
13.2087199633
 20
213.7606263205
 30
0.0
 11
-1.0970578582
 21
213.7606263205
 31
0.0
  0
LINE
  5
442
330
1F
100
AcDbEntity
  8
0
  6
Continuous
 62
     7
370
    25
100
AcDbLine
 10
-1.0970578582
 20
213.7606263205
 30
0.0
 11
-1.0970578582
 21
228.0664041419
 31
0.0
  0
LINE
  5
443
330
1F
100
AcDbEntity
  8
0
  6
Continuous
 62
     7
370
    25
100
AcDbLine
 10
10.3315182094
 20
219.6373870752
 30
0.0
 11
10.3315182094
 21
222.1896433872
 31
0.0
  0
LINE
  5
444
330
1F
100
AcDbEntity
  8
0
  6
Continuous
 62
     7
370
    25
100
AcDbLine
 10
10.3315182094
 20
222.1896433872
 30
0.0
 11
7.3319592085
 21
222.1896433872
 31
0.0
  0
LINE
  5
445
330
1F
100
AcDbEntity
  8
0
  6
Continuous
 62
     7
370
    25
100
AcDbLine
 10
7.3319592085
 20
222.1896433872
 30
0.0
 11
7.3319592085
 21
225.189202388
 31
0.0
  0
LINE
  5
446
330
1F
100
AcDbEntity
  8
0
  6
Continuous
 62
     7
370
    25
100
AcDbLine
 10
7.3319592085
 20
225.189202388
 30
0.0
 11
4.7797028966
 21
225.189202388
 31
0.0
  0
LINE
  5
447
330
1F
100
AcDbEntity
  8
0
  6
Continuous
 62
     7
370
    25
100
AcDbLine
 10
4.7797028966
 20
225.189202388
 30
0.0
 11
4.7797028966
 21
222.1896433872
 31
0.0
  0
LINE
  5
448
330
1F
100
AcDbEntity
  8
0
  6
Continuous
 62
     7
370
    25
100
AcDbLine
 10
4.7797028966
 20
222.1896433872
 30
0.0
 11
1.7801438957
 21
222.1896433872
 31
0.0
  0
LINE
  5
449
330
1F
100
AcDbEntity
  8
0
  6
Continuous
 62
     7
370
    25
100
AcDbLine
 10
1.7801438957
 20
222.1896433872
 30
0.0
 11
1.7801438957
 21
219.6373870752
 31
0.0
  0
LINE
  5
44A
330
1F
100
AcDbEntity
  8
0
  6
Continuous
 62
     7
370
    25
100
AcDbLine
 10
1.7801438957
 20
219.6373870752
 30
0.0
 11
4.7797028966
 21
219.6373870752
 31
0.0
  0
LINE
  5
44B
330
1F
100
AcDbEntity
  8
0
  6
Continuous
 62
     7
370
    25
100
AcDbLine
 10
4.7797028966
 20
219.6373870752
 30
0.0
 11
4.7797028966
 21
216.6378280744
 31
0.0
  0
LINE
  5
44C
330
1F
100
AcDbEntity
  8
0
  6
Continuous
 62
     7
370
    25
100
AcDbLine
 10
4.7797028966
 20
216.6378280744
 30
0.0
 11
7.3319592085
 21
216.6378280744
 31
0.0
  0
LINE
  5
44D
330
1F
100
AcDbEntity
  8
0
  6
Continuous
 62
     7
370
    25
100
AcDbLine
 10
7.3319592085
 20
216.6378280744
 30
0.0
 11
7.3319592085
 21
219.6373870752
 31
0.0
  0
LINE
  5
44E
330
1F
100
AcDbEntity
  8
0
  6
Continuous
 62
     7
370
    25
100
AcDbLine
 10
7.3319592085
 20
219.6373870752
 30
0.0
 11
10.3315182094
 21
219.6373870752
 31
0.0
  0
LINE
  5
44F
330
1F
100
AcDbEntity
  8
0
  6
Continuous
 62
     7
370
    25
100
AcDbLine
 10
4.7797028966
 20
195.1753459219
 30
0.0
 11
7.3319592085
 21
195.1753459219
 31
0.0
  0
LINE
  5
450
330
1F
100
AcDbEntity
  8
0
  6
Continuous
 62
     7
370
    25
100
AcDbLine
 10
7.3319592085
 20
195.1753459219
 30
0.0
 11
7.3319592085
 21
198.1749049227
 31
0.0
  0
LINE
  5
451
330
1F
100
AcDbEntity
  8
0
  6
Continuous
 62
     7
370
    25
100
AcDbLine
 10
7.3319592085
 20
198.1749049227
 30
0.0
 11
10.3315182094
 21
198.1749049227
 31
0.0
  0
LINE
  5
452
330
1F
100
AcDbEntity
  8
0
  6
Continuous
 62
     7
370
    25
100
AcDbLine
 10
10.3315182094
 20
198.1749049227
 30
0.0
 11
10.3315182094
 21
200.7271612347
 31
0.0
  0
LINE
  5
453
330
1F
100
AcDbEntity
  8
0
  6
Continuous
 62
     7
370
    25
100
AcDbLine
 10
10.3315182094
 20
200.7271612347
 30
0.0
 11
7.3319592085
 21
200.7271612347
 31
0.0
  0
LINE
  5
454
330
1F
100
AcDbEntity
  8
0
  6
Continuous
 62
     7
370
    25
100
AcDbLine
 10
7.3319592085
 20
200.7271612347
 30
0.0
 11
7.3319592085
 21
203.7267202355
 31
0.0
  0
LINE
  5
455
330
1F
100
AcDbEntity
  8
0
  6
Continuous
 62
     7
370
    25
100
AcDbLine
 10
7.3319592085
 20
203.7267202355
 30
0.0
 11
4.7797028966
 21
203.7267202355
 31
0.0
  0
LINE
  5
456
330
1F
100
AcDbEntity
  8
0
  6
Continuous
 62
     7
370
    25
100
AcDbLine
 10
4.7797028966
 20
203.7267202355
 30
0.0
 11
4.7797028966
 21
200.7271612347
 31
0.0
  0
LINE
  5
457
330
1F
100
AcDbEntity
  8
0
  6
Continuous
 62
     7
370
    25
100
AcDbLine
 10
4.7797028966
 20
200.7271612347
 30
0.0
 11
1.7801438957
 21
200.7271612347
 31
0.0
  0
LINE
  5
458
330
1F
100
AcDbEntity
  8
0
  6
Continuous
 62
     7
370
    25
100
AcDbLine
 10
1.7801438957
 20
200.7271612347
 30
0.0
 11
1.7801438957
 21
198.1749049227
 31
0.0
  0
LINE
  5
459
330
1F
100
AcDbEntity
  8
0
  6
Continuous
 62
     7
370
    25
100
AcDbLine
 10
1.7801438957
 20
198.1749049227
 30
0.0
 11
4.7797028966
 21
198.1749049227
 31
0.0
  0
LINE
  5
45A
330
1F
100
AcDbEntity
  8
0
  6
Continuous
 62
     7
370
    25
100
AcDbLine
 10
4.7797028966
 20
198.1749049227
 30
0.0
 11
4.7797028966
 21
195.1753459219
 31
0.0
  0
LINE
  5
45B
330
1F
100
AcDbEntity
  8
0
  6
Continuous
 62
     7
370
    25
100
AcDbLine
 10
-19.6823382568
 20
200.7271612347
 30
0.0
 11
-19.6823382568
 21
198.1749049227
 31
0.0
  0
LINE
  5
45C
330
1F
100
AcDbEntity
  8
0
  6
Continuous
 62
     7
370
    25
100
AcDbLine
 10
-19.6823382568
 20
198.1749049227
 30
0.0
 11
-16.6827792559
 21
198.1749049227
 31
0.0
  0
LINE
  5
45D
330
1F
100
AcDbEntity
  8
0
  6
Continuous
 62
     7
370
    25
100
AcDbLine
 10
-16.6827792559
 20
198.1749049227
 30
0.0
 11
-16.6827792559
 21
195.1753459219
 31
0.0
  0
LINE
  5
45E
330
1F
100
AcDbEntity
  8
0
  6
Continuous
 62
     7
370
    25
100
AcDbLine
 10
-16.6827792559
 20
195.1753459219
 30
0.0
 11
-14.130522944
 21
195.1753459219
 31
0.0
  0
LINE
  5
45F
330
1F
100
AcDbEntity
  8
0
  6
Continuous
 62
     7
370
    25
100
AcDbLine
 10
-14.130522944
 20
195.1753459219
 30
0.0
 11
-14.130522944
 21
198.1749049227
 31
0.0
  0
LINE
  5
460
330
1F
100
AcDbEntity
  8
0
  6
Continuous
 62
     7
370
    25
100
AcDbLine
 10
-14.130522944
 20
198.1749049227
 30
0.0
 11
-11.1309639431
 21
198.1749049227
 31
0.0
  0
LINE
  5
461
330
1F
100
AcDbEntity
  8
0
  6
Continuous
 62
     7
370
    25
100
AcDbLine
 10
-11.1309639431
 20
198.1749049227
 30
0.0
 11
-11.1309639431
 21
200.7271612347
 31
0.0
  0
LINE
  5
462
330
1F
100
AcDbEntity
  8
0
  6
Continuous
 62
     7
370
    25
100
AcDbLine
 10
-11.1309639431
 20
200.7271612347
 30
0.0
 11
-14.130522944
 21
200.7271612347
 31
0.0
  0
LINE
  5
463
330
1F
100
AcDbEntity
  8
0
  6
Continuous
 62
     7
370
    25
100
AcDbLine
 10
-14.130522944
 20
200.7271612347
 30
0.0
 11
-14.130522944
 21
203.7267202355
 31
0.0
  0
LINE
  5
464
330
1F
100
AcDbEntity
  8
0
  6
Continuous
 62
     7
370
    25
100
AcDbLine
 10
-14.130522944
 20
203.7267202355
 30
0.0
 11
-16.6827792559
 21
203.7267202355
 31
0.0
  0
LINE
  5
465
330
1F
100
AcDbEntity
  8
0
  6
Continuous
 62
     7
370
    25
100
AcDbLine
 10
-16.6827792559
 20
203.7267202355
 30
0.0
 11
-16.6827792559
 21
200.7271612347
 31
0.0
  0
LINE
  5
466
330
1F
100
AcDbEntity
  8
0
  6
Continuous
 62
     7
370
    25
100
AcDbLine
 10
-16.6827792559
 20
200.7271612347
 30
0.0
 11
-19.6823382568
 21
200.7271612347
 31
0.0
  0
LINE
  5
467
330
1F
100
AcDbEntity
  8
0
  6
Continuous
 62
     7
370
    25
100
AcDbLine
 10
-14.130522944
 20
225.189202388
 30
0.0
 11
-16.6827792559
 21
225.189202388
 31
0.0
  0
LINE
  5
468
330
1F
100
AcDbEntity
  8
0
  6
Continuous
 62
     7
370
    25
100
AcDbLine
 10
-16.6827792559
 20
225.189202388
 30
0.0
 11
-16.6827792559
 21
222.1896433872
 31
0.0
  0
LINE
  5
469
330
1F
100
AcDbEntity
  8
0
  6
Continuous
 62
     7
370
    25
100
AcDbLine
 10
-16.6827792559
 20
222.1896433872
 30
0.0
 11
-19.6823382568
 21
222.1896433872
 31
0.0
  0
LINE
  5
46A
330
1F
100
AcDbEntity
  8
0
  6
Continuous
 62
     7
370
    25
100
AcDbLine
 10
-19.6823382568
 20
222.1896433872
 30
0.0
 11
-19.6823382568
 21
219.6373870752
 31
0.0
  0
LINE
  5
46B
330
1F
100
AcDbEntity
  8
0
  6
Continuous
 62
     7
370
    25
100
AcDbLine
 10
-19.6823382568
 20
219.6373870752
 30
0.0
 11
-16.6827792559
 21
219.6373870752
 31
0.0
  0
LINE
  5
46C
330
1F
100
AcDbEntity
  8
0
  6
Continuous
 62
     7
370
    25
100
AcDbLine
 10
-16.6827792559
 20
219.6373870752
 30
0.0
 11
-16.6827792559
 21
216.6378280744
 31
0.0
  0
LINE
  5
46D
330
1F
100
AcDbEntity
  8
0
  6
Continuous
 62
     7
370
    25
100
AcDbLine
 10
-16.6827792559
 20
216.6378280744
 30
0.0
 11
-14.130522944
 21
216.6378280744
 31
0.0
  0
LINE
  5
46E
330
1F
100
AcDbEntity
  8
0
  6
Continuous
 62
     7
370
    25
100
AcDbLine
 10
-14.130522944
 20
216.6378280744
 30
0.0
 11
-14.130522944
 21
219.6373870752
 31
0.0
  0
LINE
  5
46F
330
1F
100
AcDbEntity
  8
0
  6
Continuous
 62
     7
370
    25
100
AcDbLine
 10
-14.130522944
 20
219.6373870752
 30
0.0
 11
-11.1309639431
 21
219.6373870752
 31
0.0
  0
LINE
  5
470
330
1F
100
AcDbEntity
  8
0
  6
Continuous
 62
     7
370
    25
100
AcDbLine
 10
-11.1309639431
 20
219.6373870752
 30
0.0
 11
-11.1309639431
 21
222.1896433872
 31
0.0
  0
LINE
  5
471
330
1F
100
AcDbEntity
  8
0
  6
Continuous
 62
     7
370
    25
100
AcDbLine
 10
-11.1309639431
 20
222.1896433872
 30
0.0
 11
-14.130522944
 21
222.1896433872
 31
0.0
  0
LINE
  5
472
330
1F
100
AcDbEntity
  8
0
  6
Continuous
 62
     7
370
    25
100
AcDbLine
 10
-14.130522944
 20
222.1896433872
 30
0.0
 11
-14.130522944
 21
225.189202388
 31
0.0
  0
LINE
  5
473
330
1F
100
AcDbEntity
  8
0
  6
Continuous
 62
     7
370
    25
100
AcDbLine
 10
-28.4879100237
 20
138.7447741549
 30
0.0
 11
66.7620899763
 21
138.7447741549
 31
0.0
  0
LINE
  5
474
330
1F
100
AcDbEntity
  8
0
  6
Continuous
 62
     7
370
    25
100
AcDbLine
 10
46.5279421418
 20
180.4414041419
 30
0.0
 11
51.2878692284
 21
180.4414041419
 31
0.0
  0
LINE
  5
475
330
1F
100
AcDbEntity
  8
0
  6
Continuous
 62
     7
370
    25
100
AcDbLine
 10
51.2878692284
 20
180.4414041419
 30
0.0
 11
51.2878692284
 21
182.379335507
 31
0.0
  0
LINE
  5
476
330
1F
100
AcDbEntity
  8
0
  6
Continuous
 62
     7
370
    25
100
AcDbLine
 10
51.2878692284
 20
182.379335507
 30
0.0
 11
34.6113107241
 21
182.379335507
 31
0.0
  0
LINE
  5
477
330
1F
100
AcDbEntity
  8
0
  6
Continuous
 62
     7
370
    25
100
AcDbLine
 10
34.6113107241
 20
182.379335507
 30
0.0
 11
34.6113107241
 21
180.4414041419
 31
0.0
  0
LINE
  5
478
330
1F
100
AcDbEntity
  8
0
  6
Continuous
 62
     7
370
    25
100
AcDbLine
 10
34.6113107241
 20
180.4414041419
 30
0.0
 11
39.3712378108
 21
180.4414041419
 31
0.0
  0
LINE
  5
479
330
1F
100
AcDbEntity
  8
0
  6
Continuous
 62
     7
370
    25
100
AcDbLine
 10
39.3712378108
 20
180.4414041419
 30
0.0
 11
39.3712378108
 21
166.1356263205
 31
0.0
  0
LINE
  5
47A
330
1F
100
AcDbEntity
  8
0
  6
Continuous
 62
     7
370
    25
100
AcDbLine
 10
39.3712378108
 20
166.1356263205
 30
0.0
 11
25.0654599893
 21
166.1356263205
 31
0.0
  0
LINE
  5
47B
330
1F
100
AcDbEntity
  8
0
  6
Continuous
 62
     7
370
    25
100
AcDbLine
 10
25.0654599893
 20
166.1356263205
 30
0.0
 11
25.0654599893
 21
170.8955534071
 31
0.0
  0
LINE
  5
47C
330
1F
100
AcDbEntity
  8
0
  6
Continuous
 62
     7
370
    25
100
AcDbLine
 10
25.0654599893
 20
170.8955534071
 30
0.0
 11
23.1275286243
 21
170.8955534071
 31
0.0
  0
LINE
  5
47D
330
1F
100
AcDbEntity
  8
0
  6
Continuous
 62
     7
370
    25
100
AcDbLine
 10
23.1275286243
 20
170.8955534071
 30
0.0
 11
23.1275286243
 21
154.2189949028
 31
0.0
  0
LINE
  5
47E
330
1F
100
AcDbEntity
  8
0
  6
Continuous
 62
     7
370
    25
100
AcDbLine
 10
23.1275286243
 20
154.2189949028
 30
0.0
 11
25.0654599893
 21
154.2189949028
 31
0.0
  0
LINE
  5
47F
330
1F
100
AcDbEntity
  8
0
  6
Continuous
 62
     7
370
    25
100
AcDbLine
 10
25.0654599893
 20
154.2189949028
 30
0.0
 11
25.0654599893
 21
158.9789219894
 31
0.0
  0
LINE
  5
480
330
1F
100
AcDbEntity
  8
0
  6
Continuous
 62
     7
370
    25
100
AcDbLine
 10
25.0654599893
 20
158.9789219894
 30
0.0
 11
39.3712378108
 21
158.9789219894
 31
0.0
  0
LINE
  5
481
330
1F
100
AcDbEntity
  8
0
  6
Continuous
 62
     7
370
    25
100
AcDbLine
 10
39.3712378108
 20
158.9789219894
 30
0.0
 11
39.3712378108
 21
144.673144168
 31
0.0
  0
LINE
  5
482
330
1F
100
AcDbEntity
  8
0
  6
Continuous
 62
     7
370
    25
100
AcDbLine
 10
39.3712378108
 20
144.673144168
 30
0.0
 11
34.6113107241
 21
144.673144168
 31
0.0
  0
LINE
  5
483
330
1F
100
AcDbEntity
  8
0
  6
Continuous
 62
     7
370
    25
100
AcDbLine
 10
34.6113107241
 20
144.673144168
 30
0.0
 11
34.6113107241
 21
142.7352128029
 31
0.0
  0
LINE
  5
484
330
1F
100
AcDbEntity
  8
0
  6
Continuous
 62
     7
370
    25
100
AcDbLine
 10
34.6113107241
 20
142.7352128029
 30
0.0
 11
51.2878692284
 21
142.7352128029
 31
0.0
  0
LINE
  5
485
330
1F
100
AcDbEntity
  8
0
  6
Continuous
 62
     7
370
    25
100
AcDbLine
 10
51.2878692284
 20
142.7352128029
 30
0.0
 11
51.2878692284
 21
144.673144168
 31
0.0
  0
LINE
  5
486
330
1F
100
AcDbEntity
  8
0
  6
Continuous
 62
     7
370
    25
100
AcDbLine
 10
51.2878692284
 20
144.673144168
 30
0.0
 11
46.5279421418
 21
144.673144168
 31
0.0
  0
LINE
  5
487
330
1F
100
AcDbEntity
  8
0
  6
Continuous
 62
     7
370
    25
100
AcDbLine
 10
46.5279421418
 20
144.673144168
 30
0.0
 11
46.5279421418
 21
158.9789219894
 31
0.0
  0
LINE
  5
488
330
1F
100
AcDbEntity
  8
0
  6
Continuous
 62
     7
370
    25
100
AcDbLine
 10
46.5279421418
 20
158.9789219894
 30
0.0
 11
60.8337199633
 21
158.9789219894
 31
0.0
  0
LINE
  5
489
330
1F
100
AcDbEntity
  8
0
  6
Continuous
 62
     7
370
    25
100
AcDbLine
 10
60.8337199633
 20
158.9789219894
 30
0.0
 11
60.8337199633
 21
154.2189949028
 31
0.0
  0
LINE
  5
48A
330
1F
100
AcDbEntity
  8
0
  6
Continuous
 62
     7
370
    25
100
AcDbLine
 10
60.8337199633
 20
154.2189949028
 30
0.0
 11
62.7716513283
 21
154.2189949028
 31
0.0
  0
LINE
  5
48B
330
1F
100
AcDbEntity
  8
0
  6
Continuous
 62
     7
370
    25
100
AcDbLine
 10
62.7716513283
 20
154.2189949028
 30
0.0
 11
62.7716513283
 21
170.8955534071
 31
0.0
  0
LINE
  5
48C
330
1F
100
AcDbEntity
  8
0
  6
Continuous
 62
     7
370
    25
100
AcDbLine
 10
62.7716513283
 20
170.8955534071
 30
0.0
 11
60.8337199633
 21
170.8955534071
 31
0.0
  0
LINE
  5
48D
330
1F
100
AcDbEntity
  8
0
  6
Continuous
 62
     7
370
    25
100
AcDbLine
 10
60.8337199633
 20
170.8955534071
 30
0.0
 11
60.8337199633
 21
166.1356263205
 31
0.0
  0
LINE
  5
48E
330
1F
100
AcDbEntity
  8
0
  6
Continuous
 62
     7
370
    25
100
AcDbLine
 10
60.8337199633
 20
166.1356263205
 30
0.0
 11
46.5279421418
 21
166.1356263205
 31
0.0
  0
LINE
  5
48F
330
1F
100
AcDbEntity
  8
0
  6
Continuous
 62
     7
370
    25
100
AcDbLine
 10
46.5279421418
 20
166.1356263205
 30
0.0
 11
46.5279421418
 21
180.4414041419
 31
0.0
  0
LINE
  5
490
330
1F
100
AcDbEntity
  8
0
  6
Continuous
 62
     7
370
    25
100
AcDbLine
 10
57.9565182094
 20
172.0123870752
 30
0.0
 11
57.9565182094
 21
174.5646433872
 31
0.0
  0
LINE
  5
491
330
1F
100
AcDbEntity
  8
0
  6
Continuous
 62
     7
370
    25
100
AcDbLine
 10
57.9565182094
 20
174.5646433872
 30
0.0
 11
54.9569592085
 21
174.5646433872
 31
0.0
  0
LINE
  5
492
330
1F
100
AcDbEntity
  8
0
  6
Continuous
 62
     7
370
    25
100
AcDbLine
 10
54.9569592085
 20
174.5646433872
 30
0.0
 11
54.9569592085
 21
177.564202388
 31
0.0
  0
LINE
  5
493
330
1F
100
AcDbEntity
  8
0
  6
Continuous
 62
     7
370
    25
100
AcDbLine
 10
54.9569592085
 20
177.564202388
 30
0.0
 11
52.4047028966
 21
177.564202388
 31
0.0
  0
LINE
  5
494
330
1F
100
AcDbEntity
  8
0
  6
Continuous
 62
     7
370
    25
100
AcDbLine
 10
52.4047028966
 20
177.564202388
 30
0.0
 11
52.4047028966
 21
174.5646433872
 31
0.0
  0
LINE
  5
495
330
1F
100
AcDbEntity
  8
0
  6
Continuous
 62
     7
370
    25
100
AcDbLine
 10
52.4047028966
 20
174.5646433872
 30
0.0
 11
49.4051438957
 21
174.5646433872
 31
0.0
  0
LINE
  5
496
330
1F
100
AcDbEntity
  8
0
  6
Continuous
 62
     7
370
    25
100
AcDbLine
 10
49.4051438957
 20
174.5646433872
 30
0.0
 11
49.4051438957
 21
172.0123870752
 31
0.0
  0
LINE
  5
497
330
1F
100
AcDbEntity
  8
0
  6
Continuous
 62
     7
370
    25
100
AcDbLine
 10
49.4051438957
 20
172.0123870752
 30
0.0
 11
52.4047028966
 21
172.0123870752
 31
0.0
  0
LINE
  5
498
330
1F
100
AcDbEntity
  8
0
  6
Continuous
 62
     7
370
    25
100
AcDbLine
 10
52.4047028966
 20
172.0123870752
 30
0.0
 11
52.4047028966
 21
169.0128280744
 31
0.0
  0
LINE
  5
499
330
1F
100
AcDbEntity
  8
0
  6
Continuous
 62
     7
370
    25
100
AcDbLine
 10
52.4047028966
 20
169.0128280744
 30
0.0
 11
54.9569592085
 21
169.0128280744
 31
0.0
  0
LINE
  5
49A
330
1F
100
AcDbEntity
  8
0
  6
Continuous
 62
     7
370
    25
100
AcDbLine
 10
54.9569592085
 20
169.0128280744
 30
0.0
 11
54.9569592085
 21
172.0123870752
 31
0.0
  0
LINE
  5
49B
330
1F
100
AcDbEntity
  8
0
  6
Continuous
 62
     7
370
    25
100
AcDbLine
 10
54.9569592085
 20
172.0123870752
 30
0.0
 11
57.9565182094
 21
172.0123870752
 31
0.0
  0
LINE
  5
49C
330
1F
100
AcDbEntity
  8
0
  6
Continuous
 62
     7
370
    25
100
AcDbLine
 10
52.4047028966
 20
147.5503459219
 30
0.0
 11
54.9569592085
 21
147.5503459219
 31
0.0
  0
LINE
  5
49D
330
1F
100
AcDbEntity
  8
0
  6
Continuous
 62
     7
370
    25
100
AcDbLine
 10
54.9569592085
 20
147.5503459219
 30
0.0
 11
54.9569592085
 21
150.5499049227
 31
0.0
  0
LINE
  5
49E
330
1F
100
AcDbEntity
  8
0
  6
Continuous
 62
     7
370
    25
100
AcDbLine
 10
54.9569592085
 20
150.5499049227
 30
0.0
 11
57.9565182094
 21
150.5499049227
 31
0.0
  0
LINE
  5
49F
330
1F
100
AcDbEntity
  8
0
  6
Continuous
 62
     7
370
    25
100
AcDbLine
 10
57.9565182094
 20
150.5499049227
 30
0.0
 11
57.9565182094
 21
153.1021612347
 31
0.0
  0
LINE
  5
4A0
330
1F
100
AcDbEntity
  8
0
  6
Continuous
 62
     7
370
    25
100
AcDbLine
 10
57.9565182094
 20
153.1021612347
 30
0.0
 11
54.9569592085
 21
153.1021612347
 31
0.0
  0
LINE
  5
4A1
330
1F
100
AcDbEntity
  8
0
  6
Continuous
 62
     7
370
    25
100
AcDbLine
 10
54.9569592085
 20
153.1021612347
 30
0.0
 11
54.9569592085
 21
156.1017202355
 31
0.0
  0
LINE
  5
4A2
330
1F
100
AcDbEntity
  8
0
  6
Continuous
 62
     7
370
    25
100
AcDbLine
 10
54.9569592085
 20
156.1017202355
 30
0.0
 11
52.4047028966
 21
156.1017202355
 31
0.0
  0
LINE
  5
4A3
330
1F
100
AcDbEntity
  8
0
  6
Continuous
 62
     7
370
    25
100
AcDbLine
 10
52.4047028966
 20
156.1017202355
 30
0.0
 11
52.4047028966
 21
153.1021612347
 31
0.0
  0
LINE
  5
4A4
330
1F
100
AcDbEntity
  8
0
  6
Continuous
 62
     7
370
    25
100
AcDbLine
 10
52.4047028966
 20
153.1021612347
 30
0.0
 11
49.4051438957
 21
153.1021612347
 31
0.0
  0
LINE
  5
4A5
330
1F
100
AcDbEntity
  8
0
  6
Continuous
 62
     7
370
    25
100
AcDbLine
 10
49.4051438957
 20
153.1021612347
 30
0.0
 11
49.4051438957
 21
150.5499049227
 31
0.0
  0
LINE
  5
4A6
330
1F
100
AcDbEntity
  8
0
  6
Continuous
 62
     7
370
    25
100
AcDbLine
 10
49.4051438957
 20
150.5499049227
 30
0.0
 11
52.4047028966
 21
150.5499049227
 31
0.0
  0
LINE
  5
4A7
330
1F
100
AcDbEntity
  8
0
  6
Continuous
 62
     7
370
    25
100
AcDbLine
 10
52.4047028966
 20
150.5499049227
 30
0.0
 11
52.4047028966
 21
147.5503459219
 31
0.0
  0
LINE
  5
4A8
330
1F
100
AcDbEntity
  8
0
  6
Continuous
 62
     7
370
    25
100
AcDbLine
 10
27.9426617432
 20
153.1021612347
 30
0.0
 11
27.9426617432
 21
150.5499049227
 31
0.0
  0
LINE
  5
4A9
330
1F
100
AcDbEntity
  8
0
  6
Continuous
 62
     7
370
    25
100
AcDbLine
 10
27.9426617432
 20
150.5499049227
 30
0.0
 11
30.9422207441
 21
150.5499049227
 31
0.0
  0
LINE
  5
4AA
330
1F
100
AcDbEntity
  8
0
  6
Continuous
 62
     7
370
    25
100
AcDbLine
 10
30.9422207441
 20
150.5499049227
 30
0.0
 11
30.9422207441
 21
147.5503459219
 31
0.0
  0
LINE
  5
4AB
330
1F
100
AcDbEntity
  8
0
  6
Continuous
 62
     7
370
    25
100
AcDbLine
 10
30.9422207441
 20
147.5503459219
 30
0.0
 11
33.494477056
 21
147.5503459219
 31
0.0
  0
LINE
  5
4AC
330
1F
100
AcDbEntity
  8
0
  6
Continuous
 62
     7
370
    25
100
AcDbLine
 10
33.494477056
 20
147.5503459219
 30
0.0
 11
33.494477056
 21
150.5499049227
 31
0.0
  0
LINE
  5
4AD
330
1F
100
AcDbEntity
  8
0
  6
Continuous
 62
     7
370
    25
100
AcDbLine
 10
33.494477056
 20
150.5499049227
 30
0.0
 11
36.4940360569
 21
150.5499049227
 31
0.0
  0
LINE
  5
4AE
330
1F
100
AcDbEntity
  8
0
  6
Continuous
 62
     7
370
    25
100
AcDbLine
 10
36.4940360569
 20
150.5499049227
 30
0.0
 11
36.4940360569
 21
153.1021612347
 31
0.0
  0
LINE
  5
4AF
330
1F
100
AcDbEntity
  8
0
  6
Continuous
 62
     7
370
    25
100
AcDbLine
 10
36.4940360569
 20
153.1021612347
 30
0.0
 11
33.494477056
 21
153.1021612347
 31
0.0
  0
LINE
  5
4B0
330
1F
100
AcDbEntity
  8
0
  6
Continuous
 62
     7
370
    25
100
AcDbLine
 10
33.494477056
 20
153.1021612347
 30
0.0
 11
33.494477056
 21
156.1017202355
 31
0.0
  0
LINE
  5
4B1
330
1F
100
AcDbEntity
  8
0
  6
Continuous
 62
     7
370
    25
100
AcDbLine
 10
33.494477056
 20
156.1017202355
 30
0.0
 11
30.9422207441
 21
156.1017202355
 31
0.0
  0
LINE
  5
4B2
330
1F
100
AcDbEntity
  8
0
  6
Continuous
 62
     7
370
    25
100
AcDbLine
 10
30.9422207441
 20
156.1017202355
 30
0.0
 11
30.9422207441
 21
153.1021612347
 31
0.0
  0
LINE
  5
4B3
330
1F
100
AcDbEntity
  8
0
  6
Continuous
 62
     7
370
    25
100
AcDbLine
 10
30.9422207441
 20
153.1021612347
 30
0.0
 11
27.9426617432
 21
153.1021612347
 31
0.0
  0
LINE
  5
4B4
330
1F
100
AcDbEntity
  8
0
  6
Continuous
 62
     7
370
    25
100
AcDbLine
 10
33.494477056
 20
177.564202388
 30
0.0
 11
30.9422207441
 21
177.564202388
 31
0.0
  0
LINE
  5
4B5
330
1F
100
AcDbEntity
  8
0
  6
Continuous
 62
     7
370
    25
100
AcDbLine
 10
30.9422207441
 20
177.564202388
 30
0.0
 11
30.9422207441
 21
174.5646433872
 31
0.0
  0
LINE
  5
4B6
330
1F
100
AcDbEntity
  8
0
  6
Continuous
 62
     7
370
    25
100
AcDbLine
 10
30.9422207441
 20
174.5646433872
 30
0.0
 11
27.9426617432
 21
174.5646433872
 31
0.0
  0
LINE
  5
4B7
330
1F
100
AcDbEntity
  8
0
  6
Continuous
 62
     7
370
    25
100
AcDbLine
 10
27.9426617432
 20
174.5646433872
 30
0.0
 11
27.9426617432
 21
172.0123870752
 31
0.0
  0
LINE
  5
4B8
330
1F
100
AcDbEntity
  8
0
  6
Continuous
 62
     7
370
    25
100
AcDbLine
 10
27.9426617432
 20
172.0123870752
 30
0.0
 11
30.9422207441
 21
172.0123870752
 31
0.0
  0
LINE
  5
4B9
330
1F
100
AcDbEntity
  8
0
  6
Continuous
 62
     7
370
    25
100
AcDbLine
 10
30.9422207441
 20
172.0123870752
 30
0.0
 11
30.9422207441
 21
169.0128280744
 31
0.0
  0
LINE
  5
4BA
330
1F
100
AcDbEntity
  8
0
  6
Continuous
 62
     7
370
    25
100
AcDbLine
 10
30.9422207441
 20
169.0128280744
 30
0.0
 11
33.494477056
 21
169.0128280744
 31
0.0
  0
LINE
  5
4BB
330
1F
100
AcDbEntity
  8
0
  6
Continuous
 62
     7
370
    25
100
AcDbLine
 10
33.494477056
 20
169.0128280744
 30
0.0
 11
33.494477056
 21
172.0123870752
 31
0.0
  0
LINE
  5
4BC
330
1F
100
AcDbEntity
  8
0
  6
Continuous
 62
     7
370
    25
100
AcDbLine
 10
33.494477056
 20
172.0123870752
 30
0.0
 11
36.4940360569
 21
172.0123870752
 31
0.0
  0
LINE
  5
4BD
330
1F
100
AcDbEntity
  8
0
  6
Continuous
 62
     7
370
    25
100
AcDbLine
 10
36.4940360569
 20
172.0123870752
 30
0.0
 11
36.4940360569
 21
174.5646433872
 31
0.0
  0
LINE
  5
4BE
330
1F
100
AcDbEntity
  8
0
  6
Continuous
 62
     7
370
    25
100
AcDbLine
 10
36.4940360569
 20
174.5646433872
 30
0.0
 11
33.494477056
 21
174.5646433872
 31
0.0
  0
LINE
  5
4BF
330
1F
100
AcDbEntity
  8
0
  6
Continuous
 62
     7
370
    25
100
AcDbLine
 10
33.494477056
 20
174.5646433872
 30
0.0
 11
33.494477056
 21
177.564202388
 31
0.0
  0
LINE
  5
4C0
330
1F
100
AcDbEntity
  8
0
  6
Continuous
 62
     7
370
    25
100
AcDbLine
 10
66.7620899763
 20
281.6197741549
 30
0.0
 11
-28.4879100237
 21
281.6197741549
 31
0.0
  0
LINE
  5
4C1
330
1F
100
AcDbEntity
  8
0
  6
Continuous
 62
     7
370
    25
100
AcDbLine
 10
46.5279421418
 20
275.6914041419
 30
0.0
 11
51.2878692284
 21
275.6914041419
 31
0.0
  0
LINE
  5
4C2
330
1F
100
AcDbEntity
  8
0
  6
Continuous
 62
     7
370
    25
100
AcDbLine
 10
51.2878692284
 20
275.6914041419
 30
0.0
 11
51.2878692284
 21
277.629335507
 31
0.0
  0
LINE
  5
4C3
330
1F
100
AcDbEntity
  8
0
  6
Continuous
 62
     7
370
    25
100
AcDbLine
 10
51.2878692284
 20
277.629335507
 30
0.0
 11
34.6113107241
 21
277.629335507
 31
0.0
  0
LINE
  5
4C4
330
1F
100
AcDbEntity
  8
0
  6
Continuous
 62
     7
370
    25
100
AcDbLine
 10
34.6113107241
 20
277.629335507
 30
0.0
 11
34.6113107241
 21
275.6914041419
 31
0.0
  0
LINE
  5
4C5
330
1F
100
AcDbEntity
  8
0
  6
Continuous
 62
     7
370
    25
100
AcDbLine
 10
34.6113107241
 20
275.6914041419
 30
0.0
 11
39.3712378108
 21
275.6914041419
 31
0.0
  0
LINE
  5
4C6
330
1F
100
AcDbEntity
  8
0
  6
Continuous
 62
     7
370
    25
100
AcDbLine
 10
39.3712378108
 20
275.6914041419
 30
0.0
 11
39.3712378108
 21
261.3856263205
 31
0.0
  0
LINE
  5
4C7
330
1F
100
AcDbEntity
  8
0
  6
Continuous
 62
     7
370
    25
100
AcDbLine
 10
39.3712378108
 20
261.3856263205
 30
0.0
 11
25.0654599893
 21
261.3856263205
 31
0.0
  0
LINE
  5
4C8
330
1F
100
AcDbEntity
  8
0
  6
Continuous
 62
     7
370
    25
100
AcDbLine
 10
25.0654599893
 20
261.3856263205
 30
0.0
 11
25.0654599893
 21
266.1455534071
 31
0.0
  0
LINE
  5
4C9
330
1F
100
AcDbEntity
  8
0
  6
Continuous
 62
     7
370
    25
100
AcDbLine
 10
25.0654599893
 20
266.1455534071
 30
0.0
 11
23.1275286243
 21
266.1455534071
 31
0.0
  0
LINE
  5
4CA
330
1F
100
AcDbEntity
  8
0
  6
Continuous
 62
     7
370
    25
100
AcDbLine
 10
23.1275286243
 20
266.1455534071
 30
0.0
 11
23.1275286243
 21
249.4689949028
 31
0.0
  0
LINE
  5
4CB
330
1F
100
AcDbEntity
  8
0
  6
Continuous
 62
     7
370
    25
100
AcDbLine
 10
23.1275286243
 20
249.4689949028
 30
0.0
 11
25.0654599893
 21
249.4689949028
 31
0.0
  0
LINE
  5
4CC
330
1F
100
AcDbEntity
  8
0
  6
Continuous
 62
     7
370
    25
100
AcDbLine
 10
25.0654599893
 20
249.4689949028
 30
0.0
 11
25.0654599893
 21
254.2289219894
 31
0.0
  0
LINE
  5
4CD
330
1F
100
AcDbEntity
  8
0
  6
Continuous
 62
     7
370
    25
100
AcDbLine
 10
25.0654599893
 20
254.2289219894
 30
0.0
 11
39.3712378108
 21
254.2289219894
 31
0.0
  0
LINE
  5
4CE
330
1F
100
AcDbEntity
  8
0
  6
Continuous
 62
     7
370
    25
100
AcDbLine
 10
39.3712378108
 20
254.2289219894
 30
0.0
 11
39.3712378108
 21
239.923144168
 31
0.0
  0
LINE
  5
4CF
330
1F
100
AcDbEntity
  8
0
  6
Continuous
 62
     7
370
    25
100
AcDbLine
 10
39.3712378108
 20
239.923144168
 30
0.0
 11
34.6113107241
 21
239.923144168
 31
0.0
  0
LINE
  5
4D0
330
1F
100
AcDbEntity
  8
0
  6
Continuous
 62
     7
370
    25
100
AcDbLine
 10
34.6113107241
 20
239.923144168
 30
0.0
 11
34.6113107241
 21
237.9852128029
 31
0.0
  0
LINE
  5
4D1
330
1F
100
AcDbEntity
  8
0
  6
Continuous
 62
     7
370
    25
100
AcDbLine
 10
34.6113107241
 20
237.9852128029
 30
0.0
 11
51.2878692284
 21
237.9852128029
 31
0.0
  0
LINE
  5
4D2
330
1F
100
AcDbEntity
  8
0
  6
Continuous
 62
     7
370
    25
100
AcDbLine
 10
51.2878692284
 20
237.9852128029
 30
0.0
 11
51.2878692284
 21
239.923144168
 31
0.0
  0
LINE
  5
4D3
330
1F
100
AcDbEntity
  8
0
  6
Continuous
 62
     7
370
    25
100
AcDbLine
 10
51.2878692284
 20
239.923144168
 30
0.0
 11
46.5279421418
 21
239.923144168
 31
0.0
  0
LINE
  5
4D4
330
1F
100
AcDbEntity
  8
0
  6
Continuous
 62
     7
370
    25
100
AcDbLine
 10
46.5279421418
 20
239.923144168
 30
0.0
 11
46.5279421418
 21
254.2289219894
 31
0.0
  0
LINE
  5
4D5
330
1F
100
AcDbEntity
  8
0
  6
Continuous
 62
     7
370
    25
100
AcDbLine
 10
46.5279421418
 20
254.2289219894
 30
0.0
 11
60.8337199633
 21
254.2289219894
 31
0.0
  0
LINE
  5
4D6
330
1F
100
AcDbEntity
  8
0
  6
Continuous
 62
     7
370
    25
100
AcDbLine
 10
60.8337199633
 20
254.2289219894
 30
0.0
 11
60.8337199633
 21
249.4689949028
 31
0.0
  0
LINE
  5
4D7
330
1F
100
AcDbEntity
  8
0
  6
Continuous
 62
     7
370
    25
100
AcDbLine
 10
60.8337199633
 20
249.4689949028
 30
0.0
 11
62.7716513283
 21
249.4689949028
 31
0.0
  0
LINE
  5
4D8
330
1F
100
AcDbEntity
  8
0
  6
Continuous
 62
     7
370
    25
100
AcDbLine
 10
62.7716513283
 20
249.4689949028
 30
0.0
 11
62.7716513283
 21
266.1455534071
 31
0.0
  0
LINE
  5
4D9
330
1F
100
AcDbEntity
  8
0
  6
Continuous
 62
     7
370
    25
100
AcDbLine
 10
62.7716513283
 20
266.1455534071
 30
0.0
 11
60.8337199633
 21
266.1455534071
 31
0.0
  0
LINE
  5
4DA
330
1F
100
AcDbEntity
  8
0
  6
Continuous
 62
     7
370
    25
100
AcDbLine
 10
60.8337199633
 20
266.1455534071
 30
0.0
 11
60.8337199633
 21
261.3856263205
 31
0.0
  0
LINE
  5
4DB
330
1F
100
AcDbEntity
  8
0
  6
Continuous
 62
     7
370
    25
100
AcDbLine
 10
60.8337199633
 20
261.3856263205
 30
0.0
 11
46.5279421418
 21
261.3856263205
 31
0.0
  0
LINE
  5
4DC
330
1F
100
AcDbEntity
  8
0
  6
Continuous
 62
     7
370
    25
100
AcDbLine
 10
46.5279421418
 20
261.3856263205
 30
0.0
 11
46.5279421418
 21
275.6914041419
 31
0.0
  0
LINE
  5
4DD
330
1F
100
AcDbEntity
  8
0
  6
Continuous
 62
     7
370
    25
100
AcDbLine
 10
57.9565182094
 20
267.2623870752
 30
0.0
 11
57.9565182094
 21
269.8146433872
 31
0.0
  0
LINE
  5
4DE
330
1F
100
AcDbEntity
  8
0
  6
Continuous
 62
     7
370
    25
100
AcDbLine
 10
57.9565182094
 20
269.8146433872
 30
0.0
 11
54.9569592085
 21
269.8146433872
 31
0.0
  0
LINE
  5
4DF
330
1F
100
AcDbEntity
  8
0
  6
Continuous
 62
     7
370
    25
100
AcDbLine
 10
54.9569592085
 20
269.8146433872
 30
0.0
 11
54.9569592085
 21
272.814202388
 31
0.0
  0
LINE
  5
4E0
330
1F
100
AcDbEntity
  8
0
  6
Continuous
 62
     7
370
    25
100
AcDbLine
 10
54.9569592085
 20
272.814202388
 30
0.0
 11
52.4047028966
 21
272.814202388
 31
0.0
  0
LINE
  5
4E1
330
1F
100
AcDbEntity
  8
0
  6
Continuous
 62
     7
370
    25
100
AcDbLine
 10
52.4047028966
 20
272.814202388
 30
0.0
 11
52.4047028966
 21
269.8146433872
 31
0.0
  0
LINE
  5
4E2
330
1F
100
AcDbEntity
  8
0
  6
Continuous
 62
     7
370
    25
100
AcDbLine
 10
52.4047028966
 20
269.8146433872
 30
0.0
 11
49.4051438957
 21
269.8146433872
 31
0.0
  0
LINE
  5
4E3
330
1F
100
AcDbEntity
  8
0
  6
Continuous
 62
     7
370
    25
100
AcDbLine
 10
49.4051438957
 20
269.8146433872
 30
0.0
 11
49.4051438957
 21
267.2623870752
 31
0.0
  0
LINE
  5
4E4
330
1F
100
AcDbEntity
  8
0
  6
Continuous
 62
     7
370
    25
100
AcDbLine
 10
49.4051438957
 20
267.2623870752
 30
0.0
 11
52.4047028966
 21
267.2623870752
 31
0.0
  0
LINE
  5
4E5
330
1F
100
AcDbEntity
  8
0
  6
Continuous
 62
     7
370
    25
100
AcDbLine
 10
52.4047028966
 20
267.2623870752
 30
0.0
 11
52.4047028966
 21
264.2628280744
 31
0.0
  0
LINE
  5
4E6
330
1F
100
AcDbEntity
  8
0
  6
Continuous
 62
     7
370
    25
100
AcDbLine
 10
52.4047028966
 20
264.2628280744
 30
0.0
 11
54.9569592085
 21
264.2628280744
 31
0.0
  0
LINE
  5
4E7
330
1F
100
AcDbEntity
  8
0
  6
Continuous
 62
     7
370
    25
100
AcDbLine
 10
54.9569592085
 20
264.2628280744
 30
0.0
 11
54.9569592085
 21
267.2623870752
 31
0.0
  0
LINE
  5
4E8
330
1F
100
AcDbEntity
  8
0
  6
Continuous
 62
     7
370
    25
100
AcDbLine
 10
54.9569592085
 20
267.2623870752
 30
0.0
 11
57.9565182094
 21
267.2623870752
 31
0.0
  0
LINE
  5
4E9
330
1F
100
AcDbEntity
  8
0
  6
Continuous
 62
     7
370
    25
100
AcDbLine
 10
52.4047028966
 20
242.8003459219
 30
0.0
 11
54.9569592085
 21
242.8003459219
 31
0.0
  0
LINE
  5
4EA
330
1F
100
AcDbEntity
  8
0
  6
Continuous
 62
     7
370
    25
100
AcDbLine
 10
54.9569592085
 20
242.8003459219
 30
0.0
 11
54.9569592085
 21
245.7999049227
 31
0.0
  0
LINE
  5
4EB
330
1F
100
AcDbEntity
  8
0
  6
Continuous
 62
     7
370
    25
100
AcDbLine
 10
54.9569592085
 20
245.7999049227
 30
0.0
 11
57.9565182094
 21
245.7999049227
 31
0.0
  0
LINE
  5
4EC
330
1F
100
AcDbEntity
  8
0
  6
Continuous
 62
     7
370
    25
100
AcDbLine
 10
57.9565182094
 20
245.7999049227
 30
0.0
 11
57.9565182094
 21
248.3521612347
 31
0.0
  0
LINE
  5
4ED
330
1F
100
AcDbEntity
  8
0
  6
Continuous
 62
     7
370
    25
100
AcDbLine
 10
57.9565182094
 20
248.3521612347
 30
0.0
 11
54.9569592085
 21
248.3521612347
 31
0.0
  0
LINE
  5
4EE
330
1F
100
AcDbEntity
  8
0
  6
Continuous
 62
     7
370
    25
100
AcDbLine
 10
54.9569592085
 20
248.3521612347
 30
0.0
 11
54.9569592085
 21
251.3517202355
 31
0.0
  0
LINE
  5
4EF
330
1F
100
AcDbEntity
  8
0
  6
Continuous
 62
     7
370
    25
100
AcDbLine
 10
54.9569592085
 20
251.3517202355
 30
0.0
 11
52.4047028966
 21
251.3517202355
 31
0.0
  0
LINE
  5
4F0
330
1F
100
AcDbEntity
  8
0
  6
Continuous
 62
     7
370
    25
100
AcDbLine
 10
52.4047028966
 20
251.3517202355
 30
0.0
 11
52.4047028966
 21
248.3521612347
 31
0.0
  0
LINE
  5
4F1
330
1F
100
AcDbEntity
  8
0
  6
Continuous
 62
     7
370
    25
100
AcDbLine
 10
52.4047028966
 20
248.3521612347
 30
0.0
 11
49.4051438957
 21
248.3521612347
 31
0.0
  0
LINE
  5
4F2
330
1F
100
AcDbEntity
  8
0
  6
Continuous
 62
     7
370
    25
100
AcDbLine
 10
49.4051438957
 20
248.3521612347
 30
0.0
 11
49.4051438957
 21
245.7999049227
 31
0.0
  0
LINE
  5
4F3
330
1F
100
AcDbEntity
  8
0
  6
Continuous
 62
     7
370
    25
100
AcDbLine
 10
49.4051438957
 20
245.7999049227
 30
0.0
 11
52.4047028966
 21
245.7999049227
 31
0.0
  0
LINE
  5
4F4
330
1F
100
AcDbEntity
  8
0
  6
Continuous
 62
     7
370
    25
100
AcDbLine
 10
52.4047028966
 20
245.7999049227
 30
0.0
 11
52.4047028966
 21
242.8003459219
 31
0.0
  0
LINE
  5
4F5
330
1F
100
AcDbEntity
  8
0
  6
Continuous
 62
     7
370
    25
100
AcDbLine
 10
27.9426617432
 20
248.3521612347
 30
0.0
 11
27.9426617432
 21
245.7999049227
 31
0.0
  0
LINE
  5
4F6
330
1F
100
AcDbEntity
  8
0
  6
Continuous
 62
     7
370
    25
100
AcDbLine
 10
27.9426617432
 20
245.7999049227
 30
0.0
 11
30.9422207441
 21
245.7999049227
 31
0.0
  0
LINE
  5
4F7
330
1F
100
AcDbEntity
  8
0
  6
Continuous
 62
     7
370
    25
100
AcDbLine
 10
30.9422207441
 20
245.7999049227
 30
0.0
 11
30.9422207441
 21
242.8003459219
 31
0.0
  0
LINE
  5
4F8
330
1F
100
AcDbEntity
  8
0
  6
Continuous
 62
     7
370
    25
100
AcDbLine
 10
30.9422207441
 20
242.8003459219
 30
0.0
 11
33.494477056
 21
242.8003459219
 31
0.0
  0
LINE
  5
4F9
330
1F
100
AcDbEntity
  8
0
  6
Continuous
 62
     7
370
    25
100
AcDbLine
 10
33.494477056
 20
242.8003459219
 30
0.0
 11
33.494477056
 21
245.7999049227
 31
0.0
  0
LINE
  5
4FA
330
1F
100
AcDbEntity
  8
0
  6
Continuous
 62
     7
370
    25
100
AcDbLine
 10
33.494477056
 20
245.7999049227
 30
0.0
 11
36.4940360569
 21
245.7999049227
 31
0.0
  0
LINE
  5
4FB
330
1F
100
AcDbEntity
  8
0
  6
Continuous
 62
     7
370
    25
100
AcDbLine
 10
36.4940360569
 20
245.7999049227
 30
0.0
 11
36.4940360569
 21
248.3521612347
 31
0.0
  0
LINE
  5
4FC
330
1F
100
AcDbEntity
  8
0
  6
Continuous
 62
     7
370
    25
100
AcDbLine
 10
36.4940360569
 20
248.3521612347
 30
0.0
 11
33.494477056
 21
248.3521612347
 31
0.0
  0
LINE
  5
4FD
330
1F
100
AcDbEntity
  8
0
  6
Continuous
 62
     7
370
    25
100
AcDbLine
 10
33.494477056
 20
248.3521612347
 30
0.0
 11
33.494477056
 21
251.3517202355
 31
0.0
  0
LINE
  5
4FE
330
1F
100
AcDbEntity
  8
0
  6
Continuous
 62
     7
370
    25
100
AcDbLine
 10
33.494477056
 20
251.3517202355
 30
0.0
 11
30.9422207441
 21
251.3517202355
 31
0.0
  0
LINE
  5
4FF
330
1F
100
AcDbEntity
  8
0
  6
Continuous
 62
     7
370
    25
100
AcDbLine
 10
30.9422207441
 20
251.3517202355
 30
0.0
 11
30.9422207441
 21
248.3521612347
 31
0.0
  0
LINE
  5
500
330
1F
100
AcDbEntity
  8
0
  6
Continuous
 62
     7
370
    25
100
AcDbLine
 10
30.9422207441
 20
248.3521612347
 30
0.0
 11
27.9426617432
 21
248.3521612347
 31
0.0
  0
LINE
  5
501
330
1F
100
AcDbEntity
  8
0
  6
Continuous
 62
     7
370
    25
100
AcDbLine
 10
33.494477056
 20
272.814202388
 30
0.0
 11
30.9422207441
 21
272.814202388
 31
0.0
  0
LINE
  5
502
330
1F
100
AcDbEntity
  8
0
  6
Continuous
 62
     7
370
    25
100
AcDbLine
 10
30.9422207441
 20
272.814202388
 30
0.0
 11
30.9422207441
 21
269.8146433872
 31
0.0
  0
LINE
  5
503
330
1F
100
AcDbEntity
  8
0
  6
Continuous
 62
     7
370
    25
100
AcDbLine
 10
30.9422207441
 20
269.8146433872
 30
0.0
 11
27.9426617432
 21
269.8146433872
 31
0.0
  0
LINE
  5
504
330
1F
100
AcDbEntity
  8
0
  6
Continuous
 62
     7
370
    25
100
AcDbLine
 10
27.9426617432
 20
269.8146433872
 30
0.0
 11
27.9426617432
 21
267.2623870752
 31
0.0
  0
LINE
  5
505
330
1F
100
AcDbEntity
  8
0
  6
Continuous
 62
     7
370
    25
100
AcDbLine
 10
27.9426617432
 20
267.2623870752
 30
0.0
 11
30.9422207441
 21
267.2623870752
 31
0.0
  0
LINE
  5
506
330
1F
100
AcDbEntity
  8
0
  6
Continuous
 62
     7
370
    25
100
AcDbLine
 10
30.9422207441
 20
267.2623870752
 30
0.0
 11
30.9422207441
 21
264.2628280744
 31
0.0
  0
LINE
  5
507
330
1F
100
AcDbEntity
  8
0
  6
Continuous
 62
     7
370
    25
100
AcDbLine
 10
30.9422207441
 20
264.2628280744
 30
0.0
 11
33.494477056
 21
264.2628280744
 31
0.0
  0
LINE
  5
508
330
1F
100
AcDbEntity
  8
0
  6
Continuous
 62
     7
370
    25
100
AcDbLine
 10
33.494477056
 20
264.2628280744
 30
0.0
 11
33.494477056
 21
267.2623870752
 31
0.0
  0
LINE
  5
509
330
1F
100
AcDbEntity
  8
0
  6
Continuous
 62
     7
370
    25
100
AcDbLine
 10
33.494477056
 20
267.2623870752
 30
0.0
 11
36.4940360569
 21
267.2623870752
 31
0.0
  0
LINE
  5
50A
330
1F
100
AcDbEntity
  8
0
  6
Continuous
 62
     7
370
    25
100
AcDbLine
 10
36.4940360569
 20
267.2623870752
 30
0.0
 11
36.4940360569
 21
269.8146433872
 31
0.0
  0
LINE
  5
50B
330
1F
100
AcDbEntity
  8
0
  6
Continuous
 62
     7
370
    25
100
AcDbLine
 10
36.4940360569
 20
269.8146433872
 30
0.0
 11
33.494477056
 21
269.8146433872
 31
0.0
  0
LINE
  5
50C
330
1F
100
AcDbEntity
  8
0
  6
Continuous
 62
     7
370
    25
100
AcDbLine
 10
33.494477056
 20
269.8146433872
 30
0.0
 11
33.494477056
 21
272.814202388
 31
0.0
  0
LINE
  5
50D
330
1F
100
AcDbEntity
  8
0
  6
Continuous
 62
     7
370
    25
100
AcDbLine
 10
-1.0970578582
 20
275.6914041419
 30
0.0
 11
3.6628692284
 21
275.6914041419
 31
0.0
  0
LINE
  5
50E
330
1F
100
AcDbEntity
  8
0
  6
Continuous
 62
     7
370
    25
100
AcDbLine
 10
3.6628692284
 20
275.6914041419
 30
0.0
 11
3.6628692284
 21
277.629335507
 31
0.0
  0
LINE
  5
50F
330
1F
100
AcDbEntity
  8
0
  6
Continuous
 62
     7
370
    25
100
AcDbLine
 10
3.6628692284
 20
277.629335507
 30
0.0
 11
-13.0136892759
 21
277.629335507
 31
0.0
  0
LINE
  5
510
330
1F
100
AcDbEntity
  8
0
  6
Continuous
 62
     7
370
    25
100
AcDbLine
 10
-13.0136892759
 20
277.629335507
 30
0.0
 11
-13.0136892759
 21
275.6914041419
 31
0.0
  0
LINE
  5
511
330
1F
100
AcDbEntity
  8
0
  6
Continuous
 62
     7
370
    25
100
AcDbLine
 10
-13.0136892759
 20
275.6914041419
 30
0.0
 11
-8.2537621892
 21
275.6914041419
 31
0.0
  0
LINE
  5
512
330
1F
100
AcDbEntity
  8
0
  6
Continuous
 62
     7
370
    25
100
AcDbLine
 10
-8.2537621892
 20
275.6914041419
 30
0.0
 11
-8.2537621892
 21
261.3856263205
 31
0.0
  0
LINE
  5
513
330
1F
100
AcDbEntity
  8
0
  6
Continuous
 62
     7
370
    25
100
AcDbLine
 10
-8.2537621892
 20
261.3856263205
 30
0.0
 11
-22.5595400107
 21
261.3856263205
 31
0.0
  0
LINE
  5
514
330
1F
100
AcDbEntity
  8
0
  6
Continuous
 62
     7
370
    25
100
AcDbLine
 10
-22.5595400107
 20
261.3856263205
 30
0.0
 11
-22.5595400107
 21
266.1455534071
 31
0.0
  0
LINE
  5
515
330
1F
100
AcDbEntity
  8
0
  6
Continuous
 62
     7
370
    25
100
AcDbLine
 10
-22.5595400107
 20
266.1455534071
 30
0.0
 11
-24.4974713757
 21
266.1455534071
 31
0.0
  0
LINE
  5
516
330
1F
100
AcDbEntity
  8
0
  6
Continuous
 62
     7
370
    25
100
AcDbLine
 10
-24.4974713757
 20
266.1455534071
 30
0.0
 11
-24.4974713757
 21
249.4689949028
 31
0.0
  0
LINE
  5
517
330
1F
100
AcDbEntity
  8
0
  6
Continuous
 62
     7
370
    25
100
AcDbLine
 10
-24.4974713757
 20
249.4689949028
 30
0.0
 11
-22.5595400107
 21
249.4689949028
 31
0.0
  0
LINE
  5
518
330
1F
100
AcDbEntity
  8
0
  6
Continuous
 62
     7
370
    25
100
AcDbLine
 10
-22.5595400107
 20
249.4689949028
 30
0.0
 11
-22.5595400107
 21
254.2289219894
 31
0.0
  0
LINE
  5
519
330
1F
100
AcDbEntity
  8
0
  6
Continuous
 62
     7
370
    25
100
AcDbLine
 10
-22.5595400107
 20
254.2289219894
 30
0.0
 11
-8.2537621892
 21
254.2289219894
 31
0.0
  0
LINE
  5
51A
330
1F
100
AcDbEntity
  8
0
  6
Continuous
 62
     7
370
    25
100
AcDbLine
 10
-8.2537621892
 20
254.2289219894
 30
0.0
 11
-8.2537621892
 21
239.923144168
 31
0.0
  0
LINE
  5
51B
330
1F
100
AcDbEntity
  8
0
  6
Continuous
 62
     7
370
    25
100
AcDbLine
 10
-8.2537621892
 20
239.923144168
 30
0.0
 11
-13.0136892759
 21
239.923144168
 31
0.0
  0
LINE
  5
51C
330
1F
100
AcDbEntity
  8
0
  6
Continuous
 62
     7
370
    25
100
AcDbLine
 10
-13.0136892759
 20
239.923144168
 30
0.0
 11
-13.0136892759
 21
237.9852128029
 31
0.0
  0
LINE
  5
51D
330
1F
100
AcDbEntity
  8
0
  6
Continuous
 62
     7
370
    25
100
AcDbLine
 10
-13.0136892759
 20
237.9852128029
 30
0.0
 11
3.6628692284
 21
237.9852128029
 31
0.0
  0
LINE
  5
51E
330
1F
100
AcDbEntity
  8
0
  6
Continuous
 62
     7
370
    25
100
AcDbLine
 10
3.6628692284
 20
237.9852128029
 30
0.0
 11
3.6628692284
 21
239.923144168
 31
0.0
  0
LINE
  5
51F
330
1F
100
AcDbEntity
  8
0
  6
Continuous
 62
     7
370
    25
100
AcDbLine
 10
3.6628692284
 20
239.923144168
 30
0.0
 11
-1.0970578582
 21
239.923144168
 31
0.0
  0
LINE
  5
520
330
1F
100
AcDbEntity
  8
0
  6
Continuous
 62
     7
370
    25
100
AcDbLine
 10
-1.0970578582
 20
239.923144168
 30
0.0
 11
-1.0970578582
 21
254.2289219894
 31
0.0
  0
LINE
  5
521
330
1F
100
AcDbEntity
  8
0
  6
Continuous
 62
     7
370
    25
100
AcDbLine
 10
-1.0970578582
 20
254.2289219894
 30
0.0
 11
13.2087199633
 21
254.2289219894
 31
0.0
  0
LINE
  5
522
330
1F
100
AcDbEntity
  8
0
  6
Continuous
 62
     7
370
    25
100
AcDbLine
 10
13.2087199633
 20
254.2289219894
 30
0.0
 11
13.2087199633
 21
249.4689949028
 31
0.0
  0
LINE
  5
523
330
1F
100
AcDbEntity
  8
0
  6
Continuous
 62
     7
370
    25
100
AcDbLine
 10
13.2087199633
 20
249.4689949028
 30
0.0
 11
15.1466513283
 21
249.4689949028
 31
0.0
  0
LINE
  5
524
330
1F
100
AcDbEntity
  8
0
  6
Continuous
 62
     7
370
    25
100
AcDbLine
 10
15.1466513283
 20
249.4689949028
 30
0.0
 11
15.1466513283
 21
266.1455534071
 31
0.0
  0
LINE
  5
525
330
1F
100
AcDbEntity
  8
0
  6
Continuous
 62
     7
370
    25
100
AcDbLine
 10
15.1466513283
 20
266.1455534071
 30
0.0
 11
13.2087199633
 21
266.1455534071
 31
0.0
  0
LINE
  5
526
330
1F
100
AcDbEntity
  8
0
  6
Continuous
 62
     7
370
    25
100
AcDbLine
 10
13.2087199633
 20
266.1455534071
 30
0.0
 11
13.2087199633
 21
261.3856263205
 31
0.0
  0
LINE
  5
527
330
1F
100
AcDbEntity
  8
0
  6
Continuous
 62
     7
370
    25
100
AcDbLine
 10
13.2087199633
 20
261.3856263205
 30
0.0
 11
-1.0970578582
 21
261.3856263205
 31
0.0
  0
LINE
  5
528
330
1F
100
AcDbEntity
  8
0
  6
Continuous
 62
     7
370
    25
100
AcDbLine
 10
-1.0970578582
 20
261.3856263205
 30
0.0
 11
-1.0970578582
 21
275.6914041419
 31
0.0
  0
LINE
  5
529
330
1F
100
AcDbEntity
  8
0
  6
Continuous
 62
     7
370
    25
100
AcDbLine
 10
10.3315182094
 20
267.2623870752
 30
0.0
 11
10.3315182094
 21
269.8146433872
 31
0.0
  0
LINE
  5
52A
330
1F
100
AcDbEntity
  8
0
  6
Continuous
 62
     7
370
    25
100
AcDbLine
 10
10.3315182094
 20
269.8146433872
 30
0.0
 11
7.3319592085
 21
269.8146433872
 31
0.0
  0
LINE
  5
52B
330
1F
100
AcDbEntity
  8
0
  6
Continuous
 62
     7
370
    25
100
AcDbLine
 10
7.3319592085
 20
269.8146433872
 30
0.0
 11
7.3319592085
 21
272.814202388
 31
0.0
  0
LINE
  5
52C
330
1F
100
AcDbEntity
  8
0
  6
Continuous
 62
     7
370
    25
100
AcDbLine
 10
7.3319592085
 20
272.814202388
 30
0.0
 11
4.7797028966
 21
272.814202388
 31
0.0
  0
LINE
  5
52D
330
1F
100
AcDbEntity
  8
0
  6
Continuous
 62
     7
370
    25
100
AcDbLine
 10
4.7797028966
 20
272.814202388
 30
0.0
 11
4.7797028966
 21
269.8146433872
 31
0.0
  0
LINE
  5
52E
330
1F
100
AcDbEntity
  8
0
  6
Continuous
 62
     7
370
    25
100
AcDbLine
 10
4.7797028966
 20
269.8146433872
 30
0.0
 11
1.7801438957
 21
269.8146433872
 31
0.0
  0
LINE
  5
52F
330
1F
100
AcDbEntity
  8
0
  6
Continuous
 62
     7
370
    25
100
AcDbLine
 10
1.7801438957
 20
269.8146433872
 30
0.0
 11
1.7801438957
 21
267.2623870752
 31
0.0
  0
LINE
  5
530
330
1F
100
AcDbEntity
  8
0
  6
Continuous
 62
     7
370
    25
100
AcDbLine
 10
1.7801438957
 20
267.2623870752
 30
0.0
 11
4.7797028966
 21
267.2623870752
 31
0.0
  0
LINE
  5
531
330
1F
100
AcDbEntity
  8
0
  6
Continuous
 62
     7
370
    25
100
AcDbLine
 10
4.7797028966
 20
267.2623870752
 30
0.0
 11
4.7797028966
 21
264.2628280744
 31
0.0
  0
LINE
  5
532
330
1F
100
AcDbEntity
  8
0
  6
Continuous
 62
     7
370
    25
100
AcDbLine
 10
4.7797028966
 20
264.2628280744
 30
0.0
 11
7.3319592085
 21
264.2628280744
 31
0.0
  0
LINE
  5
533
330
1F
100
AcDbEntity
  8
0
  6
Continuous
 62
     7
370
    25
100
AcDbLine
 10
7.3319592085
 20
264.2628280744
 30
0.0
 11
7.3319592085
 21
267.2623870752
 31
0.0
  0
LINE
  5
534
330
1F
100
AcDbEntity
  8
0
  6
Continuous
 62
     7
370
    25
100
AcDbLine
 10
7.3319592085
 20
267.2623870752
 30
0.0
 11
10.3315182094
 21
267.2623870752
 31
0.0
  0
LINE
  5
535
330
1F
100
AcDbEntity
  8
0
  6
Continuous
 62
     7
370
    25
100
AcDbLine
 10
4.7797028966
 20
242.8003459219
 30
0.0
 11
7.3319592085
 21
242.8003459219
 31
0.0
  0
LINE
  5
536
330
1F
100
AcDbEntity
  8
0
  6
Continuous
 62
     7
370
    25
100
AcDbLine
 10
7.3319592085
 20
242.8003459219
 30
0.0
 11
7.3319592085
 21
245.7999049227
 31
0.0
  0
LINE
  5
537
330
1F
100
AcDbEntity
  8
0
  6
Continuous
 62
     7
370
    25
100
AcDbLine
 10
7.3319592085
 20
245.7999049227
 30
0.0
 11
10.3315182094
 21
245.7999049227
 31
0.0
  0
LINE
  5
538
330
1F
100
AcDbEntity
  8
0
  6
Continuous
 62
     7
370
    25
100
AcDbLine
 10
10.3315182094
 20
245.7999049227
 30
0.0
 11
10.3315182094
 21
248.3521612347
 31
0.0
  0
LINE
  5
539
330
1F
100
AcDbEntity
  8
0
  6
Continuous
 62
     7
370
    25
100
AcDbLine
 10
10.3315182094
 20
248.3521612347
 30
0.0
 11
7.3319592085
 21
248.3521612347
 31
0.0
  0
LINE
  5
53A
330
1F
100
AcDbEntity
  8
0
  6
Continuous
 62
     7
370
    25
100
AcDbLine
 10
7.3319592085
 20
248.3521612347
 30
0.0
 11
7.3319592085
 21
251.3517202355
 31
0.0
  0
LINE
  5
53B
330
1F
100
AcDbEntity
  8
0
  6
Continuous
 62
     7
370
    25
100
AcDbLine
 10
7.3319592085
 20
251.3517202355
 30
0.0
 11
4.7797028966
 21
251.3517202355
 31
0.0
  0
LINE
  5
53C
330
1F
100
AcDbEntity
  8
0
  6
Continuous
 62
     7
370
    25
100
AcDbLine
 10
4.7797028966
 20
251.3517202355
 30
0.0
 11
4.7797028966
 21
248.3521612347
 31
0.0
  0
LINE
  5
53D
330
1F
100
AcDbEntity
  8
0
  6
Continuous
 62
     7
370
    25
100
AcDbLine
 10
4.7797028966
 20
248.3521612347
 30
0.0
 11
1.7801438957
 21
248.3521612347
 31
0.0
  0
LINE
  5
53E
330
1F
100
AcDbEntity
  8
0
  6
Continuous
 62
     7
370
    25
100
AcDbLine
 10
1.7801438957
 20
248.3521612347
 30
0.0
 11
1.7801438957
 21
245.7999049227
 31
0.0
  0
LINE
  5
53F
330
1F
100
AcDbEntity
  8
0
  6
Continuous
 62
     7
370
    25
100
AcDbLine
 10
1.7801438957
 20
245.7999049227
 30
0.0
 11
4.7797028966
 21
245.7999049227
 31
0.0
  0
LINE
  5
540
330
1F
100
AcDbEntity
  8
0
  6
Continuous
 62
     7
370
    25
100
AcDbLine
 10
4.7797028966
 20
245.7999049227
 30
0.0
 11
4.7797028966
 21
242.8003459219
 31
0.0
  0
LINE
  5
541
330
1F
100
AcDbEntity
  8
0
  6
Continuous
 62
     7
370
    25
100
AcDbLine
 10
-19.6823382568
 20
248.3521612347
 30
0.0
 11
-19.6823382568
 21
245.7999049227
 31
0.0
  0
LINE
  5
542
330
1F
100
AcDbEntity
  8
0
  6
Continuous
 62
     7
370
    25
100
AcDbLine
 10
-19.6823382568
 20
245.7999049227
 30
0.0
 11
-16.6827792559
 21
245.7999049227
 31
0.0
  0
LINE
  5
543
330
1F
100
AcDbEntity
  8
0
  6
Continuous
 62
     7
370
    25
100
AcDbLine
 10
-16.6827792559
 20
245.7999049227
 30
0.0
 11
-16.6827792559
 21
242.8003459219
 31
0.0
  0
LINE
  5
544
330
1F
100
AcDbEntity
  8
0
  6
Continuous
 62
     7
370
    25
100
AcDbLine
 10
-16.6827792559
 20
242.8003459219
 30
0.0
 11
-14.130522944
 21
242.8003459219
 31
0.0
  0
LINE
  5
545
330
1F
100
AcDbEntity
  8
0
  6
Continuous
 62
     7
370
    25
100
AcDbLine
 10
-14.130522944
 20
242.8003459219
 30
0.0
 11
-14.130522944
 21
245.7999049227
 31
0.0
  0
LINE
  5
546
330
1F
100
AcDbEntity
  8
0
  6
Continuous
 62
     7
370
    25
100
AcDbLine
 10
-14.130522944
 20
245.7999049227
 30
0.0
 11
-11.1309639431
 21
245.7999049227
 31
0.0
  0
LINE
  5
547
330
1F
100
AcDbEntity
  8
0
  6
Continuous
 62
     7
370
    25
100
AcDbLine
 10
-11.1309639431
 20
245.7999049227
 30
0.0
 11
-11.1309639431
 21
248.3521612347
 31
0.0
  0
LINE
  5
548
330
1F
100
AcDbEntity
  8
0
  6
Continuous
 62
     7
370
    25
100
AcDbLine
 10
-11.1309639431
 20
248.3521612347
 30
0.0
 11
-14.130522944
 21
248.3521612347
 31
0.0
  0
LINE
  5
549
330
1F
100
AcDbEntity
  8
0
  6
Continuous
 62
     7
370
    25
100
AcDbLine
 10
-14.130522944
 20
248.3521612347
 30
0.0
 11
-14.130522944
 21
251.3517202355
 31
0.0
  0
LINE
  5
54A
330
1F
100
AcDbEntity
  8
0
  6
Continuous
 62
     7
370
    25
100
AcDbLine
 10
-14.130522944
 20
251.3517202355
 30
0.0
 11
-16.6827792559
 21
251.3517202355
 31
0.0
  0
LINE
  5
54B
330
1F
100
AcDbEntity
  8
0
  6
Continuous
 62
     7
370
    25
100
AcDbLine
 10
-16.6827792559
 20
251.3517202355
 30
0.0
 11
-16.6827792559
 21
248.3521612347
 31
0.0
  0
LINE
  5
54C
330
1F
100
AcDbEntity
  8
0
  6
Continuous
 62
     7
370
    25
100
AcDbLine
 10
-16.6827792559
 20
248.3521612347
 30
0.0
 11
-19.6823382568
 21
248.3521612347
 31
0.0
  0
LINE
  5
54D
330
1F
100
AcDbEntity
  8
0
  6
Continuous
 62
     7
370
    25
100
AcDbLine
 10
-14.130522944
 20
272.814202388
 30
0.0
 11
-16.6827792559
 21
272.814202388
 31
0.0
  0
LINE
  5
54E
330
1F
100
AcDbEntity
  8
0
  6
Continuous
 62
     7
370
    25
100
AcDbLine
 10
-16.6827792559
 20
272.814202388
 30
0.0
 11
-16.6827792559
 21
269.8146433872
 31
0.0
  0
LINE
  5
54F
330
1F
100
AcDbEntity
  8
0
  6
Continuous
 62
     7
370
    25
100
AcDbLine
 10
-16.6827792559
 20
269.8146433872
 30
0.0
 11
-19.6823382568
 21
269.8146433872
 31
0.0
  0
LINE
  5
550
330
1F
100
AcDbEntity
  8
0
  6
Continuous
 62
     7
370
    25
100
AcDbLine
 10
-19.6823382568
 20
269.8146433872
 30
0.0
 11
-19.6823382568
 21
267.2623870752
 31
0.0
  0
LINE
  5
551
330
1F
100
AcDbEntity
  8
0
  6
Continuous
 62
     7
370
    25
100
AcDbLine
 10
-19.6823382568
 20
267.2623870752
 30
0.0
 11
-16.6827792559
 21
267.2623870752
 31
0.0
  0
LINE
  5
552
330
1F
100
AcDbEntity
  8
0
  6
Continuous
 62
     7
370
    25
100
AcDbLine
 10
-16.6827792559
 20
267.2623870752
 30
0.0
 11
-16.6827792559
 21
264.2628280744
 31
0.0
  0
LINE
  5
553
330
1F
100
AcDbEntity
  8
0
  6
Continuous
 62
     7
370
    25
100
AcDbLine
 10
-16.6827792559
 20
264.2628280744
 30
0.0
 11
-14.130522944
 21
264.2628280744
 31
0.0
  0
LINE
  5
554
330
1F
100
AcDbEntity
  8
0
  6
Continuous
 62
     7
370
    25
100
AcDbLine
 10
-14.130522944
 20
264.2628280744
 30
0.0
 11
-14.130522944
 21
267.2623870752
 31
0.0
  0
LINE
  5
555
330
1F
100
AcDbEntity
  8
0
  6
Continuous
 62
     7
370
    25
100
AcDbLine
 10
-14.130522944
 20
267.2623870752
 30
0.0
 11
-11.1309639431
 21
267.2623870752
 31
0.0
  0
LINE
  5
556
330
1F
100
AcDbEntity
  8
0
  6
Continuous
 62
     7
370
    25
100
AcDbLine
 10
-11.1309639431
 20
267.2623870752
 30
0.0
 11
-11.1309639431
 21
269.8146433872
 31
0.0
  0
LINE
  5
557
330
1F
100
AcDbEntity
  8
0
  6
Continuous
 62
     7
370
    25
100
AcDbLine
 10
-11.1309639431
 20
269.8146433872
 30
0.0
 11
-14.130522944
 21
269.8146433872
 31
0.0
  0
LINE
  5
558
330
1F
100
AcDbEntity
  8
0
  6
Continuous
 62
     7
370
    25
100
AcDbLine
 10
-14.130522944
 20
269.8146433872
 30
0.0
 11
-14.130522944
 21
272.814202388
 31
0.0
  0
LINE
  5
559
330
1F
100
AcDbEntity
  8
0
  6
Continuous
 62
     7
370
    25
100
AcDbLine
 10
-1.0970578582
 20
180.4414041419
 30
0.0
 11
3.6628692284
 21
180.4414041419
 31
0.0
  0
LINE
  5
55A
330
1F
100
AcDbEntity
  8
0
  6
Continuous
 62
     7
370
    25
100
AcDbLine
 10
3.6628692284
 20
180.4414041419
 30
0.0
 11
3.6628692284
 21
182.379335507
 31
0.0
  0
LINE
  5
55B
330
1F
100
AcDbEntity
  8
0
  6
Continuous
 62
     7
370
    25
100
AcDbLine
 10
3.6628692284
 20
182.379335507
 30
0.0
 11
-13.0136892759
 21
182.379335507
 31
0.0
  0
LINE
  5
55C
330
1F
100
AcDbEntity
  8
0
  6
Continuous
 62
     7
370
    25
100
AcDbLine
 10
-13.0136892759
 20
182.379335507
 30
0.0
 11
-13.0136892759
 21
180.4414041419
 31
0.0
  0
LINE
  5
55D
330
1F
100
AcDbEntity
  8
0
  6
Continuous
 62
     7
370
    25
100
AcDbLine
 10
-13.0136892759
 20
180.4414041419
 30
0.0
 11
-8.2537621892
 21
180.4414041419
 31
0.0
  0
LINE
  5
55E
330
1F
100
AcDbEntity
  8
0
  6
Continuous
 62
     7
370
    25
100
AcDbLine
 10
-8.2537621892
 20
180.4414041419
 30
0.0
 11
-8.2537621892
 21
166.1356263205
 31
0.0
  0
LINE
  5
55F
330
1F
100
AcDbEntity
  8
0
  6
Continuous
 62
     7
370
    25
100
AcDbLine
 10
-8.2537621892
 20
166.1356263205
 30
0.0
 11
-22.5595400107
 21
166.1356263205
 31
0.0
  0
LINE
  5
560
330
1F
100
AcDbEntity
  8
0
  6
Continuous
 62
     7
370
    25
100
AcDbLine
 10
-22.5595400107
 20
166.1356263205
 30
0.0
 11
-22.5595400107
 21
170.8955534071
 31
0.0
  0
LINE
  5
561
330
1F
100
AcDbEntity
  8
0
  6
Continuous
 62
     7
370
    25
100
AcDbLine
 10
-22.5595400107
 20
170.8955534071
 30
0.0
 11
-24.4974713757
 21
170.8955534071
 31
0.0
  0
LINE
  5
562
330
1F
100
AcDbEntity
  8
0
  6
Continuous
 62
     7
370
    25
100
AcDbLine
 10
-24.4974713757
 20
170.8955534071
 30
0.0
 11
-24.4974713757
 21
154.2189949028
 31
0.0
  0
LINE
  5
563
330
1F
100
AcDbEntity
  8
0
  6
Continuous
 62
     7
370
    25
100
AcDbLine
 10
-24.4974713757
 20
154.2189949028
 30
0.0
 11
-22.5595400107
 21
154.2189949028
 31
0.0
  0
LINE
  5
564
330
1F
100
AcDbEntity
  8
0
  6
Continuous
 62
     7
370
    25
100
AcDbLine
 10
-22.5595400107
 20
154.2189949028
 30
0.0
 11
-22.5595400107
 21
158.9789219894
 31
0.0
  0
LINE
  5
565
330
1F
100
AcDbEntity
  8
0
  6
Continuous
 62
     7
370
    25
100
AcDbLine
 10
-22.5595400107
 20
158.9789219894
 30
0.0
 11
-8.2537621892
 21
158.9789219894
 31
0.0
  0
LINE
  5
566
330
1F
100
AcDbEntity
  8
0
  6
Continuous
 62
     7
370
    25
100
AcDbLine
 10
-8.2537621892
 20
158.9789219894
 30
0.0
 11
-8.2537621892
 21
144.673144168
 31
0.0
  0
LINE
  5
567
330
1F
100
AcDbEntity
  8
0
  6
Continuous
 62
     7
370
    25
100
AcDbLine
 10
-8.2537621892
 20
144.673144168
 30
0.0
 11
-13.0136892759
 21
144.673144168
 31
0.0
  0
LINE
  5
568
330
1F
100
AcDbEntity
  8
0
  6
Continuous
 62
     7
370
    25
100
AcDbLine
 10
-13.0136892759
 20
144.673144168
 30
0.0
 11
-13.0136892759
 21
142.7352128029
 31
0.0
  0
LINE
  5
569
330
1F
100
AcDbEntity
  8
0
  6
Continuous
 62
     7
370
    25
100
AcDbLine
 10
-13.0136892759
 20
142.7352128029
 30
0.0
 11
3.6628692284
 21
142.7352128029
 31
0.0
  0
LINE
  5
56A
330
1F
100
AcDbEntity
  8
0
  6
Continuous
 62
     7
370
    25
100
AcDbLine
 10
3.6628692284
 20
142.7352128029
 30
0.0
 11
3.6628692284
 21
144.673144168
 31
0.0
  0
LINE
  5
56B
330
1F
100
AcDbEntity
  8
0
  6
Continuous
 62
     7
370
    25
100
AcDbLine
 10
3.6628692284
 20
144.673144168
 30
0.0
 11
-1.0970578582
 21
144.673144168
 31
0.0
  0
LINE
  5
56C
330
1F
100
AcDbEntity
  8
0
  6
Continuous
 62
     7
370
    25
100
AcDbLine
 10
-1.0970578582
 20
144.673144168
 30
0.0
 11
-1.0970578582
 21
158.9789219894
 31
0.0
  0
LINE
  5
56D
330
1F
100
AcDbEntity
  8
0
  6
Continuous
 62
     7
370
    25
100
AcDbLine
 10
-1.0970578582
 20
158.9789219894
 30
0.0
 11
13.2087199633
 21
158.9789219894
 31
0.0
  0
LINE
  5
56E
330
1F
100
AcDbEntity
  8
0
  6
Continuous
 62
     7
370
    25
100
AcDbLine
 10
13.2087199633
 20
158.9789219894
 30
0.0
 11
13.2087199633
 21
154.2189949028
 31
0.0
  0
LINE
  5
56F
330
1F
100
AcDbEntity
  8
0
  6
Continuous
 62
     7
370
    25
100
AcDbLine
 10
13.2087199633
 20
154.2189949028
 30
0.0
 11
15.1466513283
 21
154.2189949028
 31
0.0
  0
LINE
  5
570
330
1F
100
AcDbEntity
  8
0
  6
Continuous
 62
     7
370
    25
100
AcDbLine
 10
15.1466513283
 20
154.2189949028
 30
0.0
 11
15.1466513283
 21
170.8955534071
 31
0.0
  0
LINE
  5
571
330
1F
100
AcDbEntity
  8
0
  6
Continuous
 62
     7
370
    25
100
AcDbLine
 10
15.1466513283
 20
170.8955534071
 30
0.0
 11
13.2087199633
 21
170.8955534071
 31
0.0
  0
LINE
  5
572
330
1F
100
AcDbEntity
  8
0
  6
Continuous
 62
     7
370
    25
100
AcDbLine
 10
13.2087199633
 20
170.8955534071
 30
0.0
 11
13.2087199633
 21
166.1356263205
 31
0.0
  0
LINE
  5
573
330
1F
100
AcDbEntity
  8
0
  6
Continuous
 62
     7
370
    25
100
AcDbLine
 10
13.2087199633
 20
166.1356263205
 30
0.0
 11
-1.0970578582
 21
166.1356263205
 31
0.0
  0
LINE
  5
574
330
1F
100
AcDbEntity
  8
0
  6
Continuous
 62
     7
370
    25
100
AcDbLine
 10
-1.0970578582
 20
166.1356263205
 30
0.0
 11
-1.0970578582
 21
180.4414041419
 31
0.0
  0
LINE
  5
575
330
1F
100
AcDbEntity
  8
0
  6
Continuous
 62
     7
370
    25
100
AcDbLine
 10
10.3315182094
 20
172.0123870752
 30
0.0
 11
10.3315182094
 21
174.5646433872
 31
0.0
  0
LINE
  5
576
330
1F
100
AcDbEntity
  8
0
  6
Continuous
 62
     7
370
    25
100
AcDbLine
 10
10.3315182094
 20
174.5646433872
 30
0.0
 11
7.3319592085
 21
174.5646433872
 31
0.0
  0
LINE
  5
577
330
1F
100
AcDbEntity
  8
0
  6
Continuous
 62
     7
370
    25
100
AcDbLine
 10
7.3319592085
 20
174.5646433872
 30
0.0
 11
7.3319592085
 21
177.564202388
 31
0.0
  0
LINE
  5
578
330
1F
100
AcDbEntity
  8
0
  6
Continuous
 62
     7
370
    25
100
AcDbLine
 10
7.3319592085
 20
177.564202388
 30
0.0
 11
4.7797028966
 21
177.564202388
 31
0.0
  0
LINE
  5
579
330
1F
100
AcDbEntity
  8
0
  6
Continuous
 62
     7
370
    25
100
AcDbLine
 10
4.7797028966
 20
177.564202388
 30
0.0
 11
4.7797028966
 21
174.5646433872
 31
0.0
  0
LINE
  5
57A
330
1F
100
AcDbEntity
  8
0
  6
Continuous
 62
     7
370
    25
100
AcDbLine
 10
4.7797028966
 20
174.5646433872
 30
0.0
 11
1.7801438957
 21
174.5646433872
 31
0.0
  0
LINE
  5
57B
330
1F
100
AcDbEntity
  8
0
  6
Continuous
 62
     7
370
    25
100
AcDbLine
 10
1.7801438957
 20
174.5646433872
 30
0.0
 11
1.7801438957
 21
172.0123870752
 31
0.0
  0
LINE
  5
57C
330
1F
100
AcDbEntity
  8
0
  6
Continuous
 62
     7
370
    25
100
AcDbLine
 10
1.7801438957
 20
172.0123870752
 30
0.0
 11
4.7797028966
 21
172.0123870752
 31
0.0
  0
LINE
  5
57D
330
1F
100
AcDbEntity
  8
0
  6
Continuous
 62
     7
370
    25
100
AcDbLine
 10
4.7797028966
 20
172.0123870752
 30
0.0
 11
4.7797028966
 21
169.0128280744
 31
0.0
  0
LINE
  5
57E
330
1F
100
AcDbEntity
  8
0
  6
Continuous
 62
     7
370
    25
100
AcDbLine
 10
4.7797028966
 20
169.0128280744
 30
0.0
 11
7.3319592085
 21
169.0128280744
 31
0.0
  0
LINE
  5
57F
330
1F
100
AcDbEntity
  8
0
  6
Continuous
 62
     7
370
    25
100
AcDbLine
 10
7.3319592085
 20
169.0128280744
 30
0.0
 11
7.3319592085
 21
172.0123870752
 31
0.0
  0
LINE
  5
580
330
1F
100
AcDbEntity
  8
0
  6
Continuous
 62
     7
370
    25
100
AcDbLine
 10
7.3319592085
 20
172.0123870752
 30
0.0
 11
10.3315182094
 21
172.0123870752
 31
0.0
  0
LINE
  5
581
330
1F
100
AcDbEntity
  8
0
  6
Continuous
 62
     7
370
    25
100
AcDbLine
 10
4.7797028966
 20
147.5503459219
 30
0.0
 11
7.3319592085
 21
147.5503459219
 31
0.0
  0
LINE
  5
582
330
1F
100
AcDbEntity
  8
0
  6
Continuous
 62
     7
370
    25
100
AcDbLine
 10
7.3319592085
 20
147.5503459219
 30
0.0
 11
7.3319592085
 21
150.5499049227
 31
0.0
  0
LINE
  5
583
330
1F
100
AcDbEntity
  8
0
  6
Continuous
 62
     7
370
    25
100
AcDbLine
 10
7.3319592085
 20
150.5499049227
 30
0.0
 11
10.3315182094
 21
150.5499049227
 31
0.0
  0
LINE
  5
584
330
1F
100
AcDbEntity
  8
0
  6
Continuous
 62
     7
370
    25
100
AcDbLine
 10
10.3315182094
 20
150.5499049227
 30
0.0
 11
10.3315182094
 21
153.1021612347
 31
0.0
  0
LINE
  5
585
330
1F
100
AcDbEntity
  8
0
  6
Continuous
 62
     7
370
    25
100
AcDbLine
 10
10.3315182094
 20
153.1021612347
 30
0.0
 11
7.3319592085
 21
153.1021612347
 31
0.0
  0
LINE
  5
586
330
1F
100
AcDbEntity
  8
0
  6
Continuous
 62
     7
370
    25
100
AcDbLine
 10
7.3319592085
 20
153.1021612347
 30
0.0
 11
7.3319592085
 21
156.1017202355
 31
0.0
  0
LINE
  5
587
330
1F
100
AcDbEntity
  8
0
  6
Continuous
 62
     7
370
    25
100
AcDbLine
 10
7.3319592085
 20
156.1017202355
 30
0.0
 11
4.7797028966
 21
156.1017202355
 31
0.0
  0
LINE
  5
588
330
1F
100
AcDbEntity
  8
0
  6
Continuous
 62
     7
370
    25
100
AcDbLine
 10
4.7797028966
 20
156.1017202355
 30
0.0
 11
4.7797028966
 21
153.1021612347
 31
0.0
  0
LINE
  5
589
330
1F
100
AcDbEntity
  8
0
  6
Continuous
 62
     7
370
    25
100
AcDbLine
 10
4.7797028966
 20
153.1021612347
 30
0.0
 11
1.7801438957
 21
153.1021612347
 31
0.0
  0
LINE
  5
58A
330
1F
100
AcDbEntity
  8
0
  6
Continuous
 62
     7
370
    25
100
AcDbLine
 10
1.7801438957
 20
153.1021612347
 30
0.0
 11
1.7801438957
 21
150.5499049227
 31
0.0
  0
LINE
  5
58B
330
1F
100
AcDbEntity
  8
0
  6
Continuous
 62
     7
370
    25
100
AcDbLine
 10
1.7801438957
 20
150.5499049227
 30
0.0
 11
4.7797028966
 21
150.5499049227
 31
0.0
  0
LINE
  5
58C
330
1F
100
AcDbEntity
  8
0
  6
Continuous
 62
     7
370
    25
100
AcDbLine
 10
4.7797028966
 20
150.5499049227
 30
0.0
 11
4.7797028966
 21
147.5503459219
 31
0.0
  0
LINE
  5
58D
330
1F
100
AcDbEntity
  8
0
  6
Continuous
 62
     7
370
    25
100
AcDbLine
 10
-19.6823382568
 20
153.1021612347
 30
0.0
 11
-19.6823382568
 21
150.5499049227
 31
0.0
  0
LINE
  5
58E
330
1F
100
AcDbEntity
  8
0
  6
Continuous
 62
     7
370
    25
100
AcDbLine
 10
-19.6823382568
 20
150.5499049227
 30
0.0
 11
-16.6827792559
 21
150.5499049227
 31
0.0
  0
LINE
  5
58F
330
1F
100
AcDbEntity
  8
0
  6
Continuous
 62
     7
370
    25
100
AcDbLine
 10
-16.6827792559
 20
150.5499049227
 30
0.0
 11
-16.6827792559
 21
147.5503459219
 31
0.0
  0
LINE
  5
590
330
1F
100
AcDbEntity
  8
0
  6
Continuous
 62
     7
370
    25
100
AcDbLine
 10
-16.6827792559
 20
147.5503459219
 30
0.0
 11
-14.130522944
 21
147.5503459219
 31
0.0
  0
LINE
  5
591
330
1F
100
AcDbEntity
  8
0
  6
Continuous
 62
     7
370
    25
100
AcDbLine
 10
-14.130522944
 20
147.5503459219
 30
0.0
 11
-14.130522944
 21
150.5499049227
 31
0.0
  0
LINE
  5
592
330
1F
100
AcDbEntity
  8
0
  6
Continuous
 62
     7
370
    25
100
AcDbLine
 10
-14.130522944
 20
150.5499049227
 30
0.0
 11
-11.1309639431
 21
150.5499049227
 31
0.0
  0
LINE
  5
593
330
1F
100
AcDbEntity
  8
0
  6
Continuous
 62
     7
370
    25
100
AcDbLine
 10
-11.1309639431
 20
150.5499049227
 30
0.0
 11
-11.1309639431
 21
153.1021612347
 31
0.0
  0
LINE
  5
594
330
1F
100
AcDbEntity
  8
0
  6
Continuous
 62
     7
370
    25
100
AcDbLine
 10
-11.1309639431
 20
153.1021612347
 30
0.0
 11
-14.130522944
 21
153.1021612347
 31
0.0
  0
LINE
  5
595
330
1F
100
AcDbEntity
  8
0
  6
Continuous
 62
     7
370
    25
100
AcDbLine
 10
-14.130522944
 20
153.1021612347
 30
0.0
 11
-14.130522944
 21
156.1017202355
 31
0.0
  0
LINE
  5
596
330
1F
100
AcDbEntity
  8
0
  6
Continuous
 62
     7
370
    25
100
AcDbLine
 10
-14.130522944
 20
156.1017202355
 30
0.0
 11
-16.6827792559
 21
156.1017202355
 31
0.0
  0
LINE
  5
597
330
1F
100
AcDbEntity
  8
0
  6
Continuous
 62
     7
370
    25
100
AcDbLine
 10
-16.6827792559
 20
156.1017202355
 30
0.0
 11
-16.6827792559
 21
153.1021612347
 31
0.0
  0
LINE
  5
598
330
1F
100
AcDbEntity
  8
0
  6
Continuous
 62
     7
370
    25
100
AcDbLine
 10
-16.6827792559
 20
153.1021612347
 30
0.0
 11
-19.6823382568
 21
153.1021612347
 31
0.0
  0
LINE
  5
599
330
1F
100
AcDbEntity
  8
0
  6
Continuous
 62
     7
370
    25
100
AcDbLine
 10
-14.130522944
 20
177.564202388
 30
0.0
 11
-16.6827792559
 21
177.564202388
 31
0.0
  0
LINE
  5
59A
330
1F
100
AcDbEntity
  8
0
  6
Continuous
 62
     7
370
    25
100
AcDbLine
 10
-16.6827792559
 20
177.564202388
 30
0.0
 11
-16.6827792559
 21
174.5646433872
 31
0.0
  0
LINE
  5
59B
330
1F
100
AcDbEntity
  8
0
  6
Continuous
 62
     7
370
    25
100
AcDbLine
 10
-16.6827792559
 20
174.5646433872
 30
0.0
 11
-19.6823382568
 21
174.5646433872
 31
0.0
  0
LINE
  5
59C
330
1F
100
AcDbEntity
  8
0
  6
Continuous
 62
     7
370
    25
100
AcDbLine
 10
-19.6823382568
 20
174.5646433872
 30
0.0
 11
-19.6823382568
 21
172.0123870752
 31
0.0
  0
LINE
  5
59D
330
1F
100
AcDbEntity
  8
0
  6
Continuous
 62
     7
370
    25
100
AcDbLine
 10
-19.6823382568
 20
172.0123870752
 30
0.0
 11
-16.6827792559
 21
172.0123870752
 31
0.0
  0
LINE
  5
59E
330
1F
100
AcDbEntity
  8
0
  6
Continuous
 62
     7
370
    25
100
AcDbLine
 10
-16.6827792559
 20
172.0123870752
 30
0.0
 11
-16.6827792559
 21
169.0128280744
 31
0.0
  0
LINE
  5
59F
330
1F
100
AcDbEntity
  8
0
  6
Continuous
 62
     7
370
    25
100
AcDbLine
 10
-16.6827792559
 20
169.0128280744
 30
0.0
 11
-14.130522944
 21
169.0128280744
 31
0.0
  0
LINE
  5
5A0
330
1F
100
AcDbEntity
  8
0
  6
Continuous
 62
     7
370
    25
100
AcDbLine
 10
-14.130522944
 20
169.0128280744
 30
0.0
 11
-14.130522944
 21
172.0123870752
 31
0.0
  0
LINE
  5
5A1
330
1F
100
AcDbEntity
  8
0
  6
Continuous
 62
     7
370
    25
100
AcDbLine
 10
-14.130522944
 20
172.0123870752
 30
0.0
 11
-11.1309639431
 21
172.0123870752
 31
0.0
  0
LINE
  5
5A2
330
1F
100
AcDbEntity
  8
0
  6
Continuous
 62
     7
370
    25
100
AcDbLine
 10
-11.1309639431
 20
172.0123870752
 30
0.0
 11
-11.1309639431
 21
174.5646433872
 31
0.0
  0
LINE
  5
5A3
330
1F
100
AcDbEntity
  8
0
  6
Continuous
 62
     7
370
    25
100
AcDbLine
 10
-11.1309639431
 20
174.5646433872
 30
0.0
 11
-14.130522944
 21
174.5646433872
 31
0.0
  0
LINE
  5
5A4
330
1F
100
AcDbEntity
  8
0
  6
Continuous
 62
     7
370
    25
100
AcDbLine
 10
-14.130522944
 20
174.5646433872
 30
0.0
 11
-14.130522944
 21
177.564202388
 31
0.0
  0
LINE
  5
5A5
330
1F
100
AcDbEntity
  8
0
  6
Continuous
 62
     7
370
    25
100
AcDbLine
 10
46.5279421418
 20
228.0664041419
 30
0.0
 11
51.2878692284
 21
228.0664041419
 31
0.0
  0
LINE
  5
5A6
330
1F
100
AcDbEntity
  8
0
  6
Continuous
 62
     7
370
    25
100
AcDbLine
 10
51.2878692284
 20
228.0664041419
 30
0.0
 11
51.2878692284
 21
230.004335507
 31
0.0
  0
LINE
  5
5A7
330
1F
100
AcDbEntity
  8
0
  6
Continuous
 62
     7
370
    25
100
AcDbLine
 10
51.2878692284
 20
230.004335507
 30
0.0
 11
34.6113107241
 21
230.004335507
 31
0.0
  0
LINE
  5
5A8
330
1F
100
AcDbEntity
  8
0
  6
Continuous
 62
     7
370
    25
100
AcDbLine
 10
34.6113107241
 20
230.004335507
 30
0.0
 11
34.6113107241
 21
228.0664041419
 31
0.0
  0
LINE
  5
5A9
330
1F
100
AcDbEntity
  8
0
  6
Continuous
 62
     7
370
    25
100
AcDbLine
 10
34.6113107241
 20
228.0664041419
 30
0.0
 11
39.3712378108
 21
228.0664041419
 31
0.0
  0
LINE
  5
5AA
330
1F
100
AcDbEntity
  8
0
  6
Continuous
 62
     7
370
    25
100
AcDbLine
 10
39.3712378108
 20
228.0664041419
 30
0.0
 11
39.3712378108
 21
213.7606263205
 31
0.0
  0
LINE
  5
5AB
330
1F
100
AcDbEntity
  8
0
  6
Continuous
 62
     7
370
    25
100
AcDbLine
 10
39.3712378108
 20
213.7606263205
 30
0.0
 11
25.0654599893
 21
213.7606263205
 31
0.0
  0
LINE
  5
5AC
330
1F
100
AcDbEntity
  8
0
  6
Continuous
 62
     7
370
    25
100
AcDbLine
 10
25.0654599893
 20
213.7606263205
 30
0.0
 11
25.0654599893
 21
218.5205534071
 31
0.0
  0
LINE
  5
5AD
330
1F
100
AcDbEntity
  8
0
  6
Continuous
 62
     7
370
    25
100
AcDbLine
 10
25.0654599893
 20
218.5205534071
 30
0.0
 11
23.1275286243
 21
218.5205534071
 31
0.0
  0
LINE
  5
5AE
330
1F
100
AcDbEntity
  8
0
  6
Continuous
 62
     7
370
    25
100
AcDbLine
 10
23.1275286243
 20
218.5205534071
 30
0.0
 11
23.1275286243
 21
201.8439949028
 31
0.0
  0
LINE
  5
5AF
330
1F
100
AcDbEntity
  8
0
  6
Continuous
 62
     7
370
    25
100
AcDbLine
 10
23.1275286243
 20
201.8439949028
 30
0.0
 11
25.0654599893
 21
201.8439949028
 31
0.0
  0
LINE
  5
5B0
330
1F
100
AcDbEntity
  8
0
  6
Continuous
 62
     7
370
    25
100
AcDbLine
 10
25.0654599893
 20
201.8439949028
 30
0.0
 11
25.0654599893
 21
206.6039219894
 31
0.0
  0
LINE
  5
5B1
330
1F
100
AcDbEntity
  8
0
  6
Continuous
 62
     7
370
    25
100
AcDbLine
 10
25.0654599893
 20
206.6039219894
 30
0.0
 11
39.3712378108
 21
206.6039219894
 31
0.0
  0
LINE
  5
5B2
330
1F
100
AcDbEntity
  8
0
  6
Continuous
 62
     7
370
    25
100
AcDbLine
 10
39.3712378108
 20
206.6039219894
 30
0.0
 11
39.3712378108
 21
192.298144168
 31
0.0
  0
LINE
  5
5B3
330
1F
100
AcDbEntity
  8
0
  6
Continuous
 62
     7
370
    25
100
AcDbLine
 10
39.3712378108
 20
192.298144168
 30
0.0
 11
34.6113107241
 21
192.298144168
 31
0.0
  0
LINE
  5
5B4
330
1F
100
AcDbEntity
  8
0
  6
Continuous
 62
     7
370
    25
100
AcDbLine
 10
34.6113107241
 20
192.298144168
 30
0.0
 11
34.6113107241
 21
190.3602128029
 31
0.0
  0
LINE
  5
5B5
330
1F
100
AcDbEntity
  8
0
  6
Continuous
 62
     7
370
    25
100
AcDbLine
 10
34.6113107241
 20
190.3602128029
 30
0.0
 11
51.2878692284
 21
190.3602128029
 31
0.0
  0
LINE
  5
5B6
330
1F
100
AcDbEntity
  8
0
  6
Continuous
 62
     7
370
    25
100
AcDbLine
 10
51.2878692284
 20
190.3602128029
 30
0.0
 11
51.2878692284
 21
192.298144168
 31
0.0
  0
LINE
  5
5B7
330
1F
100
AcDbEntity
  8
0
  6
Continuous
 62
     7
370
    25
100
AcDbLine
 10
51.2878692284
 20
192.298144168
 30
0.0
 11
46.5279421418
 21
192.298144168
 31
0.0
  0
LINE
  5
5B8
330
1F
100
AcDbEntity
  8
0
  6
Continuous
 62
     7
370
    25
100
AcDbLine
 10
46.5279421418
 20
192.298144168
 30
0.0
 11
46.5279421418
 21
206.6039219894
 31
0.0
  0
LINE
  5
5B9
330
1F
100
AcDbEntity
  8
0
  6
Continuous
 62
     7
370
    25
100
AcDbLine
 10
46.5279421418
 20
206.6039219894
 30
0.0
 11
60.8337199633
 21
206.6039219894
 31
0.0
  0
LINE
  5
5BA
330
1F
100
AcDbEntity
  8
0
  6
Continuous
 62
     7
370
    25
100
AcDbLine
 10
60.8337199633
 20
206.6039219894
 30
0.0
 11
60.8337199633
 21
201.8439949028
 31
0.0
  0
LINE
  5
5BB
330
1F
100
AcDbEntity
  8
0
  6
Continuous
 62
     7
370
    25
100
AcDbLine
 10
60.8337199633
 20
201.8439949028
 30
0.0
 11
62.7716513283
 21
201.8439949028
 31
0.0
  0
LINE
  5
5BC
330
1F
100
AcDbEntity
  8
0
  6
Continuous
 62
     7
370
    25
100
AcDbLine
 10
62.7716513283
 20
201.8439949028
 30
0.0
 11
62.7716513283
 21
218.5205534071
 31
0.0
  0
LINE
  5
5BD
330
1F
100
AcDbEntity
  8
0
  6
Continuous
 62
     7
370
    25
100
AcDbLine
 10
62.7716513283
 20
218.5205534071
 30
0.0
 11
60.8337199633
 21
218.5205534071
 31
0.0
  0
LINE
  5
5BE
330
1F
100
AcDbEntity
  8
0
  6
Continuous
 62
     7
370
    25
100
AcDbLine
 10
60.8337199633
 20
218.5205534071
 30
0.0
 11
60.8337199633
 21
213.7606263205
 31
0.0
  0
LINE
  5
5BF
330
1F
100
AcDbEntity
  8
0
  6
Continuous
 62
     7
370
    25
100
AcDbLine
 10
60.8337199633
 20
213.7606263205
 30
0.0
 11
46.5279421418
 21
213.7606263205
 31
0.0
  0
LINE
  5
5C0
330
1F
100
AcDbEntity
  8
0
  6
Continuous
 62
     7
370
    25
100
AcDbLine
 10
46.5279421418
 20
213.7606263205
 30
0.0
 11
46.5279421418
 21
228.0664041419
 31
0.0
  0
LINE
  5
5C1
330
1F
100
AcDbEntity
  8
0
  6
Continuous
 62
     7
370
    25
100
AcDbLine
 10
57.9565182094
 20
219.6373870752
 30
0.0
 11
57.9565182094
 21
222.1896433872
 31
0.0
  0
LINE
  5
5C2
330
1F
100
AcDbEntity
  8
0
  6
Continuous
 62
     7
370
    25
100
AcDbLine
 10
57.9565182094
 20
222.1896433872
 30
0.0
 11
54.9569592085
 21
222.1896433872
 31
0.0
  0
LINE
  5
5C3
330
1F
100
AcDbEntity
  8
0
  6
Continuous
 62
     7
370
    25
100
AcDbLine
 10
54.9569592085
 20
222.1896433872
 30
0.0
 11
54.9569592085
 21
225.189202388
 31
0.0
  0
LINE
  5
5C4
330
1F
100
AcDbEntity
  8
0
  6
Continuous
 62
     7
370
    25
100
AcDbLine
 10
54.9569592085
 20
225.189202388
 30
0.0
 11
52.4047028966
 21
225.189202388
 31
0.0
  0
LINE
  5
5C5
330
1F
100
AcDbEntity
  8
0
  6
Continuous
 62
     7
370
    25
100
AcDbLine
 10
52.4047028966
 20
225.189202388
 30
0.0
 11
52.4047028966
 21
222.1896433872
 31
0.0
  0
LINE
  5
5C6
330
1F
100
AcDbEntity
  8
0
  6
Continuous
 62
     7
370
    25
100
AcDbLine
 10
52.4047028966
 20
222.1896433872
 30
0.0
 11
49.4051438957
 21
222.1896433872
 31
0.0
  0
LINE
  5
5C7
330
1F
100
AcDbEntity
  8
0
  6
Continuous
 62
     7
370
    25
100
AcDbLine
 10
49.4051438957
 20
222.1896433872
 30
0.0
 11
49.4051438957
 21
219.6373870752
 31
0.0
  0
LINE
  5
5C8
330
1F
100
AcDbEntity
  8
0
  6
Continuous
 62
     7
370
    25
100
AcDbLine
 10
49.4051438957
 20
219.6373870752
 30
0.0
 11
52.4047028966
 21
219.6373870752
 31
0.0
  0
LINE
  5
5C9
330
1F
100
AcDbEntity
  8
0
  6
Continuous
 62
     7
370
    25
100
AcDbLine
 10
52.4047028966
 20
219.6373870752
 30
0.0
 11
52.4047028966
 21
216.6378280744
 31
0.0
  0
LINE
  5
5CA
330
1F
100
AcDbEntity
  8
0
  6
Continuous
 62
     7
370
    25
100
AcDbLine
 10
52.4047028966
 20
216.6378280744
 30
0.0
 11
54.9569592085
 21
216.6378280744
 31
0.0
  0
LINE
  5
5CB
330
1F
100
AcDbEntity
  8
0
  6
Continuous
 62
     7
370
    25
100
AcDbLine
 10
54.9569592085
 20
216.6378280744
 30
0.0
 11
54.9569592085
 21
219.6373870752
 31
0.0
  0
LINE
  5
5CC
330
1F
100
AcDbEntity
  8
0
  6
Continuous
 62
     7
370
    25
100
AcDbLine
 10
54.9569592085
 20
219.6373870752
 30
0.0
 11
57.9565182094
 21
219.6373870752
 31
0.0
  0
LINE
  5
5CD
330
1F
100
AcDbEntity
  8
0
  6
Continuous
 62
     7
370
    25
100
AcDbLine
 10
52.4047028966
 20
195.1753459219
 30
0.0
 11
54.9569592085
 21
195.1753459219
 31
0.0
  0
LINE
  5
5CE
330
1F
100
AcDbEntity
  8
0
  6
Continuous
 62
     7
370
    25
100
AcDbLine
 10
54.9569592085
 20
195.1753459219
 30
0.0
 11
54.9569592085
 21
198.1749049227
 31
0.0
  0
LINE
  5
5CF
330
1F
100
AcDbEntity
  8
0
  6
Continuous
 62
     7
370
    25
100
AcDbLine
 10
54.9569592085
 20
198.1749049227
 30
0.0
 11
57.9565182094
 21
198.1749049227
 31
0.0
  0
LINE
  5
5D0
330
1F
100
AcDbEntity
  8
0
  6
Continuous
 62
     7
370
    25
100
AcDbLine
 10
57.9565182094
 20
198.1749049227
 30
0.0
 11
57.9565182094
 21
200.7271612347
 31
0.0
  0
LINE
  5
5D1
330
1F
100
AcDbEntity
  8
0
  6
Continuous
 62
     7
370
    25
100
AcDbLine
 10
57.9565182094
 20
200.7271612347
 30
0.0
 11
54.9569592085
 21
200.7271612347
 31
0.0
  0
LINE
  5
5D2
330
1F
100
AcDbEntity
  8
0
  6
Continuous
 62
     7
370
    25
100
AcDbLine
 10
54.9569592085
 20
200.7271612347
 30
0.0
 11
54.9569592085
 21
203.7267202355
 31
0.0
  0
LINE
  5
5D3
330
1F
100
AcDbEntity
  8
0
  6
Continuous
 62
     7
370
    25
100
AcDbLine
 10
54.9569592085
 20
203.7267202355
 30
0.0
 11
52.4047028966
 21
203.7267202355
 31
0.0
  0
LINE
  5
5D4
330
1F
100
AcDbEntity
  8
0
  6
Continuous
 62
     7
370
    25
100
AcDbLine
 10
52.4047028966
 20
203.7267202355
 30
0.0
 11
52.4047028966
 21
200.7271612347
 31
0.0
  0
LINE
  5
5D5
330
1F
100
AcDbEntity
  8
0
  6
Continuous
 62
     7
370
    25
100
AcDbLine
 10
52.4047028966
 20
200.7271612347
 30
0.0
 11
49.4051438957
 21
200.7271612347
 31
0.0
  0
LINE
  5
5D6
330
1F
100
AcDbEntity
  8
0
  6
Continuous
 62
     7
370
    25
100
AcDbLine
 10
49.4051438957
 20
200.7271612347
 30
0.0
 11
49.4051438957
 21
198.1749049227
 31
0.0
  0
LINE
  5
5D7
330
1F
100
AcDbEntity
  8
0
  6
Continuous
 62
     7
370
    25
100
AcDbLine
 10
49.4051438957
 20
198.1749049227
 30
0.0
 11
52.4047028966
 21
198.1749049227
 31
0.0
  0
LINE
  5
5D8
330
1F
100
AcDbEntity
  8
0
  6
Continuous
 62
     7
370
    25
100
AcDbLine
 10
52.4047028966
 20
198.1749049227
 30
0.0
 11
52.4047028966
 21
195.1753459219
 31
0.0
  0
LINE
  5
5D9
330
1F
100
AcDbEntity
  8
0
  6
Continuous
 62
     7
370
    25
100
AcDbLine
 10
27.9426617432
 20
200.7271612347
 30
0.0
 11
27.9426617432
 21
198.1749049227
 31
0.0
  0
LINE
  5
5DA
330
1F
100
AcDbEntity
  8
0
  6
Continuous
 62
     7
370
    25
100
AcDbLine
 10
27.9426617432
 20
198.1749049227
 30
0.0
 11
30.9422207441
 21
198.1749049227
 31
0.0
  0
LINE
  5
5DB
330
1F
100
AcDbEntity
  8
0
  6
Continuous
 62
     7
370
    25
100
AcDbLine
 10
30.9422207441
 20
198.1749049227
 30
0.0
 11
30.9422207441
 21
195.1753459219
 31
0.0
  0
LINE
  5
5DC
330
1F
100
AcDbEntity
  8
0
  6
Continuous
 62
     7
370
    25
100
AcDbLine
 10
30.9422207441
 20
195.1753459219
 30
0.0
 11
33.494477056
 21
195.1753459219
 31
0.0
  0
LINE
  5
5DD
330
1F
100
AcDbEntity
  8
0
  6
Continuous
 62
     7
370
    25
100
AcDbLine
 10
33.494477056
 20
195.1753459219
 30
0.0
 11
33.494477056
 21
198.1749049227
 31
0.0
  0
LINE
  5
5DE
330
1F
100
AcDbEntity
  8
0
  6
Continuous
 62
     7
370
    25
100
AcDbLine
 10
33.494477056
 20
198.1749049227
 30
0.0
 11
36.4940360569
 21
198.1749049227
 31
0.0
  0
LINE
  5
5DF
330
1F
100
AcDbEntity
  8
0
  6
Continuous
 62
     7
370
    25
100
AcDbLine
 10
36.4940360569
 20
198.1749049227
 30
0.0
 11
36.4940360569
 21
200.7271612347
 31
0.0
  0
LINE
  5
5E0
330
1F
100
AcDbEntity
  8
0
  6
Continuous
 62
     7
370
    25
100
AcDbLine
 10
36.4940360569
 20
200.7271612347
 30
0.0
 11
33.494477056
 21
200.7271612347
 31
0.0
  0
LINE
  5
5E1
330
1F
100
AcDbEntity
  8
0
  6
Continuous
 62
     7
370
    25
100
AcDbLine
 10
33.494477056
 20
200.7271612347
 30
0.0
 11
33.494477056
 21
203.7267202355
 31
0.0
  0
LINE
  5
5E2
330
1F
100
AcDbEntity
  8
0
  6
Continuous
 62
     7
370
    25
100
AcDbLine
 10
33.494477056
 20
203.7267202355
 30
0.0
 11
30.9422207441
 21
203.7267202355
 31
0.0
  0
LINE
  5
5E3
330
1F
100
AcDbEntity
  8
0
  6
Continuous
 62
     7
370
    25
100
AcDbLine
 10
30.9422207441
 20
203.7267202355
 30
0.0
 11
30.9422207441
 21
200.7271612347
 31
0.0
  0
LINE
  5
5E4
330
1F
100
AcDbEntity
  8
0
  6
Continuous
 62
     7
370
    25
100
AcDbLine
 10
30.9422207441
 20
200.7271612347
 30
0.0
 11
27.9426617432
 21
200.7271612347
 31
0.0
  0
LINE
  5
5E5
330
1F
100
AcDbEntity
  8
0
  6
Continuous
 62
     7
370
    25
100
AcDbLine
 10
33.494477056
 20
225.189202388
 30
0.0
 11
30.9422207441
 21
225.189202388
 31
0.0
  0
LINE
  5
5E6
330
1F
100
AcDbEntity
  8
0
  6
Continuous
 62
     7
370
    25
100
AcDbLine
 10
30.9422207441
 20
225.189202388
 30
0.0
 11
30.9422207441
 21
222.1896433872
 31
0.0
  0
LINE
  5
5E7
330
1F
100
AcDbEntity
  8
0
  6
Continuous
 62
     7
370
    25
100
AcDbLine
 10
30.9422207441
 20
222.1896433872
 30
0.0
 11
27.9426617432
 21
222.1896433872
 31
0.0
  0
LINE
  5
5E8
330
1F
100
AcDbEntity
  8
0
  6
Continuous
 62
     7
370
    25
100
AcDbLine
 10
27.9426617432
 20
222.1896433872
 30
0.0
 11
27.9426617432
 21
219.6373870752
 31
0.0
  0
LINE
  5
5E9
330
1F
100
AcDbEntity
  8
0
  6
Continuous
 62
     7
370
    25
100
AcDbLine
 10
27.9426617432
 20
219.6373870752
 30
0.0
 11
30.9422207441
 21
219.6373870752
 31
0.0
  0
LINE
  5
5EA
330
1F
100
AcDbEntity
  8
0
  6
Continuous
 62
     7
370
    25
100
AcDbLine
 10
30.9422207441
 20
219.6373870752
 30
0.0
 11
30.9422207441
 21
216.6378280744
 31
0.0
  0
LINE
  5
5EB
330
1F
100
AcDbEntity
  8
0
  6
Continuous
 62
     7
370
    25
100
AcDbLine
 10
30.9422207441
 20
216.6378280744
 30
0.0
 11
33.494477056
 21
216.6378280744
 31
0.0
  0
LINE
  5
5EC
330
1F
100
AcDbEntity
  8
0
  6
Continuous
 62
     7
370
    25
100
AcDbLine
 10
33.494477056
 20
216.6378280744
 30
0.0
 11
33.494477056
 21
219.6373870752
 31
0.0
  0
LINE
  5
5ED
330
1F
100
AcDbEntity
  8
0
  6
Continuous
 62
     7
370
    25
100
AcDbLine
 10
33.494477056
 20
219.6373870752
 30
0.0
 11
36.4940360569
 21
219.6373870752
 31
0.0
  0
LINE
  5
5EE
330
1F
100
AcDbEntity
  8
0
  6
Continuous
 62
     7
370
    25
100
AcDbLine
 10
36.4940360569
 20
219.6373870752
 30
0.0
 11
36.4940360569
 21
222.1896433872
 31
0.0
  0
LINE
  5
5EF
330
1F
100
AcDbEntity
  8
0
  6
Continuous
 62
     7
370
    25
100
AcDbLine
 10
36.4940360569
 20
222.1896433872
 30
0.0
 11
33.494477056
 21
222.1896433872
 31
0.0
  0
LINE
  5
5F0
330
1F
100
AcDbEntity
  8
0
  6
Continuous
 62
     7
370
    25
100
AcDbLine
 10
33.494477056
 20
222.1896433872
 30
0.0
 11
33.494477056
 21
225.189202388
 31
0.0
  0
LINE
  5
5F1
330
1F
100
AcDbEntity
  8
0
  6
Continuous
 62
     7
370
    25
100
AcDbLine
 10
66.7620899763
 20
91.1197741549
 30
0.0
 11
-28.4879100237
 21
91.1197741549
 31
0.0
  0
LINE
  5
5F2
330
1F
100
AcDbEntity
  8
0
  6
Continuous
 62
     7
370
    25
100
AcDbLine
 10
-1.0970578582
 20
132.8164041419
 30
0.0
 11
3.6628692284
 21
132.8164041419
 31
0.0
  0
LINE
  5
5F3
330
1F
100
AcDbEntity
  8
0
  6
Continuous
 62
     7
370
    25
100
AcDbLine
 10
3.6628692284
 20
132.8164041419
 30
0.0
 11
3.6628692284
 21
134.754335507
 31
0.0
  0
LINE
  5
5F4
330
1F
100
AcDbEntity
  8
0
  6
Continuous
 62
     7
370
    25
100
AcDbLine
 10
3.6628692284
 20
134.754335507
 30
0.0
 11
-13.0136892759
 21
134.754335507
 31
0.0
  0
LINE
  5
5F5
330
1F
100
AcDbEntity
  8
0
  6
Continuous
 62
     7
370
    25
100
AcDbLine
 10
-13.0136892759
 20
134.754335507
 30
0.0
 11
-13.0136892759
 21
132.8164041419
 31
0.0
  0
LINE
  5
5F6
330
1F
100
AcDbEntity
  8
0
  6
Continuous
 62
     7
370
    25
100
AcDbLine
 10
-13.0136892759
 20
132.8164041419
 30
0.0
 11
-8.2537621892
 21
132.8164041419
 31
0.0
  0
LINE
  5
5F7
330
1F
100
AcDbEntity
  8
0
  6
Continuous
 62
     7
370
    25
100
AcDbLine
 10
-8.2537621892
 20
132.8164041419
 30
0.0
 11
-8.2537621892
 21
118.5106263205
 31
0.0
  0
LINE
  5
5F8
330
1F
100
AcDbEntity
  8
0
  6
Continuous
 62
     7
370
    25
100
AcDbLine
 10
-8.2537621892
 20
118.5106263205
 30
0.0
 11
-22.5595400107
 21
118.5106263205
 31
0.0
  0
LINE
  5
5F9
330
1F
100
AcDbEntity
  8
0
  6
Continuous
 62
     7
370
    25
100
AcDbLine
 10
-22.5595400107
 20
118.5106263205
 30
0.0
 11
-22.5595400107
 21
123.2705534071
 31
0.0
  0
LINE
  5
5FA
330
1F
100
AcDbEntity
  8
0
  6
Continuous
 62
     7
370
    25
100
AcDbLine
 10
-22.5595400107
 20
123.2705534071
 30
0.0
 11
-24.4974713757
 21
123.2705534071
 31
0.0
  0
LINE
  5
5FB
330
1F
100
AcDbEntity
  8
0
  6
Continuous
 62
     7
370
    25
100
AcDbLine
 10
-24.4974713757
 20
123.2705534071
 30
0.0
 11
-24.4974713757
 21
106.5939949028
 31
0.0
  0
LINE
  5
5FC
330
1F
100
AcDbEntity
  8
0
  6
Continuous
 62
     7
370
    25
100
AcDbLine
 10
-24.4974713757
 20
106.5939949028
 30
0.0
 11
-22.5595400107
 21
106.5939949028
 31
0.0
  0
LINE
  5
5FD
330
1F
100
AcDbEntity
  8
0
  6
Continuous
 62
     7
370
    25
100
AcDbLine
 10
-22.5595400107
 20
106.5939949028
 30
0.0
 11
-22.5595400107
 21
111.3539219894
 31
0.0
  0
LINE
  5
5FE
330
1F
100
AcDbEntity
  8
0
  6
Continuous
 62
     7
370
    25
100
AcDbLine
 10
-22.5595400107
 20
111.3539219894
 30
0.0
 11
-8.2537621892
 21
111.3539219894
 31
0.0
  0
LINE
  5
5FF
330
1F
100
AcDbEntity
  8
0
  6
Continuous
 62
     7
370
    25
100
AcDbLine
 10
-8.2537621892
 20
111.3539219894
 30
0.0
 11
-8.2537621892
 21
97.048144168
 31
0.0
  0
LINE
  5
600
330
1F
100
AcDbEntity
  8
0
  6
Continuous
 62
     7
370
    25
100
AcDbLine
 10
-8.2537621892
 20
97.048144168
 30
0.0
 11
-13.0136892759
 21
97.048144168
 31
0.0
  0
LINE
  5
601
330
1F
100
AcDbEntity
  8
0
  6
Continuous
 62
     7
370
    25
100
AcDbLine
 10
-13.0136892759
 20
97.048144168
 30
0.0
 11
-13.0136892759
 21
95.1102128029
 31
0.0
  0
LINE
  5
602
330
1F
100
AcDbEntity
  8
0
  6
Continuous
 62
     7
370
    25
100
AcDbLine
 10
-13.0136892759
 20
95.1102128029
 30
0.0
 11
3.6628692284
 21
95.1102128029
 31
0.0
  0
LINE
  5
603
330
1F
100
AcDbEntity
  8
0
  6
Continuous
 62
     7
370
    25
100
AcDbLine
 10
3.6628692284
 20
95.1102128029
 30
0.0
 11
3.6628692284
 21
97.048144168
 31
0.0
  0
LINE
  5
604
330
1F
100
AcDbEntity
  8
0
  6
Continuous
 62
     7
370
    25
100
AcDbLine
 10
3.6628692284
 20
97.048144168
 30
0.0
 11
-1.0970578582
 21
97.048144168
 31
0.0
  0
LINE
  5
605
330
1F
100
AcDbEntity
  8
0
  6
Continuous
 62
     7
370
    25
100
AcDbLine
 10
-1.0970578582
 20
97.048144168
 30
0.0
 11
-1.0970578582
 21
111.3539219894
 31
0.0
  0
LINE
  5
606
330
1F
100
AcDbEntity
  8
0
  6
Continuous
 62
     7
370
    25
100
AcDbLine
 10
-1.0970578582
 20
111.3539219894
 30
0.0
 11
13.2087199633
 21
111.3539219894
 31
0.0
  0
LINE
  5
607
330
1F
100
AcDbEntity
  8
0
  6
Continuous
 62
     7
370
    25
100
AcDbLine
 10
13.2087199633
 20
111.3539219894
 30
0.0
 11
13.2087199633
 21
106.5939949028
 31
0.0
  0
LINE
  5
608
330
1F
100
AcDbEntity
  8
0
  6
Continuous
 62
     7
370
    25
100
AcDbLine
 10
13.2087199633
 20
106.5939949028
 30
0.0
 11
15.1466513283
 21
106.5939949028
 31
0.0
  0
LINE
  5
609
330
1F
100
AcDbEntity
  8
0
  6
Continuous
 62
     7
370
    25
100
AcDbLine
 10
15.1466513283
 20
106.5939949028
 30
0.0
 11
15.1466513283
 21
123.2705534071
 31
0.0
  0
LINE
  5
60A
330
1F
100
AcDbEntity
  8
0
  6
Continuous
 62
     7
370
    25
100
AcDbLine
 10
15.1466513283
 20
123.2705534071
 30
0.0
 11
13.2087199633
 21
123.2705534071
 31
0.0
  0
LINE
  5
60B
330
1F
100
AcDbEntity
  8
0
  6
Continuous
 62
     7
370
    25
100
AcDbLine
 10
13.2087199633
 20
123.2705534071
 30
0.0
 11
13.2087199633
 21
118.5106263205
 31
0.0
  0
LINE
  5
60C
330
1F
100
AcDbEntity
  8
0
  6
Continuous
 62
     7
370
    25
100
AcDbLine
 10
13.2087199633
 20
118.5106263205
 30
0.0
 11
-1.0970578582
 21
118.5106263205
 31
0.0
  0
LINE
  5
60D
330
1F
100
AcDbEntity
  8
0
  6
Continuous
 62
     7
370
    25
100
AcDbLine
 10
-1.0970578582
 20
118.5106263205
 30
0.0
 11
-1.0970578582
 21
132.8164041419
 31
0.0
  0
LINE
  5
60E
330
1F
100
AcDbEntity
  8
0
  6
Continuous
 62
     7
370
    25
100
AcDbLine
 10
10.3315182094
 20
124.3873870752
 30
0.0
 11
10.3315182094
 21
126.9396433872
 31
0.0
  0
LINE
  5
60F
330
1F
100
AcDbEntity
  8
0
  6
Continuous
 62
     7
370
    25
100
AcDbLine
 10
10.3315182094
 20
126.9396433872
 30
0.0
 11
7.3319592085
 21
126.9396433872
 31
0.0
  0
LINE
  5
610
330
1F
100
AcDbEntity
  8
0
  6
Continuous
 62
     7
370
    25
100
AcDbLine
 10
7.3319592085
 20
126.9396433872
 30
0.0
 11
7.3319592085
 21
129.939202388
 31
0.0
  0
LINE
  5
611
330
1F
100
AcDbEntity
  8
0
  6
Continuous
 62
     7
370
    25
100
AcDbLine
 10
7.3319592085
 20
129.939202388
 30
0.0
 11
4.7797028966
 21
129.939202388
 31
0.0
  0
LINE
  5
612
330
1F
100
AcDbEntity
  8
0
  6
Continuous
 62
     7
370
    25
100
AcDbLine
 10
4.7797028966
 20
129.939202388
 30
0.0
 11
4.7797028966
 21
126.9396433872
 31
0.0
  0
LINE
  5
613
330
1F
100
AcDbEntity
  8
0
  6
Continuous
 62
     7
370
    25
100
AcDbLine
 10
4.7797028966
 20
126.9396433872
 30
0.0
 11
1.7801438957
 21
126.9396433872
 31
0.0
  0
LINE
  5
614
330
1F
100
AcDbEntity
  8
0
  6
Continuous
 62
     7
370
    25
100
AcDbLine
 10
1.7801438957
 20
126.9396433872
 30
0.0
 11
1.7801438957
 21
124.3873870752
 31
0.0
  0
LINE
  5
615
330
1F
100
AcDbEntity
  8
0
  6
Continuous
 62
     7
370
    25
100
AcDbLine
 10
1.7801438957
 20
124.3873870752
 30
0.0
 11
4.7797028966
 21
124.3873870752
 31
0.0
  0
LINE
  5
616
330
1F
100
AcDbEntity
  8
0
  6
Continuous
 62
     7
370
    25
100
AcDbLine
 10
4.7797028966
 20
124.3873870752
 30
0.0
 11
4.7797028966
 21
121.3878280744
 31
0.0
  0
LINE
  5
617
330
1F
100
AcDbEntity
  8
0
  6
Continuous
 62
     7
370
    25
100
AcDbLine
 10
4.7797028966
 20
121.3878280744
 30
0.0
 11
7.3319592085
 21
121.3878280744
 31
0.0
  0
LINE
  5
618
330
1F
100
AcDbEntity
  8
0
  6
Continuous
 62
     7
370
    25
100
AcDbLine
 10
7.3319592085
 20
121.3878280744
 30
0.0
 11
7.3319592085
 21
124.3873870752
 31
0.0
  0
LINE
  5
619
330
1F
100
AcDbEntity
  8
0
  6
Continuous
 62
     7
370
    25
100
AcDbLine
 10
7.3319592085
 20
124.3873870752
 30
0.0
 11
10.3315182094
 21
124.3873870752
 31
0.0
  0
LINE
  5
61A
330
1F
100
AcDbEntity
  8
0
  6
Continuous
 62
     7
370
    25
100
AcDbLine
 10
4.7797028966
 20
99.9253459219
 30
0.0
 11
7.3319592085
 21
99.9253459219
 31
0.0
  0
LINE
  5
61B
330
1F
100
AcDbEntity
  8
0
  6
Continuous
 62
     7
370
    25
100
AcDbLine
 10
7.3319592085
 20
99.9253459219
 30
0.0
 11
7.3319592085
 21
102.9249049227
 31
0.0
  0
LINE
  5
61C
330
1F
100
AcDbEntity
  8
0
  6
Continuous
 62
     7
370
    25
100
AcDbLine
 10
7.3319592085
 20
102.9249049227
 30
0.0
 11
10.3315182094
 21
102.9249049227
 31
0.0
  0
LINE
  5
61D
330
1F
100
AcDbEntity
  8
0
  6
Continuous
 62
     7
370
    25
100
AcDbLine
 10
10.3315182094
 20
102.9249049227
 30
0.0
 11
10.3315182094
 21
105.4771612347
 31
0.0
  0
LINE
  5
61E
330
1F
100
AcDbEntity
  8
0
  6
Continuous
 62
     7
370
    25
100
AcDbLine
 10
10.3315182094
 20
105.4771612347
 30
0.0
 11
7.3319592085
 21
105.4771612347
 31
0.0
  0
LINE
  5
61F
330
1F
100
AcDbEntity
  8
0
  6
Continuous
 62
     7
370
    25
100
AcDbLine
 10
7.3319592085
 20
105.4771612347
 30
0.0
 11
7.3319592085
 21
108.4767202355
 31
0.0
  0
LINE
  5
620
330
1F
100
AcDbEntity
  8
0
  6
Continuous
 62
     7
370
    25
100
AcDbLine
 10
7.3319592085
 20
108.4767202355
 30
0.0
 11
4.7797028966
 21
108.4767202355
 31
0.0
  0
LINE
  5
621
330
1F
100
AcDbEntity
  8
0
  6
Continuous
 62
     7
370
    25
100
AcDbLine
 10
4.7797028966
 20
108.4767202355
 30
0.0
 11
4.7797028966
 21
105.4771612347
 31
0.0
  0
LINE
  5
622
330
1F
100
AcDbEntity
  8
0
  6
Continuous
 62
     7
370
    25
100
AcDbLine
 10
4.7797028966
 20
105.4771612347
 30
0.0
 11
1.7801438957
 21
105.4771612347
 31
0.0
  0
LINE
  5
623
330
1F
100
AcDbEntity
  8
0
  6
Continuous
 62
     7
370
    25
100
AcDbLine
 10
1.7801438957
 20
105.4771612347
 30
0.0
 11
1.7801438957
 21
102.9249049227
 31
0.0
  0
LINE
  5
624
330
1F
100
AcDbEntity
  8
0
  6
Continuous
 62
     7
370
    25
100
AcDbLine
 10
1.7801438957
 20
102.9249049227
 30
0.0
 11
4.7797028966
 21
102.9249049227
 31
0.0
  0
LINE
  5
625
330
1F
100
AcDbEntity
  8
0
  6
Continuous
 62
     7
370
    25
100
AcDbLine
 10
4.7797028966
 20
102.9249049227
 30
0.0
 11
4.7797028966
 21
99.9253459219
 31
0.0
  0
LINE
  5
626
330
1F
100
AcDbEntity
  8
0
  6
Continuous
 62
     7
370
    25
100
AcDbLine
 10
-19.6823382568
 20
105.4771612347
 30
0.0
 11
-19.6823382568
 21
102.9249049227
 31
0.0
  0
LINE
  5
627
330
1F
100
AcDbEntity
  8
0
  6
Continuous
 62
     7
370
    25
100
AcDbLine
 10
-19.6823382568
 20
102.9249049227
 30
0.0
 11
-16.6827792559
 21
102.9249049227
 31
0.0
  0
LINE
  5
628
330
1F
100
AcDbEntity
  8
0
  6
Continuous
 62
     7
370
    25
100
AcDbLine
 10
-16.6827792559
 20
102.9249049227
 30
0.0
 11
-16.6827792559
 21
99.9253459219
 31
0.0
  0
LINE
  5
629
330
1F
100
AcDbEntity
  8
0
  6
Continuous
 62
     7
370
    25
100
AcDbLine
 10
-16.6827792559
 20
99.9253459219
 30
0.0
 11
-14.130522944
 21
99.9253459219
 31
0.0
  0
LINE
  5
62A
330
1F
100
AcDbEntity
  8
0
  6
Continuous
 62
     7
370
    25
100
AcDbLine
 10
-14.130522944
 20
99.9253459219
 30
0.0
 11
-14.130522944
 21
102.9249049227
 31
0.0
  0
LINE
  5
62B
330
1F
100
AcDbEntity
  8
0
  6
Continuous
 62
     7
370
    25
100
AcDbLine
 10
-14.130522944
 20
102.9249049227
 30
0.0
 11
-11.1309639431
 21
102.9249049227
 31
0.0
  0
LINE
  5
62C
330
1F
100
AcDbEntity
  8
0
  6
Continuous
 62
     7
370
    25
100
AcDbLine
 10
-11.1309639431
 20
102.9249049227
 30
0.0
 11
-11.1309639431
 21
105.4771612347
 31
0.0
  0
LINE
  5
62D
330
1F
100
AcDbEntity
  8
0
  6
Continuous
 62
     7
370
    25
100
AcDbLine
 10
-11.1309639431
 20
105.4771612347
 30
0.0
 11
-14.130522944
 21
105.4771612347
 31
0.0
  0
LINE
  5
62E
330
1F
100
AcDbEntity
  8
0
  6
Continuous
 62
     7
370
    25
100
AcDbLine
 10
-14.130522944
 20
105.4771612347
 30
0.0
 11
-14.130522944
 21
108.4767202355
 31
0.0
  0
LINE
  5
62F
330
1F
100
AcDbEntity
  8
0
  6
Continuous
 62
     7
370
    25
100
AcDbLine
 10
-14.130522944
 20
108.4767202355
 30
0.0
 11
-16.6827792559
 21
108.4767202355
 31
0.0
  0
LINE
  5
630
330
1F
100
AcDbEntity
  8
0
  6
Continuous
 62
     7
370
    25
100
AcDbLine
 10
-16.6827792559
 20
108.4767202355
 30
0.0
 11
-16.6827792559
 21
105.4771612347
 31
0.0
  0
LINE
  5
631
330
1F
100
AcDbEntity
  8
0
  6
Continuous
 62
     7
370
    25
100
AcDbLine
 10
-16.6827792559
 20
105.4771612347
 30
0.0
 11
-19.6823382568
 21
105.4771612347
 31
0.0
  0
LINE
  5
632
330
1F
100
AcDbEntity
  8
0
  6
Continuous
 62
     7
370
    25
100
AcDbLine
 10
-14.130522944
 20
129.939202388
 30
0.0
 11
-16.6827792559
 21
129.939202388
 31
0.0
  0
LINE
  5
633
330
1F
100
AcDbEntity
  8
0
  6
Continuous
 62
     7
370
    25
100
AcDbLine
 10
-16.6827792559
 20
129.939202388
 30
0.0
 11
-16.6827792559
 21
126.9396433872
 31
0.0
  0
LINE
  5
634
330
1F
100
AcDbEntity
  8
0
  6
Continuous
 62
     7
370
    25
100
AcDbLine
 10
-16.6827792559
 20
126.9396433872
 30
0.0
 11
-19.6823382568
 21
126.9396433872
 31
0.0
  0
LINE
  5
635
330
1F
100
AcDbEntity
  8
0
  6
Continuous
 62
     7
370
    25
100
AcDbLine
 10
-19.6823382568
 20
126.9396433872
 30
0.0
 11
-19.6823382568
 21
124.3873870752
 31
0.0
  0
LINE
  5
636
330
1F
100
AcDbEntity
  8
0
  6
Continuous
 62
     7
370
    25
100
AcDbLine
 10
-19.6823382568
 20
124.3873870752
 30
0.0
 11
-16.6827792559
 21
124.3873870752
 31
0.0
  0
LINE
  5
637
330
1F
100
AcDbEntity
  8
0
  6
Continuous
 62
     7
370
    25
100
AcDbLine
 10
-16.6827792559
 20
124.3873870752
 30
0.0
 11
-16.6827792559
 21
121.3878280744
 31
0.0
  0
LINE
  5
638
330
1F
100
AcDbEntity
  8
0
  6
Continuous
 62
     7
370
    25
100
AcDbLine
 10
-16.6827792559
 20
121.3878280744
 30
0.0
 11
-14.130522944
 21
121.3878280744
 31
0.0
  0
LINE
  5
639
330
1F
100
AcDbEntity
  8
0
  6
Continuous
 62
     7
370
    25
100
AcDbLine
 10
-14.130522944
 20
121.3878280744
 30
0.0
 11
-14.130522944
 21
124.3873870752
 31
0.0
  0
LINE
  5
63A
330
1F
100
AcDbEntity
  8
0
  6
Continuous
 62
     7
370
    25
100
AcDbLine
 10
-14.130522944
 20
124.3873870752
 30
0.0
 11
-11.1309639431
 21
124.3873870752
 31
0.0
  0
LINE
  5
63B
330
1F
100
AcDbEntity
  8
0
  6
Continuous
 62
     7
370
    25
100
AcDbLine
 10
-11.1309639431
 20
124.3873870752
 30
0.0
 11
-11.1309639431
 21
126.9396433872
 31
0.0
  0
LINE
  5
63C
330
1F
100
AcDbEntity
  8
0
  6
Continuous
 62
     7
370
    25
100
AcDbLine
 10
-11.1309639431
 20
126.9396433872
 30
0.0
 11
-14.130522944
 21
126.9396433872
 31
0.0
  0
LINE
  5
63D
330
1F
100
AcDbEntity
  8
0
  6
Continuous
 62
     7
370
    25
100
AcDbLine
 10
-14.130522944
 20
126.9396433872
 30
0.0
 11
-14.130522944
 21
129.939202388
 31
0.0
  0
LINE
  5
63E
330
1F
100
AcDbEntity
  8
0
  6
Continuous
 62
     7
370
    25
100
AcDbLine
 10
66.7620899763
 20
-4.1302258451
 30
0.0
 11
66.7620899763
 21
281.6197741549
 31
0.0
  0
LINE
  5
63F
330
1F
100
AcDbEntity
  8
0
  6
Continuous
 62
     7
370
    25
100
AcDbLine
 10
66.7620899763
 20
43.4947741549
 30
0.0
 11
-28.4879100237
 21
43.4947741549
 31
0.0
  0
LINE
  5
640
330
1F
100
AcDbEntity
  8
0
  6
Continuous
 62
     7
370
    25
100
AcDbLine
 10
46.5279421418
 20
85.1914041419
 30
0.0
 11
51.2878692284
 21
85.1914041419
 31
0.0
  0
LINE
  5
641
330
1F
100
AcDbEntity
  8
0
  6
Continuous
 62
     7
370
    25
100
AcDbLine
 10
51.2878692284
 20
85.1914041419
 30
0.0
 11
51.2878692284
 21
87.129335507
 31
0.0
  0
LINE
  5
642
330
1F
100
AcDbEntity
  8
0
  6
Continuous
 62
     7
370
    25
100
AcDbLine
 10
51.2878692284
 20
87.129335507
 30
0.0
 11
34.6113107241
 21
87.129335507
 31
0.0
  0
LINE
  5
643
330
1F
100
AcDbEntity
  8
0
  6
Continuous
 62
     7
370
    25
100
AcDbLine
 10
34.6113107241
 20
87.129335507
 30
0.0
 11
34.6113107241
 21
85.1914041419
 31
0.0
  0
LINE
  5
644
330
1F
100
AcDbEntity
  8
0
  6
Continuous
 62
     7
370
    25
100
AcDbLine
 10
34.6113107241
 20
85.1914041419
 30
0.0
 11
39.3712378108
 21
85.1914041419
 31
0.0
  0
LINE
  5
645
330
1F
100
AcDbEntity
  8
0
  6
Continuous
 62
     7
370
    25
100
AcDbLine
 10
39.3712378108
 20
85.1914041419
 30
0.0
 11
39.3712378108
 21
70.8856263205
 31
0.0
  0
LINE
  5
646
330
1F
100
AcDbEntity
  8
0
  6
Continuous
 62
     7
370
    25
100
AcDbLine
 10
39.3712378108
 20
70.8856263205
 30
0.0
 11
25.0654599893
 21
70.8856263205
 31
0.0
  0
LINE
  5
647
330
1F
100
AcDbEntity
  8
0
  6
Continuous
 62
     7
370
    25
100
AcDbLine
 10
25.0654599893
 20
70.8856263205
 30
0.0
 11
25.0654599893
 21
75.6455534071
 31
0.0
  0
LINE
  5
648
330
1F
100
AcDbEntity
  8
0
  6
Continuous
 62
     7
370
    25
100
AcDbLine
 10
25.0654599893
 20
75.6455534071
 30
0.0
 11
23.1275286243
 21
75.6455534071
 31
0.0
  0
LINE
  5
649
330
1F
100
AcDbEntity
  8
0
  6
Continuous
 62
     7
370
    25
100
AcDbLine
 10
23.1275286243
 20
75.6455534071
 30
0.0
 11
23.1275286243
 21
58.9689949028
 31
0.0
  0
LINE
  5
64A
330
1F
100
AcDbEntity
  8
0
  6
Continuous
 62
     7
370
    25
100
AcDbLine
 10
23.1275286243
 20
58.9689949028
 30
0.0
 11
25.0654599893
 21
58.9689949028
 31
0.0
  0
LINE
  5
64B
330
1F
100
AcDbEntity
  8
0
  6
Continuous
 62
     7
370
    25
100
AcDbLine
 10
25.0654599893
 20
58.9689949028
 30
0.0
 11
25.0654599893
 21
63.7289219894
 31
0.0
  0
LINE
  5
64C
330
1F
100
AcDbEntity
  8
0
  6
Continuous
 62
     7
370
    25
100
AcDbLine
 10
25.0654599893
 20
63.7289219894
 30
0.0
 11
39.3712378108
 21
63.7289219894
 31
0.0
  0
LINE
  5
64D
330
1F
100
AcDbEntity
  8
0
  6
Continuous
 62
     7
370
    25
100
AcDbLine
 10
39.3712378108
 20
63.7289219894
 30
0.0
 11
39.3712378108
 21
49.423144168
 31
0.0
  0
LINE
  5
64E
330
1F
100
AcDbEntity
  8
0
  6
Continuous
 62
     7
370
    25
100
AcDbLine
 10
39.3712378108
 20
49.423144168
 30
0.0
 11
34.6113107241
 21
49.423144168
 31
0.0
  0
LINE
  5
64F
330
1F
100
AcDbEntity
  8
0
  6
Continuous
 62
     7
370
    25
100
AcDbLine
 10
34.6113107241
 20
49.423144168
 30
0.0
 11
34.6113107241
 21
47.4852128029
 31
0.0
  0
LINE
  5
650
330
1F
100
AcDbEntity
  8
0
  6
Continuous
 62
     7
370
    25
100
AcDbLine
 10
34.6113107241
 20
47.4852128029
 30
0.0
 11
51.2878692284
 21
47.4852128029
 31
0.0
  0
LINE
  5
651
330
1F
100
AcDbEntity
  8
0
  6
Continuous
 62
     7
370
    25
100
AcDbLine
 10
51.2878692284
 20
47.4852128029
 30
0.0
 11
51.2878692284
 21
49.423144168
 31
0.0
  0
LINE
  5
652
330
1F
100
AcDbEntity
  8
0
  6
Continuous
 62
     7
370
    25
100
AcDbLine
 10
51.2878692284
 20
49.423144168
 30
0.0
 11
46.5279421418
 21
49.423144168
 31
0.0
  0
LINE
  5
653
330
1F
100
AcDbEntity
  8
0
  6
Continuous
 62
     7
370
    25
100
AcDbLine
 10
46.5279421418
 20
49.423144168
 30
0.0
 11
46.5279421418
 21
63.7289219894
 31
0.0
  0
LINE
  5
654
330
1F
100
AcDbEntity
  8
0
  6
Continuous
 62
     7
370
    25
100
AcDbLine
 10
46.5279421418
 20
63.7289219894
 30
0.0
 11
60.8337199633
 21
63.7289219894
 31
0.0
  0
LINE
  5
655
330
1F
100
AcDbEntity
  8
0
  6
Continuous
 62
     7
370
    25
100
AcDbLine
 10
60.8337199633
 20
63.7289219894
 30
0.0
 11
60.8337199633
 21
58.9689949028
 31
0.0
  0
LINE
  5
656
330
1F
100
AcDbEntity
  8
0
  6
Continuous
 62
     7
370
    25
100
AcDbLine
 10
60.8337199633
 20
58.9689949028
 30
0.0
 11
62.7716513283
 21
58.9689949028
 31
0.0
  0
LINE
  5
657
330
1F
100
AcDbEntity
  8
0
  6
Continuous
 62
     7
370
    25
100
AcDbLine
 10
62.7716513283
 20
58.9689949028
 30
0.0
 11
62.7716513283
 21
75.6455534071
 31
0.0
  0
LINE
  5
658
330
1F
100
AcDbEntity
  8
0
  6
Continuous
 62
     7
370
    25
100
AcDbLine
 10
62.7716513283
 20
75.6455534071
 30
0.0
 11
60.8337199633
 21
75.6455534071
 31
0.0
  0
LINE
  5
659
330
1F
100
AcDbEntity
  8
0
  6
Continuous
 62
     7
370
    25
100
AcDbLine
 10
60.8337199633
 20
75.6455534071
 30
0.0
 11
60.8337199633
 21
70.8856263205
 31
0.0
  0
LINE
  5
65A
330
1F
100
AcDbEntity
  8
0
  6
Continuous
 62
     7
370
    25
100
AcDbLine
 10
60.8337199633
 20
70.8856263205
 30
0.0
 11
46.5279421418
 21
70.8856263205
 31
0.0
  0
LINE
  5
65B
330
1F
100
AcDbEntity
  8
0
  6
Continuous
 62
     7
370
    25
100
AcDbLine
 10
46.5279421418
 20
70.8856263205
 30
0.0
 11
46.5279421418
 21
85.1914041419
 31
0.0
  0
LINE
  5
65C
330
1F
100
AcDbEntity
  8
0
  6
Continuous
 62
     7
370
    25
100
AcDbLine
 10
57.9565182094
 20
76.7623870752
 30
0.0
 11
57.9565182094
 21
79.3146433872
 31
0.0
  0
LINE
  5
65D
330
1F
100
AcDbEntity
  8
0
  6
Continuous
 62
     7
370
    25
100
AcDbLine
 10
57.9565182094
 20
79.3146433872
 30
0.0
 11
54.9569592085
 21
79.3146433872
 31
0.0
  0
LINE
  5
65E
330
1F
100
AcDbEntity
  8
0
  6
Continuous
 62
     7
370
    25
100
AcDbLine
 10
54.9569592085
 20
79.3146433872
 30
0.0
 11
54.9569592085
 21
82.314202388
 31
0.0
  0
LINE
  5
65F
330
1F
100
AcDbEntity
  8
0
  6
Continuous
 62
     7
370
    25
100
AcDbLine
 10
54.9569592085
 20
82.314202388
 30
0.0
 11
52.4047028966
 21
82.314202388
 31
0.0
  0
LINE
  5
660
330
1F
100
AcDbEntity
  8
0
  6
Continuous
 62
     7
370
    25
100
AcDbLine
 10
52.4047028966
 20
82.314202388
 30
0.0
 11
52.4047028966
 21
79.3146433872
 31
0.0
  0
LINE
  5
661
330
1F
100
AcDbEntity
  8
0
  6
Continuous
 62
     7
370
    25
100
AcDbLine
 10
52.4047028966
 20
79.3146433872
 30
0.0
 11
49.4051438957
 21
79.3146433872
 31
0.0
  0
LINE
  5
662
330
1F
100
AcDbEntity
  8
0
  6
Continuous
 62
     7
370
    25
100
AcDbLine
 10
49.4051438957
 20
79.3146433872
 30
0.0
 11
49.4051438957
 21
76.7623870752
 31
0.0
  0
LINE
  5
663
330
1F
100
AcDbEntity
  8
0
  6
Continuous
 62
     7
370
    25
100
AcDbLine
 10
49.4051438957
 20
76.7623870752
 30
0.0
 11
52.4047028966
 21
76.7623870752
 31
0.0
  0
LINE
  5
664
330
1F
100
AcDbEntity
  8
0
  6
Continuous
 62
     7
370
    25
100
AcDbLine
 10
52.4047028966
 20
76.7623870752
 30
0.0
 11
52.4047028966
 21
73.7628280744
 31
0.0
  0
LINE
  5
665
330
1F
100
AcDbEntity
  8
0
  6
Continuous
 62
     7
370
    25
100
AcDbLine
 10
52.4047028966
 20
73.7628280744
 30
0.0
 11
54.9569592085
 21
73.7628280744
 31
0.0
  0
LINE
  5
666
330
1F
100
AcDbEntity
  8
0
  6
Continuous
 62
     7
370
    25
100
AcDbLine
 10
54.9569592085
 20
73.7628280744
 30
0.0
 11
54.9569592085
 21
76.7623870752
 31
0.0
  0
LINE
  5
667
330
1F
100
AcDbEntity
  8
0
  6
Continuous
 62
     7
370
    25
100
AcDbLine
 10
54.9569592085
 20
76.7623870752
 30
0.0
 11
57.9565182094
 21
76.7623870752
 31
0.0
  0
LINE
  5
668
330
1F
100
AcDbEntity
  8
0
  6
Continuous
 62
     7
370
    25
100
AcDbLine
 10
52.4047028966
 20
52.3003459219
 30
0.0
 11
54.9569592085
 21
52.3003459219
 31
0.0
  0
LINE
  5
669
330
1F
100
AcDbEntity
  8
0
  6
Continuous
 62
     7
370
    25
100
AcDbLine
 10
54.9569592085
 20
52.3003459219
 30
0.0
 11
54.9569592085
 21
55.2999049227
 31
0.0
  0
LINE
  5
66A
330
1F
100
AcDbEntity
  8
0
  6
Continuous
 62
     7
370
    25
100
AcDbLine
 10
54.9569592085
 20
55.2999049227
 30
0.0
 11
57.9565182094
 21
55.2999049227
 31
0.0
  0
LINE
  5
66B
330
1F
100
AcDbEntity
  8
0
  6
Continuous
 62
     7
370
    25
100
AcDbLine
 10
57.9565182094
 20
55.2999049227
 30
0.0
 11
57.9565182094
 21
57.8521612347
 31
0.0
  0
LINE
  5
66C
330
1F
100
AcDbEntity
  8
0
  6
Continuous
 62
     7
370
    25
100
AcDbLine
 10
57.9565182094
 20
57.8521612347
 30
0.0
 11
54.9569592085
 21
57.8521612347
 31
0.0
  0
LINE
  5
66D
330
1F
100
AcDbEntity
  8
0
  6
Continuous
 62
     7
370
    25
100
AcDbLine
 10
54.9569592085
 20
57.8521612347
 30
0.0
 11
54.9569592085
 21
60.8517202355
 31
0.0
  0
LINE
  5
66E
330
1F
100
AcDbEntity
  8
0
  6
Continuous
 62
     7
370
    25
100
AcDbLine
 10
54.9569592085
 20
60.8517202355
 30
0.0
 11
52.4047028966
 21
60.8517202355
 31
0.0
  0
LINE
  5
66F
330
1F
100
AcDbEntity
  8
0
  6
Continuous
 62
     7
370
    25
100
AcDbLine
 10
52.4047028966
 20
60.8517202355
 30
0.0
 11
52.4047028966
 21
57.8521612347
 31
0.0
  0
LINE
  5
670
330
1F
100
AcDbEntity
  8
0
  6
Continuous
 62
     7
370
    25
100
AcDbLine
 10
52.4047028966
 20
57.8521612347
 30
0.0
 11
49.4051438957
 21
57.8521612347
 31
0.0
  0
LINE
  5
671
330
1F
100
AcDbEntity
  8
0
  6
Continuous
 62
     7
370
    25
100
AcDbLine
 10
49.4051438957
 20
57.8521612347
 30
0.0
 11
49.4051438957
 21
55.2999049227
 31
0.0
  0
LINE
  5
672
330
1F
100
AcDbEntity
  8
0
  6
Continuous
 62
     7
370
    25
100
AcDbLine
 10
49.4051438957
 20
55.2999049227
 30
0.0
 11
52.4047028966
 21
55.2999049227
 31
0.0
  0
LINE
  5
673
330
1F
100
AcDbEntity
  8
0
  6
Continuous
 62
     7
370
    25
100
AcDbLine
 10
52.4047028966
 20
55.2999049227
 30
0.0
 11
52.4047028966
 21
52.3003459219
 31
0.0
  0
LINE
  5
674
330
1F
100
AcDbEntity
  8
0
  6
Continuous
 62
     7
370
    25
100
AcDbLine
 10
27.9426617432
 20
57.8521612347
 30
0.0
 11
27.9426617432
 21
55.2999049227
 31
0.0
  0
LINE
  5
675
330
1F
100
AcDbEntity
  8
0
  6
Continuous
 62
     7
370
    25
100
AcDbLine
 10
27.9426617432
 20
55.2999049227
 30
0.0
 11
30.9422207441
 21
55.2999049227
 31
0.0
  0
LINE
  5
676
330
1F
100
AcDbEntity
  8
0
  6
Continuous
 62
     7
370
    25
100
AcDbLine
 10
30.9422207441
 20
55.2999049227
 30
0.0
 11
30.9422207441
 21
52.3003459219
 31
0.0
  0
LINE
  5
677
330
1F
100
AcDbEntity
  8
0
  6
Continuous
 62
     7
370
    25
100
AcDbLine
 10
30.9422207441
 20
52.3003459219
 30
0.0
 11
33.494477056
 21
52.3003459219
 31
0.0
  0
LINE
  5
678
330
1F
100
AcDbEntity
  8
0
  6
Continuous
 62
     7
370
    25
100
AcDbLine
 10
33.494477056
 20
52.3003459219
 30
0.0
 11
33.494477056
 21
55.2999049227
 31
0.0
  0
LINE
  5
679
330
1F
100
AcDbEntity
  8
0
  6
Continuous
 62
     7
370
    25
100
AcDbLine
 10
33.494477056
 20
55.2999049227
 30
0.0
 11
36.4940360569
 21
55.2999049227
 31
0.0
  0
LINE
  5
67A
330
1F
100
AcDbEntity
  8
0
  6
Continuous
 62
     7
370
    25
100
AcDbLine
 10
36.4940360569
 20
55.2999049227
 30
0.0
 11
36.4940360569
 21
57.8521612347
 31
0.0
  0
LINE
  5
67B
330
1F
100
AcDbEntity
  8
0
  6
Continuous
 62
     7
370
    25
100
AcDbLine
 10
36.4940360569
 20
57.8521612347
 30
0.0
 11
33.494477056
 21
57.8521612347
 31
0.0
  0
LINE
  5
67C
330
1F
100
AcDbEntity
  8
0
  6
Continuous
 62
     7
370
    25
100
AcDbLine
 10
33.494477056
 20
57.8521612347
 30
0.0
 11
33.494477056
 21
60.8517202355
 31
0.0
  0
LINE
  5
67D
330
1F
100
AcDbEntity
  8
0
  6
Continuous
 62
     7
370
    25
100
AcDbLine
 10
33.494477056
 20
60.8517202355
 30
0.0
 11
30.9422207441
 21
60.8517202355
 31
0.0
  0
LINE
  5
67E
330
1F
100
AcDbEntity
  8
0
  6
Continuous
 62
     7
370
    25
100
AcDbLine
 10
30.9422207441
 20
60.8517202355
 30
0.0
 11
30.9422207441
 21
57.8521612347
 31
0.0
  0
LINE
  5
67F
330
1F
100
AcDbEntity
  8
0
  6
Continuous
 62
     7
370
    25
100
AcDbLine
 10
30.9422207441
 20
57.8521612347
 30
0.0
 11
27.9426617432
 21
57.8521612347
 31
0.0
  0
LINE
  5
680
330
1F
100
AcDbEntity
  8
0
  6
Continuous
 62
     7
370
    25
100
AcDbLine
 10
33.494477056
 20
82.314202388
 30
0.0
 11
30.9422207441
 21
82.314202388
 31
0.0
  0
LINE
  5
681
330
1F
100
AcDbEntity
  8
0
  6
Continuous
 62
     7
370
    25
100
AcDbLine
 10
30.9422207441
 20
82.314202388
 30
0.0
 11
30.9422207441
 21
79.3146433872
 31
0.0
  0
LINE
  5
682
330
1F
100
AcDbEntity
  8
0
  6
Continuous
 62
     7
370
    25
100
AcDbLine
 10
30.9422207441
 20
79.3146433872
 30
0.0
 11
27.9426617432
 21
79.3146433872
 31
0.0
  0
LINE
  5
683
330
1F
100
AcDbEntity
  8
0
  6
Continuous
 62
     7
370
    25
100
AcDbLine
 10
27.9426617432
 20
79.3146433872
 30
0.0
 11
27.9426617432
 21
76.7623870752
 31
0.0
  0
LINE
  5
684
330
1F
100
AcDbEntity
  8
0
  6
Continuous
 62
     7
370
    25
100
AcDbLine
 10
27.9426617432
 20
76.7623870752
 30
0.0
 11
30.9422207441
 21
76.7623870752
 31
0.0
  0
LINE
  5
685
330
1F
100
AcDbEntity
  8
0
  6
Continuous
 62
     7
370
    25
100
AcDbLine
 10
30.9422207441
 20
76.7623870752
 30
0.0
 11
30.9422207441
 21
73.7628280744
 31
0.0
  0
LINE
  5
686
330
1F
100
AcDbEntity
  8
0
  6
Continuous
 62
     7
370
    25
100
AcDbLine
 10
30.9422207441
 20
73.7628280744
 30
0.0
 11
33.494477056
 21
73.7628280744
 31
0.0
  0
LINE
  5
687
330
1F
100
AcDbEntity
  8
0
  6
Continuous
 62
     7
370
    25
100
AcDbLine
 10
33.494477056
 20
73.7628280744
 30
0.0
 11
33.494477056
 21
76.7623870752
 31
0.0
  0
LINE
  5
688
330
1F
100
AcDbEntity
  8
0
  6
Continuous
 62
     7
370
    25
100
AcDbLine
 10
33.494477056
 20
76.7623870752
 30
0.0
 11
36.4940360569
 21
76.7623870752
 31
0.0
  0
LINE
  5
689
330
1F
100
AcDbEntity
  8
0
  6
Continuous
 62
     7
370
    25
100
AcDbLine
 10
36.4940360569
 20
76.7623870752
 30
0.0
 11
36.4940360569
 21
79.3146433872
 31
0.0
  0
LINE
  5
68A
330
1F
100
AcDbEntity
  8
0
  6
Continuous
 62
     7
370
    25
100
AcDbLine
 10
36.4940360569
 20
79.3146433872
 30
0.0
 11
33.494477056
 21
79.3146433872
 31
0.0
  0
LINE
  5
68B
330
1F
100
AcDbEntity
  8
0
  6
Continuous
 62
     7
370
    25
100
AcDbLine
 10
33.494477056
 20
79.3146433872
 30
0.0
 11
33.494477056
 21
82.314202388
 31
0.0
  0
LINE
  5
68C
330
1F
100
AcDbEntity
  8
0
  6
Continuous
 62
     7
370
    25
100
AcDbLine
 10
-28.4879100237
 20
-4.1302258451
 30
0.0
 11
66.7620899763
 21
-4.1302258451
 31
0.0
  0
LINE
  5
68D
330
1F
100
AcDbEntity
  8
0
  6
Continuous
 62
     7
370
    25
100
AcDbLine
 10
46.5279421418
 20
37.5664041419
 30
0.0
 11
51.2878692284
 21
37.5664041419
 31
0.0
  0
LINE
  5
68E
330
1F
100
AcDbEntity
  8
0
  6
Continuous
 62
     7
370
    25
100
AcDbLine
 10
51.2878692284
 20
37.5664041419
 30
0.0
 11
51.2878692284
 21
39.504335507
 31
0.0
  0
LINE
  5
68F
330
1F
100
AcDbEntity
  8
0
  6
Continuous
 62
     7
370
    25
100
AcDbLine
 10
51.2878692284
 20
39.504335507
 30
0.0
 11
34.6113107241
 21
39.504335507
 31
0.0
  0
LINE
  5
690
330
1F
100
AcDbEntity
  8
0
  6
Continuous
 62
     7
370
    25
100
AcDbLine
 10
34.6113107241
 20
39.504335507
 30
0.0
 11
34.6113107241
 21
37.5664041419
 31
0.0
  0
LINE
  5
691
330
1F
100
AcDbEntity
  8
0
  6
Continuous
 62
     7
370
    25
100
AcDbLine
 10
34.6113107241
 20
37.5664041419
 30
0.0
 11
39.3712378108
 21
37.5664041419
 31
0.0
  0
LINE
  5
692
330
1F
100
AcDbEntity
  8
0
  6
Continuous
 62
     7
370
    25
100
AcDbLine
 10
39.3712378108
 20
37.5664041419
 30
0.0
 11
39.3712378108
 21
23.2606263205
 31
0.0
  0
LINE
  5
693
330
1F
100
AcDbEntity
  8
0
  6
Continuous
 62
     7
370
    25
100
AcDbLine
 10
39.3712378108
 20
23.2606263205
 30
0.0
 11
25.0654599893
 21
23.2606263205
 31
0.0
  0
LINE
  5
694
330
1F
100
AcDbEntity
  8
0
  6
Continuous
 62
     7
370
    25
100
AcDbLine
 10
25.0654599893
 20
23.2606263205
 30
0.0
 11
25.0654599893
 21
28.0205534071
 31
0.0
  0
LINE
  5
695
330
1F
100
AcDbEntity
  8
0
  6
Continuous
 62
     7
370
    25
100
AcDbLine
 10
25.0654599893
 20
28.0205534071
 30
0.0
 11
23.1275286243
 21
28.0205534071
 31
0.0
  0
LINE
  5
696
330
1F
100
AcDbEntity
  8
0
  6
Continuous
 62
     7
370
    25
100
AcDbLine
 10
23.1275286243
 20
28.0205534071
 30
0.0
 11
23.1275286243
 21
11.3439949028
 31
0.0
  0
LINE
  5
697
330
1F
100
AcDbEntity
  8
0
  6
Continuous
 62
     7
370
    25
100
AcDbLine
 10
23.1275286243
 20
11.3439949028
 30
0.0
 11
25.0654599893
 21
11.3439949028
 31
0.0
  0
LINE
  5
698
330
1F
100
AcDbEntity
  8
0
  6
Continuous
 62
     7
370
    25
100
AcDbLine
 10
25.0654599893
 20
11.3439949028
 30
0.0
 11
25.0654599893
 21
16.1039219894
 31
0.0
  0
LINE
  5
699
330
1F
100
AcDbEntity
  8
0
  6
Continuous
 62
     7
370
    25
100
AcDbLine
 10
25.0654599893
 20
16.1039219894
 30
0.0
 11
39.3712378108
 21
16.1039219894
 31
0.0
  0
LINE
  5
69A
330
1F
100
AcDbEntity
  8
0
  6
Continuous
 62
     7
370
    25
100
AcDbLine
 10
39.3712378108
 20
16.1039219894
 30
0.0
 11
39.3712378108
 21
1.798144168
 31
0.0
  0
LINE
  5
69B
330
1F
100
AcDbEntity
  8
0
  6
Continuous
 62
     7
370
    25
100
AcDbLine
 10
39.3712378108
 20
1.798144168
 30
0.0
 11
34.6113107241
 21
1.798144168
 31
0.0
  0
LINE
  5
69C
330
1F
100
AcDbEntity
  8
0
  6
Continuous
 62
     7
370
    25
100
AcDbLine
 10
34.6113107241
 20
1.798144168
 30
0.0
 11
34.6113107241
 21
-0.1397871971
 31
0.0
  0
LINE
  5
69D
330
1F
100
AcDbEntity
  8
0
  6
Continuous
 62
     7
370
    25
100
AcDbLine
 10
34.6113107241
 20
-0.1397871971
 30
0.0
 11
51.2878692284
 21
-0.1397871971
 31
0.0
  0
LINE
  5
69E
330
1F
100
AcDbEntity
  8
0
  6
Continuous
 62
     7
370
    25
100
AcDbLine
 10
51.2878692284
 20
-0.1397871971
 30
0.0
 11
51.2878692284
 21
1.798144168
 31
0.0
  0
LINE
  5
69F
330
1F
100
AcDbEntity
  8
0
  6
Continuous
 62
     7
370
    25
100
AcDbLine
 10
51.2878692284
 20
1.798144168
 30
0.0
 11
46.5279421418
 21
1.798144168
 31
0.0
  0
LINE
  5
6A0
330
1F
100
AcDbEntity
  8
0
  6
Continuous
 62
     7
370
    25
100
AcDbLine
 10
46.5279421418
 20
1.798144168
 30
0.0
 11
46.5279421418
 21
16.1039219894
 31
0.0
  0
LINE
  5
6A1
330
1F
100
AcDbEntity
  8
0
  6
Continuous
 62
     7
370
    25
100
AcDbLine
 10
46.5279421418
 20
16.1039219894
 30
0.0
 11
60.8337199633
 21
16.1039219894
 31
0.0
  0
LINE
  5
6A2
330
1F
100
AcDbEntity
  8
0
  6
Continuous
 62
     7
370
    25
100
AcDbLine
 10
60.8337199633
 20
16.1039219894
 30
0.0
 11
60.8337199633
 21
11.3439949028
 31
0.0
  0
LINE
  5
6A3
330
1F
100
AcDbEntity
  8
0
  6
Continuous
 62
     7
370
    25
100
AcDbLine
 10
60.8337199633
 20
11.3439949028
 30
0.0
 11
62.7716513283
 21
11.3439949028
 31
0.0
  0
LINE
  5
6A4
330
1F
100
AcDbEntity
  8
0
  6
Continuous
 62
     7
370
    25
100
AcDbLine
 10
62.7716513283
 20
11.3439949028
 30
0.0
 11
62.7716513283
 21
28.0205534071
 31
0.0
  0
LINE
  5
6A5
330
1F
100
AcDbEntity
  8
0
  6
Continuous
 62
     7
370
    25
100
AcDbLine
 10
62.7716513283
 20
28.0205534071
 30
0.0
 11
60.8337199633
 21
28.0205534071
 31
0.0
  0
LINE
  5
6A6
330
1F
100
AcDbEntity
  8
0
  6
Continuous
 62
     7
370
    25
100
AcDbLine
 10
60.8337199633
 20
28.0205534071
 30
0.0
 11
60.8337199633
 21
23.2606263205
 31
0.0
  0
LINE
  5
6A7
330
1F
100
AcDbEntity
  8
0
  6
Continuous
 62
     7
370
    25
100
AcDbLine
 10
60.8337199633
 20
23.2606263205
 30
0.0
 11
46.5279421418
 21
23.2606263205
 31
0.0
  0
LINE
  5
6A8
330
1F
100
AcDbEntity
  8
0
  6
Continuous
 62
     7
370
    25
100
AcDbLine
 10
46.5279421418
 20
23.2606263205
 30
0.0
 11
46.5279421418
 21
37.5664041419
 31
0.0
  0
LINE
  5
6A9
330
1F
100
AcDbEntity
  8
0
  6
Continuous
 62
     7
370
    25
100
AcDbLine
 10
57.9565182094
 20
29.1373870752
 30
0.0
 11
57.9565182094
 21
31.6896433872
 31
0.0
  0
LINE
  5
6AA
330
1F
100
AcDbEntity
  8
0
  6
Continuous
 62
     7
370
    25
100
AcDbLine
 10
57.9565182094
 20
31.6896433872
 30
0.0
 11
54.9569592085
 21
31.6896433872
 31
0.0
  0
LINE
  5
6AB
330
1F
100
AcDbEntity
  8
0
  6
Continuous
 62
     7
370
    25
100
AcDbLine
 10
54.9569592085
 20
31.6896433872
 30
0.0
 11
54.9569592085
 21
34.689202388
 31
0.0
  0
LINE
  5
6AC
330
1F
100
AcDbEntity
  8
0
  6
Continuous
 62
     7
370
    25
100
AcDbLine
 10
54.9569592085
 20
34.689202388
 30
0.0
 11
52.4047028966
 21
34.689202388
 31
0.0
  0
LINE
  5
6AD
330
1F
100
AcDbEntity
  8
0
  6
Continuous
 62
     7
370
    25
100
AcDbLine
 10
52.4047028966
 20
34.689202388
 30
0.0
 11
52.4047028966
 21
31.6896433872
 31
0.0
  0
LINE
  5
6AE
330
1F
100
AcDbEntity
  8
0
  6
Continuous
 62
     7
370
    25
100
AcDbLine
 10
52.4047028966
 20
31.6896433872
 30
0.0
 11
49.4051438957
 21
31.6896433872
 31
0.0
  0
LINE
  5
6AF
330
1F
100
AcDbEntity
  8
0
  6
Continuous
 62
     7
370
    25
100
AcDbLine
 10
49.4051438957
 20
31.6896433872
 30
0.0
 11
49.4051438957
 21
29.1373870752
 31
0.0
  0
LINE
  5
6B0
330
1F
100
AcDbEntity
  8
0
  6
Continuous
 62
     7
370
    25
100
AcDbLine
 10
49.4051438957
 20
29.1373870752
 30
0.0
 11
52.4047028966
 21
29.1373870752
 31
0.0
  0
LINE
  5
6B1
330
1F
100
AcDbEntity
  8
0
  6
Continuous
 62
     7
370
    25
100
AcDbLine
 10
52.4047028966
 20
29.1373870752
 30
0.0
 11
52.4047028966
 21
26.1378280744
 31
0.0
  0
LINE
  5
6B2
330
1F
100
AcDbEntity
  8
0
  6
Continuous
 62
     7
370
    25
100
AcDbLine
 10
52.4047028966
 20
26.1378280744
 30
0.0
 11
54.9569592085
 21
26.1378280744
 31
0.0
  0
LINE
  5
6B3
330
1F
100
AcDbEntity
  8
0
  6
Continuous
 62
     7
370
    25
100
AcDbLine
 10
54.9569592085
 20
26.1378280744
 30
0.0
 11
54.9569592085
 21
29.1373870752
 31
0.0
  0
LINE
  5
6B4
330
1F
100
AcDbEntity
  8
0
  6
Continuous
 62
     7
370
    25
100
AcDbLine
 10
54.9569592085
 20
29.1373870752
 30
0.0
 11
57.9565182094
 21
29.1373870752
 31
0.0
  0
LINE
  5
6B5
330
1F
100
AcDbEntity
  8
0
  6
Continuous
 62
     7
370
    25
100
AcDbLine
 10
52.4047028966
 20
4.6753459219
 30
0.0
 11
54.9569592085
 21
4.6753459219
 31
0.0
  0
LINE
  5
6B6
330
1F
100
AcDbEntity
  8
0
  6
Continuous
 62
     7
370
    25
100
AcDbLine
 10
54.9569592085
 20
4.6753459219
 30
0.0
 11
54.9569592085
 21
7.6749049227
 31
0.0
  0
LINE
  5
6B7
330
1F
100
AcDbEntity
  8
0
  6
Continuous
 62
     7
370
    25
100
AcDbLine
 10
54.9569592085
 20
7.6749049227
 30
0.0
 11
57.9565182094
 21
7.6749049227
 31
0.0
  0
LINE
  5
6B8
330
1F
100
AcDbEntity
  8
0
  6
Continuous
 62
     7
370
    25
100
AcDbLine
 10
57.9565182094
 20
7.6749049227
 30
0.0
 11
57.9565182094
 21
10.2271612347
 31
0.0
  0
LINE
  5
6B9
330
1F
100
AcDbEntity
  8
0
  6
Continuous
 62
     7
370
    25
100
AcDbLine
 10
57.9565182094
 20
10.2271612347
 30
0.0
 11
54.9569592085
 21
10.2271612347
 31
0.0
  0
LINE
  5
6BA
330
1F
100
AcDbEntity
  8
0
  6
Continuous
 62
     7
370
    25
100
AcDbLine
 10
54.9569592085
 20
10.2271612347
 30
0.0
 11
54.9569592085
 21
13.2267202355
 31
0.0
  0
LINE
  5
6BB
330
1F
100
AcDbEntity
  8
0
  6
Continuous
 62
     7
370
    25
100
AcDbLine
 10
54.9569592085
 20
13.2267202355
 30
0.0
 11
52.4047028966
 21
13.2267202355
 31
0.0
  0
LINE
  5
6BC
330
1F
100
AcDbEntity
  8
0
  6
Continuous
 62
     7
370
    25
100
AcDbLine
 10
52.4047028966
 20
13.2267202355
 30
0.0
 11
52.4047028966
 21
10.2271612347
 31
0.0
  0
LINE
  5
6BD
330
1F
100
AcDbEntity
  8
0
  6
Continuous
 62
     7
370
    25
100
AcDbLine
 10
52.4047028966
 20
10.2271612347
 30
0.0
 11
49.4051438957
 21
10.2271612347
 31
0.0
  0
LINE
  5
6BE
330
1F
100
AcDbEntity
  8
0
  6
Continuous
 62
     7
370
    25
100
AcDbLine
 10
49.4051438957
 20
10.2271612347
 30
0.0
 11
49.4051438957
 21
7.6749049227
 31
0.0
  0
LINE
  5
6BF
330
1F
100
AcDbEntity
  8
0
  6
Continuous
 62
     7
370
    25
100
AcDbLine
 10
49.4051438957
 20
7.6749049227
 30
0.0
 11
52.4047028966
 21
7.6749049227
 31
0.0
  0
LINE
  5
6C0
330
1F
100
AcDbEntity
  8
0
  6
Continuous
 62
     7
370
    25
100
AcDbLine
 10
52.4047028966
 20
7.6749049227
 30
0.0
 11
52.4047028966
 21
4.6753459219
 31
0.0
  0
LINE
  5
6C1
330
1F
100
AcDbEntity
  8
0
  6
Continuous
 62
     7
370
    25
100
AcDbLine
 10
27.9426617432
 20
10.2271612347
 30
0.0
 11
27.9426617432
 21
7.6749049227
 31
0.0
  0
LINE
  5
6C2
330
1F
100
AcDbEntity
  8
0
  6
Continuous
 62
     7
370
    25
100
AcDbLine
 10
27.9426617432
 20
7.6749049227
 30
0.0
 11
30.9422207441
 21
7.6749049227
 31
0.0
  0
LINE
  5
6C3
330
1F
100
AcDbEntity
  8
0
  6
Continuous
 62
     7
370
    25
100
AcDbLine
 10
30.9422207441
 20
7.6749049227
 30
0.0
 11
30.9422207441
 21
4.6753459219
 31
0.0
  0
LINE
  5
6C4
330
1F
100
AcDbEntity
  8
0
  6
Continuous
 62
     7
370
    25
100
AcDbLine
 10
30.9422207441
 20
4.6753459219
 30
0.0
 11
33.494477056
 21
4.6753459219
 31
0.0
  0
LINE
  5
6C5
330
1F
100
AcDbEntity
  8
0
  6
Continuous
 62
     7
370
    25
100
AcDbLine
 10
33.494477056
 20
4.6753459219
 30
0.0
 11
33.494477056
 21
7.6749049227
 31
0.0
  0
LINE
  5
6C6
330
1F
100
AcDbEntity
  8
0
  6
Continuous
 62
     7
370
    25
100
AcDbLine
 10
33.494477056
 20
7.6749049227
 30
0.0
 11
36.4940360569
 21
7.6749049227
 31
0.0
  0
LINE
  5
6C7
330
1F
100
AcDbEntity
  8
0
  6
Continuous
 62
     7
370
    25
100
AcDbLine
 10
36.4940360569
 20
7.6749049227
 30
0.0
 11
36.4940360569
 21
10.2271612347
 31
0.0
  0
LINE
  5
6C8
330
1F
100
AcDbEntity
  8
0
  6
Continuous
 62
     7
370
    25
100
AcDbLine
 10
36.4940360569
 20
10.2271612347
 30
0.0
 11
33.494477056
 21
10.2271612347
 31
0.0
  0
LINE
  5
6C9
330
1F
100
AcDbEntity
  8
0
  6
Continuous
 62
     7
370
    25
100
AcDbLine
 10
33.494477056
 20
10.2271612347
 30
0.0
 11
33.494477056
 21
13.2267202355
 31
0.0
  0
LINE
  5
6CA
330
1F
100
AcDbEntity
  8
0
  6
Continuous
 62
     7
370
    25
100
AcDbLine
 10
33.494477056
 20
13.2267202355
 30
0.0
 11
30.9422207441
 21
13.2267202355
 31
0.0
  0
LINE
  5
6CB
330
1F
100
AcDbEntity
  8
0
  6
Continuous
 62
     7
370
    25
100
AcDbLine
 10
30.9422207441
 20
13.2267202355
 30
0.0
 11
30.9422207441
 21
10.2271612347
 31
0.0
  0
LINE
  5
6CC
330
1F
100
AcDbEntity
  8
0
  6
Continuous
 62
     7
370
    25
100
AcDbLine
 10
30.9422207441
 20
10.2271612347
 30
0.0
 11
27.9426617432
 21
10.2271612347
 31
0.0
  0
LINE
  5
6CD
330
1F
100
AcDbEntity
  8
0
  6
Continuous
 62
     7
370
    25
100
AcDbLine
 10
33.494477056
 20
34.689202388
 30
0.0
 11
30.9422207441
 21
34.689202388
 31
0.0
  0
LINE
  5
6CE
330
1F
100
AcDbEntity
  8
0
  6
Continuous
 62
     7
370
    25
100
AcDbLine
 10
30.9422207441
 20
34.689202388
 30
0.0
 11
30.9422207441
 21
31.6896433872
 31
0.0
  0
LINE
  5
6CF
330
1F
100
AcDbEntity
  8
0
  6
Continuous
 62
     7
370
    25
100
AcDbLine
 10
30.9422207441
 20
31.6896433872
 30
0.0
 11
27.9426617432
 21
31.6896433872
 31
0.0
  0
LINE
  5
6D0
330
1F
100
AcDbEntity
  8
0
  6
Continuous
 62
     7
370
    25
100
AcDbLine
 10
27.9426617432
 20
31.6896433872
 30
0.0
 11
27.9426617432
 21
29.1373870752
 31
0.0
  0
LINE
  5
6D1
330
1F
100
AcDbEntity
  8
0
  6
Continuous
 62
     7
370
    25
100
AcDbLine
 10
27.9426617432
 20
29.1373870752
 30
0.0
 11
30.9422207441
 21
29.1373870752
 31
0.0
  0
LINE
  5
6D2
330
1F
100
AcDbEntity
  8
0
  6
Continuous
 62
     7
370
    25
100
AcDbLine
 10
30.9422207441
 20
29.1373870752
 30
0.0
 11
30.9422207441
 21
26.1378280744
 31
0.0
  0
LINE
  5
6D3
330
1F
100
AcDbEntity
  8
0
  6
Continuous
 62
     7
370
    25
100
AcDbLine
 10
30.9422207441
 20
26.1378280744
 30
0.0
 11
33.494477056
 21
26.1378280744
 31
0.0
  0
LINE
  5
6D4
330
1F
100
AcDbEntity
  8
0
  6
Continuous
 62
     7
370
    25
100
AcDbLine
 10
33.494477056
 20
26.1378280744
 30
0.0
 11
33.494477056
 21
29.1373870752
 31
0.0
  0
LINE
  5
6D5
330
1F
100
AcDbEntity
  8
0
  6
Continuous
 62
     7
370
    25
100
AcDbLine
 10
33.494477056
 20
29.1373870752
 30
0.0
 11
36.4940360569
 21
29.1373870752
 31
0.0
  0
LINE
  5
6D6
330
1F
100
AcDbEntity
  8
0
  6
Continuous
 62
     7
370
    25
100
AcDbLine
 10
36.4940360569
 20
29.1373870752
 30
0.0
 11
36.4940360569
 21
31.6896433872
 31
0.0
  0
LINE
  5
6D7
330
1F
100
AcDbEntity
  8
0
  6
Continuous
 62
     7
370
    25
100
AcDbLine
 10
36.4940360569
 20
31.6896433872
 30
0.0
 11
33.494477056
 21
31.6896433872
 31
0.0
  0
LINE
  5
6D8
330
1F
100
AcDbEntity
  8
0
  6
Continuous
 62
     7
370
    25
100
AcDbLine
 10
33.494477056
 20
31.6896433872
 30
0.0
 11
33.494477056
 21
34.689202388
 31
0.0
  0
LINE
  5
6D9
330
1F
100
AcDbEntity
  8
0
  6
Continuous
 62
     7
370
    25
100
AcDbLine
 10
46.5279421418
 20
132.8164041419
 30
0.0
 11
51.2878692284
 21
132.8164041419
 31
0.0
  0
LINE
  5
6DA
330
1F
100
AcDbEntity
  8
0
  6
Continuous
 62
     7
370
    25
100
AcDbLine
 10
51.2878692284
 20
132.8164041419
 30
0.0
 11
51.2878692284
 21
134.754335507
 31
0.0
  0
LINE
  5
6DB
330
1F
100
AcDbEntity
  8
0
  6
Continuous
 62
     7
370
    25
100
AcDbLine
 10
51.2878692284
 20
134.754335507
 30
0.0
 11
34.6113107241
 21
134.754335507
 31
0.0
  0
LINE
  5
6DC
330
1F
100
AcDbEntity
  8
0
  6
Continuous
 62
     7
370
    25
100
AcDbLine
 10
34.6113107241
 20
134.754335507
 30
0.0
 11
34.6113107241
 21
132.8164041419
 31
0.0
  0
LINE
  5
6DD
330
1F
100
AcDbEntity
  8
0
  6
Continuous
 62
     7
370
    25
100
AcDbLine
 10
34.6113107241
 20
132.8164041419
 30
0.0
 11
39.3712378108
 21
132.8164041419
 31
0.0
  0
LINE
  5
6DE
330
1F
100
AcDbEntity
  8
0
  6
Continuous
 62
     7
370
    25
100
AcDbLine
 10
39.3712378108
 20
132.8164041419
 30
0.0
 11
39.3712378108
 21
118.5106263205
 31
0.0
  0
LINE
  5
6DF
330
1F
100
AcDbEntity
  8
0
  6
Continuous
 62
     7
370
    25
100
AcDbLine
 10
39.3712378108
 20
118.5106263205
 30
0.0
 11
25.0654599893
 21
118.5106263205
 31
0.0
  0
LINE
  5
6E0
330
1F
100
AcDbEntity
  8
0
  6
Continuous
 62
     7
370
    25
100
AcDbLine
 10
25.0654599893
 20
118.5106263205
 30
0.0
 11
25.0654599893
 21
123.2705534071
 31
0.0
  0
LINE
  5
6E1
330
1F
100
AcDbEntity
  8
0
  6
Continuous
 62
     7
370
    25
100
AcDbLine
 10
25.0654599893
 20
123.2705534071
 30
0.0
 11
23.1275286243
 21
123.2705534071
 31
0.0
  0
LINE
  5
6E2
330
1F
100
AcDbEntity
  8
0
  6
Continuous
 62
     7
370
    25
100
AcDbLine
 10
23.1275286243
 20
123.2705534071
 30
0.0
 11
23.1275286243
 21
106.5939949028
 31
0.0
  0
LINE
  5
6E3
330
1F
100
AcDbEntity
  8
0
  6
Continuous
 62
     7
370
    25
100
AcDbLine
 10
23.1275286243
 20
106.5939949028
 30
0.0
 11
25.0654599893
 21
106.5939949028
 31
0.0
  0
LINE
  5
6E4
330
1F
100
AcDbEntity
  8
0
  6
Continuous
 62
     7
370
    25
100
AcDbLine
 10
25.0654599893
 20
106.5939949028
 30
0.0
 11
25.0654599893
 21
111.3539219894
 31
0.0
  0
LINE
  5
6E5
330
1F
100
AcDbEntity
  8
0
  6
Continuous
 62
     7
370
    25
100
AcDbLine
 10
25.0654599893
 20
111.3539219894
 30
0.0
 11
39.3712378108
 21
111.3539219894
 31
0.0
  0
LINE
  5
6E6
330
1F
100
AcDbEntity
  8
0
  6
Continuous
 62
     7
370
    25
100
AcDbLine
 10
39.3712378108
 20
111.3539219894
 30
0.0
 11
39.3712378108
 21
97.048144168
 31
0.0
  0
LINE
  5
6E7
330
1F
100
AcDbEntity
  8
0
  6
Continuous
 62
     7
370
    25
100
AcDbLine
 10
39.3712378108
 20
97.048144168
 30
0.0
 11
34.6113107241
 21
97.048144168
 31
0.0
  0
LINE
  5
6E8
330
1F
100
AcDbEntity
  8
0
  6
Continuous
 62
     7
370
    25
100
AcDbLine
 10
34.6113107241
 20
97.048144168
 30
0.0
 11
34.6113107241
 21
95.1102128029
 31
0.0
  0
LINE
  5
6E9
330
1F
100
AcDbEntity
  8
0
  6
Continuous
 62
     7
370
    25
100
AcDbLine
 10
34.6113107241
 20
95.1102128029
 30
0.0
 11
51.2878692284
 21
95.1102128029
 31
0.0
  0
LINE
  5
6EA
330
1F
100
AcDbEntity
  8
0
  6
Continuous
 62
     7
370
    25
100
AcDbLine
 10
51.2878692284
 20
95.1102128029
 30
0.0
 11
51.2878692284
 21
97.048144168
 31
0.0
  0
LINE
  5
6EB
330
1F
100
AcDbEntity
  8
0
  6
Continuous
 62
     7
370
    25
100
AcDbLine
 10
51.2878692284
 20
97.048144168
 30
0.0
 11
46.5279421418
 21
97.048144168
 31
0.0
  0
LINE
  5
6EC
330
1F
100
AcDbEntity
  8
0
  6
Continuous
 62
     7
370
    25
100
AcDbLine
 10
46.5279421418
 20
97.048144168
 30
0.0
 11
46.5279421418
 21
111.3539219894
 31
0.0
  0
LINE
  5
6ED
330
1F
100
AcDbEntity
  8
0
  6
Continuous
 62
     7
370
    25
100
AcDbLine
 10
46.5279421418
 20
111.3539219894
 30
0.0
 11
60.8337199633
 21
111.3539219894
 31
0.0
  0
LINE
  5
6EE
330
1F
100
AcDbEntity
  8
0
  6
Continuous
 62
     7
370
    25
100
AcDbLine
 10
60.8337199633
 20
111.3539219894
 30
0.0
 11
60.8337199633
 21
106.5939949028
 31
0.0
  0
LINE
  5
6EF
330
1F
100
AcDbEntity
  8
0
  6
Continuous
 62
     7
370
    25
100
AcDbLine
 10
60.8337199633
 20
106.5939949028
 30
0.0
 11
62.7716513283
 21
106.5939949028
 31
0.0
  0
LINE
  5
6F0
330
1F
100
AcDbEntity
  8
0
  6
Continuous
 62
     7
370
    25
100
AcDbLine
 10
62.7716513283
 20
106.5939949028
 30
0.0
 11
62.7716513283
 21
123.2705534071
 31
0.0
  0
LINE
  5
6F1
330
1F
100
AcDbEntity
  8
0
  6
Continuous
 62
     7
370
    25
100
AcDbLine
 10
62.7716513283
 20
123.2705534071
 30
0.0
 11
60.8337199633
 21
123.2705534071
 31
0.0
  0
LINE
  5
6F2
330
1F
100
AcDbEntity
  8
0
  6
Continuous
 62
     7
370
    25
100
AcDbLine
 10
60.8337199633
 20
123.2705534071
 30
0.0
 11
60.8337199633
 21
118.5106263205
 31
0.0
  0
LINE
  5
6F3
330
1F
100
AcDbEntity
  8
0
  6
Continuous
 62
     7
370
    25
100
AcDbLine
 10
60.8337199633
 20
118.5106263205
 30
0.0
 11
46.5279421418
 21
118.5106263205
 31
0.0
  0
LINE
  5
6F4
330
1F
100
AcDbEntity
  8
0
  6
Continuous
 62
     7
370
    25
100
AcDbLine
 10
46.5279421418
 20
118.5106263205
 30
0.0
 11
46.5279421418
 21
132.8164041419
 31
0.0
  0
LINE
  5
6F5
330
1F
100
AcDbEntity
  8
0
  6
Continuous
 62
     7
370
    25
100
AcDbLine
 10
57.9565182094
 20
124.3873870752
 30
0.0
 11
57.9565182094
 21
126.9396433872
 31
0.0
  0
LINE
  5
6F6
330
1F
100
AcDbEntity
  8
0
  6
Continuous
 62
     7
370
    25
100
AcDbLine
 10
57.9565182094
 20
126.9396433872
 30
0.0
 11
54.9569592085
 21
126.9396433872
 31
0.0
  0
LINE
  5
6F7
330
1F
100
AcDbEntity
  8
0
  6
Continuous
 62
     7
370
    25
100
AcDbLine
 10
54.9569592085
 20
126.9396433872
 30
0.0
 11
54.9569592085
 21
129.939202388
 31
0.0
  0
LINE
  5
6F8
330
1F
100
AcDbEntity
  8
0
  6
Continuous
 62
     7
370
    25
100
AcDbLine
 10
54.9569592085
 20
129.939202388
 30
0.0
 11
52.4047028966
 21
129.939202388
 31
0.0
  0
LINE
  5
6F9
330
1F
100
AcDbEntity
  8
0
  6
Continuous
 62
     7
370
    25
100
AcDbLine
 10
52.4047028966
 20
129.939202388
 30
0.0
 11
52.4047028966
 21
126.9396433872
 31
0.0
  0
LINE
  5
6FA
330
1F
100
AcDbEntity
  8
0
  6
Continuous
 62
     7
370
    25
100
AcDbLine
 10
52.4047028966
 20
126.9396433872
 30
0.0
 11
49.4051438957
 21
126.9396433872
 31
0.0
  0
LINE
  5
6FB
330
1F
100
AcDbEntity
  8
0
  6
Continuous
 62
     7
370
    25
100
AcDbLine
 10
49.4051438957
 20
126.9396433872
 30
0.0
 11
49.4051438957
 21
124.3873870752
 31
0.0
  0
LINE
  5
6FC
330
1F
100
AcDbEntity
  8
0
  6
Continuous
 62
     7
370
    25
100
AcDbLine
 10
49.4051438957
 20
124.3873870752
 30
0.0
 11
52.4047028966
 21
124.3873870752
 31
0.0
  0
LINE
  5
6FD
330
1F
100
AcDbEntity
  8
0
  6
Continuous
 62
     7
370
    25
100
AcDbLine
 10
52.4047028966
 20
124.3873870752
 30
0.0
 11
52.4047028966
 21
121.3878280744
 31
0.0
  0
LINE
  5
6FE
330
1F
100
AcDbEntity
  8
0
  6
Continuous
 62
     7
370
    25
100
AcDbLine
 10
52.4047028966
 20
121.3878280744
 30
0.0
 11
54.9569592085
 21
121.3878280744
 31
0.0
  0
LINE
  5
6FF
330
1F
100
AcDbEntity
  8
0
  6
Continuous
 62
     7
370
    25
100
AcDbLine
 10
54.9569592085
 20
121.3878280744
 30
0.0
 11
54.9569592085
 21
124.3873870752
 31
0.0
  0
LINE
  5
700
330
1F
100
AcDbEntity
  8
0
  6
Continuous
 62
     7
370
    25
100
AcDbLine
 10
54.9569592085
 20
124.3873870752
 30
0.0
 11
57.9565182094
 21
124.3873870752
 31
0.0
  0
LINE
  5
701
330
1F
100
AcDbEntity
  8
0
  6
Continuous
 62
     7
370
    25
100
AcDbLine
 10
52.4047028966
 20
99.9253459219
 30
0.0
 11
54.9569592085
 21
99.9253459219
 31
0.0
  0
LINE
  5
702
330
1F
100
AcDbEntity
  8
0
  6
Continuous
 62
     7
370
    25
100
AcDbLine
 10
54.9569592085
 20
99.9253459219
 30
0.0
 11
54.9569592085
 21
102.9249049227
 31
0.0
  0
LINE
  5
703
330
1F
100
AcDbEntity
  8
0
  6
Continuous
 62
     7
370
    25
100
AcDbLine
 10
54.9569592085
 20
102.9249049227
 30
0.0
 11
57.9565182094
 21
102.9249049227
 31
0.0
  0
LINE
  5
704
330
1F
100
AcDbEntity
  8
0
  6
Continuous
 62
     7
370
    25
100
AcDbLine
 10
57.9565182094
 20
102.9249049227
 30
0.0
 11
57.9565182094
 21
105.4771612347
 31
0.0
  0
LINE
  5
705
330
1F
100
AcDbEntity
  8
0
  6
Continuous
 62
     7
370
    25
100
AcDbLine
 10
57.9565182094
 20
105.4771612347
 30
0.0
 11
54.9569592085
 21
105.4771612347
 31
0.0
  0
LINE
  5
706
330
1F
100
AcDbEntity
  8
0
  6
Continuous
 62
     7
370
    25
100
AcDbLine
 10
54.9569592085
 20
105.4771612347
 30
0.0
 11
54.9569592085
 21
108.4767202355
 31
0.0
  0
LINE
  5
707
330
1F
100
AcDbEntity
  8
0
  6
Continuous
 62
     7
370
    25
100
AcDbLine
 10
54.9569592085
 20
108.4767202355
 30
0.0
 11
52.4047028966
 21
108.4767202355
 31
0.0
  0
LINE
  5
708
330
1F
100
AcDbEntity
  8
0
  6
Continuous
 62
     7
370
    25
100
AcDbLine
 10
52.4047028966
 20
108.4767202355
 30
0.0
 11
52.4047028966
 21
105.4771612347
 31
0.0
  0
LINE
  5
709
330
1F
100
AcDbEntity
  8
0
  6
Continuous
 62
     7
370
    25
100
AcDbLine
 10
52.4047028966
 20
105.4771612347
 30
0.0
 11
49.4051438957
 21
105.4771612347
 31
0.0
  0
LINE
  5
70A
330
1F
100
AcDbEntity
  8
0
  6
Continuous
 62
     7
370
    25
100
AcDbLine
 10
49.4051438957
 20
105.4771612347
 30
0.0
 11
49.4051438957
 21
102.9249049227
 31
0.0
  0
LINE
  5
70B
330
1F
100
AcDbEntity
  8
0
  6
Continuous
 62
     7
370
    25
100
AcDbLine
 10
49.4051438957
 20
102.9249049227
 30
0.0
 11
52.4047028966
 21
102.9249049227
 31
0.0
  0
LINE
  5
70C
330
1F
100
AcDbEntity
  8
0
  6
Continuous
 62
     7
370
    25
100
AcDbLine
 10
52.4047028966
 20
102.9249049227
 30
0.0
 11
52.4047028966
 21
99.9253459219
 31
0.0
  0
LINE
  5
70D
330
1F
100
AcDbEntity
  8
0
  6
Continuous
 62
     7
370
    25
100
AcDbLine
 10
27.9426617432
 20
105.4771612347
 30
0.0
 11
27.9426617432
 21
102.9249049227
 31
0.0
  0
LINE
  5
70E
330
1F
100
AcDbEntity
  8
0
  6
Continuous
 62
     7
370
    25
100
AcDbLine
 10
27.9426617432
 20
102.9249049227
 30
0.0
 11
30.9422207441
 21
102.9249049227
 31
0.0
  0
LINE
  5
70F
330
1F
100
AcDbEntity
  8
0
  6
Continuous
 62
     7
370
    25
100
AcDbLine
 10
30.9422207441
 20
102.9249049227
 30
0.0
 11
30.9422207441
 21
99.9253459219
 31
0.0
  0
LINE
  5
710
330
1F
100
AcDbEntity
  8
0
  6
Continuous
 62
     7
370
    25
100
AcDbLine
 10
30.9422207441
 20
99.9253459219
 30
0.0
 11
33.494477056
 21
99.9253459219
 31
0.0
  0
LINE
  5
711
330
1F
100
AcDbEntity
  8
0
  6
Continuous
 62
     7
370
    25
100
AcDbLine
 10
33.494477056
 20
99.9253459219
 30
0.0
 11
33.494477056
 21
102.9249049227
 31
0.0
  0
LINE
  5
712
330
1F
100
AcDbEntity
  8
0
  6
Continuous
 62
     7
370
    25
100
AcDbLine
 10
33.494477056
 20
102.9249049227
 30
0.0
 11
36.4940360569
 21
102.9249049227
 31
0.0
  0
LINE
  5
713
330
1F
100
AcDbEntity
  8
0
  6
Continuous
 62
     7
370
    25
100
AcDbLine
 10
36.4940360569
 20
102.9249049227
 30
0.0
 11
36.4940360569
 21
105.4771612347
 31
0.0
  0
LINE
  5
714
330
1F
100
AcDbEntity
  8
0
  6
Continuous
 62
     7
370
    25
100
AcDbLine
 10
36.4940360569
 20
105.4771612347
 30
0.0
 11
33.494477056
 21
105.4771612347
 31
0.0
  0
LINE
  5
715
330
1F
100
AcDbEntity
  8
0
  6
Continuous
 62
     7
370
    25
100
AcDbLine
 10
33.494477056
 20
105.4771612347
 30
0.0
 11
33.494477056
 21
108.4767202355
 31
0.0
  0
LINE
  5
716
330
1F
100
AcDbEntity
  8
0
  6
Continuous
 62
     7
370
    25
100
AcDbLine
 10
33.494477056
 20
108.4767202355
 30
0.0
 11
30.9422207441
 21
108.4767202355
 31
0.0
  0
LINE
  5
717
330
1F
100
AcDbEntity
  8
0
  6
Continuous
 62
     7
370
    25
100
AcDbLine
 10
30.9422207441
 20
108.4767202355
 30
0.0
 11
30.9422207441
 21
105.4771612347
 31
0.0
  0
LINE
  5
718
330
1F
100
AcDbEntity
  8
0
  6
Continuous
 62
     7
370
    25
100
AcDbLine
 10
30.9422207441
 20
105.4771612347
 30
0.0
 11
27.9426617432
 21
105.4771612347
 31
0.0
  0
LINE
  5
719
330
1F
100
AcDbEntity
  8
0
  6
Continuous
 62
     7
370
    25
100
AcDbLine
 10
33.494477056
 20
129.939202388
 30
0.0
 11
30.9422207441
 21
129.939202388
 31
0.0
  0
LINE
  5
71A
330
1F
100
AcDbEntity
  8
0
  6
Continuous
 62
     7
370
    25
100
AcDbLine
 10
30.9422207441
 20
129.939202388
 30
0.0
 11
30.9422207441
 21
126.9396433872
 31
0.0
  0
LINE
  5
71B
330
1F
100
AcDbEntity
  8
0
  6
Continuous
 62
     7
370
    25
100
AcDbLine
 10
30.9422207441
 20
126.9396433872
 30
0.0
 11
27.9426617432
 21
126.9396433872
 31
0.0
  0
LINE
  5
71C
330
1F
100
AcDbEntity
  8
0
  6
Continuous
 62
     7
370
    25
100
AcDbLine
 10
27.9426617432
 20
126.9396433872
 30
0.0
 11
27.9426617432
 21
124.3873870752
 31
0.0
  0
LINE
  5
71D
330
1F
100
AcDbEntity
  8
0
  6
Continuous
 62
     7
370
    25
100
AcDbLine
 10
27.9426617432
 20
124.3873870752
 30
0.0
 11
30.9422207441
 21
124.3873870752
 31
0.0
  0
LINE
  5
71E
330
1F
100
AcDbEntity
  8
0
  6
Continuous
 62
     7
370
    25
100
AcDbLine
 10
30.9422207441
 20
124.3873870752
 30
0.0
 11
30.9422207441
 21
121.3878280744
 31
0.0
  0
LINE
  5
71F
330
1F
100
AcDbEntity
  8
0
  6
Continuous
 62
     7
370
    25
100
AcDbLine
 10
30.9422207441
 20
121.3878280744
 30
0.0
 11
33.494477056
 21
121.3878280744
 31
0.0
  0
LINE
  5
720
330
1F
100
AcDbEntity
  8
0
  6
Continuous
 62
     7
370
    25
100
AcDbLine
 10
33.494477056
 20
121.3878280744
 30
0.0
 11
33.494477056
 21
124.3873870752
 31
0.0
  0
LINE
  5
721
330
1F
100
AcDbEntity
  8
0
  6
Continuous
 62
     7
370
    25
100
AcDbLine
 10
33.494477056
 20
124.3873870752
 30
0.0
 11
36.4940360569
 21
124.3873870752
 31
0.0
  0
LINE
  5
722
330
1F
100
AcDbEntity
  8
0
  6
Continuous
 62
     7
370
    25
100
AcDbLine
 10
36.4940360569
 20
124.3873870752
 30
0.0
 11
36.4940360569
 21
126.9396433872
 31
0.0
  0
LINE
  5
723
330
1F
100
AcDbEntity
  8
0
  6
Continuous
 62
     7
370
    25
100
AcDbLine
 10
36.4940360569
 20
126.9396433872
 30
0.0
 11
33.494477056
 21
126.9396433872
 31
0.0
  0
LINE
  5
724
330
1F
100
AcDbEntity
  8
0
  6
Continuous
 62
     7
370
    25
100
AcDbLine
 10
33.494477056
 20
126.9396433872
 30
0.0
 11
33.494477056
 21
129.939202388
 31
0.0
  0
LINE
  5
725
330
1F
100
AcDbEntity
  8
0
  6
Continuous
 62
     7
370
    25
100
AcDbLine
 10
-1.0970578582
 20
85.1914041419
 30
0.0
 11
3.6628692284
 21
85.1914041419
 31
0.0
  0
LINE
  5
726
330
1F
100
AcDbEntity
  8
0
  6
Continuous
 62
     7
370
    25
100
AcDbLine
 10
3.6628692284
 20
85.1914041419
 30
0.0
 11
3.6628692284
 21
87.129335507
 31
0.0
  0
LINE
  5
727
330
1F
100
AcDbEntity
  8
0
  6
Continuous
 62
     7
370
    25
100
AcDbLine
 10
3.6628692284
 20
87.129335507
 30
0.0
 11
-13.0136892759
 21
87.129335507
 31
0.0
  0
LINE
  5
728
330
1F
100
AcDbEntity
  8
0
  6
Continuous
 62
     7
370
    25
100
AcDbLine
 10
-13.0136892759
 20
87.129335507
 30
0.0
 11
-13.0136892759
 21
85.1914041419
 31
0.0
  0
LINE
  5
729
330
1F
100
AcDbEntity
  8
0
  6
Continuous
 62
     7
370
    25
100
AcDbLine
 10
-13.0136892759
 20
85.1914041419
 30
0.0
 11
-8.2537621892
 21
85.1914041419
 31
0.0
  0
LINE
  5
72A
330
1F
100
AcDbEntity
  8
0
  6
Continuous
 62
     7
370
    25
100
AcDbLine
 10
-8.2537621892
 20
85.1914041419
 30
0.0
 11
-8.2537621892
 21
70.8856263205
 31
0.0
  0
LINE
  5
72B
330
1F
100
AcDbEntity
  8
0
  6
Continuous
 62
     7
370
    25
100
AcDbLine
 10
-8.2537621892
 20
70.8856263205
 30
0.0
 11
-22.5595400107
 21
70.8856263205
 31
0.0
  0
LINE
  5
72C
330
1F
100
AcDbEntity
  8
0
  6
Continuous
 62
     7
370
    25
100
AcDbLine
 10
-22.5595400107
 20
70.8856263205
 30
0.0
 11
-22.5595400107
 21
75.6455534071
 31
0.0
  0
LINE
  5
72D
330
1F
100
AcDbEntity
  8
0
  6
Continuous
 62
     7
370
    25
100
AcDbLine
 10
-22.5595400107
 20
75.6455534071
 30
0.0
 11
-24.4974713757
 21
75.6455534071
 31
0.0
  0
LINE
  5
72E
330
1F
100
AcDbEntity
  8
0
  6
Continuous
 62
     7
370
    25
100
AcDbLine
 10
-24.4974713757
 20
75.6455534071
 30
0.0
 11
-24.4974713757
 21
58.9689949028
 31
0.0
  0
LINE
  5
72F
330
1F
100
AcDbEntity
  8
0
  6
Continuous
 62
     7
370
    25
100
AcDbLine
 10
-24.4974713757
 20
58.9689949028
 30
0.0
 11
-22.5595400107
 21
58.9689949028
 31
0.0
  0
LINE
  5
730
330
1F
100
AcDbEntity
  8
0
  6
Continuous
 62
     7
370
    25
100
AcDbLine
 10
-22.5595400107
 20
58.9689949028
 30
0.0
 11
-22.5595400107
 21
63.7289219894
 31
0.0
  0
LINE
  5
731
330
1F
100
AcDbEntity
  8
0
  6
Continuous
 62
     7
370
    25
100
AcDbLine
 10
-22.5595400107
 20
63.7289219894
 30
0.0
 11
-8.2537621892
 21
63.7289219894
 31
0.0
  0
LINE
  5
732
330
1F
100
AcDbEntity
  8
0
  6
Continuous
 62
     7
370
    25
100
AcDbLine
 10
-8.2537621892
 20
63.7289219894
 30
0.0
 11
-8.2537621892
 21
49.423144168
 31
0.0
  0
LINE
  5
733
330
1F
100
AcDbEntity
  8
0
  6
Continuous
 62
     7
370
    25
100
AcDbLine
 10
-8.2537621892
 20
49.423144168
 30
0.0
 11
-13.0136892759
 21
49.423144168
 31
0.0
  0
LINE
  5
734
330
1F
100
AcDbEntity
  8
0
  6
Continuous
 62
     7
370
    25
100
AcDbLine
 10
-13.0136892759
 20
49.423144168
 30
0.0
 11
-13.0136892759
 21
47.4852128029
 31
0.0
  0
LINE
  5
735
330
1F
100
AcDbEntity
  8
0
  6
Continuous
 62
     7
370
    25
100
AcDbLine
 10
-13.0136892759
 20
47.4852128029
 30
0.0
 11
3.6628692284
 21
47.4852128029
 31
0.0
  0
LINE
  5
736
330
1F
100
AcDbEntity
  8
0
  6
Continuous
 62
     7
370
    25
100
AcDbLine
 10
3.6628692284
 20
47.4852128029
 30
0.0
 11
3.6628692284
 21
49.423144168
 31
0.0
  0
LINE
  5
737
330
1F
100
AcDbEntity
  8
0
  6
Continuous
 62
     7
370
    25
100
AcDbLine
 10
3.6628692284
 20
49.423144168
 30
0.0
 11
-1.0970578582
 21
49.423144168
 31
0.0
  0
LINE
  5
738
330
1F
100
AcDbEntity
  8
0
  6
Continuous
 62
     7
370
    25
100
AcDbLine
 10
-1.0970578582
 20
49.423144168
 30
0.0
 11
-1.0970578582
 21
63.7289219894
 31
0.0
  0
LINE
  5
739
330
1F
100
AcDbEntity
  8
0
  6
Continuous
 62
     7
370
    25
100
AcDbLine
 10
-1.0970578582
 20
63.7289219894
 30
0.0
 11
13.2087199633
 21
63.7289219894
 31
0.0
  0
LINE
  5
73A
330
1F
100
AcDbEntity
  8
0
  6
Continuous
 62
     7
370
    25
100
AcDbLine
 10
13.2087199633
 20
63.7289219894
 30
0.0
 11
13.2087199633
 21
58.9689949028
 31
0.0
  0
LINE
  5
73B
330
1F
100
AcDbEntity
  8
0
  6
Continuous
 62
     7
370
    25
100
AcDbLine
 10
13.2087199633
 20
58.9689949028
 30
0.0
 11
15.1466513283
 21
58.9689949028
 31
0.0
  0
LINE
  5
73C
330
1F
100
AcDbEntity
  8
0
  6
Continuous
 62
     7
370
    25
100
AcDbLine
 10
15.1466513283
 20
58.9689949028
 30
0.0
 11
15.1466513283
 21
75.6455534071
 31
0.0
  0
LINE
  5
73D
330
1F
100
AcDbEntity
  8
0
  6
Continuous
 62
     7
370
    25
100
AcDbLine
 10
15.1466513283
 20
75.6455534071
 30
0.0
 11
13.2087199633
 21
75.6455534071
 31
0.0
  0
LINE
  5
73E
330
1F
100
AcDbEntity
  8
0
  6
Continuous
 62
     7
370
    25
100
AcDbLine
 10
13.2087199633
 20
75.6455534071
 30
0.0
 11
13.2087199633
 21
70.8856263205
 31
0.0
  0
LINE
  5
73F
330
1F
100
AcDbEntity
  8
0
  6
Continuous
 62
     7
370
    25
100
AcDbLine
 10
13.2087199633
 20
70.8856263205
 30
0.0
 11
-1.0970578582
 21
70.8856263205
 31
0.0
  0
LINE
  5
740
330
1F
100
AcDbEntity
  8
0
  6
Continuous
 62
     7
370
    25
100
AcDbLine
 10
-1.0970578582
 20
70.8856263205
 30
0.0
 11
-1.0970578582
 21
85.1914041419
 31
0.0
  0
LINE
  5
741
330
1F
100
AcDbEntity
  8
0
  6
Continuous
 62
     7
370
    25
100
AcDbLine
 10
10.3315182094
 20
76.7623870752
 30
0.0
 11
10.3315182094
 21
79.3146433872
 31
0.0
  0
LINE
  5
742
330
1F
100
AcDbEntity
  8
0
  6
Continuous
 62
     7
370
    25
100
AcDbLine
 10
10.3315182094
 20
79.3146433872
 30
0.0
 11
7.3319592085
 21
79.3146433872
 31
0.0
  0
LINE
  5
743
330
1F
100
AcDbEntity
  8
0
  6
Continuous
 62
     7
370
    25
100
AcDbLine
 10
7.3319592085
 20
79.3146433872
 30
0.0
 11
7.3319592085
 21
82.314202388
 31
0.0
  0
LINE
  5
744
330
1F
100
AcDbEntity
  8
0
  6
Continuous
 62
     7
370
    25
100
AcDbLine
 10
7.3319592085
 20
82.314202388
 30
0.0
 11
4.7797028966
 21
82.314202388
 31
0.0
  0
LINE
  5
745
330
1F
100
AcDbEntity
  8
0
  6
Continuous
 62
     7
370
    25
100
AcDbLine
 10
4.7797028966
 20
82.314202388
 30
0.0
 11
4.7797028966
 21
79.3146433872
 31
0.0
  0
LINE
  5
746
330
1F
100
AcDbEntity
  8
0
  6
Continuous
 62
     7
370
    25
100
AcDbLine
 10
4.7797028966
 20
79.3146433872
 30
0.0
 11
1.7801438957
 21
79.3146433872
 31
0.0
  0
LINE
  5
747
330
1F
100
AcDbEntity
  8
0
  6
Continuous
 62
     7
370
    25
100
AcDbLine
 10
1.7801438957
 20
79.3146433872
 30
0.0
 11
1.7801438957
 21
76.7623870752
 31
0.0
  0
LINE
  5
748
330
1F
100
AcDbEntity
  8
0
  6
Continuous
 62
     7
370
    25
100
AcDbLine
 10
1.7801438957
 20
76.7623870752
 30
0.0
 11
4.7797028966
 21
76.7623870752
 31
0.0
  0
LINE
  5
749
330
1F
100
AcDbEntity
  8
0
  6
Continuous
 62
     7
370
    25
100
AcDbLine
 10
4.7797028966
 20
76.7623870752
 30
0.0
 11
4.7797028966
 21
73.7628280744
 31
0.0
  0
LINE
  5
74A
330
1F
100
AcDbEntity
  8
0
  6
Continuous
 62
     7
370
    25
100
AcDbLine
 10
4.7797028966
 20
73.7628280744
 30
0.0
 11
7.3319592085
 21
73.7628280744
 31
0.0
  0
LINE
  5
74B
330
1F
100
AcDbEntity
  8
0
  6
Continuous
 62
     7
370
    25
100
AcDbLine
 10
7.3319592085
 20
73.7628280744
 30
0.0
 11
7.3319592085
 21
76.7623870752
 31
0.0
  0
LINE
  5
74C
330
1F
100
AcDbEntity
  8
0
  6
Continuous
 62
     7
370
    25
100
AcDbLine
 10
7.3319592085
 20
76.7623870752
 30
0.0
 11
10.3315182094
 21
76.7623870752
 31
0.0
  0
LINE
  5
74D
330
1F
100
AcDbEntity
  8
0
  6
Continuous
 62
     7
370
    25
100
AcDbLine
 10
4.7797028966
 20
52.3003459219
 30
0.0
 11
7.3319592085
 21
52.3003459219
 31
0.0
  0
LINE
  5
74E
330
1F
100
AcDbEntity
  8
0
  6
Continuous
 62
     7
370
    25
100
AcDbLine
 10
7.3319592085
 20
52.3003459219
 30
0.0
 11
7.3319592085
 21
55.2999049227
 31
0.0
  0
LINE
  5
74F
330
1F
100
AcDbEntity
  8
0
  6
Continuous
 62
     7
370
    25
100
AcDbLine
 10
7.3319592085
 20
55.2999049227
 30
0.0
 11
10.3315182094
 21
55.2999049227
 31
0.0
  0
LINE
  5
750
330
1F
100
AcDbEntity
  8
0
  6
Continuous
 62
     7
370
    25
100
AcDbLine
 10
10.3315182094
 20
55.2999049227
 30
0.0
 11
10.3315182094
 21
57.8521612347
 31
0.0
  0
LINE
  5
751
330
1F
100
AcDbEntity
  8
0
  6
Continuous
 62
     7
370
    25
100
AcDbLine
 10
10.3315182094
 20
57.8521612347
 30
0.0
 11
7.3319592085
 21
57.8521612347
 31
0.0
  0
LINE
  5
752
330
1F
100
AcDbEntity
  8
0
  6
Continuous
 62
     7
370
    25
100
AcDbLine
 10
7.3319592085
 20
57.8521612347
 30
0.0
 11
7.3319592085
 21
60.8517202355
 31
0.0
  0
LINE
  5
753
330
1F
100
AcDbEntity
  8
0
  6
Continuous
 62
     7
370
    25
100
AcDbLine
 10
7.3319592085
 20
60.8517202355
 30
0.0
 11
4.7797028966
 21
60.8517202355
 31
0.0
  0
LINE
  5
754
330
1F
100
AcDbEntity
  8
0
  6
Continuous
 62
     7
370
    25
100
AcDbLine
 10
4.7797028966
 20
60.8517202355
 30
0.0
 11
4.7797028966
 21
57.8521612347
 31
0.0
  0
LINE
  5
755
330
1F
100
AcDbEntity
  8
0
  6
Continuous
 62
     7
370
    25
100
AcDbLine
 10
4.7797028966
 20
57.8521612347
 30
0.0
 11
1.7801438957
 21
57.8521612347
 31
0.0
  0
LINE
  5
756
330
1F
100
AcDbEntity
  8
0
  6
Continuous
 62
     7
370
    25
100
AcDbLine
 10
1.7801438957
 20
57.8521612347
 30
0.0
 11
1.7801438957
 21
55.2999049227
 31
0.0
  0
LINE
  5
757
330
1F
100
AcDbEntity
  8
0
  6
Continuous
 62
     7
370
    25
100
AcDbLine
 10
1.7801438957
 20
55.2999049227
 30
0.0
 11
4.7797028966
 21
55.2999049227
 31
0.0
  0
LINE
  5
758
330
1F
100
AcDbEntity
  8
0
  6
Continuous
 62
     7
370
    25
100
AcDbLine
 10
4.7797028966
 20
55.2999049227
 30
0.0
 11
4.7797028966
 21
52.3003459219
 31
0.0
  0
LINE
  5
759
330
1F
100
AcDbEntity
  8
0
  6
Continuous
 62
     7
370
    25
100
AcDbLine
 10
-19.6823382568
 20
57.8521612347
 30
0.0
 11
-19.6823382568
 21
55.2999049227
 31
0.0
  0
LINE
  5
75A
330
1F
100
AcDbEntity
  8
0
  6
Continuous
 62
     7
370
    25
100
AcDbLine
 10
-19.6823382568
 20
55.2999049227
 30
0.0
 11
-16.6827792559
 21
55.2999049227
 31
0.0
  0
LINE
  5
75B
330
1F
100
AcDbEntity
  8
0
  6
Continuous
 62
     7
370
    25
100
AcDbLine
 10
-16.6827792559
 20
55.2999049227
 30
0.0
 11
-16.6827792559
 21
52.3003459219
 31
0.0
  0
LINE
  5
75C
330
1F
100
AcDbEntity
  8
0
  6
Continuous
 62
     7
370
    25
100
AcDbLine
 10
-16.6827792559
 20
52.3003459219
 30
0.0
 11
-14.130522944
 21
52.3003459219
 31
0.0
  0
LINE
  5
75D
330
1F
100
AcDbEntity
  8
0
  6
Continuous
 62
     7
370
    25
100
AcDbLine
 10
-14.130522944
 20
52.3003459219
 30
0.0
 11
-14.130522944
 21
55.2999049227
 31
0.0
  0
LINE
  5
75E
330
1F
100
AcDbEntity
  8
0
  6
Continuous
 62
     7
370
    25
100
AcDbLine
 10
-14.130522944
 20
55.2999049227
 30
0.0
 11
-11.1309639431
 21
55.2999049227
 31
0.0
  0
LINE
  5
75F
330
1F
100
AcDbEntity
  8
0
  6
Continuous
 62
     7
370
    25
100
AcDbLine
 10
-11.1309639431
 20
55.2999049227
 30
0.0
 11
-11.1309639431
 21
57.8521612347
 31
0.0
  0
LINE
  5
760
330
1F
100
AcDbEntity
  8
0
  6
Continuous
 62
     7
370
    25
100
AcDbLine
 10
-11.1309639431
 20
57.8521612347
 30
0.0
 11
-14.130522944
 21
57.8521612347
 31
0.0
  0
LINE
  5
761
330
1F
100
AcDbEntity
  8
0
  6
Continuous
 62
     7
370
    25
100
AcDbLine
 10
-14.130522944
 20
57.8521612347
 30
0.0
 11
-14.130522944
 21
60.8517202355
 31
0.0
  0
LINE
  5
762
330
1F
100
AcDbEntity
  8
0
  6
Continuous
 62
     7
370
    25
100
AcDbLine
 10
-14.130522944
 20
60.8517202355
 30
0.0
 11
-16.6827792559
 21
60.8517202355
 31
0.0
  0
LINE
  5
763
330
1F
100
AcDbEntity
  8
0
  6
Continuous
 62
     7
370
    25
100
AcDbLine
 10
-16.6827792559
 20
60.8517202355
 30
0.0
 11
-16.6827792559
 21
57.8521612347
 31
0.0
  0
LINE
  5
764
330
1F
100
AcDbEntity
  8
0
  6
Continuous
 62
     7
370
    25
100
AcDbLine
 10
-16.6827792559
 20
57.8521612347
 30
0.0
 11
-19.6823382568
 21
57.8521612347
 31
0.0
  0
LINE
  5
765
330
1F
100
AcDbEntity
  8
0
  6
Continuous
 62
     7
370
    25
100
AcDbLine
 10
-14.130522944
 20
82.314202388
 30
0.0
 11
-16.6827792559
 21
82.314202388
 31
0.0
  0
LINE
  5
766
330
1F
100
AcDbEntity
  8
0
  6
Continuous
 62
     7
370
    25
100
AcDbLine
 10
-16.6827792559
 20
82.314202388
 30
0.0
 11
-16.6827792559
 21
79.3146433872
 31
0.0
  0
LINE
  5
767
330
1F
100
AcDbEntity
  8
0
  6
Continuous
 62
     7
370
    25
100
AcDbLine
 10
-16.6827792559
 20
79.3146433872
 30
0.0
 11
-19.6823382568
 21
79.3146433872
 31
0.0
  0
LINE
  5
768
330
1F
100
AcDbEntity
  8
0
  6
Continuous
 62
     7
370
    25
100
AcDbLine
 10
-19.6823382568
 20
79.3146433872
 30
0.0
 11
-19.6823382568
 21
76.7623870752
 31
0.0
  0
LINE
  5
769
330
1F
100
AcDbEntity
  8
0
  6
Continuous
 62
     7
370
    25
100
AcDbLine
 10
-19.6823382568
 20
76.7623870752
 30
0.0
 11
-16.6827792559
 21
76.7623870752
 31
0.0
  0
LINE
  5
76A
330
1F
100
AcDbEntity
  8
0
  6
Continuous
 62
     7
370
    25
100
AcDbLine
 10
-16.6827792559
 20
76.7623870752
 30
0.0
 11
-16.6827792559
 21
73.7628280744
 31
0.0
  0
LINE
  5
76B
330
1F
100
AcDbEntity
  8
0
  6
Continuous
 62
     7
370
    25
100
AcDbLine
 10
-16.6827792559
 20
73.7628280744
 30
0.0
 11
-14.130522944
 21
73.7628280744
 31
0.0
  0
LINE
  5
76C
330
1F
100
AcDbEntity
  8
0
  6
Continuous
 62
     7
370
    25
100
AcDbLine
 10
-14.130522944
 20
73.7628280744
 30
0.0
 11
-14.130522944
 21
76.7623870752
 31
0.0
  0
LINE
  5
76D
330
1F
100
AcDbEntity
  8
0
  6
Continuous
 62
     7
370
    25
100
AcDbLine
 10
-14.130522944
 20
76.7623870752
 30
0.0
 11
-11.1309639431
 21
76.7623870752
 31
0.0
  0
LINE
  5
76E
330
1F
100
AcDbEntity
  8
0
  6
Continuous
 62
     7
370
    25
100
AcDbLine
 10
-11.1309639431
 20
76.7623870752
 30
0.0
 11
-11.1309639431
 21
79.3146433872
 31
0.0
  0
LINE
  5
76F
330
1F
100
AcDbEntity
  8
0
  6
Continuous
 62
     7
370
    25
100
AcDbLine
 10
-11.1309639431
 20
79.3146433872
 30
0.0
 11
-14.130522944
 21
79.3146433872
 31
0.0
  0
LINE
  5
770
330
1F
100
AcDbEntity
  8
0
  6
Continuous
 62
     7
370
    25
100
AcDbLine
 10
-14.130522944
 20
79.3146433872
 30
0.0
 11
-14.130522944
 21
82.314202388
 31
0.0
  0
LINE
  5
771
330
1F
100
AcDbEntity
  8
0
  6
Continuous
 62
     7
370
    25
100
AcDbLine
 10
-1.0970578582
 20
37.5664041419
 30
0.0
 11
3.6628692284
 21
37.5664041419
 31
0.0
  0
LINE
  5
772
330
1F
100
AcDbEntity
  8
0
  6
Continuous
 62
     7
370
    25
100
AcDbLine
 10
3.6628692284
 20
37.5664041419
 30
0.0
 11
3.6628692284
 21
39.504335507
 31
0.0
  0
LINE
  5
773
330
1F
100
AcDbEntity
  8
0
  6
Continuous
 62
     7
370
    25
100
AcDbLine
 10
3.6628692284
 20
39.504335507
 30
0.0
 11
-13.0136892759
 21
39.504335507
 31
0.0
  0
LINE
  5
774
330
1F
100
AcDbEntity
  8
0
  6
Continuous
 62
     7
370
    25
100
AcDbLine
 10
-13.0136892759
 20
39.504335507
 30
0.0
 11
-13.0136892759
 21
37.5664041419
 31
0.0
  0
LINE
  5
775
330
1F
100
AcDbEntity
  8
0
  6
Continuous
 62
     7
370
    25
100
AcDbLine
 10
-13.0136892759
 20
37.5664041419
 30
0.0
 11
-8.2537621892
 21
37.5664041419
 31
0.0
  0
LINE
  5
776
330
1F
100
AcDbEntity
  8
0
  6
Continuous
 62
     7
370
    25
100
AcDbLine
 10
-8.2537621892
 20
37.5664041419
 30
0.0
 11
-8.2537621892
 21
23.2606263205
 31
0.0
  0
LINE
  5
777
330
1F
100
AcDbEntity
  8
0
  6
Continuous
 62
     7
370
    25
100
AcDbLine
 10
-8.2537621892
 20
23.2606263205
 30
0.0
 11
-22.5595400107
 21
23.2606263205
 31
0.0
  0
LINE
  5
778
330
1F
100
AcDbEntity
  8
0
  6
Continuous
 62
     7
370
    25
100
AcDbLine
 10
-22.5595400107
 20
23.2606263205
 30
0.0
 11
-22.5595400107
 21
28.0205534071
 31
0.0
  0
LINE
  5
779
330
1F
100
AcDbEntity
  8
0
  6
Continuous
 62
     7
370
    25
100
AcDbLine
 10
-22.5595400107
 20
28.0205534071
 30
0.0
 11
-24.4974713757
 21
28.0205534071
 31
0.0
  0
LINE
  5
77A
330
1F
100
AcDbEntity
  8
0
  6
Continuous
 62
     7
370
    25
100
AcDbLine
 10
-24.4974713757
 20
28.0205534071
 30
0.0
 11
-24.4974713757
 21
11.3439949028
 31
0.0
  0
LINE
  5
77B
330
1F
100
AcDbEntity
  8
0
  6
Continuous
 62
     7
370
    25
100
AcDbLine
 10
-24.4974713757
 20
11.3439949028
 30
0.0
 11
-22.5595400107
 21
11.3439949028
 31
0.0
  0
LINE
  5
77C
330
1F
100
AcDbEntity
  8
0
  6
Continuous
 62
     7
370
    25
100
AcDbLine
 10
-22.5595400107
 20
11.3439949028
 30
0.0
 11
-22.5595400107
 21
16.1039219894
 31
0.0
  0
LINE
  5
77D
330
1F
100
AcDbEntity
  8
0
  6
Continuous
 62
     7
370
    25
100
AcDbLine
 10
-22.5595400107
 20
16.1039219894
 30
0.0
 11
-8.2537621892
 21
16.1039219894
 31
0.0
  0
LINE
  5
77E
330
1F
100
AcDbEntity
  8
0
  6
Continuous
 62
     7
370
    25
100
AcDbLine
 10
-8.2537621892
 20
16.1039219894
 30
0.0
 11
-8.2537621892
 21
1.798144168
 31
0.0
  0
LINE
  5
77F
330
1F
100
AcDbEntity
  8
0
  6
Continuous
 62
     7
370
    25
100
AcDbLine
 10
-8.2537621892
 20
1.798144168
 30
0.0
 11
-13.0136892759
 21
1.798144168
 31
0.0
  0
LINE
  5
780
330
1F
100
AcDbEntity
  8
0
  6
Continuous
 62
     7
370
    25
100
AcDbLine
 10
-13.0136892759
 20
1.798144168
 30
0.0
 11
-13.0136892759
 21
-0.1397871971
 31
0.0
  0
LINE
  5
781
330
1F
100
AcDbEntity
  8
0
  6
Continuous
 62
     7
370
    25
100
AcDbLine
 10
-13.0136892759
 20
-0.1397871971
 30
0.0
 11
3.6628692284
 21
-0.1397871971
 31
0.0
  0
LINE
  5
782
330
1F
100
AcDbEntity
  8
0
  6
Continuous
 62
     7
370
    25
100
AcDbLine
 10
3.6628692284
 20
-0.1397871971
 30
0.0
 11
3.6628692284
 21
1.798144168
 31
0.0
  0
LINE
  5
783
330
1F
100
AcDbEntity
  8
0
  6
Continuous
 62
     7
370
    25
100
AcDbLine
 10
3.6628692284
 20
1.798144168
 30
0.0
 11
-1.0970578582
 21
1.798144168
 31
0.0
  0
LINE
  5
784
330
1F
100
AcDbEntity
  8
0
  6
Continuous
 62
     7
370
    25
100
AcDbLine
 10
-1.0970578582
 20
1.798144168
 30
0.0
 11
-1.0970578582
 21
16.1039219894
 31
0.0
  0
LINE
  5
785
330
1F
100
AcDbEntity
  8
0
  6
Continuous
 62
     7
370
    25
100
AcDbLine
 10
-1.0970578582
 20
16.1039219894
 30
0.0
 11
13.2087199633
 21
16.1039219894
 31
0.0
  0
LINE
  5
786
330
1F
100
AcDbEntity
  8
0
  6
Continuous
 62
     7
370
    25
100
AcDbLine
 10
13.2087199633
 20
16.1039219894
 30
0.0
 11
13.2087199633
 21
11.3439949028
 31
0.0
  0
LINE
  5
787
330
1F
100
AcDbEntity
  8
0
  6
Continuous
 62
     7
370
    25
100
AcDbLine
 10
13.2087199633
 20
11.3439949028
 30
0.0
 11
15.1466513283
 21
11.3439949028
 31
0.0
  0
LINE
  5
788
330
1F
100
AcDbEntity
  8
0
  6
Continuous
 62
     7
370
    25
100
AcDbLine
 10
15.1466513283
 20
11.3439949028
 30
0.0
 11
15.1466513283
 21
28.0205534071
 31
0.0
  0
LINE
  5
789
330
1F
100
AcDbEntity
  8
0
  6
Continuous
 62
     7
370
    25
100
AcDbLine
 10
15.1466513283
 20
28.0205534071
 30
0.0
 11
13.2087199633
 21
28.0205534071
 31
0.0
  0
LINE
  5
78A
330
1F
100
AcDbEntity
  8
0
  6
Continuous
 62
     7
370
    25
100
AcDbLine
 10
13.2087199633
 20
28.0205534071
 30
0.0
 11
13.2087199633
 21
23.2606263205
 31
0.0
  0
LINE
  5
78B
330
1F
100
AcDbEntity
  8
0
  6
Continuous
 62
     7
370
    25
100
AcDbLine
 10
13.2087199633
 20
23.2606263205
 30
0.0
 11
-1.0970578582
 21
23.2606263205
 31
0.0
  0
LINE
  5
78C
330
1F
100
AcDbEntity
  8
0
  6
Continuous
 62
     7
370
    25
100
AcDbLine
 10
-1.0970578582
 20
23.2606263205
 30
0.0
 11
-1.0970578582
 21
37.5664041419
 31
0.0
  0
LINE
  5
78D
330
1F
100
AcDbEntity
  8
0
  6
Continuous
 62
     7
370
    25
100
AcDbLine
 10
10.3315182094
 20
29.1373870752
 30
0.0
 11
10.3315182094
 21
31.6896433872
 31
0.0
  0
LINE
  5
78E
330
1F
100
AcDbEntity
  8
0
  6
Continuous
 62
     7
370
    25
100
AcDbLine
 10
10.3315182094
 20
31.6896433872
 30
0.0
 11
7.3319592085
 21
31.6896433872
 31
0.0
  0
LINE
  5
78F
330
1F
100
AcDbEntity
  8
0
  6
Continuous
 62
     7
370
    25
100
AcDbLine
 10
7.3319592085
 20
31.6896433872
 30
0.0
 11
7.3319592085
 21
34.689202388
 31
0.0
  0
LINE
  5
790
330
1F
100
AcDbEntity
  8
0
  6
Continuous
 62
     7
370
    25
100
AcDbLine
 10
7.3319592085
 20
34.689202388
 30
0.0
 11
4.7797028966
 21
34.689202388
 31
0.0
  0
LINE
  5
791
330
1F
100
AcDbEntity
  8
0
  6
Continuous
 62
     7
370
    25
100
AcDbLine
 10
4.7797028966
 20
34.689202388
 30
0.0
 11
4.7797028966
 21
31.6896433872
 31
0.0
  0
LINE
  5
792
330
1F
100
AcDbEntity
  8
0
  6
Continuous
 62
     7
370
    25
100
AcDbLine
 10
4.7797028966
 20
31.6896433872
 30
0.0
 11
1.7801438957
 21
31.6896433872
 31
0.0
  0
LINE
  5
793
330
1F
100
AcDbEntity
  8
0
  6
Continuous
 62
     7
370
    25
100
AcDbLine
 10
1.7801438957
 20
31.6896433872
 30
0.0
 11
1.7801438957
 21
29.1373870752
 31
0.0
  0
LINE
  5
794
330
1F
100
AcDbEntity
  8
0
  6
Continuous
 62
     7
370
    25
100
AcDbLine
 10
1.7801438957
 20
29.1373870752
 30
0.0
 11
4.7797028966
 21
29.1373870752
 31
0.0
  0
LINE
  5
795
330
1F
100
AcDbEntity
  8
0
  6
Continuous
 62
     7
370
    25
100
AcDbLine
 10
4.7797028966
 20
29.1373870752
 30
0.0
 11
4.7797028966
 21
26.1378280744
 31
0.0
  0
LINE
  5
796
330
1F
100
AcDbEntity
  8
0
  6
Continuous
 62
     7
370
    25
100
AcDbLine
 10
4.7797028966
 20
26.1378280744
 30
0.0
 11
7.3319592085
 21
26.1378280744
 31
0.0
  0
LINE
  5
797
330
1F
100
AcDbEntity
  8
0
  6
Continuous
 62
     7
370
    25
100
AcDbLine
 10
7.3319592085
 20
26.1378280744
 30
0.0
 11
7.3319592085
 21
29.1373870752
 31
0.0
  0
LINE
  5
798
330
1F
100
AcDbEntity
  8
0
  6
Continuous
 62
     7
370
    25
100
AcDbLine
 10
7.3319592085
 20
29.1373870752
 30
0.0
 11
10.3315182094
 21
29.1373870752
 31
0.0
  0
LINE
  5
799
330
1F
100
AcDbEntity
  8
0
  6
Continuous
 62
     7
370
    25
100
AcDbLine
 10
4.7797028966
 20
4.6753459219
 30
0.0
 11
7.3319592085
 21
4.6753459219
 31
0.0
  0
LINE
  5
79A
330
1F
100
AcDbEntity
  8
0
  6
Continuous
 62
     7
370
    25
100
AcDbLine
 10
7.3319592085
 20
4.6753459219
 30
0.0
 11
7.3319592085
 21
7.6749049227
 31
0.0
  0
LINE
  5
79B
330
1F
100
AcDbEntity
  8
0
  6
Continuous
 62
     7
370
    25
100
AcDbLine
 10
7.3319592085
 20
7.6749049227
 30
0.0
 11
10.3315182094
 21
7.6749049227
 31
0.0
  0
LINE
  5
79C
330
1F
100
AcDbEntity
  8
0
  6
Continuous
 62
     7
370
    25
100
AcDbLine
 10
10.3315182094
 20
7.6749049227
 30
0.0
 11
10.3315182094
 21
10.2271612347
 31
0.0
  0
LINE
  5
79D
330
1F
100
AcDbEntity
  8
0
  6
Continuous
 62
     7
370
    25
100
AcDbLine
 10
10.3315182094
 20
10.2271612347
 30
0.0
 11
7.3319592085
 21
10.2271612347
 31
0.0
  0
LINE
  5
79E
330
1F
100
AcDbEntity
  8
0
  6
Continuous
 62
     7
370
    25
100
AcDbLine
 10
7.3319592085
 20
10.2271612347
 30
0.0
 11
7.3319592085
 21
13.2267202355
 31
0.0
  0
LINE
  5
79F
330
1F
100
AcDbEntity
  8
0
  6
Continuous
 62
     7
370
    25
100
AcDbLine
 10
7.3319592085
 20
13.2267202355
 30
0.0
 11
4.7797028966
 21
13.2267202355
 31
0.0
  0
LINE
  5
7A0
330
1F
100
AcDbEntity
  8
0
  6
Continuous
 62
     7
370
    25
100
AcDbLine
 10
4.7797028966
 20
13.2267202355
 30
0.0
 11
4.7797028966
 21
10.2271612347
 31
0.0
  0
LINE
  5
7A1
330
1F
100
AcDbEntity
  8
0
  6
Continuous
 62
     7
370
    25
100
AcDbLine
 10
4.7797028966
 20
10.2271612347
 30
0.0
 11
1.7801438957
 21
10.2271612347
 31
0.0
  0
LINE
  5
7A2
330
1F
100
AcDbEntity
  8
0
  6
Continuous
 62
     7
370
    25
100
AcDbLine
 10
1.7801438957
 20
10.2271612347
 30
0.0
 11
1.7801438957
 21
7.6749049227
 31
0.0
  0
LINE
  5
7A3
330
1F
100
AcDbEntity
  8
0
  6
Continuous
 62
     7
370
    25
100
AcDbLine
 10
1.7801438957
 20
7.6749049227
 30
0.0
 11
4.7797028966
 21
7.6749049227
 31
0.0
  0
LINE
  5
7A4
330
1F
100
AcDbEntity
  8
0
  6
Continuous
 62
     7
370
    25
100
AcDbLine
 10
4.7797028966
 20
7.6749049227
 30
0.0
 11
4.7797028966
 21
4.6753459219
 31
0.0
  0
LINE
  5
7A5
330
1F
100
AcDbEntity
  8
0
  6
Continuous
 62
     7
370
    25
100
AcDbLine
 10
-19.6823382568
 20
10.2271612347
 30
0.0
 11
-19.6823382568
 21
7.6749049227
 31
0.0
  0
LINE
  5
7A6
330
1F
100
AcDbEntity
  8
0
  6
Continuous
 62
     7
370
    25
100
AcDbLine
 10
-19.6823382568
 20
7.6749049227
 30
0.0
 11
-16.6827792559
 21
7.6749049227
 31
0.0
  0
LINE
  5
7A7
330
1F
100
AcDbEntity
  8
0
  6
Continuous
 62
     7
370
    25
100
AcDbLine
 10
-16.6827792559
 20
7.6749049227
 30
0.0
 11
-16.6827792559
 21
4.6753459219
 31
0.0
  0
LINE
  5
7A8
330
1F
100
AcDbEntity
  8
0
  6
Continuous
 62
     7
370
    25
100
AcDbLine
 10
-16.6827792559
 20
4.6753459219
 30
0.0
 11
-14.130522944
 21
4.6753459219
 31
0.0
  0
LINE
  5
7A9
330
1F
100
AcDbEntity
  8
0
  6
Continuous
 62
     7
370
    25
100
AcDbLine
 10
-14.130522944
 20
4.6753459219
 30
0.0
 11
-14.130522944
 21
7.6749049227
 31
0.0
  0
LINE
  5
7AA
330
1F
100
AcDbEntity
  8
0
  6
Continuous
 62
     7
370
    25
100
AcDbLine
 10
-14.130522944
 20
7.6749049227
 30
0.0
 11
-11.1309639431
 21
7.6749049227
 31
0.0
  0
LINE
  5
7AB
330
1F
100
AcDbEntity
  8
0
  6
Continuous
 62
     7
370
    25
100
AcDbLine
 10
-11.1309639431
 20
7.6749049227
 30
0.0
 11
-11.1309639431
 21
10.2271612347
 31
0.0
  0
LINE
  5
7AC
330
1F
100
AcDbEntity
  8
0
  6
Continuous
 62
     7
370
    25
100
AcDbLine
 10
-11.1309639431
 20
10.2271612347
 30
0.0
 11
-14.130522944
 21
10.2271612347
 31
0.0
  0
LINE
  5
7AD
330
1F
100
AcDbEntity
  8
0
  6
Continuous
 62
     7
370
    25
100
AcDbLine
 10
-14.130522944
 20
10.2271612347
 30
0.0
 11
-14.130522944
 21
13.2267202355
 31
0.0
  0
LINE
  5
7AE
330
1F
100
AcDbEntity
  8
0
  6
Continuous
 62
     7
370
    25
100
AcDbLine
 10
-14.130522944
 20
13.2267202355
 30
0.0
 11
-16.6827792559
 21
13.2267202355
 31
0.0
  0
LINE
  5
7AF
330
1F
100
AcDbEntity
  8
0
  6
Continuous
 62
     7
370
    25
100
AcDbLine
 10
-16.6827792559
 20
13.2267202355
 30
0.0
 11
-16.6827792559
 21
10.2271612347
 31
0.0
  0
LINE
  5
7B0
330
1F
100
AcDbEntity
  8
0
  6
Continuous
 62
     7
370
    25
100
AcDbLine
 10
-16.6827792559
 20
10.2271612347
 30
0.0
 11
-19.6823382568
 21
10.2271612347
 31
0.0
  0
LINE
  5
7B1
330
1F
100
AcDbEntity
  8
0
  6
Continuous
 62
     7
370
    25
100
AcDbLine
 10
-14.130522944
 20
34.689202388
 30
0.0
 11
-16.6827792559
 21
34.689202388
 31
0.0
  0
LINE
  5
7B2
330
1F
100
AcDbEntity
  8
0
  6
Continuous
 62
     7
370
    25
100
AcDbLine
 10
-16.6827792559
 20
34.689202388
 30
0.0
 11
-16.6827792559
 21
31.6896433872
 31
0.0
  0
LINE
  5
7B3
330
1F
100
AcDbEntity
  8
0
  6
Continuous
 62
     7
370
    25
100
AcDbLine
 10
-16.6827792559
 20
31.6896433872
 30
0.0
 11
-19.6823382568
 21
31.6896433872
 31
0.0
  0
LINE
  5
7B4
330
1F
100
AcDbEntity
  8
0
  6
Continuous
 62
     7
370
    25
100
AcDbLine
 10
-19.6823382568
 20
31.6896433872
 30
0.0
 11
-19.6823382568
 21
29.1373870752
 31
0.0
  0
LINE
  5
7B5
330
1F
100
AcDbEntity
  8
0
  6
Continuous
 62
     7
370
    25
100
AcDbLine
 10
-19.6823382568
 20
29.1373870752
 30
0.0
 11
-16.6827792559
 21
29.1373870752
 31
0.0
  0
LINE
  5
7B6
330
1F
100
AcDbEntity
  8
0
  6
Continuous
 62
     7
370
    25
100
AcDbLine
 10
-16.6827792559
 20
29.1373870752
 30
0.0
 11
-16.6827792559
 21
26.1378280744
 31
0.0
  0
LINE
  5
7B7
330
1F
100
AcDbEntity
  8
0
  6
Continuous
 62
     7
370
    25
100
AcDbLine
 10
-16.6827792559
 20
26.1378280744
 30
0.0
 11
-14.130522944
 21
26.1378280744
 31
0.0
  0
LINE
  5
7B8
330
1F
100
AcDbEntity
  8
0
  6
Continuous
 62
     7
370
    25
100
AcDbLine
 10
-14.130522944
 20
26.1378280744
 30
0.0
 11
-14.130522944
 21
29.1373870752
 31
0.0
  0
LINE
  5
7B9
330
1F
100
AcDbEntity
  8
0
  6
Continuous
 62
     7
370
    25
100
AcDbLine
 10
-14.130522944
 20
29.1373870752
 30
0.0
 11
-11.1309639431
 21
29.1373870752
 31
0.0
  0
LINE
  5
7BA
330
1F
100
AcDbEntity
  8
0
  6
Continuous
 62
     7
370
    25
100
AcDbLine
 10
-11.1309639431
 20
29.1373870752
 30
0.0
 11
-11.1309639431
 21
31.6896433872
 31
0.0
  0
LINE
  5
7BB
330
1F
100
AcDbEntity
  8
0
  6
Continuous
 62
     7
370
    25
100
AcDbLine
 10
-11.1309639431
 20
31.6896433872
 30
0.0
 11
-14.130522944
 21
31.6896433872
 31
0.0
  0
LINE
  5
7BC
330
1F
100
AcDbEntity
  8
0
  6
Continuous
 62
     7
370
    25
100
AcDbLine
 10
-14.130522944
 20
31.6896433872
 30
0.0
 11
-14.130522944
 21
34.689202388
 31
0.0
  0
MTEXT
  5
7BE
330
1F
100
AcDbEntity
  8
0
  6
Continuous
 62
     7
100
AcDbMText
 10
-28.4879100237
 20
-5.1497922367
 30
0.0
 40
4.83362
 41
0.0
 71
     1
 72
     1
  1
SOLIDWORKS Maker Product.
  7
SLDTEXTSTYLE0
 73
     1
 44
1.0
  0
MTEXT
  5
7BF
330
1F
100
AcDbEntity
  8
0
  6
Continuous
 62
     7
100
AcDbMText
 10
-28.4879100237
 20
-12.4002222367
 30
0.0
 40
4.83362
 41
0.0
 71
     1
 72
     1
  1
For Personal Use Only.
  7
SLDTEXTSTYLE0
 73
     1
 44
1.0
  0
ENDSEC
  0
SECTION
  2
OBJECTS
  0
DICTIONARY
  5
C
330
0
100
AcDbDictionary
281
     1
  3
ACAD_GROUP
350
D
  3
ACAD_LAYOUT
350
1A
  3
ACAD_MLINESTYLE
350
17
  3
ACAD_PLOTSETTINGS
350
19
  3
ACAD_PLOTSTYLENAME
350
E
  3
ACAD_SCALELIST
350
47
  3
DWGPROPS
350
7C0
  0
DICTIONARY
  5
D
102
{ACAD_REACTORS
330
C
102
}
330
C
100
AcDbDictionary
281
     1
  0
DICTIONARY
  5
1A
102
{ACAD_REACTORS
330
C
102
}
330
C
100
AcDbDictionary
281
     1
  3
Layout1
350
1E
  3
Layout2
350
26
  3
Model
350
22
  0
DICTIONARY
  5
17
102
{ACAD_REACTORS
330
C
102
}
330
C
100
AcDbDictionary
281
     1
  3
Standard
350
18
  0
DICTIONARY
  5
19
102
{ACAD_REACTORS
330
C
102
}
330
C
100
AcDbDictionary
281
     1
  0
ACDBDICTIONARYWDFLT
  5
E
102
{ACAD_REACTORS
330
C
102
}
330
C
100
AcDbDictionary
281
     1
  3
Normal
350
F
100
AcDbDictionaryWithDefault
340
F
  0
DICTIONARY
  5
47
102
{ACAD_REACTORS
330
C
102
}
330
C
100
AcDbDictionary
281
     1
  3
A0
350
48
  3
A1
350
49
  3
A2
350
4A
  3
A3
350
4B
  3
A4
350
4C
  3
A5
350
4D
  3
A6
350
4E
  3
A7
350
4F
  3
A8
350
50
  3
A9
350
51
  3
B0
350
52
  3
B1
350
53
  3
B2
350
54
  3
B3
350
55
  3
B4
350
56
  3
B5
350
57
  3
B6
350
58
  0
XRECORD
  5
7C0
102
{ACAD_REACTORS
330
C
102
}
330
C
100
AcDbXrecord
280
     1
  1
DWGPROPS COOKIE
  2

  3

  4

  6

  7

  8
Caden
  9

300
=
301
=
302
=
303
=
304
=
305
=
306
=
307
=
308
=
309
=
 40
0.0
 41
2460167.066527315
 42
2460167.066571551
  1

 90
        0
  0
LAYOUT
  5
1E
102
{ACAD_REACTORS
330
1A
102
}
330
1A
100
AcDbPlotSettings
  1

  2
none_device
  4

  6

 40
0.0
 41
0.0
 42
0.0
 43
0.0
 44
0.0
 45
0.0
 46
0.0
 47
0.0
 48
0.0
 49
0.0
140
0.0
141
0.0
142
1.0
143
1.0
 70
   688
 72
     1
 73
     0
 74
     5
  7

 75
    16
147
1.0
148
0.0
149
0.0
100
AcDbLayout
  1
Layout1
 70
     1
 71
     1
 10
0.0
 20
0.0
 11
420.0
 21
297.0
 12
0.0
 22
0.0
 32
0.0
 14
1.0000000000E+20
 24
1.0000000000E+20
 34
1.0000000000E+20
 15
-1.0000000000E+20
 25
-1.0000000000E+20
 35
-1.0000000000E+20
146
0.0
 13
0.0
 23
0.0
 33
0.0
 16
1.0
 26
0.0
 36
0.0
 17
0.0
 27
1.0
 37
0.0
 76
     0
330
1B
  0
LAYOUT
  5
26
102
{ACAD_REACTORS
330
1A
102
}
330
1A
100
AcDbPlotSettings
  1

  2
none_device
  4

  6

 40
0.0
 41
0.0
 42
0.0
 43
0.0
 44
0.0
 45
0.0
 46
0.0
 47
0.0
 48
0.0
 49
0.0
140
0.0
141
0.0
142
1.0
143
1.0
 70
   688
 72
     1
 73
     0
 74
     5
  7

 75
    16
147
1.0
148
0.0
149
0.0
100
AcDbLayout
  1
Layout2
 70
     1
 71
     2
 10
0.0
 20
0.0
 11
0.0
 21
0.0
 12
0.0
 22
0.0
 32
0.0
 14
0.0
 24
0.0
 34
0.0
 15
0.0
 25
0.0
 35
0.0
146
0.0
 13
0.0
 23
0.0
 33
0.0
 16
1.0
 26
0.0
 36
0.0
 17
0.0
 27
1.0
 37
0.0
 76
     0
330
23
  0
LAYOUT
  5
22
102
{ACAD_REACTORS
330
1A
102
}
330
1A
100
AcDbPlotSettings
  1

  2
none_device
  4
ANSI_A_(11.00_x_8.50_Inches)
  6

 40
6.35
 41
19.05
 42
6.35000508
 43
19.05000254
 44
279.4
 45
215.9
 46
119.0354541577
 47
-14.8810923379
 48
0.0
 49
0.0
140
0.0
141
0.0
142
0.0294488189
143
1.0
 70
  1696
 72
     0
 73
     0
 74
     0
  7

 75
     0
147
0.0179189148
148
-1300.4909072572
149
0.0
100
AcDbLayout
  1
Model
 70
     1
 71
     0
 10
0.0
 20
0.0
 11
420.0
 21
297.0
 12
0.0
 22
0.0
 32
0.0
 14
-28.4879100237
 24
-4.1302258451
 34
0.0
 15
66.7620899763
 25
281.6197741549
 35
0.0
146
0.0
 13
0.0
 23
0.0
 33
0.0
 16
1.0
 26
0.0
 36
0.0
 17
0.0
 27
1.0
 37
0.0
 76
     0
330
1F
331
29
  0
MLINESTYLE
  5
18
102
{ACAD_REACTORS
330
17
102
}
330
17
100
AcDbMlineStyle
  2
Standard
 70
     0
  3

 62
   256
 51
90.0
 52
90.0
 71
     2
 49
0.5
 62
   256
  6
BYLAYER
 49
-0.5
 62
   256
  6
BYLAYER
  0
ACDBPLACEHOLDER
  5
F
102
{ACAD_REACTORS
330
E
102
}
330
E
  0
SCALE
  5
48
102
{ACAD_REACTORS
330
47
102
}
330
47
100
AcDbScale
 70
     0
300
1:1
140
1.0
141
1.0
290
     1
  0
SCALE
  5
49
102
{ACAD_REACTORS
330
47
102
}
330
47
100
AcDbScale
 70
     0
300
1:2
140
1.0
141
2.0
290
     0
  0
SCALE
  5
4A
102
{ACAD_REACTORS
330
47
102
}
330
47
100
AcDbScale
 70
     0
300
1:4
140
1.0
141
4.0
290
     0
  0
SCALE
  5
4B
102
{ACAD_REACTORS
330
47
102
}
330
47
100
AcDbScale
 70
     0
300
1:5
140
1.0
141
5.0
290
     0
  0
SCALE
  5
4C
102
{ACAD_REACTORS
330
47
102
}
330
47
100
AcDbScale
 70
     0
300
1:8
140
1.0
141
8.0
290
     0
  0
SCALE
  5
4D
102
{ACAD_REACTORS
330
47
102
}
330
47
100
AcDbScale
 70
     0
300
1:10
140
1.0
141
10.0
290
     0
  0
SCALE
  5
4E
102
{ACAD_REACTORS
330
47
102
}
330
47
100
AcDbScale
 70
     0
300
1:16
140
1.0
141
16.0
290
     0
  0
SCALE
  5
4F
102
{ACAD_REACTORS
330
47
102
}
330
47
100
AcDbScale
 70
     0
300
1:20
140
1.0
141
20.0
290
     0
  0
SCALE
  5
50
102
{ACAD_REACTORS
330
47
102
}
330
47
100
AcDbScale
 70
     0
300
1:30
140
1.0
141
30.0
290
     0
  0
SCALE
  5
51
102
{ACAD_REACTORS
330
47
102
}
330
47
100
AcDbScale
 70
     0
300
1:40
140
1.0
141
40.0
290
     0
  0
SCALE
  5
52
102
{ACAD_REACTORS
330
47
102
}
330
47
100
AcDbScale
 70
     0
300
1:50
140
1.0
141
50.0
290
     0
  0
SCALE
  5
53
102
{ACAD_REACTORS
330
47
102
}
330
47
100
AcDbScale
 70
     0
300
1:100
140
1.0
141
100.0
290
     0
  0
SCALE
  5
54
102
{ACAD_REACTORS
330
47
102
}
330
47
100
AcDbScale
 70
     0
300
2:1
140
2.0
141
1.0
290
     0
  0
SCALE
  5
55
102
{ACAD_REACTORS
330
47
102
}
330
47
100
AcDbScale
 70
     0
300
4:1
140
4.0
141
1.0
290
     0
  0
SCALE
  5
56
102
{ACAD_REACTORS
330
47
102
}
330
47
100
AcDbScale
 70
     0
300
8:1
140
8.0
141
1.0
290
     0
  0
SCALE
  5
57
102
{ACAD_REACTORS
330
47
102
}
330
47
100
AcDbScale
 70
     0
300
10:1
140
10.0
141
1.0
290
     0
  0
SCALE
  5
58
102
{ACAD_REACTORS
330
47
102
}
330
47
100
AcDbScale
 70
     0
300
100:1
140
100.0
141
1.0
290
     0
  0
ENDSEC
  0
EOF
