  0
SECTION
  2
HEADER
  9
$ACADVER
  1
AC1015
  9
$ACADMAINTVER
 70
     6
  9
$DWGCODEPAGE
  3
ANSI_1252
  9
$INSBASE
 10
0.0
 20
0.0
 30
0.0
  9
$EXTMIN
 10
0.0
 20
-222.25
 30
0.0
  9
$EXTMAX
 10
233.75
 20
0.0
 30
0.0
  9
$LIMMIN
 10
0.0
 20
0.0
  9
$LIMMAX
 10
420.0
 20
297.0
  9
$ORTHOMODE
 70
     0
  9
$REGENMODE
 70
     1
  9
$FILLMODE
 70
     1
  9
$QTEXTMODE
 70
     0
  9
$MIRRTEXT
 70
     1
  9
$LTSCALE
 40
1.0
  9
$ATTMODE
 70
     1
  9
$TEXTSIZE
 40
3.5
  9
$TRACEWID
 40
1.0
  9
$TEXTSTYLE
  7
Standard
  9
$CLAYER
  8
0
  9
$CELTYPE
  6
ByLayer
  9
$CECOLOR
 62
   256
  9
$CELTSCALE
 40
1.0
  9
$DISPSILH
 70
     0
  9
$DIMSCALE
 40
1.0
  9
$DIMASZ
 40
3.302
  9
$DIMEXO
 40
0.0
  9
$DIMDLI
 40
3.75
  9
$DIMRND
 40
0.0
  9
$DIMDLE
 40
0.0
  9
$DIMEXE
 40
3.175
  9
$DIMTP
 40
0.0
  9
$DIMTM
 40
0.0
  9
$DIMTXT
 40
3.5
  9
$DIMCEN
 40
2.5
  9
$DIMTSZ
 40
0.0
  9
$DIMTOL
 70
     0
  9
$DIMLIM
 70
     0
  9
$DIMTIH
 70
     1
  9
$DIMTOH
 70
     1
  9
$DIMSE1
 70
     0
  9
$DIMSE2
 70
     0
  9
$DIMTAD
 70
     1
  9
$DIMZIN
 70
     1
  9
$DIMBLK
  1

  9
$DIMASO
 70
     1
  9
$DIMSHO
 70
     1
  9
$DIMPOST
  1

  9
$DIMAPOST
  1

  9
$DIMALT
 70
     0
  9
$DIMALTD
 70
     3
  9
$DIMALTF
 40
0.0393700787
  9
$DIMLFAC
 40
1.0
  9
$DIMTOFL
 70
     1
  9
$DIMTVP
 40
0.0
  9
$DIMTIX
 70
     0
  9
$DIMSOXD
 70
     0
  9
$DIMSAH
 70
     0
  9
$DIMBLK1
  1

  9
$DIMBLK2
  1

  9
$DIMSTYLE
  2
ISO-25
  9
$DIMCLRD
 70
     0
  9
$DIMCLRE
 70
     0
  9
$DIMCLRT
 70
     0
  9
$DIMTFAC
 40
1.0
  9
$DIMGAP
 40
1.524
  9
$DIMJUST
 70
     0
  9
$DIMSD1
 70
     0
  9
$DIMSD2
 70
     0
  9
$DIMTOLJ
 70
     0
  9
$DIMTZIN
 70
     1
  9
$DIMALTZ
 70
     0
  9
$DIMALTTZ
 70
     0
  9
$DIMUPT
 70
     0
  9
$DIMDEC
 70
     2
  9
$DIMTDEC
 70
     2
  9
$DIMALTU
 70
     2
  9
$DIMALTTD
 70
     3
  9
$DIMTXSTY
  7
Standard
  9
$DIMAUNIT
 70
     0
  9
$DIMADEC
 70
     2
  9
$DIMALTRND
 40
0.0
  9
$DIMAZIN
 70
     0
  9
$DIMDSEP
 70
    44
  9
$DIMATFIT
 70
     3
  9
$DIMFRAC
 70
     0
  9
$DIMLDRBLK
  1

  9
$DIMLUNIT
 70
     2
  9
$DIMLWD
 70
    -2
  9
$DIMLWE
 70
    -2
  9
$DIMTMOVE
 70
     0
  9
$LUNITS
 70
     2
  9
$LUPREC
 70
     6
  9
$SKETCHINC
 40
1.0
  9
$FILLETRAD
 40
0.0
  9
$AUNITS
 70
     0
  9
$AUPREC
 70
     6
  9
$MENU
  1
.
  9
$ELEVATION
 40
0.0
  9
$PELEVATION
 40
0.0
  9
$THICKNESS
 40
0.0
  9
$LIMCHECK
 70
     0
  9
$CHAMFERA
 40
0.0
  9
$CHAMFERB
 40
0.0
  9
$CHAMFERC
 40
0.0
  9
$CHAMFERD
 40
0.0
  9
$SKPOLY
 70
     0
  9
$TDCREATE
 40
2460169.766936783
  9
$TDUCREATE
 40
2460169.975270116
  9
$TDUPDATE
 40
2460169.766981551
  9
$TDUUPDATE
 40
2460169.975314885
  9
$TDINDWG
 40
0.0000000116
  9
$TDUSRTIMER
 40
0.0000000116
  9
$USRTIMER
 70
     1
  9
$ANGBASE
 50
0.0
  9
$ANGDIR
 70
     0
  9
$PDMODE
 70
     0
  9
$PDSIZE
 40
-1.0
  9
$PLINEWID
 40
0.0
  9
$SPLFRAME
 70
     0
  9
$SPLINETYPE
 70
     6
  9
$SPLINESEGS
 70
     8
  9
$HANDSEED
  5
262
  9
$SURFTAB1
 70
     6
  9
$SURFTAB2
 70
     6
  9
$SURFTYPE
 70
     6
  9
$SURFU
 70
     6
  9
$SURFV
 70
     6
  9
$UCSBASE
  2

  9
$UCSNAME
  2

  9
$UCSORG
 10
0.0
 20
0.0
 30
0.0
  9
$UCSXDIR
 10
1.0
 20
0.0
 30
0.0
  9
$UCSYDIR
 10
0.0
 20
1.0
 30
0.0
  9
$UCSORTHOREF
  2

  9
$UCSORTHOVIEW
 70
     0
  9
$UCSORGTOP
 10
0.0
 20
0.0
 30
0.0
  9
$UCSORGBOTTOM
 10
0.0
 20
0.0
 30
0.0
  9
$UCSORGLEFT
 10
0.0
 20
0.0
 30
0.0
  9
$UCSORGRIGHT
 10
0.0
 20
0.0
 30
0.0
  9
$UCSORGFRONT
 10
0.0
 20
0.0
 30
0.0
  9
$UCSORGBACK
 10
0.0
 20
0.0
 30
0.0
  9
$PUCSBASE
  2

  9
$PUCSNAME
  2

  9
$PUCSORG
 10
0.0
 20
0.0
 30
0.0
  9
$PUCSXDIR
 10
1.0
 20
0.0
 30
0.0
  9
$PUCSYDIR
 10
0.0
 20
1.0
 30
0.0
  9
$PUCSORTHOREF
  2

  9
$PUCSORTHOVIEW
 70
     0
  9
$PUCSORGTOP
 10
0.0
 20
0.0
 30
0.0
  9
$PUCSORGBOTTOM
 10
0.0
 20
0.0
 30
0.0
  9
$PUCSORGLEFT
 10
0.0
 20
0.0
 30
0.0
  9
$PUCSORGRIGHT
 10
0.0
 20
0.0
 30
0.0
  9
$PUCSORGFRONT
 10
0.0
 20
0.0
 30
0.0
  9
$PUCSORGBACK
 10
0.0
 20
0.0
 30
0.0
  9
$USERI1
 70
     0
  9
$USERI2
 70
     0
  9
$USERI3
 70
     0
  9
$USERI4
 70
     0
  9
$USERI5
 70
     0
  9
$USERR1
 40
0.0
  9
$USERR2
 40
0.0
  9
$USERR3
 40
0.0
  9
$USERR4
 40
0.0
  9
$USERR5
 40
0.0
  9
$WORLDVIEW
 70
     1
  9
$SHADEDGE
 70
     3
  9
$SHADEDIF
 70
    70
  9
$TILEMODE
 70
     1
  9
$MAXACTVP
 70
    64
  9
$PINSBASE
 10
0.0
 20
0.0
 30
0.0
  9
$PLIMCHECK
 70
     0
  9
$PEXTMIN
 10
1.0000000000E+20
 20
1.0000000000E+20
 30
1.0000000000E+20
  9
$PEXTMAX
 10
-1.0000000000E+20
 20
-1.0000000000E+20
 30
-1.0000000000E+20
  9
$PLIMMIN
 10
0.0
 20
0.0
  9
$PLIMMAX
 10
420.0
 20
297.0
  9
$UNITMODE
 70
     0
  9
$VISRETAIN
 70
     1
  9
$PLINEGEN
 70
     0
  9
$PSLTSCALE
 70
     1
  9
$TREEDEPTH
 70
  3020
  9
$CMLSTYLE
  2
Standard
  9
$CMLJUST
 70
     0
  9
$CMLSCALE
 40
20.0
  9
$PROXYGRAPHICS
 70
     1
  9
$MEASUREMENT
 70
     1
  9
$CELWEIGHT
370
    -1
  9
$ENDCAPS
280
     0
  9
$JOINSTYLE
280
     0
  9
$LWDISPLAY
290
     1
  9
$INSUNITS
 70
     4
  9
$HYPERLINKBASE
  1

  9
$STYLESHEET
  1

  9
$XEDIT
290
     1
  9
$CEPSNTYPE
380
     0
  9
$PSTYLEMODE
290
     1
  9
$FINGERPRINTGUID
  2
{e969aecf-1788-4571-b296-764eeecd47dc}
  9
$VERSIONGUID
  2
{FAEB1C32-E019-11D5-929B-00C0DF256EC4}
  9
$EXTNAMES
290
     1
  9
$PSVPSCALE
 40
0.0
  9
$OLESTARTUP
290
     0
  0
ENDSEC
  0
SECTION
  2
CLASSES
  0
CLASS
  1
ACDBDICTIONARYWDFLT
  2
AcDbDictionaryWithDefault
  3
ObjectDBX Classes
 90
        0
280
     0
281
     0
  0
CLASS
  1
VISUALSTYLE
  2
AcDbVisualStyle
  3
ObjectDBX Classes
 90
     4095
280
     0
281
     0
  0
CLASS
  1
MATERIAL
  2
AcDbMaterial
  3
ObjectDBX Classes
 90
     1153
280
     0
281
     0
  0
CLASS
  1
SCALE
  2
AcDbScale
  3
ObjectDBX Classes
 90
     1153
280
     0
281
     0
  0
CLASS
  1
TABLESTYLE
  2
AcDbTableStyle
  3
ObjectDBX Classes
 90
     4095
280
     0
281
     0
  0
CLASS
  1
MLEADERSTYLE
  2
AcDbMLeaderStyle
  3
ACDB_MLEADERSTYLE_CLASS
 90
     4095
280
     0
281
     0
  0
CLASS
  1
SUN
  2
AcDbSun
  3
SCENEOE
 90
     1153
280
     0
281
     0
  0
CLASS
  1
ACDBPLACEHOLDER
  2
AcDbPlaceHolder
  3
ObjectDBX Classes
 90
        0
280
     0
281
     0
  0
CLASS
  1
LAYOUT
  2
AcDbLayout
  3
ObjectDBX Classes
 90
        0
280
     0
281
     0
  0
ENDSEC
  0
SECTION
  2
TABLES
  0
TABLE
  2
VPORT
  5
8
330
0
100
AcDbSymbolTable
 70
     1
  0
VPORT
  5
29
330
8
100
AcDbSymbolTableRecord
100
AcDbViewportTableRecord
  2
*Active
 70
     0
 10
0.0
 20
0.0
 11
1.0
 21
1.0
 12
116.875
 22
-111.125
 13
0.0
 23
0.0
 14
10.0
 24
10.0
 15
10.0
 25
10.0
 16
0.0
 26
0.0
 36
1.0
 17
0.0
 27
0.0
 37
0.0
 40
226.695
 41
1.0517435321
 42
50.0
 43
0.0
 44
0.0
 50
0.0
 51
0.0
 71
     0
 72
   100
 73
     1
 74
     3
 75
     0
 76
     0
 77
     0
 78
     0
281
     0
 65
     1
110
0.0
120
0.0
130
0.0
111
1.0
121
0.0
131
0.0
112
0.0
122
1.0
132
0.0
 79
     0
146
0.0
  0
ENDTAB
  0
TABLE
  2
LTYPE
  5
5
330
0
100
AcDbSymbolTable
 70
     6
  0
LTYPE
  5
14
330
5
100
AcDbSymbolTableRecord
100
AcDbLinetypeTableRecord
  2
ByBlock
 70
     0
  3

 72
    65
 73
     0
 40
0.0
  0
LTYPE
  5
15
330
5
100
AcDbSymbolTableRecord
100
AcDbLinetypeTableRecord
  2
ByLayer
 70
     0
  3

 72
    65
 73
     0
 40
0.0
  0
LTYPE
  5
16
330
5
100
AcDbSymbolTableRecord
100
AcDbLinetypeTableRecord
  2
Continuous
 70
     0
  3
Solid line
 72
    65
 73
     0
 40
0.0
  0
LTYPE
  5
5E
330
5
100
AcDbSymbolTableRecord
100
AcDbLinetypeTableRecord
  2
HIDDEN
 70
     0
  3
Hidden __ __ __ __ __ __ __ __ __ __ __ __ __ __
 72
    65
 73
     2
 40
1.905
 49
1.27
 74
     0
 49
-0.635
 74
     0
  0
LTYPE
  5
5F
330
5
100
AcDbSymbolTableRecord
100
AcDbLinetypeTableRecord
  2
PHANTOM
 70
     0
  3
Phantom ______  __  __  ______  __  __  ______
 72
    65
 73
     6
 40
12.7
 49
6.35
 74
     0
 49
-1.27
 74
     0
 49
1.27
 74
     0
 49
-1.27
 74
     0
 49
1.27
 74
     0
 49
-1.27
 74
     0
  0
LTYPE
  5
60
330
5
100
AcDbSymbolTableRecord
100
AcDbLinetypeTableRecord
  2
CENTER
 70
     0
  3
Center ____ _ ____ _ ____ _ ____ _ ____ _ ____
 72
    65
 73
     4
 40
10.16
 49
6.35
 74
     0
 49
-1.27
 74
     0
 49
1.27
 74
     0
 49
-1.27
 74
     0
  0
LTYPE
  5
61
330
5
100
AcDbSymbolTableRecord
100
AcDbLinetypeTableRecord
  2
CENTERX2
 70
     0
  3
Center (2x) ________  __  ________  __  _____
 72
    65
 73
     4
 40
20.32
 49
12.7
 74
     0
 49
-2.54
 74
     0
 49
2.54
 74
     0
 49
-2.54
 74
     0
  0
LTYPE
  5
62
330
5
100
AcDbSymbolTableRecord
100
AcDbLinetypeTableRecord
  2
DOT2
 70
     0
  3
Dot (.5x) ........................................
 72
    65
 73
     2
 40
0.635
 49
0.0
 74
     0
 49
-0.635
 74
     0
  0
ENDTAB
  0
TABLE
  2
LAYER
  5
2
330
0
100
AcDbSymbolTable
 70
     1
  0
LAYER
  5
10
330
2
100
AcDbSymbolTableRecord
100
AcDbLayerTableRecord
  2
0
 70
     0
 62
     7
  6
Continuous
370
    -3
390
F
  0
ENDTAB
  0
TABLE
  2
STYLE
  5
3
330
0
100
AcDbSymbolTable
 70
     2
  0
STYLE
  5
11
330
3
100
AcDbSymbolTableRecord
100
AcDbTextStyleTableRecord
  2
Standard
 70
     0
 40
0.0
 41
1.0
 50
0.0
 71
     0
 42
3.5
  3
txt
  4

  0
STYLE
  5
25E
330
3
100
AcDbSymbolTableRecord
100
AcDbTextStyleTableRecord
  2
SLDTEXTSTYLE0
 70
     0
 40
0.0
 41
0.7
 50
0.0
 71
     0
 42
3.5
  3
TXT
  4

  0
ENDTAB
  0
TABLE
  2
VIEW
  5
6
330
0
100
AcDbSymbolTable
 70
     0
  0
ENDTAB
  0
TABLE
  2
UCS
  5
7
330
0
100
AcDbSymbolTable
 70
     0
  0
ENDTAB
  0
TABLE
  2
APPID
  5
9
330
0
100
AcDbSymbolTable
 70
     1
  0
APPID
  5
12
330
9
100
AcDbSymbolTableRecord
100
AcDbRegAppTableRecord
  2
ACAD
 70
     0
  0
ENDTAB
  0
TABLE
  2
DIMSTYLE
  5
A
330
0
100
AcDbSymbolTable
 70
     1
100
AcDbDimStyleTable
  0
DIMSTYLE
105
27
330
A
100
AcDbSymbolTableRecord
100
AcDbDimStyleTableRecord
  2
ISO-25
 70
     0
 41
2.5
 42
0.625
 43
3.75
 44
1.25
 73
     0
 74
     0
 77
     1
 78
     8
140
2.5
141
2.5
143
0.0393700787
147
0.625
171
     3
172
     1
178
     0
271
     2
272
     2
274
     3
278
    44
283
     0
284
     8
340
11
  0
ENDTAB
  0
TABLE
  2
BLOCK_RECORD
  5
1
330
0
100
AcDbSymbolTable
 70
     1
  0
BLOCK_RECORD
  5
1F
330
1
100
AcDbSymbolTableRecord
100
AcDbBlockTableRecord
  2
*Model_Space
340
22
  0
BLOCK_RECORD
  5
1B
330
1
100
AcDbSymbolTableRecord
100
AcDbBlockTableRecord
  2
*Paper_Space
340
1E
  0
BLOCK_RECORD
  5
23
330
1
100
AcDbSymbolTableRecord
100
AcDbBlockTableRecord
  2
*Paper_Space0
340
26
  0
ENDTAB
  0
ENDSEC
  0
SECTION
  2
BLOCKS
  0
BLOCK
  5
20
330
1F
100
AcDbEntity
  8
0
100
AcDbBlockBegin
  2
*Model_Space
 70
     0
 10
0.0
 20
0.0
 30
0.0
  3
*Model_Space
  1

  0
ENDBLK
  5
21
330
1F
100
AcDbEntity
  8
0
100
AcDbBlockEnd
  0
BLOCK
  5
1C
330
1B
100
AcDbEntity
 67
     1
  8
0
100
AcDbBlockBegin
  2
*Paper_Space
 70
     0
 10
0.0
 20
0.0
 30
0.0
  3
*Paper_Space
  1

  0
ENDBLK
  5
1D
330
1B
100
AcDbEntity
 67
     1
  8
0
100
AcDbBlockEnd
  0
BLOCK
  5
24
330
23
100
AcDbEntity
  8
0
100
AcDbBlockBegin
  2
*Paper_Space0
 70
     0
 10
0.0
 20
0.0
 30
0.0
  3
*Paper_Space0
  1

  0
ENDBLK
  5
25
330
23
100
AcDbEntity
  8
0
100
AcDbBlockEnd
  0
ENDSEC
  0
SECTION
  2
ENTITIES
  0
SPLINE
  5
63
330
1F
100
AcDbEntity
  8
0
  6
Continuous
 62
     7
370
    25
100
AcDbSpline
210
0.0
220
0.0
230
1.0
 70
     8
 71
     3
 72
    23
 73
    19
 74
     0
 42
0.00000001
 43
0.00000001
 40
0.0
 40
0.0
 40
0.0
 40
0.0
 40
0.0847108085239085
 40
0.1621020982666208
 40
0.2301470860921784
 40
0.2899827413600639
 40
0.34148972437492
 40
0.3860163327560123
 40
0.4215250813853107
 40
0.4493108915594302
 40
0.4998966938826105
 40
0.5526518129057099
 40
0.6112968194059807
 40
0.6748202430881399
 40
0.7440600720830828
 40
0.8211965982933356
 40
0.9057911433576952
 40
1.0
 40
1.0
 40
1.0
 40
1.0
 10
22.87708333333542
 20
-202.7033854166664
 30
0.0
 10
22.93567660436552
 20
-202.7025836551666
 30
0.0
 10
23.04780033855938
 20
-202.7010494091394
 30
0.0
 10
23.20699730118837
 20
-202.7000936510184
 30
0.0
 10
23.348950536526
 20
-202.6942083917013
 30
0.0
 10
23.47244042666376
 20
-202.6819390905346
 30
0.0
 10
23.5799242757477
 20
-202.6728032138708
 30
0.0
 10
23.66973208754778
 20
-202.6576614974495
 30
0.0
 10
23.74249861645653
 20
-202.6409799925406
 30
0.0
 10
23.81705822946106
 20
-202.614763763943
 30
0.0
 10
23.89534689177446
 20
-202.567772183371
 30
0.0
 10
23.98327190297303
 20
-202.4974040552353
 30
0.0
 10
24.05909658498487
 20
-202.4022278276682
 30
0.0
 10
24.13177859736616
 20
-202.2914466752063
 30
0.0
 10
24.19404743321688
 20
-202.1594248536335
 30
0.0
 10
24.23536333896442
 20
-202.004482494717
 30
0.0
 10
24.26181089018345
 20
-201.8290015262073
 30
0.0
 10
24.26453626350197
 20
-201.705230484598
 30
0.0
 10
24.26597222222429
 20
-201.6400173611108
 30
0.0
  0
SPLINE
  5
65
330
1F
100
AcDbEntity
  8
0
  6
Continuous
 62
     7
370
    25
100
AcDbSpline
210
0.0
220
0.0
230
1.0
 70
     8
 71
     3
 72
    15
 73
    11
 74
     0
 42
0.00000001
 43
0.00000001
 40
0.0
 40
0.0
 40
0.0
 40
0.0
 40
0.0613943520403137
 40
0.139853862914318
 40
0.2347602763706166
 40
0.3503529954263558
 40
0.484827155322666
 40
0.6382896720196841
 40
0.8083672866041944
 40
0.9999999999999999
 40
0.9999999999999999
 40
0.9999999999999999
 40
0.9999999999999999
 10
15.31197916666875
 20
-202.6230902777776
 30
0.0
 10
15.32916843312325
 20
-202.6301785022031
 30
0.0
 10
15.36832489026356
 20
-202.6463251921537
 30
0.0
 10
15.43854391206209
 20
-202.6583302545505
 30
0.0
 10
15.52401763208683
 20
-202.6757378424108
 30
0.0
 10
15.62802532109304
 20
-202.684522168443
 30
0.0
 10
15.7495088805536
 20
-202.6933837262281
 30
0.0
 10
15.88771919591481
 20
-202.7002911348432
 30
0.0
 10
16.04332111007954
 20
-202.7010155319003
 30
0.0
 10
16.15254845018962
 20
-202.7025646826656
 30
0.0
 10
16.21041666666875
 20
-202.7033854166665
 30
0.0
  0
SPLINE
  5
66
330
1F
100
AcDbEntity
  8
0
  6
Continuous
 62
     7
370
    25
100
AcDbSpline
210
0.0
220
0.0
230
1.0
 70
     8
 71
     3
 72
    11
 73
     7
 74
     0
 42
0.00000001
 43
0.00000001
 40
0.0
 40
0.0
 40
0.0
 40
0.0
 40
0.2322074352791522
 40
0.4697021905392761
 40
0.7270458402700684
 40
0.9999999999999999
 40
0.9999999999999999
 40
0.9999999999999999
 40
0.9999999999999999
 10
14.97126736111319
 20
-202.3279513888887
 30
0.0
 10
14.98964271856026
 20
-202.3584796027218
 30
0.0
 10
15.0268118369154
 20
-202.4202311521218
 30
0.0
 10
15.1063073740179
 20
-202.4992922395393
 30
0.0
 10
15.20156707812743
 20
-202.5687618062389
 30
0.0
 10
15.27445988254898
 20
-202.6046288449183
 30
0.0
 10
15.31197916666875
 20
-202.6230902777776
 30
0.0
  0
SPLINE
  5
67
330
1F
100
AcDbEntity
  8
0
  6
Continuous
 62
     7
370
    25
100
AcDbSpline
210
0.0
220
0.0
230
1.0
 70
     8
 71
     3
 72
    11
 73
     7
 74
     0
 42
0.00000001
 43
0.00000001
 40
0.0
 40
0.0
 40
0.0
 40
0.0
 40
0.2869538933514271
 40
0.5461988668811778
 40
0.7816574622027759
 40
1.0
 40
1.0
 40
1.0
 40
1.0
 10
14.82152777777986
 20
-201.6400173611109
 30
0.0
 10
14.82282692790653
 20
-201.7081343507436
 30
0.0
 10
14.82529977927234
 20
-201.8377907987471
 30
0.0
 10
14.85363871492071
 20
-202.0214845488784
 30
0.0
 10
14.90005960785057
 20
-202.1850002864923
 30
0.0
 10
14.94813587564223
 20
-202.2815144322845
 30
0.0
 10
14.97126736111319
 20
-202.3279513888887
 30
0.0
  0
SPLINE
  5
6D
330
1F
100
AcDbEntity
  8
0
  6
Continuous
 62
     7
370
    25
100
AcDbSpline
210
0.0
220
0.0
230
1.0
 70
     8
 71
     3
 72
    23
 73
    19
 74
     0
 42
0.00000001
 43
0.00000001
 40
0.0
 40
0.0
 40
0.0
 40
0.0
 40
0.0846127534506953
 40
0.1619144606629858
 40
0.2298806845577127
 40
0.2895648750439985
 40
0.3420514708676078
 40
0.385496567400464
 40
0.4217551846928428
 40
0.4495088320332194
 40
0.4986124906573464
 40
0.5519752119292868
 40
0.6097553304323378
 40
0.6732052240175773
 40
0.7433128260372209
 40
0.8203600646127931
 40
0.9048566891820674
 40
1.0
 40
1.0
 40
1.0
 40
1.0
 10
16.21041666666878
 20
-205.0644965277776
 30
0.0
 10
16.15182520409858
 20
-205.0653250048051
 30
0.0
 10
16.03970493056277
 20
-205.0669103735068
 30
0.0
 10
15.88048467492817
 20
-205.0675220350078
 30
0.0
 10
15.73866210150907
 20
-205.0744943988688
 30
0.0
 10
15.61428486089485
 20
-205.0834652618878
 30
0.0
 10
15.50670604450187
 20
-205.0922149740523
 30
0.0
 10
15.41682076910417
 20
-205.1095681515905
 30
0.0
 10
15.34316943289654
 20
-205.1216683963881
 30
0.0
 10
15.26938882042832
 20
-205.1489146599307
 30
0.0
 10
15.1903360553914
 20
-205.1935287321304
 30
0.0
 10
15.10579005838147
 20
-205.266376268091
 30
0.0
 10
15.02754634152242
 20
-205.3590426929401
 30
0.0
 10
14.95530512350304
 20
-205.4705450214269
 30
0.0
 10
14.89394004890179
 20
-205.6035956276696
 30
0.0
 10
14.85203933432902
 20
-205.759023685875
 30
0.0
 10
14.82561053926369
 20
-205.9352676757314
 30
0.0
 10
14.82294142817603
 20
-206.0597594447894
 30
0.0
 10
14.8215277777799
 20
-206.1256944444443
 30
0.0
  0
SPLINE
  5
6F
330
1F
100
AcDbEntity
  8
0
  6
Continuous
 62
     7
370
    25
100
AcDbSpline
210
0.0
220
0.0
230
1.0
 70
     8
 71
     3
 72
    15
 73
    11
 74
     0
 42
0.00000001
 43
0.00000001
 40
0.0
 40
0.0
 40
0.0
 40
0.0
 40
0.0613929564847343
 40
0.1375125657304111
 40
0.2347752365658242
 40
0.3503653280824181
 40
0.4848364312453896
 40
0.6359029609429124
 40
0.8083716426091322
 40
1.0
 40
1.0
 40
1.0
 40
1.0
 10
23.77552083333545
 20
-205.1447916666664
 30
0.0
 10
23.75832518527692
 20
-205.137736003153
 30
0.0
 10
23.71980907822946
 20
-205.1219321968501
 30
0.0
 10
23.64979865052094
 20
-205.1089614468197
 30
0.0
 10
23.56414226214332
 20
-205.0924767159744
 30
0.0
 10
23.45949220308487
 20
-205.083262170383
 30
0.0
 10
23.33870474087687
 20
-205.0746073406729
 30
0.0
 10
23.20050971629779
 20
-205.0674866850405
 30
0.0
 10
23.04490070510723
 20
-205.0669078205142
 30
0.0
 10
22.93495106351268
 20
-205.0653280033035
 30
0.0
 10
22.87708333333543
 20
-205.0644965277775
 30
0.0
  0
SPLINE
  5
70
330
1F
100
AcDbEntity
  8
0
  6
Continuous
 62
     7
370
    25
100
AcDbSpline
210
0.0
220
0.0
230
1.0
 70
     8
 71
     3
 72
    11
 73
     7
 74
     0
 42
0.00000001
 43
0.00000001
 40
0.0
 40
0.0
 40
0.0
 40
0.0
 40
0.2333588799629157
 40
0.4720312980873994
 40
0.7278840296407114
 40
1.0
 40
1.0
 40
1.0
 40
1.0
 10
24.116232638891
 20
-205.4355902777775
 30
0.0
 10
24.09783437853218
 20
-205.4050917536209
 30
0.0
 10
24.06061893285852
 20
-205.3434002596025
 30
0.0
 10
23.98178651791075
 20
-205.2641692193754
 30
0.0
 10
23.88569077644656
 20
-205.1970269972433
 30
0.0
 10
23.81299061873826
 20
-205.1625573709219
 30
0.0
 10
23.77552083333545
 20
-205.1447916666664
 30
0.0
  0
SPLINE
  5
71
330
1F
100
AcDbEntity
  8
0
  6
Continuous
 62
     7
370
    25
100
AcDbSpline
210
0.0
220
0.0
230
1.0
 70
     8
 71
     3
 72
    11
 73
     7
 74
     0
 42
0.00000001
 43
0.00000001
 40
0.0
 40
0.0
 40
0.0
 40
0.0
 40
0.2861169829655624
 40
0.5446058600775356
 40
0.7822942653331488
 40
1.0
 40
1.0
 40
1.0
 40
1.0
 10
24.26597222222435
 20
-206.1256944444442
 30
0.0
 10
24.26469967798524
 20
-206.0575697099925
 30
0.0
 10
24.26227746926961
 20
-205.9278985202082
 30
0.0
 10
24.2334898330361
 20
-205.7436171084094
 30
0.0
 10
24.18789898140755
 20
-205.5791220621807
 30
0.0
 10
24.13941222090767
 20
-205.4820138380115
 30
0.0
 10
24.116232638891
 20
-205.4355902777775
 30
0.0
  0
SPLINE
  5
77
330
1F
100
AcDbEntity
  8
0
  6
Continuous
 62
     7
370
    25
100
AcDbSpline
210
0.0
220
0.0
230
1.0
 70
     8
 71
     3
 72
    23
 73
    19
 74
     0
 42
0.00000001
 43
0.00000001
 40
0.0
 40
0.0
 40
0.0
 40
0.0
 40
0.0772740429355651
 40
0.1489068334384735
 40
0.2145354337408183
 40
0.2746709045500093
 40
0.3289657450156389
 40
0.3779368581410071
 40
0.4218454361781533
 40
0.460591460108122
 40
0.5320763300004235
 40
0.6009103492006824
 40
0.6690791965011417
 40
0.7380620254287791
 40
0.8060085130787187
 40
0.8713327347706138
 40
0.9355590351054283
 40
1.0
 40
1.0
 40
1.0
 40
1.0
 10
103.7486979166668
 20
-14.54374999999893
 30
0.0
 10
103.8861591507883
 20
-14.5442903752139
 30
0.0
 10
104.1510465090265
 20
-14.54533167652382
 30
0.0
 10
104.532372636835
 20
-14.56137913313893
 30
0.0
 10
104.8828342901573
 20
-14.58381698297281
 30
0.0
 10
105.201326848414
 20
-14.61853940911217
 30
0.0
 10
105.4888745601577
 20
-14.66147281935758
 30
0.0
 10
105.7457365560833
 20
-14.71254765344322
 30
0.0
 10
105.9720668212294
 20
-14.77380826331119
 30
0.0
 10
106.2282337970411
 20
-14.87253589753247
 30
0.0
 10
106.5116051751114
 20
-15.02027559318216
 30
0.0
 10
106.8156878825862
 20
-15.23464610301239
 30
0.0
 10
107.0810152542402
 20
-15.48935560882996
 30
0.0
 10
107.3051503958951
 20
-15.77881364698679
 30
0.0
 10
107.4840541418443
 20
-16.0921526140803
 30
0.0
 10
107.6176623914243
 20
-16.41821596607954
 30
0.0
 10
107.6957167180622
 20
-16.75652325152478
 30
0.0
 10
107.7061474570966
 20
-16.98549615410144
 30
0.0
 10
107.7113715277779
 20
-17.10017361110999
 30
0.0
  0
SPLINE
  5
7A
330
1F
100
AcDbEntity
  8
0
  6
Continuous
 62
     7
370
    25
100
AcDbSpline
210
0.0
220
0.0
230
1.0
 70
     8
 71
     3
 72
    23
 73
    19
 74
     0
 42
0.00000001
 43
0.00000001
 40
0.0
 40
0.0
 40
0.0
 40
0.0
 40
0.0751027899077463
 40
0.1438904249901008
 40
0.2045719078510323
 40
0.2581457033214964
 40
0.3047224763870781
 40
0.3442959292036856
 40
0.3769936926763254
 40
0.4033725465632129
 40
0.4493122213000898
 40
0.4973341814424923
 40
0.548364501713523
 40
0.6038228661065047
 40
0.6707771206718857
 40
0.7579424641389543
 40
0.8678731809825148
 40
1.0
 40
1.0
 40
1.0
 40
1.0
 10
100.3567708333335
 20
-16.21041666666563
 30
0.0
 10
100.3562371185769
 20
-16.15037275260782
 30
0.0
 10
100.3552145674409
 20
-16.03533382632478
 30
0.0
 10
100.3507913503585
 20
-15.87183398007504
 30
0.0
 10
100.3450523248267
 20
-15.72558719795604
 30
0.0
 10
100.334622663241
 20
-15.5973705373454
 30
0.0
 10
100.3193718096477
 20
-15.48663776930659
 30
0.0
 10
100.3021563021555
 20
-15.39321611947987
 30
0.0
 10
100.2841647812112
 20
-15.31622944617432
 30
0.0
 10
100.2522670699549
 20
-15.23822630173943
 30
0.0
 10
100.1999055509272
 20
-15.15671871928168
 30
0.0
 10
100.1209320814555
 20
-15.07104027606743
 30
0.0
 10
100.0212115165419
 20
-14.99709867674009
 30
0.0
 10
99.89863387811168
 20
-14.93134306017216
 30
0.0
 10
99.73903702781215
 20
-14.87702802425021
 30
0.0
 10
99.52928137027388
 20
-14.84822951049704
 30
0.0
 10
99.26727031068535
 20
-14.82254860535009
 30
0.0
 10
99.07359783546592
 20
-14.82188823833122
 30
0.0
 10
98.96788194444456
 20
-14.82152777777675
 30
0.0
  0
SPLINE
  5
7C
330
1F
100
AcDbEntity
  8
0
  6
Continuous
 62
     7
370
    25
100
AcDbSpline
210
0.0
220
0.0
230
1.0
 70
     8
 71
     3
 72
    23
 73
    19
 74
     0
 42
0.00000001
 43
0.00000001
 40
0.0
 40
0.0
 40
0.0
 40
0.0
 40
0.1331913269605179
 40
0.2441563708751238
 40
0.3315815048025419
 40
0.3989154917806934
 40
0.4540846815903486
 40
0.5044565351490486
 40
0.551874561197157
 40
0.5978694577043706
 40
0.6234433805245932
 40
0.6561804483326547
 40
0.6949112320641966
 40
0.7415439927239428
 40
0.7951821865569656
 40
0.8559366115736552
 40
0.9248069328092813
 40
1.0
 40
1.0
 40
1.0
 40
1.0
 10
98.96788194444466
 20
-24.2659722222212
 30
0.0
 10
99.07430454340336
 20
-24.26550071610959
 30
0.0
 10
99.26939048581278
 20
-24.2646363863992
 30
0.0
 10
99.53315632398785
 20
-24.24020698340727
 30
0.0
 10
99.74353866896867
 20
-24.20828916685336
 30
0.0
 10
99.90280445461151
 20
-24.15256233405126
 30
0.0
 10
100.0231631581475
 20
-24.08383652233685
 30
0.0
 10
100.1203020571563
 20
-24.00929573915336
 30
0.0
 10
100.2007962910384
 20
-23.92647633081671
 30
0.0
 10
100.2513803048372
 20
-23.84525419309339
 30
0.0
 10
100.2847231953923
 20
-23.76861847477198
 30
0.0
 10
100.3017501561982
 20
-23.69272831923359
 30
0.0
 10
100.3197055967579
 20
-23.60021355973514
 30
0.0
 10
100.3345432363406
 20
-23.49011067227799
 30
0.0
 10
100.3450780686834
 20
-23.36191889238034
 30
0.0
 10
100.350783070956
 20
-23.21566406122785
 30
0.0
 10
100.3552169776858
 20
-23.05216674387546
 30
0.0
 10
100.3562379451602
 20
-22.93712744293856
 30
0.0
 10
100.3567708333335
 20
-22.8770833333323
 30
0.0
  0
SPLINE
  5
7F
330
1F
100
AcDbEntity
  8
0
  6
Continuous
 62
     7
370
    25
100
AcDbSpline
210
0.0
220
0.0
230
1.0
 70
     8
 71
     3
 72
    15
 73
    11
 74
     0
 42
0.00000001
 43
0.00000001
 40
0.0
 40
0.0
 40
0.0
 40
0.0
 40
0.1055632026566013
 40
0.2143223986051253
 40
0.3277635891249817
 40
0.4472854225172638
 40
0.5738724581817599
 40
0.7071859688919979
 40
0.8490331412233435
 40
1.0
 40
1.0
 40
1.0
 40
1.0
 10
107.2274305555558
 20
-23.6648437499989
 30
0.0
 10
107.1313184688829
 20
-23.73593734641972
 30
0.0
 10
106.9361844408099
 20
-23.8802769432387
 30
0.0
 10
106.6085633184322
 20
-24.05614775169737
 30
0.0
 10
106.2533026653266
 20
-24.20948446372925
 30
0.0
 10
105.8648906594071
 20
-24.33249721598807
 30
0.0
 10
105.4456686011793
 20
-24.42626556604528
 30
0.0
 10
104.9962817604212
 20
-24.49589598278517
 30
0.0
 10
104.5155402576532
 20
-24.53728959687399
 30
0.0
 10
104.1842559408362
 20
-24.54155227858182
 30
0.0
 10
104.0134548611113
 20
-24.54374999999892
 30
0.0
  0
SPLINE
  5
80
330
1F
100
AcDbEntity
  8
0
  6
Continuous
 62
     7
370
    25
100
AcDbSpline
210
0.0
220
0.0
230
1.0
 70
     8
 71
     3
 72
    15
 73
    11
 74
     0
 42
0.00000001
 43
0.00000001
 40
0.0
 40
0.0
 40
0.0
 40
0.0
 40
0.128026411716027
 40
0.2524838009045979
 40
0.3736171808661198
 40
0.4946511595679153
 40
0.6155813281051986
 40
0.7385582878530284
 40
0.8666990964366622
 40
1.0
 40
1.0
 40
1.0
 40
1.0
 10
108.1280381944446
 20
-21.82673611110999
 30
0.0
 10
108.1260294246107
 20
-21.91736397810003
 30
0.0
 10
108.1220678838941
 20
-22.09609325761988
 30
0.0
 10
108.0759507700135
 20
-22.35702434614127
 30
0.0
 10
108.00787597376
 20
-22.60769117220553
 30
0.0
 10
107.9063742481657
 20
-22.84430190043539
 30
0.0
 10
107.7802370284078
 20
-23.07000752383166
 30
0.0
 10
107.6239138522087
 20
-23.28238513765875
 30
0.0
 10
107.438853697081
 20
-23.48236507544332
 30
0.0
 10
107.2988261806488
 20
-23.60322240172989
 30
0.0
 10
107.2274305555558
 20
-23.66484374999889
 30
0.0
  0
SPLINE
  5
81
330
1F
100
AcDbEntity
  8
0
  6
Continuous
 62
     7
370
    25
100
AcDbSpline
210
0.0
220
0.0
230
1.0
 70
     8
 71
     3
 72
    15
 73
    11
 74
     0
 42
0.00000001
 43
0.00000001
 40
0.0
 40
0.0
 40
0.0
 40
0.0
 40
0.1294622447289021
 40
0.2551333042247627
 40
0.3769254708172152
 40
0.4979634990961942
 40
0.6194272549426261
 40
0.7423294541245573
 40
0.8690135349851433
 40
1.0
 40
1.0
 40
1.0
 40
1.0
 10
107.3294270833335
 20
-20.11232638888778
 30
0.0
 10
107.3929285704028
 20
-20.16814115216214
 30
0.0
 10
107.518071960687
 20
-20.27813619363951
 30
0.0
 10
107.6807353849788
 20
-20.46357090237445
 30
0.0
 10
107.8190351788604
 20
-20.66073964120432
 30
0.0
 10
107.9332130732876
 20
-20.86996129256881
 30
0.0
 10
108.019346068595
 20
-21.09287430766339
 30
0.0
 10
108.0833573419282
 20
-21.32680562311019
 30
0.0
 10
108.120211148905
 20
-21.57310898010488
 30
0.0
 10
108.1254002977953
 20
-21.74125786064405
 30
0.0
 10
108.1280381944446
 20
-21.82673611110999
 30
0.0
  0
SPLINE
  5
82
330
1F
100
AcDbEntity
  8
0
  6
Continuous
 62
     7
370
    25
100
AcDbSpline
210
0.0
220
0.0
230
1.0
 70
     8
 71
     3
 72
    15
 73
    11
 74
     0
 42
0.00000001
 43
0.00000001
 40
0.0
 40
0.0
 40
0.0
 40
0.0
 40
0.162734812503245
 40
0.3128025237949034
 40
0.4529508076830787
 40
0.5831133605067316
 40
0.7012633089002376
 40
0.8105191133431915
 40
0.909506298757554
 40
1.0
 40
1.0
 40
1.0
 40
1.0
 10
105.3958333333335
 20
-19.32022569444335
 30
0.0
 10
105.5066626250795
 20
-19.34784436492189
 30
0.0
 10
105.7196943767698
 20
-19.40093189853966
 30
0.0
 10
106.0257300567297
 20
-19.48732477362507
 30
0.0
 10
106.3057057208149
 20
-19.58077715185451
 30
0.0
 10
106.5605514148402
 20
-19.67774924213175
 30
0.0
 10
106.7913370902244
 20
-19.7769192557688
 30
0.0
 10
106.994000411412
 20
-19.88381571413916
 30
0.0
 10
107.1752679340184
 20
-19.99011453287676
 30
0.0
 10
107.2795995896792
 20
-20.07282493531255
 30
0.0
 10
107.3294270833335
 20
-20.11232638888778
 30
0.0
  0
SPLINE
  5
83
330
1F
100
AcDbEntity
  8
0
  6
Continuous
 62
     7
370
    25
100
AcDbSpline
210
0.0
220
0.0
230
1.0
 70
     8
 71
     3
 72
    23
 73
    19
 74
     0
 42
0.00000001
 43
0.00000001
 40
0.0
 40
0.0
 40
0.0
 40
0.0
 40
0.0523562629078048
 40
0.1032484071602174
 40
0.1536930299746413
 40
0.2037016295887716
 40
0.254146252403197
 40
0.3057305812788655
 40
0.3585732041521028
 40
0.4125408046849744
 40
0.4697710843717466
 40
0.5299591522658181
 40
0.5947138085367891
 40
0.6652225774022281
 40
0.7398832773247889
 40
0.8209267982148117
 40
0.9075531830308393
 40
1.0
 40
1.0
 40
1.0
 40
1.0
 10
107.7113715277779
 20
-17.10017361110999
 30
0.0
 10
107.7096267310109
 20
-17.16102539625507
 30
0.0
 10
107.7061859299107
 20
-17.2810272745432
 30
0.0
 10
107.6811143390984
 20
-17.45813262534601
 30
0.0
 10
107.6432686974932
 20
-17.63015346950453
 30
0.0
 10
107.5852654455821
 20
-17.79593779032089
 30
0.0
 10
107.5140012264324
 20
-17.95784014777058
 30
0.0
 10
107.4239180436747
 20
-18.11395417136733
 30
0.0
 10
107.3199322598641
 20
-18.2659894997695
 30
0.0
 10
107.1990980117748
 20
-18.41377077670012
 30
0.0
 10
107.0579170410253
 20
-18.55466298777066
 30
0.0
 10
106.8935226077916
 20
-18.68871585449802
 30
0.0
 10
106.7020170358061
 20
-18.81130100770002
 30
0.0
 10
106.4891681475455
 20
-18.93084649071654
 30
0.0
 10
106.2490731042654
 20
-19.03838718245923
 30
0.0
 10
105.9875440141369
 20
-19.14285817161801
 30
0.0
 10
105.7005270526132
 20
-19.23828120354328
 30
0.0
 10
105.4995750928808
 20
-19.29232533046052
 30
0.0
 10
105.3958333333335
 20
-19.32022569444335
 30
0.0
  0
SPLINE
  5
84
330
1F
100
AcDbEntity
  8
0
  6
Continuous
 62
     7
370
    25
100
AcDbSpline
210
0.0
220
0.0
230
1.0
 70
     8
 71
     3
 72
    11
 73
     7
 74
     0
 42
0.00000001
 43
0.00000001
 40
0.0
 40
0.0
 40
0.0
 40
0.0
 40
0.1823673005486106
 40
0.4097149169913213
 40
0.6826089489130944
 40
1.0
 40
1.0
 40
1.0
 40
1.0
 10
199.2463541666669
 20
-24.45477430555349
 30
0.0
 10
199.1618622899924
 20
-24.46888998855591
 30
0.0
 10
198.972038883417
 20
-24.50060294297381
 30
0.0
 10
198.6521608040358
 20
-24.52581781878488
 30
0.0
 10
198.2684800514489
 20
-24.53950711198666
 30
0.0
 10
197.9913075174988
 20
-24.54226637094242
 30
0.0
 10
197.8422743055557
 20
-24.54374999999795
 30
0.0
  0
SPLINE
  5
85
330
1F
100
AcDbEntity
  8
0
  6
Continuous
 62
     7
370
    25
100
AcDbSpline
210
0.0
220
0.0
230
1.0
 70
     8
 71
     3
 72
    23
 73
    19
 74
     0
 42
0.00000001
 43
0.00000001
 40
0.0
 40
0.0
 40
0.0
 40
0.0
 40
0.0733334157616626
 40
0.1443945605969492
 40
0.2134145334731457
 40
0.281075466774083
 40
0.3466016705700747
 40
0.4087153359320025
 40
0.4678004628818727
 40
0.5246389750931034
 40
0.5801488773807582
 40
0.6350165287779992
 40
0.6897492850329594
 40
0.7447377144253358
 40
0.8020643478393885
 40
0.8636101092890394
 40
0.9294105428894657
 40
1.0
 40
1.0
 40
1.0
 40
1.0
 10
203.3978298611112
 20
-19.57413194444234
 30
0.0
 10
203.3936611032224
 20
-19.74650050025548
 30
0.0
 10
203.3854527583996
 20
-20.08589668982149
 30
0.0
 10
203.3206308636145
 20
-20.58401238559457
 30
0.0
 10
203.2182495845083
 20
-21.06203204573053
 30
0.0
 10
203.0689798199784
 20
-21.51390211095293
 30
0.0
 10
202.8910261174388
 20
-21.93746182777015
 30
0.0
 10
202.6843626091091
 20
-22.32516338877473
 30
0.0
 10
202.4546684604236
 20
-22.67573565809686
 30
0.0
 10
202.1957458055023
 20
-22.98541617945352
 30
0.0
 10
201.9159976017341
 20
-23.26191448593721
 30
0.0
 10
201.6182530952183
 20
-23.51157650055581
 30
0.0
 10
201.2972759312017
 20
-23.72835108364403
 30
0.0
 10
200.9543151851915
 20
-23.92036142132457
 30
0.0
 10
200.5799815236653
 20
-24.08510868377464
 30
0.0
 10
200.1719109629968
 20
-24.23377845979084
 30
0.0
 10
199.7225648731347
 20
-24.35576932498222
 30
0.0
 10
199.4087638736912
 20
-24.42100906325602
 30
0.0
 10
199.2463541666669
 20
-24.45477430555349
 30
0.0
  0
SPLINE
  5
86
330
1F
100
AcDbEntity
  8
0
  6
Continuous
 62
     7
370
    25
100
AcDbSpline
210
0.0
220
0.0
230
1.0
 70
     8
 71
     3
 72
    23
 73
    19
 74
     0
 42
0.00000001
 43
0.00000001
 40
0.0
 40
0.0
 40
0.0
 40
0.0
 40
0.0639411909875667
 40
0.1266699200937762
 40
0.1878379402974036
 40
0.2481146633875014
 40
0.3083926318001139
 40
0.3685347082817921
 40
0.4292135785360748
 40
0.4906167670055071
 40
0.5526596526280151
 40
0.6144260685577277
 40
0.6763296610795917
 40
0.7391325390592735
 40
0.8025929446711474
 40
0.8668141004429277
 40
0.9325531829934056
 40
1.0
 40
1.0
 40
1.0
 40
1.0
 10
200.7046875000001
 20
-15.02986111110903
 30
0.0
 10
200.8126992559194
 20
-15.08084696096025
 30
0.0
 10
201.026674633609
 20
-15.18185185978708
 30
0.0
 10
201.3273638588714
 20
-15.36342156778316
 30
0.0
 10
201.6085891316785
 20
-15.56158664113581
 30
0.0
 10
201.8714155224369
 20
-15.77681427156739
 30
0.0
 10
202.1115828387766
 20
-16.014307928764
 30
0.0
 10
202.334302040345
 20
-16.26906239382738
 30
0.0
 10
202.536977267898
 20
-16.5428888776102
 30
0.0
 10
202.7159592597763
 20
-16.83677331394186
 30
0.0
 10
202.8761599992584
 20
-17.1435183014733
 30
0.0
 10
203.0144363534658
 20
-17.46166676546287
 30
0.0
 10
203.1364194217905
 20
-17.78809906660127
 30
0.0
 10
203.2293317200944
 20
-18.1271892587956
 30
0.0
 10
203.3074232021559
 20
-18.47438873400949
 30
0.0
 10
203.3574820996565
 20
-18.832271694003
 30
0.0
 10
203.3920130414407
 20
-19.19946646293408
 30
0.0
 10
203.3958744174598
 20
-19.44818043163432
 30
0.0
 10
203.3978298611112
 20
-19.57413194444234
 30
0.0
  0
SPLINE
  5
87
330
1F
100
AcDbEntity
  8
0
  6
Continuous
 62
     7
370
    25
100
AcDbSpline
210
0.0
220
0.0
230
1.0
 70
     8
 71
     3
 72
    15
 73
    11
 74
     0
 42
0.00000001
 43
0.00000001
 40
0.0
 40
0.0
 40
0.0
 40
0.0
 40
0.1484883489192777
 40
0.2897192813194125
 40
0.4232598885552213
 40
0.5507010776386247
 40
0.6718200544540444
 40
0.7866813982641804
 40
0.8960683342418877
 40
1.0
 40
1.0
 40
1.0
 40
1.0
 10
197.8422743055556
 20
-14.54374999999794
 30
0.0
 10
197.9869656075618
 20
-14.54578813048361
 30
0.0
 10
198.2692763769623
 20
-14.54976477716223
 30
0.0
 10
198.681456393729
 20
-14.56984636212998
 30
0.0
 10
199.071384165678
 20
-14.61065302986483
 30
0.0
 10
199.4406178588694
 20
-14.66017024244116
 30
0.0
 10
199.7877954696826
 20
-14.73111742591395
 30
0.0
 10
200.1147022222299
 20
-14.81178010276327
 30
0.0
 10
200.4190146151729
 20
-14.91145989497033
 30
0.0
 10
200.6111006323939
 20
-14.99107269425981
 30
0.0
 10
200.7046875000001
 20
-15.02986111110903
 30
0.0
  0
SPLINE
  5
8B
330
1F
100
AcDbEntity
  8
0
  6
Continuous
 62
     7
370
    25
100
AcDbSpline
210
0.0
220
0.0
230
1.0
 70
     8
 71
     3
 72
    23
 73
    19
 74
     0
 42
0.00000001
 43
0.00000001
 40
0.0
 40
0.0
 40
0.0
 40
0.0
 40
0.0846127534506959
 40
0.1619144606629868
 40
0.2298806845577142
 40
0.2895648750440004
 40
0.3420514708676114
 40
0.3854965674004656
 40
0.4217551846928447
 40
0.449508832033226
 40
0.4986124906573532
 40
0.5519752119292853
 40
0.6097553304323368
 40
0.6732052240175879
 40
0.743312826037232
 40
0.8203600646127919
 40
0.9048566891820667
 40
1.0
 40
1.0
 40
1.0
 40
1.0
 10
194.7867187500001
 20
-16.21041666666465
 30
0.0
 10
194.7858902729726
 20
-16.15182520409444
 30
0.0
 10
194.7843049042709
 20
-16.03970493055863
 30
0.0
 10
194.7836932427701
 20
-15.88048467492405
 30
0.0
 10
194.7767208789089
 20
-15.73866210150494
 30
0.0
 10
194.76775001589
 20
-15.61428486089071
 30
0.0
 10
194.7590003037252
 20
-15.50670604449775
 30
0.0
 10
194.7416471261873
 20
-15.41682076910003
 30
0.0
 10
194.7295468813896
 20
-15.34316943289241
 30
0.0
 10
194.702300617847
 20
-15.26938882042418
 30
0.0
 10
194.6576865456473
 20
-15.19033605538728
 30
0.0
 10
194.5848390096866
 20
-15.10579005837734
 30
0.0
 10
194.4921725848377
 20
-15.02754634151827
 30
0.0
 10
194.3806702563508
 20
-14.95530512349891
 30
0.0
 10
194.247619650108
 20
-14.89394004889767
 30
0.0
 10
194.0921915919027
 20
-14.85203933432489
 30
0.0
 10
193.9159476020464
 20
-14.82561053925956
 30
0.0
 10
193.7914558329883
 20
-14.82294142817189
 30
0.0
 10
193.7255208333334
 20
-14.82152777777576
 30
0.0
  0
SPLINE
  5
8D
330
1F
100
AcDbEntity
  8
0
  6
Continuous
 62
     7
370
    25
100
AcDbSpline
210
0.0
220
0.0
230
1.0
 70
     8
 71
     3
 72
    15
 73
    11
 74
     0
 42
0.00000001
 43
0.00000001
 40
0.0
 40
0.0
 40
0.0
 40
0.0
 40
0.0554432834557935
 40
0.1289155202872624
 40
0.2233411918792566
 40
0.3368493096136133
 40
0.4715270007754181
 40
0.6276993632822012
 40
0.8030757545929439
 40
1.0
 40
1.0
 40
1.0
 40
1.0
 10
194.7216145833335
 20
-23.77552083333131
 30
0.0
 10
194.7270302687944
 20
-23.75970304363019
 30
0.0
 10
194.7396227031772
 20
-23.72292386205913
 30
0.0
 10
194.751546827261
 20
-23.65649200061447
 30
0.0
 10
194.7613042840934
 20
-23.57234353106416
 30
0.0
 10
194.7734593341179
 20
-23.46980071049393
 30
0.0
 10
194.7786098607045
 20
-23.34803690683924
 30
0.0
 10
194.7823214794168
 20
-23.2076751099673
 30
0.0
 10
194.7880363728411
 20
-23.04856048005123
 30
0.0
 10
194.7871745836993
 20
-22.93640612258872
 30
0.0
 10
194.7867187500002
 20
-22.87708333333131
 30
0.0
  0
SPLINE
  5
8E
330
1F
100
AcDbEntity
  8
0
  6
Continuous
 62
     7
370
    25
100
AcDbSpline
210
0.0
220
0.0
230
1.0
 70
     8
 71
     3
 72
    15
 73
    11
 74
     0
 42
0.00000001
 43
0.00000001
 40
0.0
 40
0.0
 40
0.0
 40
0.0
 40
0.1714445047461542
 40
0.3219985820281047
 40
0.4555884241973919
 40
0.5750918440550319
 40
0.6854300745917739
 40
0.7897474052851801
 40
0.8944542233223521
 40
1.0
 40
1.0
 40
1.0
 40
1.0
 10
193.7255208333335
 20
-24.26597222222021
 30
0.0
 10
193.7928738749031
 20
-24.26433456513243
 30
0.0
 10
193.9193730234923
 20
-24.26125879865687
 30
0.0
 10
194.097174881236
 20
-24.23810330321302
 30
0.0
 10
194.2513130488429
 20
-24.19825351706699
 30
0.0
 10
194.3815516964029
 20
-24.13827662285069
 30
0.0
 10
194.4918178001329
 20
-24.06608041358226
 30
0.0
 10
194.5846742370925
 20
-23.98131237286987
 30
0.0
 10
194.6650478654284
 20
-23.88632478929355
 30
0.0
 10
194.7027089184655
 20
-23.8125536069312
 30
0.0
 10
194.7216145833335
 20
-23.77552083333131
 30
0.0
  0
SPLINE
  5
95
330
1F
100
AcDbEntity
  8
0
  6
Continuous
 62
     7
370
    25
100
AcDbSpline
210
0.0
220
0.0
230
1.0
 70
     8
 71
     3
 72
    11
 73
     7
 74
     0
 42
0.00000001
 43
0.00000001
 40
0.0
 40
0.0
 40
0.0
 40
0.0
 40
0.2861169829655843
 40
0.5446058600775597
 40
0.782294265333147
 40
1.0
 40
1.0
 40
1.0
 40
1.0
 10
24.26597222222275
 20
-54.08472222222197
 30
0.0
 10
24.26469967798364
 20
-54.15284695667367
 30
0.0
 10
24.26227746926802
 20
-54.2825181464579
 30
0.0
 10
24.23348983303451
 20
-54.46679955825677
 30
0.0
 10
24.18789898140597
 20
-54.63129460448542
 30
0.0
 10
24.13941222090608
 20
-54.72840282865457
 30
0.0
 10
24.11623263888943
 20
-54.77482638888866
 30
0.0
  0
SPLINE
  5
96
330
1F
100
AcDbEntity
  8
0
  6
Continuous
 62
     7
370
    25
100
AcDbSpline
210
0.0
220
0.0
230
1.0
 70
     8
 71
     3
 72
    11
 73
     7
 74
     0
 42
0.00000001
 43
0.00000001
 40
0.0
 40
0.0
 40
0.0
 40
0.0
 40
0.2333588799629273
 40
0.4720312980874316
 40
0.7278840296407335
 40
1.0
 40
1.0
 40
1.0
 40
1.0
 10
24.11623263888941
 20
-54.77482638888865
 30
0.0
 10
24.0978343785306
 20
-54.80532491304523
 30
0.0
 10
24.06061893285692
 20
-54.86701640706364
 30
0.0
 10
23.98178651790918
 20
-54.94624744729075
 30
0.0
 10
23.88569077644501
 20
-55.0133896694229
 30
0.0
 10
23.81299061873668
 20
-55.04785929574423
 30
0.0
 10
23.77552083333387
 20
-55.06562499999976
 30
0.0
  0
SPLINE
  5
97
330
1F
100
AcDbEntity
  8
0
  6
Continuous
 62
     7
370
    25
100
AcDbSpline
210
0.0
220
0.0
230
1.0
 70
     8
 71
     3
 72
    15
 73
    11
 74
     0
 42
0.00000001
 43
0.00000001
 40
0.0
 40
0.0
 40
0.0
 40
0.0
 40
0.061392956484742
 40
0.1375125657304183
 40
0.2347752365658268
 40
0.3503653280824224
 40
0.4848364312453929
 40
0.6359029609429149
 40
0.8083716426091333
 40
1.0
 40
1.0
 40
1.0
 40
1.0
 10
23.77552083333387
 20
-55.06562499999976
 30
0.0
 10
23.75832518527533
 20
-55.0726806635131
 30
0.0
 10
23.71980907822789
 20
-55.08848446981607
 30
0.0
 10
23.64979865051938
 20
-55.10145521984645
 30
0.0
 10
23.56414226214174
 20
-55.11793995069166
 30
0.0
 10
23.4594922030833
 20
-55.1271544962832
 30
0.0
 10
23.33870474087531
 20
-55.13580932599324
 30
0.0
 10
23.20050971629621
 20
-55.14292998162567
 30
0.0
 10
23.04490070510566
 20
-55.14350884615202
 30
0.0
 10
22.93495106351109
 20
-55.14508866336268
 30
0.0
 10
22.87708333333387
 20
-55.14592013888865
 30
0.0
  0
SPLINE
  5
99
330
1F
100
AcDbEntity
  8
0
  6
Continuous
 62
     7
370
    25
100
AcDbSpline
210
0.0
220
0.0
230
1.0
 70
     8
 71
     3
 72
    23
 73
    19
 74
     0
 42
0.00000001
 43
0.00000001
 40
0.0
 40
0.0
 40
0.0
 40
0.0
 40
0.0846127534506955
 40
0.1619144606629829
 40
0.2298806845577117
 40
0.2895648750439977
 40
0.3420514708676082
 40
0.3854965674004628
 40
0.4217551846928418
 40
0.4495088320332219
 40
0.4986124906573489
 40
0.551975211929283
 40
0.6097553304323343
 40
0.6732052240175824
 40
0.7433128260372264
 40
0.8203600646127891
 40
0.9048566891820637
 40
1.0
 40
1.0
 40
1.0
 40
1.0
 10
16.2104166666672
 20
-55.14592013888873
 30
0.0
 10
16.151825204097
 20
-55.14509166186118
 30
0.0
 10
16.03970493056119
 20
-55.14350629315948
 30
0.0
 10
15.88048467492659
 20
-55.14289463165865
 30
0.0
 10
15.73866210150751
 20
-55.13592226779758
 30
0.0
 10
15.61428486089327
 20
-55.12695140477858
 30
0.0
 10
15.50670604450032
 20
-55.11820169261386
 30
0.0
 10
15.41682076910259
 20
-55.10084851507591
 30
0.0
 10
15.34316943289496
 20
-55.08874827027827
 30
0.0
 10
15.26938882042674
 20
-55.06150200673562
 30
0.0
 10
15.19033605538983
 20
-55.01688793453588
 30
0.0
 10
15.10579005837989
 20
-54.94404039857529
 30
0.0
 10
15.02754634152083
 20
-54.85137397372627
 30
0.0
 10
14.95530512350146
 20
-54.73987164523941
 30
0.0
 10
14.89394004890021
 20
-54.60682103899671
 30
0.0
 10
14.85203933432744
 20
-54.45139298079132
 30
0.0
 10
14.8256105392621
 20
-54.27514899093492
 30
0.0
 10
14.82294142817443
 20
-54.15065722187695
 30
0.0
 10
14.8215277777783
 20
-54.08472222222208
 30
0.0
  0
SPLINE
  5
9F
330
1F
100
AcDbEntity
  8
0
  6
Continuous
 62
     7
370
    25
100
AcDbSpline
210
0.0
220
0.0
230
1.0
 70
     8
 71
     3
 72
    11
 73
     7
 74
     0
 42
0.00000001
 43
0.00000001
 40
0.0
 40
0.0
 40
0.0
 40
0.0
 40
0.2869538933514393
 40
0.5461988668811921
 40
0.781657462202783
 40
1.0
 40
1.0
 40
1.0
 40
1.0
 10
14.82152777777834
 20
-58.57039930555541
 30
0.0
 10
14.82282692790503
 20
-58.50228231592273
 30
0.0
 10
14.82529977927084
 20
-58.37262586791923
 30
0.0
 10
14.8536387149192
 20
-58.18893211778792
 30
0.0
 10
14.90005960784906
 20
-58.02541638017401
 30
0.0
 10
14.94813587564071
 20
-57.92890223438186
 30
0.0
 10
14.97126736111168
 20
-57.88246527777763
 30
0.0
  0
SPLINE
  5
A0
330
1F
100
AcDbEntity
  8
0
  6
Continuous
 62
     7
370
    25
100
AcDbSpline
210
0.0
220
0.0
230
1.0
 70
     8
 71
     3
 72
    11
 73
     7
 74
     0
 42
0.00000001
 43
0.00000001
 40
0.0
 40
0.0
 40
0.0
 40
0.0
 40
0.2322074352791609
 40
0.4697021905392589
 40
0.7270458402700734
 40
1.0
 40
1.0
 40
1.0
 40
1.0
 10
14.97126736111168
 20
-57.88246527777763
 30
0.0
 10
14.98964271855875
 20
-57.85193706394448
 30
0.0
 10
15.02681183691387
 20
-57.79018551454445
 30
0.0
 10
15.10630737401639
 20
-57.71112442712705
 30
0.0
 10
15.20156707812591
 20
-57.64165486042744
 30
0.0
 10
15.27445988254747
 20
-57.60578782174796
 30
0.0
 10
15.31197916666722
 20
-57.58732638888873
 30
0.0
  0
SPLINE
  5
A1
330
1F
100
AcDbEntity
  8
0
  6
Continuous
 62
     7
370
    25
100
AcDbSpline
210
0.0
220
0.0
230
1.0
 70
     8
 71
     3
 72
    15
 73
    11
 74
     0
 42
0.00000001
 43
0.00000001
 40
0.0
 40
0.0
 40
0.0
 40
0.0
 40
0.0613943520403088
 40
0.1398538629143153
 40
0.2347602763706147
 40
0.3503529954263541
 40
0.484827155322669
 40
0.6382896720196851
 40
0.8083672866041928
 40
1.0
 40
1.0
 40
1.0
 40
1.0
 10
15.31197916666722
 20
-57.58732638888874
 30
0.0
 10
15.32916843312172
 20
-57.58023816446325
 30
0.0
 10
15.36832489026205
 20
-57.56409147451272
 30
0.0
 10
15.43854391206055
 20
-57.55208641211584
 30
0.0
 10
15.52401763208532
 20
-57.5346788242555
 30
0.0
 10
15.62802532109152
 20
-57.52589449822341
 30
0.0
 10
15.74950888055207
 20
-57.51703294043826
 30
0.0
 10
15.88771919591328
 20
-57.51012553182305
 30
0.0
 10
16.04332111007801
 20
-57.50940113476602
 30
0.0
 10
16.1525484501881
 20
-57.50785198400066
 30
0.0
 10
16.21041666666723
 20
-57.50703124999984
 30
0.0
  0
SPLINE
  5
A3
330
1F
100
AcDbEntity
  8
0
  6
Continuous
 62
     7
370
    25
100
AcDbSpline
210
0.0
220
0.0
230
1.0
 70
     8
 71
     3
 72
    23
 73
    19
 74
     0
 42
0.00000001
 43
0.00000001
 40
0.0
 40
0.0
 40
0.0
 40
0.0
 40
0.0847108085239085
 40
0.1621020982666208
 40
0.2301470860921783
 40
0.2899827413600634
 40
0.3414897243749188
 40
0.3860163327560115
 40
0.42152508138531
 40
0.4493108915594317
 40
0.4998966938826103
 40
0.5526518129057053
 40
0.6112968194059838
 40
0.6748202430881401
 40
0.744060072083086
 40
0.8211965982933289
 40
0.9057911433576918
 40
1.0
 40
1.0
 40
1.0
 40
1.0
 10
22.8770833333339
 20
-57.50703124999976
 30
0.0
 10
22.93567660436399
 20
-57.50783301149959
 30
0.0
 10
23.04780033855787
 20
-57.5093672575267
 30
0.0
 10
23.20699730118685
 20
-57.51032301564781
 30
0.0
 10
23.34895053652447
 20
-57.51620827496492
 30
0.0
 10
23.47244042666223
 20
-57.52847757613151
 30
0.0
 10
23.57992427574618
 20
-57.53761345279528
 30
0.0
 10
23.66973208754625
 20
-57.55275516921663
 30
0.0
 10
23.74249861645503
 20
-57.56943667412549
 30
0.0
 10
23.81705822945952
 20
-57.59565290272323
 30
0.0
 10
23.89534689177293
 20
-57.64264448329508
 30
0.0
 10
23.98327190297153
 20
-57.71301261143091
 30
0.0
 10
24.05909658498333
 20
-57.80818883899794
 30
0.0
 10
24.13177859736465
 20
-57.9189699914599
 30
0.0
 10
24.19404743321536
 20
-58.0509918130326
 30
0.0
 10
24.23536333896292
 20
-58.20593417194915
 30
0.0
 10
24.26181089018195
 20
-58.38141514045886
 30
0.0
 10
24.26453626350047
 20
-58.50518618206809
 30
0.0
 10
24.26597222222279
 20
-58.57039930555531
 30
0.0
  0
SPLINE
  5
E8
330
1F
100
AcDbEntity
  8
0
  6
Continuous
 62
     7
370
    25
100
AcDbSpline
210
0.0
220
0.0
230
1.0
 70
     8
 71
     3
 72
    11
 73
     7
 74
     0
 42
0.00000001
 43
0.00000001
 40
0.0
 40
0.0
 40
0.0
 40
0.0
 40
0.1037406372088866
 40
0.3068206855435469
 40
0.6046480276905518
 40
1.0
 40
1.0
 40
1.0
 40
1.0
 10
57.94322916666686
 20
-23.48906249999941
 30
0.0
 10
57.93687588539743
 20
-23.46947491076368
 30
0.0
 10
57.91808558135666
 20
-23.41154315210916
 30
0.0
 10
57.87292959520203
 20
-23.30029124019577
 30
0.0
 10
57.80914901740421
 20
-23.13426655574392
 30
0.0
 10
57.75495466499201
 20
-23.00780430700761
 30
0.0
 10
57.72404513888908
 20
-22.93567708333275
 30
0.0
  0
SPLINE
  5
E9
330
1F
100
AcDbEntity
  8
0
  6
Continuous
 62
     7
370
    25
100
AcDbSpline
210
0.0
220
0.0
230
1.0
 70
     8
 71
     3
 72
     9
 73
     5
 74
     0
 42
0.00000001
 43
0.00000001
 40
0.0
 40
0.0
 40
0.0
 40
0.0
 40
0.486192164021593
 40
1.0
 40
1.0
 40
1.0
 40
1.0
 10
57.98663194444465
 20
-23.76249999999941
 30
0.0
 10
57.98463178186063
 20
-23.71739727071602
 30
0.0
 10
57.98051784763454
 20
-23.62462998111119
 30
0.0
 10
57.95588547351052
 20
-23.53507602459849
 30
0.0
 10
57.94322916666686
 20
-23.48906249999941
 30
0.0
  0
SPLINE
  5
EA
330
1F
100
AcDbEntity
  8
0
  6
Continuous
 62
     7
370
    25
100
AcDbSpline
210
0.0
220
0.0
230
1.0
 70
     8
 71
     3
 72
    11
 73
     7
 74
     0
 42
0.00000001
 43
0.00000001
 40
0.0
 40
0.0
 40
0.0
 40
0.0
 40
0.2432641566995578
 40
0.4832184427541636
 40
0.7323542609511638
 40
1.0
 40
1.0
 40
1.0
 40
1.0
 10
57.82604166666687
 20
-24.10321180555496
 30
0.0
 10
57.85019083776993
 20
-24.08251616398696
 30
0.0
 10
57.89816060451463
 20
-24.04140646732646
 30
0.0
 10
57.95290377737484
 20
-23.96105818932524
 30
0.0
 10
57.97959198835802
 20
-23.8646462058336
 30
0.0
 10
57.98422991909625
 20
-23.79735217416605
 30
0.0
 10
57.98663194444465
 20
-23.76249999999941
 30
0.0
  0
SPLINE
  5
EB
330
1F
100
AcDbEntity
  8
0
  6
Continuous
 62
     7
370
    25
100
AcDbSpline
210
0.0
220
0.0
230
1.0
 70
     8
 71
     3
 72
    11
 73
     7
 74
     0
 42
0.00000001
 43
0.00000001
 40
0.0
 40
0.0
 40
0.0
 40
0.0
 40
0.3187719812569859
 40
0.5905094975621803
 40
0.8135377671059805
 40
1.0
 40
1.0
 40
1.0
 40
1.0
 10
57.01440972222243
 20
-24.26597222222164
 30
0.0
 10
57.10354185802441
 20
-24.26413180601464
 30
0.0
 10
57.26865477830529
 20
-24.2607225250439
 30
0.0
 10
57.49391004954137
 20
-24.23082990317427
 30
0.0
 10
57.68086217914276
 20
-24.18616902978867
 30
0.0
 10
57.78061777680237
 20
-24.12916753718979
 30
0.0
 10
57.82604166666687
 20
-24.10321180555497
 30
0.0
  0
SPLINE
  5
F0
330
1F
100
AcDbEntity
  8
0
  6
Continuous
 62
     7
370
    25
100
AcDbSpline
210
0.0
220
0.0
230
1.0
 70
     8
 71
     3
 72
    11
 73
     7
 74
     0
 42
0.00000001
 43
0.00000001
 40
0.0
 40
0.0
 40
0.0
 40
0.0
 40
0.2221845826460596
 40
0.4605063262348694
 40
0.7155989418579494
 40
1.0
 40
1.0
 40
1.0
 40
1.0
 10
60.82517361111131
 20
-24.00772569444382
 30
0.0
 10
60.86944536612931
 20
-24.04311076320696
 30
0.0
 10
60.96120431275157
 20
-24.11645090150828
 30
0.0
 10
61.12984949147997
 20
-24.18816963196436
 30
0.0
 10
61.31941306583045
 20
-24.24597494300962
 30
0.0
 10
61.4561931978737
 20
-24.25906934112817
 30
0.0
 10
61.52829861111132
 20
-24.26597222222158
 30
0.0
  0
SPLINE
  5
F1
330
1F
100
AcDbEntity
  8
0
  6
Continuous
 62
     7
370
    25
100
AcDbSpline
210
0.0
220
0.0
230
1.0
 70
     8
 71
     3
 72
    15
 73
    11
 74
     0
 42
0.00000001
 43
0.00000001
 40
0.0
 40
0.0
 40
0.0
 40
0.0
 40
0.178927065897368
 40
0.342014915488621
 40
0.4893348406489388
 40
0.6216245407493156
 40
0.7384207391762913
 40
0.8396135399541274
 40
0.9269806216360702
 40
1.0
 40
1.0
 40
1.0
 40
1.0
 10
59.98315972222241
 20
-22.58628472222161
 30
0.0
 10
60.02474098798371
 20
-22.67616317934722
 30
0.0
 10
60.10422260818423
 20
-22.84796375498338
 30
0.0
 10
60.22381736781129
 20
-23.0909527142745
 30
0.0
 10
60.33570439130042
 20
-23.30900004755975
 30
0.0
 10
60.44472442354896
 20
-23.49938648823007
 30
0.0
 10
60.54481818546442
 20
-23.66560415999054
 30
0.0
 10
60.64407491415639
 20
-23.8024325446146
 30
0.0
 10
60.73306781260241
 20
-23.91697217422047
 30
0.0
 10
60.79635895850169
 20
-23.97933409260473
 30
0.0
 10
60.82517361111131
 20
-24.00772569444382
 30
0.0
  0
SPLINE
  5
F5
330
1F
100
AcDbEntity
  8
0
  6
Continuous
 62
     7
370
    25
100
AcDbSpline
210
0.0
220
0.0
230
1.0
 70
     8
 71
     3
 72
    19
 73
    15
 74
     0
 42
0.00000001
 43
0.00000001
 40
0.0
 40
0.0
 40
0.0
 40
0.0
 40
0.0973574839395843
 40
0.1892255533651089
 40
0.2791834008755958
 40
0.3693826883533468
 40
0.4190319977895218
 40
0.4765617931691613
 40
0.5427107290249065
 40
0.6171923204149277
 40
0.7001479466940559
 40
0.790964111238945
 40
0.8915004980693998
 40
1.0
 40
1.0
 40
1.0
 40
1.0
 10
50.97274305555577
 20
-24.26597222222169
 30
0.0
 10
51.05892708177359
 20
-24.25014740278906
 30
0.0
 10
51.22643572509905
 20
-24.21939003219083
 30
0.0
 10
51.459779652351
 20
-24.12413219247887
 30
0.0
 10
51.6723600926305
 20
-24.00155913560022
 30
0.0
 10
51.82644970063695
 20
-23.86238616135435
 30
0.0
 10
51.94468162019339
 20
-23.73025083862813
 30
0.0
 10
52.03715564145481
 20
-23.60488436690363
 30
0.0
 10
52.1370554599885
 20
-23.45764540525641
 30
0.0
 10
52.2407375510827
 20
-23.28565077858157
 30
0.0
 10
52.34850263707165
 20
-23.0905267783449
 30
0.0
 10
52.46190082070768
 20
-22.87189222187243
 30
0.0
 10
52.58054054462649
 20
-22.63021174494974
 30
0.0
 10
52.65929587430293
 20
-22.4598610374435
 30
0.0
 10
52.70017361111129
 20
-22.37144097222168
 30
0.0
  0
SPLINE
  5
F9
330
1F
100
AcDbEntity
  8
0
  6
Continuous
 62
     7
370
    25
100
AcDbSpline
210
0.0
220
0.0
230
1.0
 70
     8
 71
     3
 72
    15
 73
    11
 74
     0
 42
0.00000001
 43
0.00000001
 40
0.0
 40
0.0
 40
0.0
 40
0.0
 40
0.0645559730774108
 40
0.1453968533748355
 40
0.2444906472039237
 40
0.3601866393199276
 40
0.4927465548503963
 40
0.6445137712814475
 40
0.8136557663141031
 40
1.0
 40
1.0
 40
1.0
 40
1.0
 10
53.40329861111132
 20
-24.09887152777723
 30
0.0
 10
53.42269294716282
 20
-24.10788170326002
 30
0.0
 10
53.4663740397211
 20
-24.12817496352861
 30
0.0
 10
53.54332914136029
 20
-24.1538640116431
 30
0.0
 10
53.63852414844452
 20
-24.17685777273877
 30
0.0
 10
53.7515522105694
 20
-24.1982511423975
 30
0.0
 10
53.88258005729183
 20
-24.21780878380889
 30
0.0
 10
54.03184935642383
 20
-24.23403114525609
 30
0.0
 10
54.19881166917834
 20
-24.25225219307815
 30
0.0
 10
54.31617149526261
 20
-24.26125368294731
 30
0.0
 10
54.37769097222242
 20
-24.26597222222167
 30
0.0
  0
SPLINE
  5
FA
330
1F
100
AcDbEntity
  8
0
  6
Continuous
 62
     7
370
    25
100
AcDbSpline
210
0.0
220
0.0
230
1.0
 70
     8
 71
     3
 72
    11
 73
     7
 74
     0
 42
0.00000001
 43
0.00000001
 40
0.0
 40
0.0
 40
0.0
 40
0.0
 40
0.2631271843175557
 40
0.5017656398150938
 40
0.7423174152036072
 40
1.0
 40
1.0
 40
1.0
 40
1.0
 10
53.06475694444465
 20
-23.5194444444439
 30
0.0
 10
53.06849718776441
 20
-23.58160432550299
 30
0.0
 10
53.07562957732451
 20
-23.7001389899138
 30
0.0
 10
53.14256425030661
 20
-23.86464504315232
 30
0.0
 10
53.25241471177197
 20
-24.00274125616332
 30
0.0
 10
53.35186418641154
 20
-24.06610192652525
 30
0.0
 10
53.40329861111132
 20
-24.09887152777723
 30
0.0
  0
SPLINE
  5
FB
330
1F
100
AcDbEntity
  8
0
  6
Continuous
 62
     7
370
    25
100
AcDbSpline
210
0.0
220
0.0
230
1.0
 70
     8
 71
     3
 72
    11
 73
     7
 74
     0
 42
0.00000001
 43
0.00000001
 40
0.0
 40
0.0
 40
0.0
 40
0.0
 40
0.3012775474581528
 40
0.5643379314977722
 40
0.7982584844824543
 40
1.0
 40
1.0
 40
1.0
 40
1.0
 10
53.27092013888907
 20
-22.76423611111057
 30
0.0
 10
53.23908465566326
 20
-22.83675505638591
 30
0.0
 10
53.17945203151497
 20
-22.97259389308772
 30
0.0
 10
53.11674340941003
 20
-23.17281437081623
 30
0.0
 10
53.07382704482715
 20
-23.351980656045
 30
0.0
 10
53.06762767790605
 20
-23.46644129335893
 30
0.0
 10
53.06475694444465
 20
-23.5194444444439
 30
0.0
  0
SPLINE
  5
FF
330
1F
100
AcDbEntity
  8
0
  6
Continuous
 62
     7
370
    25
100
AcDbSpline
210
0.0
220
0.0
230
1.0
 70
     8
 71
     3
 72
    15
 73
    11
 74
     0
 42
0.00000001
 43
0.00000001
 40
0.0
 40
0.0
 40
0.0
 40
0.0
 40
0.1108115786351053
 40
0.218891535555413
 40
0.3268912847044348
 40
0.4393716309874437
 40
0.559037679621366
 40
0.689445924377748
 40
0.8342590408035495
 40
1.0
 40
1.0
 40
1.0
 40
1.0
 10
154.9122395833334
 20
-15.09930555555396
 30
0.0
 10
154.9507668208464
 20
-15.09708449610844
 30
0.0
 10
155.0268715590318
 20
-15.09269712866387
 30
0.0
 10
155.1372373065011
 20
-15.0617434489087
 30
0.0
 10
155.2390469108273
 20
-15.00836956119118
 30
0.0
 10
155.3311484752476
 20
-14.9331311074656
 30
0.0
 10
155.4129080669313
 20
-14.83620053559657
 30
0.0
 10
155.4781376579853
 20
-14.71439401619942
 30
0.0
 10
155.5251249590663
 20
-14.56784055666987
 30
0.0
 10
155.5443437396214
 20
-14.46157463458085
 30
0.0
 10
155.5546006944445
 20
-14.4048611111095
 30
0.0
  0
SPLINE
  5
100
330
1F
100
AcDbEntity
  8
0
  6
Continuous
 62
     7
370
    25
100
AcDbSpline
210
0.0
220
0.0
230
1.0
 70
     8
 71
     3
 72
    15
 73
    11
 74
     0
 42
0.00000001
 43
0.00000001
 40
0.0
 40
0.0
 40
0.0
 40
0.0
 40
0.1905386678787598
 40
0.3644134465588173
 40
0.5172014641691725
 40
0.6519431589870619
 40
0.7650899414158012
 40
0.8632223479865687
 40
0.9403083874303566
 40
1.0
 40
1.0
 40
1.0
 40
1.0
 10
154.0398437500001
 20
-14.84322916666507
 30
0.0
 10
154.0940001557711
 20
-14.8637454912279
 30
0.0
 10
154.1975766250512
 20
-14.90298384965612
 30
0.0
 10
154.3460914561389
 20
-14.95459799570506
 30
0.0
 10
154.4795673437521
 20
-14.99752315342012
 30
0.0
 10
154.5951520225605
 20
-15.03616639676818
 30
0.0
 10
154.6974651449671
 20
-15.06066772952092
 30
0.0
 10
154.7819282041736
 20
-15.084333664278
 30
0.0
 10
154.8526528490893
 20
-15.09529348386349
 30
0.0
 10
154.8941358445001
 20
-15.09808660138595
 30
0.0
 10
154.9122395833334
 20
-15.09930555555396
 30
0.0
  0
SPLINE
  5
101
330
1F
100
AcDbEntity
  8
0
  6
Continuous
 62
     7
370
    25
100
AcDbSpline
210
0.0
220
0.0
230
1.0
 70
     8
 71
     3
 72
    11
 73
     7
 74
     0
 42
0.00000001
 43
0.00000001
 40
0.0
 40
0.0
 40
0.0
 40
0.0
 40
0.2344398790845307
 40
0.478710041576932
 40
0.7329902712938126
 40
1.0
 40
1.0
 40
1.0
 40
1.0
 10
151.7850694444445
 20
-14.40486111110954
 30
0.0
 10
151.9654938720143
 20
-14.41065036071827
 30
0.0
 10
152.3339080921577
 20
-14.42247160858667
 30
0.0
 10
152.8922144953738
 20
-14.50980287501658
 30
0.0
 10
153.4661799597426
 20
-14.6453298381051
 30
0.0
 10
153.8455346369736
 20
-14.77619749471
 30
0.0
 10
154.0398437500001
 20
-14.84322916666507
 30
0.0
  0
SPLINE
  5
102
330
1F
100
AcDbEntity
  8
0
  6
Continuous
 62
     7
370
    25
100
AcDbSpline
210
0.0
220
0.0
230
1.0
 70
     8
 71
     3
 72
    31
 73
    27
 74
     0
 42
0.00000001
 43
0.00000001
 40
0.0
 40
0.0
 40
0.0
 40
0.0
 40
0.0410177549349498
 40
0.0814840243382986
 40
0.1220503222454147
 40
0.1626892860397226
 40
0.2033569609353547
 40
0.2447328051180947
 40
0.2865327561597879
 40
0.3293957952157118
 40
0.3721292914708307
 40
0.4143498572755813
 40
0.4560846025895727
 40
0.4976823949449574
 40
0.5393424944573089
 40
0.5809059780630678
 40
0.6230712169523417
 40
0.6655230629128097
 40
0.7080008681707289
 40
0.7500976163499745
 40
0.7917390335042683
 40
0.8333282513256328
 40
0.8745376366778853
 40
0.9160269478186269
 40
0.9577096106750077
 40
1.0
 40
1.0
 40
1.0
 40
1.0
 10
146.249045138889
 20
-19.72387152777626
 30
0.0
 10
146.2506812007254
 20
-19.60729256099998
 30
0.0
 10
146.2539313274742
 20
-19.37570203681852
 30
0.0
 10
146.2939262186446
 20
-19.03085226094412
 30
0.0
 10
146.3512260422905
 20
-18.68985641808847
 30
0.0
 10
146.433819958907
 20
-18.35325971495645
 30
0.0
 10
146.5414039370174
 20
-18.02152319238441
 30
0.0
 10
146.6709008503625
 20
-17.69410975305345
 30
0.0
 10
146.8267896214337
 20
-17.37149110064441
 30
0.0
 10
147.0028610451444
 20
-17.05508273210858
 30
0.0
 10
147.1996625823897
 20
-16.74959823245442
 30
0.0
 10
147.4150830203322
 20
-16.46100778620062
 30
0.0
 10
147.6453712912942
 20
-16.1883191120787
 30
0.0
 10
147.8935418157367
 20
-15.93397304618233
 30
0.0
 10
148.1579631349515
 20
-15.69726829029952
 30
0.0
 10
148.4402396832745
 20
-15.47962349157549
 30
0.0
 10
148.7365324437158
 20
-15.27743558468585
 30
0.0
 10
149.0490963916173
 20
-15.09617799743358
 30
0.0
 10
149.3714405379273
 20
-14.93351903671264
 30
0.0
 10
149.701416353451
 20
-14.79268704712648
 30
0.0
 10
150.0367647220235
 20
-14.67243150423359
 30
0.0
 10
150.3769256703453
 20
-14.57540856036499
 30
0.0
 10
150.7217606822572
 20
-14.49849384653837
 30
0.0
 10
151.0712000265465
 20
-14.44484269873973
 30
0.0
 10
151.4263250427682
 20
-14.4109590411534
 30
0.0
 10
151.6649124121789
 20
-14.40690353790033
 30
0.0
 10
151.7850694444445
 20
-14.40486111110954
 30
0.0
  0
SPLINE
  5
103
330
1F
100
AcDbEntity
  8
0
  6
Continuous
 62
     7
370
    25
100
AcDbSpline
210
0.0
220
0.0
230
1.0
 70
     8
 71
     3
 72
    31
 73
    27
 74
     0
 42
0.00000001
 43
0.00000001
 40
0.0
 40
0.0
 40
0.0
 40
0.0
 40
0.0479151397884852
 40
0.0943593638197342
 40
0.1400276333701093
 40
0.1845182736533781
 40
0.2282410588683026
 40
0.2713528866062329
 40
0.3137723797654886
 40
0.3561583891114083
 40
0.397849978228334
 40
0.4389467613401981
 40
0.4791593828300349
 40
0.5194391186166226
 40
0.5592640728007585
 40
0.5992279112919877
 40
0.6397638891658233
 40
0.6806596344580521
 40
0.721513019164975
 40
0.7616756624486357
 40
0.8015640425814692
 40
0.8411141430554157
 40
0.8805651785405617
 40
0.9200662159140872
 40
0.9597133870175649
 40
1.0
 40
1.0
 40
1.0
 40
1.0
 10
151.6787326388891
 20
-24.68263888888732
 30
0.0
 10
151.5470353077589
 20
-24.68022386511364
 30
0.0
 10
151.2876835363343
 20
-24.67546795481264
 30
0.0
 10
150.9035393387427
 20
-24.64765952889899
 30
0.0
 10
150.5311947420447
 20
-24.59761182835121
 30
0.0
 10
150.1695913171942
 20
-24.52820504029647
 30
0.0
 10
149.8195662970928
 20
-24.43912330033511
 30
0.0
 10
149.4808488354615
 20
-24.33109823730019
 30
0.0
 10
149.1535660781347
 20
-24.20191857375496
 30
0.0
 10
148.838148474124
 20
-24.05517400995684
 30
0.0
 10
148.5354245760491
 20
-23.89098408994105
 30
0.0
 10
148.2519317696691
 20
-23.70617628017653
 30
0.0
 10
147.9845086677861
 20
-23.50527510581457
 30
0.0
 10
147.7358742498702
 20
-23.28669553947142
 30
0.0
 10
147.5045064981488
 20
-23.05096133305927
 30
0.0
 10
147.2905114832103
 20
-22.79832161198625
 30
0.0
 10
147.0961688580039
 20
-22.52670058145247
 30
0.0
 10
146.9185510290556
 20
-22.24106141286851
 30
0.0
 10
146.7611323418045
 20
-21.94497242671899
 30
0.0
 10
146.6233702003586
 20
-21.64228406597593
 30
0.0
 10
146.5084110681801
 20
-21.33399520071995
 30
0.0
 10
146.4151845466226
 20
-21.02054349008997
 30
0.0
 10
146.3414682759403
 20
-20.70309840399109
 30
0.0
 10
146.2859322222837
 20
-20.3816139538059
 30
0.0
 10
146.2559172630237
 20
-20.05431150985022
 30
0.0
 10
146.2513480310116
 20
-19.8346040490153
 30
0.0
 10
146.249045138889
 20
-19.72387152777626
 30
0.0
  0
SPLINE
  5
104
330
1F
100
AcDbEntity
  8
0
  6
Continuous
 62
     7
370
    25
100
AcDbSpline
210
0.0
220
0.0
230
1.0
 70
     8
 71
     3
 72
    15
 73
    11
 74
     0
 42
0.00000001
 43
0.00000001
 40
0.0
 40
0.0
 40
0.0
 40
0.0
 40
0.1350521031396085
 40
0.2620518358368886
 40
0.3832254152852376
 40
0.4992339147817463
 40
0.6151260739642337
 40
0.7363563336491366
 40
0.8644401769259643
 40
1.0
 40
1.0
 40
1.0
 40
1.0
 10
155.5546006944446
 20
-23.03767361110949
 30
0.0
 10
155.4152561542627
 20
-23.17491205349763
 30
0.0
 10
155.1448753773653
 20
-23.44120620915418
 30
0.0
 10
154.7092007610486
 20
-23.78620470708871
 30
0.0
 10
154.2661416145488
 20
-24.07344252553396
 30
0.0
 10
153.8071074041094
 20
-24.30043662242318
 30
0.0
 10
153.325743510422
 20
-24.4757599865598
 30
0.0
 10
152.8097903580682
 20
-24.59482726500176
 30
0.0
 10
152.2567974574329
 20
-24.67062033508329
 30
0.0
 10
151.8750294313846
 20
-24.67855767950303
 30
0.0
 10
151.6787326388891
 20
-24.68263888888732
 30
0.0
  0
SPLINE
  5
106
330
1F
100
AcDbEntity
  8
0
  6
Continuous
 62
     7
370
    25
100
AcDbSpline
210
0.0
220
0.0
230
1.0
 70
     8
 71
     3
 72
    19
 73
    15
 74
     0
 42
0.00000001
 43
0.00000001
 40
0.0
 40
0.0
 40
0.0
 40
0.0
 40
0.116398621733173
 40
0.2298665596180217
 40
0.3405011204699169
 40
0.4514084536975317
 40
0.5083244663373426
 40
0.568415615140657
 40
0.6317154586435031
 40
0.6984358821812909
 40
0.7683949833475533
 40
0.8417137128476794
 40
0.9188896560191032
 40
1.0
 40
1.0
 40
1.0
 40
1.0
 10
152.1648437500002
 20
-23.98819444444288
 30
0.0
 10
152.3192145230758
 20
-23.98307935322473
 30
0.0
 10
152.624069322764
 20
-23.9729779585266
 30
0.0
 10
153.0706087010651
 20
-23.89622223629602
 30
0.0
 10
153.4961696901662
 20
-23.76597493288349
 30
0.0
 10
153.8355066258871
 20
-23.61779080157234
 30
0.0
 10
154.0986738378942
 20
-23.46898252635378
 30
0.0
 10
154.3009409981796
 20
-23.34133018068556
 30
0.0
 10
154.5049729518252
 20
-23.19303709680121
 30
0.0
 10
154.7105837931006
 20
-23.02548521561821
 30
0.0
 10
154.9189033870153
 20
-22.84066829929084
 30
0.0
 10
155.1301028836694
 20
-22.63849242478756
 30
0.0
 10
155.3422959407621
 20
-22.41641814426608
 30
0.0
 10
155.4826693914917
 20
-22.26041113030903
 30
0.0
 10
155.5546006944446
 20
-22.18046874999839
 30
0.0
  0
SPLINE
  5
107
330
1F
100
AcDbEntity
  8
0
  6
Continuous
 62
     7
370
    25
100
AcDbSpline
210
0.0
220
0.0
230
1.0
 70
     8
 71
     3
 72
    27
 73
    23
 74
     0
 42
0.00000001
 43
0.00000001
 40
0.0
 40
0.0
 40
0.0
 40
0.0
 40
0.100335754667632
 40
0.19670041623519
 40
0.2893107456765835
 40
0.3790209340577784
 40
0.4222383451137713
 40
0.4639717842857073
 40
0.5039532040073574
 40
0.5426629950426823
 40
0.5799263845877861
 40
0.6168345798717734
 40
0.6528891720237332
 40
0.6883605716282252
 40
0.7242851327697928
 40
0.7600420471938133
 40
0.7968687534961323
 40
0.8346005344694063
 40
0.8734325186278693
 40
0.9137807414499984
 40
0.9561284762272391
 40
1.0
 40
1.0
 40
1.0
 40
1.0
 10
148.8879340277779
 20
-19.42222222222068
 30
0.0
 10
148.8921609991561
 20
-19.63576520509655
 30
0.0
 10
148.9004476466455
 20
-20.05439955687803
 30
0.0
 10
148.9636261336024
 20
-20.66765922924156
 30
0.0
 10
149.0705548035372
 20
-21.25144811871106
 30
0.0
 10
149.1917967585599
 20
-21.71655089691323
 30
0.0
 10
149.3136316128044
 20
-22.067928205227
 30
0.0
 10
149.4175680680436
 20
-22.31288758550216
 30
0.0
 10
149.5333628207147
 20
-22.54163278155195
 30
0.0
 10
149.6575315201509
 20
-22.75522982895624
 30
0.0
 10
149.7989741493419
 20
-22.94978112496829
 30
0.0
 10
149.9497091271405
 20
-23.12977397962898
 30
0.0
 10
150.1130697225106
 20
-23.29320114765372
 30
0.0
 10
150.288453815511
 20
-23.44036378140005
 30
0.0
 10
150.4763005037445
 20
-23.57031310562295
 30
0.0
 10
150.6788867089657
 20
-23.6818433606955
 30
0.0
 10
150.8936723847722
 20
-23.77719994818477
 30
0.0
 10
151.1221262775326
 20
-23.85609635514449
 30
0.0
 10
151.3645743047347
 20
-23.91320435565561
 30
0.0
 10
151.6195453497373
 20
-23.95728837341137
 30
0.0
 10
151.8879719600482
 20
-23.9833288652499
 30
0.0
 10
152.071472128291
 20
-23.98655358742424
 30
0.0
 10
152.1648437500002
 20
-23.98819444444288
 30
0.0
  0
SPLINE
  5
108
330
1F
100
AcDbEntity
  8
0
  6
Continuous
 62
     7
370
    25
100
AcDbSpline
210
0.0
220
0.0
230
1.0
 70
     8
 71
     3
 72
    15
 73
    11
 74
     0
 42
0.00000001
 43
0.00000001
 40
0.0
 40
0.0
 40
0.0
 40
0.0
 40
0.1195246575645466
 40
0.2402146314964243
 40
0.3618582931024025
 40
0.4851956826214187
 40
0.6101092444104331
 40
0.7376124489861925
 40
0.8672248566162564
 40
1.0
 40
1.0
 40
1.0
 40
1.0
 10
149.3610243055557
 20
-17.00034722222067
 30
0.0
 10
149.3229240199027
 20
-17.09176333465712
 30
0.0
 10
149.2463519864452
 20
-17.27548682911596
 30
0.0
 10
149.1530529557794
 20
-17.56051774889688
 30
0.0
 10
149.0682750871478
 20
-17.85145083287579
 30
0.0
 10
149.0053485169248
 20
-18.15149090266645
 30
0.0
 10
148.9516963589493
 20
-18.45817532762993
 30
0.0
 10
148.9165674042606
 20
-18.77275441367628
 30
0.0
 10
148.8903018971864
 20
-19.09481186649886
 30
0.0
 10
148.8887296347638
 20
-19.31221194659848
 30
0.0
 10
148.8879340277779
 20
-19.42222222222068
 30
0.0
  0
SPLINE
  5
109
330
1F
100
AcDbEntity
  8
0
  6
Continuous
 62
     7
370
    25
100
AcDbSpline
210
0.0
220
0.0
230
1.0
 70
     8
 71
     3
 72
    23
 73
    19
 74
     0
 42
0.00000001
 43
0.00000001
 40
0.0
 40
0.0
 40
0.0
 40
0.0
 40
0.064258925470975
 40
0.1270425727029857
 40
0.1899063275756421
 40
0.2520677341188229
 40
0.313735832857369
 40
0.3763201488427874
 40
0.4392942298004444
 40
0.5035558558503613
 40
0.5677958740899665
 40
0.6305546395391411
 40
0.6926601857128979
 40
0.7539670220001731
 40
0.8152483768848817
 40
0.8763595842272905
 40
0.9378162633594489
 40
1.0
 40
1.0
 40
1.0
 40
1.0
 10
152.2776909722223
 20
-15.09930555555398
 30
0.0
 10
152.1987839054463
 20
-15.10110898969524
 30
0.0
 10
152.0427813471372
 20
-15.10467445412417
 30
0.0
 10
151.8106136223357
 20
-15.12911166623947
 30
0.0
 10
151.5834021439253
 20
-15.16977957392014
 30
0.0
 10
151.3616398338876
 20
-15.22886209466789
 30
0.0
 10
151.1452185960655
 20
-15.30378160116691
 30
0.0
 10
150.9325415344777
 20
-15.39160081591222
 30
0.0
 10
150.7253808399425
 20
-15.49905231415241
 30
0.0
 10
150.5251722473147
 20
-15.62253982522217
 30
0.0
 10
150.3325641630928
 20
-15.757347630954
 30
0.0
 10
150.1547793809957
 20
-15.90696681863059
 30
0.0
 10
149.9864207757728
 20
-16.06184181400835
 30
0.0
 10
149.8341480762166
 20
-16.23032710451759
 30
0.0
 10
149.6956228454563
 20
-16.40849660054712
 30
0.0
 10
149.5683768672145
 20
-16.59524684963565
 30
0.0
 10
149.4581620377189
 20
-16.79386113650357
 30
0.0
 10
149.3935302369767
 20
-16.93124922711391
 30
0.0
 10
149.3610243055557
 20
-17.00034722222067
 30
0.0
  0
SPLINE
  5
10A
330
1F
100
AcDbEntity
  8
0
  6
Continuous
 62
     7
370
    25
100
AcDbSpline
210
0.0
220
0.0
230
1.0
 70
     8
 71
     3
 72
    23
 73
    19
 74
     0
 42
0.00000001
 43
0.00000001
 40
0.0
 40
0.0
 40
0.0
 40
0.0
 40
0.0726117033944982
 40
0.1427885270168186
 40
0.2101870706474685
 40
0.2754779911319099
 40
0.3394781575970252
 40
0.4018691237966637
 40
0.4638512623711377
 40
0.5256385239636059
 40
0.5867112534655892
 40
0.6463529194261942
 40
0.7049340493264364
 40
0.7631038564570272
 40
0.8216404577159587
 40
0.8801492113648425
 40
0.9393557310671264
 40
1.0
 40
1.0
 40
1.0
 40
1.0
 10
155.5546006944446
 20
-17.87708333333173
 30
0.0
 10
155.5256291224667
 20
-17.76816354011028
 30
0.0
 10
155.4686574788514
 20
-17.5539763483766
 30
0.0
 10
155.3607095840558
 20
-17.24573941312085
 30
0.0
 10
155.2319556347534
 20
-16.95808598290632
 30
0.0
 10
155.0858165838496
 20
-16.68980214391916
 30
0.0
 10
154.9239391930492
 20
-16.43983511415631
 30
0.0
 10
154.7425924710677
 20
-16.20996305606318
 30
0.0
 10
154.542139279274
 20
-16.00136485414355
 30
0.0
 10
154.3255160037008
 20
-15.81274583543192
 30
0.0
 10
154.0956790657962
 20
-15.64668792185116
 30
0.0
 10
153.858565946315
 20
-15.50075180341608
 30
0.0
 10
153.6148479863939
 20
-15.37513412743822
 30
0.0
 10
153.3610086192146
 20
-15.27661565807729
 30
0.0
 10
153.1015359435607
 20
-15.19388220151551
 30
0.0
 10
152.8325743708483
 20
-15.14234449592497
 30
0.0
 10
152.5579883481697
 20
-15.10448050583933
 30
0.0
 10
152.3718676753253
 20
-15.1010442794894
 30
0.0
 10
152.2776909722223
 20
-15.09930555555398
 30
0.0
  0
SPLINE
  5
111
330
1F
100
AcDbEntity
  8
0
  6
Continuous
 62
     7
370
    25
100
AcDbSpline
210
0.0
220
0.0
230
1.0
 70
     8
 71
     3
 72
    11
 73
     7
 74
     0
 42
0.00000001
 43
0.00000001
 40
0.0
 40
0.0
 40
0.0
 40
0.0
 40
0.286116982965587
 40
0.5446058600775648
 40
0.782294265333145
 40
1.0
 40
1.0
 40
1.0
 40
1.0
 10
24.26597222222322
 20
-98.59461805555532
 30
0.0
 10
24.26469967798412
 20
-98.66274279000702
 30
0.0
 10
24.2622774692685
 20
-98.79241397979122
 30
0.0
 10
24.23348983303497
 20
-98.97669539159007
 30
0.0
 10
24.18789898140644
 20
-99.14119043781878
 30
0.0
 10
24.13941222090657
 20
-99.23829866198793
 30
0.0
 10
24.11623263888989
 20
-99.28472222222197
 30
0.0
  0
SPLINE
  5
112
330
1F
100
AcDbEntity
  8
0
  6
Continuous
 62
     7
370
    25
100
AcDbSpline
210
0.0
220
0.0
230
1.0
 70
     8
 71
     3
 72
    11
 73
     7
 74
     0
 42
0.00000001
 43
0.00000001
 40
0.0
 40
0.0
 40
0.0
 40
0.0
 40
0.2333588799629366
 40
0.4720312980874374
 40
0.7278840296407444
 40
1.0
 40
1.0
 40
1.0
 40
1.0
 10
24.11623263888989
 20
-99.28472222222197
 30
0.0
 10
24.09783437853106
 20
-99.31522074637856
 30
0.0
 10
24.06061893285739
 20
-99.37691224039699
 30
0.0
 10
23.98178651790965
 20
-99.4561432806241
 30
0.0
 10
23.88569077644546
 20
-99.52328550275621
 30
0.0
 10
23.81299061873715
 20
-99.55775512907755
 30
0.0
 10
23.77552083333434
 20
-99.57552083333309
 30
0.0
  0
SPLINE
  5
113
330
1F
100
AcDbEntity
  8
0
  6
Continuous
 62
     7
370
    25
100
AcDbSpline
210
0.0
220
0.0
230
1.0
 70
     8
 71
     3
 72
    15
 73
    11
 74
     0
 42
0.00000001
 43
0.00000001
 40
0.0
 40
0.0
 40
0.0
 40
0.0
 40
0.0613929564847393
 40
0.1375125657304191
 40
0.2347752365658263
 40
0.3503653280824212
 40
0.4848364312453918
 40
0.6359029609429145
 40
0.8083716426091331
 40
1.0
 40
1.0
 40
1.0
 40
1.0
 10
23.77552083333434
 20
-99.57552083333309
 30
0.0
 10
23.7583251852758
 20
-99.58257649684643
 30
0.0
 10
23.71980907822835
 20
-99.5983803031494
 30
0.0
 10
23.64979865051984
 20
-99.61135105317977
 30
0.0
 10
23.56414226214222
 20
-99.627835784025
 30
0.0
 10
23.45949220308376
 20
-99.6370503296165
 30
0.0
 10
23.33870474087577
 20
-99.64570515932652
 30
0.0
 10
23.20050971629668
 20
-99.652825814959
 30
0.0
 10
23.04490070510612
 20
-99.65340467948535
 30
0.0
 10
22.93495106351157
 20
-99.65498449669602
 30
0.0
 10
22.87708333333434
 20
-99.655815972222
 30
0.0
  0
SPLINE
  5
115
330
1F
100
AcDbEntity
  8
0
  6
Continuous
 62
     7
370
    25
100
AcDbSpline
210
0.0
220
0.0
230
1.0
 70
     8
 71
     3
 72
    23
 73
    19
 74
     0
 42
0.00000001
 43
0.00000001
 40
0.0
 40
0.0
 40
0.0
 40
0.0
 40
0.0846127534506957
 40
0.1619144606629831
 40
0.2298806845577123
 40
0.2895648750439984
 40
0.3420514708676086
 40
0.3854965674004627
 40
0.4217551846928431
 40
0.4495088320332221
 40
0.4986124906573491
 40
0.5519752119292854
 40
0.6097553304323368
 40
0.6732052240175822
 40
0.7433128260372261
 40
0.8203600646127923
 40
0.9048566891820671
 40
1.0
 40
1.0
 40
1.0
 40
1.0
 10
16.21041666666767
 20
-99.65581597222206
 30
0.0
 10
16.15182520409747
 20
-99.6549874951945
 30
0.0
 10
16.03970493056166
 20
-99.65340212649282
 30
0.0
 10
15.88048467492706
 20
-99.65279046499202
 30
0.0
 10
15.73866210150797
 20
-99.64581810113089
 30
0.0
 10
15.61428486089374
 20
-99.63684723811188
 30
0.0
 10
15.50670604450077
 20
-99.62809752594718
 30
0.0
 10
15.41682076910304
 20
-99.6107443484092
 30
0.0
 10
15.34316943289543
 20
-99.59864410361159
 30
0.0
 10
15.26938882042721
 20
-99.57139784006897
 30
0.0
 10
15.19033605539029
 20
-99.5267837678692
 30
0.0
 10
15.10579005838036
 20
-99.45393623190863
 30
0.0
 10
15.0275463415213
 20
-99.3612698070596
 30
0.0
 10
14.95530512350193
 20
-99.24976747857278
 30
0.0
 10
14.89394004890068
 20
-99.11671687233004
 30
0.0
 10
14.85203933432791
 20
-98.96128881412463
 30
0.0
 10
14.82561053926255
 20
-98.78504482426823
 30
0.0
 10
14.8229414281749
 20
-98.66055305521027
 30
0.0
 10
14.82152777777877
 20
-98.5946180555554
 30
0.0
  0
SPLINE
  5
11B
330
1F
100
AcDbEntity
  8
0
  6
Continuous
 62
     7
370
    25
100
AcDbSpline
210
0.0
220
0.0
230
1.0
 70
     8
 71
     3
 72
    11
 73
     7
 74
     0
 42
0.00000001
 43
0.00000001
 40
0.0
 40
0.0
 40
0.0
 40
0.0
 40
0.2869538933514464
 40
0.5461988668811969
 40
0.781657462202776
 40
1.0
 40
1.0
 40
1.0
 40
1.0
 10
14.82152777777882
 20
-103.0802951388887
 30
0.0
 10
14.8228269279055
 20
-103.0121781492561
 30
0.0
 10
14.8252997792713
 20
-102.8825217012526
 30
0.0
 10
14.85363871491967
 20
-102.6988279511212
 30
0.0
 10
14.90005960784953
 20
-102.5353122135074
 30
0.0
 10
14.94813587564117
 20
-102.4387980677152
 30
0.0
 10
14.97126736111214
 20
-102.392361111111
 30
0.0
  0
SPLINE
  5
11C
330
1F
100
AcDbEntity
  8
0
  6
Continuous
 62
     7
370
    25
100
AcDbSpline
210
0.0
220
0.0
230
1.0
 70
     8
 71
     3
 72
    11
 73
     7
 74
     0
 42
0.00000001
 43
0.00000001
 40
0.0
 40
0.0
 40
0.0
 40
0.0
 40
0.2322074352791532
 40
0.4697021905392564
 40
0.7270458402700675
 40
1.0
 40
1.0
 40
1.0
 40
1.0
 10
14.97126736111215
 20
-102.392361111111
 30
0.0
 10
14.98964271855921
 20
-102.3618328972778
 30
0.0
 10
15.02681183691434
 20
-102.3000813478778
 30
0.0
 10
15.10630737401685
 20
-102.2210202604604
 30
0.0
 10
15.20156707812637
 20
-102.1515506937608
 30
0.0
 10
15.27445988254793
 20
-102.1156836550813
 30
0.0
 10
15.3119791666677
 20
-102.0972222222221
 30
0.0
  0
SPLINE
  5
11D
330
1F
100
AcDbEntity
  8
0
  6
Continuous
 62
     7
370
    25
100
AcDbSpline
210
0.0
220
0.0
230
1.0
 70
     8
 71
     3
 72
    15
 73
    11
 74
     0
 42
0.00000001
 43
0.00000001
 40
0.0
 40
0.0
 40
0.0
 40
0.0
 40
0.0613943520403139
 40
0.1398538629143184
 40
0.2347602763706175
 40
0.3503529954263572
 40
0.4848271553226716
 40
0.6382896720196866
 40
0.8083672866041933
 40
1.0
 40
1.0
 40
1.0
 40
1.0
 10
15.3119791666677
 20
-102.0972222222221
 30
0.0
 10
15.32916843312218
 20
-102.0901339977966
 30
0.0
 10
15.3683248902625
 20
-102.073987307846
 30
0.0
 10
15.43854391206102
 20
-102.0619822454492
 30
0.0
 10
15.52401763208577
 20
-102.0445746575888
 30
0.0
 10
15.62802532109199
 20
-102.0357903315567
 30
0.0
 10
15.74950888055254
 20
-102.0269287737716
 30
0.0
 10
15.88771919591375
 20
-102.0200213651564
 30
0.0
 10
16.04332111007849
 20
-102.0192969680994
 30
0.0
 10
16.15254845018855
 20
-102.017747817334
 30
0.0
 10
16.2104166666677
 20
-102.0169270833332
 30
0.0
  0
SPLINE
  5
11F
330
1F
100
AcDbEntity
  8
0
  6
Continuous
 62
     7
370
    25
100
AcDbSpline
210
0.0
220
0.0
230
1.0
 70
     8
 71
     3
 72
    23
 73
    19
 74
     0
 42
0.00000001
 43
0.00000001
 40
0.0
 40
0.0
 40
0.0
 40
0.0
 40
0.0847108085239086
 40
0.1621020982666208
 40
0.2301470860921783
 40
0.2899827413600637
 40
0.3414897243749192
 40
0.3860163327560125
 40
0.4215250813853093
 40
0.4493108915594333
 40
0.4998966938826103
 40
0.5526518129057053
 40
0.6112968194059865
 40
0.6748202430881399
 40
0.7440600720830828
 40
0.821196598293329
 40
0.9057911433576886
 40
1.0
 40
1.0
 40
1.0
 40
1.0
 10
22.87708333333437
 20
-102.0169270833331
 30
0.0
 10
22.93567660436446
 20
-102.0177288448329
 30
0.0
 10
23.04780033855834
 20
-102.01926309086
 30
0.0
 10
23.2069973011873
 20
-102.0202188489812
 30
0.0
 10
23.34895053652494
 20
-102.0261041082982
 30
0.0
 10
23.4724404266627
 20
-102.0383734094649
 30
0.0
 10
23.57992427574663
 20
-102.0475092861286
 30
0.0
 10
23.66973208754672
 20
-102.06265100255
 30
0.0
 10
23.74249861645547
 20
-102.0793325074588
 30
0.0
 10
23.81705822946
 20
-102.1055487360566
 30
0.0
 10
23.8953468917734
 20
-102.1525403166284
 30
0.0
 10
23.983271902972
 20
-102.2229084447643
 30
0.0
 10
24.0590965849838
 20
-102.3180846723313
 30
0.0
 10
24.13177859736512
 20
-102.4288658247932
 30
0.0
 10
24.19404743321585
 20
-102.5608876463659
 30
0.0
 10
24.23536333896337
 20
-102.7158300052825
 30
0.0
 10
24.26181089018241
 20
-102.8913109737922
 30
0.0
 10
24.26453626350095
 20
-103.0150820154014
 30
0.0
 10
24.26597222222327
 20
-103.0802951388886
 30
0.0
  0
SPLINE
  5
125
330
1F
100
AcDbEntity
  8
0
  6
Continuous
 62
     7
370
    25
100
AcDbSpline
210
0.0
220
0.0
230
1.0
 70
     8
 71
     3
 72
    11
 73
     7
 74
     0
 42
0.00000001
 43
0.00000001
 40
0.0
 40
0.0
 40
0.0
 40
0.0
 40
0.286116982965587
 40
0.5446058600775648
 40
0.782294265333145
 40
1.0
 40
1.0
 40
1.0
 40
1.0
 10
24.26597222222328
 20
-104.4279513888887
 30
0.0
 10
24.26469967798417
 20
-104.4960761233404
 30
0.0
 10
24.26227746926855
 20
-104.6257473131246
 30
0.0
 10
24.23348983303503
 20
-104.8100287249234
 30
0.0
 10
24.1878989814065
 20
-104.9745237711521
 30
0.0
 10
24.13941222090662
 20
-105.0716319953213
 30
0.0
 10
24.11623263888994
 20
-105.1180555555553
 30
0.0
  0
SPLINE
  5
126
330
1F
100
AcDbEntity
  8
0
  6
Continuous
 62
     7
370
    25
100
AcDbSpline
210
0.0
220
0.0
230
1.0
 70
     8
 71
     3
 72
    11
 73
     7
 74
     0
 42
0.00000001
 43
0.00000001
 40
0.0
 40
0.0
 40
0.0
 40
0.0
 40
0.2333588799629366
 40
0.4720312980874374
 40
0.7278840296407444
 40
1.0
 40
1.0
 40
1.0
 40
1.0
 10
24.11623263888994
 20
-105.1180555555553
 30
0.0
 10
24.09783437853112
 20
-105.1485540797119
 30
0.0
 10
24.06061893285746
 20
-105.2102455737303
 30
0.0
 10
23.98178651790972
 20
-105.2894766139575
 30
0.0
 10
23.88569077644552
 20
-105.3566188360895
 30
0.0
 10
23.81299061873721
 20
-105.3910884624109
 30
0.0
 10
23.7755208333344
 20
-105.4088541666664
 30
0.0
  0
SPLINE
  5
127
330
1F
100
AcDbEntity
  8
0
  6
Continuous
 62
     7
370
    25
100
AcDbSpline
210
0.0
220
0.0
230
1.0
 70
     8
 71
     3
 72
    15
 73
    11
 74
     0
 42
0.00000001
 43
0.00000001
 40
0.0
 40
0.0
 40
0.0
 40
0.0
 40
0.0613929564847393
 40
0.1375125657304191
 40
0.2347752365658263
 40
0.3503653280824212
 40
0.4848364312453918
 40
0.6359029609429145
 40
0.8083716426091331
 40
1.0
 40
1.0
 40
1.0
 40
1.0
 10
23.7755208333344
 20
-105.4088541666664
 30
0.0
 10
23.75832518527586
 20
-105.4159098301798
 30
0.0
 10
23.7198090782284
 20
-105.4317136364827
 30
0.0
 10
23.64979865051992
 20
-105.4446843865131
 30
0.0
 10
23.56414226214228
 20
-105.4611691173584
 30
0.0
 10
23.45949220308383
 20
-105.4703836629498
 30
0.0
 10
23.33870474087582
 20
-105.4790384926599
 30
0.0
 10
23.20050971629674
 20
-105.4861591482923
 30
0.0
 10
23.04490070510618
 20
-105.4867380128187
 30
0.0
 10
22.93495106351162
 20
-105.4883178300294
 30
0.0
 10
22.87708333333439
 20
-105.4891493055553
 30
0.0
  0
SPLINE
  5
129
330
1F
100
AcDbEntity
  8
0
  6
Continuous
 62
     7
370
    25
100
AcDbSpline
210
0.0
220
0.0
230
1.0
 70
     8
 71
     3
 72
    23
 73
    19
 74
     0
 42
0.00000001
 43
0.00000001
 40
0.0
 40
0.0
 40
0.0
 40
0.0
 40
0.0846127534506957
 40
0.1619144606629831
 40
0.2298806845577123
 40
0.2895648750439984
 40
0.3420514708676086
 40
0.3854965674004627
 40
0.4217551846928431
 40
0.4495088320332221
 40
0.4986124906573491
 40
0.5519752119292854
 40
0.6097553304323368
 40
0.6732052240175822
 40
0.7433128260372261
 40
0.8203600646127923
 40
0.9048566891820671
 40
1.0
 40
1.0
 40
1.0
 40
1.0
 10
16.21041666666773
 20
-105.4891493055554
 30
0.0
 10
16.15182520409753
 20
-105.4883208285279
 30
0.0
 10
16.03970493056173
 20
-105.4867354598262
 30
0.0
 10
15.88048467492711
 20
-105.4861237983253
 30
0.0
 10
15.73866210150804
 20
-105.4791514344642
 30
0.0
 10
15.61428486089379
 20
-105.4701805714452
 30
0.0
 10
15.50670604450084
 20
-105.4614308592805
 30
0.0
 10
15.41682076910311
 20
-105.4440776817426
 30
0.0
 10
15.34316943289549
 20
-105.4319774369449
 30
0.0
 10
15.26938882042728
 20
-105.4047311734023
 30
0.0
 10
15.19033605539036
 20
-105.3601171012025
 30
0.0
 10
15.10579005838042
 20
-105.287269565242
 30
0.0
 10
15.02754634152136
 20
-105.1946031403929
 30
0.0
 10
14.95530512350199
 20
-105.0831008119061
 30
0.0
 10
14.89394004890074
 20
-104.9500502056634
 30
0.0
 10
14.85203933432797
 20
-104.794622147458
 30
0.0
 10
14.82561053926262
 20
-104.6183781576016
 30
0.0
 10
14.82294142817496
 20
-104.4938863885436
 30
0.0
 10
14.82152777777883
 20
-104.4279513888887
 30
0.0
  0
SPLINE
  5
12F
330
1F
100
AcDbEntity
  8
0
  6
Continuous
 62
     7
370
    25
100
AcDbSpline
210
0.0
220
0.0
230
1.0
 70
     8
 71
     3
 72
    11
 73
     7
 74
     0
 42
0.00000001
 43
0.00000001
 40
0.0
 40
0.0
 40
0.0
 40
0.0
 40
0.2869538933514464
 40
0.5461988668811969
 40
0.781657462202776
 40
1.0
 40
1.0
 40
1.0
 40
1.0
 10
14.82152777777887
 20
-108.9136284722221
 30
0.0
 10
14.82282692790556
 20
-108.8455114825894
 30
0.0
 10
14.82529977927137
 20
-108.7158550345859
 30
0.0
 10
14.85363871491972
 20
-108.5321612844546
 30
0.0
 10
14.9000596078496
 20
-108.3686455468407
 30
0.0
 10
14.94813587564123
 20
-108.2721314010485
 30
0.0
 10
14.97126736111221
 20
-108.2256944444443
 30
0.0
  0
SPLINE
  5
130
330
1F
100
AcDbEntity
  8
0
  6
Continuous
 62
     7
370
    25
100
AcDbSpline
210
0.0
220
0.0
230
1.0
 70
     8
 71
     3
 72
    11
 73
     7
 74
     0
 42
0.00000001
 43
0.00000001
 40
0.0
 40
0.0
 40
0.0
 40
0.0
 40
0.2322074352791523
 40
0.4697021905392547
 40
0.7270458402700826
 40
1.0
 40
1.0
 40
1.0
 40
1.0
 10
14.97126736111221
 20
-108.2256944444443
 30
0.0
 10
14.98964271855927
 20
-108.1951662306111
 30
0.0
 10
15.0268118369144
 20
-108.1334146812111
 30
0.0
 10
15.10630737401691
 20
-108.0543535937937
 30
0.0
 10
15.20156707812642
 20
-107.9848840270941
 30
0.0
 10
15.274459882548
 20
-107.9490169884146
 30
0.0
 10
15.31197916666775
 20
-107.9305555555554
 30
0.0
  0
SPLINE
  5
131
330
1F
100
AcDbEntity
  8
0
  6
Continuous
 62
     7
370
    25
100
AcDbSpline
210
0.0
220
0.0
230
1.0
 70
     8
 71
     3
 72
    15
 73
    11
 74
     0
 42
0.00000001
 43
0.00000001
 40
0.0
 40
0.0
 40
0.0
 40
0.0
 40
0.0613943520403139
 40
0.1398538629143184
 40
0.2347602763706175
 40
0.3503529954263572
 40
0.4848271553226716
 40
0.6382896720196866
 40
0.8083672866041933
 40
1.0
 40
1.0
 40
1.0
 40
1.0
 10
15.31197916666775
 20
-107.9305555555554
 30
0.0
 10
15.32916843312225
 20
-107.9234673311299
 30
0.0
 10
15.36832489026257
 20
-107.9073206411794
 30
0.0
 10
15.43854391206108
 20
-107.8953155787825
 30
0.0
 10
15.52401763208583
 20
-107.8779079909221
 30
0.0
 10
15.62802532109206
 20
-107.8691236648901
 30
0.0
 10
15.7495088805526
 20
-107.8602621071049
 30
0.0
 10
15.88771919591382
 20
-107.8533546984898
 30
0.0
 10
16.04332111007854
 20
-107.8526303014327
 30
0.0
 10
16.15254845018863
 20
-107.8510811506673
 30
0.0
 10
16.21041666666775
 20
-107.8502604166665
 30
0.0
  0
SPLINE
  5
133
330
1F
100
AcDbEntity
  8
0
  6
Continuous
 62
     7
370
    25
100
AcDbSpline
210
0.0
220
0.0
230
1.0
 70
     8
 71
     3
 72
    23
 73
    19
 74
     0
 42
0.00000001
 43
0.00000001
 40
0.0
 40
0.0
 40
0.0
 40
0.0
 40
0.0847108085239086
 40
0.1621020982666208
 40
0.2301470860921783
 40
0.2899827413600637
 40
0.3414897243749192
 40
0.3860163327560114
 40
0.4215250813853099
 40
0.4493108915594338
 40
0.4998966938826108
 40
0.5526518129057059
 40
0.6112968194059869
 40
0.6748202430881404
 40
0.7440600720830894
 40
0.8211965982933291
 40
0.9057911433576887
 40
1.0
 40
1.0
 40
1.0
 40
1.0
 10
22.87708333333442
 20
-107.8502604166665
 30
0.0
 10
22.93567660436452
 20
-107.8510621781663
 30
0.0
 10
23.0478003385584
 20
-107.8525964241934
 30
0.0
 10
23.20699730118737
 20
-107.8535521823145
 30
0.0
 10
23.348950536525
 20
-107.8594374416316
 30
0.0
 10
23.47244042666277
 20
-107.8717067427982
 30
0.0
 10
23.57992427574668
 20
-107.8808426194619
 30
0.0
 10
23.66973208754679
 20
-107.8959843358833
 30
0.0
 10
23.74249861645554
 20
-107.9126658407921
 30
0.0
 10
23.81705822946005
 20
-107.9388820693899
 30
0.0
 10
23.89534689177346
 20
-107.9858736499617
 30
0.0
 10
23.98327190297205
 20
-108.0562417780976
 30
0.0
 10
24.05909658498387
 20
-108.1514180056647
 30
0.0
 10
24.13177859736518
 20
-108.2621991581265
 30
0.0
 10
24.19404743321589
 20
-108.3942209796993
 30
0.0
 10
24.23536333896345
 20
-108.5491633386158
 30
0.0
 10
24.26181089018245
 20
-108.7246443071255
 30
0.0
 10
24.264536263501
 20
-108.8484153487347
 30
0.0
 10
24.26597222222332
 20
-108.913628472222
 30
0.0
  0
SPLINE
  5
139
330
1F
100
AcDbEntity
  8
0
  6
Continuous
 62
     7
370
    25
100
AcDbSpline
210
0.0
220
0.0
230
1.0
 70
     8
 71
     3
 72
    11
 73
     7
 74
     0
 42
0.00000001
 43
0.00000001
 40
0.0
 40
0.0
 40
0.0
 40
0.0
 40
0.2861169829655624
 40
0.5446058600775356
 40
0.7822942653331488
 40
1.0
 40
1.0
 40
1.0
 40
1.0
 10
24.26597222222368
 20
-143.1045138888887
 30
0.0
 10
24.26469967798457
 20
-143.1726386233403
 30
0.0
 10
24.26227746926896
 20
-143.3023098131246
 30
0.0
 10
24.23348983303544
 20
-143.4865912249235
 30
0.0
 10
24.1878989814069
 20
-143.6510862711521
 30
0.0
 10
24.13941222090702
 20
-143.7481944953213
 30
0.0
 10
24.11623263889036
 20
-143.7946180555554
 30
0.0
  0
SPLINE
  5
13A
330
1F
100
AcDbEntity
  8
0
  6
Continuous
 62
     7
370
    25
100
AcDbSpline
210
0.0
220
0.0
230
1.0
 70
     8
 71
     3
 72
    11
 73
     7
 74
     0
 42
0.00000001
 43
0.00000001
 40
0.0
 40
0.0
 40
0.0
 40
0.0
 40
0.2333588799629157
 40
0.4720312980873994
 40
0.7278840296407114
 40
1.0
 40
1.0
 40
1.0
 40
1.0
 10
24.11623263889036
 20
-143.7946180555554
 30
0.0
 10
24.09783437853152
 20
-143.825116579712
 30
0.0
 10
24.06061893285787
 20
-143.8868080737304
 30
0.0
 10
23.98178651791011
 20
-143.9660391139575
 30
0.0
 10
23.88569077644592
 20
-144.0331813360896
 30
0.0
 10
23.81299061873762
 20
-144.0676509624109
 30
0.0
 10
23.77552083333481
 20
-144.0854166666665
 30
0.0
  0
SPLINE
  5
13B
330
1F
100
AcDbEntity
  8
0
  6
Continuous
 62
     7
370
    25
100
AcDbSpline
210
0.0
220
0.0
230
1.0
 70
     8
 71
     3
 72
    15
 73
    11
 74
     0
 42
0.00000001
 43
0.00000001
 40
0.0
 40
0.0
 40
0.0
 40
0.0
 40
0.0613929564847344
 40
0.1375125657304114
 40
0.2347752365658194
 40
0.3503653280824167
 40
0.4848364312453884
 40
0.6359029609429115
 40
0.8083716426091316
 40
0.9999999999999999
 40
0.9999999999999999
 40
0.9999999999999999
 40
0.9999999999999999
 10
23.77552083333481
 20
-144.0854166666665
 30
0.0
 10
23.75832518527629
 20
-144.0924723301798
 30
0.0
 10
23.71980907822883
 20
-144.1082761364828
 30
0.0
 10
23.6497986505203
 20
-144.1212468865131
 30
0.0
 10
23.56414226214269
 20
-144.1377316173584
 30
0.0
 10
23.45949220308421
 20
-144.1469461629499
 30
0.0
 10
23.33870474087624
 20
-144.1556009926599
 30
0.0
 10
23.20050971629714
 20
-144.1627216482924
 30
0.0
 10
23.04490070510659
 20
-144.1633005128188
 30
0.0
 10
22.93495106351202
 20
-144.1648803300294
 30
0.0
 10
22.8770833333348
 20
-144.1657118055554
 30
0.0
  0
SPLINE
  5
13D
330
1F
100
AcDbEntity
  8
0
  6
Continuous
 62
     7
370
    25
100
AcDbSpline
210
0.0
220
0.0
230
1.0
 70
     8
 71
     3
 72
    23
 73
    19
 74
     0
 42
0.00000001
 43
0.00000001
 40
0.0
 40
0.0
 40
0.0
 40
0.0
 40
0.0846127534506954
 40
0.1619144606629859
 40
0.2298806845577129
 40
0.2895648750439987
 40
0.3420514708676095
 40
0.3854965674004634
 40
0.4217551846928423
 40
0.4495088320332189
 40
0.4986124906573458
 40
0.5519752119292862
 40
0.6097553304323373
 40
0.6732052240175769
 40
0.7433128260372206
 40
0.820360064612793
 40
0.9048566891820674
 40
1.0
 40
1.0
 40
1.0
 40
1.0
 10
16.21041666666814
 20
-144.1657118055554
 30
0.0
 10
16.15182520409794
 20
-144.1648833285279
 30
0.0
 10
16.03970493056213
 20
-144.1632979598262
 30
0.0
 10
15.88048467492753
 20
-144.1626862983254
 30
0.0
 10
15.73866210150844
 20
-144.1557139344643
 30
0.0
 10
15.61428486089421
 20
-144.1467430714453
 30
0.0
 10
15.50670604450124
 20
-144.1379933592806
 30
0.0
 10
15.41682076910353
 20
-144.1206401817426
 30
0.0
 10
15.3431694328959
 20
-144.108539936945
 30
0.0
 10
15.26938882042766
 20
-144.0812936734024
 30
0.0
 10
15.19033605539076
 20
-144.0366796012026
 30
0.0
 10
15.10579005838084
 20
-143.963832065242
 30
0.0
 10
15.02754634152177
 20
-143.871165640393
 30
0.0
 10
14.95530512350239
 20
-143.7596633119061
 30
0.0
 10
14.89394004890114
 20
-143.6266127056634
 30
0.0
 10
14.85203933432838
 20
-143.471184647458
 30
0.0
 10
14.82561053926304
 20
-143.2949406576017
 30
0.0
 10
14.82294142817536
 20
-143.1704488885436
 30
0.0
 10
14.82152777777923
 20
-143.1045138888888
 30
0.0
  0
SPLINE
  5
143
330
1F
100
AcDbEntity
  8
0
  6
Continuous
 62
     7
370
    25
100
AcDbSpline
210
0.0
220
0.0
230
1.0
 70
     8
 71
     3
 72
    11
 73
     7
 74
     0
 42
0.00000001
 43
0.00000001
 40
0.0
 40
0.0
 40
0.0
 40
0.0
 40
0.2869538933514271
 40
0.5461988668811778
 40
0.7816574622027759
 40
1.0
 40
1.0
 40
1.0
 40
1.0
 10
14.82152777777929
 20
-147.5901909722221
 30
0.0
 10
14.82282692790596
 20
-147.5220739825894
 30
0.0
 10
14.82529977927177
 20
-147.3924175345859
 30
0.0
 10
14.85363871492014
 20
-147.2087237844547
 30
0.0
 10
14.90005960785
 20
-147.0452080468407
 30
0.0
 10
14.94813587564164
 20
-146.9486939010486
 30
0.0
 10
14.97126736111261
 20
-146.9022569444443
 30
0.0
  0
SPLINE
  5
144
330
1F
100
AcDbEntity
  8
0
  6
Continuous
 62
     7
370
    25
100
AcDbSpline
210
0.0
220
0.0
230
1.0
 70
     8
 71
     3
 72
    11
 73
     7
 74
     0
 42
0.00000001
 43
0.00000001
 40
0.0
 40
0.0
 40
0.0
 40
0.0
 40
0.2322074352791522
 40
0.4697021905392761
 40
0.7270458402700684
 40
0.9999999999999999
 40
0.9999999999999999
 40
0.9999999999999999
 40
0.9999999999999999
 10
14.97126736111261
 20
-146.9022569444443
 30
0.0
 10
14.98964271855968
 20
-146.8717287306112
 30
0.0
 10
15.02681183691482
 20
-146.8099771812111
 30
0.0
 10
15.1063073740173
 20
-146.7309160937938
 30
0.0
 10
15.20156707812684
 20
-146.6614465270941
 30
0.0
 10
15.2744598825484
 20
-146.6255794884147
 30
0.0
 10
15.31197916666817
 20
-146.6071180555554
 30
0.0
  0
SPLINE
  5
145
330
1F
100
AcDbEntity
  8
0
  6
Continuous
 62
     7
370
    25
100
AcDbSpline
210
0.0
220
0.0
230
1.0
 70
     8
 71
     3
 72
    15
 73
    11
 74
     0
 42
0.00000001
 43
0.00000001
 40
0.0
 40
0.0
 40
0.0
 40
0.0
 40
0.0613943520403137
 40
0.139853862914318
 40
0.2347602763706166
 40
0.3503529954263558
 40
0.484827155322666
 40
0.6382896720196841
 40
0.8083672866041944
 40
0.9999999999999999
 40
0.9999999999999999
 40
0.9999999999999999
 40
0.9999999999999999
 10
15.31197916666817
 20
-146.6071180555554
 30
0.0
 10
15.32916843312265
 20
-146.6000298311299
 30
0.0
 10
15.36832489026298
 20
-146.5838831411794
 30
0.0
 10
15.43854391206149
 20
-146.5718780787826
 30
0.0
 10
15.52401763208625
 20
-146.5544704909221
 30
0.0
 10
15.62802532109246
 20
-146.5456861648902
 30
0.0
 10
15.74950888055301
 20
-146.536824607105
 30
0.0
 10
15.88771919591422
 20
-146.5299171984898
 30
0.0
 10
16.04332111007896
 20
-146.5291928014327
 30
0.0
 10
16.15254845018904
 20
-146.5276436506674
 30
0.0
 10
16.21041666666817
 20
-146.5268229166666
 30
0.0
  0
SPLINE
  5
147
330
1F
100
AcDbEntity
  8
0
  6
Continuous
 62
     7
370
    25
100
AcDbSpline
210
0.0
220
0.0
230
1.0
 70
     8
 71
     3
 72
    23
 73
    19
 74
     0
 42
0.00000001
 43
0.00000001
 40
0.0
 40
0.0
 40
0.0
 40
0.0
 40
0.0847108085239085
 40
0.1621020982666208
 40
0.2301470860921784
 40
0.2899827413600639
 40
0.34148972437492
 40
0.3860163327560123
 40
0.4215250813853107
 40
0.4493108915594302
 40
0.4998966938826105
 40
0.5526518129057099
 40
0.6112968194059807
 40
0.6748202430881399
 40
0.7440600720830828
 40
0.8211965982933356
 40
0.9057911433576952
 40
1.0
 40
1.0
 40
1.0
 40
1.0
 10
22.87708333333482
 20
-146.5268229166665
 30
0.0
 10
22.93567660436492
 20
-146.5276246781663
 30
0.0
 10
23.0478003385588
 20
-146.5291589241934
 30
0.0
 10
23.20699730118778
 20
-146.5301146823145
 30
0.0
 10
23.34895053652541
 20
-146.5359999416316
 30
0.0
 10
23.47244042666316
 20
-146.5482692427982
 30
0.0
 10
23.57992427574711
 20
-146.557405119462
 30
0.0
 10
23.66973208754719
 20
-146.5725468358834
 30
0.0
 10
23.74249861645594
 20
-146.5892283407922
 30
0.0
 10
23.81705822946048
 20
-146.61544456939
 30
0.0
 10
23.89534689177388
 20
-146.6624361499618
 30
0.0
 10
23.98327190297245
 20
-146.7328042780977
 30
0.0
 10
24.05909658498429
 20
-146.8279805056647
 30
0.0
 10
24.1317785973656
 20
-146.9387616581267
 30
0.0
 10
24.1940474332163
 20
-147.0707834796993
 30
0.0
 10
24.23536333896384
 20
-147.2257258386159
 30
0.0
 10
24.26181089018288
 20
-147.4012068071256
 30
0.0
 10
24.26453626350141
 20
-147.5249778487348
 30
0.0
 10
24.26597222222374
 20
-147.590190972222
 30
0.0
  0
SPLINE
  5
14D
330
1F
100
AcDbEntity
  8
0
  6
Continuous
 62
     7
370
    25
100
AcDbSpline
210
0.0
220
0.0
230
1.0
 70
     8
 71
     3
 72
    11
 73
     7
 74
     0
 42
0.00000001
 43
0.00000001
 40
0.0
 40
0.0
 40
0.0
 40
0.0
 40
0.2861169829655624
 40
0.5446058600775356
 40
0.7822942653331488
 40
1.0
 40
1.0
 40
1.0
 40
1.0
 10
24.26597222222374
 20
-148.937847222222
 30
0.0
 10
24.26469967798463
 20
-149.0059719566736
 30
0.0
 10
24.26227746926901
 20
-149.1356431464579
 30
0.0
 10
24.2334898330355
 20
-149.3199245582568
 30
0.0
 10
24.18789898140697
 20
-149.4844196044855
 30
0.0
 10
24.13941222090707
 20
-149.5815278286546
 30
0.0
 10
24.11623263889041
 20
-149.6279513888886
 30
0.0
  0
SPLINE
  5
14E
330
1F
100
AcDbEntity
  8
0
  6
Continuous
 62
     7
370
    25
100
AcDbSpline
210
0.0
220
0.0
230
1.0
 70
     8
 71
     3
 72
    11
 73
     7
 74
     0
 42
0.00000001
 43
0.00000001
 40
0.0
 40
0.0
 40
0.0
 40
0.0
 40
0.2333588799629157
 40
0.4720312980873994
 40
0.7278840296407114
 40
1.0
 40
1.0
 40
1.0
 40
1.0
 10
24.11623263889041
 20
-149.6279513888886
 30
0.0
 10
24.09783437853158
 20
-149.6584499130452
 30
0.0
 10
24.06061893285792
 20
-149.7201414070637
 30
0.0
 10
23.98178651791017
 20
-149.7993724472908
 30
0.0
 10
23.88569077644598
 20
-149.8665146694228
 30
0.0
 10
23.81299061873768
 20
-149.9009842957442
 30
0.0
 10
23.77552083333487
 20
-149.9187499999998
 30
0.0
  0
SPLINE
  5
14F
330
1F
100
AcDbEntity
  8
0
  6
Continuous
 62
     7
370
    25
100
AcDbSpline
210
0.0
220
0.0
230
1.0
 70
     8
 71
     3
 72
    15
 73
    11
 74
     0
 42
0.00000001
 43
0.00000001
 40
0.0
 40
0.0
 40
0.0
 40
0.0
 40
0.0613929564847343
 40
0.1375125657304111
 40
0.2347752365658242
 40
0.3503653280824181
 40
0.4848364312453896
 40
0.6359029609429124
 40
0.8083716426091322
 40
1.0
 40
1.0
 40
1.0
 40
1.0
 10
23.77552083333487
 20
-149.9187499999998
 30
0.0
 10
23.75832518527633
 20
-149.9258056635131
 30
0.0
 10
23.71980907822888
 20
-149.9416094698161
 30
0.0
 10
23.64979865052036
 20
-149.9545802198464
 30
0.0
 10
23.56414226214273
 20
-149.9710649506916
 30
0.0
 10
23.45949220308428
 20
-149.9802794962832
 30
0.0
 10
23.33870474087629
 20
-149.9889343259932
 30
0.0
 10
23.20050971629721
 20
-149.9960549816257
 30
0.0
 10
23.04490070510665
 20
-149.996633846152
 30
0.0
 10
22.93495106351208
 20
-149.9982136633627
 30
0.0
 10
22.87708333333485
 20
-149.9990451388886
 30
0.0
  0
SPLINE
  5
151
330
1F
100
AcDbEntity
  8
0
  6
Continuous
 62
     7
370
    25
100
AcDbSpline
210
0.0
220
0.0
230
1.0
 70
     8
 71
     3
 72
    23
 73
    19
 74
     0
 42
0.00000001
 43
0.00000001
 40
0.0
 40
0.0
 40
0.0
 40
0.0
 40
0.0846127534506953
 40
0.1619144606629858
 40
0.2298806845577127
 40
0.2895648750439985
 40
0.3420514708676078
 40
0.385496567400464
 40
0.4217551846928428
 40
0.4495088320332194
 40
0.4986124906573464
 40
0.5519752119292868
 40
0.6097553304323378
 40
0.6732052240175773
 40
0.7433128260372209
 40
0.8203600646127931
 40
0.9048566891820674
 40
1.0
 40
1.0
 40
1.0
 40
1.0
 10
16.2104166666682
 20
-149.9990451388887
 30
0.0
 10
16.151825204098
 20
-149.9982166618612
 30
0.0
 10
16.03970493056218
 20
-149.9966312931595
 30
0.0
 10
15.88048467492759
 20
-149.9960196316586
 30
0.0
 10
15.73866210150848
 20
-149.9890472677976
 30
0.0
 10
15.61428486089426
 20
-149.9800764047786
 30
0.0
 10
15.50670604450129
 20
-149.9713266926138
 30
0.0
 10
15.41682076910358
 20
-149.9539735150759
 30
0.0
 10
15.34316943289596
 20
-149.9418732702783
 30
0.0
 10
15.26938882042772
 20
-149.9146270067356
 30
0.0
 10
15.19033605539082
 20
-149.8700129345359
 30
0.0
 10
15.10579005838089
 20
-149.7971653985752
 30
0.0
 10
15.02754634152183
 20
-149.7044989737263
 30
0.0
 10
14.95530512350245
 20
-149.5929966452394
 30
0.0
 10
14.8939400489012
 20
-149.4599460389967
 30
0.0
 10
14.85203933432844
 20
-149.3045179807913
 30
0.0
 10
14.82561053926308
 20
-149.1282739909349
 30
0.0
 10
14.82294142817542
 20
-149.0037822218769
 30
0.0
 10
14.82152777777929
 20
-148.937847222222
 30
0.0
  0
SPLINE
  5
157
330
1F
100
AcDbEntity
  8
0
  6
Continuous
 62
     7
370
    25
100
AcDbSpline
210
0.0
220
0.0
230
1.0
 70
     8
 71
     3
 72
    11
 73
     7
 74
     0
 42
0.00000001
 43
0.00000001
 40
0.0
 40
0.0
 40
0.0
 40
0.0
 40
0.2869538933514271
 40
0.5461988668811778
 40
0.7816574622027759
 40
1.0
 40
1.0
 40
1.0
 40
1.0
 10
14.82152777777934
 20
-153.4235243055554
 30
0.0
 10
14.82282692790601
 20
-153.3554073159227
 30
0.0
 10
14.82529977927183
 20
-153.2257508679192
 30
0.0
 10
14.85363871492019
 20
-153.0420571177879
 30
0.0
 10
14.90005960785004
 20
-152.878541380174
 30
0.0
 10
14.9481358756417
 20
-152.7820272343818
 30
0.0
 10
14.97126736111266
 20
-152.7355902777776
 30
0.0
  0
SPLINE
  5
158
330
1F
100
AcDbEntity
  8
0
  6
Continuous
 62
     7
370
    25
100
AcDbSpline
210
0.0
220
0.0
230
1.0
 70
     8
 71
     3
 72
    11
 73
     7
 74
     0
 42
0.00000001
 43
0.00000001
 40
0.0
 40
0.0
 40
0.0
 40
0.0
 40
0.2322074352791522
 40
0.4697021905392761
 40
0.7270458402700684
 40
0.9999999999999999
 40
0.9999999999999999
 40
0.9999999999999999
 40
0.9999999999999999
 10
14.97126736111266
 20
-152.7355902777776
 30
0.0
 10
14.98964271855974
 20
-152.7050620639444
 30
0.0
 10
15.02681183691487
 20
-152.6433105145444
 30
0.0
 10
15.10630737401736
 20
-152.5642494271271
 30
0.0
 10
15.20156707812689
 20
-152.4947798604274
 30
0.0
 10
15.27445988254846
 20
-152.458912821748
 30
0.0
 10
15.31197916666821
 20
-152.4404513888887
 30
0.0
  0
SPLINE
  5
159
330
1F
100
AcDbEntity
  8
0
  6
Continuous
 62
     7
370
    25
100
AcDbSpline
210
0.0
220
0.0
230
1.0
 70
     8
 71
     3
 72
    15
 73
    11
 74
     0
 42
0.00000001
 43
0.00000001
 40
0.0
 40
0.0
 40
0.0
 40
0.0
 40
0.0613943520403137
 40
0.139853862914318
 40
0.2347602763706166
 40
0.3503529954263558
 40
0.484827155322666
 40
0.6382896720196841
 40
0.8083672866041944
 40
0.9999999999999999
 40
0.9999999999999999
 40
0.9999999999999999
 40
0.9999999999999999
 10
15.31197916666821
 20
-152.4404513888887
 30
0.0
 10
15.32916843312271
 20
-152.4333631644632
 30
0.0
 10
15.36832489026303
 20
-152.4172164745127
 30
0.0
 10
15.43854391206155
 20
-152.4052114121159
 30
0.0
 10
15.5240176320863
 20
-152.3878038242554
 30
0.0
 10
15.6280253210925
 20
-152.3790194982234
 30
0.0
 10
15.74950888055306
 20
-152.3701579404382
 30
0.0
 10
15.88771919591428
 20
-152.3632505318231
 30
0.0
 10
16.043321110079
 20
-152.362526134766
 30
0.0
 10
16.15254845018908
 20
-152.3609769840007
 30
0.0
 10
16.21041666666823
 20
-152.3601562499998
 30
0.0
  0
SPLINE
  5
15B
330
1F
100
AcDbEntity
  8
0
  6
Continuous
 62
     7
370
    25
100
AcDbSpline
210
0.0
220
0.0
230
1.0
 70
     8
 71
     3
 72
    23
 73
    19
 74
     0
 42
0.00000001
 43
0.00000001
 40
0.0
 40
0.0
 40
0.0
 40
0.0
 40
0.0847108085239085
 40
0.1621020982666208
 40
0.2301470860921784
 40
0.2899827413600639
 40
0.34148972437492
 40
0.3860163327560123
 40
0.4215250813853107
 40
0.4493108915594302
 40
0.4998966938826105
 40
0.5526518129057099
 40
0.6112968194059807
 40
0.6748202430881399
 40
0.7440600720830828
 40
0.8211965982933356
 40
0.9057911433576952
 40
1.0
 40
1.0
 40
1.0
 40
1.0
 10
22.87708333333488
 20
-152.3601562499998
 30
0.0
 10
22.93567660436498
 20
-152.3609580114996
 30
0.0
 10
23.04780033855885
 20
-152.3624922575266
 30
0.0
 10
23.20699730118784
 20
-152.3634480156479
 30
0.0
 10
23.34895053652547
 20
-152.3693332749649
 30
0.0
 10
23.47244042666322
 20
-152.3816025761314
 30
0.0
 10
23.57992427574716
 20
-152.3907384527953
 30
0.0
 10
23.66973208754725
 20
-152.4058801692166
 30
0.0
 10
23.742498616456
 20
-152.4225616741255
 30
0.0
 10
23.81705822946054
 20
-152.4487779027232
 30
0.0
 10
23.89534689177392
 20
-152.4957694832951
 30
0.0
 10
23.9832719029725
 20
-152.5661376114309
 30
0.0
 10
24.05909658498434
 20
-152.6613138389979
 30
0.0
 10
24.13177859736565
 20
-152.7720949914599
 30
0.0
 10
24.19404743321636
 20
-152.9041168130326
 30
0.0
 10
24.23536333896391
 20
-153.0590591719492
 30
0.0
 10
24.26181089018294
 20
-153.2345401404589
 30
0.0
 10
24.26453626350146
 20
-153.3583111820681
 30
0.0
 10
24.26597222222379
 20
-153.4235243055553
 30
0.0
  0
SPLINE
  5
161
330
1F
100
AcDbEntity
  8
0
  6
Continuous
 62
     7
370
    25
100
AcDbSpline
210
0.0
220
0.0
230
1.0
 70
     8
 71
     3
 72
    11
 73
     7
 74
     0
 42
0.00000001
 43
0.00000001
 40
0.0
 40
0.0
 40
0.0
 40
0.0
 40
0.2861169829655624
 40
0.5446058600775356
 40
0.7822942653331488
 40
1.0
 40
1.0
 40
1.0
 40
1.0
 10
24.26597222222381
 20
-154.7711805555554
 30
0.0
 10
24.2646996779847
 20
-154.8393052900071
 30
0.0
 10
24.26227746926908
 20
-154.9689764797913
 30
0.0
 10
24.23348983303556
 20
-155.1532578915902
 30
0.0
 10
24.18789898140702
 20
-155.3177529378188
 30
0.0
 10
24.13941222090714
 20
-155.4148611619879
 30
0.0
 10
24.11623263889047
 20
-155.461284722222
 30
0.0
  0
SPLINE
  5
162
330
1F
100
AcDbEntity
  8
0
  6
Continuous
 62
     7
370
    25
100
AcDbSpline
210
0.0
220
0.0
230
1.0
 70
     8
 71
     3
 72
    11
 73
     7
 74
     0
 42
0.00000001
 43
0.00000001
 40
0.0
 40
0.0
 40
0.0
 40
0.0
 40
0.2333588799629157
 40
0.4720312980873994
 40
0.7278840296407114
 40
1.0
 40
1.0
 40
1.0
 40
1.0
 10
24.11623263889047
 20
-155.461284722222
 30
0.0
 10
24.09783437853165
 20
-155.4917832463786
 30
0.0
 10
24.06061893285799
 20
-155.553474740397
 30
0.0
 10
23.98178651791023
 20
-155.6327057806241
 30
0.0
 10
23.88569077644605
 20
-155.6998480027563
 30
0.0
 10
23.81299061873773
 20
-155.7343176290776
 30
0.0
 10
23.77552083333492
 20
-155.7520833333332
 30
0.0
  0
SPLINE
  5
163
330
1F
100
AcDbEntity
  8
0
  6
Continuous
 62
     7
370
    25
100
AcDbSpline
210
0.0
220
0.0
230
1.0
 70
     8
 71
     3
 72
    15
 73
    11
 74
     0
 42
0.00000001
 43
0.00000001
 40
0.0
 40
0.0
 40
0.0
 40
0.0
 40
0.0613929564847344
 40
0.1375125657304114
 40
0.2347752365658194
 40
0.3503653280824167
 40
0.4848364312453884
 40
0.6359029609429115
 40
0.8083716426091316
 40
0.9999999999999999
 40
0.9999999999999999
 40
0.9999999999999999
 40
0.9999999999999999
 10
23.77552083333492
 20
-155.7520833333332
 30
0.0
 10
23.7583251852764
 20
-155.7591389968465
 30
0.0
 10
23.71980907822894
 20
-155.7749428031495
 30
0.0
 10
23.64979865052043
 20
-155.7879135531798
 30
0.0
 10
23.56414226214282
 20
-155.8043982840251
 30
0.0
 10
23.45949220308434
 20
-155.8136128296165
 30
0.0
 10
23.33870474087636
 20
-155.8222676593266
 30
0.0
 10
23.20050971629727
 20
-155.829388314959
 30
0.0
 10
23.0449007051067
 20
-155.8299671794854
 30
0.0
 10
22.93495106351215
 20
-155.831546996696
 30
0.0
 10
22.87708333333492
 20
-155.832378472222
 30
0.0
  0
SPLINE
  5
165
330
1F
100
AcDbEntity
  8
0
  6
Continuous
 62
     7
370
    25
100
AcDbSpline
210
0.0
220
0.0
230
1.0
 70
     8
 71
     3
 72
    23
 73
    19
 74
     0
 42
0.00000001
 43
0.00000001
 40
0.0
 40
0.0
 40
0.0
 40
0.0
 40
0.0846127534506955
 40
0.1619144606629828
 40
0.2298806845577116
 40
0.2895648750439975
 40
0.3420514708676083
 40
0.3854965674004624
 40
0.4217551846928413
 40
0.449508832033218
 40
0.498612490657345
 40
0.5519752119292856
 40
0.6097553304323367
 40
0.6732052240175763
 40
0.7433128260372202
 40
0.8203600646127926
 40
0.9048566891820672
 40
1.0
 40
1.0
 40
1.0
 40
1.0
 10
16.21041666666826
 20
-155.8323784722221
 30
0.0
 10
16.15182520409805
 20
-155.8315499951946
 30
0.0
 10
16.03970493056226
 20
-155.8299646264929
 30
0.0
 10
15.88048467492764
 20
-155.829352964992
 30
0.0
 10
15.73866210150857
 20
-155.822380601131
 30
0.0
 10
15.61428486089433
 20
-155.813409738112
 30
0.0
 10
15.50670604450136
 20
-155.8046600259472
 30
0.0
 10
15.41682076910364
 20
-155.7873068484093
 30
0.0
 10
15.34316943289601
 20
-155.7752066036116
 30
0.0
 10
15.26938882042779
 20
-155.747960340069
 30
0.0
 10
15.19033605539087
 20
-155.7033462678693
 30
0.0
 10
15.10579005838096
 20
-155.6304987319087
 30
0.0
 10
15.0275463415219
 20
-155.5378323070596
 30
0.0
 10
14.95530512350252
 20
-155.4263299785728
 30
0.0
 10
14.89394004890127
 20
-155.29327937233
 30
0.0
 10
14.85203933432849
 20
-155.1378513141247
 30
0.0
 10
14.82561053926315
 20
-154.9616073242682
 30
0.0
 10
14.82294142817549
 20
-154.8371155552103
 30
0.0
 10
14.82152777777936
 20
-154.7711805555555
 30
0.0
  0
SPLINE
  5
16B
330
1F
100
AcDbEntity
  8
0
  6
Continuous
 62
     7
370
    25
100
AcDbSpline
210
0.0
220
0.0
230
1.0
 70
     8
 71
     3
 72
    11
 73
     7
 74
     0
 42
0.00000001
 43
0.00000001
 40
0.0
 40
0.0
 40
0.0
 40
0.0
 40
0.2869538933514271
 40
0.5461988668811778
 40
0.7816574622027759
 40
1.0
 40
1.0
 40
1.0
 40
1.0
 10
14.8215277777794
 20
-159.2568576388888
 30
0.0
 10
14.82282692790608
 20
-159.1887406492561
 30
0.0
 10
14.82529977927188
 20
-159.0590842012525
 30
0.0
 10
14.85363871492026
 20
-158.8753904511213
 30
0.0
 10
14.90005960785011
 20
-158.7118747135074
 30
0.0
 10
14.94813587564176
 20
-158.6153605677152
 30
0.0
 10
14.97126736111273
 20
-158.568923611111
 30
0.0
  0
SPLINE
  5
16C
330
1F
100
AcDbEntity
  8
0
  6
Continuous
 62
     7
370
    25
100
AcDbSpline
210
0.0
220
0.0
230
1.0
 70
     8
 71
     3
 72
    11
 73
     7
 74
     0
 42
0.00000001
 43
0.00000001
 40
0.0
 40
0.0
 40
0.0
 40
0.0
 40
0.2322074352791522
 40
0.4697021905392761
 40
0.7270458402700684
 40
0.9999999999999999
 40
0.9999999999999999
 40
0.9999999999999999
 40
0.9999999999999999
 10
14.97126736111273
 20
-158.568923611111
 30
0.0
 10
14.98964271855979
 20
-158.5383953972778
 30
0.0
 10
15.02681183691493
 20
-158.4766438478778
 30
0.0
 10
15.10630737401743
 20
-158.3975827604605
 30
0.0
 10
15.20156707812696
 20
-158.3281131937608
 30
0.0
 10
15.27445988254853
 20
-158.2922461550813
 30
0.0
 10
15.31197916666828
 20
-158.2737847222221
 30
0.0
  0
SPLINE
  5
16D
330
1F
100
AcDbEntity
  8
0
  6
Continuous
 62
     7
370
    25
100
AcDbSpline
210
0.0
220
0.0
230
1.0
 70
     8
 71
     3
 72
    15
 73
    11
 74
     0
 42
0.00000001
 43
0.00000001
 40
0.0
 40
0.0
 40
0.0
 40
0.0
 40
0.0613943520403139
 40
0.1398538629143185
 40
0.2347602763706175
 40
0.3503529954263572
 40
0.4848271553226717
 40
0.6382896720196867
 40
0.8083672866041938
 40
1.0
 40
1.0
 40
1.0
 40
1.0
 10
15.31197916666828
 20
-158.2737847222221
 30
0.0
 10
15.32916843312278
 20
-158.2666964977966
 30
0.0
 10
15.3683248902631
 20
-158.2505498078461
 30
0.0
 10
15.43854391206161
 20
-158.2385447454492
 30
0.0
 10
15.52401763208636
 20
-158.2211371575889
 30
0.0
 10
15.62802532109257
 20
-158.2123528315568
 30
0.0
 10
15.74950888055313
 20
-158.2034912737717
 30
0.0
 10
15.88771919591433
 20
-158.1965838651564
 30
0.0
 10
16.04332111007907
 20
-158.1958594680994
 30
0.0
 10
16.15254845018915
 20
-158.194310317334
 30
0.0
 10
16.21041666666828
 20
-158.1934895833332
 30
0.0
  0
SPLINE
  5
16F
330
1F
100
AcDbEntity
  8
0
  6
Continuous
 62
     7
370
    25
100
AcDbSpline
210
0.0
220
0.0
230
1.0
 70
     8
 71
     3
 72
    23
 73
    19
 74
     0
 42
0.00000001
 43
0.00000001
 40
0.0
 40
0.0
 40
0.0
 40
0.0
 40
0.0847108085239085
 40
0.1621020982666208
 40
0.2301470860921784
 40
0.2899827413600639
 40
0.34148972437492
 40
0.3860163327560123
 40
0.4215250813853107
 40
0.4493108915594302
 40
0.4998966938826105
 40
0.5526518129057099
 40
0.6112968194059807
 40
0.6748202430881399
 40
0.7440600720830828
 40
0.8211965982933356
 40
0.9057911433576952
 40
1.0
 40
1.0
 40
1.0
 40
1.0
 10
22.87708333333495
 20
-158.1934895833332
 30
0.0
 10
22.93567660436505
 20
-158.1942913448329
 30
0.0
 10
23.04780033855891
 20
-158.19582559086
 30
0.0
 10
23.20699730118791
 20
-158.1967813489812
 30
0.0
 10
23.34895053652552
 20
-158.2026666082983
 30
0.0
 10
23.47244042666329
 20
-158.2149359094648
 30
0.0
 10
23.57992427574723
 20
-158.2240717861287
 30
0.0
 10
23.6697320875473
 20
-158.23921350255
 30
0.0
 10
23.74249861645605
 20
-158.2558950074588
 30
0.0
 10
23.81705822946059
 20
-158.2821112360567
 30
0.0
 10
23.89534689177399
 20
-158.3291028166284
 30
0.0
 10
23.98327190297256
 20
-158.3994709447643
 30
0.0
 10
24.0590965849844
 20
-158.4946471723313
 30
0.0
 10
24.13177859736571
 20
-158.6054283247933
 30
0.0
 10
24.19404743321643
 20
-158.7374501463659
 30
0.0
 10
24.23536333896396
 20
-158.8923925052826
 30
0.0
 10
24.26181089018301
 20
-159.0678734737923
 30
0.0
 10
24.26453626350153
 20
-159.1916445154015
 30
0.0
 10
24.26597222222385
 20
-159.2568576388887
 30
0.0
  0
SPLINE
  5
173
330
1F
100
AcDbEntity
  8
0
  6
Continuous
 62
     7
370
    25
100
AcDbSpline
210
0.0
220
0.0
230
1.0
 70
     8
 71
     3
 72
    11
 73
     7
 74
     0
 42
0.00000001
 43
0.00000001
 40
0.0
 40
0.0
 40
0.0
 40
0.0
 40
0.2093610344976171
 40
0.446466954227715
 40
0.7084325846751198
 40
1.0
 40
1.0
 40
1.0
 40
1.0
 10
14.94522569444642
 20
-192.7511284722221
 30
0.0
 10
14.92579347996424
 20
-192.8071744571209
 30
0.0
 10
14.88435386043535
 20
-192.926693737461
 30
0.0
 10
14.84777493538748
 20
-193.1245161070226
 30
0.0
 10
14.82696302887304
 20
-193.3474530535993
 30
0.0
 10
14.82340298929112
 20
-193.5041130319432
 30
0.0
 10
14.82152777777976
 20
-193.5866319444443
 30
0.0
  0
SPLINE
  5
174
330
1F
100
AcDbEntity
  8
0
  6
Continuous
 62
     7
370
    25
100
AcDbSpline
210
0.0
220
0.0
230
1.0
 70
     8
 71
     3
 72
    15
 73
    11
 74
     0
 42
0.00000001
 43
0.00000001
 40
0.0
 40
0.0
 40
0.0
 40
0.0
 40
0.1264148361666342
 40
0.2482078891105179
 40
0.3663529512223506
 40
0.4864739598972162
 40
0.6071457326186342
 40
0.7331139182742629
 40
0.8616871807773729
 40
0.9999999999999999
 40
0.9999999999999999
 40
0.9999999999999999
 40
0.9999999999999999
 10
15.58541666666864
 20
-192.2910590277777
 30
0.0
 10
15.54977290053028
 20
-192.2917762443202
 30
0.0
 10
15.47978852036234
 20
-192.2931844556462
 30
0.0
 10
15.37987482725747
 20
-192.3200647442799
 30
0.0
 10
15.28385317396594
 20
-192.3529396206829
 30
0.0
 10
15.19767263473652
 20
-192.4065684568819
 30
0.0
 10
15.11773614917834
 20
-192.4721404735436
 30
0.0
 10
15.04940783025785
 20
-192.5529327889454
 30
0.0
 10
14.98845580589789
 20
-192.6455520701402
 30
0.0
 10
14.95998209821792
 20
-192.7150904430439
 30
0.0
 10
14.94522569444642
 20
-192.7511284722221
 30
0.0
  0
SPLINE
  5
175
330
1F
100
AcDbEntity
  8
0
  6
Continuous
 62
     7
370
    25
100
AcDbSpline
210
0.0
220
0.0
230
1.0
 70
     8
 71
     3
 72
    17
 73
    13
 74
     0
 42
0.00000001
 43
0.00000001
 40
0.0
 40
0.0
 40
0.0
 40
0.0
 40
0.1340703849795684
 40
0.2550331934463164
 40
0.3645759520974334
 40
0.461520962108003
 40
0.5458693035481996
 40
0.6183490298917522
 40
0.6782524972719768
 40
0.7251937003708052
 40
0.8766318358918331
 40
1.0
 40
1.0
 40
1.0
 40
1.0
 10
17.18263888889086
 20
-192.8335937499999
 30
0.0
 10
17.11326916663267
 20
-192.8030389474813
 30
0.0
 10
16.9813117489025
 20
-192.7449165749483
 30
0.0
 10
16.79151596375245
 20
-192.664511715058
 30
0.0
 10
16.62070028064366
 20
-192.5931183279734
 30
0.0
 10
16.46865373166711
 20
-192.5305413371563
 30
0.0
 10
16.33639692731743
 20
-192.4748284679414
 30
0.0
 10
16.22135628876008
 20
-192.432635788578
 30
0.0
 10
16.12651520584368
 20
-192.3966428539084
 30
0.0
 10
15.98692390894004
 20
-192.3539114203132
 30
0.0
 10
15.81059188503023
 20
-192.305150243163
 30
0.0
 10
15.65518370554697
 20
-192.2954249716803
 30
0.0
 10
15.58541666666864
 20
-192.2910590277777
 30
0.0
  0
SPLINE
  5
178
330
1F
100
AcDbEntity
  8
0
  6
Continuous
 62
     7
370
    25
100
AcDbSpline
210
0.0
220
0.0
230
1.0
 70
     8
 71
     3
 72
    17
 73
    13
 74
     0
 42
0.00000001
 43
0.00000001
 40
0.0
 40
0.0
 40
0.0
 40
0.0
 40
0.1027584357504484
 40
0.2244325439629714
 40
0.2655708949034
 40
0.323377293750184
 40
0.3969808414278547
 40
0.4852453705532472
 40
0.5893365059177845
 40
0.7107048626354334
 40
0.8467142167753104
 40
1.0
 40
1.0
 40
1.0
 40
1.0
 10
15.30112847222424
 20
-197.3257812499999
 30
0.0
 10
15.34908388774088
 20
-197.322150291987
 30
0.0
 10
15.45382230481193
 20
-197.3142199927578
 30
0.0
 10
15.57416316507931
 20
-197.2805751317182
 30
0.0
 10
15.67081301336916
 20
-197.2448984569401
 30
0.0
 10
15.74671334302835
 20
-197.2176245836676
 30
0.0
 10
15.84102839325716
 20
-197.1770521820126
 30
0.0
 10
15.95719237425872
 20
-197.132873877114
 30
0.0
 10
16.0920519682415
 20
-197.0753872115595
 30
0.0
 10
16.24686045418708
 20
-197.0078906809629
 30
0.0
 10
16.42423424215412
 20
-196.9346992189178
 30
0.0
 10
16.54831639159848
 20
-196.8810941358942
 30
0.0
 10
16.61406250000202
 20
-196.8526909722221
 30
0.0
  0
SPLINE
  5
179
330
1F
100
AcDbEntity
  8
0
  6
Continuous
 62
     7
370
    25
100
AcDbSpline
210
0.0
220
0.0
230
1.0
 70
     8
 71
     3
 72
    11
 73
     7
 74
     0
 42
0.00000001
 43
0.00000001
 40
0.0
 40
0.0
 40
0.0
 40
0.0
 40
0.2532001927111888
 40
0.495802611561333
 40
0.7340062081396359
 40
1.0
 40
1.0
 40
1.0
 40
1.0
 10
14.98211805555757
 20
-197.1565104166665
 30
0.0
 10
15.00118012692309
 20
-197.1822013069127
 30
0.0
 10
15.03850642064977
 20
-197.2325077870974
 30
0.0
 10
15.11407443657503
 20
-197.2883194991321
 30
0.0
 10
15.20401130177561
 20
-197.3200581786725
 30
0.0
 10
15.26758801488955
 20
-197.3238047258817
 30
0.0
 10
15.30112847222424
 20
-197.3257812499999
 30
0.0
  0
SPLINE
  5
17A
330
1F
100
AcDbEntity
  8
0
  6
Continuous
 62
     7
370
    25
100
AcDbSpline
210
0.0
220
0.0
230
1.0
 70
     8
 71
     3
 72
    11
 73
     7
 74
     0
 42
0.00000001
 43
0.00000001
 40
0.0
 40
0.0
 40
0.0
 40
0.0
 40
0.3293660339014151
 40
0.6029278382157025
 40
0.8237779144166779
 40
1.0
 40
1.0
 40
1.0
 40
1.0
 10
14.82152777777979
 20
-196.2776041666665
 30
0.0
 10
14.82328073347881
 20
-196.3768635627973
 30
0.0
 10
14.82648964296344
 20
-196.5585649131848
 30
0.0
 10
14.85647582890484
 20
-196.8046747223037
 30
0.0
 10
14.90023077615205
 20
-197.0037739762092
 30
0.0
 10
14.95694712941302
 20
-197.1095615170298
 30
0.0
 10
14.98211805555757
 20
-197.1565104166665
 30
0.0
  0
SPLINE
  5
17F
330
1F
100
AcDbEntity
  8
0
  6
Continuous
 62
     7
370
    25
100
AcDbSpline
210
0.0
220
0.0
230
1.0
 70
     8
 71
     3
 72
    19
 73
    15
 74
     0
 42
0.00000001
 43
0.00000001
 40
0.0
 40
0.0
 40
0.0
 40
0.0
 40
0.1341222032938361
 40
0.2537777220183084
 40
0.3597096311249125
 40
0.4519298584092784
 40
0.5301088219389186
 40
0.5935559983450391
 40
0.6438437621551167
 40
0.6800892475616552
 40
0.7423806785364594
 40
0.8147865791589967
 40
0.9004227975279016
 40
1.0
 40
1.0
 40
1.0
 40
1.0
 10
16.76163194444649
 20
-199.1942708333332
 30
0.0
 10
16.65157282245949
 20
-199.2432253406398
 30
0.0
 10
16.44332577179031
 20
-199.3358540258366
 30
0.0
 10
16.14975710275352
 20
-199.4707300754626
 30
0.0
 10
15.89161350847884
 20
-199.5924636162548
 30
0.0
 10
15.66754796148968
 20
-199.6992902343349
 30
0.0
 10
15.48200208097211
 20
-199.7976821283909
 30
0.0
 10
15.33011089523434
 20
-199.8793169039419
 30
0.0
 10
15.21549266701176
 20
-199.9500238944797
 30
0.0
 10
15.10624471772536
 20
-200.0279048406689
 30
0.0
 10
15.00836611222019
 20
-200.1491405747366
 30
0.0
 10
14.91932568800028
 20
-200.3270082998436
 30
0.0
 10
14.85686278418784
 20
-200.5510891357972
 30
0.0
 10
14.83388268275006
 20
-200.715903780675
 30
0.0
 10
14.82152777777984
 20
-200.8045138888887
 30
0.0
  0
SPLINE
  5
183
330
1F
100
AcDbEntity
  8
0
  6
Continuous
 62
     7
370
    25
100
AcDbSpline
210
0.0
220
0.0
230
1.0
 70
     8
 71
     3
 72
    15
 73
    11
 74
     0
 42
0.00000001
 43
0.00000001
 40
0.0
 40
0.0
 40
0.0
 40
0.0
 40
0.068683627341658
 40
0.1533209519054336
 40
0.2533002241433894
 40
0.3702611589231451
 40
0.5032979028420583
 40
0.6529704207924506
 40
0.817885702562697
 40
1.0
 40
1.0
 40
1.0
 40
1.0
 10
15.41180555555752
 20
-191.1669270833332
 30
0.0
 10
15.44755499928623
 20
-191.1950022978021
 30
0.0
 10
15.5273576968827
 20
-191.2576739820729
 30
0.0
 10
15.66956055356128
 20
-191.3467211587112
 30
0.0
 10
15.84216135315471
 20
-191.4466036820693
 30
0.0
 10
16.04527430750531
 20
-191.5578465838001
 30
0.0
 10
16.28351610211078
 20
-191.6725040241546
 30
0.0
 10
16.54856370888085
 20
-191.8044766041106
 30
0.0
 10
16.84783009518378
 20
-191.9401413534771
 30
0.0
 10
17.05744574603552
 20
-192.0336527518536
 30
0.0
 10
17.16744791666863
 20
-192.0827256944443
 30
0.0
  0
SPLINE
  5
184
330
1F
100
AcDbEntity
  8
0
  6
Continuous
 62
     7
370
    25
100
AcDbSpline
210
0.0
220
0.0
230
1.0
 70
     8
 71
     3
 72
    11
 73
     7
 74
     0
 42
0.00000001
 43
0.00000001
 40
0.0
 40
0.0
 40
0.0
 40
0.0
 40
0.2369182312099554
 40
0.4763327855864743
 40
0.7276821857468461
 40
1.0
 40
1.0
 40
1.0
 40
1.0
 10
14.82152777777973
 20
-190.2012152777776
 30
0.0
 10
14.84068965343088
 20
-190.2908524813582
 30
0.0
 10
14.87921530660399
 20
-190.4710713638631
 30
0.0
 10
15.01191883254029
 20
-190.7207312884207
 30
0.0
 10
15.18327353594971
 20
-190.9611817413264
 30
0.0
 10
15.33362149703232
 20
-191.0965386717296
 30
0.0
 10
15.41180555555752
 20
-191.1669270833332
 30
0.0
  0
SPLINE
  5
187
330
1F
100
AcDbEntity
  8
0
  6
Continuous
 62
     7
370
    25
100
AcDbSpline
210
0.0
220
0.0
230
1.0
 70
     8
 71
     3
 72
    15
 73
    11
 74
     0
 42
0.00000001
 43
0.00000001
 40
0.0
 40
0.0
 40
0.0
 40
0.0
 40
0.1480571845260433
 40
0.2888325391086615
 40
0.422639197992817
 40
0.5498417702994172
 40
0.6707111750910721
 40
0.785192464500652
 40
0.8951642975934474
 40
0.9999999999999999
 40
0.9999999999999999
 40
0.9999999999999999
 40
0.9999999999999999
 10
200.7589409722224
 20
-19.62187499999791
 30
0.0
 10
200.7575277946135
 20
-19.46557914328714
 30
0.0
 10
200.7547709430744
 20
-19.16067445871915
 30
0.0
 10
200.7260060328708
 20
-18.7152835087421
 30
0.0
 10
200.6792703094762
 20
-18.29357806802726
 30
0.0
 10
200.611487534807
 20
-17.89606701353742
 30
0.0
 10
200.5286131677164
 20
-17.52217190298838
 30
0.0
 10
200.4232138087685
 20
-17.1730355124131
 30
0.0
 10
200.3023597704177
 20
-16.84654900325418
 30
0.0
 10
200.2008455644755
 20
-16.64364453015638
 30
0.0
 10
200.1513020833334
 20
-16.54461805555347
 30
0.0
  0
SPLINE
  5
188
330
1F
100
AcDbEntity
  8
0
  6
Continuous
 62
     7
370
    25
100
AcDbSpline
210
0.0
220
0.0
230
1.0
 70
     8
 71
     3
 72
    15
 73
    11
 74
     0
 42
0.00000001
 43
0.00000001
 40
0.0
 40
0.0
 40
0.0
 40
0.0
 40
0.099634871790965
 40
0.2043886484349015
 40
0.3155609319304143
 40
0.4338452183209798
 40
0.5615032200401813
 40
0.6977999914982996
 40
0.843833955741847
 40
1.0
 40
1.0
 40
1.0
 40
1.0
 10
199.8713541666669
 20
-23.14618055555348
 30
0.0
 10
199.9433614544489
 20
-23.04653399664063
 30
0.0
 10
200.0910755224523
 20
-22.84212137351692
 30
0.0
 10
200.2691822148283
 20
-22.49481925427597
 30
0.0
 10
200.4199975325587
 20
-22.11118089007232
 30
0.0
 10
200.54753814738
 20
-21.68925054107865
 30
0.0
 10
200.6396812490281
 20
-21.22669918885967
 30
0.0
 10
200.7084594510767
 20
-20.72595434612819
 30
0.0
 10
200.7533062322018
 20
-20.18692143384884
 30
0.0
 10
200.7570212073223
 20
-19.8143872200137
 30
0.0
 10
200.7589409722223
 20
-19.62187499999791
 30
0.0
  0
SPLINE
  5
189
330
1F
100
AcDbEntity
  8
0
  6
Continuous
 62
     7
370
    25
100
AcDbSpline
210
0.0
220
0.0
230
1.0
 70
     8
 71
     3
 72
    15
 73
    11
 74
     0
 42
0.00000001
 43
0.00000001
 40
0.0
 40
0.0
 40
0.0
 40
0.0
 40
0.139707307183968
 40
0.2724458192371981
 40
0.3997597885242732
 40
0.521688946160456
 40
0.6406798246824791
 40
0.7585087352168074
 40
0.8781169950722008
 40
1.0
 40
1.0
 40
1.0
 40
1.0
 10
197.9833333333335
 20
-23.98819444444239
 30
0.0
 10
198.083275311244
 20
-23.98576232114021
 30
0.0
 10
198.2781740219619
 20
-23.98101939223474
 30
0.0
 10
198.5622139367794
 20
-23.94211708504151
 30
0.0
 10
198.8272080929673
 20
-23.87406047973545
 30
0.0
 10
199.0755518616265
 20
-23.78430751854047
 30
0.0
 10
199.302265262448
 20
-23.66256376752167
 30
0.0
 10
199.5132522052102
 20
-23.51873827367768
 30
0.0
 10
199.7059308154255
 20
-23.3470017570044
 30
0.0
 10
199.8158678628332
 20
-23.2135400070235
 30
0.0
 10
199.8713541666669
 20
-23.14618055555348
 30
0.0
  0
SPLINE
  5
18A
330
1F
100
AcDbEntity
  8
0
  6
Continuous
 62
     7
370
    25
100
AcDbSpline
210
0.0
220
0.0
230
1.0
 70
     8
 71
     3
 72
    11
 73
     7
 74
     0
 42
0.00000001
 43
0.00000001
 40
0.0
 40
0.0
 40
0.0
 40
0.0
 40
0.2032080209021365
 40
0.4374718244728694
 40
0.699795243361686
 40
1.0
 40
1.0
 40
1.0
 40
1.0
 10
197.4060763888891
 20
-23.87751736110906
 30
0.0
 10
197.442517702399
 20
-23.89467724531627
 30
0.0
 10
197.5209695658472
 20
-23.93161951668206
 30
0.0
 10
197.6564958085082
 20
-23.96301137843913
 30
0.0
 10
197.8125406471983
 20
-23.98599266422542
 30
0.0
 10
197.923902685835
 20
-23.98742829205668
 30
0.0
 10
197.9833333333335
 20
-23.98819444444239
 30
0.0
  0
SPLINE
  5
18B
330
1F
100
AcDbEntity
  8
0
  6
Continuous
 62
     7
370
    25
100
AcDbSpline
210
0.0
220
0.0
230
1.0
 70
     8
 71
     3
 72
    13
 73
     9
 74
     0
 42
0.00000001
 43
0.00000001
 40
0.0
 40
0.0
 40
0.0
 40
0.0
 40
0.2636881973998163
 40
0.4724111094618004
 40
0.6225053410348682
 40
0.719668809871277
 40
0.8585603379061159
 40
1.0
 40
1.0
 40
1.0
 40
1.0
 10
197.1478298611113
 20
-22.90312499999796
 30
0.0
 10
197.1486077735078
 20
-22.99645901284235
 30
0.0
 10
197.1500014439941
 20
-23.16367174740207
 30
0.0
 10
197.1603244329783
 20
-23.38378232732287
 30
0.0
 10
197.1743612115744
 20
-23.54469002467249
 30
0.0
 10
197.2048594526113
 20
-23.67874668917358
 30
0.0
 10
197.28054552099
 20
-23.79482272972457
 30
0.0
 10
197.3639799674687
 20
-23.8497859504192
 30
0.0
 10
197.4060763888891
 20
-23.87751736110906
 30
0.0
  0
SPLINE
  5
18D
330
1F
100
AcDbEntity
  8
0
  6
Continuous
 62
     7
370
    25
100
AcDbSpline
210
0.0
220
0.0
230
1.0
 70
     8
 71
     3
 72
    15
 73
    11
 74
     0
 42
0.00000001
 43
0.00000001
 40
0.0
 40
0.0
 40
0.0
 40
0.0
 40
0.1399003960930659
 40
0.2740657867247124
 40
0.403931174944351
 40
0.5287378597629827
 40
0.6492590746358924
 40
0.7673160512190053
 40
0.8838900659274453
 40
1.0
 40
1.0
 40
1.0
 40
1.0
 10
200.1513020833334
 20
-16.54461805555347
 30
0.0
 10
200.1110408032963
 20
-16.47243003664849
 30
0.0
 10
200.032168693595
 20
-16.33101323765576
 30
0.0
 10
199.8994406490395
 20
-16.13231683059486
 30
0.0
 10
199.7556909657813
 20
-15.95296564346645
 30
0.0
 10
199.6066496761461
 20
-15.78862058166393
 30
0.0
 10
199.4469016068094
 20
-15.64470764311718
 30
0.0
 10
199.2792139550688
 20
-15.51834004910894
 30
0.0
 10
199.1031128394696
 20
-15.40830411007295
 30
0.0
 10
198.9786168824692
 20
-15.3498356470161
 30
0.0
 10
198.9164930555557
 20
-15.32065972222016
 30
0.0
  0
SPLINE
  5
18E
330
1F
100
AcDbEntity
  8
0
  6
Continuous
 62
     7
370
    25
100
AcDbSpline
210
0.0
220
0.0
230
1.0
 70
     8
 71
     3
 72
    15
 73
    11
 74
     0
 42
0.00000001
 43
0.00000001
 40
0.0
 40
0.0
 40
0.0
 40
0.0
 40
0.0865648624072097
 40
0.1820095399193542
 40
0.2895525858074837
 40
0.4081868021538044
 40
0.5383918917387056
 40
0.6803499344374518
 40
0.834158423502016
 40
1.0
 40
1.0
 40
1.0
 40
1.0
 10
198.9164930555557
 20
-15.32065972222016
 30
0.0
 10
198.8683388320052
 20
-15.3016469649086
 30
0.0
 10
198.7670907293701
 20
-15.26167112350314
 30
0.0
 10
198.5994313598729
 20
-15.21766035363405
 30
0.0
 10
198.4112430379153
 20
-15.17833596121756
 30
0.0
 10
198.200125585875
 20
-15.14924936781548
 30
0.0
 10
197.9677751531188
 20
-15.12561191492494
 30
0.0
 10
197.7137584405028
 20
-15.10801585462213
 30
0.0
 10
197.4379583105845
 20
-15.10013223188894
 30
0.0
 10
197.2469363240842
 20
-15.09958794415682
 30
0.0
 10
197.1478298611112
 20
-15.09930555555351
 30
0.0
  0
SPLINE
  5
18F
330
1F
100
AcDbEntity
  8
0
  6
Continuous
 62
     7
370
    25
100
AcDbSpline
210
0.0
220
0.0
230
1.0
 70
     8
 71
     3
 72
    23
 73
    19
 74
     0
 42
0.00000001
 43
0.00000001
 40
0.0
 40
0.0
 40
0.0
 40
0.0
 40
0.0694253918345989
 40
0.1339425401420115
 40
0.1941978035833416
 40
0.2496856297372333
 40
0.3004964001281574
 40
0.3474060394553886
 40
0.3906247531019913
 40
0.4297055496304787
 40
0.5019104625162771
 40
0.5710137743597343
 40
0.6376393582197482
 40
0.7036447725368897
 40
0.7706972149673539
 40
0.8416041658905713
 40
0.9172436865177461
 40
1.0
 40
1.0
 40
1.0
 40
1.0
 10
102.5789930555557
 20
-19.12708333333227
 30
0.0
 10
102.6701465498172
 20
-19.12609308536467
 30
0.0
 10
102.8460091591819
 20
-19.12418259808262
 30
0.0
 10
103.1008611237829
 20
-19.11402173327874
 30
0.0
 10
103.3367884186525
 20
-19.09428914996113
 30
0.0
 10
103.5540005142128
 20
-19.06859084838117
 30
0.0
 10
103.7527272641265
 20
-19.03675424564202
 30
0.0
 10
103.9333580766718
 20
-18.99585774422349
 30
0.0
 10
104.0958413229331
 20
-18.94644695762292
 30
0.0
 10
104.2847938561709
 20
-18.87209320714735
 30
0.0
 10
104.4949548523224
 20
-18.76115129921342
 30
0.0
 10
104.7183680175924
 20
-18.60269828858274
 30
0.0
 10
104.9096021419166
 20
-18.41794385272873
 30
0.0
 10
105.0702056550873
 20
-18.20960204668744
 30
0.0
 10
105.1996088559825
 20
-17.97343330998112
 30
0.0
 10
105.2860117762057
 20
-17.70541883037605
 30
0.0
 10
105.3423312371309
 20
-17.40851388628982
 30
0.0
 10
105.3475393558184
 20
-17.2002852662428
 30
0.0
 10
105.3502604166668
 20
-17.09149305555446
 30
0.0
  0
SPLINE
  5
191
330
1F
100
AcDbEntity
  8
0
  6
Continuous
 62
     7
370
    25
100
AcDbSpline
210
0.0
220
0.0
230
1.0
 70
     8
 71
     3
 72
    23
 73
    19
 74
     0
 42
0.00000001
 43
0.00000001
 40
0.0
 40
0.0
 40
0.0
 40
0.0
 40
0.0824541976981074
 40
0.1587673756566608
 40
0.2293646781804764
 40
0.2963578502924292
 40
0.3617876253634065
 40
0.4274503302386208
 40
0.4949022872741082
 40
0.5655817224373964
 40
0.6038701272959357
 40
0.6463763198391377
 40
0.6933072742793722
 40
0.7447306243921014
 40
0.8014214096569777
 40
0.8623666264489366
 40
0.9287140109849825
 40
1.0
 40
1.0
 40
1.0
 40
1.0
 10
105.3502604166668
 20
-17.09149305555446
 30
0.0
 10
105.3471262652538
 20
-16.98350427566073
 30
0.0
 10
105.3410913876048
 20
-16.77556949898788
 30
0.0
 10
105.2897443531257
 20
-16.47847226541541
 30
0.0
 10
105.200585662077
 20
-16.21184308615385
 30
0.0
 10
105.0753679175664
 20
-15.97596451770574
 30
0.0
 10
104.9165989230761
 20
-15.76957001966178
 30
0.0
 10
104.7277124860405
 20
-15.58948498805018
 30
0.0
 10
104.5076935186603
 20
-15.43710113382558
 30
0.0
 10
104.3015271732722
 20
-15.33112680980575
 30
0.0
 10
104.115182293542
 20
-15.26267065576206
 30
0.0
 10
103.9539745583021
 20
-15.21782506070657
 30
0.0
 10
103.7736935019897
 20
-15.17851088689182
 30
0.0
 10
103.5727431667729
 20
-15.14912737518487
 30
0.0
 10
103.3526402842393
 20
-15.12581947218945
 30
0.0
 10
103.1123913726188
 20
-15.10793813022278
 30
0.0
 10
102.8524850013377
 20
-15.1001604600224
 30
0.0
 10
102.6723120452523
 20
-15.09959726001768
 30
0.0
 10
102.5789930555557
 20
-15.0993055555545
 30
0.0
  0
SPLINE
  5
195
330
1F
100
AcDbEntity
  8
0
  6
Continuous
 62
     7
370
    25
100
AcDbSpline
210
0.0
220
0.0
230
1.0
 70
     8
 71
     3
 72
    19
 73
    15
 74
     0
 42
0.00000001
 43
0.00000001
 40
0.0
 40
0.0
 40
0.0
 40
0.0
 40
0.0862671021837156
 40
0.1698667241146222
 40
0.2524438289162586
 40
0.3356409951607309
 40
0.4176240582129343
 40
0.4975758804536556
 40
0.5774594552877984
 40
0.6595780212887704
 40
0.7427751875332468
 40
0.826354732705472
 40
0.9117566736687354
 40
0.9999999999999999
 40
0.9999999999999999
 40
0.9999999999999999
 40
0.9999999999999999
 10
103.3797743055558
 20
-23.98819444444338
 30
0.0
 10
103.4762433479475
 20
-23.98582175745526
 30
0.0
 10
103.666198496489
 20
-23.98114974975106
 30
0.0
 10
103.9440096043476
 20
-23.92768942347871
 30
0.0
 10
104.2117749209842
 20
-23.84889288857491
 30
0.0
 10
104.4636996114968
 20
-23.73269934259492
 30
0.0
 10
104.6997312388173
 20
-23.59227765770322
 30
0.0
 10
104.9055479338234
 20
-23.41550273525574
 30
0.0
 10
105.0838660240301
 20
-23.21131132365373
 30
0.0
 10
105.2309873069214
 20
-22.97896581026061
 30
0.0
 10
105.3440348670035
 20
-22.72433626975946
 30
0.0
 10
105.4315260457834
 20
-22.45587255543259
 30
0.0
 10
105.4781535355901
 20
-22.1712333307289
 30
0.0
 10
105.4854442823476
 20
-21.97734826402288
 30
0.0
 10
105.4891493055558
 20
-21.87881944444335
 30
0.0
  0
SPLINE
  5
196
330
1F
100
AcDbEntity
  8
0
  6
Continuous
 62
     7
370
    25
100
AcDbSpline
210
0.0
220
0.0
230
1.0
 70
     8
 71
     3
 72
    15
 73
    11
 74
     0
 42
0.00000001
 43
0.00000001
 40
0.0
 40
0.0
 40
0.0
 40
0.0
 40
0.1437049993617668
 40
0.2701100788704289
 40
0.3870724588678219
 40
0.4974287230558127
 40
0.6080681174831276
 40
0.7265645354734888
 40
0.8546126873111497
 40
1.0
 40
1.0
 40
1.0
 40
1.0
 10
102.5789930555558
 20
-23.19826388888783
 30
0.0
 10
102.5812939036964
 20
-23.25997187956583
 30
0.0
 10
102.5856186124784
 20
-23.37595914725309
 30
0.0
 10
102.6227915643096
 20
-23.53881852172651
 30
0.0
 10
102.6848197666533
 20
-23.67878026937785
 30
0.0
 10
102.7770031188905
 20
-23.79268258798331
 30
0.0
 10
102.8935699413481
 20
-23.88217943894888
 30
0.0
 10
103.0348720609147
 20
-23.94450859074024
 30
0.0
 10
103.1999587493653
 20
-23.98151699185498
 30
0.0
 10
103.3173543467655
 20
-23.98587647861093
 30
0.0
 10
103.3797743055558
 20
-23.98819444444338
 30
0.0
  0
SPLINE
  5
198
330
1F
100
AcDbEntity
  8
0
  6
Continuous
 62
     7
370
    25
100
AcDbSpline
210
0.0
220
0.0
230
1.0
 70
     8
 71
     3
 72
    23
 73
    19
 74
     0
 42
0.00000001
 43
0.00000001
 40
0.0
 40
0.0
 40
0.0
 40
0.0
 40
0.0790019268629119
 40
0.1540563789973704
 40
0.2269430533661807
 40
0.2975266050794261
 40
0.3652396882423547
 40
0.4311600479565831
 40
0.4986762903450244
 40
0.5704892874568657
 40
0.610031536451231
 40
0.6529984610794579
 40
0.7002411432486216
 40
0.7517599365398274
 40
0.8071360966982072
 40
0.8669110180093165
 40
0.9311938984281365
 40
1.0
 40
1.0
 40
1.0
 40
1.0
 10
105.4891493055558
 20
-21.87881944444335
 30
0.0
 10
105.486208010964
 20
-21.76583061529456
 30
0.0
 10
105.4804723889056
 20
-21.54549864901199
 30
0.0
 10
105.436356515715
 20
-21.22330363489984
 30
0.0
 10
105.3630037810518
 20
-20.91903669299093
 30
0.0
 10
105.2609762443998
 20
-20.63421967269007
 30
0.0
 10
105.1227156073509
 20
-20.37473521719633
 30
0.0
 10
104.9281593397821
 20
-20.15899117553353
 30
0.0
 10
104.6857725201401
 20
-19.98956755261601
 30
0.0
 10
104.4491205560017
 20
-19.88858048425651
 30
0.0
 10
104.2371319959637
 20
-19.82674590805521
 30
0.0
 10
104.0553556152411
 20
-19.78906771156685
 30
0.0
 10
103.8557768171792
 20
-19.75370472923796
 30
0.0
 10
103.6369965908567
 20
-19.72651282701295
 30
0.0
 10
103.3996862091984
 20
-19.70394665535628
 30
0.0
 10
103.1433033943022
 20
-19.69291386319737
 30
0.0
 10
102.867698010797
 20
-19.68305443784395
 30
0.0
 10
102.6773840719396
 20
-19.68278050850124
 30
0.0
 10
102.5789930555557
 20
-19.68263888888783
 30
0.0
  0
LINE
  5
199
330
1F
100
AcDbEntity
  8
0
  6
Continuous
 62
     7
370
    25
100
AcDbLine
 10
16.2104166667
 20
-202.7033854167
 30
0.0
 11
22.8770833333
 21
-202.7033854167
 31
0.0
  0
LINE
  5
19A
330
1F
100
AcDbEntity
  8
0
  6
Continuous
 62
     7
370
    25
100
AcDbLine
 10
14.8215277778
 20
-201.3144965278
 30
0.0
 11
14.8215277778
 21
-201.6400173611
 31
0.0
  0
LINE
  5
19B
330
1F
100
AcDbEntity
  8
0
  6
Continuous
 62
     7
370
    25
100
AcDbLine
 10
14.54375
 20
-201.3144965278
 30
0.0
 11
14.8215277778
 21
-201.3144965278
 31
0.0
  0
LINE
  5
19C
330
1F
100
AcDbEntity
  8
0
  6
Continuous
 62
     7
370
    25
100
AcDbLine
 10
14.54375
 20
-206.4533854167
 30
0.0
 11
14.54375
 21
-201.3144965278
 31
0.0
  0
LINE
  5
19D
330
1F
100
AcDbEntity
  8
0
  6
Continuous
 62
     7
370
    25
100
AcDbLine
 10
14.8215277778
 20
-206.4533854167
 30
0.0
 11
14.54375
 21
-206.4533854167
 31
0.0
  0
LINE
  5
19E
330
1F
100
AcDbEntity
  8
0
  6
Continuous
 62
     7
370
    25
100
AcDbLine
 10
14.8215277778
 20
-206.1256944444
 30
0.0
 11
14.8215277778
 21
-206.4533854167
 31
0.0
  0
LINE
  5
19F
330
1F
100
AcDbEntity
  8
0
  6
Continuous
 62
     7
370
    25
100
AcDbLine
 10
22.8770833333
 20
-205.0644965278
 30
0.0
 11
16.2104166667
 21
-205.0644965278
 31
0.0
  0
LINE
  5
1A0
330
1F
100
AcDbEntity
  8
0
  6
Continuous
 62
     7
370
    25
100
AcDbLine
 10
24.2659722222
 20
-206.4533854167
 30
0.0
 11
24.2659722222
 21
-206.1256944444
 31
0.0
  0
LINE
  5
1A1
330
1F
100
AcDbEntity
  8
0
  6
Continuous
 62
     7
370
    25
100
AcDbLine
 10
24.54375
 20
-206.4533854167
 30
0.0
 11
24.2659722222
 21
-206.4533854167
 31
0.0
  0
LINE
  5
1A2
330
1F
100
AcDbEntity
  8
0
  6
Continuous
 62
     7
370
    25
100
AcDbLine
 10
24.54375
 20
-201.3144965278
 30
0.0
 11
24.54375
 21
-206.4533854167
 31
0.0
  0
LINE
  5
1A3
330
1F
100
AcDbEntity
  8
0
  6
Continuous
 62
     7
370
    25
100
AcDbLine
 10
24.2659722222
 20
-201.3144965278
 30
0.0
 11
24.54375
 21
-201.3144965278
 31
0.0
  0
LINE
  5
1A4
330
1F
100
AcDbEntity
  8
0
  6
Continuous
 62
     7
370
    25
100
AcDbLine
 10
24.2659722222
 20
-201.6400173611
 30
0.0
 11
24.2659722222
 21
-201.3144965278
 31
0.0
  0
LINE
  5
1A5
330
1F
100
AcDbEntity
  8
0
  6
Continuous
 62
     7
370
    25
100
AcDbLine
 10
98.9678819444
 20
-14.54375
 30
0.0
 11
103.7486979167
 21
-14.54375
 31
0.0
  0
LINE
  5
1A6
330
1F
100
AcDbEntity
  8
0
  6
Continuous
 62
     7
370
    25
100
AcDbLine
 10
98.9678819444
 20
-14.8215277778
 30
0.0
 11
98.9678819444
 21
-14.54375
 31
0.0
  0
LINE
  5
1A7
330
1F
100
AcDbEntity
  8
0
  6
Continuous
 62
     7
370
    25
100
AcDbLine
 10
100.3567708333
 20
-22.8770833333
 30
0.0
 11
100.3567708333
 21
-16.2104166667
 31
0.0
  0
LINE
  5
1A8
330
1F
100
AcDbEntity
  8
0
  6
Continuous
 62
     7
370
    25
100
AcDbLine
 10
98.9678819444
 20
-24.54375
 30
0.0
 11
98.9678819444
 21
-24.2659722222
 31
0.0
  0
LINE
  5
1A9
330
1F
100
AcDbEntity
  8
0
  6
Continuous
 62
     7
370
    25
100
AcDbLine
 10
104.0134548611
 20
-24.54375
 30
0.0
 11
98.9678819444
 21
-24.54375
 31
0.0
  0
LINE
  5
1AA
330
1F
100
AcDbEntity
  8
0
  6
Continuous
 62
     7
370
    25
100
AcDbLine
 10
193.3978298611
 20
-14.54375
 30
0.0
 11
197.8422743056
 21
-14.54375
 31
0.0
  0
LINE
  5
1AB
330
1F
100
AcDbEntity
  8
0
  6
Continuous
 62
     7
370
    25
100
AcDbLine
 10
193.3978298611
 20
-14.8215277778
 30
0.0
 11
193.3978298611
 21
-14.54375
 31
0.0
  0
LINE
  5
1AC
330
1F
100
AcDbEntity
  8
0
  6
Continuous
 62
     7
370
    25
100
AcDbLine
 10
193.7255208333
 20
-14.8215277778
 30
0.0
 11
193.3978298611
 21
-14.8215277778
 31
0.0
  0
LINE
  5
1AD
330
1F
100
AcDbEntity
  8
0
  6
Continuous
 62
     7
370
    25
100
AcDbLine
 10
194.78671875
 20
-22.8770833333
 30
0.0
 11
194.78671875
 21
-16.2104166667
 31
0.0
  0
LINE
  5
1AE
330
1F
100
AcDbEntity
  8
0
  6
Continuous
 62
     7
370
    25
100
AcDbLine
 10
193.3978298611
 20
-24.2659722222
 30
0.0
 11
193.7255208333
 21
-24.2659722222
 31
0.0
  0
LINE
  5
1AF
330
1F
100
AcDbEntity
  8
0
  6
Continuous
 62
     7
370
    25
100
AcDbLine
 10
193.3978298611
 20
-24.54375
 30
0.0
 11
193.3978298611
 21
-24.2659722222
 31
0.0
  0
LINE
  5
1B0
330
1F
100
AcDbEntity
  8
0
  6
Continuous
 62
     7
370
    25
100
AcDbLine
 10
197.8422743056
 20
-24.54375
 30
0.0
 11
193.3978298611
 21
-24.54375
 31
0.0
  0
LINE
  5
1B1
330
1F
100
AcDbEntity
  8
0
  6
Continuous
 62
     7
370
    25
100
AcDbLine
 10
24.54375
 20
-58.8959201389
 30
0.0
 11
24.54375
 21
-53.75703125
 31
0.0
  0
LINE
  5
1B2
330
1F
100
AcDbEntity
  8
0
  6
Continuous
 62
     7
370
    25
100
AcDbLine
 10
24.54375
 20
-53.75703125
 30
0.0
 11
24.2659722222
 21
-53.75703125
 31
0.0
  0
LINE
  5
1B3
330
1F
100
AcDbEntity
  8
0
  6
Continuous
 62
     7
370
    25
100
AcDbLine
 10
24.2659722222
 20
-53.75703125
 30
0.0
 11
24.2659722222
 21
-54.0847222222
 31
0.0
  0
LINE
  5
1B4
330
1F
100
AcDbEntity
  8
0
  6
Continuous
 62
     7
370
    25
100
AcDbLine
 10
22.8770833333
 20
-55.1459201389
 30
0.0
 11
16.2104166667
 21
-55.1459201389
 31
0.0
  0
LINE
  5
1B5
330
1F
100
AcDbEntity
  8
0
  6
Continuous
 62
     7
370
    25
100
AcDbLine
 10
14.8215277778
 20
-54.0847222222
 30
0.0
 11
14.8215277778
 21
-53.75703125
 31
0.0
  0
LINE
  5
1B6
330
1F
100
AcDbEntity
  8
0
  6
Continuous
 62
     7
370
    25
100
AcDbLine
 10
14.8215277778
 20
-53.75703125
 30
0.0
 11
14.54375
 21
-53.75703125
 31
0.0
  0
LINE
  5
1B7
330
1F
100
AcDbEntity
  8
0
  6
Continuous
 62
     7
370
    25
100
AcDbLine
 10
14.54375
 20
-53.75703125
 30
0.0
 11
14.54375
 21
-58.8959201389
 31
0.0
  0
LINE
  5
1B8
330
1F
100
AcDbEntity
  8
0
  6
Continuous
 62
     7
370
    25
100
AcDbLine
 10
14.54375
 20
-58.8959201389
 30
0.0
 11
14.8215277778
 21
-58.8959201389
 31
0.0
  0
LINE
  5
1B9
330
1F
100
AcDbEntity
  8
0
  6
Continuous
 62
     7
370
    25
100
AcDbLine
 10
14.8215277778
 20
-58.8959201389
 30
0.0
 11
14.8215277778
 21
-58.5703993056
 31
0.0
  0
LINE
  5
1BA
330
1F
100
AcDbEntity
  8
0
  6
Continuous
 62
     7
370
    25
100
AcDbLine
 10
16.2104166667
 20
-57.50703125
 30
0.0
 11
22.8770833333
 21
-57.50703125
 31
0.0
  0
LINE
  5
1BB
330
1F
100
AcDbEntity
  8
0
  6
Continuous
 62
     7
370
    25
100
AcDbLine
 10
24.2659722222
 20
-58.5703993056
 30
0.0
 11
24.2659722222
 21
-58.8959201389
 31
0.0
  0
LINE
  5
1BC
330
1F
100
AcDbEntity
  8
0
  6
Continuous
 62
     7
370
    25
100
AcDbLine
 10
24.2659722222
 20
-58.8959201389
 30
0.0
 11
24.54375
 21
-58.8959201389
 31
0.0
  0
LINE
  5
1BD
330
1F
100
AcDbEntity
  8
0
  6
Continuous
 62
     7
370
    25
100
AcDbLine
 10
0.0
 20
-200.025
 30
0.0
 11
0.0
 21
-222.25
 31
0.0
  0
LINE
  5
1BE
330
1F
100
AcDbEntity
  8
0
  6
Continuous
 62
     7
370
    25
100
AcDbLine
 10
0.0
 20
-200.025
 30
0.0
 11
5.15
 21
-200.025
 31
0.0
  0
LINE
  5
1BF
330
1F
100
AcDbEntity
  8
0
  6
Continuous
 62
     7
370
    25
100
AcDbLine
 10
5.15
 20
-177.8
 30
0.0
 11
5.15
 21
-200.025
 31
0.0
  0
LINE
  5
1C0
330
1F
100
AcDbEntity
  8
0
  6
Continuous
 62
     7
370
    25
100
AcDbLine
 10
0.0
 20
-177.8
 30
0.0
 11
5.15
 21
-177.8
 31
0.0
  0
LINE
  5
1C1
330
1F
100
AcDbEntity
  8
0
  6
Continuous
 62
     7
370
    25
100
AcDbLine
 10
0.0
 20
-155.575
 30
0.0
 11
0.0
 21
-177.8
 31
0.0
  0
LINE
  5
1C2
330
1F
100
AcDbEntity
  8
0
  6
Continuous
 62
     7
370
    25
100
AcDbLine
 10
0.0
 20
-155.575
 30
0.0
 11
5.15
 21
-155.575
 31
0.0
  0
LINE
  5
1C3
330
1F
100
AcDbEntity
  8
0
  6
Continuous
 62
     7
370
    25
100
AcDbLine
 10
5.15
 20
-133.35
 30
0.0
 11
5.15
 21
-155.575
 31
0.0
  0
LINE
  5
1C4
330
1F
100
AcDbEntity
  8
0
  6
Continuous
 62
     7
370
    25
100
AcDbLine
 10
0.0
 20
-133.35
 30
0.0
 11
5.15
 21
-133.35
 31
0.0
  0
LINE
  5
1C5
330
1F
100
AcDbEntity
  8
0
  6
Continuous
 62
     7
370
    25
100
AcDbLine
 10
0.0
 20
-111.125
 30
0.0
 11
0.0
 21
-133.35
 31
0.0
  0
LINE
  5
1C6
330
1F
100
AcDbEntity
  8
0
  6
Continuous
 62
     7
370
    25
100
AcDbLine
 10
0.0
 20
-111.125
 30
0.0
 11
5.15
 21
-111.125
 31
0.0
  0
LINE
  5
1C7
330
1F
100
AcDbEntity
  8
0
  6
Continuous
 62
     7
370
    25
100
AcDbLine
 10
5.15
 20
-88.9
 30
0.0
 11
5.15
 21
-111.125
 31
0.0
  0
LINE
  5
1C8
330
1F
100
AcDbEntity
  8
0
  6
Continuous
 62
     7
370
    25
100
AcDbLine
 10
0.0
 20
-88.9
 30
0.0
 11
5.15
 21
-88.9
 31
0.0
  0
LINE
  5
1C9
330
1F
100
AcDbEntity
  8
0
  6
Continuous
 62
     7
370
    25
100
AcDbLine
 10
0.0
 20
-66.675
 30
0.0
 11
0.0
 21
-88.9
 31
0.0
  0
LINE
  5
1CA
330
1F
100
AcDbEntity
  8
0
  6
Continuous
 62
     7
370
    25
100
AcDbLine
 10
0.0
 20
-66.675
 30
0.0
 11
5.15
 21
-66.675
 31
0.0
  0
LINE
  5
1CB
330
1F
100
AcDbEntity
  8
0
  6
Continuous
 62
     7
370
    25
100
AcDbLine
 10
5.15
 20
-44.45
 30
0.0
 11
5.15
 21
-66.675
 31
0.0
  0
LINE
  5
1CC
330
1F
100
AcDbEntity
  8
0
  6
Continuous
 62
     7
370
    25
100
AcDbLine
 10
0.0
 20
-44.45
 30
0.0
 11
5.15
 21
-44.45
 31
0.0
  0
LINE
  5
1CD
330
1F
100
AcDbEntity
  8
0
  6
Continuous
 62
     7
370
    25
100
AcDbLine
 10
0.0
 20
-22.225
 30
0.0
 11
0.0
 21
-44.45
 31
0.0
  0
LINE
  5
1CE
330
1F
100
AcDbEntity
  8
0
  6
Continuous
 62
     7
370
    25
100
AcDbLine
 10
5.15
 20
-22.225
 30
0.0
 11
0.0
 21
-22.225
 31
0.0
  0
LINE
  5
1CF
330
1F
100
AcDbEntity
  8
0
  6
Continuous
 62
     7
370
    25
100
AcDbLine
 10
5.15
 20
-5.15
 30
0.0
 11
5.15
 21
-22.225
 31
0.0
  0
LINE
  5
1D0
330
1F
100
AcDbEntity
  8
0
  6
Continuous
 62
     7
370
    25
100
AcDbLine
 10
5.15
 20
-5.15
 30
0.0
 11
22.225
 21
-5.15
 31
0.0
  0
LINE
  5
1D1
330
1F
100
AcDbEntity
  8
0
  6
Continuous
 62
     7
370
    25
100
AcDbLine
 10
22.225
 20
0.0
 30
0.0
 11
22.225
 21
-5.15
 31
0.0
  0
LINE
  5
1D2
330
1F
100
AcDbEntity
  8
0
  6
Continuous
 62
     7
370
    25
100
AcDbLine
 10
44.45
 20
0.0
 30
0.0
 11
22.225
 21
0.0
 31
0.0
  0
LINE
  5
1D3
330
1F
100
AcDbEntity
  8
0
  6
Continuous
 62
     7
370
    25
100
AcDbLine
 10
44.45
 20
0.0
 30
0.0
 11
44.45
 21
-5.15
 31
0.0
  0
LINE
  5
1D4
330
1F
100
AcDbEntity
  8
0
  6
Continuous
 62
     7
370
    25
100
AcDbLine
 10
44.45
 20
-5.15
 30
0.0
 11
66.675
 21
-5.15
 31
0.0
  0
LINE
  5
1D5
330
1F
100
AcDbEntity
  8
0
  6
Continuous
 62
     7
370
    25
100
AcDbLine
 10
66.675
 20
0.0
 30
0.0
 11
66.675
 21
-5.15
 31
0.0
  0
LINE
  5
1D6
330
1F
100
AcDbEntity
  8
0
  6
Continuous
 62
     7
370
    25
100
AcDbLine
 10
88.9
 20
0.0
 30
0.0
 11
66.675
 21
0.0
 31
0.0
  0
LINE
  5
1D7
330
1F
100
AcDbEntity
  8
0
  6
Continuous
 62
     7
370
    25
100
AcDbLine
 10
88.9
 20
0.0
 30
0.0
 11
88.9
 21
-5.15
 31
0.0
  0
LINE
  5
1D8
330
1F
100
AcDbEntity
  8
0
  6
Continuous
 62
     7
370
    25
100
AcDbLine
 10
88.9
 20
-5.15
 30
0.0
 11
111.125
 21
-5.15
 31
0.0
  0
LINE
  5
1D9
330
1F
100
AcDbEntity
  8
0
  6
Continuous
 62
     7
370
    25
100
AcDbLine
 10
111.125
 20
0.0
 30
0.0
 11
111.125
 21
-5.15
 31
0.0
  0
LINE
  5
1DA
330
1F
100
AcDbEntity
  8
0
  6
Continuous
 62
     7
370
    25
100
AcDbLine
 10
133.35
 20
0.0
 30
0.0
 11
111.125
 21
0.0
 31
0.0
  0
LINE
  5
1DB
330
1F
100
AcDbEntity
  8
0
  6
Continuous
 62
     7
370
    25
100
AcDbLine
 10
133.35
 20
0.0
 30
0.0
 11
133.35
 21
-5.15
 31
0.0
  0
LINE
  5
1DC
330
1F
100
AcDbEntity
  8
0
  6
Continuous
 62
     7
370
    25
100
AcDbLine
 10
133.35
 20
-5.15
 30
0.0
 11
155.575
 21
-5.15
 31
0.0
  0
LINE
  5
1DD
330
1F
100
AcDbEntity
  8
0
  6
Continuous
 62
     7
370
    25
100
AcDbLine
 10
155.575
 20
0.0
 30
0.0
 11
155.575
 21
-5.15
 31
0.0
  0
LINE
  5
1DE
330
1F
100
AcDbEntity
  8
0
  6
Continuous
 62
     7
370
    25
100
AcDbLine
 10
177.8
 20
0.0
 30
0.0
 11
155.575
 21
0.0
 31
0.0
  0
LINE
  5
1DF
330
1F
100
AcDbEntity
  8
0
  6
Continuous
 62
     7
370
    25
100
AcDbLine
 10
177.8
 20
0.0
 30
0.0
 11
177.8
 21
-5.15
 31
0.0
  0
LINE
  5
1E0
330
1F
100
AcDbEntity
  8
0
  6
Continuous
 62
     7
370
    25
100
AcDbLine
 10
177.8
 20
-5.15
 30
0.0
 11
200.025
 21
-5.15
 31
0.0
  0
LINE
  5
1E1
330
1F
100
AcDbEntity
  8
0
  6
Continuous
 62
     7
370
    25
100
AcDbLine
 10
200.025
 20
0.0
 30
0.0
 11
200.025
 21
-5.15
 31
0.0
  0
LINE
  5
1E2
330
1F
100
AcDbEntity
  8
0
  6
Continuous
 62
     7
370
    25
100
AcDbLine
 10
222.25
 20
0.0
 30
0.0
 11
200.025
 21
0.0
 31
0.0
  0
LINE
  5
1E3
330
1F
100
AcDbEntity
  8
0
  6
Continuous
 62
     7
370
    25
100
AcDbLine
 10
222.25
 20
-9.65
 30
0.0
 11
222.25
 21
0.0
 31
0.0
  0
LINE
  5
1E4
330
1F
100
AcDbEntity
  8
0
  6
Continuous
 62
     7
370
    25
100
AcDbLine
 10
227.25
 20
-9.65
 30
0.0
 11
222.25
 21
-9.65
 31
0.0
  0
LINE
  5
1E5
330
1F
100
AcDbEntity
  8
0
  6
Continuous
 62
     7
370
    25
100
AcDbLine
 10
227.25
 20
-6.15
 30
0.0
 11
227.25
 21
-9.65
 31
0.0
  0
LINE
  5
1E6
330
1F
100
AcDbEntity
  8
0
  6
Continuous
 62
     7
370
    25
100
AcDbLine
 10
230.25
 20
-6.15
 30
0.0
 11
227.25
 21
-6.15
 31
0.0
  0
LINE
  5
1E7
330
1F
100
AcDbEntity
  8
0
  6
Continuous
 62
     7
370
    25
100
AcDbLine
 10
230.25
 20
-9.65
 30
0.0
 11
230.25
 21
-6.15
 31
0.0
  0
LINE
  5
1E8
330
1F
100
AcDbEntity
  8
0
  6
Continuous
 62
     7
370
    25
100
AcDbLine
 10
233.75
 20
-9.65
 30
0.0
 11
230.25
 21
-9.65
 31
0.0
  0
LINE
  5
1E9
330
1F
100
AcDbEntity
  8
0
  6
Continuous
 62
     7
370
    25
100
AcDbLine
 10
233.75
 20
-12.65
 30
0.0
 11
233.75
 21
-9.65
 31
0.0
  0
LINE
  5
1EA
330
1F
100
AcDbEntity
  8
0
  6
Continuous
 62
     7
370
    25
100
AcDbLine
 10
230.25
 20
-12.65
 30
0.0
 11
233.75
 21
-12.65
 31
0.0
  0
LINE
  5
1EB
330
1F
100
AcDbEntity
  8
0
  6
Continuous
 62
     7
370
    25
100
AcDbLine
 10
230.25
 20
-16.15
 30
0.0
 11
230.25
 21
-12.65
 31
0.0
  0
LINE
  5
1EC
330
1F
100
AcDbEntity
  8
0
  6
Continuous
 62
     7
370
    25
100
AcDbLine
 10
227.25
 20
-16.15
 30
0.0
 11
230.25
 21
-16.15
 31
0.0
  0
LINE
  5
1ED
330
1F
100
AcDbEntity
  8
0
  6
Continuous
 62
     7
370
    25
100
AcDbLine
 10
227.25
 20
-12.65
 30
0.0
 11
227.25
 21
-16.15
 31
0.0
  0
LINE
  5
1EE
330
1F
100
AcDbEntity
  8
0
  6
Continuous
 62
     7
370
    25
100
AcDbLine
 10
222.25
 20
-12.65
 30
0.0
 11
227.25
 21
-12.65
 31
0.0
  0
LINE
  5
1EF
330
1F
100
AcDbEntity
  8
0
  6
Continuous
 62
     7
370
    25
100
AcDbLine
 10
222.25
 20
-32.54375
 30
0.0
 11
222.25
 21
-12.65
 31
0.0
  0
LINE
  5
1F0
330
1F
100
AcDbEntity
  8
0
  6
Continuous
 62
     7
370
    25
100
AcDbLine
 10
222.25
 20
-32.54375
 30
0.0
 11
32.54375
 21
-32.54375
 31
0.0
  0
LINE
  5
1F1
330
1F
100
AcDbEntity
  8
0
  6
Continuous
 62
     7
370
    25
100
AcDbLine
 10
32.54375
 20
-32.54375
 30
0.0
 11
32.54375
 21
-222.25
 31
0.0
  0
LINE
  5
1F2
330
1F
100
AcDbEntity
  8
0
  6
Continuous
 62
     7
370
    25
100
AcDbLine
 10
12.65
 20
-222.25
 30
0.0
 11
32.54375
 21
-222.25
 31
0.0
  0
LINE
  5
1F3
330
1F
100
AcDbEntity
  8
0
  6
Continuous
 62
     7
370
    25
100
AcDbLine
 10
12.65
 20
-222.25
 30
0.0
 11
12.65
 21
-217.25
 31
0.0
  0
LINE
  5
1F4
330
1F
100
AcDbEntity
  8
0
  6
Continuous
 62
     7
370
    25
100
AcDbLine
 10
12.65
 20
-217.25
 30
0.0
 11
16.15
 21
-217.25
 31
0.0
  0
LINE
  5
1F5
330
1F
100
AcDbEntity
  8
0
  6
Continuous
 62
     7
370
    25
100
AcDbLine
 10
16.15
 20
-217.25
 30
0.0
 11
16.15
 21
-214.25
 31
0.0
  0
LINE
  5
1F6
330
1F
100
AcDbEntity
  8
0
  6
Continuous
 62
     7
370
    25
100
AcDbLine
 10
16.15
 20
-214.25
 30
0.0
 11
12.65
 21
-214.25
 31
0.0
  0
LINE
  5
1F7
330
1F
100
AcDbEntity
  8
0
  6
Continuous
 62
     7
370
    25
100
AcDbLine
 10
12.65
 20
-214.25
 30
0.0
 11
12.65
 21
-210.75
 31
0.0
  0
LINE
  5
1F8
330
1F
100
AcDbEntity
  8
0
  6
Continuous
 62
     7
370
    25
100
AcDbLine
 10
12.65
 20
-210.75
 30
0.0
 11
9.65
 21
-210.75
 31
0.0
  0
LINE
  5
1F9
330
1F
100
AcDbEntity
  8
0
  6
Continuous
 62
     7
370
    25
100
AcDbLine
 10
9.65
 20
-210.75
 30
0.0
 11
9.65
 21
-214.25
 31
0.0
  0
LINE
  5
1FA
330
1F
100
AcDbEntity
  8
0
  6
Continuous
 62
     7
370
    25
100
AcDbLine
 10
9.65
 20
-214.25
 30
0.0
 11
6.15
 21
-214.25
 31
0.0
  0
LINE
  5
1FB
330
1F
100
AcDbEntity
  8
0
  6
Continuous
 62
     7
370
    25
100
AcDbLine
 10
6.15
 20
-214.25
 30
0.0
 11
6.15
 21
-217.25
 31
0.0
  0
LINE
  5
1FC
330
1F
100
AcDbEntity
  8
0
  6
Continuous
 62
     7
370
    25
100
AcDbLine
 10
6.15
 20
-217.25
 30
0.0
 11
9.65
 21
-217.25
 31
0.0
  0
LINE
  5
1FD
330
1F
100
AcDbEntity
  8
0
  6
Continuous
 62
     7
370
    25
100
AcDbLine
 10
9.65
 20
-217.25
 30
0.0
 11
9.65
 21
-222.25
 31
0.0
  0
LINE
  5
1FE
330
1F
100
AcDbEntity
  8
0
  6
Continuous
 62
     7
370
    25
100
AcDbLine
 10
0.0
 20
-222.25
 30
0.0
 11
9.65
 21
-222.25
 31
0.0
  0
LINE
  5
1FF
330
1F
100
AcDbEntity
  8
0
  6
Continuous
 62
     7
370
    25
100
AcDbLine
 10
56.8169270833
 20
-24.2659722222
 30
0.0
 11
57.0144097222
 21
-24.2659722222
 31
0.0
  0
LINE
  5
200
330
1F
100
AcDbEntity
  8
0
  6
Continuous
 62
     7
370
    25
100
AcDbLine
 10
56.8169270833
 20
-24.54375
 30
0.0
 11
56.8169270833
 21
-24.2659722222
 31
0.0
  0
LINE
  5
201
330
1F
100
AcDbEntity
  8
0
  6
Continuous
 62
     7
370
    25
100
AcDbLine
 10
61.5282986111
 20
-24.54375
 30
0.0
 11
56.8169270833
 21
-24.54375
 31
0.0
  0
LINE
  5
202
330
1F
100
AcDbEntity
  8
0
  6
Continuous
 62
     7
370
    25
100
AcDbLine
 10
61.5282986111
 20
-24.2659722222
 30
0.0
 11
61.5282986111
 21
-24.54375
 31
0.0
  0
LINE
  5
203
330
1F
100
AcDbEntity
  8
0
  6
Continuous
 62
     7
370
    25
100
AcDbLine
 10
56.3850694444
 20
-14.4048611111
 30
0.0
 11
59.9831597222
 21
-22.5862847222
 31
0.0
  0
LINE
  5
204
330
1F
100
AcDbEntity
  8
0
  6
Continuous
 62
     7
370
    25
100
AcDbLine
 10
56.2440104167
 20
-14.4048611111
 30
0.0
 11
56.3850694444
 21
-14.4048611111
 31
0.0
  0
LINE
  5
205
330
1F
100
AcDbEntity
  8
0
  6
Continuous
 62
     7
370
    25
100
AcDbLine
 10
52.7001736111
 20
-22.3714409722
 30
0.0
 11
56.2440104167
 21
-14.4048611111
 31
0.0
  0
LINE
  5
206
330
1F
100
AcDbEntity
  8
0
  6
Continuous
 62
     7
370
    25
100
AcDbLine
 10
50.9727430556
 20
-24.54375
 30
0.0
 11
50.9727430556
 21
-24.2659722222
 31
0.0
  0
LINE
  5
207
330
1F
100
AcDbEntity
  8
0
  6
Continuous
 62
     7
370
    25
100
AcDbLine
 10
54.3776909722
 20
-24.54375
 30
0.0
 11
50.9727430556
 21
-24.54375
 31
0.0
  0
LINE
  5
208
330
1F
100
AcDbEntity
  8
0
  6
Continuous
 62
     7
370
    25
100
AcDbLine
 10
54.3776909722
 20
-24.2659722222
 30
0.0
 11
54.3776909722
 21
-24.54375
 31
0.0
  0
LINE
  5
209
330
1F
100
AcDbEntity
  8
0
  6
Continuous
 62
     7
370
    25
100
AcDbLine
 10
53.7136284722
 20
-21.7659722222
 30
0.0
 11
53.2709201389
 21
-22.7642361111
 31
0.0
  0
LINE
  5
20A
330
1F
100
AcDbEntity
  8
0
  6
Continuous
 62
     7
370
    25
100
AcDbLine
 10
57.2075520833
 20
-21.7659722222
 30
0.0
 11
53.7136284722
 21
-21.7659722222
 31
0.0
  0
LINE
  5
20B
330
1F
100
AcDbEntity
  8
0
  6
Continuous
 62
     7
370
    25
100
AcDbLine
 10
57.7240451389
 20
-22.9356770833
 30
0.0
 11
57.2075520833
 21
-21.7659722222
 31
0.0
  0
LINE
  5
20C
330
1F
100
AcDbEntity
  8
0
  6
Continuous
 62
     7
370
    25
100
AcDbLine
 10
155.5546006944
 20
-22.18046875
 30
0.0
 11
155.5546006944
 21
-23.0376736111
 31
0.0
  0
LINE
  5
20D
330
1F
100
AcDbEntity
  8
0
  6
Continuous
 62
     7
370
    25
100
AcDbLine
 10
155.8323784722
 20
-17.8770833333
 30
0.0
 11
155.5546006944
 21
-17.8770833333
 31
0.0
  0
LINE
  5
20E
330
1F
100
AcDbEntity
  8
0
  6
Continuous
 62
     7
370
    25
100
AcDbLine
 10
155.8323784722
 20
-14.4048611111
 30
0.0
 11
155.8323784722
 21
-17.8770833333
 31
0.0
  0
LINE
  5
20F
330
1F
100
AcDbEntity
  8
0
  6
Continuous
 62
     7
370
    25
100
AcDbLine
 10
155.5546006944
 20
-14.4048611111
 30
0.0
 11
155.8323784722
 21
-14.4048611111
 31
0.0
  0
LINE
  5
210
330
1F
100
AcDbEntity
  8
0
  6
Continuous
 62
     7
370
    25
100
AcDbLine
 10
24.54375
 20
-103.4058159722
 30
0.0
 11
24.54375
 21
-98.2669270833
 31
0.0
  0
LINE
  5
211
330
1F
100
AcDbEntity
  8
0
  6
Continuous
 62
     7
370
    25
100
AcDbLine
 10
24.54375
 20
-98.2669270833
 30
0.0
 11
24.2659722222
 21
-98.2669270833
 31
0.0
  0
LINE
  5
212
330
1F
100
AcDbEntity
  8
0
  6
Continuous
 62
     7
370
    25
100
AcDbLine
 10
24.2659722222
 20
-98.2669270833
 30
0.0
 11
24.2659722222
 21
-98.5946180556
 31
0.0
  0
LINE
  5
213
330
1F
100
AcDbEntity
  8
0
  6
Continuous
 62
     7
370
    25
100
AcDbLine
 10
22.8770833333
 20
-99.6558159722
 30
0.0
 11
16.2104166667
 21
-99.6558159722
 31
0.0
  0
LINE
  5
214
330
1F
100
AcDbEntity
  8
0
  6
Continuous
 62
     7
370
    25
100
AcDbLine
 10
14.8215277778
 20
-98.5946180556
 30
0.0
 11
14.8215277778
 21
-98.2669270833
 31
0.0
  0
LINE
  5
215
330
1F
100
AcDbEntity
  8
0
  6
Continuous
 62
     7
370
    25
100
AcDbLine
 10
14.8215277778
 20
-98.2669270833
 30
0.0
 11
14.54375
 21
-98.2669270833
 31
0.0
  0
LINE
  5
216
330
1F
100
AcDbEntity
  8
0
  6
Continuous
 62
     7
370
    25
100
AcDbLine
 10
14.54375
 20
-98.2669270833
 30
0.0
 11
14.54375
 21
-103.4058159722
 31
0.0
  0
LINE
  5
217
330
1F
100
AcDbEntity
  8
0
  6
Continuous
 62
     7
370
    25
100
AcDbLine
 10
14.54375
 20
-103.4058159722
 30
0.0
 11
14.8215277778
 21
-103.4058159722
 31
0.0
  0
LINE
  5
218
330
1F
100
AcDbEntity
  8
0
  6
Continuous
 62
     7
370
    25
100
AcDbLine
 10
14.8215277778
 20
-103.4058159722
 30
0.0
 11
14.8215277778
 21
-103.0802951389
 31
0.0
  0
LINE
  5
219
330
1F
100
AcDbEntity
  8
0
  6
Continuous
 62
     7
370
    25
100
AcDbLine
 10
16.2104166667
 20
-102.0169270833
 30
0.0
 11
22.8770833333
 21
-102.0169270833
 31
0.0
  0
LINE
  5
21A
330
1F
100
AcDbEntity
  8
0
  6
Continuous
 62
     7
370
    25
100
AcDbLine
 10
24.2659722222
 20
-103.0802951389
 30
0.0
 11
24.2659722222
 21
-103.4058159722
 31
0.0
  0
LINE
  5
21B
330
1F
100
AcDbEntity
  8
0
  6
Continuous
 62
     7
370
    25
100
AcDbLine
 10
24.2659722222
 20
-103.4058159722
 30
0.0
 11
24.54375
 21
-103.4058159722
 31
0.0
  0
LINE
  5
21C
330
1F
100
AcDbEntity
  8
0
  6
Continuous
 62
     7
370
    25
100
AcDbLine
 10
24.54375
 20
-109.2391493056
 30
0.0
 11
24.54375
 21
-104.1002604167
 31
0.0
  0
LINE
  5
21D
330
1F
100
AcDbEntity
  8
0
  6
Continuous
 62
     7
370
    25
100
AcDbLine
 10
24.54375
 20
-104.1002604167
 30
0.0
 11
24.2659722222
 21
-104.1002604167
 31
0.0
  0
LINE
  5
21E
330
1F
100
AcDbEntity
  8
0
  6
Continuous
 62
     7
370
    25
100
AcDbLine
 10
24.2659722222
 20
-104.1002604167
 30
0.0
 11
24.2659722222
 21
-104.4279513889
 31
0.0
  0
LINE
  5
21F
330
1F
100
AcDbEntity
  8
0
  6
Continuous
 62
     7
370
    25
100
AcDbLine
 10
22.8770833333
 20
-105.4891493056
 30
0.0
 11
16.2104166667
 21
-105.4891493056
 31
0.0
  0
LINE
  5
220
330
1F
100
AcDbEntity
  8
0
  6
Continuous
 62
     7
370
    25
100
AcDbLine
 10
14.8215277778
 20
-104.4279513889
 30
0.0
 11
14.8215277778
 21
-104.1002604167
 31
0.0
  0
LINE
  5
221
330
1F
100
AcDbEntity
  8
0
  6
Continuous
 62
     7
370
    25
100
AcDbLine
 10
14.8215277778
 20
-104.1002604167
 30
0.0
 11
14.54375
 21
-104.1002604167
 31
0.0
  0
LINE
  5
222
330
1F
100
AcDbEntity
  8
0
  6
Continuous
 62
     7
370
    25
100
AcDbLine
 10
14.54375
 20
-104.1002604167
 30
0.0
 11
14.54375
 21
-109.2391493056
 31
0.0
  0
LINE
  5
223
330
1F
100
AcDbEntity
  8
0
  6
Continuous
 62
     7
370
    25
100
AcDbLine
 10
14.54375
 20
-109.2391493056
 30
0.0
 11
14.8215277778
 21
-109.2391493056
 31
0.0
  0
LINE
  5
224
330
1F
100
AcDbEntity
  8
0
  6
Continuous
 62
     7
370
    25
100
AcDbLine
 10
14.8215277778
 20
-109.2391493056
 30
0.0
 11
14.8215277778
 21
-108.9136284722
 31
0.0
  0
LINE
  5
225
330
1F
100
AcDbEntity
  8
0
  6
Continuous
 62
     7
370
    25
100
AcDbLine
 10
16.2104166667
 20
-107.8502604167
 30
0.0
 11
22.8770833333
 21
-107.8502604167
 31
0.0
  0
LINE
  5
226
330
1F
100
AcDbEntity
  8
0
  6
Continuous
 62
     7
370
    25
100
AcDbLine
 10
24.2659722222
 20
-108.9136284722
 30
0.0
 11
24.2659722222
 21
-109.2391493056
 31
0.0
  0
LINE
  5
227
330
1F
100
AcDbEntity
  8
0
  6
Continuous
 62
     7
370
    25
100
AcDbLine
 10
24.2659722222
 20
-109.2391493056
 30
0.0
 11
24.54375
 21
-109.2391493056
 31
0.0
  0
LINE
  5
228
330
1F
100
AcDbEntity
  8
0
  6
Continuous
 62
     7
370
    25
100
AcDbLine
 10
24.54375
 20
-147.9157118056
 30
0.0
 11
24.54375
 21
-142.7768229167
 31
0.0
  0
LINE
  5
229
330
1F
100
AcDbEntity
  8
0
  6
Continuous
 62
     7
370
    25
100
AcDbLine
 10
24.54375
 20
-142.7768229167
 30
0.0
 11
24.2659722222
 21
-142.7768229167
 31
0.0
  0
LINE
  5
22A
330
1F
100
AcDbEntity
  8
0
  6
Continuous
 62
     7
370
    25
100
AcDbLine
 10
24.2659722222
 20
-142.7768229167
 30
0.0
 11
24.2659722222
 21
-143.1045138889
 31
0.0
  0
LINE
  5
22B
330
1F
100
AcDbEntity
  8
0
  6
Continuous
 62
     7
370
    25
100
AcDbLine
 10
22.8770833333
 20
-144.1657118056
 30
0.0
 11
16.2104166667
 21
-144.1657118056
 31
0.0
  0
LINE
  5
22C
330
1F
100
AcDbEntity
  8
0
  6
Continuous
 62
     7
370
    25
100
AcDbLine
 10
14.8215277778
 20
-143.1045138889
 30
0.0
 11
14.8215277778
 21
-142.7768229167
 31
0.0
  0
LINE
  5
22D
330
1F
100
AcDbEntity
  8
0
  6
Continuous
 62
     7
370
    25
100
AcDbLine
 10
14.8215277778
 20
-142.7768229167
 30
0.0
 11
14.54375
 21
-142.7768229167
 31
0.0
  0
LINE
  5
22E
330
1F
100
AcDbEntity
  8
0
  6
Continuous
 62
     7
370
    25
100
AcDbLine
 10
14.54375
 20
-142.7768229167
 30
0.0
 11
14.54375
 21
-147.9157118056
 31
0.0
  0
LINE
  5
22F
330
1F
100
AcDbEntity
  8
0
  6
Continuous
 62
     7
370
    25
100
AcDbLine
 10
14.54375
 20
-147.9157118056
 30
0.0
 11
14.8215277778
 21
-147.9157118056
 31
0.0
  0
LINE
  5
230
330
1F
100
AcDbEntity
  8
0
  6
Continuous
 62
     7
370
    25
100
AcDbLine
 10
14.8215277778
 20
-147.9157118056
 30
0.0
 11
14.8215277778
 21
-147.5901909722
 31
0.0
  0
LINE
  5
231
330
1F
100
AcDbEntity
  8
0
  6
Continuous
 62
     7
370
    25
100
AcDbLine
 10
16.2104166667
 20
-146.5268229167
 30
0.0
 11
22.8770833333
 21
-146.5268229167
 31
0.0
  0
LINE
  5
232
330
1F
100
AcDbEntity
  8
0
  6
Continuous
 62
     7
370
    25
100
AcDbLine
 10
24.2659722222
 20
-147.5901909722
 30
0.0
 11
24.2659722222
 21
-147.9157118056
 31
0.0
  0
LINE
  5
233
330
1F
100
AcDbEntity
  8
0
  6
Continuous
 62
     7
370
    25
100
AcDbLine
 10
24.2659722222
 20
-147.9157118056
 30
0.0
 11
24.54375
 21
-147.9157118056
 31
0.0
  0
LINE
  5
234
330
1F
100
AcDbEntity
  8
0
  6
Continuous
 62
     7
370
    25
100
AcDbLine
 10
24.54375
 20
-153.7490451389
 30
0.0
 11
24.54375
 21
-148.61015625
 31
0.0
  0
LINE
  5
235
330
1F
100
AcDbEntity
  8
0
  6
Continuous
 62
     7
370
    25
100
AcDbLine
 10
24.54375
 20
-148.61015625
 30
0.0
 11
24.2659722222
 21
-148.61015625
 31
0.0
  0
LINE
  5
236
330
1F
100
AcDbEntity
  8
0
  6
Continuous
 62
     7
370
    25
100
AcDbLine
 10
24.2659722222
 20
-148.61015625
 30
0.0
 11
24.2659722222
 21
-148.9378472222
 31
0.0
  0
LINE
  5
237
330
1F
100
AcDbEntity
  8
0
  6
Continuous
 62
     7
370
    25
100
AcDbLine
 10
22.8770833333
 20
-149.9990451389
 30
0.0
 11
16.2104166667
 21
-149.9990451389
 31
0.0
  0
LINE
  5
238
330
1F
100
AcDbEntity
  8
0
  6
Continuous
 62
     7
370
    25
100
AcDbLine
 10
14.8215277778
 20
-148.9378472222
 30
0.0
 11
14.8215277778
 21
-148.61015625
 31
0.0
  0
LINE
  5
239
330
1F
100
AcDbEntity
  8
0
  6
Continuous
 62
     7
370
    25
100
AcDbLine
 10
14.8215277778
 20
-148.61015625
 30
0.0
 11
14.54375
 21
-148.61015625
 31
0.0
  0
LINE
  5
23A
330
1F
100
AcDbEntity
  8
0
  6
Continuous
 62
     7
370
    25
100
AcDbLine
 10
14.54375
 20
-148.61015625
 30
0.0
 11
14.54375
 21
-153.7490451389
 31
0.0
  0
LINE
  5
23B
330
1F
100
AcDbEntity
  8
0
  6
Continuous
 62
     7
370
    25
100
AcDbLine
 10
14.54375
 20
-153.7490451389
 30
0.0
 11
14.8215277778
 21
-153.7490451389
 31
0.0
  0
LINE
  5
23C
330
1F
100
AcDbEntity
  8
0
  6
Continuous
 62
     7
370
    25
100
AcDbLine
 10
14.8215277778
 20
-153.7490451389
 30
0.0
 11
14.8215277778
 21
-153.4235243056
 31
0.0
  0
LINE
  5
23D
330
1F
100
AcDbEntity
  8
0
  6
Continuous
 62
     7
370
    25
100
AcDbLine
 10
16.2104166667
 20
-152.36015625
 30
0.0
 11
22.8770833333
 21
-152.36015625
 31
0.0
  0
LINE
  5
23E
330
1F
100
AcDbEntity
  8
0
  6
Continuous
 62
     7
370
    25
100
AcDbLine
 10
24.2659722222
 20
-153.4235243056
 30
0.0
 11
24.2659722222
 21
-153.7490451389
 31
0.0
  0
LINE
  5
23F
330
1F
100
AcDbEntity
  8
0
  6
Continuous
 62
     7
370
    25
100
AcDbLine
 10
24.2659722222
 20
-153.7490451389
 30
0.0
 11
24.54375
 21
-153.7490451389
 31
0.0
  0
LINE
  5
240
330
1F
100
AcDbEntity
  8
0
  6
Continuous
 62
     7
370
    25
100
AcDbLine
 10
24.54375
 20
-159.5823784722
 30
0.0
 11
24.54375
 21
-154.4434895833
 31
0.0
  0
LINE
  5
241
330
1F
100
AcDbEntity
  8
0
  6
Continuous
 62
     7
370
    25
100
AcDbLine
 10
24.54375
 20
-154.4434895833
 30
0.0
 11
24.2659722222
 21
-154.4434895833
 31
0.0
  0
LINE
  5
242
330
1F
100
AcDbEntity
  8
0
  6
Continuous
 62
     7
370
    25
100
AcDbLine
 10
24.2659722222
 20
-154.4434895833
 30
0.0
 11
24.2659722222
 21
-154.7711805556
 31
0.0
  0
LINE
  5
243
330
1F
100
AcDbEntity
  8
0
  6
Continuous
 62
     7
370
    25
100
AcDbLine
 10
22.8770833333
 20
-155.8323784722
 30
0.0
 11
16.2104166667
 21
-155.8323784722
 31
0.0
  0
LINE
  5
244
330
1F
100
AcDbEntity
  8
0
  6
Continuous
 62
     7
370
    25
100
AcDbLine
 10
14.8215277778
 20
-154.7711805556
 30
0.0
 11
14.8215277778
 21
-154.4434895833
 31
0.0
  0
LINE
  5
245
330
1F
100
AcDbEntity
  8
0
  6
Continuous
 62
     7
370
    25
100
AcDbLine
 10
14.8215277778
 20
-154.4434895833
 30
0.0
 11
14.54375
 21
-154.4434895833
 31
0.0
  0
LINE
  5
246
330
1F
100
AcDbEntity
  8
0
  6
Continuous
 62
     7
370
    25
100
AcDbLine
 10
14.54375
 20
-154.4434895833
 30
0.0
 11
14.54375
 21
-159.5823784722
 31
0.0
  0
LINE
  5
247
330
1F
100
AcDbEntity
  8
0
  6
Continuous
 62
     7
370
    25
100
AcDbLine
 10
14.54375
 20
-159.5823784722
 30
0.0
 11
14.8215277778
 21
-159.5823784722
 31
0.0
  0
LINE
  5
248
330
1F
100
AcDbEntity
  8
0
  6
Continuous
 62
     7
370
    25
100
AcDbLine
 10
14.8215277778
 20
-159.5823784722
 30
0.0
 11
14.8215277778
 21
-159.2568576389
 31
0.0
  0
LINE
  5
249
330
1F
100
AcDbEntity
  8
0
  6
Continuous
 62
     7
370
    25
100
AcDbLine
 10
16.2104166667
 20
-158.1934895833
 30
0.0
 11
22.8770833333
 21
-158.1934895833
 31
0.0
  0
LINE
  5
24A
330
1F
100
AcDbEntity
  8
0
  6
Continuous
 62
     7
370
    25
100
AcDbLine
 10
24.2659722222
 20
-159.2568576389
 30
0.0
 11
24.2659722222
 21
-159.5823784722
 31
0.0
  0
LINE
  5
24B
330
1F
100
AcDbEntity
  8
0
  6
Continuous
 62
     7
370
    25
100
AcDbLine
 10
24.2659722222
 20
-159.5823784722
 30
0.0
 11
24.54375
 21
-159.5823784722
 31
0.0
  0
LINE
  5
24C
330
1F
100
AcDbEntity
  8
0
  6
Continuous
 62
     7
370
    25
100
AcDbLine
 10
14.8215277778
 20
-193.5866319444
 30
0.0
 11
14.54375
 21
-193.5866319444
 31
0.0
  0
LINE
  5
24D
330
1F
100
AcDbEntity
  8
0
  6
Continuous
 62
     7
370
    25
100
AcDbLine
 10
21.5033854167
 20
-194.7324652778
 30
0.0
 11
17.1826388889
 21
-192.83359375
 31
0.0
  0
LINE
  5
24E
330
1F
100
AcDbEntity
  8
0
  6
Continuous
 62
     7
370
    25
100
AcDbLine
 10
16.6140625
 20
-196.8526909722
 30
0.0
 11
21.5033854167
 21
-194.7324652778
 31
0.0
  0
LINE
  5
24F
330
1F
100
AcDbEntity
  8
0
  6
Continuous
 62
     7
370
    25
100
AcDbLine
 10
14.8215277778
 20
-196.1170138889
 30
0.0
 11
14.8215277778
 21
-196.2776041667
 31
0.0
  0
LINE
  5
250
330
1F
100
AcDbEntity
  8
0
  6
Continuous
 62
     7
370
    25
100
AcDbLine
 10
14.54375
 20
-196.1170138889
 30
0.0
 11
14.8215277778
 21
-196.1170138889
 31
0.0
  0
LINE
  5
251
330
1F
100
AcDbEntity
  8
0
  6
Continuous
 62
     7
370
    25
100
AcDbLine
 10
14.54375
 20
-200.8045138889
 30
0.0
 11
14.54375
 21
-196.1170138889
 31
0.0
  0
LINE
  5
252
330
1F
100
AcDbEntity
  8
0
  6
Continuous
 62
     7
370
    25
100
AcDbLine
 10
14.8215277778
 20
-200.8045138889
 30
0.0
 11
14.54375
 21
-200.8045138889
 31
0.0
  0
LINE
  5
253
330
1F
100
AcDbEntity
  8
0
  6
Continuous
 62
     7
370
    25
100
AcDbLine
 10
24.6826388889
 20
-195.76328125
 30
0.0
 11
16.7616319444
 21
-199.1942708333
 31
0.0
  0
LINE
  5
254
330
1F
100
AcDbEntity
  8
0
  6
Continuous
 62
     7
370
    25
100
AcDbLine
 10
24.6826388889
 20
-195.3835069444
 30
0.0
 11
24.6826388889
 21
-195.76328125
 31
0.0
  0
LINE
  5
255
330
1F
100
AcDbEntity
  8
0
  6
Continuous
 62
     7
370
    25
100
AcDbLine
 10
17.1674479167
 20
-192.0827256944
 30
0.0
 11
24.6826388889
 21
-195.3835069444
 31
0.0
  0
LINE
  5
256
330
1F
100
AcDbEntity
  8
0
  6
Continuous
 62
     7
370
    25
100
AcDbLine
 10
14.54375
 20
-190.2012152778
 30
0.0
 11
14.8215277778
 21
-190.2012152778
 31
0.0
  0
LINE
  5
257
330
1F
100
AcDbEntity
  8
0
  6
Continuous
 62
     7
370
    25
100
AcDbLine
 10
14.54375
 20
-193.5866319444
 30
0.0
 11
14.54375
 21
-190.2012152778
 31
0.0
  0
LINE
  5
258
330
1F
100
AcDbEntity
  8
0
  6
Continuous
 62
     7
370
    25
100
AcDbLine
 10
197.1478298611
 20
-15.0993055556
 30
0.0
 11
197.1478298611
 21
-22.903125
 31
0.0
  0
LINE
  5
259
330
1F
100
AcDbEntity
  8
0
  6
Continuous
 62
     7
370
    25
100
AcDbLine
 10
102.5789930556
 20
-15.0993055556
 30
0.0
 11
102.5789930556
 21
-19.1270833333
 31
0.0
  0
LINE
  5
25A
330
1F
100
AcDbEntity
  8
0
  6
Continuous
 62
     7
370
    25
100
AcDbLine
 10
55.4714409722
 20
-17.8141493056
 30
0.0
 11
54.0217881944
 21
-21.0715277778
 31
0.0
  0
LINE
  5
25B
330
1F
100
AcDbEntity
  8
0
  6
Continuous
 62
     7
370
    25
100
AcDbLine
 10
54.0217881944
 20
-21.0715277778
 30
0.0
 11
56.9037326389
 21
-21.0715277778
 31
0.0
  0
LINE
  5
25C
330
1F
100
AcDbEntity
  8
0
  6
Continuous
 62
     7
370
    25
100
AcDbLine
 10
56.9037326389
 20
-21.0715277778
 30
0.0
 11
55.4714409722
 21
-17.8141493056
 31
0.0
  0
LINE
  5
25D
330
1F
100
AcDbEntity
  8
0
  6
Continuous
 62
     7
370
    25
100
AcDbLine
 10
102.5789930556
 20
-19.6826388889
 30
0.0
 11
102.5789930556
 21
-23.1982638889
 31
0.0
  0
MTEXT
  5
25F
330
1F
100
AcDbEntity
  8
0
  6
Continuous
 62
     7
100
AcDbMText
 10
0.0
 20
-223.2695663917
 30
0.0
 40
4.83362
 41
0.0
 71
     1
 72
     1
  1
SOLIDWORKS Maker Product.
  7
SLDTEXTSTYLE0
 73
     1
 44
1.0
  0
MTEXT
  5
260
330
1F
100
AcDbEntity
  8
0
  6
Continuous
 62
     7
100
AcDbMText
 10
0.0
 20
-230.5199963917
 30
0.0
 40
4.83362
 41
0.0
 71
     1
 72
     1
  1
For Personal Use Only.
  7
SLDTEXTSTYLE0
 73
     1
 44
1.0
  0
ENDSEC
  0
SECTION
  2
OBJECTS
  0
DICTIONARY
  5
C
330
0
100
AcDbDictionary
281
     1
  3
ACAD_GROUP
350
D
  3
ACAD_LAYOUT
350
1A
  3
ACAD_MLINESTYLE
350
17
  3
ACAD_PLOTSETTINGS
350
19
  3
ACAD_PLOTSTYLENAME
350
E
  3
ACAD_SCALELIST
350
47
  3
DWGPROPS
350
261
  0
DICTIONARY
  5
D
102
{ACAD_REACTORS
330
C
102
}
330
C
100
AcDbDictionary
281
     1
  0
DICTIONARY
  5
1A
102
{ACAD_REACTORS
330
C
102
}
330
C
100
AcDbDictionary
281
     1
  3
Layout1
350
1E
  3
Layout2
350
26
  3
Model
350
22
  0
DICTIONARY
  5
17
102
{ACAD_REACTORS
330
C
102
}
330
C
100
AcDbDictionary
281
     1
  3
Standard
350
18
  0
DICTIONARY
  5
19
102
{ACAD_REACTORS
330
C
102
}
330
C
100
AcDbDictionary
281
     1
  0
ACDBDICTIONARYWDFLT
  5
E
102
{ACAD_REACTORS
330
C
102
}
330
C
100
AcDbDictionary
281
     1
  3
Normal
350
F
100
AcDbDictionaryWithDefault
340
F
  0
DICTIONARY
  5
47
102
{ACAD_REACTORS
330
C
102
}
330
C
100
AcDbDictionary
281
     1
  3
A0
350
48
  3
A1
350
49
  3
A2
350
4A
  3
A3
350
4B
  3
A4
350
4C
  3
A5
350
4D
  3
A6
350
4E
  3
A7
350
4F
  3
A8
350
50
  3
A9
350
51
  3
B0
350
52
  3
B1
350
53
  3
B2
350
54
  3
B3
350
55
  3
B4
350
56
  3
B5
350
57
  3
B6
350
58
  0
XRECORD
  5
261
102
{ACAD_REACTORS
330
C
102
}
330
C
100
AcDbXrecord
280
     1
  1
DWGPROPS COOKIE
  2

  3

  4

  6

  7

  8
Caden
  9

300
=
301
=
302
=
303
=
304
=
305
=
306
=
307
=
308
=
309
=
 40
0.0
 41
2460169.975270116
 42
2460169.975314885
  1

 90
        0
  0
LAYOUT
  5
1E
102
{ACAD_REACTORS
330
1A
102
}
330
1A
100
AcDbPlotSettings
  1

  2
none_device
  4

  6

 40
0.0
 41
0.0
 42
0.0
 43
0.0
 44
0.0
 45
0.0
 46
0.0
 47
0.0
 48
0.0
 49
0.0
140
0.0
141
0.0
142
1.0
143
1.0
 70
   688
 72
     1
 73
     0
 74
     5
  7

 75
    16
147
1.0
148
0.0
149
0.0
100
AcDbLayout
  1
Layout1
 70
     1
 71
     1
 10
0.0
 20
0.0
 11
420.0
 21
297.0
 12
0.0
 22
0.0
 32
0.0
 14
1.0000000000E+20
 24
1.0000000000E+20
 34
1.0000000000E+20
 15
-1.0000000000E+20
 25
-1.0000000000E+20
 35
-1.0000000000E+20
146
0.0
 13
0.0
 23
0.0
 33
0.0
 16
1.0
 26
0.0
 36
0.0
 17
0.0
 27
1.0
 37
0.0
 76
     0
330
1B
  0
LAYOUT
  5
26
102
{ACAD_REACTORS
330
1A
102
}
330
1A
100
AcDbPlotSettings
  1

  2
none_device
  4

  6

 40
0.0
 41
0.0
 42
0.0
 43
0.0
 44
0.0
 45
0.0
 46
0.0
 47
0.0
 48
0.0
 49
0.0
140
0.0
141
0.0
142
1.0
143
1.0
 70
   688
 72
     1
 73
     0
 74
     5
  7

 75
    16
147
1.0
148
0.0
149
0.0
100
AcDbLayout
  1
Layout2
 70
     1
 71
     2
 10
0.0
 20
0.0
 11
0.0
 21
0.0
 12
0.0
 22
0.0
 32
0.0
 14
0.0
 24
0.0
 34
0.0
 15
0.0
 25
0.0
 35
0.0
146
0.0
 13
0.0
 23
0.0
 33
0.0
 16
1.0
 26
0.0
 36
0.0
 17
0.0
 27
1.0
 37
0.0
 76
     0
330
23
  0
LAYOUT
  5
22
102
{ACAD_REACTORS
330
1A
102
}
330
1A
100
AcDbPlotSettings
  1

  2
none_device
  4
ANSI_A_(11.00_x_8.50_Inches)
  6

 40
6.35
 41
19.05
 42
6.35000508
 43
19.05000254
 44
279.4
 45
215.9
 46
20.9496403171
 47
195.77049873
 48
0.0
 49
0.0
140
0.0
141
0.0
142
0.0378627672
143
1.0
 70
  1696
 72
     0
 73
     0
 74
     0
  7

 75
     0
147
0.0179189148
148
-1300.4909072572
149
0.0
100
AcDbLayout
  1
Model
 70
     1
 71
     0
 10
0.0
 20
0.0
 11
420.0
 21
297.0
 12
0.0
 22
0.0
 32
0.0
 14
0.0
 24
-222.25
 34
0.0
 15
233.75
 25
0.0
 35
0.0
146
0.0
 13
0.0
 23
0.0
 33
0.0
 16
1.0
 26
0.0
 36
0.0
 17
0.0
 27
1.0
 37
0.0
 76
     0
330
1F
331
29
  0
MLINESTYLE
  5
18
102
{ACAD_REACTORS
330
17
102
}
330
17
100
AcDbMlineStyle
  2
Standard
 70
     0
  3

 62
   256
 51
90.0
 52
90.0
 71
     2
 49
0.5
 62
   256
  6
BYLAYER
 49
-0.5
 62
   256
  6
BYLAYER
  0
ACDBPLACEHOLDER
  5
F
102
{ACAD_REACTORS
330
E
102
}
330
E
  0
SCALE
  5
48
102
{ACAD_REACTORS
330
47
102
}
330
47
100
AcDbScale
 70
     0
300
1:1
140
1.0
141
1.0
290
     1
  0
SCALE
  5
49
102
{ACAD_REACTORS
330
47
102
}
330
47
100
AcDbScale
 70
     0
300
1:2
140
1.0
141
2.0
290
     0
  0
SCALE
  5
4A
102
{ACAD_REACTORS
330
47
102
}
330
47
100
AcDbScale
 70
     0
300
1:4
140
1.0
141
4.0
290
     0
  0
SCALE
  5
4B
102
{ACAD_REACTORS
330
47
102
}
330
47
100
AcDbScale
 70
     0
300
1:5
140
1.0
141
5.0
290
     0
  0
SCALE
  5
4C
102
{ACAD_REACTORS
330
47
102
}
330
47
100
AcDbScale
 70
     0
300
1:8
140
1.0
141
8.0
290
     0
  0
SCALE
  5
4D
102
{ACAD_REACTORS
330
47
102
}
330
47
100
AcDbScale
 70
     0
300
1:10
140
1.0
141
10.0
290
     0
  0
SCALE
  5
4E
102
{ACAD_REACTORS
330
47
102
}
330
47
100
AcDbScale
 70
     0
300
1:16
140
1.0
141
16.0
290
     0
  0
SCALE
  5
4F
102
{ACAD_REACTORS
330
47
102
}
330
47
100
AcDbScale
 70
     0
300
1:20
140
1.0
141
20.0
290
     0
  0
SCALE
  5
50
102
{ACAD_REACTORS
330
47
102
}
330
47
100
AcDbScale
 70
     0
300
1:30
140
1.0
141
30.0
290
     0
  0
SCALE
  5
51
102
{ACAD_REACTORS
330
47
102
}
330
47
100
AcDbScale
 70
     0
300
1:40
140
1.0
141
40.0
290
     0
  0
SCALE
  5
52
102
{ACAD_REACTORS
330
47
102
}
330
47
100
AcDbScale
 70
     0
300
1:50
140
1.0
141
50.0
290
     0
  0
SCALE
  5
53
102
{ACAD_REACTORS
330
47
102
}
330
47
100
AcDbScale
 70
     0
300
1:100
140
1.0
141
100.0
290
     0
  0
SCALE
  5
54
102
{ACAD_REACTORS
330
47
102
}
330
47
100
AcDbScale
 70
     0
300
2:1
140
2.0
141
1.0
290
     0
  0
SCALE
  5
55
102
{ACAD_REACTORS
330
47
102
}
330
47
100
AcDbScale
 70
     0
300
4:1
140
4.0
141
1.0
290
     0
  0
SCALE
  5
56
102
{ACAD_REACTORS
330
47
102
}
330
47
100
AcDbScale
 70
     0
300
8:1
140
8.0
141
1.0
290
     0
  0
SCALE
  5
57
102
{ACAD_REACTORS
330
47
102
}
330
47
100
AcDbScale
 70
     0
300
10:1
140
10.0
141
1.0
290
     0
  0
SCALE
  5
58
102
{ACAD_REACTORS
330
47
102
}
330
47
100
AcDbScale
 70
     0
300
100:1
140
100.0
141
1.0
290
     0
  0
ENDSEC
  0
EOF
