  0
SECTION
  2
HEADER
  9
$ACADVER
  1
AC1015
  9
$ACADMAINTVER
 70
     6
  9
$DWGCODEPAGE
  3
ANSI_1252
  9
$INSBASE
 10
0.0
 20
0.0
 30
0.0
  9
$EXTMIN
 10
0.0
 20
-222.25
 30
0.0
  9
$EXTMAX
 10
233.75
 20
0.0
 30
0.0
  9
$LIMMIN
 10
0.0
 20
0.0
  9
$LIMMAX
 10
420.0
 20
297.0
  9
$ORTHOMODE
 70
     0
  9
$REGENMODE
 70
     1
  9
$FILLMODE
 70
     1
  9
$QTEXTMODE
 70
     0
  9
$MIRRTEXT
 70
     1
  9
$LTSCALE
 40
1.0
  9
$ATTMODE
 70
     1
  9
$TEXTSIZE
 40
3.5
  9
$TRACEWID
 40
1.0
  9
$TEXTSTYLE
  7
Standard
  9
$CLAYER
  8
0
  9
$CELTYPE
  6
ByLayer
  9
$CECOLOR
 62
   256
  9
$CELTSCALE
 40
1.0
  9
$DISPSILH
 70
     0
  9
$DIMSCALE
 40
1.0
  9
$DIMASZ
 40
3.302
  9
$DIMEXO
 40
0.0
  9
$DIMDLI
 40
3.75
  9
$DIMRND
 40
0.0
  9
$DIMDLE
 40
0.0
  9
$DIMEXE
 40
3.175
  9
$DIMTP
 40
0.0
  9
$DIMTM
 40
0.0
  9
$DIMTXT
 40
3.5
  9
$DIMCEN
 40
2.5
  9
$DIMTSZ
 40
0.0
  9
$DIMTOL
 70
     0
  9
$DIMLIM
 70
     0
  9
$DIMTIH
 70
     1
  9
$DIMTOH
 70
     1
  9
$DIMSE1
 70
     0
  9
$DIMSE2
 70
     0
  9
$DIMTAD
 70
     1
  9
$DIMZIN
 70
     1
  9
$DIMBLK
  1

  9
$DIMASO
 70
     1
  9
$DIMSHO
 70
     1
  9
$DIMPOST
  1

  9
$DIMAPOST
  1

  9
$DIMALT
 70
     0
  9
$DIMALTD
 70
     3
  9
$DIMALTF
 40
0.0393700787
  9
$DIMLFAC
 40
1.0
  9
$DIMTOFL
 70
     1
  9
$DIMTVP
 40
0.0
  9
$DIMTIX
 70
     0
  9
$DIMSOXD
 70
     0
  9
$DIMSAH
 70
     0
  9
$DIMBLK1
  1

  9
$DIMBLK2
  1

  9
$DIMSTYLE
  2
ISO-25
  9
$DIMCLRD
 70
     0
  9
$DIMCLRE
 70
     0
  9
$DIMCLRT
 70
     0
  9
$DIMTFAC
 40
1.0
  9
$DIMGAP
 40
1.524
  9
$DIMJUST
 70
     0
  9
$DIMSD1
 70
     0
  9
$DIMSD2
 70
     0
  9
$DIMTOLJ
 70
     0
  9
$DIMTZIN
 70
     1
  9
$DIMALTZ
 70
     0
  9
$DIMALTTZ
 70
     0
  9
$DIMUPT
 70
     0
  9
$DIMDEC
 70
     2
  9
$DIMTDEC
 70
     2
  9
$DIMALTU
 70
     2
  9
$DIMALTTD
 70
     3
  9
$DIMTXSTY
  7
Standard
  9
$DIMAUNIT
 70
     0
  9
$DIMADEC
 70
     2
  9
$DIMALTRND
 40
0.0
  9
$DIMAZIN
 70
     0
  9
$DIMDSEP
 70
    44
  9
$DIMATFIT
 70
     3
  9
$DIMFRAC
 70
     0
  9
$DIMLDRBLK
  1

  9
$DIMLUNIT
 70
     2
  9
$DIMLWD
 70
    -2
  9
$DIMLWE
 70
    -2
  9
$DIMTMOVE
 70
     0
  9
$LUNITS
 70
     2
  9
$LUPREC
 70
     6
  9
$SKETCHINC
 40
1.0
  9
$FILLETRAD
 40
0.0
  9
$AUNITS
 70
     0
  9
$AUPREC
 70
     6
  9
$MENU
  1
.
  9
$ELEVATION
 40
0.0
  9
$PELEVATION
 40
0.0
  9
$THICKNESS
 40
0.0
  9
$LIMCHECK
 70
     0
  9
$CHAMFERA
 40
0.0
  9
$CHAMFERB
 40
0.0
  9
$CHAMFERC
 40
0.0
  9
$CHAMFERD
 40
0.0
  9
$SKPOLY
 70
     0
  9
$TDCREATE
 40
2460169.768332153
  9
$TDUCREATE
 40
2460169.976665486
  9
$TDUPDATE
 40
2460169.768365498
  9
$TDUUPDATE
 40
2460169.976698831
  9
$TDINDWG
 40
0.0000000116
  9
$TDUSRTIMER
 40
0.0000000116
  9
$USRTIMER
 70
     1
  9
$ANGBASE
 50
0.0
  9
$ANGDIR
 70
     0
  9
$PDMODE
 70
     0
  9
$PDSIZE
 40
-1.0
  9
$PLINEWID
 40
0.0
  9
$SPLFRAME
 70
     0
  9
$SPLINETYPE
 70
     6
  9
$SPLINESEGS
 70
     8
  9
$HANDSEED
  5
2B5
  9
$SURFTAB1
 70
     6
  9
$SURFTAB2
 70
     6
  9
$SURFTYPE
 70
     6
  9
$SURFU
 70
     6
  9
$SURFV
 70
     6
  9
$UCSBASE
  2

  9
$UCSNAME
  2

  9
$UCSORG
 10
0.0
 20
0.0
 30
0.0
  9
$UCSXDIR
 10
1.0
 20
0.0
 30
0.0
  9
$UCSYDIR
 10
0.0
 20
1.0
 30
0.0
  9
$UCSORTHOREF
  2

  9
$UCSORTHOVIEW
 70
     0
  9
$UCSORGTOP
 10
0.0
 20
0.0
 30
0.0
  9
$UCSORGBOTTOM
 10
0.0
 20
0.0
 30
0.0
  9
$UCSORGLEFT
 10
0.0
 20
0.0
 30
0.0
  9
$UCSORGRIGHT
 10
0.0
 20
0.0
 30
0.0
  9
$UCSORGFRONT
 10
0.0
 20
0.0
 30
0.0
  9
$UCSORGBACK
 10
0.0
 20
0.0
 30
0.0
  9
$PUCSBASE
  2

  9
$PUCSNAME
  2

  9
$PUCSORG
 10
0.0
 20
0.0
 30
0.0
  9
$PUCSXDIR
 10
1.0
 20
0.0
 30
0.0
  9
$PUCSYDIR
 10
0.0
 20
1.0
 30
0.0
  9
$PUCSORTHOREF
  2

  9
$PUCSORTHOVIEW
 70
     0
  9
$PUCSORGTOP
 10
0.0
 20
0.0
 30
0.0
  9
$PUCSORGBOTTOM
 10
0.0
 20
0.0
 30
0.0
  9
$PUCSORGLEFT
 10
0.0
 20
0.0
 30
0.0
  9
$PUCSORGRIGHT
 10
0.0
 20
0.0
 30
0.0
  9
$PUCSORGFRONT
 10
0.0
 20
0.0
 30
0.0
  9
$PUCSORGBACK
 10
0.0
 20
0.0
 30
0.0
  9
$USERI1
 70
     0
  9
$USERI2
 70
     0
  9
$USERI3
 70
     0
  9
$USERI4
 70
     0
  9
$USERI5
 70
     0
  9
$USERR1
 40
0.0
  9
$USERR2
 40
0.0
  9
$USERR3
 40
0.0
  9
$USERR4
 40
0.0
  9
$USERR5
 40
0.0
  9
$WORLDVIEW
 70
     1
  9
$SHADEDGE
 70
     3
  9
$SHADEDIF
 70
    70
  9
$TILEMODE
 70
     1
  9
$MAXACTVP
 70
    64
  9
$PINSBASE
 10
0.0
 20
0.0
 30
0.0
  9
$PLIMCHECK
 70
     0
  9
$PEXTMIN
 10
1.0000000000E+20
 20
1.0000000000E+20
 30
1.0000000000E+20
  9
$PEXTMAX
 10
-1.0000000000E+20
 20
-1.0000000000E+20
 30
-1.0000000000E+20
  9
$PLIMMIN
 10
0.0
 20
0.0
  9
$PLIMMAX
 10
420.0
 20
297.0
  9
$UNITMODE
 70
     0
  9
$VISRETAIN
 70
     1
  9
$PLINEGEN
 70
     0
  9
$PSLTSCALE
 70
     1
  9
$TREEDEPTH
 70
  3020
  9
$CMLSTYLE
  2
Standard
  9
$CMLJUST
 70
     0
  9
$CMLSCALE
 40
20.0
  9
$PROXYGRAPHICS
 70
     1
  9
$MEASUREMENT
 70
     1
  9
$CELWEIGHT
370
    -1
  9
$ENDCAPS
280
     0
  9
$JOINSTYLE
280
     0
  9
$LWDISPLAY
290
     1
  9
$INSUNITS
 70
     4
  9
$HYPERLINKBASE
  1

  9
$STYLESHEET
  1

  9
$XEDIT
290
     1
  9
$CEPSNTYPE
380
     0
  9
$PSTYLEMODE
290
     1
  9
$FINGERPRINTGUID
  2
{3e57f99b-a94e-4787-953a-641fe529049d}
  9
$VERSIONGUID
  2
{FAEB1C32-E019-11D5-929B-00C0DF256EC4}
  9
$EXTNAMES
290
     1
  9
$PSVPSCALE
 40
0.0
  9
$OLESTARTUP
290
     0
  0
ENDSEC
  0
SECTION
  2
CLASSES
  0
CLASS
  1
ACDBDICTIONARYWDFLT
  2
AcDbDictionaryWithDefault
  3
ObjectDBX Classes
 90
        0
280
     0
281
     0
  0
CLASS
  1
VISUALSTYLE
  2
AcDbVisualStyle
  3
ObjectDBX Classes
 90
     4095
280
     0
281
     0
  0
CLASS
  1
MATERIAL
  2
AcDbMaterial
  3
ObjectDBX Classes
 90
     1153
280
     0
281
     0
  0
CLASS
  1
SCALE
  2
AcDbScale
  3
ObjectDBX Classes
 90
     1153
280
     0
281
     0
  0
CLASS
  1
TABLESTYLE
  2
AcDbTableStyle
  3
ObjectDBX Classes
 90
     4095
280
     0
281
     0
  0
CLASS
  1
MLEADERSTYLE
  2
AcDbMLeaderStyle
  3
ACDB_MLEADERSTYLE_CLASS
 90
     4095
280
     0
281
     0
  0
CLASS
  1
SUN
  2
AcDbSun
  3
SCENEOE
 90
     1153
280
     0
281
     0
  0
CLASS
  1
ACDBPLACEHOLDER
  2
AcDbPlaceHolder
  3
ObjectDBX Classes
 90
        0
280
     0
281
     0
  0
CLASS
  1
LAYOUT
  2
AcDbLayout
  3
ObjectDBX Classes
 90
        0
280
     0
281
     0
  0
ENDSEC
  0
SECTION
  2
TABLES
  0
TABLE
  2
VPORT
  5
8
330
0
100
AcDbSymbolTable
 70
     1
  0
VPORT
  5
29
330
8
100
AcDbSymbolTableRecord
100
AcDbViewportTableRecord
  2
*Active
 70
     0
 10
0.0
 20
0.0
 11
1.0
 21
1.0
 12
116.875
 22
-111.125
 13
0.0
 23
0.0
 14
10.0
 24
10.0
 15
10.0
 25
10.0
 16
0.0
 26
0.0
 36
1.0
 17
0.0
 27
0.0
 37
0.0
 40
226.695
 41
1.0517435321
 42
50.0
 43
0.0
 44
0.0
 50
0.0
 51
0.0
 71
     0
 72
   100
 73
     1
 74
     3
 75
     0
 76
     0
 77
     0
 78
     0
281
     0
 65
     1
110
0.0
120
0.0
130
0.0
111
1.0
121
0.0
131
0.0
112
0.0
122
1.0
132
0.0
 79
     0
146
0.0
  0
ENDTAB
  0
TABLE
  2
LTYPE
  5
5
330
0
100
AcDbSymbolTable
 70
     6
  0
LTYPE
  5
14
330
5
100
AcDbSymbolTableRecord
100
AcDbLinetypeTableRecord
  2
ByBlock
 70
     0
  3

 72
    65
 73
     0
 40
0.0
  0
LTYPE
  5
15
330
5
100
AcDbSymbolTableRecord
100
AcDbLinetypeTableRecord
  2
ByLayer
 70
     0
  3

 72
    65
 73
     0
 40
0.0
  0
LTYPE
  5
16
330
5
100
AcDbSymbolTableRecord
100
AcDbLinetypeTableRecord
  2
Continuous
 70
     0
  3
Solid line
 72
    65
 73
     0
 40
0.0
  0
LTYPE
  5
5E
330
5
100
AcDbSymbolTableRecord
100
AcDbLinetypeTableRecord
  2
HIDDEN
 70
     0
  3
Hidden __ __ __ __ __ __ __ __ __ __ __ __ __ __
 72
    65
 73
     2
 40
1.905
 49
1.27
 74
     0
 49
-0.635
 74
     0
  0
LTYPE
  5
5F
330
5
100
AcDbSymbolTableRecord
100
AcDbLinetypeTableRecord
  2
PHANTOM
 70
     0
  3
Phantom ______  __  __  ______  __  __  ______
 72
    65
 73
     6
 40
12.7
 49
6.35
 74
     0
 49
-1.27
 74
     0
 49
1.27
 74
     0
 49
-1.27
 74
     0
 49
1.27
 74
     0
 49
-1.27
 74
     0
  0
LTYPE
  5
60
330
5
100
AcDbSymbolTableRecord
100
AcDbLinetypeTableRecord
  2
CENTER
 70
     0
  3
Center ____ _ ____ _ ____ _ ____ _ ____ _ ____
 72
    65
 73
     4
 40
10.16
 49
6.35
 74
     0
 49
-1.27
 74
     0
 49
1.27
 74
     0
 49
-1.27
 74
     0
  0
LTYPE
  5
61
330
5
100
AcDbSymbolTableRecord
100
AcDbLinetypeTableRecord
  2
CENTERX2
 70
     0
  3
Center (2x) ________  __  ________  __  _____
 72
    65
 73
     4
 40
20.32
 49
12.7
 74
     0
 49
-2.54
 74
     0
 49
2.54
 74
     0
 49
-2.54
 74
     0
  0
LTYPE
  5
62
330
5
100
AcDbSymbolTableRecord
100
AcDbLinetypeTableRecord
  2
DOT2
 70
     0
  3
Dot (.5x) ........................................
 72
    65
 73
     2
 40
0.635
 49
0.0
 74
     0
 49
-0.635
 74
     0
  0
ENDTAB
  0
TABLE
  2
LAYER
  5
2
330
0
100
AcDbSymbolTable
 70
     1
  0
LAYER
  5
10
330
2
100
AcDbSymbolTableRecord
100
AcDbLayerTableRecord
  2
0
 70
     0
 62
     7
  6
Continuous
370
    -3
390
F
  0
ENDTAB
  0
TABLE
  2
STYLE
  5
3
330
0
100
AcDbSymbolTable
 70
     2
  0
STYLE
  5
11
330
3
100
AcDbSymbolTableRecord
100
AcDbTextStyleTableRecord
  2
Standard
 70
     0
 40
0.0
 41
1.0
 50
0.0
 71
     0
 42
3.5
  3
txt
  4

  0
STYLE
  5
2B1
330
3
100
AcDbSymbolTableRecord
100
AcDbTextStyleTableRecord
  2
SLDTEXTSTYLE0
 70
     0
 40
0.0
 41
0.7
 50
0.0
 71
     0
 42
3.5
  3
TXT
  4

  0
ENDTAB
  0
TABLE
  2
VIEW
  5
6
330
0
100
AcDbSymbolTable
 70
     0
  0
ENDTAB
  0
TABLE
  2
UCS
  5
7
330
0
100
AcDbSymbolTable
 70
     0
  0
ENDTAB
  0
TABLE
  2
APPID
  5
9
330
0
100
AcDbSymbolTable
 70
     1
  0
APPID
  5
12
330
9
100
AcDbSymbolTableRecord
100
AcDbRegAppTableRecord
  2
ACAD
 70
     0
  0
ENDTAB
  0
TABLE
  2
DIMSTYLE
  5
A
330
0
100
AcDbSymbolTable
 70
     1
100
AcDbDimStyleTable
  0
DIMSTYLE
105
27
330
A
100
AcDbSymbolTableRecord
100
AcDbDimStyleTableRecord
  2
ISO-25
 70
     0
 41
2.5
 42
0.625
 43
3.75
 44
1.25
 73
     0
 74
     0
 77
     1
 78
     8
140
2.5
141
2.5
143
0.0393700787
147
0.625
171
     3
172
     1
178
     0
271
     2
272
     2
274
     3
278
    44
283
     0
284
     8
340
11
  0
ENDTAB
  0
TABLE
  2
BLOCK_RECORD
  5
1
330
0
100
AcDbSymbolTable
 70
     1
  0
BLOCK_RECORD
  5
1F
330
1
100
AcDbSymbolTableRecord
100
AcDbBlockTableRecord
  2
*Model_Space
340
22
  0
BLOCK_RECORD
  5
1B
330
1
100
AcDbSymbolTableRecord
100
AcDbBlockTableRecord
  2
*Paper_Space
340
1E
  0
BLOCK_RECORD
  5
23
330
1
100
AcDbSymbolTableRecord
100
AcDbBlockTableRecord
  2
*Paper_Space0
340
26
  0
ENDTAB
  0
ENDSEC
  0
SECTION
  2
BLOCKS
  0
BLOCK
  5
20
330
1F
100
AcDbEntity
  8
0
100
AcDbBlockBegin
  2
*Model_Space
 70
     0
 10
0.0
 20
0.0
 30
0.0
  3
*Model_Space
  1

  0
ENDBLK
  5
21
330
1F
100
AcDbEntity
  8
0
100
AcDbBlockEnd
  0
BLOCK
  5
1C
330
1B
100
AcDbEntity
 67
     1
  8
0
100
AcDbBlockBegin
  2
*Paper_Space
 70
     0
 10
0.0
 20
0.0
 30
0.0
  3
*Paper_Space
  1

  0
ENDBLK
  5
1D
330
1B
100
AcDbEntity
 67
     1
  8
0
100
AcDbBlockEnd
  0
BLOCK
  5
24
330
23
100
AcDbEntity
  8
0
100
AcDbBlockBegin
  2
*Paper_Space0
 70
     0
 10
0.0
 20
0.0
 30
0.0
  3
*Paper_Space0
  1

  0
ENDBLK
  5
25
330
23
100
AcDbEntity
  8
0
100
AcDbBlockEnd
  0
ENDSEC
  0
SECTION
  2
ENTITIES
  0
SPLINE
  5
63
330
1F
100
AcDbEntity
  8
0
  6
Continuous
 62
     7
370
    25
100
AcDbSpline
210
0.0
220
0.0
230
1.0
 70
     8
 71
     3
 72
    15
 73
    11
 74
     0
 42
0.00000001
 43
0.00000001
 40
0.0
 40
0.0
 40
0.0
 40
0.0
 40
0.0760910276968833
 40
0.1656005069912772
 40
0.2697109685024508
 40
0.3876753350346299
 40
0.5193551968828617
 40
0.6650629894585413
 40
0.8247854135200547
 40
1.0
 40
1.0
 40
1.0
 40
1.0
 10
15.37057291666869
 20
-196.8722222222221
 30
0.0
 10
15.36007504269481
 20
-196.9097393933738
 30
0.0
 10
15.33722802242153
 20
-196.991389789638
 30
0.0
 10
15.30859318737071
 20
-197.1266536888922
 30
0.0
 10
15.28933615955001
 20
-197.2850784943035
 30
0.0
 10
15.26809180210184
 20
-197.4649716716955
 30
0.0
 10
15.2573362625202
 20
-197.6671722840139
 30
0.0
 10
15.24549925610889
 20
-197.8906239757687
 30
0.0
 10
15.23937188178193
 20
-198.1366576521237
 30
0.0
 10
15.23859884227066
 20
-198.3081287195975
 30
0.0
 10
15.23819444444648
 20
-198.397829861111
 30
0.0
  0
SPLINE
  5
64
330
1F
100
AcDbEntity
  8
0
  6
Continuous
 62
     7
370
    25
100
AcDbSpline
210
0.0
220
0.0
230
1.0
 70
     8
 71
     3
 72
    19
 73
    15
 74
     0
 42
0.00000001
 43
0.00000001
 40
0.0
 40
0.0
 40
0.0
 40
0.0
 40
0.0890930930878688
 40
0.1729689941069611
 40
0.2510784128363729
 40
0.3233809555972866
 40
0.3907324196054088
 40
0.4526650894646912
 40
0.5098381805178961
 40
0.5627390181049692
 40
0.6648142243021438
 40
0.7700282279806164
 40
0.8814834350797811
 40
0.9999999999999999
 40
0.9999999999999999
 40
0.9999999999999999
 40
0.9999999999999999
 10
17.59930555555755
 20
-195.2033854166665
 30
0.0
 10
17.51307082266355
 20
-195.2207705170699
 30
0.0
 10
17.34565116656239
 20
-195.2545226658056
 30
0.0
 10
17.10513211360616
 20
-195.3149963230304
 30
0.0
 10
16.88374786426688
 20
-195.3823096310019
 30
0.0
 10
16.68097705010925
 20
-195.4539969533058
 30
0.0
 10
16.49666026715518
 20
-195.5293244761654
 30
0.0
 10
16.33058231149881
 20
-195.6090804225155
 30
0.0
 10
16.18411201364062
 20
-195.6956095340609
 30
0.0
 10
16.015823915009
 20
-195.8208249210994
 30
0.0
 10
15.83111452845923
 20
-196.0012264861909
 30
0.0
 10
15.6427592545747
 20
-196.2546714379433
 30
0.0
 10
15.48564939561381
 20
-196.5475875744996
 30
0.0
 10
15.4097090011284
 20
-196.7618180014094
 30
0.0
 10
15.37057291666869
 20
-196.8722222222221
 30
0.0
  0
SPLINE
  5
6A
330
1F
100
AcDbEntity
  8
0
  6
Continuous
 62
     7
370
    25
100
AcDbSpline
210
0.0
220
0.0
230
1.0
 70
     8
 71
     3
 72
    11
 73
     7
 74
     0
 42
0.00000001
 43
0.00000001
 40
0.0
 40
0.0
 40
0.0
 40
0.0
 40
0.2182332369955368
 40
0.4562254036960361
 40
0.7122234558972277
 40
1.0
 40
1.0
 40
1.0
 40
1.0
 10
15.02118055555762
 20
-202.0371527777776
 30
0.0
 10
14.99022357144933
 20
-202.0860583596293
 30
0.0
 10
14.92550674478051
 20
-202.1882974554262
 30
0.0
 10
14.86585805195763
 20
-202.3685289487284
 30
0.0
 10
14.82816881405481
 20
-202.5722992382833
 30
0.0
 10
14.82382605430863
 20
-202.7162038645222
 30
0.0
 10
14.82152777777986
 20
-202.792361111111
 30
0.0
  0
SPLINE
  5
6B
330
1F
100
AcDbEntity
  8
0
  6
Continuous
 62
     7
370
    25
100
AcDbSpline
210
0.0
220
0.0
230
1.0
 70
     8
 71
     3
 72
    11
 73
     7
 74
     0
 42
0.00000001
 43
0.00000001
 40
0.0
 40
0.0
 40
0.0
 40
0.0
 40
0.2612084820088003
 40
0.5132770303010376
 40
0.7548841245846483
 40
1.0
 40
1.0
 40
1.0
 40
1.0
 10
15.40529513889095
 20
-201.7680555555554
 30
0.0
 10
15.36557508458383
 20
-201.7810537413694
 30
0.0
 10
15.28752481852293
 20
-201.8065952940884
 30
0.0
 10
15.18393752106564
 20
-201.8691930928028
 30
0.0
 10
15.09081863491638
 20
-201.9428645813574
 30
0.0
 10
15.0445045412933
 20
-202.0055726915863
 30
0.0
 10
15.02118055555762
 20
-202.0371527777776
 30
0.0
  0
SPLINE
  5
6C
330
1F
100
AcDbEntity
  8
0
  6
Continuous
 62
     7
370
    25
100
AcDbSpline
210
0.0
220
0.0
230
1.0
 70
     8
 71
     3
 72
    11
 73
     7
 74
     0
 42
0.00000001
 43
0.00000001
 40
0.0
 40
0.0
 40
0.0
 40
0.0
 40
0.3658242775449931
 40
0.6564359930075645
 40
0.8668611143996293
 40
0.9999999999999999
 40
0.9999999999999999
 40
0.9999999999999999
 40
0.9999999999999999
 10
16.21041666666874
 20
-201.7311631944443
 30
0.0
 10
16.11202998798376
 20
-201.7315512592803
 30
0.0
 10
15.93548468717783
 20
-201.7322476037867
 30
0.0
 10
15.70243648127388
 20
-201.7374444773748
 30
0.0
 10
15.53203321292235
 20
-201.7484645458532
 30
0.0
 10
15.44069195775208
 20
-201.76258396048
 30
0.0
 10
15.40529513889095
 20
-201.7680555555554
 30
0.0
  0
SPLINE
  5
6E
330
1F
100
AcDbEntity
  8
0
  6
Continuous
 62
     7
370
    25
100
AcDbSpline
210
0.0
220
0.0
230
1.0
 70
     8
 71
     3
 72
    15
 73
    11
 74
     0
 42
0.00000001
 43
0.00000001
 40
0.0
 40
0.0
 40
0.0
 40
0.0
 40
0.0613929564847344
 40
0.1375125657304114
 40
0.2347752365658194
 40
0.3503653280824167
 40
0.4848364312453884
 40
0.6359029609429115
 40
0.8083716426091316
 40
0.9999999999999999
 40
0.9999999999999999
 40
0.9999999999999999
 40
0.9999999999999999
 10
23.77552083333541
 20
-201.8114583333331
 30
0.0
 10
23.75832518527687
 20
-201.8044026698198
 30
0.0
 10
23.71980907822943
 20
-201.7885988635169
 30
0.0
 10
23.64979865052091
 20
-201.7756281134864
 30
0.0
 10
23.56414226214329
 20
-201.7591433826413
 30
0.0
 10
23.45949220308482
 20
-201.7499288370496
 30
0.0
 10
23.33870474087685
 20
-201.7412740073397
 30
0.0
 10
23.20050971629775
 20
-201.7341533517072
 30
0.0
 10
23.04490070510719
 20
-201.7335744871809
 30
0.0
 10
22.93495106351262
 20
-201.7319946699702
 30
0.0
 10
22.87708333333541
 20
-201.7311631944442
 30
0.0
  0
SPLINE
  5
6F
330
1F
100
AcDbEntity
  8
0
  6
Continuous
 62
     7
370
    25
100
AcDbSpline
210
0.0
220
0.0
230
1.0
 70
     8
 71
     3
 72
    11
 73
     7
 74
     0
 42
0.00000001
 43
0.00000001
 40
0.0
 40
0.0
 40
0.0
 40
0.0
 40
0.2333588799629157
 40
0.4720312980873994
 40
0.7278840296407114
 40
1.0
 40
1.0
 40
1.0
 40
1.0
 10
24.11623263889096
 20
-202.1022569444442
 30
0.0
 10
24.09783437853213
 20
-202.0717584202877
 30
0.0
 10
24.06061893285848
 20
-202.0100669262693
 30
0.0
 10
23.98178651791072
 20
-201.9308358860421
 30
0.0
 10
23.88569077644653
 20
-201.86369366391
 30
0.0
 10
23.81299061873822
 20
-201.8292240375887
 30
0.0
 10
23.77552083333541
 20
-201.8114583333331
 30
0.0
  0
SPLINE
  5
70
330
1F
100
AcDbEntity
  8
0
  6
Continuous
 62
     7
370
    25
100
AcDbSpline
210
0.0
220
0.0
230
1.0
 70
     8
 71
     3
 72
    11
 73
     7
 74
     0
 42
0.00000001
 43
0.00000001
 40
0.0
 40
0.0
 40
0.0
 40
0.0
 40
0.2861169829655624
 40
0.5446058600775356
 40
0.7822942653331488
 40
1.0
 40
1.0
 40
1.0
 40
1.0
 10
24.26597222222431
 20
-202.7923611111109
 30
0.0
 10
24.2646996779852
 20
-202.7242363766592
 30
0.0
 10
24.26227746926958
 20
-202.594565186875
 30
0.0
 10
24.23348983303605
 20
-202.4102837750762
 30
0.0
 10
24.18789898140751
 20
-202.2457887288474
 30
0.0
 10
24.13941222090762
 20
-202.1486805046783
 30
0.0
 10
24.11623263889096
 20
-202.1022569444442
 30
0.0
  0
SPLINE
  5
76
330
1F
100
AcDbEntity
  8
0
  6
Continuous
 62
     7
370
    25
100
AcDbSpline
210
0.0
220
0.0
230
1.0
 70
     8
 71
     3
 72
    23
 73
    19
 74
     0
 42
0.00000001
 43
0.00000001
 40
0.0
 40
0.0
 40
0.0
 40
0.0
 40
0.0714471154230962
 40
0.1398586237306417
 40
0.2052335162971415
 40
0.267265876794044
 40
0.3279276188033615
 40
0.3860269710597937
 40
0.4431069407048172
 40
0.4994281537441972
 40
0.5556719599121442
 40
0.6127748225940447
 40
0.6712330008180606
 40
0.7315562501134026
 40
0.794432674558896
 40
0.8600204718780896
 40
0.9282486457819155
 40
1.0
 40
1.0
 40
1.0
 40
1.0
 10
23.98819444444647
 20
-197.8618055555553
 30
0.0
 10
23.98570639382602
 20
-197.7510935924534
 30
0.0
 10
23.98083600355922
 20
-197.5343735373712
 30
0.0
 10
23.95464648843568
 20
-197.2169392112511
 30
0.0
 10
23.9009588183608
 20
-196.9179377160482
 30
0.0
 10
23.83261134482255
 20
-196.6342509441868
 30
0.0
 10
23.74091489373148
 20
-196.3691679993235
 30
0.0
 10
23.6338146272519
 20
-196.1179797724954
 30
0.0
 10
23.49868027000587
 20
-195.8885606153538
 30
0.0
 10
23.35019044532806
 20
-195.6710928261607
 30
0.0
 10
23.17585492544417
 20
-195.4735365467417
 30
0.0
 10
22.98488639648664
 20
-195.2875652157374
 30
0.0
 10
22.77085314946542
 20
-195.1179278520396
 30
0.0
 10
22.53479033243952
 20
-194.9639601090626
 30
0.0
 10
22.27836267378142
 20
-194.8223978295067
 30
0.0
 10
22.00001066149196
 20
-194.6974084613389
 30
0.0
 10
21.70123461693003
 20
-194.5859443788148
 30
0.0
 10
21.49295754295622
 20
-194.5249928279622
 30
0.0
 10
21.38619791666865
 20
-194.4937499999998
 30
0.0
  0
SPLINE
  5
78
330
1F
100
AcDbEntity
  8
0
  6
Continuous
 62
     7
370
    25
100
AcDbSpline
210
0.0
220
0.0
230
1.0
 70
     8
 71
     3
 72
    23
 73
    19
 74
     0
 42
0.00000001
 43
0.00000001
 40
0.0
 40
0.0
 40
0.0
 40
0.0
 40
0.0970964080423644
 40
0.1836645962211793
 40
0.2607373947391594
 40
0.328414517958953
 40
0.3855620289290212
 40
0.4334751357421811
 40
0.4719934656987011
 40
0.5007033337528826
 40
0.548395077915929
 40
0.5961218423339667
 40
0.6453987655778137
 40
0.6975421512370169
 40
0.7560761915395905
 40
0.823925908346793
 40
0.9060164316198098
 40
1.0
 40
1.0
 40
1.0
 40
1.0
 10
22.53854166666872
 20
-199.3700520833331
 30
0.0
 10
22.60510071409766
 20
-199.3705515889625
 30
0.0
 10
22.73100177282239
 20
-199.3714964385359
 30
0.0
 10
22.90961204612194
 20
-199.3652260412636
 30
0.0
 10
23.06821730938716
 20
-199.3632702043225
 30
0.0
 10
23.20618971909327
 20
-199.3526128670011
 30
0.0
 10
23.32456186327828
 20
-199.3464790221054
 30
0.0
 10
23.42180883886555
 20
-199.3314929913202
 30
0.0
 10
23.50034374631703
 20
-199.3215436932796
 30
0.0
 10
23.57555000369114
 20
-199.2974111568107
 30
0.0
 10
23.65355393531987
 20
-199.2622599894653
 30
0.0
 10
23.73410848509416
 20
-199.2037119789434
 30
0.0
 10
23.80998043895718
 20
-199.1345478487091
 30
0.0
 10
23.87384970649284
 20
-199.0445372095856
 30
0.0
 10
23.92724958168482
 20
-198.9336684723665
 30
0.0
 10
23.96236136689923
 20
-198.7945184348772
 30
0.0
 10
23.9863594747516
 20
-198.6287047135773
 30
0.0
 10
23.98755585119283
 20
-198.5078902548299
 30
0.0
 10
23.98819444444648
 20
-198.4434027777775
 30
0.0
  0
SPLINE
  5
7A
330
1F
100
AcDbEntity
  8
0
  6
Continuous
 62
     7
370
    25
100
AcDbSpline
210
0.0
220
0.0
230
1.0
 70
     8
 71
     3
 72
    19
 73
    15
 74
     0
 42
0.00000001
 43
0.00000001
 40
0.0
 40
0.0
 40
0.0
 40
0.0
 40
0.1169523066699178
 40
0.2247574590381876
 40
0.3232051768554624
 40
0.4134679376229665
 40
0.4952694852341607
 40
0.5680759119466965
 40
0.6341499448356755
 40
0.6937198608244224
 40
0.755798340244804
 40
0.8264311023647544
 40
0.9077067056829787
 40
1.0
 40
1.0
 40
1.0
 40
1.0
 10
22.04375000000203
 20
-197.2867187499998
 30
0.0
 10
21.90532410126006
 20
-197.3036943013
 30
0.0
 10
21.63929896544012
 20
-197.3363177003986
 30
0.0
 10
21.26089891562405
 20
-197.412424963135
 30
0.0
 10
20.92272270168602
 20
-197.5171829938019
 30
0.0
 10
20.62415854681825
 20
-197.6409820617105
 30
0.0
 10
20.37017871269839
 20
-197.786390647212
 30
0.0
 10
20.15767282486502
 20
-197.9427733535897
 30
0.0
 10
19.99017658614913
 20
-198.1115163764384
 30
0.0
 10
19.8647531658028
 20
-198.2990974296249
 30
0.0
 10
19.78362389104732
 20
-198.5148504376081
 30
0.0
 10
19.72216876765546
 20
-198.7629532822224
 30
0.0
 10
19.69037915162416
 20
-199.0531434078403
 30
0.0
 10
19.68532589880868
 20
-199.2600381492566
 30
0.0
 10
19.68263888889093
 20
-199.3700520833332
 30
0.0
  0
SPLINE
  5
7E
330
1F
100
AcDbEntity
  8
0
  6
Continuous
 62
     7
370
    25
100
AcDbSpline
210
0.0
220
0.0
230
1.0
 70
     8
 71
     3
 72
    23
 73
    19
 74
     0
 42
0.00000001
 43
0.00000001
 40
0.0
 40
0.0
 40
0.0
 40
0.0
 40
0.0663753113717332
 40
0.1281583670919383
 40
0.1866267529801887
 40
0.2423124537745668
 40
0.2956592303422304
 40
0.3478537394449002
 40
0.4001960976209091
 40
0.4532830172847431
 40
0.5083111272877461
 40
0.5665005926306099
 40
0.6279701523877133
 40
0.6933141243837974
 40
0.7634002058105059
 40
0.8376977007764451
 40
0.91654208401388
 40
1.0
 40
1.0
 40
1.0
 40
1.0
 10
19.12708333333538
 20
-199.1747395833332
 30
0.0
 10
19.12570188676018
 20
-199.0994184983651
 30
0.0
 10
19.12303457065057
 20
-198.953987508173
 30
0.0
 10
19.0945239435682
 20
-198.7436673505254
 30
0.0
 10
19.04643728036547
 20
-198.5497167789575
 30
0.0
 10
18.98259678301975
 20
-198.3702134945712
 30
0.0
 10
18.89642166126117
 20
-198.2082675704549
 30
0.0
 10
18.793897316448
 20
-198.0609079415049
 30
0.0
 10
18.67169372351032
 20
-197.9294111032662
 30
0.0
 10
18.52823238881273
 20
-197.8164694748206
 30
0.0
 10
18.36778533474413
 20
-197.7168746334422
 30
0.0
 10
18.19186726695192
 20
-197.6251830247447
 30
0.0
 10
17.99740883024532
 20
-197.5457026498592
 30
0.0
 10
17.78581984843758
 20
-197.4739207911025
 30
0.0
 10
17.55620216210468
 20
-197.4110419532777
 30
0.0
 10
17.30806417179646
 20
-197.3602066710045
 30
0.0
 10
17.04328189311233
 20
-197.3157223332547
 30
0.0
 10
16.86014404411727
 20
-197.296568100972
 30
0.0
 10
16.76597222222426
 20
-197.2867187499999
 30
0.0
  0
SPLINE
  5
82
330
1F
100
AcDbEntity
  8
0
  6
Continuous
 62
     7
370
    25
100
AcDbSpline
210
0.0
220
0.0
230
1.0
 70
     8
 71
     3
 72
    15
 73
    11
 74
     0
 42
0.00000001
 43
0.00000001
 40
0.0
 40
0.0
 40
0.0
 40
0.0
 40
0.0937550654330173
 40
0.1889687318533549
 40
0.2864177652767837
 40
0.3889492222164947
 40
0.5063805314124434
 40
0.6456707553342294
 40
0.808085811039945
 40
1.0
 40
1.0
 40
1.0
 40
1.0
 10
15.09930555555657
 20
-100.341579861111
 30
0.0
 10
15.09779421038618
 20
-100.3088172843939
 30
0.0
 10
15.09474800718723
 20
-100.242782424881
 30
0.0
 10
15.0645989496557
 20
-100.1465824398914
 30
0.0
 10
15.01833768252984
 20
-100.0543622329424
 30
0.0
 10
14.9532615105617
 20
-99.96416915501318
 30
0.0
 10
14.86149106458336
 20
-99.87774545673769
 30
0.0
 10
14.7376917566899
 20
-99.79912844228869
 30
0.0
 10
14.58330089144344
 20
-99.72258057903451
 30
0.0
 10
14.46755317038903
 20
-99.6792726850701
 30
0.0
 10
14.40486111111211
 20
-99.65581597222213
 30
0.0
  0
SPLINE
  5
83
330
1F
100
AcDbEntity
  8
0
  6
Continuous
 62
     7
370
    25
100
AcDbSpline
210
0.0
220
0.0
230
1.0
 70
     8
 71
     3
 72
    19
 73
    15
 74
     0
 42
0.00000001
 43
0.00000001
 40
0.0
 40
0.0
 40
0.0
 40
0.0
 40
0.0962924407807639
 40
0.219774700248017
 40
0.370398098274797
 40
0.5500809489211038
 40
0.6416895770012506
 40
0.7226954192756435
 40
0.7948276052265053
 40
0.8559966099351697
 40
0.9062237715675171
 40
0.9477139235584906
 40
0.9786388569746969
 40
0.9999999999999999
 40
0.9999999999999999
 40
0.9999999999999999
 40
0.9999999999999999
 10
14.51770833333436
 20
-102.1905381944443
 30
0.0
 10
14.53065487917116
 20
-102.1295708417168
 30
0.0
 10
14.56020364964014
 20
-101.9904209607712
 30
0.0
 10
14.6310127601951
 20
-101.7612630347805
 30
0.0
 10
14.72095405033263
 20
-101.4817945916679
 30
0.0
 10
14.81788708596071
 20
-101.2265196798768
 30
0.0
 10
14.89467256362188
 20
-101.0119206126771
 30
0.0
 10
14.95052934352722
 20
-100.86374306147
 30
0.0
 10
14.99534598740092
 20
-100.7325055139964
 30
0.0
 10
15.03217623007386
 20
-100.6196581511736
 30
0.0
 10
15.06208057583833
 20
-100.5252738891215
 30
0.0
 10
15.07993250732183
 20
-100.4480053344775
 30
0.0
 10
15.09545274510628
 20
-100.3891495071152
 30
0.0
 10
15.09818806007372
 20
-100.3553772864492
 30
0.0
 10
15.09930555555657
 20
-100.341579861111
 30
0.0
  0
SPLINE
  5
84
330
1F
100
AcDbEntity
  8
0
  6
Continuous
 62
     7
370
    25
100
AcDbSpline
210
0.0
220
0.0
230
1.0
 70
     8
 71
     3
 72
    11
 73
     7
 74
     0
 42
0.00000001
 43
0.00000001
 40
0.0
 40
0.0
 40
0.0
 40
0.0
 40
0.269088456213799
 40
0.5253833824037193
 40
0.7676544838064169
 40
1.0
 40
1.0
 40
1.0
 40
1.0
 10
14.40486111111215
 20
-103.4904513888888
 30
0.0
 10
14.40581501888236
 20
-103.3732194174521
 30
0.0
 10
14.40767748187262
 20
-103.144329146402
 30
0.0
 10
14.43072185814037
 20
-102.8106333540883
 30
0.0
 10
14.46337057962144
 20
-102.4937430017968
 30
0.0
 10
14.49985004527082
 20
-102.2901874883874
 30
0.0
 10
14.51770833333436
 20
-102.1905381944443
 30
0.0
  0
SPLINE
  5
85
330
1F
100
AcDbEntity
  8
0
  6
Continuous
 62
     7
370
    25
100
AcDbSpline
210
0.0
220
0.0
230
1.0
 70
     8
 71
     3
 72
    23
 73
    19
 74
     0
 42
0.00000001
 43
0.00000001
 40
0.0
 40
0.0
 40
0.0
 40
0.0
 40
0.064459540580547
 40
0.1271177516270652
 40
0.1880940097475762
 40
0.2483775261178281
 40
0.3082911845399321
 40
0.3687242061951543
 40
0.4303396737148059
 40
0.4936022789787682
 40
0.5568816633840821
 40
0.6189627347831685
 40
0.6803727152640956
 40
0.7415776029103542
 40
0.803810791509856
 40
0.8669836576982937
 40
0.9321948802640867
 40
1.0
 40
1.0
 40
1.0
 40
1.0
 10
19.67395833333444
 20
-108.8897569444443
 30
0.0
 10
19.49289489293945
 20
-108.8852156666067
 30
0.0
 10
19.13582785154298
 20
-108.8762600174811
 30
0.0
 10
18.6112543629062
 20
-108.8040382505679
 30
0.0
 10
18.10908001331124
 20
-108.6805901324289
 30
0.0
 10
17.62680566295757
 20
-108.5153658028241
 30
0.0
 10
17.16907631632791
 20
-108.2945611961905
 30
0.0
 10
16.72972548004925
 20
-108.0320629307563
 30
0.0
 10
16.31436650112897
 20
-107.7168815569301
 30
0.0
 10
15.92484485991018
 20
-107.3588493537447
 30
0.0
 10
15.56769286616988
 20
-106.966636315982
 30
0.0
 10
15.25481471446878
 20
-106.5442961504231
 30
0.0
 10
14.99497773659299
 20
-106.0943807005289
 30
0.0
 10
14.77675750458264
 20
-105.6224384568198
 30
0.0
 10
14.61077820691081
 20
-105.1242515454832
 30
0.0
 10
14.49117358025065
 20
-104.6018262333064
 30
0.0
 10
14.41789906004533
 20
-104.054599808776
 30
0.0
 10
14.40926322869239
 20
-103.6809297908044
 30
0.0
 10
14.40486111111215
 20
-103.4904513888888
 30
0.0
  0
SPLINE
  5
86
330
1F
100
AcDbEntity
  8
0
  6
Continuous
 62
     7
370
    25
100
AcDbSpline
210
0.0
220
0.0
230
1.0
 70
     8
 71
     3
 72
    15
 73
    11
 74
     0
 42
0.00000001
 43
0.00000001
 40
0.0
 40
0.0
 40
0.0
 40
0.0
 40
0.1208620159655695
 40
0.2417385883585053
 40
0.3639433356457802
 40
0.4867835138490409
 40
0.6120489630584762
 40
0.7388604192663928
 40
0.8676986749123571
 40
1.0
 40
1.0
 40
1.0
 40
1.0
 10
21.91137152777888
 20
-108.3884548611109
 30
0.0
 10
21.82720538710525
 20
-108.4285848549083
 30
0.0
 10
21.65886296892302
 20
-108.5088496756951
 30
0.0
 10
21.39694025761664
 20
-108.6104023414362
 30
0.0
 10
21.12843450872388
 20
-108.6979399853661
 30
0.0
 10
20.85093958658637
 20
-108.7662114452435
 30
0.0
 10
20.5674452632886
 20
-108.8237713270633
 30
0.0
 10
20.27599650485196
 20
-108.862539051379
 30
0.0
 10
19.97737386460299
 20
-108.8837809502984
 30
0.0
 10
19.77598706559147
 20
-108.8877474128157
 30
0.0
 10
19.67395833333444
 20
-108.8897569444443
 30
0.0
  0
SPLINE
  5
87
330
1F
100
AcDbEntity
  8
0
  6
Continuous
 62
     7
370
    25
100
AcDbSpline
210
0.0
220
0.0
230
1.0
 70
     8
 71
     3
 72
    23
 73
    19
 74
     0
 42
0.00000001
 43
0.00000001
 40
0.0
 40
0.0
 40
0.0
 40
0.0
 40
0.0562658705685282
 40
0.1100744470867603
 40
0.1615296197939985
 40
0.2106920247493311
 40
0.2580092090422964
 40
0.3033144755542218
 40
0.3467693416607788
 40
0.3884274401546445
 40
0.4694263822896265
 40
0.5487298685500133
 40
0.626846281763536
 40
0.7045119232810636
 40
0.7807649449732007
 40
0.8551603418814078
 40
0.9278082190796411
 40
1.0
 40
1.0
 40
1.0
 40
1.0
 10
24.68263888888993
 20
-103.3971354166665
 30
0.0
 10
24.68123057312621
 20
-103.5100011524243
 30
0.0
 10
24.6784754468401
 20
-103.7308034493238
 30
0.0
 10
24.66159658353195
 20
-104.0545095984321
 30
0.0
 10
24.63095649847515
 20
-104.3628684336305
 30
0.0
 10
24.58970742308507
 20
-104.6568083446952
 30
0.0
 10
24.53862642972021
 20
-104.9367262064669
 30
0.0
 10
24.47365831898385
 20
-105.2020318011995
 30
0.0
 10
24.39554667912441
 20
-105.4519143305323
 30
0.0
 10
24.27636366645117
 20
-105.7632241408492
 30
0.0
 10
24.10682775336534
 20
-106.1318183320225
 30
0.0
 10
23.86863002534098
 20
-106.5471325323204
 30
0.0
 10
23.60364820568403
 20
-106.9378490193484
 30
0.0
 10
23.3091063409954
 20
-107.2989931290631
 30
0.0
 10
22.99084198327082
 20
-107.6291965890835
 30
0.0
 10
22.65161522642198
 20
-107.9223650646196
 30
0.0
 10
22.29478259317202
 20
-108.1813434552148
 30
0.0
 10
22.03890663401911
 20
-108.3195628088499
 30
0.0
 10
21.91137152777888
 20
-108.3884548611109
 30
0.0
  0
SPLINE
  5
88
330
1F
100
AcDbEntity
  8
0
  6
Continuous
 62
     7
370
    25
100
AcDbSpline
210
0.0
220
0.0
230
1.0
 70
     8
 71
     3
 72
    15
 73
    11
 74
     0
 42
0.00000001
 43
0.00000001
 40
0.0
 40
0.0
 40
0.0
 40
0.0
 40
0.1229017602881175
 40
0.2459656063450902
 40
0.3690651943076438
 40
0.4925572604857084
 40
0.617310844349785
 40
0.7431615699384128
 40
0.8704460429804846
 40
1.0
 40
1.0
 40
1.0
 40
1.0
 10
23.83411458333433
 20
-99.37803819444424
 30
0.0
 10
23.90179643337255
 20
-99.53354271511138
 30
0.0
 10
24.03724939388491
 20
-99.84475683951143
 30
0.0
 10
24.20706106798057
 20
-100.3251663746736
 30
0.0
 10
24.35307207572886
 20
-100.8139692178976
 30
0.0
 10
24.47268119224198
 20
-101.3123781452821
 30
0.0
 10
24.56589683193135
 20
-101.8202462284655
 30
0.0
 10
24.6326007493716
 20
-102.3374472306033
 30
0.0
 10
24.6759177829062
 20
-102.8639864208225
 30
0.0
 10
24.68038536137528
 20
-103.218375264029
 30
0.0
 10
24.68263888888993
 20
-103.3971354166665
 30
0.0
  0
SPLINE
  5
8A
330
1F
100
AcDbEntity
  8
0
  6
Continuous
 62
     7
370
    25
100
AcDbSpline
210
0.0
220
0.0
230
1.0
 70
     8
 71
     3
 72
    11
 73
     7
 74
     0
 42
0.00000001
 43
0.00000001
 40
0.0
 40
0.0
 40
0.0
 40
0.0
 40
0.1440990345394789
 40
0.35874216078521
 40
0.6436220830813936
 40
1.0
 40
1.0
 40
1.0
 40
1.0
 10
21.13880208333432
 20
-99.31510416666649
 30
0.0
 10
21.16749640861072
 20
-99.32548142659383
 30
0.0
 10
21.2389324476156
 20
-99.35131616352498
 30
0.0
 10
21.37513123270224
 20
-99.3651973660896
 30
0.0
 10
21.55521195400745
 20
-99.37590509528127
 30
0.0
 10
21.69068391695331
 20
-99.37727620347549
 30
0.0
 10
21.76597222222322
 20
-99.37803819444427
 30
0.0
  0
SPLINE
  5
8B
330
1F
100
AcDbEntity
  8
0
  6
Continuous
 62
     7
370
    25
100
AcDbSpline
210
0.0
220
0.0
230
1.0
 70
     8
 71
     3
 72
    15
 73
    11
 74
     0
 42
0.00000001
 43
0.00000001
 40
0.0
 40
0.0
 40
0.0
 40
0.0
 40
0.1992928012851269
 40
0.3659784796105686
 40
0.502679372916327
 40
0.6093153256258899
 40
0.7032498493519648
 40
0.7973180402018212
 40
0.8944744831669569
 40
1.0
 40
1.0
 40
1.0
 40
1.0
 10
20.6548611111121
 20
-98.26692708333316
 30
0.0
 10
20.66106252011207
 20
-98.34805423971078
 30
0.0
 10
20.67245069982866
 20
-98.49703500145807
 30
0.0
 10
20.70243849485562
 20
-98.70015369255042
 30
0.0
 10
20.73906414756667
 20
-98.8637542383931
 30
0.0
 10
20.7878881715319
 20
-98.99312559941808
 30
0.0
 10
20.85144874036268
 20
-99.09624934361284
 30
0.0
 10
20.93176267136286
 20
-99.18115407426893
 30
0.0
 10
21.026538019301
 20
-99.25765172259798
 30
0.0
 10
21.10036458821454
 20
-99.29543333025488
 30
0.0
 10
21.13880208333434
 20
-99.3151041666665
 30
0.0
  0
SPLINE
  5
90
330
1F
100
AcDbEntity
  8
0
  6
Continuous
 62
     7
370
    25
100
AcDbSpline
210
0.0
220
0.0
230
1.0
 70
     8
 71
     3
 72
    19
 73
    15
 74
     0
 42
0.00000001
 43
0.00000001
 40
0.0
 40
0.0
 40
0.0
 40
0.0
 40
0.132255932077998
 40
0.2390399405347472
 40
0.3223399142325112
 40
0.3808162209912078
 40
0.432096148325208
 40
0.4901023806846284
 40
0.5563389355512613
 40
0.6327387522628266
 40
0.7168238206227411
 40
0.8047915154216603
 40
0.899271718647501
 40
1.0
 40
1.0
 40
1.0
 40
1.0
 10
21.76597222222325
 20
-101.7391493055554
 30
0.0
 10
21.68422500431383
 20
-101.7406400080995
 30
0.0
 10
21.53647473102988
 20
-101.7433343102899
 30
0.0
 10
21.3373071554041
 20
-101.7559464388112
 30
0.0
 10
21.18566184104462
 20
-101.7821852184726
 30
0.0
 10
21.07118130835529
 20
-101.819356063112
 30
0.0
 10
20.9848584880989
 20
-101.8797286417469
 30
0.0
 10
20.91579264438129
 20
-101.9640504078526
 30
0.0
 10
20.84119057594211
 20
-102.0634547943248
 30
0.0
 10
20.7792559178855
 20
-102.1898599258903
 30
0.0
 10
20.72193191082722
 20
-102.3326352737218
 30
0.0
 10
20.68409692688024
 20
-102.4935392839693
 30
0.0
 10
20.65986827429142
 20
-102.6672255842196
 30
0.0
 10
20.65656540405429
 20
-102.7879606748888
 30
0.0
 10
20.65486111111214
 20
-102.8502604166665
 30
0.0
  0
SPLINE
  5
92
330
1F
100
AcDbEntity
  8
0
  6
Continuous
 62
     7
370
    25
100
AcDbSpline
210
0.0
220
0.0
230
1.0
 70
     8
 71
     3
 72
    11
 73
     7
 74
     0
 42
0.00000001
 43
0.00000001
 40
0.0
 40
0.0
 40
0.0
 40
0.0
 40
0.2349835341122244
 40
0.4799131776045106
 40
0.7338380348072436
 40
1.0
 40
1.0
 40
1.0
 40
1.0
 10
24.12708333333438
 20
-103.1822916666665
 30
0.0
 10
24.12305671103251
 20
-103.0663250490804
 30
0.0
 10
24.11483303224923
 20
-102.829483313969
 30
0.0
 10
24.05473285108205
 20
-102.4716492000239
 30
0.0
 10
23.96446331584393
 20
-102.1047258134458
 30
0.0
 10
23.87824040629627
 20
-101.8629047418809
 30
0.0
 10
23.83411458333436
 20
-101.7391493055554
 30
0.0
  0
SPLINE
  5
93
330
1F
100
AcDbEntity
  8
0
  6
Continuous
 62
     7
370
    25
100
AcDbSpline
210
0.0
220
0.0
230
1.0
 70
     8
 71
     3
 72
    27
 73
    23
 74
     0
 42
0.00000001
 43
0.00000001
 40
0.0
 40
0.0
 40
0.0
 40
0.0
 40
0.1101439168230342
 40
0.2133884055260052
 40
0.3109353889254162
 40
0.4026222808858503
 40
0.4463633351875646
 40
0.4877720346298129
 40
0.5279728931821681
 40
0.5662748259480122
 40
0.6032134333051403
 40
0.6394971811714939
 40
0.6747491773088328
 40
0.7100132239396487
 40
0.745099538574896
 40
0.7798591060912526
 40
0.8151317576968506
 40
0.8503889188357279
 40
0.8863888478801857
 40
0.9231627704788546
 40
0.9609525945547325
 40
1.0
 40
1.0
 40
1.0
 40
1.0
 10
19.58281250000107
 20
-106.2508680555554
 30
0.0
 10
19.811541453976
 20
-106.2475379355604
 30
0.0
 10
20.254671752899
 20
-106.2410862946853
 30
0.0
 10
20.89805844182707
 20
-106.1795048215901
 30
0.0
 10
21.49730184486173
 20
-106.0785861036912
 30
0.0
 10
21.96729941554829
 20
-105.9611902567952
 30
0.0
 10
22.31574646137233
 20
-105.8449814528609
 30
0.0
 10
22.55725028703483
 20
-105.7473384043491
 30
0.0
 10
22.7796889683923
 20
-105.6348590028941
 30
0.0
 10
22.98478320057616
 20
-105.5104820103378
 30
0.0
 10
23.17368069088036
 20
-105.3760101731607
 30
0.0
 10
23.34246552077812
 20
-105.2262460507633
 30
0.0
 10
23.49368486487452
 20
-105.0637092893861
 30
0.0
 10
23.62861649669745
 20
-104.8904368950155
 30
0.0
 10
23.744709382773
 20
-104.7053399565916
 30
0.0
 10
23.84827809632355
 20
-104.5130379553581
 30
0.0
 10
23.93488257120016
 20
-104.311941790803
 30
0.0
 10
24.00363845679443
 20
-104.1015418944121
 30
0.0
 10
24.06132595436555
 20
-103.8845954912066
 30
0.0
 10
24.1000408271404
 20
-103.658011303179
 30
0.0
 10
24.12113210222248
 20
-103.4228575732837
 30
0.0
 10
24.1250780620213
 20
-103.2633505101854
 30
0.0
 10
24.12708333333438
 20
-103.1822916666665
 30
0.0
  0
SPLINE
  5
94
330
1F
100
AcDbEntity
  8
0
  6
Continuous
 62
     7
370
    25
100
AcDbSpline
210
0.0
220
0.0
230
1.0
 70
     8
 71
     3
 72
    27
 73
    23
 74
     0
 42
0.00000001
 43
0.00000001
 40
0.0
 40
0.0
 40
0.0
 40
0.0
 40
0.041909691662385
 40
0.0823570405862027
 40
0.121529578821698
 40
0.1597608231700501
 40
0.197044687274126
 40
0.2340478658496637
 40
0.2711125249794188
 40
0.3085791463598728
 40
0.3462880663193914
 40
0.3845240120976585
 40
0.4230876336731566
 40
0.4626482920132038
 40
0.5030689674671623
 40
0.5450714856436252
 40
0.5883429841020844
 40
0.6331384953648402
 40
0.7244970803604173
 40
0.8160659511727935
 40
0.9075195849656927
 40
1.0
 40
1.0
 40
1.0
 40
1.0
 10
14.96041666666771
 20
-103.1519097222221
 30
0.0
 10
14.96160515748372
 20
-103.2395465630097
 30
0.0
 10
14.96394066944976
 20
-103.4117623576696
 30
0.0
 10
14.99653489846808
 20
-103.664046693733
 30
0.0
 10
15.04306856113081
 20
-103.9060539980591
 30
0.0
 10
15.1102325368047
 20
-104.136538420814
 30
0.0
 10
15.19768853295164
 20
-104.3551665590166
 30
0.0
 10
15.30444270612474
 20
-104.5623324880921
 30
0.0
 10
15.43101149573692
 20
-104.7584459339195
 30
0.0
 10
15.57635428089696
 20
-104.9430323039196
 30
0.0
 10
15.74061901516596
 20
-105.1141808384694
 30
0.0
 10
15.91754817749996
 20
-105.2757296630989
 30
0.0
 10
16.11308539851164
 20
-105.4207467800337
 30
0.0
 10
16.32070408811805
 20
-105.5562217874839
 30
0.0
 10
16.54616452873837
 20
-105.6759548541383
 30
0.0
 10
16.78721660602575
 20
-105.7805530882403
 30
0.0
 10
17.04118810070315
 20
-105.877982606384
 30
0.0
 10
17.4016361665462
 20
-105.982194924386
 30
0.0
 10
17.8654645136736
 20
-106.0898669771593
 30
0.0
 10
18.43152146987676
 20
-106.1835172215767
 30
0.0
 10
19.00518285454664
 20
-106.2386229652903
 30
0.0
 10
19.38955405541219
 20
-106.2467711967513
 30
0.0
 10
19.58281250000107
 20
-106.2508680555554
 30
0.0
  0
SPLINE
  5
95
330
1F
100
AcDbEntity
  8
0
  6
Continuous
 62
     7
370
    25
100
AcDbSpline
210
0.0
220
0.0
230
1.0
 70
     8
 71
     3
 72
    23
 73
    19
 74
     0
 42
0.00000001
 43
0.00000001
 40
0.0
 40
0.0
 40
0.0
 40
0.0
 40
0.0756675014891629
 40
0.1483515285679049
 40
0.218144114334271
 40
0.28577906627057
 40
0.3511610634638329
 40
0.4152606368356037
 40
0.4778245185779552
 40
0.5399381120956384
 40
0.6007718701532244
 40
0.6598716835920037
 40
0.717136810582491
 40
0.7741875125010054
 40
0.8301520013427679
 40
0.8865755619917386
 40
0.9430463998267631
 40
1.0
 40
1.0
 40
1.0
 40
1.0
 10
17.87708333333435
 20
-99.6558159722221
 30
0.0
 10
17.76074585658061
 20
-99.69622728629922
 30
0.0
 10
17.53265794345424
 20
-99.77545654716803
 30
0.0
 10
17.20738373066738
 20
-99.91815242723335
 30
0.0
 10
16.90127179229454
 20
-100.0708891565824
 30
0.0
 10
16.61948795540624
 20
-100.2432958547877
 30
0.0
 10
16.35733589949663
 20
-100.4283609648695
 30
0.0
 10
16.11563133095703
 20
-100.6270507540481
 30
0.0
 10
15.89783935526033
 20
-100.8441177892894
 30
0.0
 10
15.70016492343382
 20
-101.0727140883088
 30
0.0
 10
15.52824420960948
 20
-101.3142473342198
 30
0.0
 10
15.37460616393813
 20
-101.5585044399583
 30
0.0
 10
15.2477504431985
 20
-101.8110350412069
 30
0.0
 10
15.14468642437519
 20
-102.0684187298417
 30
0.0
 10
15.05989742573451
 20
-102.3311196611969
 30
0.0
 10
15.0023997310185
 20
-102.6001279152605
 30
0.0
 10
14.96608990723002
 20
-102.8745777485136
 30
0.0
 10
14.96231310518831
 20
-103.0592037930165
 30
0.0
 10
14.96041666666771
 20
-103.1519097222221
 30
0.0
  0
SPLINE
  5
99
330
1F
100
AcDbEntity
  8
0
  6
Continuous
 62
     7
370
    25
100
AcDbSpline
210
0.0
220
0.0
230
1.0
 70
     8
 71
     3
 72
    23
 73
    19
 74
     0
 42
0.00000001
 43
0.00000001
 40
0.0
 40
0.0
 40
0.0
 40
0.0
 40
0.0846548848337132
 40
0.1619950830264
 40
0.2299951494672509
 40
0.2897913029205963
 40
0.3412642824757846
 40
0.3856016764313388
 40
0.4210869831847754
 40
0.4488544499495131
 40
0.4994068569505768
 40
0.5527961492198724
 40
0.610605038282965
 40
0.6740865255897248
 40
0.7442290364158151
 40
0.8213146392637454
 40
0.9058533373917714
 40
1.0
 40
1.0
 40
1.0
 40
1.0
 10
107.8502604166669
 20
-22.87708333333222
 30
0.0
 10
107.8510654669535
 20
-22.93567610097092
 30
0.0
 10
107.8526060063835
 20
-23.04779887187802
 30
0.0
 10
107.8535194048537
 20
-23.2070023181999
 30
0.0
 10
107.8595388352892
 20
-23.34893501691107
 30
0.0
 10
107.8713964426994
 20
-23.47248792210747
 30
0.0
 10
107.8817607326798
 20
-23.57967203142498
 30
0.0
 10
107.8932429446013
 20
-23.66992758092234
 30
0.0
 10
107.9105867900068
 20
-23.74249704897041
 30
0.0
 10
107.9367273108582
 20
-23.81700789413076
 30
0.0
 10
107.98346262221
 20
-23.89618260033397
 30
0.0
 10
108.0563381035872
 20
-23.98177866518318
 30
0.0
 10
108.1491904357766
 20
-24.05993261789494
 30
0.0
 10
108.260635684652
 20
-24.13220139722664
 30
0.0
 10
108.393703932078
 20
-24.19355795021522
 30
0.0
 10
108.5491267286068
 20
-24.23546122128667
 30
0.0
 10
108.7246550737636
 20
-24.26178210396729
 30
0.0
 10
108.8484190639993
 20
-24.26452633018579
 30
0.0
 10
108.9136284722224
 20
-24.2659722222211
 30
0.0
  0
SPLINE
  5
9B
330
1F
100
AcDbEntity
  8
0
  6
Continuous
 62
     7
370
    25
100
AcDbSpline
210
0.0
220
0.0
230
1.0
 70
     8
 71
     3
 72
    15
 73
    11
 74
     0
 42
0.00000001
 43
0.00000001
 40
0.0
 40
0.0
 40
0.0
 40
0.0
 40
0.0613943520403139
 40
0.1398538629143184
 40
0.2347602763706175
 40
0.3503529954263572
 40
0.4848271553226716
 40
0.6382896720196866
 40
0.8083672866041933
 40
1.0
 40
1.0
 40
1.0
 40
1.0
 10
107.9305555555557
 20
-15.31197916666555
 30
0.0
 10
107.9234673311302
 20
-15.32916843312004
 30
0.0
 10
107.9073206411796
 20
-15.36832489026037
 30
0.0
 10
107.8953155787828
 20
-15.43854391205887
 30
0.0
 10
107.8779079909224
 20
-15.52401763208364
 30
0.0
 10
107.8691236648904
 20
-15.62802532108984
 30
0.0
 10
107.8602621071052
 20
-15.74950888055039
 30
0.0
 10
107.8533546984901
 20
-15.88771919591161
 30
0.0
 10
107.852630301433
 20
-16.04332111007633
 30
0.0
 10
107.8510811506676
 20
-16.15254845018642
 30
0.0
 10
107.8502604166668
 20
-16.21041666666555
 30
0.0
  0
SPLINE
  5
9C
330
1F
100
AcDbEntity
  8
0
  6
Continuous
 62
     7
370
    25
100
AcDbSpline
210
0.0
220
0.0
230
1.0
 70
     8
 71
     3
 72
    11
 73
     7
 74
     0
 42
0.00000001
 43
0.00000001
 40
0.0
 40
0.0
 40
0.0
 40
0.0
 40
0.2322074352791532
 40
0.4697021905392564
 40
0.7270458402700675
 40
1.0
 40
1.0
 40
1.0
 40
1.0
 10
108.2256944444446
 20
-14.97126736111
 30
0.0
 10
108.1951662306114
 20
-14.98964271855706
 30
0.0
 10
108.1334146812114
 20
-15.02681183691219
 30
0.0
 10
108.054353593794
 20
-15.10630737401471
 30
0.0
 10
107.9848840270943
 20
-15.20156707812422
 30
0.0
 10
107.9490169884149
 20
-15.27445988254579
 30
0.0
 10
107.9305555555557
 20
-15.31197916666555
 30
0.0
  0
SPLINE
  5
9D
330
1F
100
AcDbEntity
  8
0
  6
Continuous
 62
     7
370
    25
100
AcDbSpline
210
0.0
220
0.0
230
1.0
 70
     8
 71
     3
 72
    11
 73
     7
 74
     0
 42
0.00000001
 43
0.00000001
 40
0.0
 40
0.0
 40
0.0
 40
0.0
 40
0.2869538933514464
 40
0.5461988668811969
 40
0.781657462202776
 40
1.0
 40
1.0
 40
1.0
 40
1.0
 10
108.9136284722223
 20
-14.82152777777665
 30
0.0
 10
108.8455114825897
 20
-14.82282692790334
 30
0.0
 10
108.7158550345862
 20
-14.82529977926915
 30
0.0
 10
108.5321612844548
 20
-14.8536387149175
 30
0.0
 10
108.368645546841
 20
-14.90005960784738
 30
0.0
 10
108.2721314010488
 20
-14.94813587563902
 30
0.0
 10
108.2256944444446
 20
-14.97126736111
 30
0.0
  0
SPLINE
  5
A3
330
1F
100
AcDbEntity
  8
0
  6
Continuous
 62
     7
370
    25
100
AcDbSpline
210
0.0
220
0.0
230
1.0
 70
     8
 71
     3
 72
    23
 73
    19
 74
     0
 42
0.00000001
 43
0.00000001
 40
0.0
 40
0.0
 40
0.0
 40
0.0
 40
0.0846127534506957
 40
0.1619144606629831
 40
0.2298806845577123
 40
0.2895648750439984
 40
0.3420514708676086
 40
0.3854965674004627
 40
0.4217551846928431
 40
0.4495088320332221
 40
0.4986124906573491
 40
0.5519752119292854
 40
0.6097553304323368
 40
0.6732052240175822
 40
0.7433128260372261
 40
0.8203600646127923
 40
0.9048566891820671
 40
1.0
 40
1.0
 40
1.0
 40
1.0
 10
105.4891493055557
 20
-16.21041666666558
 30
0.0
 10
105.4883208285282
 20
-16.15182520409537
 30
0.0
 10
105.4867354598264
 20
-16.03970493055958
 30
0.0
 10
105.4861237983256
 20
-15.88048467492498
 30
0.0
 10
105.4791514344645
 20
-15.73866210150589
 30
0.0
 10
105.4701805714455
 20
-15.61428486089164
 30
0.0
 10
105.4614308592808
 20
-15.50670604449868
 30
0.0
 10
105.4440776817429
 20
-15.41682076910096
 30
0.0
 10
105.4319774369452
 20
-15.34316943289334
 30
0.0
 10
105.4047311734026
 20
-15.26938882042511
 30
0.0
 10
105.3601171012028
 20
-15.19033605538819
 30
0.0
 10
105.2872695652422
 20
-15.10579005837827
 30
0.0
 10
105.1946031403932
 20
-15.02754634151922
 30
0.0
 10
105.0831008119064
 20
-14.95530512349984
 30
0.0
 10
104.9500502056637
 20
-14.8939400488986
 30
0.0
 10
104.7946221474583
 20
-14.85203933432583
 30
0.0
 10
104.6183781576018
 20
-14.82561053926049
 30
0.0
 10
104.4938863885439
 20
-14.82294142817282
 30
0.0
 10
104.427951388889
 20
-14.82152777777669
 30
0.0
  0
SPLINE
  5
A5
330
1F
100
AcDbEntity
  8
0
  6
Continuous
 62
     7
370
    25
100
AcDbSpline
210
0.0
220
0.0
230
1.0
 70
     8
 71
     3
 72
    15
 73
    11
 74
     0
 42
0.00000001
 43
0.00000001
 40
0.0
 40
0.0
 40
0.0
 40
0.0
 40
0.0613929564847393
 40
0.1375125657304191
 40
0.2347752365658263
 40
0.3503653280824212
 40
0.4848364312453918
 40
0.6359029609429145
 40
0.8083716426091331
 40
1.0
 40
1.0
 40
1.0
 40
1.0
 10
105.4088541666669
 20
-23.77552083333224
 30
0.0
 10
105.4159098301802
 20
-23.75832518527372
 30
0.0
 10
105.4317136364832
 20
-23.71980907822627
 30
0.0
 10
105.4446843865136
 20
-23.64979865051775
 30
0.0
 10
105.4611691173588
 20
-23.56414226214013
 30
0.0
 10
105.4703836629503
 20
-23.45949220308167
 30
0.0
 10
105.4790384926603
 20
-23.33870474087368
 30
0.0
 10
105.4861591482928
 20
-23.20050971629457
 30
0.0
 10
105.4867380128191
 20
-23.04490070510404
 30
0.0
 10
105.4883178300298
 20
-22.93495106350947
 30
0.0
 10
105.4891493055558
 20
-22.87708333333224
 30
0.0
  0
SPLINE
  5
A6
330
1F
100
AcDbEntity
  8
0
  6
Continuous
 62
     7
370
    25
100
AcDbSpline
210
0.0
220
0.0
230
1.0
 70
     8
 71
     3
 72
    11
 73
     7
 74
     0
 42
0.00000001
 43
0.00000001
 40
0.0
 40
0.0
 40
0.0
 40
0.0
 40
0.2333588799629366
 40
0.4720312980874374
 40
0.7278840296407444
 40
1.0
 40
1.0
 40
1.0
 40
1.0
 10
105.1180555555558
 20
-24.1162326388878
 30
0.0
 10
105.1485540797124
 20
-24.09783437852897
 30
0.0
 10
105.2102455737308
 20
-24.06061893285531
 30
0.0
 10
105.2894766139579
 20
-23.98178651790757
 30
0.0
 10
105.35661883609
 20
-23.88569077644337
 30
0.0
 10
105.3910884624113
 20
-23.81299061873506
 30
0.0
 10
105.4088541666669
 20
-23.77552083333224
 30
0.0
  0
SPLINE
  5
A7
330
1F
100
AcDbEntity
  8
0
  6
Continuous
 62
     7
370
    25
100
AcDbSpline
210
0.0
220
0.0
230
1.0
 70
     8
 71
     3
 72
    11
 73
     7
 74
     0
 42
0.00000001
 43
0.00000001
 40
0.0
 40
0.0
 40
0.0
 40
0.0
 40
0.286116982965587
 40
0.5446058600775648
 40
0.782294265333145
 40
1.0
 40
1.0
 40
1.0
 40
1.0
 10
104.4279513888891
 20
-24.26597222222114
 30
0.0
 10
104.4960761233408
 20
-24.26469967798205
 30
0.0
 10
104.625747313125
 20
-24.26227746926642
 30
0.0
 10
104.8100287249239
 20
-24.2334898330329
 30
0.0
 10
104.9745237711526
 20
-24.18789898140436
 30
0.0
 10
105.0716319953217
 20
-24.13941222090448
 30
0.0
 10
105.1180555555558
 20
-24.1162326388878
 30
0.0
  0
SPLINE
  5
AD
330
1F
100
AcDbEntity
  8
0
  6
Continuous
 62
     7
370
    25
100
AcDbSpline
210
0.0
220
0.0
230
1.0
 70
     8
 71
     3
 72
    23
 73
    19
 74
     0
 42
0.00000001
 43
0.00000001
 40
0.0
 40
0.0
 40
0.0
 40
0.0
 40
0.0846548848337132
 40
0.1619950830264002
 40
0.2299951494672512
 40
0.2897913029205968
 40
0.3412642824757858
 40
0.3856016764313392
 40
0.4210869831847758
 40
0.4488544499495158
 40
0.499406856950573
 40
0.5527961492198774
 40
0.6106050382829701
 40
0.6740865255897246
 40
0.744229036415815
 40
0.8213146392637518
 40
0.9058533373917781
 40
1.0
 40
1.0
 40
1.0
 40
1.0
 10
152.3601562500003
 20
-22.87708333333176
 30
0.0
 10
152.3609613002869
 20
-22.93567610097046
 30
0.0
 10
152.3625018397168
 20
-23.04779887187756
 30
0.0
 10
152.3634152381871
 20
-23.20700231819943
 30
0.0
 10
152.3694346686225
 20
-23.34893501691061
 30
0.0
 10
152.3812922760327
 20
-23.47248792210702
 30
0.0
 10
152.3916565660131
 20
-23.57967203142451
 30
0.0
 10
152.4031387779347
 20
-23.66992758092189
 30
0.0
 10
152.4204826233402
 20
-23.74249704896996
 30
0.0
 10
152.4466231441917
 20
-23.81700789413028
 30
0.0
 10
152.4933584555433
 20
-23.89618260033352
 30
0.0
 10
152.5662339369206
 20
-23.98177866518271
 30
0.0
 10
152.6590862691101
 20
-24.05993261789448
 30
0.0
 10
152.7705315179854
 20
-24.13220139722619
 30
0.0
 10
152.9035997654114
 20
-24.19355795021476
 30
0.0
 10
153.0590225619401
 20
-24.2354612212862
 30
0.0
 10
153.2345509070971
 20
-24.26178210396683
 30
0.0
 10
153.3583148973327
 20
-24.26452633018533
 30
0.0
 10
153.4235243055558
 20
-24.26597222222064
 30
0.0
  0
SPLINE
  5
AF
330
1F
100
AcDbEntity
  8
0
  6
Continuous
 62
     7
370
    25
100
AcDbSpline
210
0.0
220
0.0
230
1.0
 70
     8
 71
     3
 72
    15
 73
    11
 74
     0
 42
0.00000001
 43
0.00000001
 40
0.0
 40
0.0
 40
0.0
 40
0.0
 40
0.0613943520403137
 40
0.139853862914318
 40
0.2347602763706166
 40
0.3503529954263558
 40
0.484827155322666
 40
0.6382896720196841
 40
0.8083672866041944
 40
0.9999999999999999
 40
0.9999999999999999
 40
0.9999999999999999
 40
0.9999999999999999
 10
152.4404513888891
 20
-15.31197916666509
 30
0.0
 10
152.4333631644635
 20
-15.32916843311957
 30
0.0
 10
152.417216474513
 20
-15.3683248902599
 30
0.0
 10
152.4052114121162
 20
-15.43854391205841
 30
0.0
 10
152.3878038242557
 20
-15.52401763208317
 30
0.0
 10
152.3790194982238
 20
-15.62802532108938
 30
0.0
 10
152.3701579404386
 20
-15.74950888054993
 30
0.0
 10
152.3632505318234
 20
-15.88771919591116
 30
0.0
 10
152.3625261347663
 20
-16.04332111007588
 30
0.0
 10
152.360976984001
 20
-16.15254845018596
 30
0.0
 10
152.3601562500002
 20
-16.21041666666509
 30
0.0
  0
SPLINE
  5
B0
330
1F
100
AcDbEntity
  8
0
  6
Continuous
 62
     7
370
    25
100
AcDbSpline
210
0.0
220
0.0
230
1.0
 70
     8
 71
     3
 72
    11
 73
     7
 74
     0
 42
0.00000001
 43
0.00000001
 40
0.0
 40
0.0
 40
0.0
 40
0.0
 40
0.2322074352791522
 40
0.4697021905392761
 40
0.7270458402700684
 40
0.9999999999999999
 40
0.9999999999999999
 40
0.9999999999999999
 40
0.9999999999999999
 10
152.7355902777779
 20
-14.97126736110953
 30
0.0
 10
152.7050620639448
 20
-14.9896427185566
 30
0.0
 10
152.6433105145447
 20
-15.02681183691172
 30
0.0
 10
152.5642494271274
 20
-15.10630737401424
 30
0.0
 10
152.4947798604277
 20
-15.20156707812376
 30
0.0
 10
152.4589128217483
 20
-15.27445988254532
 30
0.0
 10
152.4404513888891
 20
-15.31197916666509
 30
0.0
  0
SPLINE
  5
B1
330
1F
100
AcDbEntity
  8
0
  6
Continuous
 62
     7
370
    25
100
AcDbSpline
210
0.0
220
0.0
230
1.0
 70
     8
 71
     3
 72
    11
 73
     7
 74
     0
 42
0.00000001
 43
0.00000001
 40
0.0
 40
0.0
 40
0.0
 40
0.0
 40
0.2869538933514271
 40
0.5461988668811778
 40
0.7816574622027759
 40
1.0
 40
1.0
 40
1.0
 40
1.0
 10
153.4235243055557
 20
-14.82152777777619
 30
0.0
 10
153.355407315923
 20
-14.82282692790286
 30
0.0
 10
153.2257508679195
 20
-14.82529977926868
 30
0.0
 10
153.0420571177883
 20
-14.85363871491704
 30
0.0
 10
152.8785413801743
 20
-14.90005960784691
 30
0.0
 10
152.7820272343822
 20
-14.94813587563855
 30
0.0
 10
152.7355902777779
 20
-14.97126736110953
 30
0.0
  0
SPLINE
  5
B7
330
1F
100
AcDbEntity
  8
0
  6
Continuous
 62
     7
370
    25
100
AcDbSpline
210
0.0
220
0.0
230
1.0
 70
     8
 71
     3
 72
    23
 73
    19
 74
     0
 42
0.00000001
 43
0.00000001
 40
0.0
 40
0.0
 40
0.0
 40
0.0
 40
0.0846127534506953
 40
0.1619144606629858
 40
0.2298806845577127
 40
0.2895648750439985
 40
0.3420514708676078
 40
0.385496567400464
 40
0.4217551846928428
 40
0.4495088320332194
 40
0.4986124906573464
 40
0.5519752119292868
 40
0.6097553304323378
 40
0.6732052240175773
 40
0.7433128260372209
 40
0.8203600646127931
 40
0.9048566891820674
 40
1.0
 40
1.0
 40
1.0
 40
1.0
 10
149.9990451388891
 20
-16.21041666666512
 30
0.0
 10
149.9982166618615
 20
-16.15182520409492
 30
0.0
 10
149.9966312931598
 20
-16.0397049305591
 30
0.0
 10
149.996019631659
 20
-15.8804846749245
 30
0.0
 10
149.9890472677979
 20
-15.73866210150542
 30
0.0
 10
149.9800764047789
 20
-15.61428486089118
 30
0.0
 10
149.9713266926142
 20
-15.50670604449821
 30
0.0
 10
149.9539735150762
 20
-15.4168207691005
 30
0.0
 10
149.9418732702786
 20
-15.34316943289288
 30
0.0
 10
149.914627006736
 20
-15.26938882042464
 30
0.0
 10
149.8700129345362
 20
-15.19033605538774
 30
0.0
 10
149.7971653985756
 20
-15.10579005837781
 30
0.0
 10
149.7044989737267
 20
-15.02754634151876
 30
0.0
 10
149.5929966452397
 20
-14.95530512349938
 30
0.0
 10
149.459946038997
 20
-14.89394004889813
 30
0.0
 10
149.3045179807916
 20
-14.85203933432536
 30
0.0
 10
149.1282739909352
 20
-14.82561053926003
 30
0.0
 10
149.0037822218773
 20
-14.82294142817237
 30
0.0
 10
148.9378472222224
 20
-14.82152777777623
 30
0.0
  0
SPLINE
  5
B9
330
1F
100
AcDbEntity
  8
0
  6
Continuous
 62
     7
370
    25
100
AcDbSpline
210
0.0
220
0.0
230
1.0
 70
     8
 71
     3
 72
    15
 73
    11
 74
     0
 42
0.00000001
 43
0.00000001
 40
0.0
 40
0.0
 40
0.0
 40
0.0
 40
0.0613929564847343
 40
0.1375125657304111
 40
0.2347752365658242
 40
0.3503653280824181
 40
0.4848364312453896
 40
0.6359029609429124
 40
0.8083716426091322
 40
1.0
 40
1.0
 40
1.0
 40
1.0
 10
149.9187500000003
 20
-23.77552083333177
 30
0.0
 10
149.9258056635136
 20
-23.75832518527325
 30
0.0
 10
149.9416094698165
 20
-23.71980907822579
 30
0.0
 10
149.9545802198469
 20
-23.64979865051728
 30
0.0
 10
149.9710649506922
 20
-23.56414226213967
 30
0.0
 10
149.9802794962837
 20
-23.4594922030812
 30
0.0
 10
149.9889343259937
 20
-23.3387047408732
 30
0.0
 10
149.9960549816262
 20
-23.20050971629413
 30
0.0
 10
149.9966338461525
 20
-23.04490070510357
 30
0.0
 10
149.9982136633632
 20
-22.934951063509
 30
0.0
 10
149.9990451388892
 20
-22.87708333333179
 30
0.0
  0
SPLINE
  5
BA
330
1F
100
AcDbEntity
  8
0
  6
Continuous
 62
     7
370
    25
100
AcDbSpline
210
0.0
220
0.0
230
1.0
 70
     8
 71
     3
 72
    11
 73
     7
 74
     0
 42
0.00000001
 43
0.00000001
 40
0.0
 40
0.0
 40
0.0
 40
0.0
 40
0.2333588799629157
 40
0.4720312980873994
 40
0.7278840296407114
 40
1.0
 40
1.0
 40
1.0
 40
1.0
 10
149.6279513888892
 20
-24.11623263888733
 30
0.0
 10
149.6584499130457
 20
-24.09783437852851
 30
0.0
 10
149.7201414070641
 20
-24.06061893285484
 30
0.0
 10
149.7993724472912
 20
-23.98178651790708
 30
0.0
 10
149.8665146694233
 20
-23.88569077644291
 30
0.0
 10
149.9009842957447
 20
-23.8129906187346
 30
0.0
 10
149.9187500000003
 20
-23.77552083333177
 30
0.0
  0
SPLINE
  5
BB
330
1F
100
AcDbEntity
  8
0
  6
Continuous
 62
     7
370
    25
100
AcDbSpline
210
0.0
220
0.0
230
1.0
 70
     8
 71
     3
 72
    11
 73
     7
 74
     0
 42
0.00000001
 43
0.00000001
 40
0.0
 40
0.0
 40
0.0
 40
0.0
 40
0.2861169829655624
 40
0.5446058600775356
 40
0.7822942653331488
 40
1.0
 40
1.0
 40
1.0
 40
1.0
 10
148.9378472222225
 20
-24.26597222222068
 30
0.0
 10
149.0059719566741
 20
-24.26469967798158
 30
0.0
 10
149.1356431464584
 20
-24.26227746926594
 30
0.0
 10
149.3199245582573
 20
-24.23348983303243
 30
0.0
 10
149.4844196044859
 20
-24.18789898140389
 30
0.0
 10
149.5815278286551
 20
-24.139412220904
 30
0.0
 10
149.6279513888892
 20
-24.11623263888733
 30
0.0
  0
SPLINE
  5
C2
330
1F
100
AcDbEntity
  8
0
  6
Continuous
 62
     7
370
    25
100
AcDbSpline
210
0.0
220
0.0
230
1.0
 70
     8
 71
     3
 72
    11
 73
     7
 74
     0
 42
0.00000001
 43
0.00000001
 40
0.0
 40
0.0
 40
0.0
 40
0.0
 40
0.2093610344976171
 40
0.446466954227715
 40
0.7084325846751198
 40
1.0
 40
1.0
 40
1.0
 40
1.0
 10
204.3223090277778
 20
-14.94522569444232
 30
0.0
 10
204.2662630428791
 20
-14.92579347996013
 30
0.0
 10
204.1467437625388
 20
-14.88435386043124
 30
0.0
 10
203.9489213929773
 20
-14.84777493538338
 30
0.0
 10
203.7259844464005
 20
-14.82696302886892
 30
0.0
 10
203.5693244680567
 20
-14.82340298928701
 30
0.0
 10
203.4868055555556
 20
-14.82152777777565
 30
0.0
  0
SPLINE
  5
C3
330
1F
100
AcDbEntity
  8
0
  6
Continuous
 62
     7
370
    25
100
AcDbSpline
210
0.0
220
0.0
230
1.0
 70
     8
 71
     3
 72
    15
 73
    11
 74
     0
 42
0.00000001
 43
0.00000001
 40
0.0
 40
0.0
 40
0.0
 40
0.0
 40
0.1263407098085297
 40
0.2474896639401361
 40
0.3664873842949352
 40
0.4865379571477493
 40
0.6071389710934644
 40
0.7310981764955093
 40
0.8617682838019787
 40
1.0
 40
1.0
 40
1.0
 40
1.0
 10
204.7823784722223
 20
-15.58541666666453
 30
0.0
 10
204.7813535226449
 20
-15.54985364624828
 30
0.0
 10
204.7793457420424
 20
-15.48018900699738
 30
0.0
 10
204.7568504160467
 20
-15.3790299360546
 30
0.0
 10
204.7197025623205
 20
-15.28442405388485
 30
0.0
 10
204.6672090957565
 20
-15.19747186740873
 30
0.0
 10
204.6012155670794
 20
-15.1186168289073
 30
0.0
 10
204.5223432820083
 20
-15.04796272397731
 30
0.0
 10
204.4280983484502
 20
-14.98919745108809
 30
0.0
 10
204.3582270692211
 20
-14.96015517283859
 30
0.0
 10
204.3223090277778
 20
-14.94522569444232
 30
0.0
  0
SPLINE
  5
C4
330
1F
100
AcDbEntity
  8
0
  6
Continuous
 62
     7
370
    25
100
AcDbSpline
210
0.0
220
0.0
230
1.0
 70
     8
 71
     3
 72
    17
 73
    13
 74
     0
 42
0.00000001
 43
0.00000001
 40
0.0
 40
0.0
 40
0.0
 40
0.0
 40
0.1340703849795684
 40
0.2550331934463145
 40
0.3645759520974316
 40
0.461520962108003
 40
0.5458693035481996
 40
0.6183490298917503
 40
0.6782524972719749
 40
0.7251937003708052
 40
0.8766318358918331
 40
1.0
 40
1.0
 40
1.0
 40
1.0
 10
204.2398437500001
 20
-17.18263888888676
 30
0.0
 10
204.2703985525186
 20
-17.11326916662856
 30
0.0
 10
204.3285209250516
 20
-16.98131174889838
 30
0.0
 10
204.4089257849418
 20
-16.79151596374835
 30
0.0
 10
204.4803191720266
 20
-16.62070028063955
 30
0.0
 10
204.5428961628435
 20
-16.46865373166301
 30
0.0
 10
204.5986090320586
 20
-16.33639692731333
 30
0.0
 10
204.640801711422
 20
-16.22135628875597
 30
0.0
 10
204.6767946460917
 20
-16.12651520583959
 30
0.0
 10
204.7195260796866
 20
-15.98692390893591
 30
0.0
 10
204.7682872568371
 20
-15.81059188502612
 30
0.0
 10
204.7780125283196
 20
-15.65518370554286
 30
0.0
 10
204.7823784722223
 20
-15.58541666666453
 30
0.0
  0
SPLINE
  5
C7
330
1F
100
AcDbEntity
  8
0
  6
Continuous
 62
     7
370
    25
100
AcDbSpline
210
0.0
220
0.0
230
1.0
 70
     8
 71
     3
 72
    17
 73
    13
 74
     0
 42
0.00000001
 43
0.00000001
 40
0.0
 40
0.0
 40
0.0
 40
0.0
 40
0.1027584357504482
 40
0.2244325439629709
 40
0.2655708949033994
 40
0.3233772937501809
 40
0.3969808414278514
 40
0.4852453705532461
 40
0.5893365059177832
 40
0.7107048626354316
 40
0.8467142167753084
 40
1.0
 40
1.0
 40
1.0
 40
1.0
 10
199.7476562500001
 20
-15.30112847222014
 30
0.0
 10
199.7512872080129
 20
-15.34908388773677
 30
0.0
 10
199.7592175072421
 20
-15.45382230480782
 30
0.0
 10
199.7928623682819
 20
-15.57416316507522
 30
0.0
 10
199.8285390430597
 20
-15.67081301336505
 30
0.0
 10
199.8558129163324
 20
-15.74671334302426
 30
0.0
 10
199.8963853179873
 20
-15.84102839325305
 30
0.0
 10
199.940563622886
 20
-15.95719237425461
 30
0.0
 10
199.9980502884405
 20
-16.09205196823739
 30
0.0
 10
200.065546819037
 20
-16.24686045418297
 30
0.0
 10
200.1387382810821
 20
-16.42423424215002
 30
0.0
 10
200.1923433641058
 20
-16.54831639159439
 30
0.0
 10
200.2207465277779
 20
-16.61406249999792
 30
0.0
  0
SPLINE
  5
C8
330
1F
100
AcDbEntity
  8
0
  6
Continuous
 62
     7
370
    25
100
AcDbSpline
210
0.0
220
0.0
230
1.0
 70
     8
 71
     3
 72
    11
 73
     7
 74
     0
 42
0.00000001
 43
0.00000001
 40
0.0
 40
0.0
 40
0.0
 40
0.0
 40
0.2535443523655762
 40
0.493111366518148
 40
0.7336446589224114
 40
1.0
 40
1.0
 40
1.0
 40
1.0
 10
199.9169270833334
 20
-14.98211805555347
 30
0.0
 10
199.8909900670808
 20
-15.00102246921242
 30
0.0
 10
199.8405458847972
 20
-15.03778913810336
 30
0.0
 10
199.7881542263973
 20
-15.11528551737018
 30
0.0
 10
199.7525551902878
 20
-15.20339677475206
 30
0.0
 10
199.74934376255
 20
-15.26746334133046
 30
0.0
 10
199.7476562500001
 20
-15.30112847222014
 30
0.0
  0
SPLINE
  5
C9
330
1F
100
AcDbEntity
  8
0
  6
Continuous
 62
     7
370
    25
100
AcDbSpline
210
0.0
220
0.0
230
1.0
 70
     8
 71
     3
 72
    11
 73
     7
 74
     0
 42
0.00000001
 43
0.00000001
 40
0.0
 40
0.0
 40
0.0
 40
0.0
 40
0.3293660339014154
 40
0.6029278382156725
 40
0.8237779144166779
 40
1.0
 40
1.0
 40
1.0
 40
1.0
 10
200.7958333333334
 20
-14.82152777777569
 30
0.0
 10
200.6965739372027
 20
-14.82328073347471
 30
0.0
 10
200.5148725868152
 20
-14.82648964295934
 30
0.0
 10
200.2687627776962
 20
-14.85647582890075
 30
0.0
 10
200.0696635237907
 20
-14.90023077614794
 30
0.0
 10
199.9638759829701
 20
-14.95694712940891
 30
0.0
 10
199.9169270833334
 20
-14.98211805555347
 30
0.0
  0
SPLINE
  5
CE
330
1F
100
AcDbEntity
  8
0
  6
Continuous
 62
     7
370
    25
100
AcDbSpline
210
0.0
220
0.0
230
1.0
 70
     8
 71
     3
 72
    19
 73
    15
 74
     0
 42
0.00000001
 43
0.00000001
 40
0.0
 40
0.0
 40
0.0
 40
0.0
 40
0.1341655931047205
 40
0.2538598215297621
 40
0.3598260006184423
 40
0.4520760620251489
 40
0.5302803171944979
 40
0.5941406015790083
 40
0.6444446339598966
 40
0.6807018451263661
 40
0.7430134279726981
 40
0.8147266608523598
 40
0.900390583353979
 40
1.0
 40
1.0
 40
1.0
 40
1.0
 10
197.8791666666667
 20
-16.76163194444239
 30
0.0
 10
197.8302151372185
 20
-16.65157116470049
 30
0.0
 10
197.7375920865409
 20
-16.4433209773302
 30
0.0
 10
197.6026786888256
 20
-16.14977309973818
 30
0.0
 10
197.4810631773325
 20
-15.89156379930012
 30
0.0
 10
197.3738786290972
 20
-15.66769750976173
 30
0.0
 10
197.2763643379421
 20
-15.48125975352992
 30
0.0
 10
197.1916719778376
 20
-15.33066685553644
 30
0.0
 10
197.1213143618878
 20
-15.21545995028326
 30
0.0
 10
197.0433471377521
 20
-15.10623014913592
 30
0.0
 10
196.9225240338512
 20
-15.00900875218914
 30
0.0
 10
196.746023773272
 20
-14.91871860378832
 30
0.0
 10
196.5222789926042
 20
-14.85700122050536
 30
0.0
 10
196.3575094635063
 20
-14.83393108708409
 30
0.0
 10
196.2689236111112
 20
-14.82152777777573
 30
0.0
  0
SPLINE
  5
D2
330
1F
100
AcDbEntity
  8
0
  6
Continuous
 62
     7
370
    25
100
AcDbSpline
210
0.0
220
0.0
230
1.0
 70
     8
 71
     3
 72
    15
 73
    11
 74
     0
 42
0.00000001
 43
0.00000001
 40
0.0
 40
0.0
 40
0.0
 40
0.0
 40
0.0686855839473738
 40
0.153325319593374
 40
0.2533074399630169
 40
0.3697541064027202
 40
0.5032837531793213
 40
0.6529605348839072
 40
0.8178805146323402
 40
1.0
 40
1.0
 40
1.0
 40
1.0
 10
205.9065104166667
 20
-15.41180555555341
 30
0.0
 10
205.8784277643142
 20
-15.4475510536122
 30
0.0
 10
205.8157394766193
 20
-15.52734494337644
 30
0.0
 10
205.7268485662706
 20
-15.66963069664605
 30
0.0
 10
205.6263707140286
 20
-15.84152851888883
 30
0.0
 10
205.5187244600622
 20
-16.04652729888247
 30
0.0
 10
205.4001158435703
 20
-16.28273697743783
 30
0.0
 10
205.2692592865219
 20
-16.54871557304361
 30
0.0
 10
205.1332090886766
 20
-16.84778578759812
 30
0.0
 10
205.0397547856367
 20
-17.05743049678741
 30
0.0
 10
204.9907118055556
 20
-17.16744791666452
 30
0.0
  0
SPLINE
  5
D3
330
1F
100
AcDbEntity
  8
0
  6
Continuous
 62
     7
370
    25
100
AcDbSpline
210
0.0
220
0.0
230
1.0
 70
     8
 71
     3
 72
    11
 73
     7
 74
     0
 42
0.00000001
 43
0.00000001
 40
0.0
 40
0.0
 40
0.0
 40
0.0
 40
0.2369182312099554
 40
0.4763327855864743
 40
0.7276821857468461
 40
1.0
 40
1.0
 40
1.0
 40
1.0
 10
206.8722222222223
 20
-14.82152777777562
 30
0.0
 10
206.7825850186418
 20
-14.84068965342679
 30
0.0
 10
206.6023661361368
 20
-14.87921530659989
 30
0.0
 10
206.3527062115793
 20
-15.01191883253618
 30
0.0
 10
206.1122557586735
 20
-15.18327353594559
 30
0.0
 10
205.9768988282702
 20
-15.33362149702821
 30
0.0
 10
205.9065104166667
 20
-15.41180555555341
 30
0.0
  0
SPLINE
  5
D6
330
1F
100
AcDbEntity
  8
0
  6
Continuous
 62
     7
370
    25
100
AcDbSpline
210
0.0
220
0.0
230
1.0
 70
     8
 71
     3
 72
    23
 73
    19
 74
     0
 42
0.00000001
 43
0.00000001
 40
0.0
 40
0.0
 40
0.0
 40
0.0
 40
0.0846548848337132
 40
0.1619950830264002
 40
0.2299951494672512
 40
0.2897913029205968
 40
0.3412642824757858
 40
0.3856016764313392
 40
0.4210869831847758
 40
0.4488544499495158
 40
0.499406856950573
 40
0.5527961492198774
 40
0.6106050382829701
 40
0.6740865255897246
 40
0.744229036415815
 40
0.8213146392637518
 40
0.9058533373917781
 40
1.0
 40
1.0
 40
1.0
 40
1.0
 10
158.1934895833336
 20
-22.87708333333169
 30
0.0
 10
158.1942946336202
 20
-22.93567610097039
 30
0.0
 10
158.1958351730501
 20
-23.0477988718775
 30
0.0
 10
158.1967485715203
 20
-23.20700231819936
 30
0.0
 10
158.2027680019558
 20
-23.34893501691054
 30
0.0
 10
158.214625609366
 20
-23.47248792210695
 30
0.0
 10
158.2249898993464
 20
-23.57967203142445
 30
0.0
 10
158.236472111268
 20
-23.66992758092182
 30
0.0
 10
158.2538159566735
 20
-23.74249704896988
 30
0.0
 10
158.279956477525
 20
-23.81700789413023
 30
0.0
 10
158.3266917888766
 20
-23.89618260033345
 30
0.0
 10
158.3995672702539
 20
-23.98177866518266
 30
0.0
 10
158.4924196024434
 20
-24.05993261789442
 30
0.0
 10
158.6038648513187
 20
-24.13220139722612
 30
0.0
 10
158.7369330987447
 20
-24.19355795021469
 30
0.0
 10
158.8923558952735
 20
-24.23546122128613
 30
0.0
 10
159.0678842404303
 20
-24.26178210396676
 30
0.0
 10
159.1916482306659
 20
-24.26452633018526
 30
0.0
 10
159.2568576388891
 20
-24.26597222222057
 30
0.0
  0
SPLINE
  5
D8
330
1F
100
AcDbEntity
  8
0
  6
Continuous
 62
     7
370
    25
100
AcDbSpline
210
0.0
220
0.0
230
1.0
 70
     8
 71
     3
 72
    15
 73
    11
 74
     0
 42
0.00000001
 43
0.00000001
 40
0.0
 40
0.0
 40
0.0
 40
0.0
 40
0.0613943520403139
 40
0.1398538629143185
 40
0.2347602763706175
 40
0.3503529954263572
 40
0.4848271553226717
 40
0.6382896720196867
 40
0.8083672866041938
 40
1.0
 40
1.0
 40
1.0
 40
1.0
 10
158.2737847222224
 20
-15.31197916666502
 30
0.0
 10
158.2666964977969
 20
-15.32916843311952
 30
0.0
 10
158.2505498078463
 20
-15.36832489025984
 30
0.0
 10
158.2385447454495
 20
-15.43854391205834
 30
0.0
 10
158.2211371575891
 20
-15.52401763208311
 30
0.0
 10
158.212352831557
 20
-15.62802532108931
 30
0.0
 10
158.2034912737719
 20
-15.74950888054986
 30
0.0
 10
158.1965838651566
 20
-15.88771919591107
 30
0.0
 10
158.1958594680996
 20
-16.04332111007581
 30
0.0
 10
158.1943103173343
 20
-16.15254845018589
 30
0.0
 10
158.1934895833335
 20
-16.21041666666502
 30
0.0
  0
SPLINE
  5
D9
330
1F
100
AcDbEntity
  8
0
  6
Continuous
 62
     7
370
    25
100
AcDbSpline
210
0.0
220
0.0
230
1.0
 70
     8
 71
     3
 72
    11
 73
     7
 74
     0
 42
0.00000001
 43
0.00000001
 40
0.0
 40
0.0
 40
0.0
 40
0.0
 40
0.2322074352791522
 40
0.4697021905392761
 40
0.7270458402700684
 40
0.9999999999999999
 40
0.9999999999999999
 40
0.9999999999999999
 40
0.9999999999999999
 10
158.5689236111112
 20
-14.97126736110947
 30
0.0
 10
158.538395397278
 20
-14.98964271855653
 30
0.0
 10
158.4766438478781
 20
-15.02681183691167
 30
0.0
 10
158.3975827604607
 20
-15.10630737401417
 30
0.0
 10
158.328113193761
 20
-15.2015670781237
 30
0.0
 10
158.2922461550816
 20
-15.27445988254526
 30
0.0
 10
158.2737847222224
 20
-15.31197916666502
 30
0.0
  0
SPLINE
  5
DA
330
1F
100
AcDbEntity
  8
0
  6
Continuous
 62
     7
370
    25
100
AcDbSpline
210
0.0
220
0.0
230
1.0
 70
     8
 71
     3
 72
    11
 73
     7
 74
     0
 42
0.00000001
 43
0.00000001
 40
0.0
 40
0.0
 40
0.0
 40
0.0
 40
0.2869538933514271
 40
0.5461988668811778
 40
0.7816574622027759
 40
1.0
 40
1.0
 40
1.0
 40
1.0
 10
159.256857638889
 20
-14.82152777777612
 30
0.0
 10
159.1887406492564
 20
-14.82282692790279
 30
0.0
 10
159.0590842012528
 20
-14.82529977926861
 30
0.0
 10
158.8753904511216
 20
-14.85363871491699
 30
0.0
 10
158.7118747135076
 20
-14.90005960784685
 30
0.0
 10
158.6153605677155
 20
-14.94813587563849
 30
0.0
 10
158.5689236111112
 20
-14.97126736110947
 30
0.0
  0
SPLINE
  5
E0
330
1F
100
AcDbEntity
  8
0
  6
Continuous
 62
     7
370
    25
100
AcDbSpline
210
0.0
220
0.0
230
1.0
 70
     8
 71
     3
 72
    23
 73
    19
 74
     0
 42
0.00000001
 43
0.00000001
 40
0.0
 40
0.0
 40
0.0
 40
0.0
 40
0.0846127534506954
 40
0.1619144606629827
 40
0.2298806845577114
 40
0.2895648750439973
 40
0.3420514708676067
 40
0.385496567400463
 40
0.4217551846928418
 40
0.4495088320332185
 40
0.4986124906573455
 40
0.551975211929286
 40
0.6097553304323371
 40
0.6732052240175768
 40
0.7433128260372205
 40
0.8203600646127928
 40
0.9048566891820673
 40
1.0
 40
1.0
 40
1.0
 40
1.0
 10
155.8323784722224
 20
-16.21041666666505
 30
0.0
 10
155.8315499951948
 20
-16.15182520409485
 30
0.0
 10
155.8299646264931
 20
-16.03970493055903
 30
0.0
 10
155.8293529649924
 20
-15.88048467492445
 30
0.0
 10
155.8223806011312
 20
-15.73866210150535
 30
0.0
 10
155.8134097381122
 20
-15.61428486089113
 30
0.0
 10
155.8046600259475
 20
-15.50670604449815
 30
0.0
 10
155.7873068484095
 20
-15.41682076910043
 30
0.0
 10
155.7752066036119
 20
-15.34316943289282
 30
0.0
 10
155.7479603400693
 20
-15.26938882042458
 30
0.0
 10
155.7033462678695
 20
-15.19033605538766
 30
0.0
 10
155.6304987319089
 20
-15.10579005837775
 30
0.0
 10
155.5378323070599
 20
-15.02754634151869
 30
0.0
 10
155.4263299785731
 20
-14.95530512349931
 30
0.0
 10
155.2932793723303
 20
-14.89394004889806
 30
0.0
 10
155.1378513141249
 20
-14.85203933432529
 30
0.0
 10
154.9616073242686
 20
-14.82561053925997
 30
0.0
 10
154.8371155552106
 20
-14.8229414281723
 30
0.0
 10
154.7711805555557
 20
-14.82152777777616
 30
0.0
  0
SPLINE
  5
E2
330
1F
100
AcDbEntity
  8
0
  6
Continuous
 62
     7
370
    25
100
AcDbSpline
210
0.0
220
0.0
230
1.0
 70
     8
 71
     3
 72
    15
 73
    11
 74
     0
 42
0.00000001
 43
0.00000001
 40
0.0
 40
0.0
 40
0.0
 40
0.0
 40
0.0613929564847343
 40
0.1375125657304111
 40
0.2347752365658242
 40
0.3503653280824181
 40
0.4848364312453896
 40
0.6359029609429124
 40
0.8083716426091322
 40
1.0
 40
1.0
 40
1.0
 40
1.0
 10
155.7520833333336
 20
-23.77552083333172
 30
0.0
 10
155.7591389968469
 20
-23.7583251852732
 30
0.0
 10
155.7749428031499
 20
-23.71980907822574
 30
0.0
 10
155.7879135531803
 20
-23.64979865051722
 30
0.0
 10
155.8043982840254
 20
-23.5641422621396
 30
0.0
 10
155.813612829617
 20
-23.45949220308115
 30
0.0
 10
155.822267659327
 20
-23.33870474087314
 30
0.0
 10
155.8293883149595
 20
-23.20050971629406
 30
0.0
 10
155.8299671794858
 20
-23.0449007051035
 30
0.0
 10
155.8315469966965
 20
-22.93495106350894
 30
0.0
 10
155.8323784722224
 20
-22.87708333333171
 30
0.0
  0
SPLINE
  5
E3
330
1F
100
AcDbEntity
  8
0
  6
Continuous
 62
     7
370
    25
100
AcDbSpline
210
0.0
220
0.0
230
1.0
 70
     8
 71
     3
 72
    11
 73
     7
 74
     0
 42
0.00000001
 43
0.00000001
 40
0.0
 40
0.0
 40
0.0
 40
0.0
 40
0.2333588799629157
 40
0.4720312980873994
 40
0.7278840296407114
 40
1.0
 40
1.0
 40
1.0
 40
1.0
 10
155.4612847222224
 20
-24.11623263888728
 30
0.0
 10
155.491783246379
 20
-24.09783437852844
 30
0.0
 10
155.5534747403975
 20
-24.06061893285479
 30
0.0
 10
155.6327057806245
 20
-23.98178651790701
 30
0.0
 10
155.6998480027567
 20
-23.88569077644284
 30
0.0
 10
155.734317629078
 20
-23.81299061873453
 30
0.0
 10
155.7520833333336
 20
-23.77552083333172
 30
0.0
  0
SPLINE
  5
E4
330
1F
100
AcDbEntity
  8
0
  6
Continuous
 62
     7
370
    25
100
AcDbSpline
210
0.0
220
0.0
230
1.0
 70
     8
 71
     3
 72
    11
 73
     7
 74
     0
 42
0.00000001
 43
0.00000001
 40
0.0
 40
0.0
 40
0.0
 40
0.0
 40
0.2861169829655624
 40
0.5446058600775356
 40
0.7822942653331488
 40
1.0
 40
1.0
 40
1.0
 40
1.0
 10
154.7711805555558
 20
-24.26597222222061
 30
0.0
 10
154.8393052900074
 20
-24.2646996779815
 30
0.0
 10
154.9689764797916
 20
-24.26227746926589
 30
0.0
 10
155.1532578915906
 20
-24.23348983303238
 30
0.0
 10
155.3177529378193
 20
-24.18789898140382
 30
0.0
 10
155.4148611619883
 20
-24.13941222090393
 30
0.0
 10
155.4612847222224
 20
-24.11623263888728
 30
0.0
  0
SPLINE
  5
12C
330
1F
100
AcDbEntity
  8
0
  6
Continuous
 62
     7
370
    25
100
AcDbSpline
210
0.0
220
0.0
230
1.0
 70
     8
 71
     3
 72
    23
 73
    19
 74
     0
 42
0.00000001
 43
0.00000001
 40
0.0
 40
0.0
 40
0.0
 40
0.0
 40
0.0846548848337132
 40
0.1619950830264001
 40
0.2299951494672511
 40
0.2897913029205963
 40
0.3412642824757846
 40
0.3856016764313388
 40
0.4210869831847754
 40
0.4488544499495131
 40
0.4994068569505752
 40
0.5527961492198753
 40
0.6106050382829653
 40
0.674086525589728
 40
0.7442290364158183
 40
0.8213146392637487
 40
0.9058533373917748
 40
1.0
 40
1.0
 40
1.0
 40
1.0
 10
57.50703125000022
 20
-22.87708333333274
 30
0.0
 10
57.50783630028685
 20
-22.93567610097144
 30
0.0
 10
57.50937683971679
 20
-23.04779887187855
 30
0.0
 10
57.51029023818707
 20
-23.20700231820043
 30
0.0
 10
57.51630966862249
 20
-23.3489350169116
 30
0.0
 10
57.52816727603268
 20
-23.472487922108
 30
0.0
 10
57.53853156601308
 20
-23.57967203142551
 30
0.0
 10
57.55001377793465
 20
-23.66992758092287
 30
0.0
 10
57.56735762334015
 20
-23.74249704897093
 30
0.0
 10
57.59349814419161
 20
-23.81700789413128
 30
0.0
 10
57.64023345554333
 20
-23.89618260033451
 30
0.0
 10
57.71310893692048
 20
-23.9817786651837
 30
0.0
 10
57.80596126911001
 20
-24.05993261789548
 30
0.0
 10
57.91740651798533
 20
-24.13220139722716
 30
0.0
 10
58.0504747654114
 20
-24.19355795021576
 30
0.0
 10
58.20589756194011
 20
-24.23546122128718
 30
0.0
 10
58.38142590709702
 20
-24.26178210396782
 30
0.0
 10
58.50518989733261
 20
-24.26452633018632
 30
0.0
 10
58.57039930555578
 20
-24.26597222222163
 30
0.0
  0
SPLINE
  5
12E
330
1F
100
AcDbEntity
  8
0
  6
Continuous
 62
     7
370
    25
100
AcDbSpline
210
0.0
220
0.0
230
1.0
 70
     8
 71
     3
 72
    15
 73
    11
 74
     0
 42
0.00000001
 43
0.00000001
 40
0.0
 40
0.0
 40
0.0
 40
0.0
 40
0.0613943520403087
 40
0.1398538629143152
 40
0.2347602763706159
 40
0.3503529954263543
 40
0.4848271553226692
 40
0.6382896720196851
 40
0.8083672866041928
 40
0.9999999999999999
 40
0.9999999999999999
 40
0.9999999999999999
 40
0.9999999999999999
 10
57.58732638888902
 20
-15.31197916666607
 30
0.0
 10
57.58023816446352
 20
-15.32916843312057
 30
0.0
 10
57.56409147451296
 20
-15.3683248902609
 30
0.0
 10
57.55208641211613
 20
-15.4385439120594
 30
0.0
 10
57.53467882425574
 20
-15.52401763208416
 30
0.0
 10
57.52589449822371
 20
-15.62802532109037
 30
0.0
 10
57.51703294043854
 20
-15.74950888055092
 30
0.0
 10
57.51012553182336
 20
-15.88771919591214
 30
0.0
 10
57.50940113476631
 20
-16.04332111007686
 30
0.0
 10
57.50785198400097
 20
-16.15254845018694
 30
0.0
 10
57.50703125000014
 20
-16.21041666666607
 30
0.0
  0
SPLINE
  5
12F
330
1F
100
AcDbEntity
  8
0
  6
Continuous
 62
     7
370
    25
100
AcDbSpline
210
0.0
220
0.0
230
1.0
 70
     8
 71
     3
 72
    11
 73
     7
 74
     0
 42
0.00000001
 43
0.00000001
 40
0.0
 40
0.0
 40
0.0
 40
0.0
 40
0.2322074352791603
 40
0.4697021905392687
 40
0.7270458402700737
 40
0.9999999999999999
 40
0.9999999999999999
 40
0.9999999999999999
 40
0.9999999999999999
 10
57.88246527777791
 20
-14.97126736111051
 30
0.0
 10
57.85193706394475
 20
-14.98964271855759
 30
0.0
 10
57.79018551454475
 20
-15.02681183691272
 30
0.0
 10
57.71112442712734
 20
-15.10630737401522
 30
0.0
 10
57.64165486042769
 20
-15.20156707812474
 30
0.0
 10
57.60578782174824
 20
-15.27445988254632
 30
0.0
 10
57.58732638888902
 20
-15.31197916666607
 30
0.0
  0
SPLINE
  5
130
330
1F
100
AcDbEntity
  8
0
  6
Continuous
 62
     7
370
    25
100
AcDbSpline
210
0.0
220
0.0
230
1.0
 70
     8
 71
     3
 72
    11
 73
     7
 74
     0
 42
0.00000001
 43
0.00000001
 40
0.0
 40
0.0
 40
0.0
 40
0.0
 40
0.2869538933514394
 40
0.5461988668811925
 40
0.781657462202774
 40
1.0
 40
1.0
 40
1.0
 40
1.0
 10
58.57039930555568
 20
-14.82152777777718
 30
0.0
 10
58.502282315923
 20
-14.82282692790386
 30
0.0
 10
58.3726258679195
 20
-14.82529977926968
 30
0.0
 10
58.1889321177882
 20
-14.85363871491803
 30
0.0
 10
58.02541638017428
 20
-14.9000596078479
 30
0.0
 10
57.92890223438214
 20
-14.94813587563955
 30
0.0
 10
57.88246527777791
 20
-14.97126736111051
 30
0.0
  0
SPLINE
  5
136
330
1F
100
AcDbEntity
  8
0
  6
Continuous
 62
     7
370
    25
100
AcDbSpline
210
0.0
220
0.0
230
1.0
 70
     8
 71
     3
 72
    23
 73
    19
 74
     0
 42
0.00000001
 43
0.00000001
 40
0.0
 40
0.0
 40
0.0
 40
0.0
 40
0.0846127534506955
 40
0.1619144606629829
 40
0.2298806845577117
 40
0.2895648750439977
 40
0.3420514708676082
 40
0.3854965674004628
 40
0.4217551846928418
 40
0.4495088320332219
 40
0.4986124906573489
 40
0.551975211929283
 40
0.6097553304323343
 40
0.6732052240175824
 40
0.7433128260372264
 40
0.8203600646127891
 40
0.9048566891820637
 40
1.0
 40
1.0
 40
1.0
 40
1.0
 10
55.14592013888902
 20
-16.2104166666661
 30
0.0
 10
55.14509166186148
 20
-16.1518252040959
 30
0.0
 10
55.1435062931598
 20
-16.0397049305601
 30
0.0
 10
55.14289463165895
 20
-15.88048467492549
 30
0.0
 10
55.13592226779788
 20
-15.73866210150642
 30
0.0
 10
55.12695140477886
 20
-15.61428486089217
 30
0.0
 10
55.11820169261415
 20
-15.50670604449921
 30
0.0
 10
55.10084851507618
 20
-15.41682076910149
 30
0.0
 10
55.08874827027856
 20
-15.34316943289386
 30
0.0
 10
55.06150200673589
 20
-15.26938882042564
 30
0.0
 10
55.01688793453616
 20
-15.19033605538873
 30
0.0
 10
54.94404039857557
 20
-15.1057900583788
 30
0.0
 10
54.85137397372657
 20
-15.02754634151974
 30
0.0
 10
54.7398716452397
 20
-14.95530512350036
 30
0.0
 10
54.60682103899698
 20
-14.89394004889913
 30
0.0
 10
54.45139298079159
 20
-14.85203933432636
 30
0.0
 10
54.27514899093519
 20
-14.82561053926101
 30
0.0
 10
54.15065722187723
 20
-14.82294142817335
 30
0.0
 10
54.08472222222235
 20
-14.82152777777722
 30
0.0
  0
SPLINE
  5
138
330
1F
100
AcDbEntity
  8
0
  6
Continuous
 62
     7
370
    25
100
AcDbSpline
210
0.0
220
0.0
230
1.0
 70
     8
 71
     3
 72
    15
 73
    11
 74
     0
 42
0.00000001
 43
0.00000001
 40
0.0
 40
0.0
 40
0.0
 40
0.0
 40
0.061392956484742
 40
0.1375125657304183
 40
0.2347752365658268
 40
0.3503653280824224
 40
0.4848364312453929
 40
0.6359029609429149
 40
0.8083716426091333
 40
1.0
 40
1.0
 40
1.0
 40
1.0
 10
55.06562500000022
 20
-23.77552083333277
 30
0.0
 10
55.07268066351357
 20
-23.75832518527424
 30
0.0
 10
55.08848446981655
 20
-23.7198090782268
 30
0.0
 10
55.1014552198469
 20
-23.64979865051828
 30
0.0
 10
55.11793995069212
 20
-23.56414226214064
 30
0.0
 10
55.12715449628364
 20
-23.4594922030822
 30
0.0
 10
55.13580932599369
 20
-23.33870474087421
 30
0.0
 10
55.1429299816261
 20
-23.20050971629512
 30
0.0
 10
55.14350884615248
 20
-23.04490070510457
 30
0.0
 10
55.14508866336313
 20
-22.93495106351
 30
0.0
 10
55.1459201388891
 20
-22.87708333333277
 30
0.0
  0
SPLINE
  5
139
330
1F
100
AcDbEntity
  8
0
  6
Continuous
 62
     7
370
    25
100
AcDbSpline
210
0.0
220
0.0
230
1.0
 70
     8
 71
     3
 72
    11
 73
     7
 74
     0
 42
0.00000001
 43
0.00000001
 40
0.0
 40
0.0
 40
0.0
 40
0.0
 40
0.2333588799629273
 40
0.4720312980874316
 40
0.7278840296407335
 40
1.0
 40
1.0
 40
1.0
 40
1.0
 10
54.77482638888912
 20
-24.11623263888833
 30
0.0
 10
54.80532491304569
 20
-24.09783437852951
 30
0.0
 10
54.86701640706411
 20
-24.06061893285582
 30
0.0
 10
54.9462474472912
 20
-23.98178651790808
 30
0.0
 10
55.01338966942338
 20
-23.88569077644391
 30
0.0
 10
55.04785929574469
 20
-23.81299061873558
 30
0.0
 10
55.06562500000022
 20
-23.77552083333277
 30
0.0
  0
SPLINE
  5
13A
330
1F
100
AcDbEntity
  8
0
  6
Continuous
 62
     7
370
    25
100
AcDbSpline
210
0.0
220
0.0
230
1.0
 70
     8
 71
     3
 72
    11
 73
     7
 74
     0
 42
0.00000001
 43
0.00000001
 40
0.0
 40
0.0
 40
0.0
 40
0.0
 40
0.2861169829655843
 40
0.5446058600775597
 40
0.782294265333147
 40
1.0
 40
1.0
 40
1.0
 40
1.0
 10
54.08472222222245
 20
-24.26597222222167
 30
0.0
 10
54.15284695667415
 20
-24.26469967798257
 30
0.0
 10
54.28251814645837
 20
-24.26227746926694
 30
0.0
 10
54.46679955825725
 20
-24.23348983303343
 30
0.0
 10
54.63129460448589
 20
-24.18789898140487
 30
0.0
 10
54.72840282865503
 20
-24.139412220905
 30
0.0
 10
54.77482638888912
 20
-24.11623263888833
 30
0.0
  0
SPLINE
  5
140
330
1F
100
AcDbEntity
  8
0
  6
Continuous
 62
     7
370
    25
100
AcDbSpline
210
0.0
220
0.0
230
1.0
 70
     8
 71
     3
 72
    23
 73
    19
 74
     0
 42
0.00000001
 43
0.00000001
 40
0.0
 40
0.0
 40
0.0
 40
0.0
 40
0.0846548848337132
 40
0.1619950830264002
 40
0.2299951494672512
 40
0.2897913029205968
 40
0.3412642824757858
 40
0.3856016764313392
 40
0.4210869831847758
 40
0.4488544499495158
 40
0.499406856950573
 40
0.5527961492198774
 40
0.6106050382829701
 40
0.6740865255897246
 40
0.744229036415815
 40
0.8213146392637518
 40
0.9058533373917781
 40
1.0
 40
1.0
 40
1.0
 40
1.0
 10
194.3700520833336
 20
-22.87708333333131
 30
0.0
 10
194.3708571336202
 20
-22.93567610097001
 30
0.0
 10
194.3723976730502
 20
-23.04779887187712
 30
0.0
 10
194.3733110715204
 20
-23.20700231819898
 30
0.0
 10
194.3793305019559
 20
-23.34893501691017
 30
0.0
 10
194.391188109366
 20
-23.47248792210658
 30
0.0
 10
194.4015523993465
 20
-23.57967203142408
 30
0.0
 10
194.413034611268
 20
-23.66992758092144
 30
0.0
 10
194.4303784566735
 20
-23.74249704896951
 30
0.0
 10
194.456518977525
 20
-23.81700789412985
 30
0.0
 10
194.5032542888766
 20
-23.89618260033309
 30
0.0
 10
194.5761297702539
 20
-23.98177866518227
 30
0.0
 10
194.6689821024434
 20
-24.05993261789403
 30
0.0
 10
194.7804273513187
 20
-24.13220139722575
 30
0.0
 10
194.9134955987446
 20
-24.19355795021431
 30
0.0
 10
195.0689183952735
 20
-24.23546122128577
 30
0.0
 10
195.2444467404304
 20
-24.26178210396639
 30
0.0
 10
195.3682107306659
 20
-24.26452633018489
 30
0.0
 10
195.4334201388891
 20
-24.2659722222202
 30
0.0
  0
SPLINE
  5
142
330
1F
100
AcDbEntity
  8
0
  6
Continuous
 62
     7
370
    25
100
AcDbSpline
210
0.0
220
0.0
230
1.0
 70
     8
 71
     3
 72
    15
 73
    11
 74
     0
 42
0.00000001
 43
0.00000001
 40
0.0
 40
0.0
 40
0.0
 40
0.0
 40
0.0613943520403137
 40
0.139853862914318
 40
0.2347602763706166
 40
0.3503529954263558
 40
0.484827155322666
 40
0.6382896720196841
 40
0.8083672866041944
 40
0.9999999999999999
 40
0.9999999999999999
 40
0.9999999999999999
 40
0.9999999999999999
 10
194.4503472222224
 20
-15.31197916666464
 30
0.0
 10
194.4432589977968
 20
-15.32916843311914
 30
0.0
 10
194.4271123078463
 20
-15.36832489025945
 30
0.0
 10
194.4151072454496
 20
-15.43854391205798
 30
0.0
 10
194.397699657589
 20
-15.52401763208272
 30
0.0
 10
194.3889153315571
 20
-15.62802532108894
 30
0.0
 10
194.3800537737719
 20
-15.74950888054949
 30
0.0
 10
194.3731463651567
 20
-15.88771919591071
 30
0.0
 10
194.3724219680997
 20
-16.04332111007544
 30
0.0
 10
194.3708728173343
 20
-16.15254845018552
 30
0.0
 10
194.3700520833335
 20
-16.21041666666465
 30
0.0
  0
SPLINE
  5
143
330
1F
100
AcDbEntity
  8
0
  6
Continuous
 62
     7
370
    25
100
AcDbSpline
210
0.0
220
0.0
230
1.0
 70
     8
 71
     3
 72
    11
 73
     7
 74
     0
 42
0.00000001
 43
0.00000001
 40
0.0
 40
0.0
 40
0.0
 40
0.0
 40
0.2322074352791522
 40
0.4697021905392761
 40
0.7270458402700684
 40
0.9999999999999999
 40
0.9999999999999999
 40
0.9999999999999999
 40
0.9999999999999999
 10
194.7454861111113
 20
-14.97126736110908
 30
0.0
 10
194.7149578972781
 20
-14.98964271855616
 30
0.0
 10
194.653206347878
 20
-15.02681183691129
 30
0.0
 10
194.5741452604608
 20
-15.10630737401379
 30
0.0
 10
194.504675693761
 20
-15.20156707812333
 30
0.0
 10
194.4688086550816
 20
-15.27445988254489
 30
0.0
 10
194.4503472222224
 20
-15.31197916666464
 30
0.0
  0
SPLINE
  5
144
330
1F
100
AcDbEntity
  8
0
  6
Continuous
 62
     7
370
    25
100
AcDbSpline
210
0.0
220
0.0
230
1.0
 70
     8
 71
     3
 72
    11
 73
     7
 74
     0
 42
0.00000001
 43
0.00000001
 40
0.0
 40
0.0
 40
0.0
 40
0.0
 40
0.2869538933514271
 40
0.5461988668811778
 40
0.7816574622027759
 40
1.0
 40
1.0
 40
1.0
 40
1.0
 10
195.433420138889
 20
-14.82152777777575
 30
0.0
 10
195.3653031492564
 20
-14.82282692790242
 30
0.0
 10
195.2356467012528
 20
-14.82529977926823
 30
0.0
 10
195.0519529511216
 20
-14.85363871491661
 30
0.0
 10
194.8884372135076
 20
-14.90005960784646
 30
0.0
 10
194.7919230677155
 20
-14.94813587563812
 30
0.0
 10
194.7454861111113
 20
-14.97126736110908
 30
0.0
  0
SPLINE
  5
14A
330
1F
100
AcDbEntity
  8
0
  6
Continuous
 62
     7
370
    25
100
AcDbSpline
210
0.0
220
0.0
230
1.0
 70
     8
 71
     3
 72
    23
 73
    19
 74
     0
 42
0.00000001
 43
0.00000001
 40
0.0
 40
0.0
 40
0.0
 40
0.0
 40
0.0846127534506953
 40
0.1619144606629858
 40
0.2298806845577127
 40
0.2895648750439985
 40
0.3420514708676078
 40
0.385496567400464
 40
0.4217551846928428
 40
0.4495088320332194
 40
0.4986124906573464
 40
0.5519752119292868
 40
0.6097553304323378
 40
0.6732052240175773
 40
0.7433128260372209
 40
0.8203600646127931
 40
0.9048566891820674
 40
1.0
 40
1.0
 40
1.0
 40
1.0
 10
192.0089409722224
 20
-16.21041666666467
 30
0.0
 10
192.0081124951948
 20
-16.15182520409447
 30
0.0
 10
192.0065271264931
 20
-16.03970493055866
 30
0.0
 10
192.0059154649923
 20
-15.88048467492407
 30
0.0
 10
191.9989431011312
 20
-15.73866210150497
 30
0.0
 10
191.9899722381122
 20
-15.61428486089075
 30
0.0
 10
191.9812225259475
 20
-15.50670604449776
 30
0.0
 10
191.9638693484095
 20
-15.41682076910006
 30
0.0
 10
191.951769103612
 20
-15.34316943289245
 30
0.0
 10
191.9245228400693
 20
-15.26938882042421
 30
0.0
 10
191.8799087678695
 20
-15.19033605538729
 30
0.0
 10
191.8070612319089
 20
-15.10579005837737
 30
0.0
 10
191.7143948070599
 20
-15.02754634151832
 30
0.0
 10
191.602892478573
 20
-14.95530512349893
 30
0.0
 10
191.4698418723303
 20
-14.89394004889769
 30
0.0
 10
191.3144138141249
 20
-14.85203933432493
 30
0.0
 10
191.1381698242685
 20
-14.82561053925958
 30
0.0
 10
191.0136780552106
 20
-14.82294142817192
 30
0.0
 10
190.9477430555557
 20
-14.82152777777579
 30
0.0
  0
SPLINE
  5
14C
330
1F
100
AcDbEntity
  8
0
  6
Continuous
 62
     7
370
    25
100
AcDbSpline
210
0.0
220
0.0
230
1.0
 70
     8
 71
     3
 72
    15
 73
    11
 74
     0
 42
0.00000001
 43
0.00000001
 40
0.0
 40
0.0
 40
0.0
 40
0.0
 40
0.0613929564847343
 40
0.1375125657304111
 40
0.2347752365658242
 40
0.3503653280824181
 40
0.4848364312453896
 40
0.6359029609429124
 40
0.8083716426091322
 40
1.0
 40
1.0
 40
1.0
 40
1.0
 10
191.9286458333336
 20
-23.77552083333134
 30
0.0
 10
191.9357014968469
 20
-23.75832518527281
 30
0.0
 10
191.9515053031499
 20
-23.71980907822536
 30
0.0
 10
191.9644760531802
 20
-23.64979865051685
 30
0.0
 10
191.9809607840254
 20
-23.56414226213922
 30
0.0
 10
191.990175329617
 20
-23.45949220308076
 30
0.0
 10
191.998830159327
 20
-23.33870474087277
 30
0.0
 10
192.0059508149595
 20
-23.20050971629368
 30
0.0
 10
192.0065296794858
 20
-23.04490070510312
 30
0.0
 10
192.0081094966965
 20
-22.93495106350855
 30
0.0
 10
192.0089409722225
 20
-22.87708333333134
 30
0.0
  0
SPLINE
  5
14D
330
1F
100
AcDbEntity
  8
0
  6
Continuous
 62
     7
370
    25
100
AcDbSpline
210
0.0
220
0.0
230
1.0
 70
     8
 71
     3
 72
    11
 73
     7
 74
     0
 42
0.00000001
 43
0.00000001
 40
0.0
 40
0.0
 40
0.0
 40
0.0
 40
0.2333588799629157
 40
0.4720312980873994
 40
0.7278840296407114
 40
1.0
 40
1.0
 40
1.0
 40
1.0
 10
191.6378472222225
 20
-24.11623263888689
 30
0.0
 10
191.6683457463791
 20
-24.09783437852807
 30
0.0
 10
191.7300372403975
 20
-24.06061893285441
 30
0.0
 10
191.8092682806245
 20
-23.98178651790665
 30
0.0
 10
191.8764105027567
 20
-23.88569077644247
 30
0.0
 10
191.910880129078
 20
-23.81299061873417
 30
0.0
 10
191.9286458333336
 20
-23.77552083333134
 30
0.0
  0
SPLINE
  5
14E
330
1F
100
AcDbEntity
  8
0
  6
Continuous
 62
     7
370
    25
100
AcDbSpline
210
0.0
220
0.0
230
1.0
 70
     8
 71
     3
 72
    11
 73
     7
 74
     0
 42
0.00000001
 43
0.00000001
 40
0.0
 40
0.0
 40
0.0
 40
0.0
 40
0.2861169829655624
 40
0.5446058600775356
 40
0.7822942653331488
 40
1.0
 40
1.0
 40
1.0
 40
1.0
 10
190.9477430555558
 20
-24.26597222222024
 30
0.0
 10
191.0158677900074
 20
-24.26469967798113
 30
0.0
 10
191.1455389797916
 20
-24.26227746926551
 30
0.0
 10
191.3298203915906
 20
-24.23348983303199
 30
0.0
 10
191.4943154378192
 20
-24.18789898140344
 30
0.0
 10
191.5914236619884
 20
-24.13941222090357
 30
0.0
 10
191.6378472222225
 20
-24.11623263888689
 30
0.0
  0
SPLINE
  5
155
330
1F
100
AcDbEntity
  8
0
  6
Continuous
 62
     7
370
    25
100
AcDbSpline
210
0.0
220
0.0
230
1.0
 70
     8
 71
     3
 72
    15
 73
    11
 74
     0
 42
0.00000001
 43
0.00000001
 40
0.0
 40
0.0
 40
0.0
 40
0.0
 40
0.0613929564847394
 40
0.1375125657304175
 40
0.2347752365658261
 40
0.3503653280824211
 40
0.4848364312453918
 40
0.6359029609429143
 40
0.8083716426091331
 40
1.0
 40
1.0
 40
1.0
 40
1.0
 10
23.77552083333387
 20
-54.53177083333308
 30
0.0
 10
23.75832518527533
 20
-54.52471516981973
 30
0.0
 10
23.71980907822788
 20
-54.50891136351677
 30
0.0
 10
23.64979865051938
 20
-54.49594061348639
 30
0.0
 10
23.56414226214175
 20
-54.47945588264119
 30
0.0
 10
23.45949220308329
 20
-54.47024133704969
 30
0.0
 10
23.33870474087529
 20
-54.46158650733962
 30
0.0
 10
23.2005097162962
 20
-54.45446585170718
 30
0.0
 10
23.04490070510565
 20
-54.45388698718087
 30
0.0
 10
22.93495106351109
 20
-54.4523071699702
 30
0.0
 10
22.87708333333387
 20
-54.45147569444421
 30
0.0
  0
SPLINE
  5
156
330
1F
100
AcDbEntity
  8
0
  6
Continuous
 62
     7
370
    25
100
AcDbSpline
210
0.0
220
0.0
230
1.0
 70
     8
 71
     3
 72
    11
 73
     7
 74
     0
 42
0.00000001
 43
0.00000001
 40
0.0
 40
0.0
 40
0.0
 40
0.0
 40
0.2314173760207623
 40
0.4715064682255987
 40
0.7279745356012703
 40
1.0
 40
1.0
 40
1.0
 40
1.0
 10
24.11623263888943
 20
-54.82907986111086
 30
0.0
 10
24.09773260240816
 20
-54.79866988844057
 30
0.0
 10
24.06003929253957
 20
-54.73671041478669
 30
0.0
 10
23.98201520603297
 20
-54.6554971591902
 30
0.0
 10
23.88582317810106
 20
-54.58620398884218
 30
0.0
 10
23.81300282527035
 20
-54.5502678389967
 30
0.0
 10
23.77552083333387
 20
-54.53177083333308
 30
0.0
  0
SPLINE
  5
157
330
1F
100
AcDbEntity
  8
0
  6
Continuous
 62
     7
370
    25
100
AcDbSpline
210
0.0
220
0.0
230
1.0
 70
     8
 71
     3
 72
    11
 73
     7
 74
     0
 42
0.00000001
 43
0.00000001
 40
0.0
 40
0.0
 40
0.0
 40
0.0
 40
0.2882080720009341
 40
0.5488460085300092
 40
0.7857557768990997
 40
1.0
 40
1.0
 40
1.0
 40
1.0
 10
24.26597222222276
 20
-55.52135416666642
 30
0.0
 10
24.2646880072831
 20
-55.4525074976446
 30
0.0
 10
24.26224242607908
 20
-55.32140006810288
 30
0.0
 10
24.23367520750003
 20
-55.13565639489185
 30
0.0
 10
24.18833749062484
 20
-54.97095155971918
 30
0.0
 10
24.13944888384406
 20
-54.8747595626531
 30
0.0
 10
24.11623263888943
 20
-54.82907986111086
 30
0.0
  0
SPLINE
  5
15D
330
1F
100
AcDbEntity
  8
0
  6
Continuous
 62
     7
370
    25
100
AcDbSpline
210
0.0
220
0.0
230
1.0
 70
     8
 71
     3
 72
    23
 73
    19
 74
     0
 42
0.00000001
 43
0.00000001
 40
0.0
 40
0.0
 40
0.0
 40
0.0
 40
0.0843141062804717
 40
0.1613429712181515
 40
0.2290693031390449
 40
0.2885428337204229
 40
0.3398086086052809
 40
0.3841266980766241
 40
0.4192385114039472
 40
0.4468942001281175
 40
0.4967349026520984
 40
0.5499092761271193
 40
0.6082796470047375
 40
0.6723819376882832
 40
0.7431893630147673
 40
0.8199646574821965
 40
0.9051925047581172
 40
1.0
 40
1.0
 40
1.0
 40
1.0
 10
22.87708333333384
 20
-52.09036458333309
 30
0.0
 10
22.93567454199257
 20
-52.08953416476976
 30
0.0
 10
23.0477943296449
 20
-52.08794508075674
 30
0.0
 10
23.20701785566515
 20
-52.08735842628223
 30
0.0
 10
23.34883007452822
 20
-52.08030688623745
 30
0.0
 10
23.47252151091783
 20
-52.07163050838119
 30
0.0
 10
23.57999706981959
 20
-52.06215936439454
 30
0.0
 10
23.66933118852551
 20
-52.04584691100904
 30
0.0
 10
23.74283251711848
 20
-52.03288756659572
 30
0.0
 10
23.81644820755274
 20
-52.00558878350982
 30
0.0
 10
23.89680588344571
 20
-51.96202838210572
 30
0.0
 10
23.98234901638777
 20
-51.88826184359656
 30
0.0
 10
24.05985315564035
 20
-51.79345859356768
 30
0.0
 10
24.13224848693491
 20
-51.67992109581131
 30
0.0
 10
24.19309455595856
 20
-51.54527642936124
 30
0.0
 10
24.23580845393804
 20
-51.3886797651238
 30
0.0
 10
24.26169702594372
 20
-51.21159722935816
 30
0.0
 10
24.26449748613652
 20
-51.08641021006716
 30
0.0
 10
24.26597222222271
 20
-51.02048611111086
 30
0.0
  0
SPLINE
  5
15F
330
1F
100
AcDbEntity
  8
0
  6
Continuous
 62
     7
370
    25
100
AcDbSpline
210
0.0
220
0.0
230
1.0
 70
     8
 71
     3
 72
    15
 73
    11
 74
     0
 42
0.00000001
 43
0.00000001
 40
0.0
 40
0.0
 40
0.0
 40
0.0
 40
0.0613943520403113
 40
0.1398538629143161
 40
0.2347602763706166
 40
0.3503529954263558
 40
0.4848271553226699
 40
0.6382896720196859
 40
0.8083672866041931
 40
1.0
 40
1.0
 40
1.0
 40
1.0
 10
15.31197916666717
 20
-52.01006944444428
 30
0.0
 10
15.32916843312165
 20
-52.01715766886979
 30
0.0
 10
15.36832489026199
 20
-52.03330435882035
 30
0.0
 10
15.4385439120605
 20
-52.04530942121715
 30
0.0
 10
15.52401763208525
 20
-52.06271700907755
 30
0.0
 10
15.62802532109148
 20
-52.07150133510961
 30
0.0
 10
15.74950888055202
 20
-52.08036289289474
 30
0.0
 10
15.88771919591322
 20
-52.08727030150996
 30
0.0
 10
16.04332111007796
 20
-52.08799469856698
 30
0.0
 10
16.15254845018804
 20
-52.08954384933234
 30
0.0
 10
16.21041666666717
 20
-52.09036458333317
 30
0.0
  0
SPLINE
  5
160
330
1F
100
AcDbEntity
  8
0
  6
Continuous
 62
     7
370
    25
100
AcDbSpline
210
0.0
220
0.0
230
1.0
 70
     8
 71
     3
 72
    11
 73
     7
 74
     0
 42
0.00000001
 43
0.00000001
 40
0.0
 40
0.0
 40
0.0
 40
0.0
 40
0.231417376020764
 40
0.4715064682255886
 40
0.7279745356012683
 40
1.0
 40
1.0
 40
1.0
 40
1.0
 10
14.97126736111161
 20
-51.71276041666651
 30
0.0
 10
14.98976739759288
 20
-51.7431703893368
 30
0.0
 10
15.02746070746146
 20
-51.80512986299068
 30
0.0
 10
15.10548479396807
 20
-51.88634311858719
 30
0.0
 10
15.20167682189996
 20
-51.95563628893515
 30
0.0
 10
15.27449717473069
 20
-51.99157243878066
 30
0.0
 10
15.31197916666717
 20
-52.01006944444428
 30
0.0
  0
SPLINE
  5
161
330
1F
100
AcDbEntity
  8
0
  6
Continuous
 62
     7
370
    25
100
AcDbSpline
210
0.0
220
0.0
230
1.0
 70
     8
 71
     3
 72
    11
 73
     7
 74
     0
 42
0.00000001
 43
0.00000001
 40
0.0
 40
0.0
 40
0.0
 40
0.0
 40
0.288208072000941
 40
0.5488460085300136
 40
0.7857557768990918
 40
0.9999999999999999
 40
0.9999999999999999
 40
0.9999999999999999
 40
0.9999999999999999
 10
14.82152777777827
 20
-51.02048611111096
 30
0.0
 10
14.82281199271793
 20
-51.08933278013279
 30
0.0
 10
14.82525757392195
 20
-51.22044020967451
 30
0.0
 10
14.853824792501
 20
-51.4061838828855
 30
0.0
 10
14.8991625093762
 20
-51.57088871805823
 30
0.0
 10
14.94805111615698
 20
-51.66708071512428
 30
0.0
 10
14.97126736111161
 20
-51.71276041666651
 30
0.0
  0
SPLINE
  5
167
330
1F
100
AcDbEntity
  8
0
  6
Continuous
 62
     7
370
    25
100
AcDbSpline
210
0.0
220
0.0
230
1.0
 70
     8
 71
     3
 72
    23
 73
    19
 74
     0
 42
0.00000001
 43
0.00000001
 40
0.0
 40
0.0
 40
0.0
 40
0.0
 40
0.0843041839166355
 40
0.1613239838418559
 40
0.2290423455032487
 40
0.288508877042177
 40
0.3408040624251953
 40
0.3840907214572286
 40
0.4202171092193391
 40
0.4478695433302811
 40
0.4967941285589168
 40
0.5499622442971986
 40
0.6083257459558641
 40
0.6724204928691059
 40
0.7432195853427958
 40
0.8199858446387783
 40
0.9052036620187902
 40
1.0
 40
1.0
 40
1.0
 40
1.0
 10
16.2104166666672
 20
-54.45147569444428
 30
0.0
 10
16.15182520518252
 20
-54.45230417242365
 30
0.0
 10
16.03970493372396
 20
-54.4538895429468
 30
0.0
 10
15.88048466410781
 20
-54.45450119218792
 30
0.0
 10
15.7386621349565
 20
-54.46147359486516
 30
0.0
 10
15.61428475784266
 20
-54.4704443381946
 30
0.0
 10
15.50670635522697
 20
-54.47919441317956
 30
0.0
 10
15.41681989029804
 20
-54.49654654767818
 30
0.0
 10
15.34317186829363
 20
-54.50864969853178
 30
0.0
 10
15.26937988657614
 20
-54.53588599295897
 30
0.0
 10
15.1904022319321
 20
-54.5805659256356
 30
0.0
 10
15.10509253865871
 20
-54.65347484558676
 30
0.0
 10
15.02766483834669
 20
-54.74841357698345
 30
0.0
 10
14.95524593339449
 20
-54.86190929248384
 30
0.0
 10
14.8944071410463
 20
-54.99656685620768
 30
0.0
 10
14.85169102223248
 20
-55.15315958420959
 30
0.0
 10
14.82580312863828
 20
-55.3302433224005
 30
0.0
 10
14.82300256718748
 20
-55.45543016222051
 30
0.0
 10
14.82152777777831
 20
-55.52135416666652
 30
0.0
  0
SPLINE
  5
16B
330
1F
100
AcDbEntity
  8
0
  6
Continuous
 62
     7
370
    25
100
AcDbSpline
210
0.0
220
0.0
230
1.0
 70
     8
 71
     3
 72
    15
 73
    11
 74
     0
 42
0.00000001
 43
0.00000001
 40
0.0
 40
0.0
 40
0.0
 40
0.0
 40
0.0613943520403088
 40
0.1398538629143153
 40
0.2347602763706147
 40
0.3503529954263541
 40
0.484827155322669
 40
0.6382896720196851
 40
0.8083672866041928
 40
1.0
 40
1.0
 40
1.0
 40
1.0
 10
15.31197916666724
 20
-57.98229166666652
 30
0.0
 10
15.32916843312174
 20
-57.98937989109202
 30
0.0
 10
15.36832489026205
 20
-58.00552658104257
 30
0.0
 10
15.43854391206055
 20
-58.01753164343938
 30
0.0
 10
15.52401763208533
 20
-58.0349392312998
 30
0.0
 10
15.62802532109152
 20
-58.04372355733179
 30
0.0
 10
15.74950888055209
 20
-58.05258511511701
 30
0.0
 10
15.88771919591328
 20
-58.05949252373214
 30
0.0
 10
16.04332111007801
 20
-58.06021692078921
 30
0.0
 10
16.1525484501881
 20
-58.06176607155456
 30
0.0
 10
16.21041666666723
 20
-58.06258680555539
 30
0.0
  0
SPLINE
  5
16C
330
1F
100
AcDbEntity
  8
0
  6
Continuous
 62
     7
370
    25
100
AcDbSpline
210
0.0
220
0.0
230
1.0
 70
     8
 71
     3
 72
    11
 73
     7
 74
     0
 42
0.00000001
 43
0.00000001
 40
0.0
 40
0.0
 40
0.0
 40
0.0
 40
0.2322074352791609
 40
0.4697021905392589
 40
0.7270458402700734
 40
1.0
 40
1.0
 40
1.0
 40
1.0
 10
14.97126736111168
 20
-57.68715277777763
 30
0.0
 10
14.98964271855875
 20
-57.71768099161079
 30
0.0
 10
15.02681183691387
 20
-57.7794325410108
 30
0.0
 10
15.10630737401639
 20
-57.85849362842816
 30
0.0
 10
15.20156707812591
 20
-57.92796319512786
 30
0.0
 10
15.27445988254747
 20
-57.96383023380729
 30
0.0
 10
15.31197916666724
 20
-57.98229166666651
 30
0.0
  0
SPLINE
  5
16D
330
1F
100
AcDbEntity
  8
0
  6
Continuous
 62
     7
370
    25
100
AcDbSpline
210
0.0
220
0.0
230
1.0
 70
     8
 71
     3
 72
    11
 73
     7
 74
     0
 42
0.00000001
 43
0.00000001
 40
0.0
 40
0.0
 40
0.0
 40
0.0
 40
0.2869538933514394
 40
0.5461988668811925
 40
0.781657462202774
 40
1.0
 40
1.0
 40
1.0
 40
1.0
 10
14.82152777777833
 20
-56.99921874999985
 30
0.0
 10
14.82282692790501
 20
-57.06733573963251
 30
0.0
 10
14.82529977927083
 20
-57.19699218763604
 30
0.0
 10
14.8536387149192
 20
-57.38068593776733
 30
0.0
 10
14.90005960784906
 20
-57.54420167538126
 30
0.0
 10
14.9481358756407
 20
-57.64071582117338
 30
0.0
 10
14.97126736111168
 20
-57.68715277777762
 30
0.0
  0
SPLINE
  5
173
330
1F
100
AcDbEntity
  8
0
  6
Continuous
 62
     7
370
    25
100
AcDbSpline
210
0.0
220
0.0
230
1.0
 70
     8
 71
     3
 72
    23
 73
    19
 74
     0
 42
0.00000001
 43
0.00000001
 40
0.0
 40
0.0
 40
0.0
 40
0.0
 40
0.0846127534506954
 40
0.1619144606629827
 40
0.2298806845577117
 40
0.2895648750439976
 40
0.3420514708676081
 40
0.3854965674004627
 40
0.4217551846928417
 40
0.4495088320332217
 40
0.4986124906573488
 40
0.5519752119292828
 40
0.609755330432334
 40
0.6732052240175793
 40
0.7433128260372232
 40
0.8203600646127892
 40
0.9048566891820637
 40
1.0
 40
1.0
 40
1.0
 40
1.0
 10
16.21041666666725
 20
-60.42369791666651
 30
0.0
 10
16.15182520409705
 20
-60.42452639369403
 30
0.0
 10
16.03970493056124
 20
-60.42611176239572
 30
0.0
 10
15.88048467492666
 20
-60.42672342389658
 30
0.0
 10
15.73866210150755
 20
-60.43369578775766
 30
0.0
 10
15.61428486089333
 20
-60.44266665077664
 30
0.0
 10
15.50670604450037
 20
-60.45141636294142
 30
0.0
 10
15.41682076910264
 20
-60.46876954047934
 30
0.0
 10
15.34316943289503
 20
-60.48086978527697
 30
0.0
 10
15.26938882042679
 20
-60.50811604881962
 30
0.0
 10
15.19033605538988
 20
-60.55273012101938
 30
0.0
 10
15.10579005837995
 20
-60.62557765697997
 30
0.0
 10
15.0275463415209
 20
-60.71824408182898
 30
0.0
 10
14.95530512350152
 20
-60.82974641031581
 30
0.0
 10
14.89394004890028
 20
-60.96279701655858
 30
0.0
 10
14.85203933432751
 20
-61.11822507476394
 30
0.0
 10
14.82561053926216
 20
-61.29446906462035
 30
0.0
 10
14.82294142817452
 20
-61.41896083367831
 30
0.0
 10
14.82152777777838
 20
-61.48489583333319
 30
0.0
  0
SPLINE
  5
175
330
1F
100
AcDbEntity
  8
0
  6
Continuous
 62
     7
370
    25
100
AcDbSpline
210
0.0
220
0.0
230
1.0
 70
     8
 71
     3
 72
    15
 73
    11
 74
     0
 42
0.00000001
 43
0.00000001
 40
0.0
 40
0.0
 40
0.0
 40
0.0
 40
0.0613929564847419
 40
0.1375125657304183
 40
0.2347752365658268
 40
0.3503653280824223
 40
0.4848364312453928
 40
0.6359029609429151
 40
0.8083716426091335
 40
1.0
 40
1.0
 40
1.0
 40
1.0
 10
23.77552083333392
 20
-60.50399305555531
 30
0.0
 10
23.7583251852754
 20
-60.49693739204196
 30
0.0
 10
23.71980907822795
 20
-60.48113358573897
 30
0.0
 10
23.64979865051943
 20
-60.46816283570862
 30
0.0
 10
23.5641422621418
 20
-60.45167810486339
 30
0.0
 10
23.45949220308335
 20
-60.44246355927189
 30
0.0
 10
23.33870474087535
 20
-60.43380872956183
 30
0.0
 10
23.20050971629628
 20
-60.42668807392942
 30
0.0
 10
23.04490070510572
 20
-60.42610920940308
 30
0.0
 10
22.93495106351115
 20
-60.42452939219241
 30
0.0
 10
22.87708333333392
 20
-60.42369791666643
 30
0.0
  0
SPLINE
  5
176
330
1F
100
AcDbEntity
  8
0
  6
Continuous
 62
     7
370
    25
100
AcDbSpline
210
0.0
220
0.0
230
1.0
 70
     8
 71
     3
 72
    11
 73
     7
 74
     0
 42
0.00000001
 43
0.00000001
 40
0.0
 40
0.0
 40
0.0
 40
0.0
 40
0.2333588799629269
 40
0.4720312980874307
 40
0.727884029640741
 40
1.0
 40
1.0
 40
1.0
 40
1.0
 10
24.11623263888949
 20
-60.79479166666643
 30
0.0
 10
24.09783437853066
 20
-60.76429314250985
 30
0.0
 10
24.06061893285699
 20
-60.70260164849143
 30
0.0
 10
23.98178651790922
 20
-60.62337060826428
 30
0.0
 10
23.88569077644506
 20
-60.55622838613218
 30
0.0
 10
23.81299061873675
 20
-60.52175875981085
 30
0.0
 10
23.77552083333392
 20
-60.50399305555531
 30
0.0
  0
SPLINE
  5
177
330
1F
100
AcDbEntity
  8
0
  6
Continuous
 62
     7
370
    25
100
AcDbSpline
210
0.0
220
0.0
230
1.0
 70
     8
 71
     3
 72
    11
 73
     7
 74
     0
 42
0.00000001
 43
0.00000001
 40
0.0
 40
0.0
 40
0.0
 40
0.0
 40
0.2861169829655843
 40
0.5446058600775597
 40
0.782294265333147
 40
1.0
 40
1.0
 40
1.0
 40
1.0
 10
24.26597222222282
 20
-61.48489583333308
 30
0.0
 10
24.26469967798372
 20
-61.4167710988814
 30
0.0
 10
24.2622774692681
 20
-61.28709990909718
 30
0.0
 10
24.23348983303458
 20
-61.1028184972983
 30
0.0
 10
24.18789898140603
 20
-60.93832345106961
 30
0.0
 10
24.13941222090615
 20
-60.84121522690049
 30
0.0
 10
24.11623263888949
 20
-60.79479166666643
 30
0.0
  0
SPLINE
  5
17D
330
1F
100
AcDbEntity
  8
0
  6
Continuous
 62
     7
370
    25
100
AcDbSpline
210
0.0
220
0.0
230
1.0
 70
     8
 71
     3
 72
    23
 73
    19
 74
     0
 42
0.00000001
 43
0.00000001
 40
0.0
 40
0.0
 40
0.0
 40
0.0
 40
0.0847108085239086
 40
0.1621020982666209
 40
0.2301470860921785
 40
0.2899827413600636
 40
0.3414897243749195
 40
0.3860163327560117
 40
0.4215250813853101
 40
0.4493108915594319
 40
0.4998966938826105
 40
0.5526518129057076
 40
0.6112968194059836
 40
0.6748202430881399
 40
0.7440600720830859
 40
0.8211965982933321
 40
0.9057911433576917
 40
1.0
 40
1.0
 40
1.0
 40
1.0
 10
22.87708333333391
 20
-58.06258680555532
 30
0.0
 10
22.93567660436401
 20
-58.0617850440555
 30
0.0
 10
23.04780033855788
 20
-58.06025079802839
 30
0.0
 10
23.20699730118685
 20
-58.05929503990728
 30
0.0
 10
23.34895053652448
 20
-58.05340978059014
 30
0.0
 10
23.47244042666225
 20
-58.0411404794236
 30
0.0
 10
23.57992427574618
 20
-58.03200460275975
 30
0.0
 10
23.66973208754625
 20
-58.01686288633846
 30
0.0
 10
23.74249861645503
 20
-58.00018138142958
 30
0.0
 10
23.81705822945954
 20
-57.97396515283184
 30
0.0
 10
23.89534689177295
 20
-57.92697357225997
 30
0.0
 10
23.98327190297153
 20
-57.85660544412417
 30
0.0
 10
24.05909658498334
 20
-57.76142921655708
 30
0.0
 10
24.13177859736465
 20
-57.65064806409517
 30
0.0
 10
24.19404743321538
 20
-57.51862624252244
 30
0.0
 10
24.23536333896289
 20
-57.3636838836059
 30
0.0
 10
24.26181089018194
 20
-57.18820291509619
 30
0.0
 10
24.26453626350046
 20
-57.06443187348696
 30
0.0
 10
24.26597222222278
 20
-56.99921874999975
 30
0.0
  0
SPLINE
  5
180
330
1F
100
AcDbEntity
  8
0
  6
Continuous
 62
     7
370
    25
100
AcDbSpline
210
0.0
220
0.0
230
1.0
 70
     8
 71
     3
 72
    23
 73
    19
 74
     0
 42
0.00000001
 43
0.00000001
 40
0.0
 40
0.0
 40
0.0
 40
0.0
 40
0.0846548848337132
 40
0.1619950830264002
 40
0.2299951494672512
 40
0.2897913029205968
 40
0.3412642824757858
 40
0.3856016764313392
 40
0.4210869831847758
 40
0.4488544499495158
 40
0.499406856950573
 40
0.5527961492198774
 40
0.6106050382829701
 40
0.6740865255897246
 40
0.744229036415815
 40
0.8213146392637518
 40
0.9058533373917781
 40
1.0
 40
1.0
 40
1.0
 40
1.0
 10
146.5268229166668
 20
-22.87708333333181
 30
0.0
 10
146.5276279669534
 20
-22.93567610097051
 30
0.0
 10
146.5291685063834
 20
-23.04779887187762
 30
0.0
 10
146.5300819048537
 20
-23.20700231819949
 30
0.0
 10
146.5361013352891
 20
-23.34893501691067
 30
0.0
 10
146.5479589426993
 20
-23.47248792210707
 30
0.0
 10
146.5583232326797
 20
-23.57967203142458
 30
0.0
 10
146.5698054446013
 20
-23.66992758092194
 30
0.0
 10
146.5871492900068
 20
-23.74249704897001
 30
0.0
 10
146.6132898108582
 20
-23.81700789413034
 30
0.0
 10
146.6600251222099
 20
-23.89618260033358
 30
0.0
 10
146.7329006035872
 20
-23.98177866518277
 30
0.0
 10
146.8257529357766
 20
-24.05993261789453
 30
0.0
 10
146.9371981846519
 20
-24.13220139722623
 30
0.0
 10
147.070266432078
 20
-24.19355795021481
 30
0.0
 10
147.2256892286067
 20
-24.23546122128625
 30
0.0
 10
147.4012175737636
 20
-24.26178210396689
 30
0.0
 10
147.5249815639992
 20
-24.26452633018539
 30
0.0
 10
147.5901909722224
 20
-24.2659722222207
 30
0.0
  0
SPLINE
  5
182
330
1F
100
AcDbEntity
  8
0
  6
Continuous
 62
     7
370
    25
100
AcDbSpline
210
0.0
220
0.0
230
1.0
 70
     8
 71
     3
 72
    15
 73
    11
 74
     0
 42
0.00000001
 43
0.00000001
 40
0.0
 40
0.0
 40
0.0
 40
0.0
 40
0.0613943520403139
 40
0.1398538629143185
 40
0.2347602763706175
 40
0.3503529954263572
 40
0.4848271553226717
 40
0.6382896720196867
 40
0.8083672866041938
 40
1.0
 40
1.0
 40
1.0
 40
1.0
 10
146.6071180555556
 20
-15.31197916666514
 30
0.0
 10
146.6000298311301
 20
-15.32916843311964
 30
0.0
 10
146.5838831411796
 20
-15.36832489025995
 30
0.0
 10
146.5718780787828
 20
-15.43854391205847
 30
0.0
 10
146.5544704909224
 20
-15.52401763208323
 30
0.0
 10
146.5456861648903
 20
-15.62802532108944
 30
0.0
 10
146.5368246071052
 20
-15.74950888054999
 30
0.0
 10
146.5299171984899
 20
-15.88771919591121
 30
0.0
 10
146.5291928014329
 20
-16.04332111007593
 30
0.0
 10
146.5276436506676
 20
-16.15254845018602
 30
0.0
 10
146.5268229166668
 20
-16.21041666666515
 30
0.0
  0
SPLINE
  5
183
330
1F
100
AcDbEntity
  8
0
  6
Continuous
 62
     7
370
    25
100
AcDbSpline
210
0.0
220
0.0
230
1.0
 70
     8
 71
     3
 72
    11
 73
     7
 74
     0
 42
0.00000001
 43
0.00000001
 40
0.0
 40
0.0
 40
0.0
 40
0.0
 40
0.2322074352791522
 40
0.4697021905392761
 40
0.7270458402700684
 40
0.9999999999999999
 40
0.9999999999999999
 40
0.9999999999999999
 40
0.9999999999999999
 10
146.9022569444445
 20
-14.97126736110958
 30
0.0
 10
146.8717287306114
 20
-14.98964271855666
 30
0.0
 10
146.8099771812113
 20
-15.02681183691179
 30
0.0
 10
146.730916093794
 20
-15.10630737401429
 30
0.0
 10
146.6614465270943
 20
-15.20156707812383
 30
0.0
 10
146.6255794884148
 20
-15.27445988254537
 30
0.0
 10
146.6071180555556
 20
-15.31197916666514
 30
0.0
  0
SPLINE
  5
184
330
1F
100
AcDbEntity
  8
0
  6
Continuous
 62
     7
370
    25
100
AcDbSpline
210
0.0
220
0.0
230
1.0
 70
     8
 71
     3
 72
    11
 73
     7
 74
     0
 42
0.00000001
 43
0.00000001
 40
0.0
 40
0.0
 40
0.0
 40
0.0
 40
0.2869538933514271
 40
0.5461988668811778
 40
0.7816574622027759
 40
1.0
 40
1.0
 40
1.0
 40
1.0
 10
147.5901909722223
 20
-14.82152777777625
 30
0.0
 10
147.5220739825896
 20
-14.82282692790292
 30
0.0
 10
147.3924175345861
 20
-14.82529977926873
 30
0.0
 10
147.2087237844549
 20
-14.85363871491711
 30
0.0
 10
147.0452080468409
 20
-14.90005960784696
 30
0.0
 10
146.9486939010488
 20
-14.94813587563862
 30
0.0
 10
146.9022569444445
 20
-14.97126736110958
 30
0.0
  0
SPLINE
  5
18A
330
1F
100
AcDbEntity
  8
0
  6
Continuous
 62
     7
370
    25
100
AcDbSpline
210
0.0
220
0.0
230
1.0
 70
     8
 71
     3
 72
    23
 73
    19
 74
     0
 42
0.00000001
 43
0.00000001
 40
0.0
 40
0.0
 40
0.0
 40
0.0
 40
0.0846127534506954
 40
0.1619144606629827
 40
0.2298806845577114
 40
0.2895648750439973
 40
0.3420514708676067
 40
0.385496567400463
 40
0.4217551846928418
 40
0.4495088320332185
 40
0.4986124906573455
 40
0.551975211929286
 40
0.6097553304323371
 40
0.6732052240175768
 40
0.7433128260372205
 40
0.8203600646127928
 40
0.9048566891820673
 40
1.0
 40
1.0
 40
1.0
 40
1.0
 10
144.1657118055556
 20
-16.21041666666517
 30
0.0
 10
144.1648833285281
 20
-16.15182520409496
 30
0.0
 10
144.1632979598264
 20
-16.03970493055916
 30
0.0
 10
144.1626862983256
 20
-15.88048467492457
 30
0.0
 10
144.1557139344644
 20
-15.73866210150547
 30
0.0
 10
144.1467430714455
 20
-15.61428486089124
 30
0.0
 10
144.1379933592808
 20
-15.50670604449827
 30
0.0
 10
144.1206401817428
 20
-15.41682076910056
 30
0.0
 10
144.1085399369452
 20
-15.34316943289295
 30
0.0
 10
144.0812936734025
 20
-15.26938882042471
 30
0.0
 10
144.0366796012028
 20
-15.19033605538779
 30
0.0
 10
143.9638320652422
 20
-15.10579005837788
 30
0.0
 10
143.8711656403932
 20
-15.02754634151882
 30
0.0
 10
143.7596633119064
 20
-14.95530512349944
 30
0.0
 10
143.6266127056636
 20
-14.89394004889819
 30
0.0
 10
143.4711846474582
 20
-14.85203933432541
 30
0.0
 10
143.2949406576018
 20
-14.82561053926008
 30
0.0
 10
143.1704488885439
 20
-14.82294142817242
 30
0.0
 10
143.104513888889
 20
-14.82152777777629
 30
0.0
  0
SPLINE
  5
18C
330
1F
100
AcDbEntity
  8
0
  6
Continuous
 62
     7
370
    25
100
AcDbSpline
210
0.0
220
0.0
230
1.0
 70
     8
 71
     3
 72
    15
 73
    11
 74
     0
 42
0.00000001
 43
0.00000001
 40
0.0
 40
0.0
 40
0.0
 40
0.0
 40
0.0613929564847343
 40
0.1375125657304111
 40
0.2347752365658242
 40
0.3503653280824181
 40
0.4848364312453896
 40
0.6359029609429124
 40
0.8083716426091322
 40
1.0
 40
1.0
 40
1.0
 40
1.0
 10
144.0854166666668
 20
-23.77552083333184
 30
0.0
 10
144.0924723301802
 20
-23.75832518527331
 30
0.0
 10
144.1082761364831
 20
-23.71980907822586
 30
0.0
 10
144.1212468865135
 20
-23.64979865051735
 30
0.0
 10
144.1377316173587
 20
-23.56414226213972
 30
0.0
 10
144.1469461629503
 20
-23.45949220308126
 30
0.0
 10
144.1556009926602
 20
-23.33870474087327
 30
0.0
 10
144.1627216482928
 20
-23.20050971629419
 30
0.0
 10
144.1633005128191
 20
-23.04490070510362
 30
0.0
 10
144.1648803300298
 20
-22.93495106350907
 30
0.0
 10
144.1657118055557
 20
-22.87708333333184
 30
0.0
  0
SPLINE
  5
18D
330
1F
100
AcDbEntity
  8
0
  6
Continuous
 62
     7
370
    25
100
AcDbSpline
210
0.0
220
0.0
230
1.0
 70
     8
 71
     3
 72
    11
 73
     7
 74
     0
 42
0.00000001
 43
0.00000001
 40
0.0
 40
0.0
 40
0.0
 40
0.0
 40
0.2333588799629157
 40
0.4720312980873994
 40
0.7278840296407114
 40
1.0
 40
1.0
 40
1.0
 40
1.0
 10
143.7946180555557
 20
-24.11623263888739
 30
0.0
 10
143.8251165797123
 20
-24.09783437852857
 30
0.0
 10
143.8868080737308
 20
-24.0606189328549
 30
0.0
 10
143.9660391139578
 20
-23.98178651790714
 30
0.0
 10
144.0331813360899
 20
-23.88569077644297
 30
0.0
 10
144.0676509624113
 20
-23.81299061873465
 30
0.0
 10
144.0854166666668
 20
-23.77552083333184
 30
0.0
  0
SPLINE
  5
18E
330
1F
100
AcDbEntity
  8
0
  6
Continuous
 62
     7
370
    25
100
AcDbSpline
210
0.0
220
0.0
230
1.0
 70
     8
 71
     3
 72
    11
 73
     7
 74
     0
 42
0.00000001
 43
0.00000001
 40
0.0
 40
0.0
 40
0.0
 40
0.0
 40
0.2861169829655624
 40
0.5446058600775356
 40
0.7822942653331488
 40
1.0
 40
1.0
 40
1.0
 40
1.0
 10
143.1045138888891
 20
-24.26597222222074
 30
0.0
 10
143.1726386233407
 20
-24.26469967798163
 30
0.0
 10
143.3023098131249
 20
-24.262277469266
 30
0.0
 10
143.4865912249238
 20
-24.23348983303249
 30
0.0
 10
143.6510862711525
 20
-24.18789898140394
 30
0.0
 10
143.7481944953216
 20
-24.13941222090406
 30
0.0
 10
143.7946180555557
 20
-24.11623263888739
 30
0.0
  0
SPLINE
  5
194
330
1F
100
AcDbEntity
  8
0
  6
Continuous
 62
     7
370
    25
100
AcDbSpline
210
0.0
220
0.0
230
1.0
 70
     8
 71
     3
 72
    23
 73
    19
 74
     0
 42
0.00000001
 43
0.00000001
 40
0.0
 40
0.0
 40
0.0
 40
0.0
 40
0.0846548848337132
 40
0.1619950830264
 40
0.2299951494672509
 40
0.2897913029205963
 40
0.3412642824757846
 40
0.3856016764313388
 40
0.4210869831847754
 40
0.4488544499495131
 40
0.4994068569505768
 40
0.5527961492198724
 40
0.610605038282965
 40
0.6740865255897248
 40
0.7442290364158151
 40
0.8213146392637454
 40
0.9058533373917714
 40
1.0
 40
1.0
 40
1.0
 40
1.0
 10
102.0169270833335
 20
-22.87708333333228
 30
0.0
 10
102.0177321336201
 20
-22.93567610097098
 30
0.0
 10
102.0192726730501
 20
-23.04779887187809
 30
0.0
 10
102.0201860715204
 20
-23.20700231819996
 30
0.0
 10
102.0262055019558
 20
-23.34893501691114
 30
0.0
 10
102.038063109366
 20
-23.47248792210754
 30
0.0
 10
102.0484273993464
 20
-23.57967203142505
 30
0.0
 10
102.059909611268
 20
-23.66992758092242
 30
0.0
 10
102.0772534566735
 20
-23.74249704897048
 30
0.0
 10
102.1033939775249
 20
-23.81700789413081
 30
0.0
 10
102.1501292888767
 20
-23.89618260033403
 30
0.0
 10
102.2230047702538
 20
-23.98177866518324
 30
0.0
 10
102.3158571024433
 20
-24.059932617895
 30
0.0
 10
102.4273023513187
 20
-24.1322013972267
 30
0.0
 10
102.5603705987447
 20
-24.19355795021529
 30
0.0
 10
102.7157933952734
 20
-24.23546122128674
 30
0.0
 10
102.8913217404303
 20
-24.26178210396736
 30
0.0
 10
103.0150857306659
 20
-24.26452633018586
 30
0.0
 10
103.0802951388891
 20
-24.26597222222115
 30
0.0
  0
SPLINE
  5
196
330
1F
100
AcDbEntity
  8
0
  6
Continuous
 62
     7
370
    25
100
AcDbSpline
210
0.0
220
0.0
230
1.0
 70
     8
 71
     3
 72
    15
 73
    11
 74
     0
 42
0.00000001
 43
0.00000001
 40
0.0
 40
0.0
 40
0.0
 40
0.0
 40
0.0613943520403139
 40
0.1398538629143184
 40
0.2347602763706175
 40
0.3503529954263572
 40
0.4848271553226716
 40
0.6382896720196866
 40
0.8083672866041933
 40
1.0
 40
1.0
 40
1.0
 40
1.0
 10
102.0972222222223
 20
-15.31197916666562
 30
0.0
 10
102.0901339977968
 20
-15.32916843312011
 30
0.0
 10
102.0739873078463
 20
-15.36832489026042
 30
0.0
 10
102.0619822454494
 20
-15.43854391205894
 30
0.0
 10
102.044574657589
 20
-15.52401763208369
 30
0.0
 10
102.035790331557
 20
-15.62802532108991
 30
0.0
 10
102.0269287737718
 20
-15.74950888055045
 30
0.0
 10
102.0200213651567
 20
-15.88771919591168
 30
0.0
 10
102.0192969680996
 20
-16.04332111007641
 30
0.0
 10
102.0177478173343
 20
-16.15254845018647
 30
0.0
 10
102.0169270833334
 20
-16.2104166666656
 30
0.0
  0
SPLINE
  5
197
330
1F
100
AcDbEntity
  8
0
  6
Continuous
 62
     7
370
    25
100
AcDbSpline
210
0.0
220
0.0
230
1.0
 70
     8
 71
     3
 72
    11
 73
     7
 74
     0
 42
0.00000001
 43
0.00000001
 40
0.0
 40
0.0
 40
0.0
 40
0.0
 40
0.2322074352791532
 40
0.4697021905392564
 40
0.7270458402700675
 40
1.0
 40
1.0
 40
1.0
 40
1.0
 10
102.3923611111112
 20
-14.97126736111005
 30
0.0
 10
102.3618328972781
 20
-14.98964271855713
 30
0.0
 10
102.300081347878
 20
-15.02681183691225
 30
0.0
 10
102.2210202604607
 20
-15.10630737401476
 30
0.0
 10
102.151550693761
 20
-15.20156707812428
 30
0.0
 10
102.1156836550816
 20
-15.27445988254585
 30
0.0
 10
102.0972222222223
 20
-15.31197916666562
 30
0.0
  0
SPLINE
  5
198
330
1F
100
AcDbEntity
  8
0
  6
Continuous
 62
     7
370
    25
100
AcDbSpline
210
0.0
220
0.0
230
1.0
 70
     8
 71
     3
 72
    11
 73
     7
 74
     0
 42
0.00000001
 43
0.00000001
 40
0.0
 40
0.0
 40
0.0
 40
0.0
 40
0.2869538933514464
 40
0.5461988668811969
 40
0.781657462202776
 40
1.0
 40
1.0
 40
1.0
 40
1.0
 10
103.080295138889
 20
-14.82152777777672
 30
0.0
 10
103.0121781492563
 20
-14.82282692790339
 30
0.0
 10
102.8825217012528
 20
-14.8252997792692
 30
0.0
 10
102.6988279511215
 20
-14.85363871491757
 30
0.0
 10
102.5353122135076
 20
-14.90005960784743
 30
0.0
 10
102.4387980677154
 20
-14.94813587563908
 30
0.0
 10
102.3923611111112
 20
-14.97126736111005
 30
0.0
  0
SPLINE
  5
19E
330
1F
100
AcDbEntity
  8
0
  6
Continuous
 62
     7
370
    25
100
AcDbSpline
210
0.0
220
0.0
230
1.0
 70
     8
 71
     3
 72
    23
 73
    19
 74
     0
 42
0.00000001
 43
0.00000001
 40
0.0
 40
0.0
 40
0.0
 40
0.0
 40
0.0846127534506957
 40
0.1619144606629831
 40
0.2298806845577123
 40
0.2895648750439984
 40
0.3420514708676086
 40
0.3854965674004627
 40
0.4217551846928431
 40
0.4495088320332221
 40
0.4986124906573491
 40
0.5519752119292854
 40
0.6097553304323368
 40
0.6732052240175822
 40
0.7433128260372261
 40
0.8203600646127923
 40
0.9048566891820671
 40
1.0
 40
1.0
 40
1.0
 40
1.0
 10
99.65581597222234
 20
-16.21041666666563
 30
0.0
 10
99.6549874951948
 20
-16.15182520409543
 30
0.0
 10
99.6534021264931
 20
-16.03970493055963
 30
0.0
 10
99.65279046499226
 20
-15.88048467492503
 30
0.0
 10
99.64581810113118
 20
-15.73866210150594
 30
0.0
 10
99.63684723811215
 20
-15.6142848608917
 30
0.0
 10
99.62809752594748
 20
-15.50670604449875
 30
0.0
 10
99.6107443484095
 20
-15.41682076910102
 30
0.0
 10
99.59864410361186
 20
-15.34316943289341
 30
0.0
 10
99.57139784006925
 20
-15.26938882042518
 30
0.0
 10
99.52678376786946
 20
-15.19033605538826
 30
0.0
 10
99.45393623190884
 20
-15.10579005837834
 30
0.0
 10
99.36126980705986
 20
-15.02754634151927
 30
0.0
 10
99.24976747857303
 20
-14.95530512349991
 30
0.0
 10
99.1167168723303
 20
-14.89394004889867
 30
0.0
 10
98.96128881412488
 20
-14.85203933432588
 30
0.0
 10
98.78504482426847
 20
-14.82561053926054
 30
0.0
 10
98.66055305521053
 20
-14.82294142817289
 30
0.0
 10
98.59461805555566
 20
-14.82152777777676
 30
0.0
  0
SPLINE
  5
1A0
330
1F
100
AcDbEntity
  8
0
  6
Continuous
 62
     7
370
    25
100
AcDbSpline
210
0.0
220
0.0
230
1.0
 70
     8
 71
     3
 72
    15
 73
    11
 74
     0
 42
0.00000001
 43
0.00000001
 40
0.0
 40
0.0
 40
0.0
 40
0.0
 40
0.0613929564847393
 40
0.1375125657304191
 40
0.2347752365658263
 40
0.3503653280824212
 40
0.4848364312453918
 40
0.6359029609429145
 40
0.8083716426091331
 40
1.0
 40
1.0
 40
1.0
 40
1.0
 10
99.57552083333353
 20
-23.7755208333323
 30
0.0
 10
99.58257649684687
 20
-23.75832518527378
 30
0.0
 10
99.59838030314984
 20
-23.71980907822632
 30
0.0
 10
99.61135105318024
 20
-23.64979865051782
 30
0.0
 10
99.62783578402544
 20
-23.56414226214018
 30
0.0
 10
99.63705032961695
 20
-23.45949220308173
 30
0.0
 10
99.64570515932698
 20
-23.33870474087374
 30
0.0
 10
99.65282581495941
 20
-23.20050971629464
 30
0.0
 10
99.65340467948576
 20
-23.04490070510409
 30
0.0
 10
99.65498449669644
 20
-22.93495106350953
 30
0.0
 10
99.65581597222243
 20
-22.87708333333231
 30
0.0
  0
SPLINE
  5
1A1
330
1F
100
AcDbEntity
  8
0
  6
Continuous
 62
     7
370
    25
100
AcDbSpline
210
0.0
220
0.0
230
1.0
 70
     8
 71
     3
 72
    11
 73
     7
 74
     0
 42
0.00000001
 43
0.00000001
 40
0.0
 40
0.0
 40
0.0
 40
0.0
 40
0.2333588799629366
 40
0.4720312980874374
 40
0.7278840296407444
 40
1.0
 40
1.0
 40
1.0
 40
1.0
 10
99.28472222222241
 20
-24.11623263888786
 30
0.0
 10
99.31522074637898
 20
-24.09783437852904
 30
0.0
 10
99.3769122403974
 20
-24.06061893285537
 30
0.0
 10
99.45614328062454
 20
-23.98178651790763
 30
0.0
 10
99.52328550275666
 20
-23.88569077644343
 30
0.0
 10
99.55775512907798
 20
-23.81299061873511
 30
0.0
 10
99.57552083333353
 20
-23.7755208333323
 30
0.0
  0
SPLINE
  5
1A2
330
1F
100
AcDbEntity
  8
0
  6
Continuous
 62
     7
370
    25
100
AcDbSpline
210
0.0
220
0.0
230
1.0
 70
     8
 71
     3
 72
    11
 73
     7
 74
     0
 42
0.00000001
 43
0.00000001
 40
0.0
 40
0.0
 40
0.0
 40
0.0
 40
0.286116982965587
 40
0.5446058600775648
 40
0.782294265333145
 40
1.0
 40
1.0
 40
1.0
 40
1.0
 10
98.59461805555577
 20
-24.26597222222121
 30
0.0
 10
98.66274279000747
 20
-24.2646996779821
 30
0.0
 10
98.79241397979168
 20
-24.26227746926647
 30
0.0
 10
98.97669539159051
 20
-24.23348983303296
 30
0.0
 10
99.14119043781925
 20
-24.18789898140443
 30
0.0
 10
99.23829866198835
 20
-24.13941222090453
 30
0.0
 10
99.28472222222241
 20
-24.11623263888786
 30
0.0
  0
SPLINE
  5
1A8
330
1F
100
AcDbEntity
  8
0
  6
Continuous
 62
     7
370
    25
100
AcDbSpline
210
0.0
220
0.0
230
1.0
 70
     8
 71
     3
 72
    15
 73
    11
 74
     0
 42
0.00000001
 43
0.00000001
 40
0.0
 40
0.0
 40
0.0
 40
0.0
 40
0.0756346169492238
 40
0.1655332399016153
 40
0.2696922222629148
 40
0.3869603459271609
 40
0.5188765084621211
 40
0.6654239439727765
 40
0.8253310566402515
 40
0.9999999999999999
 40
0.9999999999999999
 40
0.9999999999999999
 40
0.9999999999999999
 10
15.35104166666819
 20
-148.9465277777777
 30
0.0
 10
15.3419741043867
 20
-148.9862350212032
 30
0.0
 10
15.32212891943031
 20
-149.0731379357271
 30
0.0
 10
15.2988569889288
 20
-149.216564044869
 30
0.0
 10
15.27977406109203
 20
-149.3831361261578
 30
0.0
 10
15.26546882477796
 20
-149.57286059402
 30
0.0
 10
15.25191702061406
 20
-149.7855021883172
 30
0.0
 10
15.24369078719837
 20
-150.0214111054977
 30
0.0
 10
15.23990314458806
 20
-150.2804270029139
 30
0.0
 10
15.2387805215772
 20
-150.4605602442596
 30
0.0
 10
15.23819444444598
 20
-150.5546006944443
 30
0.0
  0
SPLINE
  5
1A9
330
1F
100
AcDbEntity
  8
0
  6
Continuous
 62
     7
370
    25
100
AcDbSpline
210
0.0
220
0.0
230
1.0
 70
     8
 71
     3
 72
    19
 73
    15
 74
     0
 42
0.00000001
 43
0.00000001
 40
0.0
 40
0.0
 40
0.0
 40
0.0
 40
0.0826193730422596
 40
0.1601594625018144
 40
0.2327161284172476
 40
0.3011922050685555
 40
0.3654142909516869
 40
0.4258210707510182
 40
0.4825747622917638
 40
0.5371639818084212
 40
0.6441636745858066
 40
0.7548069287890113
 40
0.8727663289926162
 40
1.0
 40
1.0
 40
1.0
 40
1.0
 10
17.59930555555706
 20
-147.221267361111
 30
0.0
 10
17.51525833683193
 20
-147.2304049308275
 30
0.0
 10
17.35233096423006
 20
-147.2481183096694
 30
0.0
 10
17.11780737743961
 20
-147.2900692093725
 30
0.0
 10
16.89976971562512
 20
-147.3399164411524
 30
0.0
 10
16.69766472347033
 20
-147.3974383156696
 30
0.0
 10
16.51234113704367
 20
-147.4666296015507
 30
0.0
 10
16.34493367423984
 20
-147.5471679321846
 30
0.0
 10
16.19321676269588
 20
-147.6363245604203
 30
0.0
 10
16.0135559819399
 20
-147.7697146354701
 30
0.0
 10
15.81650161076689
 20
-147.9690131970279
 30
0.0
 10
15.61927576980979
 20
-148.2516409651343
 30
0.0
 10
15.45942527130945
 20
-148.5807686776995
 30
0.0
 10
15.38806920076356
 20
-148.8215720006224
 30
0.0
 10
15.35104166666819
 20
-148.9465277777777
 30
0.0
  0
SPLINE
  5
1AF
330
1F
100
AcDbEntity
  8
0
  6
Continuous
 62
     7
370
    25
100
AcDbSpline
210
0.0
220
0.0
230
1.0
 70
     8
 71
     3
 72
    23
 73
    19
 74
     0
 42
0.00000001
 43
0.00000001
 40
0.0
 40
0.0
 40
0.0
 40
0.0
 40
0.0846127534506954
 40
0.1619144606629827
 40
0.2298806845577114
 40
0.2895648750439973
 40
0.3420514708676067
 40
0.385496567400463
 40
0.4217551846928418
 40
0.4495088320332185
 40
0.4986124906573455
 40
0.551975211929286
 40
0.6097553304323371
 40
0.6732052240175768
 40
0.7433128260372205
 40
0.8203600646127928
 40
0.9048566891820673
 40
1.0
 40
1.0
 40
1.0
 40
1.0
 10
16.21041666666824
 20
-153.8879340277777
 30
0.0
 10
16.15182520409802
 20
-153.8887625048052
 30
0.0
 10
16.03970493056223
 20
-153.8903478735069
 30
0.0
 10
15.88048467492764
 20
-153.8909595350078
 30
0.0
 10
15.73866210150854
 20
-153.8979318988688
 30
0.0
 10
15.61428486089431
 20
-153.9069027618879
 30
0.0
 10
15.50670604450133
 20
-153.9156524740525
 30
0.0
 10
15.41682076910363
 20
-153.9330056515905
 30
0.0
 10
15.34316943289601
 20
-153.9451058963882
 30
0.0
 10
15.26938882042778
 20
-153.9723521599308
 30
0.0
 10
15.19033605539086
 20
-154.0169662321305
 30
0.0
 10
15.10579005838095
 20
-154.0898137680911
 30
0.0
 10
15.02754634152188
 20
-154.1824801929402
 30
0.0
 10
14.9553051235025
 20
-154.293982521427
 30
0.0
 10
14.89394004890125
 20
-154.4270331276697
 30
0.0
 10
14.85203933432849
 20
-154.5824611858751
 30
0.0
 10
14.82561053926315
 20
-154.7587051757315
 30
0.0
 10
14.82294142817549
 20
-154.8831969447895
 30
0.0
 10
14.82152777777936
 20
-154.9491319444444
 30
0.0
  0
SPLINE
  5
1B1
330
1F
100
AcDbEntity
  8
0
  6
Continuous
 62
     7
370
    25
100
AcDbSpline
210
0.0
220
0.0
230
1.0
 70
     8
 71
     3
 72
    15
 73
    11
 74
     0
 42
0.00000001
 43
0.00000001
 40
0.0
 40
0.0
 40
0.0
 40
0.0
 40
0.0613929564847343
 40
0.1375125657304111
 40
0.2347752365658242
 40
0.3503653280824181
 40
0.4848364312453896
 40
0.6359029609429124
 40
0.8083716426091322
 40
1.0
 40
1.0
 40
1.0
 40
1.0
 10
23.77552083333491
 20
-153.9682291666665
 30
0.0
 10
23.75832518527637
 20
-153.9611735031531
 30
0.0
 10
23.71980907822892
 20
-153.9453696968502
 30
0.0
 10
23.64979865052042
 20
-153.9323989468198
 30
0.0
 10
23.56414226214279
 20
-153.9159142159745
 30
0.0
 10
23.45949220308433
 20
-153.9066996703831
 30
0.0
 10
23.33870474087633
 20
-153.8980448406729
 30
0.0
 10
23.20050971629725
 20
-153.8909241850406
 30
0.0
 10
23.04490070510669
 20
-153.8903453205142
 30
0.0
 10
22.93495106351213
 20
-153.8887655033036
 30
0.0
 10
22.87708333333491
 20
-153.8879340277776
 30
0.0
  0
SPLINE
  5
1B2
330
1F
100
AcDbEntity
  8
0
  6
Continuous
 62
     7
370
    25
100
AcDbSpline
210
0.0
220
0.0
230
1.0
 70
     8
 71
     3
 72
    11
 73
     7
 74
     0
 42
0.00000001
 43
0.00000001
 40
0.0
 40
0.0
 40
0.0
 40
0.0
 40
0.2333588799629157
 40
0.4720312980873994
 40
0.7278840296407114
 40
1.0
 40
1.0
 40
1.0
 40
1.0
 10
24.11623263889046
 20
-154.2590277777776
 30
0.0
 10
24.09783437853164
 20
-154.228529253621
 30
0.0
 10
24.06061893285796
 20
-154.1668377596026
 30
0.0
 10
23.98178651791022
 20
-154.0876067193755
 30
0.0
 10
23.88569077644603
 20
-154.0204644972434
 30
0.0
 10
23.81299061873772
 20
-153.985994870922
 30
0.0
 10
23.77552083333491
 20
-153.9682291666665
 30
0.0
  0
SPLINE
  5
1B3
330
1F
100
AcDbEntity
  8
0
  6
Continuous
 62
     7
370
    25
100
AcDbSpline
210
0.0
220
0.0
230
1.0
 70
     8
 71
     3
 72
    11
 73
     7
 74
     0
 42
0.00000001
 43
0.00000001
 40
0.0
 40
0.0
 40
0.0
 40
0.0
 40
0.2861169829655624
 40
0.5446058600775356
 40
0.7822942653331488
 40
1.0
 40
1.0
 40
1.0
 40
1.0
 10
24.26597222222381
 20
-154.9491319444443
 30
0.0
 10
24.2646996779847
 20
-154.8810072099926
 30
0.0
 10
24.26227746926907
 20
-154.7513360202084
 30
0.0
 10
24.23348983303556
 20
-154.5670546084095
 30
0.0
 10
24.18789898140701
 20
-154.4025595621808
 30
0.0
 10
24.13941222090713
 20
-154.3054513380117
 30
0.0
 10
24.11623263889046
 20
-154.2590277777776
 30
0.0
  0
SPLINE
  5
1B9
330
1F
100
AcDbEntity
  8
0
  6
Continuous
 62
     7
370
    25
100
AcDbSpline
210
0.0
220
0.0
230
1.0
 70
     8
 71
     3
 72
    23
 73
    19
 74
     0
 42
0.00000001
 43
0.00000001
 40
0.0
 40
0.0
 40
0.0
 40
0.0
 40
0.0847108085239085
 40
0.1621020982666208
 40
0.2301470860921784
 40
0.2899827413600639
 40
0.34148972437492
 40
0.3860163327560123
 40
0.4215250813853107
 40
0.4493108915594302
 40
0.4998966938826105
 40
0.5526518129057099
 40
0.6112968194059807
 40
0.6748202430881399
 40
0.7440600720830828
 40
0.8211965982933356
 40
0.9057911433576952
 40
1.0
 40
1.0
 40
1.0
 40
1.0
 10
22.87708333333488
 20
-151.5268229166665
 30
0.0
 10
22.93567660436498
 20
-151.5260211551666
 30
0.0
 10
23.04780033855884
 20
-151.5244869091395
 30
0.0
 10
23.20699730118783
 20
-151.5235311510185
 30
0.0
 10
23.34895053652546
 20
-151.5176458917013
 30
0.0
 10
23.47244042666322
 20
-151.5053765905347
 30
0.0
 10
23.57992427574716
 20
-151.4962407138709
 30
0.0
 10
23.66973208754723
 20
-151.4810989974497
 30
0.0
 10
23.74249861645598
 20
-151.4644174925407
 30
0.0
 10
23.81705822946052
 20
-151.4382012639431
 30
0.0
 10
23.89534689177392
 20
-151.3912096833711
 30
0.0
 10
23.98327190297249
 20
-151.3208415552353
 30
0.0
 10
24.05909658498433
 20
-151.2256653276682
 30
0.0
 10
24.13177859736562
 20
-151.1148841752064
 30
0.0
 10
24.19404743321635
 20
-150.9828623536335
 30
0.0
 10
24.23536333896388
 20
-150.8279199947171
 30
0.0
 10
24.26181089018292
 20
-150.6524390262074
 30
0.0
 10
24.26453626350143
 20
-150.5286679845981
 30
0.0
 10
24.26597222222376
 20
-150.4634548611109
 30
0.0
  0
SPLINE
  5
1BC
330
1F
100
AcDbEntity
  8
0
  6
Continuous
 62
     7
370
    25
100
AcDbSpline
210
0.0
220
0.0
230
1.0
 70
     8
 71
     3
 72
    19
 73
    15
 74
     0
 42
0.00000001
 43
0.00000001
 40
0.0
 40
0.0
 40
0.0
 40
0.0
 40
0.0980650558192589
 40
0.1881738716223347
 40
0.2707576948358632
 40
0.3462848173536505
 40
0.414808468651153
 40
0.4779336736224318
 40
0.5358925048446651
 40
0.5900652077674802
 40
0.6936828810900562
 40
0.7946033426487288
 40
0.8961978987533978
 40
1.0
 40
1.0
 40
1.0
 40
1.0
 10
22.18263888889041
 20
-149.1657118055554
 30
0.0
 10
22.06746899758197
 20
-149.1782617913289
 30
0.0
 10
21.84647320901303
 20
-149.2023435541145
 30
0.0
 10
21.53091336299023
 20
-149.2559751046374
 30
0.0
 10
21.24570407705556
 20
-149.3248460672509
 30
0.0
 10
20.99072236362642
 20
-149.4078950556174
 30
0.0
 10
20.76746527013426
 20
-149.5090115471735
 30
0.0
 10
20.57228519090594
 20
-149.6199354206941
 30
0.0
 10
20.40923191768836
 20
-149.7490566034372
 30
0.0
 10
20.23677973683674
 20
-149.9378514603564
 30
0.0
 10
20.0734584260146
 20
-150.1985261942457
 30
0.0
 10
19.92696456571349
 20
-150.5301033887736
 30
0.0
 10
19.83677050977896
 20
-150.883356528168
 30
0.0
 10
19.82664496394616
 20
-151.1262786492466
 30
0.0
 10
19.82152777777932
 20
-151.2490451388888
 30
0.0
  0
SPLINE
  5
1C0
330
1F
100
AcDbEntity
  8
0
  6
Continuous
 62
     7
370
    25
100
AcDbSpline
210
0.0
220
0.0
230
1.0
 70
     8
 71
     3
 72
    19
 73
    15
 74
     0
 42
0.00000001
 43
0.00000001
 40
0.0
 40
0.0
 40
0.0
 40
0.0
 40
0.0856858767847486
 40
0.1636034878395475
 40
0.2354179812782248
 40
0.3022234689100017
 40
0.3675174654149529
 40
0.4358830827541871
 40
0.5094160170069639
 40
0.5890142670435469
 40
0.676059566100489
 40
0.7729459721256644
 40
0.8809982574794107
 40
1.0
 40
1.0
 40
1.0
 40
1.0
 10
19.12708333333488
 20
-151.2490451388888
 30
0.0
 10
19.12500088632921
 20
-151.1476252331857
 30
0.0
 10
19.12102478657796
 20
-150.9539801316592
 30
0.0
 10
19.07977081258024
 20
-150.6776432268574
 30
0.0
 10
19.01046921645171
 20
-150.4304584440927
 30
0.0
 10
18.91516880933299
 20
-150.2076700617806
 30
0.0
 10
18.78253768512464
 20
-150.0095949399764
 30
0.0
 10
18.61486841454854
 20
-149.829402457195
 30
0.0
 10
18.40792145365246
 20
-149.6674238307419
 30
0.0
 10
18.1654910580962
 20
-149.5178709101365
 30
0.0
 10
17.87899988729744
 20
-149.3927088572384
 30
0.0
 10
17.54906927564272
 20
-149.288580512013
 30
0.0
 10
17.17282208717913
 20
-149.2121499105037
 30
0.0
 10
16.90587985277331
 20
-149.1816809523837
 30
0.0
 10
16.76597222222374
 20
-149.1657118055555
 30
0.0
  0
LINE
  5
1C4
330
1F
100
AcDbEntity
  8
0
  6
Continuous
 62
     7
370
    25
100
AcDbLine
 10
17.5993055556
 20
-194.9256076389
 30
0.0
 11
17.5993055556
 21
-195.2033854167
 31
0.0
  0
LINE
  5
1C5
330
1F
100
AcDbEntity
  8
0
  6
Continuous
 62
     7
370
    25
100
AcDbLine
 10
14.54375
 20
-194.9256076389
 30
0.0
 11
17.5993055556
 21
-194.9256076389
 31
0.0
  0
LINE
  5
1C6
330
1F
100
AcDbEntity
  8
0
  6
Continuous
 62
     7
370
    25
100
AcDbLine
 10
14.54375
 20
-203.1200520833
 30
0.0
 11
14.54375
 21
-194.9256076389
 31
0.0
  0
LINE
  5
1C7
330
1F
100
AcDbEntity
  8
0
  6
Continuous
 62
     7
370
    25
100
AcDbLine
 10
14.8215277778
 20
-203.1200520833
 30
0.0
 11
14.54375
 21
-203.1200520833
 31
0.0
  0
LINE
  5
1C8
330
1F
100
AcDbEntity
  8
0
  6
Continuous
 62
     7
370
    25
100
AcDbLine
 10
14.8215277778
 20
-202.7923611111
 30
0.0
 11
14.8215277778
 21
-203.1200520833
 31
0.0
  0
LINE
  5
1C9
330
1F
100
AcDbEntity
  8
0
  6
Continuous
 62
     7
370
    25
100
AcDbLine
 10
22.8770833333
 20
-201.7311631944
 30
0.0
 11
16.2104166667
 21
-201.7311631944
 31
0.0
  0
LINE
  5
1CA
330
1F
100
AcDbEntity
  8
0
  6
Continuous
 62
     7
370
    25
100
AcDbLine
 10
24.2659722222
 20
-203.1200520833
 30
0.0
 11
24.2659722222
 21
-202.7923611111
 31
0.0
  0
LINE
  5
1CB
330
1F
100
AcDbEntity
  8
0
  6
Continuous
 62
     7
370
    25
100
AcDbLine
 10
24.54375
 20
-203.1200520833
 30
0.0
 11
24.2659722222
 21
-203.1200520833
 31
0.0
  0
LINE
  5
1CC
330
1F
100
AcDbEntity
  8
0
  6
Continuous
 62
     7
370
    25
100
AcDbLine
 10
24.54375
 20
-194.6717013889
 30
0.0
 11
24.54375
 21
-203.1200520833
 31
0.0
  0
LINE
  5
1CD
330
1F
100
AcDbEntity
  8
0
  6
Continuous
 62
     7
370
    25
100
AcDbLine
 10
21.3861979167
 20
-194.2311631944
 30
0.0
 11
24.54375
 21
-194.6717013889
 31
0.0
  0
LINE
  5
1CE
330
1F
100
AcDbEntity
  8
0
  6
Continuous
 62
     7
370
    25
100
AcDbLine
 10
21.3861979167
 20
-194.49375
 30
0.0
 11
21.3861979167
 21
-194.2311631944
 31
0.0
  0
LINE
  5
1CF
330
1F
100
AcDbEntity
  8
0
  6
Continuous
 62
     7
370
    25
100
AcDbLine
 10
23.9881944444
 20
-198.4434027778
 30
0.0
 11
23.9881944444
 21
-197.8618055556
 31
0.0
  0
LINE
  5
1D0
330
1F
100
AcDbEntity
  8
0
  6
Continuous
 62
     7
370
    25
100
AcDbLine
 10
19.6826388889
 20
-199.3700520833
 30
0.0
 11
22.5385416667
 21
-199.3700520833
 31
0.0
  0
LINE
  5
1D1
330
1F
100
AcDbEntity
  8
0
  6
Continuous
 62
     7
370
    25
100
AcDbLine
 10
22.04375
 20
-197.0089409722
 30
0.0
 11
22.04375
 21
-197.28671875
 31
0.0
  0
LINE
  5
1D2
330
1F
100
AcDbEntity
  8
0
  6
Continuous
 62
     7
370
    25
100
AcDbLine
 10
16.7659722222
 20
-197.0089409722
 30
0.0
 11
22.04375
 21
-197.0089409722
 31
0.0
  0
LINE
  5
1D3
330
1F
100
AcDbEntity
  8
0
  6
Continuous
 62
     7
370
    25
100
AcDbLine
 10
16.7659722222
 20
-197.28671875
 30
0.0
 11
16.7659722222
 21
-197.0089409722
 31
0.0
  0
LINE
  5
1D4
330
1F
100
AcDbEntity
  8
0
  6
Continuous
 62
     7
370
    25
100
AcDbLine
 10
19.1270833333
 20
-199.3700520833
 30
0.0
 11
19.1270833333
 21
-199.1747395833
 31
0.0
  0
LINE
  5
1D5
330
1F
100
AcDbEntity
  8
0
  6
Continuous
 62
     7
370
    25
100
AcDbLine
 10
15.2381944444
 20
-199.3700520833
 30
0.0
 11
19.1270833333
 21
-199.3700520833
 31
0.0
  0
LINE
  5
1D6
330
1F
100
AcDbEntity
  8
0
  6
Continuous
 62
     7
370
    25
100
AcDbLine
 10
15.2381944444
 20
-198.3978298611
 30
0.0
 11
15.2381944444
 21
-199.3700520833
 31
0.0
  0
LINE
  5
1D7
330
1F
100
AcDbEntity
  8
0
  6
Continuous
 62
     7
370
    25
100
AcDbLine
 10
21.7659722222
 20
-99.3780381944
 30
0.0
 11
23.8341145833
 21
-99.3780381944
 31
0.0
  0
LINE
  5
1D8
330
1F
100
AcDbEntity
  8
0
  6
Continuous
 62
     7
370
    25
100
AcDbLine
 10
20.3770833333
 20
-98.2669270833
 30
0.0
 11
20.6548611111
 21
-98.2669270833
 31
0.0
  0
LINE
  5
1D9
330
1F
100
AcDbEntity
  8
0
  6
Continuous
 62
     7
370
    25
100
AcDbLine
 10
20.3770833333
 20
-103.1280381944
 30
0.0
 11
20.3770833333
 21
-98.2669270833
 31
0.0
  0
LINE
  5
1DA
330
1F
100
AcDbEntity
  8
0
  6
Continuous
 62
     7
370
    25
100
AcDbLine
 10
20.6548611111
 20
-103.1280381944
 30
0.0
 11
20.3770833333
 21
-103.1280381944
 31
0.0
  0
LINE
  5
1DB
330
1F
100
AcDbEntity
  8
0
  6
Continuous
 62
     7
370
    25
100
AcDbLine
 10
20.6548611111
 20
-102.8502604167
 30
0.0
 11
20.6548611111
 21
-103.1280381944
 31
0.0
  0
LINE
  5
1DC
330
1F
100
AcDbEntity
  8
0
  6
Continuous
 62
     7
370
    25
100
AcDbLine
 10
23.8341145833
 20
-101.7391493056
 30
0.0
 11
21.7659722222
 21
-101.7391493056
 31
0.0
  0
LINE
  5
1DD
330
1F
100
AcDbEntity
  8
0
  6
Continuous
 62
     7
370
    25
100
AcDbLine
 10
17.8770833333
 20
-99.3780381944
 30
0.0
 11
17.8770833333
 21
-99.6558159722
 31
0.0
  0
LINE
  5
1DE
330
1F
100
AcDbEntity
  8
0
  6
Continuous
 62
     7
370
    25
100
AcDbLine
 10
14.4048611111
 20
-99.3780381944
 30
0.0
 11
17.8770833333
 21
-99.3780381944
 31
0.0
  0
LINE
  5
1DF
330
1F
100
AcDbEntity
  8
0
  6
Continuous
 62
     7
370
    25
100
AcDbLine
 10
14.4048611111
 20
-99.6558159722
 30
0.0
 11
14.4048611111
 21
-99.3780381944
 31
0.0
  0
LINE
  5
1E0
330
1F
100
AcDbEntity
  8
0
  6
Continuous
 62
     7
370
    25
100
AcDbLine
 10
107.8502604167
 20
-16.2104166667
 30
0.0
 11
107.8502604167
 21
-22.8770833333
 31
0.0
  0
LINE
  5
1E1
330
1F
100
AcDbEntity
  8
0
  6
Continuous
 62
     7
370
    25
100
AcDbLine
 10
109.2391493056
 20
-14.8215277778
 30
0.0
 11
108.9136284722
 21
-14.8215277778
 31
0.0
  0
LINE
  5
1E2
330
1F
100
AcDbEntity
  8
0
  6
Continuous
 62
     7
370
    25
100
AcDbLine
 10
109.2391493056
 20
-14.54375
 30
0.0
 11
109.2391493056
 21
-14.8215277778
 31
0.0
  0
LINE
  5
1E3
330
1F
100
AcDbEntity
  8
0
  6
Continuous
 62
     7
370
    25
100
AcDbLine
 10
104.1002604167
 20
-14.54375
 30
0.0
 11
109.2391493056
 21
-14.54375
 31
0.0
  0
LINE
  5
1E4
330
1F
100
AcDbEntity
  8
0
  6
Continuous
 62
     7
370
    25
100
AcDbLine
 10
104.1002604167
 20
-14.8215277778
 30
0.0
 11
104.1002604167
 21
-14.54375
 31
0.0
  0
LINE
  5
1E5
330
1F
100
AcDbEntity
  8
0
  6
Continuous
 62
     7
370
    25
100
AcDbLine
 10
104.4279513889
 20
-14.8215277778
 30
0.0
 11
104.1002604167
 21
-14.8215277778
 31
0.0
  0
LINE
  5
1E6
330
1F
100
AcDbEntity
  8
0
  6
Continuous
 62
     7
370
    25
100
AcDbLine
 10
105.4891493056
 20
-22.8770833333
 30
0.0
 11
105.4891493056
 21
-16.2104166667
 31
0.0
  0
LINE
  5
1E7
330
1F
100
AcDbEntity
  8
0
  6
Continuous
 62
     7
370
    25
100
AcDbLine
 10
104.1002604167
 20
-24.2659722222
 30
0.0
 11
104.4279513889
 21
-24.2659722222
 31
0.0
  0
LINE
  5
1E8
330
1F
100
AcDbEntity
  8
0
  6
Continuous
 62
     7
370
    25
100
AcDbLine
 10
104.1002604167
 20
-24.54375
 30
0.0
 11
104.1002604167
 21
-24.2659722222
 31
0.0
  0
LINE
  5
1E9
330
1F
100
AcDbEntity
  8
0
  6
Continuous
 62
     7
370
    25
100
AcDbLine
 10
109.2391493056
 20
-24.54375
 30
0.0
 11
104.1002604167
 21
-24.54375
 31
0.0
  0
LINE
  5
1EA
330
1F
100
AcDbEntity
  8
0
  6
Continuous
 62
     7
370
    25
100
AcDbLine
 10
109.2391493056
 20
-24.2659722222
 30
0.0
 11
109.2391493056
 21
-24.54375
 31
0.0
  0
LINE
  5
1EB
330
1F
100
AcDbEntity
  8
0
  6
Continuous
 62
     7
370
    25
100
AcDbLine
 10
108.9136284722
 20
-24.2659722222
 30
0.0
 11
109.2391493056
 21
-24.2659722222
 31
0.0
  0
LINE
  5
1EC
330
1F
100
AcDbEntity
  8
0
  6
Continuous
 62
     7
370
    25
100
AcDbLine
 10
152.36015625
 20
-16.2104166667
 30
0.0
 11
152.36015625
 21
-22.8770833333
 31
0.0
  0
LINE
  5
1ED
330
1F
100
AcDbEntity
  8
0
  6
Continuous
 62
     7
370
    25
100
AcDbLine
 10
153.7490451389
 20
-14.8215277778
 30
0.0
 11
153.4235243056
 21
-14.8215277778
 31
0.0
  0
LINE
  5
1EE
330
1F
100
AcDbEntity
  8
0
  6
Continuous
 62
     7
370
    25
100
AcDbLine
 10
153.7490451389
 20
-14.54375
 30
0.0
 11
153.7490451389
 21
-14.8215277778
 31
0.0
  0
LINE
  5
1EF
330
1F
100
AcDbEntity
  8
0
  6
Continuous
 62
     7
370
    25
100
AcDbLine
 10
148.61015625
 20
-14.54375
 30
0.0
 11
153.7490451389
 21
-14.54375
 31
0.0
  0
LINE
  5
1F0
330
1F
100
AcDbEntity
  8
0
  6
Continuous
 62
     7
370
    25
100
AcDbLine
 10
148.61015625
 20
-14.8215277778
 30
0.0
 11
148.61015625
 21
-14.54375
 31
0.0
  0
LINE
  5
1F1
330
1F
100
AcDbEntity
  8
0
  6
Continuous
 62
     7
370
    25
100
AcDbLine
 10
148.9378472222
 20
-14.8215277778
 30
0.0
 11
148.61015625
 21
-14.8215277778
 31
0.0
  0
LINE
  5
1F2
330
1F
100
AcDbEntity
  8
0
  6
Continuous
 62
     7
370
    25
100
AcDbLine
 10
149.9990451389
 20
-22.8770833333
 30
0.0
 11
149.9990451389
 21
-16.2104166667
 31
0.0
  0
LINE
  5
1F3
330
1F
100
AcDbEntity
  8
0
  6
Continuous
 62
     7
370
    25
100
AcDbLine
 10
148.61015625
 20
-24.2659722222
 30
0.0
 11
148.9378472222
 21
-24.2659722222
 31
0.0
  0
LINE
  5
1F4
330
1F
100
AcDbEntity
  8
0
  6
Continuous
 62
     7
370
    25
100
AcDbLine
 10
148.61015625
 20
-24.54375
 30
0.0
 11
148.61015625
 21
-24.2659722222
 31
0.0
  0
LINE
  5
1F5
330
1F
100
AcDbEntity
  8
0
  6
Continuous
 62
     7
370
    25
100
AcDbLine
 10
153.7490451389
 20
-24.54375
 30
0.0
 11
148.61015625
 21
-24.54375
 31
0.0
  0
LINE
  5
1F6
330
1F
100
AcDbEntity
  8
0
  6
Continuous
 62
     7
370
    25
100
AcDbLine
 10
153.7490451389
 20
-24.2659722222
 30
0.0
 11
153.7490451389
 21
-24.54375
 31
0.0
  0
LINE
  5
1F7
330
1F
100
AcDbEntity
  8
0
  6
Continuous
 62
     7
370
    25
100
AcDbLine
 10
153.4235243056
 20
-24.2659722222
 30
0.0
 11
153.7490451389
 21
-24.2659722222
 31
0.0
  0
LINE
  5
1F8
330
1F
100
AcDbEntity
  8
0
  6
Continuous
 62
     7
370
    25
100
AcDbLine
 10
203.4868055556
 20
-14.8215277778
 30
0.0
 11
203.4868055556
 21
-14.54375
 31
0.0
  0
LINE
  5
1F9
330
1F
100
AcDbEntity
  8
0
  6
Continuous
 62
     7
370
    25
100
AcDbLine
 10
202.3409722222
 20
-21.5033854167
 30
0.0
 11
204.23984375
 21
-17.1826388889
 31
0.0
  0
LINE
  5
1FA
330
1F
100
AcDbEntity
  8
0
  6
Continuous
 62
     7
370
    25
100
AcDbLine
 10
200.2207465278
 20
-16.6140625
 30
0.0
 11
202.3409722222
 21
-21.5033854167
 31
0.0
  0
LINE
  5
1FB
330
1F
100
AcDbEntity
  8
0
  6
Continuous
 62
     7
370
    25
100
AcDbLine
 10
200.9564236111
 20
-14.8215277778
 30
0.0
 11
200.7958333333
 21
-14.8215277778
 31
0.0
  0
LINE
  5
1FC
330
1F
100
AcDbEntity
  8
0
  6
Continuous
 62
     7
370
    25
100
AcDbLine
 10
200.9564236111
 20
-14.54375
 30
0.0
 11
200.9564236111
 21
-14.8215277778
 31
0.0
  0
LINE
  5
1FD
330
1F
100
AcDbEntity
  8
0
  6
Continuous
 62
     7
370
    25
100
AcDbLine
 10
196.2689236111
 20
-14.54375
 30
0.0
 11
200.9564236111
 21
-14.54375
 31
0.0
  0
LINE
  5
1FE
330
1F
100
AcDbEntity
  8
0
  6
Continuous
 62
     7
370
    25
100
AcDbLine
 10
196.2689236111
 20
-14.8215277778
 30
0.0
 11
196.2689236111
 21
-14.54375
 31
0.0
  0
LINE
  5
1FF
330
1F
100
AcDbEntity
  8
0
  6
Continuous
 62
     7
370
    25
100
AcDbLine
 10
201.31015625
 20
-24.6826388889
 30
0.0
 11
197.8791666667
 21
-16.7616319444
 31
0.0
  0
LINE
  5
200
330
1F
100
AcDbEntity
  8
0
  6
Continuous
 62
     7
370
    25
100
AcDbLine
 10
201.6899305556
 20
-24.6826388889
 30
0.0
 11
201.31015625
 21
-24.6826388889
 31
0.0
  0
LINE
  5
201
330
1F
100
AcDbEntity
  8
0
  6
Continuous
 62
     7
370
    25
100
AcDbLine
 10
204.9907118056
 20
-17.1674479167
 30
0.0
 11
201.6899305556
 21
-24.6826388889
 31
0.0
  0
LINE
  5
202
330
1F
100
AcDbEntity
  8
0
  6
Continuous
 62
     7
370
    25
100
AcDbLine
 10
206.8722222222
 20
-14.54375
 30
0.0
 11
206.8722222222
 21
-14.8215277778
 31
0.0
  0
LINE
  5
203
330
1F
100
AcDbEntity
  8
0
  6
Continuous
 62
     7
370
    25
100
AcDbLine
 10
203.4868055556
 20
-14.54375
 30
0.0
 11
206.8722222222
 21
-14.54375
 31
0.0
  0
LINE
  5
204
330
1F
100
AcDbEntity
  8
0
  6
Continuous
 62
     7
370
    25
100
AcDbLine
 10
158.1934895833
 20
-16.2104166667
 30
0.0
 11
158.1934895833
 21
-22.8770833333
 31
0.0
  0
LINE
  5
205
330
1F
100
AcDbEntity
  8
0
  6
Continuous
 62
     7
370
    25
100
AcDbLine
 10
159.5823784722
 20
-14.8215277778
 30
0.0
 11
159.2568576389
 21
-14.8215277778
 31
0.0
  0
LINE
  5
206
330
1F
100
AcDbEntity
  8
0
  6
Continuous
 62
     7
370
    25
100
AcDbLine
 10
159.5823784722
 20
-14.54375
 30
0.0
 11
159.5823784722
 21
-14.8215277778
 31
0.0
  0
LINE
  5
207
330
1F
100
AcDbEntity
  8
0
  6
Continuous
 62
     7
370
    25
100
AcDbLine
 10
154.4434895833
 20
-14.54375
 30
0.0
 11
159.5823784722
 21
-14.54375
 31
0.0
  0
LINE
  5
208
330
1F
100
AcDbEntity
  8
0
  6
Continuous
 62
     7
370
    25
100
AcDbLine
 10
154.4434895833
 20
-14.8215277778
 30
0.0
 11
154.4434895833
 21
-14.54375
 31
0.0
  0
LINE
  5
209
330
1F
100
AcDbEntity
  8
0
  6
Continuous
 62
     7
370
    25
100
AcDbLine
 10
154.7711805556
 20
-14.8215277778
 30
0.0
 11
154.4434895833
 21
-14.8215277778
 31
0.0
  0
LINE
  5
20A
330
1F
100
AcDbEntity
  8
0
  6
Continuous
 62
     7
370
    25
100
AcDbLine
 10
155.8323784722
 20
-22.8770833333
 30
0.0
 11
155.8323784722
 21
-16.2104166667
 31
0.0
  0
LINE
  5
20B
330
1F
100
AcDbEntity
  8
0
  6
Continuous
 62
     7
370
    25
100
AcDbLine
 10
154.4434895833
 20
-24.2659722222
 30
0.0
 11
154.7711805556
 21
-24.2659722222
 31
0.0
  0
LINE
  5
20C
330
1F
100
AcDbEntity
  8
0
  6
Continuous
 62
     7
370
    25
100
AcDbLine
 10
154.4434895833
 20
-24.54375
 30
0.0
 11
154.4434895833
 21
-24.2659722222
 31
0.0
  0
LINE
  5
20D
330
1F
100
AcDbEntity
  8
0
  6
Continuous
 62
     7
370
    25
100
AcDbLine
 10
159.5823784722
 20
-24.54375
 30
0.0
 11
154.4434895833
 21
-24.54375
 31
0.0
  0
LINE
  5
20E
330
1F
100
AcDbEntity
  8
0
  6
Continuous
 62
     7
370
    25
100
AcDbLine
 10
159.5823784722
 20
-24.2659722222
 30
0.0
 11
159.5823784722
 21
-24.54375
 31
0.0
  0
LINE
  5
20F
330
1F
100
AcDbEntity
  8
0
  6
Continuous
 62
     7
370
    25
100
AcDbLine
 10
159.2568576389
 20
-24.2659722222
 30
0.0
 11
159.5823784722
 21
-24.2659722222
 31
0.0
  0
LINE
  5
210
330
1F
100
AcDbEntity
  8
0
  6
Continuous
 62
     7
370
    25
100
AcDbLine
 10
0.0
 20
-200.025
 30
0.0
 11
0.0
 21
-222.25
 31
0.0
  0
LINE
  5
211
330
1F
100
AcDbEntity
  8
0
  6
Continuous
 62
     7
370
    25
100
AcDbLine
 10
0.0
 20
-200.025
 30
0.0
 11
5.15
 21
-200.025
 31
0.0
  0
LINE
  5
212
330
1F
100
AcDbEntity
  8
0
  6
Continuous
 62
     7
370
    25
100
AcDbLine
 10
5.15
 20
-177.8
 30
0.0
 11
5.15
 21
-200.025
 31
0.0
  0
LINE
  5
213
330
1F
100
AcDbEntity
  8
0
  6
Continuous
 62
     7
370
    25
100
AcDbLine
 10
0.0
 20
-177.8
 30
0.0
 11
5.15
 21
-177.8
 31
0.0
  0
LINE
  5
214
330
1F
100
AcDbEntity
  8
0
  6
Continuous
 62
     7
370
    25
100
AcDbLine
 10
0.0
 20
-155.575
 30
0.0
 11
0.0
 21
-177.8
 31
0.0
  0
LINE
  5
215
330
1F
100
AcDbEntity
  8
0
  6
Continuous
 62
     7
370
    25
100
AcDbLine
 10
0.0
 20
-155.575
 30
0.0
 11
5.15
 21
-155.575
 31
0.0
  0
LINE
  5
216
330
1F
100
AcDbEntity
  8
0
  6
Continuous
 62
     7
370
    25
100
AcDbLine
 10
5.15
 20
-133.35
 30
0.0
 11
5.15
 21
-155.575
 31
0.0
  0
LINE
  5
217
330
1F
100
AcDbEntity
  8
0
  6
Continuous
 62
     7
370
    25
100
AcDbLine
 10
0.0
 20
-133.35
 30
0.0
 11
5.15
 21
-133.35
 31
0.0
  0
LINE
  5
218
330
1F
100
AcDbEntity
  8
0
  6
Continuous
 62
     7
370
    25
100
AcDbLine
 10
0.0
 20
-111.125
 30
0.0
 11
0.0
 21
-133.35
 31
0.0
  0
LINE
  5
219
330
1F
100
AcDbEntity
  8
0
  6
Continuous
 62
     7
370
    25
100
AcDbLine
 10
0.0
 20
-111.125
 30
0.0
 11
5.15
 21
-111.125
 31
0.0
  0
LINE
  5
21A
330
1F
100
AcDbEntity
  8
0
  6
Continuous
 62
     7
370
    25
100
AcDbLine
 10
5.15
 20
-88.9
 30
0.0
 11
5.15
 21
-111.125
 31
0.0
  0
LINE
  5
21B
330
1F
100
AcDbEntity
  8
0
  6
Continuous
 62
     7
370
    25
100
AcDbLine
 10
0.0
 20
-88.9
 30
0.0
 11
5.15
 21
-88.9
 31
0.0
  0
LINE
  5
21C
330
1F
100
AcDbEntity
  8
0
  6
Continuous
 62
     7
370
    25
100
AcDbLine
 10
0.0
 20
-66.675
 30
0.0
 11
0.0
 21
-88.9
 31
0.0
  0
LINE
  5
21D
330
1F
100
AcDbEntity
  8
0
  6
Continuous
 62
     7
370
    25
100
AcDbLine
 10
0.0
 20
-66.675
 30
0.0
 11
5.15
 21
-66.675
 31
0.0
  0
LINE
  5
21E
330
1F
100
AcDbEntity
  8
0
  6
Continuous
 62
     7
370
    25
100
AcDbLine
 10
5.15
 20
-44.45
 30
0.0
 11
5.15
 21
-66.675
 31
0.0
  0
LINE
  5
21F
330
1F
100
AcDbEntity
  8
0
  6
Continuous
 62
     7
370
    25
100
AcDbLine
 10
0.0
 20
-44.45
 30
0.0
 11
5.15
 21
-44.45
 31
0.0
  0
LINE
  5
220
330
1F
100
AcDbEntity
  8
0
  6
Continuous
 62
     7
370
    25
100
AcDbLine
 10
0.0
 20
-22.225
 30
0.0
 11
0.0
 21
-44.45
 31
0.0
  0
LINE
  5
221
330
1F
100
AcDbEntity
  8
0
  6
Continuous
 62
     7
370
    25
100
AcDbLine
 10
5.15
 20
-22.225
 30
0.0
 11
0.0
 21
-22.225
 31
0.0
  0
LINE
  5
222
330
1F
100
AcDbEntity
  8
0
  6
Continuous
 62
     7
370
    25
100
AcDbLine
 10
5.15
 20
-5.15
 30
0.0
 11
5.15
 21
-22.225
 31
0.0
  0
LINE
  5
223
330
1F
100
AcDbEntity
  8
0
  6
Continuous
 62
     7
370
    25
100
AcDbLine
 10
5.15
 20
-5.15
 30
0.0
 11
22.225
 21
-5.15
 31
0.0
  0
LINE
  5
224
330
1F
100
AcDbEntity
  8
0
  6
Continuous
 62
     7
370
    25
100
AcDbLine
 10
22.225
 20
0.0
 30
0.0
 11
22.225
 21
-5.15
 31
0.0
  0
LINE
  5
225
330
1F
100
AcDbEntity
  8
0
  6
Continuous
 62
     7
370
    25
100
AcDbLine
 10
44.45
 20
0.0
 30
0.0
 11
22.225
 21
0.0
 31
0.0
  0
LINE
  5
226
330
1F
100
AcDbEntity
  8
0
  6
Continuous
 62
     7
370
    25
100
AcDbLine
 10
44.45
 20
0.0
 30
0.0
 11
44.45
 21
-5.15
 31
0.0
  0
LINE
  5
227
330
1F
100
AcDbEntity
  8
0
  6
Continuous
 62
     7
370
    25
100
AcDbLine
 10
44.45
 20
-5.15
 30
0.0
 11
66.675
 21
-5.15
 31
0.0
  0
LINE
  5
228
330
1F
100
AcDbEntity
  8
0
  6
Continuous
 62
     7
370
    25
100
AcDbLine
 10
66.675
 20
0.0
 30
0.0
 11
66.675
 21
-5.15
 31
0.0
  0
LINE
  5
229
330
1F
100
AcDbEntity
  8
0
  6
Continuous
 62
     7
370
    25
100
AcDbLine
 10
88.9
 20
0.0
 30
0.0
 11
66.675
 21
0.0
 31
0.0
  0
LINE
  5
22A
330
1F
100
AcDbEntity
  8
0
  6
Continuous
 62
     7
370
    25
100
AcDbLine
 10
88.9
 20
0.0
 30
0.0
 11
88.9
 21
-5.15
 31
0.0
  0
LINE
  5
22B
330
1F
100
AcDbEntity
  8
0
  6
Continuous
 62
     7
370
    25
100
AcDbLine
 10
88.9
 20
-5.15
 30
0.0
 11
111.125
 21
-5.15
 31
0.0
  0
LINE
  5
22C
330
1F
100
AcDbEntity
  8
0
  6
Continuous
 62
     7
370
    25
100
AcDbLine
 10
111.125
 20
0.0
 30
0.0
 11
111.125
 21
-5.15
 31
0.0
  0
LINE
  5
22D
330
1F
100
AcDbEntity
  8
0
  6
Continuous
 62
     7
370
    25
100
AcDbLine
 10
133.35
 20
0.0
 30
0.0
 11
111.125
 21
0.0
 31
0.0
  0
LINE
  5
22E
330
1F
100
AcDbEntity
  8
0
  6
Continuous
 62
     7
370
    25
100
AcDbLine
 10
133.35
 20
0.0
 30
0.0
 11
133.35
 21
-5.15
 31
0.0
  0
LINE
  5
22F
330
1F
100
AcDbEntity
  8
0
  6
Continuous
 62
     7
370
    25
100
AcDbLine
 10
133.35
 20
-5.15
 30
0.0
 11
155.575
 21
-5.15
 31
0.0
  0
LINE
  5
230
330
1F
100
AcDbEntity
  8
0
  6
Continuous
 62
     7
370
    25
100
AcDbLine
 10
155.575
 20
0.0
 30
0.0
 11
155.575
 21
-5.15
 31
0.0
  0
LINE
  5
231
330
1F
100
AcDbEntity
  8
0
  6
Continuous
 62
     7
370
    25
100
AcDbLine
 10
177.8
 20
0.0
 30
0.0
 11
155.575
 21
0.0
 31
0.0
  0
LINE
  5
232
330
1F
100
AcDbEntity
  8
0
  6
Continuous
 62
     7
370
    25
100
AcDbLine
 10
177.8
 20
0.0
 30
0.0
 11
177.8
 21
-5.15
 31
0.0
  0
LINE
  5
233
330
1F
100
AcDbEntity
  8
0
  6
Continuous
 62
     7
370
    25
100
AcDbLine
 10
177.8
 20
-5.15
 30
0.0
 11
200.025
 21
-5.15
 31
0.0
  0
LINE
  5
234
330
1F
100
AcDbEntity
  8
0
  6
Continuous
 62
     7
370
    25
100
AcDbLine
 10
200.025
 20
0.0
 30
0.0
 11
200.025
 21
-5.15
 31
0.0
  0
LINE
  5
235
330
1F
100
AcDbEntity
  8
0
  6
Continuous
 62
     7
370
    25
100
AcDbLine
 10
222.25
 20
0.0
 30
0.0
 11
200.025
 21
0.0
 31
0.0
  0
LINE
  5
236
330
1F
100
AcDbEntity
  8
0
  6
Continuous
 62
     7
370
    25
100
AcDbLine
 10
222.25
 20
-9.65
 30
0.0
 11
222.25
 21
0.0
 31
0.0
  0
LINE
  5
237
330
1F
100
AcDbEntity
  8
0
  6
Continuous
 62
     7
370
    25
100
AcDbLine
 10
227.25
 20
-9.65
 30
0.0
 11
222.25
 21
-9.65
 31
0.0
  0
LINE
  5
238
330
1F
100
AcDbEntity
  8
0
  6
Continuous
 62
     7
370
    25
100
AcDbLine
 10
227.25
 20
-6.15
 30
0.0
 11
227.25
 21
-9.65
 31
0.0
  0
LINE
  5
239
330
1F
100
AcDbEntity
  8
0
  6
Continuous
 62
     7
370
    25
100
AcDbLine
 10
230.25
 20
-6.15
 30
0.0
 11
227.25
 21
-6.15
 31
0.0
  0
LINE
  5
23A
330
1F
100
AcDbEntity
  8
0
  6
Continuous
 62
     7
370
    25
100
AcDbLine
 10
230.25
 20
-9.65
 30
0.0
 11
230.25
 21
-6.15
 31
0.0
  0
LINE
  5
23B
330
1F
100
AcDbEntity
  8
0
  6
Continuous
 62
     7
370
    25
100
AcDbLine
 10
233.75
 20
-9.65
 30
0.0
 11
230.25
 21
-9.65
 31
0.0
  0
LINE
  5
23C
330
1F
100
AcDbEntity
  8
0
  6
Continuous
 62
     7
370
    25
100
AcDbLine
 10
233.75
 20
-12.65
 30
0.0
 11
233.75
 21
-9.65
 31
0.0
  0
LINE
  5
23D
330
1F
100
AcDbEntity
  8
0
  6
Continuous
 62
     7
370
    25
100
AcDbLine
 10
230.25
 20
-12.65
 30
0.0
 11
233.75
 21
-12.65
 31
0.0
  0
LINE
  5
23E
330
1F
100
AcDbEntity
  8
0
  6
Continuous
 62
     7
370
    25
100
AcDbLine
 10
230.25
 20
-16.15
 30
0.0
 11
230.25
 21
-12.65
 31
0.0
  0
LINE
  5
23F
330
1F
100
AcDbEntity
  8
0
  6
Continuous
 62
     7
370
    25
100
AcDbLine
 10
227.25
 20
-16.15
 30
0.0
 11
230.25
 21
-16.15
 31
0.0
  0
LINE
  5
240
330
1F
100
AcDbEntity
  8
0
  6
Continuous
 62
     7
370
    25
100
AcDbLine
 10
227.25
 20
-12.65
 30
0.0
 11
227.25
 21
-16.15
 31
0.0
  0
LINE
  5
241
330
1F
100
AcDbEntity
  8
0
  6
Continuous
 62
     7
370
    25
100
AcDbLine
 10
222.25
 20
-12.65
 30
0.0
 11
227.25
 21
-12.65
 31
0.0
  0
LINE
  5
242
330
1F
100
AcDbEntity
  8
0
  6
Continuous
 62
     7
370
    25
100
AcDbLine
 10
222.25
 20
-32.54375
 30
0.0
 11
222.25
 21
-12.65
 31
0.0
  0
LINE
  5
243
330
1F
100
AcDbEntity
  8
0
  6
Continuous
 62
     7
370
    25
100
AcDbLine
 10
222.25
 20
-32.54375
 30
0.0
 11
32.54375
 21
-32.54375
 31
0.0
  0
LINE
  5
244
330
1F
100
AcDbEntity
  8
0
  6
Continuous
 62
     7
370
    25
100
AcDbLine
 10
32.54375
 20
-32.54375
 30
0.0
 11
32.54375
 21
-222.25
 31
0.0
  0
LINE
  5
245
330
1F
100
AcDbEntity
  8
0
  6
Continuous
 62
     7
370
    25
100
AcDbLine
 10
12.65
 20
-222.25
 30
0.0
 11
32.54375
 21
-222.25
 31
0.0
  0
LINE
  5
246
330
1F
100
AcDbEntity
  8
0
  6
Continuous
 62
     7
370
    25
100
AcDbLine
 10
12.65
 20
-222.25
 30
0.0
 11
12.65
 21
-217.25
 31
0.0
  0
LINE
  5
247
330
1F
100
AcDbEntity
  8
0
  6
Continuous
 62
     7
370
    25
100
AcDbLine
 10
12.65
 20
-217.25
 30
0.0
 11
16.15
 21
-217.25
 31
0.0
  0
LINE
  5
248
330
1F
100
AcDbEntity
  8
0
  6
Continuous
 62
     7
370
    25
100
AcDbLine
 10
16.15
 20
-217.25
 30
0.0
 11
16.15
 21
-214.25
 31
0.0
  0
LINE
  5
249
330
1F
100
AcDbEntity
  8
0
  6
Continuous
 62
     7
370
    25
100
AcDbLine
 10
16.15
 20
-214.25
 30
0.0
 11
12.65
 21
-214.25
 31
0.0
  0
LINE
  5
24A
330
1F
100
AcDbEntity
  8
0
  6
Continuous
 62
     7
370
    25
100
AcDbLine
 10
12.65
 20
-214.25
 30
0.0
 11
12.65
 21
-210.75
 31
0.0
  0
LINE
  5
24B
330
1F
100
AcDbEntity
  8
0
  6
Continuous
 62
     7
370
    25
100
AcDbLine
 10
12.65
 20
-210.75
 30
0.0
 11
9.65
 21
-210.75
 31
0.0
  0
LINE
  5
24C
330
1F
100
AcDbEntity
  8
0
  6
Continuous
 62
     7
370
    25
100
AcDbLine
 10
9.65
 20
-210.75
 30
0.0
 11
9.65
 21
-214.25
 31
0.0
  0
LINE
  5
24D
330
1F
100
AcDbEntity
  8
0
  6
Continuous
 62
     7
370
    25
100
AcDbLine
 10
9.65
 20
-214.25
 30
0.0
 11
6.15
 21
-214.25
 31
0.0
  0
LINE
  5
24E
330
1F
100
AcDbEntity
  8
0
  6
Continuous
 62
     7
370
    25
100
AcDbLine
 10
6.15
 20
-214.25
 30
0.0
 11
6.15
 21
-217.25
 31
0.0
  0
LINE
  5
24F
330
1F
100
AcDbEntity
  8
0
  6
Continuous
 62
     7
370
    25
100
AcDbLine
 10
6.15
 20
-217.25
 30
0.0
 11
9.65
 21
-217.25
 31
0.0
  0
LINE
  5
250
330
1F
100
AcDbEntity
  8
0
  6
Continuous
 62
     7
370
    25
100
AcDbLine
 10
9.65
 20
-217.25
 30
0.0
 11
9.65
 21
-222.25
 31
0.0
  0
LINE
  5
251
330
1F
100
AcDbEntity
  8
0
  6
Continuous
 62
     7
370
    25
100
AcDbLine
 10
0.0
 20
-222.25
 30
0.0
 11
9.65
 21
-222.25
 31
0.0
  0
LINE
  5
252
330
1F
100
AcDbEntity
  8
0
  6
Continuous
 62
     7
370
    25
100
AcDbLine
 10
57.50703125
 20
-16.2104166667
 30
0.0
 11
57.50703125
 21
-22.8770833333
 31
0.0
  0
LINE
  5
253
330
1F
100
AcDbEntity
  8
0
  6
Continuous
 62
     7
370
    25
100
AcDbLine
 10
58.8959201389
 20
-14.8215277778
 30
0.0
 11
58.5703993056
 21
-14.8215277778
 31
0.0
  0
LINE
  5
254
330
1F
100
AcDbEntity
  8
0
  6
Continuous
 62
     7
370
    25
100
AcDbLine
 10
58.8959201389
 20
-14.54375
 30
0.0
 11
58.8959201389
 21
-14.8215277778
 31
0.0
  0
LINE
  5
255
330
1F
100
AcDbEntity
  8
0
  6
Continuous
 62
     7
370
    25
100
AcDbLine
 10
53.75703125
 20
-14.54375
 30
0.0
 11
58.8959201389
 21
-14.54375
 31
0.0
  0
LINE
  5
256
330
1F
100
AcDbEntity
  8
0
  6
Continuous
 62
     7
370
    25
100
AcDbLine
 10
53.75703125
 20
-14.8215277778
 30
0.0
 11
53.75703125
 21
-14.54375
 31
0.0
  0
LINE
  5
257
330
1F
100
AcDbEntity
  8
0
  6
Continuous
 62
     7
370
    25
100
AcDbLine
 10
54.0847222222
 20
-14.8215277778
 30
0.0
 11
53.75703125
 21
-14.8215277778
 31
0.0
  0
LINE
  5
258
330
1F
100
AcDbEntity
  8
0
  6
Continuous
 62
     7
370
    25
100
AcDbLine
 10
55.1459201389
 20
-22.8770833333
 30
0.0
 11
55.1459201389
 21
-16.2104166667
 31
0.0
  0
LINE
  5
259
330
1F
100
AcDbEntity
  8
0
  6
Continuous
 62
     7
370
    25
100
AcDbLine
 10
53.75703125
 20
-24.2659722222
 30
0.0
 11
54.0847222222
 21
-24.2659722222
 31
0.0
  0
LINE
  5
25A
330
1F
100
AcDbEntity
  8
0
  6
Continuous
 62
     7
370
    25
100
AcDbLine
 10
53.75703125
 20
-24.54375
 30
0.0
 11
53.75703125
 21
-24.2659722222
 31
0.0
  0
LINE
  5
25B
330
1F
100
AcDbEntity
  8
0
  6
Continuous
 62
     7
370
    25
100
AcDbLine
 10
58.8959201389
 20
-24.54375
 30
0.0
 11
53.75703125
 21
-24.54375
 31
0.0
  0
LINE
  5
25C
330
1F
100
AcDbEntity
  8
0
  6
Continuous
 62
     7
370
    25
100
AcDbLine
 10
58.8959201389
 20
-24.2659722222
 30
0.0
 11
58.8959201389
 21
-24.54375
 31
0.0
  0
LINE
  5
25D
330
1F
100
AcDbEntity
  8
0
  6
Continuous
 62
     7
370
    25
100
AcDbLine
 10
58.5703993056
 20
-24.2659722222
 30
0.0
 11
58.8959201389
 21
-24.2659722222
 31
0.0
  0
LINE
  5
25E
330
1F
100
AcDbEntity
  8
0
  6
Continuous
 62
     7
370
    25
100
AcDbLine
 10
194.3700520833
 20
-16.2104166667
 30
0.0
 11
194.3700520833
 21
-22.8770833333
 31
0.0
  0
LINE
  5
25F
330
1F
100
AcDbEntity
  8
0
  6
Continuous
 62
     7
370
    25
100
AcDbLine
 10
195.7589409722
 20
-14.8215277778
 30
0.0
 11
195.4334201389
 21
-14.8215277778
 31
0.0
  0
LINE
  5
260
330
1F
100
AcDbEntity
  8
0
  6
Continuous
 62
     7
370
    25
100
AcDbLine
 10
195.7589409722
 20
-14.54375
 30
0.0
 11
195.7589409722
 21
-14.8215277778
 31
0.0
  0
LINE
  5
261
330
1F
100
AcDbEntity
  8
0
  6
Continuous
 62
     7
370
    25
100
AcDbLine
 10
190.6200520833
 20
-14.54375
 30
0.0
 11
195.7589409722
 21
-14.54375
 31
0.0
  0
LINE
  5
262
330
1F
100
AcDbEntity
  8
0
  6
Continuous
 62
     7
370
    25
100
AcDbLine
 10
190.6200520833
 20
-14.8215277778
 30
0.0
 11
190.6200520833
 21
-14.54375
 31
0.0
  0
LINE
  5
263
330
1F
100
AcDbEntity
  8
0
  6
Continuous
 62
     7
370
    25
100
AcDbLine
 10
190.9477430556
 20
-14.8215277778
 30
0.0
 11
190.6200520833
 21
-14.8215277778
 31
0.0
  0
LINE
  5
264
330
1F
100
AcDbEntity
  8
0
  6
Continuous
 62
     7
370
    25
100
AcDbLine
 10
192.0089409722
 20
-22.8770833333
 30
0.0
 11
192.0089409722
 21
-16.2104166667
 31
0.0
  0
LINE
  5
265
330
1F
100
AcDbEntity
  8
0
  6
Continuous
 62
     7
370
    25
100
AcDbLine
 10
190.6200520833
 20
-24.2659722222
 30
0.0
 11
190.9477430556
 21
-24.2659722222
 31
0.0
  0
LINE
  5
266
330
1F
100
AcDbEntity
  8
0
  6
Continuous
 62
     7
370
    25
100
AcDbLine
 10
190.6200520833
 20
-24.54375
 30
0.0
 11
190.6200520833
 21
-24.2659722222
 31
0.0
  0
LINE
  5
267
330
1F
100
AcDbEntity
  8
0
  6
Continuous
 62
     7
370
    25
100
AcDbLine
 10
195.7589409722
 20
-24.54375
 30
0.0
 11
190.6200520833
 21
-24.54375
 31
0.0
  0
LINE
  5
268
330
1F
100
AcDbEntity
  8
0
  6
Continuous
 62
     7
370
    25
100
AcDbLine
 10
195.7589409722
 20
-24.2659722222
 30
0.0
 11
195.7589409722
 21
-24.54375
 31
0.0
  0
LINE
  5
269
330
1F
100
AcDbEntity
  8
0
  6
Continuous
 62
     7
370
    25
100
AcDbLine
 10
195.4334201389
 20
-24.2659722222
 30
0.0
 11
195.7589409722
 21
-24.2659722222
 31
0.0
  0
LINE
  5
26A
330
1F
100
AcDbEntity
  8
0
  6
Continuous
 62
     7
370
    25
100
AcDbLine
 10
22.8770833333
 20
-54.4514756944
 30
0.0
 11
19.6826388889
 21
-54.4514756944
 31
0.0
  0
LINE
  5
26B
330
1F
100
AcDbEntity
  8
0
  6
Continuous
 62
     7
370
    25
100
AcDbLine
 10
24.2659722222
 20
-55.8403645833
 30
0.0
 11
24.2659722222
 21
-55.5213541667
 31
0.0
  0
LINE
  5
26C
330
1F
100
AcDbEntity
  8
0
  6
Continuous
 62
     7
370
    25
100
AcDbLine
 10
24.54375
 20
-55.8403645833
 30
0.0
 11
24.2659722222
 21
-55.8403645833
 31
0.0
  0
LINE
  5
26D
330
1F
100
AcDbEntity
  8
0
  6
Continuous
 62
     7
370
    25
100
AcDbLine
 10
24.54375
 20
-50.7014756944
 30
0.0
 11
24.54375
 21
-55.8403645833
 31
0.0
  0
LINE
  5
26E
330
1F
100
AcDbEntity
  8
0
  6
Continuous
 62
     7
370
    25
100
AcDbLine
 10
24.2659722222
 20
-50.7014756944
 30
0.0
 11
24.54375
 21
-50.7014756944
 31
0.0
  0
LINE
  5
26F
330
1F
100
AcDbEntity
  8
0
  6
Continuous
 62
     7
370
    25
100
AcDbLine
 10
24.2659722222
 20
-51.0204861111
 30
0.0
 11
24.2659722222
 21
-50.7014756944
 31
0.0
  0
LINE
  5
270
330
1F
100
AcDbEntity
  8
0
  6
Continuous
 62
     7
370
    25
100
AcDbLine
 10
16.2104166667
 20
-52.0903645833
 30
0.0
 11
22.8770833333
 21
-52.0903645833
 31
0.0
  0
LINE
  5
271
330
1F
100
AcDbEntity
  8
0
  6
Continuous
 62
     7
370
    25
100
AcDbLine
 10
14.8215277778
 20
-50.7014756944
 30
0.0
 11
14.8215277778
 21
-51.0204861111
 31
0.0
  0
LINE
  5
272
330
1F
100
AcDbEntity
  8
0
  6
Continuous
 62
     7
370
    25
100
AcDbLine
 10
14.54375
 20
-50.7014756944
 30
0.0
 11
14.8215277778
 21
-50.7014756944
 31
0.0
  0
LINE
  5
273
330
1F
100
AcDbEntity
  8
0
  6
Continuous
 62
     7
370
    25
100
AcDbLine
 10
14.54375
 20
-55.8403645833
 30
0.0
 11
14.54375
 21
-50.7014756944
 31
0.0
  0
LINE
  5
274
330
1F
100
AcDbEntity
  8
0
  6
Continuous
 62
     7
370
    25
100
AcDbLine
 10
14.8215277778
 20
-55.8403645833
 30
0.0
 11
14.54375
 21
-55.8403645833
 31
0.0
  0
LINE
  5
275
330
1F
100
AcDbEntity
  8
0
  6
Continuous
 62
     7
370
    25
100
AcDbLine
 10
14.8215277778
 20
-55.5213541667
 30
0.0
 11
14.8215277778
 21
-55.8403645833
 31
0.0
  0
LINE
  5
276
330
1F
100
AcDbEntity
  8
0
  6
Continuous
 62
     7
370
    25
100
AcDbLine
 10
18.9881944444
 20
-54.4514756944
 30
0.0
 11
16.2104166667
 21
-54.4514756944
 31
0.0
  0
LINE
  5
277
330
1F
100
AcDbEntity
  8
0
  6
Continuous
 62
     7
370
    25
100
AcDbLine
 10
18.9881944444
 20
-58.0625868056
 30
0.0
 11
18.9881944444
 21
-54.4514756944
 31
0.0
  0
LINE
  5
278
330
1F
100
AcDbEntity
  8
0
  6
Continuous
 62
     7
370
    25
100
AcDbLine
 10
16.2104166667
 20
-58.0625868056
 30
0.0
 11
18.9881944444
 21
-58.0625868056
 31
0.0
  0
LINE
  5
279
330
1F
100
AcDbEntity
  8
0
  6
Continuous
 62
     7
370
    25
100
AcDbLine
 10
14.8215277778
 20
-56.6736979167
 30
0.0
 11
14.8215277778
 21
-56.99921875
 31
0.0
  0
LINE
  5
27A
330
1F
100
AcDbEntity
  8
0
  6
Continuous
 62
     7
370
    25
100
AcDbLine
 10
14.54375
 20
-56.6736979167
 30
0.0
 11
14.8215277778
 21
-56.6736979167
 31
0.0
  0
LINE
  5
27B
330
1F
100
AcDbEntity
  8
0
  6
Continuous
 62
     7
370
    25
100
AcDbLine
 10
14.54375
 20
-61.8125868056
 30
0.0
 11
14.54375
 21
-56.6736979167
 31
0.0
  0
LINE
  5
27C
330
1F
100
AcDbEntity
  8
0
  6
Continuous
 62
     7
370
    25
100
AcDbLine
 10
14.8215277778
 20
-61.8125868056
 30
0.0
 11
14.54375
 21
-61.8125868056
 31
0.0
  0
LINE
  5
27D
330
1F
100
AcDbEntity
  8
0
  6
Continuous
 62
     7
370
    25
100
AcDbLine
 10
14.8215277778
 20
-61.4848958333
 30
0.0
 11
14.8215277778
 21
-61.8125868056
 31
0.0
  0
LINE
  5
27E
330
1F
100
AcDbEntity
  8
0
  6
Continuous
 62
     7
370
    25
100
AcDbLine
 10
22.8770833333
 20
-60.4236979167
 30
0.0
 11
16.2104166667
 21
-60.4236979167
 31
0.0
  0
LINE
  5
27F
330
1F
100
AcDbEntity
  8
0
  6
Continuous
 62
     7
370
    25
100
AcDbLine
 10
24.2659722222
 20
-61.8125868056
 30
0.0
 11
24.2659722222
 21
-61.4848958333
 31
0.0
  0
LINE
  5
280
330
1F
100
AcDbEntity
  8
0
  6
Continuous
 62
     7
370
    25
100
AcDbLine
 10
24.54375
 20
-61.8125868056
 30
0.0
 11
24.2659722222
 21
-61.8125868056
 31
0.0
  0
LINE
  5
281
330
1F
100
AcDbEntity
  8
0
  6
Continuous
 62
     7
370
    25
100
AcDbLine
 10
24.54375
 20
-56.6736979167
 30
0.0
 11
24.54375
 21
-61.8125868056
 31
0.0
  0
LINE
  5
282
330
1F
100
AcDbEntity
  8
0
  6
Continuous
 62
     7
370
    25
100
AcDbLine
 10
24.2659722222
 20
-56.6736979167
 30
0.0
 11
24.54375
 21
-56.6736979167
 31
0.0
  0
LINE
  5
283
330
1F
100
AcDbEntity
  8
0
  6
Continuous
 62
     7
370
    25
100
AcDbLine
 10
24.2659722222
 20
-56.99921875
 30
0.0
 11
24.2659722222
 21
-56.6736979167
 31
0.0
  0
LINE
  5
284
330
1F
100
AcDbEntity
  8
0
  6
Continuous
 62
     7
370
    25
100
AcDbLine
 10
19.6826388889
 20
-58.0625868056
 30
0.0
 11
22.8770833333
 21
-58.0625868056
 31
0.0
  0
LINE
  5
285
330
1F
100
AcDbEntity
  8
0
  6
Continuous
 62
     7
370
    25
100
AcDbLine
 10
19.6826388889
 20
-54.4514756944
 30
0.0
 11
19.6826388889
 21
-58.0625868056
 31
0.0
  0
LINE
  5
286
330
1F
100
AcDbEntity
  8
0
  6
Continuous
 62
     7
370
    25
100
AcDbLine
 10
146.5268229167
 20
-16.2104166667
 30
0.0
 11
146.5268229167
 21
-22.8770833333
 31
0.0
  0
LINE
  5
287
330
1F
100
AcDbEntity
  8
0
  6
Continuous
 62
     7
370
    25
100
AcDbLine
 10
147.9157118056
 20
-14.8215277778
 30
0.0
 11
147.5901909722
 21
-14.8215277778
 31
0.0
  0
LINE
  5
288
330
1F
100
AcDbEntity
  8
0
  6
Continuous
 62
     7
370
    25
100
AcDbLine
 10
147.9157118056
 20
-14.54375
 30
0.0
 11
147.9157118056
 21
-14.8215277778
 31
0.0
  0
LINE
  5
289
330
1F
100
AcDbEntity
  8
0
  6
Continuous
 62
     7
370
    25
100
AcDbLine
 10
142.7768229167
 20
-14.54375
 30
0.0
 11
147.9157118056
 21
-14.54375
 31
0.0
  0
LINE
  5
28A
330
1F
100
AcDbEntity
  8
0
  6
Continuous
 62
     7
370
    25
100
AcDbLine
 10
142.7768229167
 20
-14.8215277778
 30
0.0
 11
142.7768229167
 21
-14.54375
 31
0.0
  0
LINE
  5
28B
330
1F
100
AcDbEntity
  8
0
  6
Continuous
 62
     7
370
    25
100
AcDbLine
 10
143.1045138889
 20
-14.8215277778
 30
0.0
 11
142.7768229167
 21
-14.8215277778
 31
0.0
  0
LINE
  5
28C
330
1F
100
AcDbEntity
  8
0
  6
Continuous
 62
     7
370
    25
100
AcDbLine
 10
144.1657118056
 20
-22.8770833333
 30
0.0
 11
144.1657118056
 21
-16.2104166667
 31
0.0
  0
LINE
  5
28D
330
1F
100
AcDbEntity
  8
0
  6
Continuous
 62
     7
370
    25
100
AcDbLine
 10
142.7768229167
 20
-24.2659722222
 30
0.0
 11
143.1045138889
 21
-24.2659722222
 31
0.0
  0
LINE
  5
28E
330
1F
100
AcDbEntity
  8
0
  6
Continuous
 62
     7
370
    25
100
AcDbLine
 10
142.7768229167
 20
-24.54375
 30
0.0
 11
142.7768229167
 21
-24.2659722222
 31
0.0
  0
LINE
  5
28F
330
1F
100
AcDbEntity
  8
0
  6
Continuous
 62
     7
370
    25
100
AcDbLine
 10
147.9157118056
 20
-24.54375
 30
0.0
 11
142.7768229167
 21
-24.54375
 31
0.0
  0
LINE
  5
290
330
1F
100
AcDbEntity
  8
0
  6
Continuous
 62
     7
370
    25
100
AcDbLine
 10
147.9157118056
 20
-24.2659722222
 30
0.0
 11
147.9157118056
 21
-24.54375
 31
0.0
  0
LINE
  5
291
330
1F
100
AcDbEntity
  8
0
  6
Continuous
 62
     7
370
    25
100
AcDbLine
 10
147.5901909722
 20
-24.2659722222
 30
0.0
 11
147.9157118056
 21
-24.2659722222
 31
0.0
  0
LINE
  5
292
330
1F
100
AcDbEntity
  8
0
  6
Continuous
 62
     7
370
    25
100
AcDbLine
 10
102.0169270833
 20
-16.2104166667
 30
0.0
 11
102.0169270833
 21
-22.8770833333
 31
0.0
  0
LINE
  5
293
330
1F
100
AcDbEntity
  8
0
  6
Continuous
 62
     7
370
    25
100
AcDbLine
 10
103.4058159722
 20
-14.8215277778
 30
0.0
 11
103.0802951389
 21
-14.8215277778
 31
0.0
  0
LINE
  5
294
330
1F
100
AcDbEntity
  8
0
  6
Continuous
 62
     7
370
    25
100
AcDbLine
 10
103.4058159722
 20
-14.54375
 30
0.0
 11
103.4058159722
 21
-14.8215277778
 31
0.0
  0
LINE
  5
295
330
1F
100
AcDbEntity
  8
0
  6
Continuous
 62
     7
370
    25
100
AcDbLine
 10
98.2669270833
 20
-14.54375
 30
0.0
 11
103.4058159722
 21
-14.54375
 31
0.0
  0
LINE
  5
296
330
1F
100
AcDbEntity
  8
0
  6
Continuous
 62
     7
370
    25
100
AcDbLine
 10
98.2669270833
 20
-14.8215277778
 30
0.0
 11
98.2669270833
 21
-14.54375
 31
0.0
  0
LINE
  5
297
330
1F
100
AcDbEntity
  8
0
  6
Continuous
 62
     7
370
    25
100
AcDbLine
 10
98.5946180556
 20
-14.8215277778
 30
0.0
 11
98.2669270833
 21
-14.8215277778
 31
0.0
  0
LINE
  5
298
330
1F
100
AcDbEntity
  8
0
  6
Continuous
 62
     7
370
    25
100
AcDbLine
 10
99.6558159722
 20
-22.8770833333
 30
0.0
 11
99.6558159722
 21
-16.2104166667
 31
0.0
  0
LINE
  5
299
330
1F
100
AcDbEntity
  8
0
  6
Continuous
 62
     7
370
    25
100
AcDbLine
 10
98.2669270833
 20
-24.2659722222
 30
0.0
 11
98.5946180556
 21
-24.2659722222
 31
0.0
  0
LINE
  5
29A
330
1F
100
AcDbEntity
  8
0
  6
Continuous
 62
     7
370
    25
100
AcDbLine
 10
98.2669270833
 20
-24.54375
 30
0.0
 11
98.2669270833
 21
-24.2659722222
 31
0.0
  0
LINE
  5
29B
330
1F
100
AcDbEntity
  8
0
  6
Continuous
 62
     7
370
    25
100
AcDbLine
 10
103.4058159722
 20
-24.54375
 30
0.0
 11
98.2669270833
 21
-24.54375
 31
0.0
  0
LINE
  5
29C
330
1F
100
AcDbEntity
  8
0
  6
Continuous
 62
     7
370
    25
100
AcDbLine
 10
103.4058159722
 20
-24.2659722222
 30
0.0
 11
103.4058159722
 21
-24.54375
 31
0.0
  0
LINE
  5
29D
330
1F
100
AcDbEntity
  8
0
  6
Continuous
 62
     7
370
    25
100
AcDbLine
 10
103.0802951389
 20
-24.2659722222
 30
0.0
 11
103.4058159722
 21
-24.2659722222
 31
0.0
  0
LINE
  5
29E
330
1F
100
AcDbEntity
  8
0
  6
Continuous
 62
     7
370
    25
100
AcDbLine
 10
17.5993055556
 20
-146.9434895833
 30
0.0
 11
17.5993055556
 21
-147.2212673611
 31
0.0
  0
LINE
  5
29F
330
1F
100
AcDbEntity
  8
0
  6
Continuous
 62
     7
370
    25
100
AcDbLine
 10
14.54375
 20
-146.9434895833
 30
0.0
 11
17.5993055556
 21
-146.9434895833
 31
0.0
  0
LINE
  5
2A0
330
1F
100
AcDbEntity
  8
0
  6
Continuous
 62
     7
370
    25
100
AcDbLine
 10
14.54375
 20
-155.2768229167
 30
0.0
 11
14.54375
 21
-146.9434895833
 31
0.0
  0
LINE
  5
2A1
330
1F
100
AcDbEntity
  8
0
  6
Continuous
 62
     7
370
    25
100
AcDbLine
 10
14.8215277778
 20
-155.2768229167
 30
0.0
 11
14.54375
 21
-155.2768229167
 31
0.0
  0
LINE
  5
2A2
330
1F
100
AcDbEntity
  8
0
  6
Continuous
 62
     7
370
    25
100
AcDbLine
 10
14.8215277778
 20
-154.9491319444
 30
0.0
 11
14.8215277778
 21
-155.2768229167
 31
0.0
  0
LINE
  5
2A3
330
1F
100
AcDbEntity
  8
0
  6
Continuous
 62
     7
370
    25
100
AcDbLine
 10
22.8770833333
 20
-153.8879340278
 30
0.0
 11
16.2104166667
 21
-153.8879340278
 31
0.0
  0
LINE
  5
2A4
330
1F
100
AcDbEntity
  8
0
  6
Continuous
 62
     7
370
    25
100
AcDbLine
 10
24.2659722222
 20
-155.2768229167
 30
0.0
 11
24.2659722222
 21
-154.9491319444
 31
0.0
  0
LINE
  5
2A5
330
1F
100
AcDbEntity
  8
0
  6
Continuous
 62
     7
370
    25
100
AcDbLine
 10
24.54375
 20
-155.2768229167
 30
0.0
 11
24.2659722222
 21
-155.2768229167
 31
0.0
  0
LINE
  5
2A6
330
1F
100
AcDbEntity
  8
0
  6
Continuous
 62
     7
370
    25
100
AcDbLine
 10
24.54375
 20
-150.1379340278
 30
0.0
 11
24.54375
 21
-155.2768229167
 31
0.0
  0
LINE
  5
2A7
330
1F
100
AcDbEntity
  8
0
  6
Continuous
 62
     7
370
    25
100
AcDbLine
 10
24.2659722222
 20
-150.1379340278
 30
0.0
 11
24.54375
 21
-150.1379340278
 31
0.0
  0
LINE
  5
2A8
330
1F
100
AcDbEntity
  8
0
  6
Continuous
 62
     7
370
    25
100
AcDbLine
 10
24.2659722222
 20
-150.4634548611
 30
0.0
 11
24.2659722222
 21
-150.1379340278
 31
0.0
  0
LINE
  5
2A9
330
1F
100
AcDbEntity
  8
0
  6
Continuous
 62
     7
370
    25
100
AcDbLine
 10
19.8215277778
 20
-151.5268229167
 30
0.0
 11
22.8770833333
 21
-151.5268229167
 31
0.0
  0
LINE
  5
2AA
330
1F
100
AcDbEntity
  8
0
  6
Continuous
 62
     7
370
    25
100
AcDbLine
 10
19.8215277778
 20
-151.2490451389
 30
0.0
 11
19.8215277778
 21
-151.5268229167
 31
0.0
  0
LINE
  5
2AB
330
1F
100
AcDbEntity
  8
0
  6
Continuous
 62
     7
370
    25
100
AcDbLine
 10
22.1826388889
 20
-148.8879340278
 30
0.0
 11
22.1826388889
 21
-149.1657118056
 31
0.0
  0
LINE
  5
2AC
330
1F
100
AcDbEntity
  8
0
  6
Continuous
 62
     7
370
    25
100
AcDbLine
 10
16.7659722222
 20
-148.8879340278
 30
0.0
 11
22.1826388889
 21
-148.8879340278
 31
0.0
  0
LINE
  5
2AD
330
1F
100
AcDbEntity
  8
0
  6
Continuous
 62
     7
370
    25
100
AcDbLine
 10
16.7659722222
 20
-149.1657118056
 30
0.0
 11
16.7659722222
 21
-148.8879340278
 31
0.0
  0
LINE
  5
2AE
330
1F
100
AcDbEntity
  8
0
  6
Continuous
 62
     7
370
    25
100
AcDbLine
 10
19.1270833333
 20
-151.5268229167
 30
0.0
 11
19.1270833333
 21
-151.2490451389
 31
0.0
  0
LINE
  5
2AF
330
1F
100
AcDbEntity
  8
0
  6
Continuous
 62
     7
370
    25
100
AcDbLine
 10
15.2381944444
 20
-151.5268229167
 30
0.0
 11
19.1270833333
 21
-151.5268229167
 31
0.0
  0
LINE
  5
2B0
330
1F
100
AcDbEntity
  8
0
  6
Continuous
 62
     7
370
    25
100
AcDbLine
 10
15.2381944444
 20
-150.5546006944
 30
0.0
 11
15.2381944444
 21
-151.5268229167
 31
0.0
  0
MTEXT
  5
2B2
330
1F
100
AcDbEntity
  8
0
  6
Continuous
 62
     7
100
AcDbMText
 10
0.0
 20
-223.2695663917
 30
0.0
 40
4.83362
 41
0.0
 71
     1
 72
     1
  1
SOLIDWORKS Maker Product.
  7
SLDTEXTSTYLE0
 73
     1
 44
1.0
  0
MTEXT
  5
2B3
330
1F
100
AcDbEntity
  8
0
  6
Continuous
 62
     7
100
AcDbMText
 10
0.0
 20
-230.5199963917
 30
0.0
 40
4.83362
 41
0.0
 71
     1
 72
     1
  1
For Personal Use Only.
  7
SLDTEXTSTYLE0
 73
     1
 44
1.0
  0
ENDSEC
  0
SECTION
  2
OBJECTS
  0
DICTIONARY
  5
C
330
0
100
AcDbDictionary
281
     1
  3
ACAD_GROUP
350
D
  3
ACAD_LAYOUT
350
1A
  3
ACAD_MLINESTYLE
350
17
  3
ACAD_PLOTSETTINGS
350
19
  3
ACAD_PLOTSTYLENAME
350
E
  3
ACAD_SCALELIST
350
47
  3
DWGPROPS
350
2B4
  0
DICTIONARY
  5
D
102
{ACAD_REACTORS
330
C
102
}
330
C
100
AcDbDictionary
281
     1
  0
DICTIONARY
  5
1A
102
{ACAD_REACTORS
330
C
102
}
330
C
100
AcDbDictionary
281
     1
  3
Layout1
350
1E
  3
Layout2
350
26
  3
Model
350
22
  0
DICTIONARY
  5
17
102
{ACAD_REACTORS
330
C
102
}
330
C
100
AcDbDictionary
281
     1
  3
Standard
350
18
  0
DICTIONARY
  5
19
102
{ACAD_REACTORS
330
C
102
}
330
C
100
AcDbDictionary
281
     1
  0
ACDBDICTIONARYWDFLT
  5
E
102
{ACAD_REACTORS
330
C
102
}
330
C
100
AcDbDictionary
281
     1
  3
Normal
350
F
100
AcDbDictionaryWithDefault
340
F
  0
DICTIONARY
  5
47
102
{ACAD_REACTORS
330
C
102
}
330
C
100
AcDbDictionary
281
     1
  3
A0
350
48
  3
A1
350
49
  3
A2
350
4A
  3
A3
350
4B
  3
A4
350
4C
  3
A5
350
4D
  3
A6
350
4E
  3
A7
350
4F
  3
A8
350
50
  3
A9
350
51
  3
B0
350
52
  3
B1
350
53
  3
B2
350
54
  3
B3
350
55
  3
B4
350
56
  3
B5
350
57
  3
B6
350
58
  0
XRECORD
  5
2B4
102
{ACAD_REACTORS
330
C
102
}
330
C
100
AcDbXrecord
280
     1
  1
DWGPROPS COOKIE
  2

  3

  4

  6

  7

  8
Caden
  9

300
=
301
=
302
=
303
=
304
=
305
=
306
=
307
=
308
=
309
=
 40
0.0
 41
2460169.976665486
 42
2460169.976698831
  1

 90
        0
  0
LAYOUT
  5
1E
102
{ACAD_REACTORS
330
1A
102
}
330
1A
100
AcDbPlotSettings
  1

  2
none_device
  4

  6

 40
0.0
 41
0.0
 42
0.0
 43
0.0
 44
0.0
 45
0.0
 46
0.0
 47
0.0
 48
0.0
 49
0.0
140
0.0
141
0.0
142
1.0
143
1.0
 70
   688
 72
     1
 73
     0
 74
     5
  7

 75
    16
147
1.0
148
0.0
149
0.0
100
AcDbLayout
  1
Layout1
 70
     1
 71
     1
 10
0.0
 20
0.0
 11
420.0
 21
297.0
 12
0.0
 22
0.0
 32
0.0
 14
1.0000000000E+20
 24
1.0000000000E+20
 34
1.0000000000E+20
 15
-1.0000000000E+20
 25
-1.0000000000E+20
 35
-1.0000000000E+20
146
0.0
 13
0.0
 23
0.0
 33
0.0
 16
1.0
 26
0.0
 36
0.0
 17
0.0
 27
1.0
 37
0.0
 76
     0
330
1B
  0
LAYOUT
  5
26
102
{ACAD_REACTORS
330
1A
102
}
330
1A
100
AcDbPlotSettings
  1

  2
none_device
  4

  6

 40
0.0
 41
0.0
 42
0.0
 43
0.0
 44
0.0
 45
0.0
 46
0.0
 47
0.0
 48
0.0
 49
0.0
140
0.0
141
0.0
142
1.0
143
1.0
 70
   688
 72
     1
 73
     0
 74
     5
  7

 75
    16
147
1.0
148
0.0
149
0.0
100
AcDbLayout
  1
Layout2
 70
     1
 71
     2
 10
0.0
 20
0.0
 11
0.0
 21
0.0
 12
0.0
 22
0.0
 32
0.0
 14
0.0
 24
0.0
 34
0.0
 15
0.0
 25
0.0
 35
0.0
146
0.0
 13
0.0
 23
0.0
 33
0.0
 16
1.0
 26
0.0
 36
0.0
 17
0.0
 27
1.0
 37
0.0
 76
     0
330
23
  0
LAYOUT
  5
22
102
{ACAD_REACTORS
330
1A
102
}
330
1A
100
AcDbPlotSettings
  1

  2
none_device
  4
ANSI_A_(11.00_x_8.50_Inches)
  6

 40
6.35
 41
19.05
 42
6.35000508
 43
19.05000254
 44
279.4
 45
215.9
 46
20.9496403171
 47
195.77049873
 48
0.0
 49
0.0
140
0.0
141
0.0
142
0.0378627672
143
1.0
 70
  1696
 72
     0
 73
     0
 74
     0
  7

 75
     0
147
0.0179189148
148
-1300.4909072572
149
0.0
100
AcDbLayout
  1
Model
 70
     1
 71
     0
 10
0.0
 20
0.0
 11
420.0
 21
297.0
 12
0.0
 22
0.0
 32
0.0
 14
0.0
 24
-222.25
 34
0.0
 15
233.75
 25
0.0
 35
0.0
146
0.0
 13
0.0
 23
0.0
 33
0.0
 16
1.0
 26
0.0
 36
0.0
 17
0.0
 27
1.0
 37
0.0
 76
     0
330
1F
331
29
  0
MLINESTYLE
  5
18
102
{ACAD_REACTORS
330
17
102
}
330
17
100
AcDbMlineStyle
  2
Standard
 70
     0
  3

 62
   256
 51
90.0
 52
90.0
 71
     2
 49
0.5
 62
   256
  6
BYLAYER
 49
-0.5
 62
   256
  6
BYLAYER
  0
ACDBPLACEHOLDER
  5
F
102
{ACAD_REACTORS
330
E
102
}
330
E
  0
SCALE
  5
48
102
{ACAD_REACTORS
330
47
102
}
330
47
100
AcDbScale
 70
     0
300
1:1
140
1.0
141
1.0
290
     1
  0
SCALE
  5
49
102
{ACAD_REACTORS
330
47
102
}
330
47
100
AcDbScale
 70
     0
300
1:2
140
1.0
141
2.0
290
     0
  0
SCALE
  5
4A
102
{ACAD_REACTORS
330
47
102
}
330
47
100
AcDbScale
 70
     0
300
1:4
140
1.0
141
4.0
290
     0
  0
SCALE
  5
4B
102
{ACAD_REACTORS
330
47
102
}
330
47
100
AcDbScale
 70
     0
300
1:5
140
1.0
141
5.0
290
     0
  0
SCALE
  5
4C
102
{ACAD_REACTORS
330
47
102
}
330
47
100
AcDbScale
 70
     0
300
1:8
140
1.0
141
8.0
290
     0
  0
SCALE
  5
4D
102
{ACAD_REACTORS
330
47
102
}
330
47
100
AcDbScale
 70
     0
300
1:10
140
1.0
141
10.0
290
     0
  0
SCALE
  5
4E
102
{ACAD_REACTORS
330
47
102
}
330
47
100
AcDbScale
 70
     0
300
1:16
140
1.0
141
16.0
290
     0
  0
SCALE
  5
4F
102
{ACAD_REACTORS
330
47
102
}
330
47
100
AcDbScale
 70
     0
300
1:20
140
1.0
141
20.0
290
     0
  0
SCALE
  5
50
102
{ACAD_REACTORS
330
47
102
}
330
47
100
AcDbScale
 70
     0
300
1:30
140
1.0
141
30.0
290
     0
  0
SCALE
  5
51
102
{ACAD_REACTORS
330
47
102
}
330
47
100
AcDbScale
 70
     0
300
1:40
140
1.0
141
40.0
290
     0
  0
SCALE
  5
52
102
{ACAD_REACTORS
330
47
102
}
330
47
100
AcDbScale
 70
     0
300
1:50
140
1.0
141
50.0
290
     0
  0
SCALE
  5
53
102
{ACAD_REACTORS
330
47
102
}
330
47
100
AcDbScale
 70
     0
300
1:100
140
1.0
141
100.0
290
     0
  0
SCALE
  5
54
102
{ACAD_REACTORS
330
47
102
}
330
47
100
AcDbScale
 70
     0
300
2:1
140
2.0
141
1.0
290
     0
  0
SCALE
  5
55
102
{ACAD_REACTORS
330
47
102
}
330
47
100
AcDbScale
 70
     0
300
4:1
140
4.0
141
1.0
290
     0
  0
SCALE
  5
56
102
{ACAD_REACTORS
330
47
102
}
330
47
100
AcDbScale
 70
     0
300
8:1
140
8.0
141
1.0
290
     0
  0
SCALE
  5
57
102
{ACAD_REACTORS
330
47
102
}
330
47
100
AcDbScale
 70
     0
300
10:1
140
10.0
141
1.0
290
     0
  0
SCALE
  5
58
102
{ACAD_REACTORS
330
47
102
}
330
47
100
AcDbScale
 70
     0
300
100:1
140
100.0
141
1.0
290
     0
  0
ENDSEC
  0
EOF
