  0
SECTION
  2
HEADER
  9
$ACADVER
  1
AC1015
  9
$ACADMAINTVER
 70
     6
  9
$DWGCODEPAGE
  3
ANSI_1252
  9
$INSBASE
 10
0.0
 20
0.0
 30
0.0
  9
$EXTMIN
 10
0.0
 20
-222.25
 30
0.0
  9
$EXTMAX
 10
233.75
 20
0.0
 30
0.0
  9
$LIMMIN
 10
0.0
 20
0.0
  9
$LIMMAX
 10
420.0
 20
297.0
  9
$ORTHOMODE
 70
     0
  9
$REGENMODE
 70
     1
  9
$FILLMODE
 70
     1
  9
$QTEXTMODE
 70
     0
  9
$MIRRTEXT
 70
     1
  9
$LTSCALE
 40
1.0
  9
$ATTMODE
 70
     1
  9
$TEXTSIZE
 40
3.5
  9
$TRACEWID
 40
1.0
  9
$TEXTSTYLE
  7
Standard
  9
$CLAYER
  8
0
  9
$CELTYPE
  6
ByLayer
  9
$CECOLOR
 62
   256
  9
$CELTSCALE
 40
1.0
  9
$DISPSILH
 70
     0
  9
$DIMSCALE
 40
1.0
  9
$DIMASZ
 40
3.302
  9
$DIMEXO
 40
0.0
  9
$DIMDLI
 40
3.75
  9
$DIMRND
 40
0.0
  9
$DIMDLE
 40
0.0
  9
$DIMEXE
 40
3.175
  9
$DIMTP
 40
0.0
  9
$DIMTM
 40
0.0
  9
$DIMTXT
 40
3.5
  9
$DIMCEN
 40
2.5
  9
$DIMTSZ
 40
0.0
  9
$DIMTOL
 70
     0
  9
$DIMLIM
 70
     0
  9
$DIMTIH
 70
     1
  9
$DIMTOH
 70
     1
  9
$DIMSE1
 70
     0
  9
$DIMSE2
 70
     0
  9
$DIMTAD
 70
     1
  9
$DIMZIN
 70
     1
  9
$DIMBLK
  1

  9
$DIMASO
 70
     1
  9
$DIMSHO
 70
     1
  9
$DIMPOST
  1

  9
$DIMAPOST
  1

  9
$DIMALT
 70
     0
  9
$DIMALTD
 70
     3
  9
$DIMALTF
 40
0.0393700787
  9
$DIMLFAC
 40
1.0
  9
$DIMTOFL
 70
     1
  9
$DIMTVP
 40
0.0
  9
$DIMTIX
 70
     0
  9
$DIMSOXD
 70
     0
  9
$DIMSAH
 70
     0
  9
$DIMBLK1
  1

  9
$DIMBLK2
  1

  9
$DIMSTYLE
  2
ISO-25
  9
$DIMCLRD
 70
     0
  9
$DIMCLRE
 70
     0
  9
$DIMCLRT
 70
     0
  9
$DIMTFAC
 40
1.0
  9
$DIMGAP
 40
1.524
  9
$DIMJUST
 70
     0
  9
$DIMSD1
 70
     0
  9
$DIMSD2
 70
     0
  9
$DIMTOLJ
 70
     0
  9
$DIMTZIN
 70
     1
  9
$DIMALTZ
 70
     0
  9
$DIMALTTZ
 70
     0
  9
$DIMUPT
 70
     0
  9
$DIMDEC
 70
     2
  9
$DIMTDEC
 70
     2
  9
$DIMALTU
 70
     2
  9
$DIMALTTD
 70
     3
  9
$DIMTXSTY
  7
Standard
  9
$DIMAUNIT
 70
     0
  9
$DIMADEC
 70
     2
  9
$DIMALTRND
 40
0.0
  9
$DIMAZIN
 70
     0
  9
$DIMDSEP
 70
    44
  9
$DIMATFIT
 70
     3
  9
$DIMFRAC
 70
     0
  9
$DIMLDRBLK
  1

  9
$DIMLUNIT
 70
     2
  9
$DIMLWD
 70
    -2
  9
$DIMLWE
 70
    -2
  9
$DIMTMOVE
 70
     0
  9
$LUNITS
 70
     2
  9
$LUPREC
 70
     6
  9
$SKETCHINC
 40
1.0
  9
$FILLETRAD
 40
0.0
  9
$AUNITS
 70
     0
  9
$AUPREC
 70
     6
  9
$MENU
  1
.
  9
$ELEVATION
 40
0.0
  9
$PELEVATION
 40
0.0
  9
$THICKNESS
 40
0.0
  9
$LIMCHECK
 70
     0
  9
$CHAMFERA
 40
0.0
  9
$CHAMFERB
 40
0.0
  9
$CHAMFERC
 40
0.0
  9
$CHAMFERD
 40
0.0
  9
$SKPOLY
 70
     0
  9
$TDCREATE
 40
2460169.771850614
  9
$TDUCREATE
 40
2460169.980183947
  9
$TDUPDATE
 40
2460169.771881134
  9
$TDUUPDATE
 40
2460169.980214468
  9
$TDINDWG
 40
0.0000000116
  9
$TDUSRTIMER
 40
0.0000000116
  9
$USRTIMER
 70
     1
  9
$ANGBASE
 50
0.0
  9
$ANGDIR
 70
     0
  9
$PDMODE
 70
     0
  9
$PDSIZE
 40
-1.0
  9
$PLINEWID
 40
0.0
  9
$SPLFRAME
 70
     0
  9
$SPLINETYPE
 70
     6
  9
$SPLINESEGS
 70
     8
  9
$HANDSEED
  5
2A5
  9
$SURFTAB1
 70
     6
  9
$SURFTAB2
 70
     6
  9
$SURFTYPE
 70
     6
  9
$SURFU
 70
     6
  9
$SURFV
 70
     6
  9
$UCSBASE
  2

  9
$UCSNAME
  2

  9
$UCSORG
 10
0.0
 20
0.0
 30
0.0
  9
$UCSXDIR
 10
1.0
 20
0.0
 30
0.0
  9
$UCSYDIR
 10
0.0
 20
1.0
 30
0.0
  9
$UCSORTHOREF
  2

  9
$UCSORTHOVIEW
 70
     0
  9
$UCSORGTOP
 10
0.0
 20
0.0
 30
0.0
  9
$UCSORGBOTTOM
 10
0.0
 20
0.0
 30
0.0
  9
$UCSORGLEFT
 10
0.0
 20
0.0
 30
0.0
  9
$UCSORGRIGHT
 10
0.0
 20
0.0
 30
0.0
  9
$UCSORGFRONT
 10
0.0
 20
0.0
 30
0.0
  9
$UCSORGBACK
 10
0.0
 20
0.0
 30
0.0
  9
$PUCSBASE
  2

  9
$PUCSNAME
  2

  9
$PUCSORG
 10
0.0
 20
0.0
 30
0.0
  9
$PUCSXDIR
 10
1.0
 20
0.0
 30
0.0
  9
$PUCSYDIR
 10
0.0
 20
1.0
 30
0.0
  9
$PUCSORTHOREF
  2

  9
$PUCSORTHOVIEW
 70
     0
  9
$PUCSORGTOP
 10
0.0
 20
0.0
 30
0.0
  9
$PUCSORGBOTTOM
 10
0.0
 20
0.0
 30
0.0
  9
$PUCSORGLEFT
 10
0.0
 20
0.0
 30
0.0
  9
$PUCSORGRIGHT
 10
0.0
 20
0.0
 30
0.0
  9
$PUCSORGFRONT
 10
0.0
 20
0.0
 30
0.0
  9
$PUCSORGBACK
 10
0.0
 20
0.0
 30
0.0
  9
$USERI1
 70
     0
  9
$USERI2
 70
     0
  9
$USERI3
 70
     0
  9
$USERI4
 70
     0
  9
$USERI5
 70
     0
  9
$USERR1
 40
0.0
  9
$USERR2
 40
0.0
  9
$USERR3
 40
0.0
  9
$USERR4
 40
0.0
  9
$USERR5
 40
0.0
  9
$WORLDVIEW
 70
     1
  9
$SHADEDGE
 70
     3
  9
$SHADEDIF
 70
    70
  9
$TILEMODE
 70
     1
  9
$MAXACTVP
 70
    64
  9
$PINSBASE
 10
0.0
 20
0.0
 30
0.0
  9
$PLIMCHECK
 70
     0
  9
$PEXTMIN
 10
1.0000000000E+20
 20
1.0000000000E+20
 30
1.0000000000E+20
  9
$PEXTMAX
 10
-1.0000000000E+20
 20
-1.0000000000E+20
 30
-1.0000000000E+20
  9
$PLIMMIN
 10
0.0
 20
0.0
  9
$PLIMMAX
 10
420.0
 20
297.0
  9
$UNITMODE
 70
     0
  9
$VISRETAIN
 70
     1
  9
$PLINEGEN
 70
     0
  9
$PSLTSCALE
 70
     1
  9
$TREEDEPTH
 70
  3020
  9
$CMLSTYLE
  2
Standard
  9
$CMLJUST
 70
     0
  9
$CMLSCALE
 40
20.0
  9
$PROXYGRAPHICS
 70
     1
  9
$MEASUREMENT
 70
     1
  9
$CELWEIGHT
370
    -1
  9
$ENDCAPS
280
     0
  9
$JOINSTYLE
280
     0
  9
$LWDISPLAY
290
     1
  9
$INSUNITS
 70
     4
  9
$HYPERLINKBASE
  1

  9
$STYLESHEET
  1

  9
$XEDIT
290
     1
  9
$CEPSNTYPE
380
     0
  9
$PSTYLEMODE
290
     1
  9
$FINGERPRINTGUID
  2
{91bbac7a-ead5-4c3d-9cff-bf1f6dd97120}
  9
$VERSIONGUID
  2
{FAEB1C32-E019-11D5-929B-00C0DF256EC4}
  9
$EXTNAMES
290
     1
  9
$PSVPSCALE
 40
0.0
  9
$OLESTARTUP
290
     0
  0
ENDSEC
  0
SECTION
  2
CLASSES
  0
CLASS
  1
ACDBDICTIONARYWDFLT
  2
AcDbDictionaryWithDefault
  3
ObjectDBX Classes
 90
        0
280
     0
281
     0
  0
CLASS
  1
VISUALSTYLE
  2
AcDbVisualStyle
  3
ObjectDBX Classes
 90
     4095
280
     0
281
     0
  0
CLASS
  1
MATERIAL
  2
AcDbMaterial
  3
ObjectDBX Classes
 90
     1153
280
     0
281
     0
  0
CLASS
  1
SCALE
  2
AcDbScale
  3
ObjectDBX Classes
 90
     1153
280
     0
281
     0
  0
CLASS
  1
TABLESTYLE
  2
AcDbTableStyle
  3
ObjectDBX Classes
 90
     4095
280
     0
281
     0
  0
CLASS
  1
MLEADERSTYLE
  2
AcDbMLeaderStyle
  3
ACDB_MLEADERSTYLE_CLASS
 90
     4095
280
     0
281
     0
  0
CLASS
  1
SUN
  2
AcDbSun
  3
SCENEOE
 90
     1153
280
     0
281
     0
  0
CLASS
  1
ACDBPLACEHOLDER
  2
AcDbPlaceHolder
  3
ObjectDBX Classes
 90
        0
280
     0
281
     0
  0
CLASS
  1
LAYOUT
  2
AcDbLayout
  3
ObjectDBX Classes
 90
        0
280
     0
281
     0
  0
ENDSEC
  0
SECTION
  2
TABLES
  0
TABLE
  2
VPORT
  5
8
330
0
100
AcDbSymbolTable
 70
     1
  0
VPORT
  5
29
330
8
100
AcDbSymbolTableRecord
100
AcDbViewportTableRecord
  2
*Active
 70
     0
 10
0.0
 20
0.0
 11
1.0
 21
1.0
 12
116.875
 22
-111.125
 13
0.0
 23
0.0
 14
10.0
 24
10.0
 15
10.0
 25
10.0
 16
0.0
 26
0.0
 36
1.0
 17
0.0
 27
0.0
 37
0.0
 40
226.695
 41
1.0517435321
 42
50.0
 43
0.0
 44
0.0
 50
0.0
 51
0.0
 71
     0
 72
   100
 73
     1
 74
     3
 75
     0
 76
     0
 77
     0
 78
     0
281
     0
 65
     1
110
0.0
120
0.0
130
0.0
111
1.0
121
0.0
131
0.0
112
0.0
122
1.0
132
0.0
 79
     0
146
0.0
  0
ENDTAB
  0
TABLE
  2
LTYPE
  5
5
330
0
100
AcDbSymbolTable
 70
     6
  0
LTYPE
  5
14
330
5
100
AcDbSymbolTableRecord
100
AcDbLinetypeTableRecord
  2
ByBlock
 70
     0
  3

 72
    65
 73
     0
 40
0.0
  0
LTYPE
  5
15
330
5
100
AcDbSymbolTableRecord
100
AcDbLinetypeTableRecord
  2
ByLayer
 70
     0
  3

 72
    65
 73
     0
 40
0.0
  0
LTYPE
  5
16
330
5
100
AcDbSymbolTableRecord
100
AcDbLinetypeTableRecord
  2
Continuous
 70
     0
  3
Solid line
 72
    65
 73
     0
 40
0.0
  0
LTYPE
  5
5E
330
5
100
AcDbSymbolTableRecord
100
AcDbLinetypeTableRecord
  2
HIDDEN
 70
     0
  3
Hidden __ __ __ __ __ __ __ __ __ __ __ __ __ __
 72
    65
 73
     2
 40
1.905
 49
1.27
 74
     0
 49
-0.635
 74
     0
  0
LTYPE
  5
5F
330
5
100
AcDbSymbolTableRecord
100
AcDbLinetypeTableRecord
  2
PHANTOM
 70
     0
  3
Phantom ______  __  __  ______  __  __  ______
 72
    65
 73
     6
 40
12.7
 49
6.35
 74
     0
 49
-1.27
 74
     0
 49
1.27
 74
     0
 49
-1.27
 74
     0
 49
1.27
 74
     0
 49
-1.27
 74
     0
  0
LTYPE
  5
60
330
5
100
AcDbSymbolTableRecord
100
AcDbLinetypeTableRecord
  2
CENTER
 70
     0
  3
Center ____ _ ____ _ ____ _ ____ _ ____ _ ____
 72
    65
 73
     4
 40
10.16
 49
6.35
 74
     0
 49
-1.27
 74
     0
 49
1.27
 74
     0
 49
-1.27
 74
     0
  0
LTYPE
  5
61
330
5
100
AcDbSymbolTableRecord
100
AcDbLinetypeTableRecord
  2
CENTERX2
 70
     0
  3
Center (2x) ________  __  ________  __  _____
 72
    65
 73
     4
 40
20.32
 49
12.7
 74
     0
 49
-2.54
 74
     0
 49
2.54
 74
     0
 49
-2.54
 74
     0
  0
LTYPE
  5
62
330
5
100
AcDbSymbolTableRecord
100
AcDbLinetypeTableRecord
  2
DOT2
 70
     0
  3
Dot (.5x) ........................................
 72
    65
 73
     2
 40
0.635
 49
0.0
 74
     0
 49
-0.635
 74
     0
  0
ENDTAB
  0
TABLE
  2
LAYER
  5
2
330
0
100
AcDbSymbolTable
 70
     1
  0
LAYER
  5
10
330
2
100
AcDbSymbolTableRecord
100
AcDbLayerTableRecord
  2
0
 70
     0
 62
     7
  6
Continuous
370
    -3
390
F
  0
ENDTAB
  0
TABLE
  2
STYLE
  5
3
330
0
100
AcDbSymbolTable
 70
     2
  0
STYLE
  5
11
330
3
100
AcDbSymbolTableRecord
100
AcDbTextStyleTableRecord
  2
Standard
 70
     0
 40
0.0
 41
1.0
 50
0.0
 71
     0
 42
3.5
  3
txt
  4

  0
STYLE
  5
2A1
330
3
100
AcDbSymbolTableRecord
100
AcDbTextStyleTableRecord
  2
SLDTEXTSTYLE0
 70
     0
 40
0.0
 41
0.7
 50
0.0
 71
     0
 42
3.5
  3
TXT
  4

  0
ENDTAB
  0
TABLE
  2
VIEW
  5
6
330
0
100
AcDbSymbolTable
 70
     0
  0
ENDTAB
  0
TABLE
  2
UCS
  5
7
330
0
100
AcDbSymbolTable
 70
     0
  0
ENDTAB
  0
TABLE
  2
APPID
  5
9
330
0
100
AcDbSymbolTable
 70
     1
  0
APPID
  5
12
330
9
100
AcDbSymbolTableRecord
100
AcDbRegAppTableRecord
  2
ACAD
 70
     0
  0
ENDTAB
  0
TABLE
  2
DIMSTYLE
  5
A
330
0
100
AcDbSymbolTable
 70
     1
100
AcDbDimStyleTable
  0
DIMSTYLE
105
27
330
A
100
AcDbSymbolTableRecord
100
AcDbDimStyleTableRecord
  2
ISO-25
 70
     0
 41
2.5
 42
0.625
 43
3.75
 44
1.25
 73
     0
 74
     0
 77
     1
 78
     8
140
2.5
141
2.5
143
0.0393700787
147
0.625
171
     3
172
     1
178
     0
271
     2
272
     2
274
     3
278
    44
283
     0
284
     8
340
11
  0
ENDTAB
  0
TABLE
  2
BLOCK_RECORD
  5
1
330
0
100
AcDbSymbolTable
 70
     1
  0
BLOCK_RECORD
  5
1F
330
1
100
AcDbSymbolTableRecord
100
AcDbBlockTableRecord
  2
*Model_Space
340
22
  0
BLOCK_RECORD
  5
1B
330
1
100
AcDbSymbolTableRecord
100
AcDbBlockTableRecord
  2
*Paper_Space
340
1E
  0
BLOCK_RECORD
  5
23
330
1
100
AcDbSymbolTableRecord
100
AcDbBlockTableRecord
  2
*Paper_Space0
340
26
  0
ENDTAB
  0
ENDSEC
  0
SECTION
  2
BLOCKS
  0
BLOCK
  5
20
330
1F
100
AcDbEntity
  8
0
100
AcDbBlockBegin
  2
*Model_Space
 70
     0
 10
0.0
 20
0.0
 30
0.0
  3
*Model_Space
  1

  0
ENDBLK
  5
21
330
1F
100
AcDbEntity
  8
0
100
AcDbBlockEnd
  0
BLOCK
  5
1C
330
1B
100
AcDbEntity
 67
     1
  8
0
100
AcDbBlockBegin
  2
*Paper_Space
 70
     0
 10
0.0
 20
0.0
 30
0.0
  3
*Paper_Space
  1

  0
ENDBLK
  5
1D
330
1B
100
AcDbEntity
 67
     1
  8
0
100
AcDbBlockEnd
  0
BLOCK
  5
24
330
23
100
AcDbEntity
  8
0
100
AcDbBlockBegin
  2
*Paper_Space0
 70
     0
 10
0.0
 20
0.0
 30
0.0
  3
*Paper_Space0
  1

  0
ENDBLK
  5
25
330
23
100
AcDbEntity
  8
0
100
AcDbBlockEnd
  0
ENDSEC
  0
SECTION
  2
ENTITIES
  0
SPLINE
  5
63
330
1F
100
AcDbEntity
  8
0
  6
Continuous
 62
     7
370
    25
100
AcDbSpline
210
0.0
220
0.0
230
1.0
 70
     8
 71
     3
 72
    23
 73
    19
 74
     0
 42
0.00000001
 43
0.00000001
 40
0.0
 40
0.0
 40
0.0
 40
0.0
 40
0.0846548848337132
 40
0.1619950830264
 40
0.2299951494672511
 40
0.2897913029205962
 40
0.3412642824757844
 40
0.3856016764313387
 40
0.4210869831847753
 40
0.448854449949513
 40
0.499406856950575
 40
0.5527961492198729
 40
0.6106050382829654
 40
0.6740865255897281
 40
0.7442290364158184
 40
0.8213146392637455
 40
0.9058533373917749
 40
1.0
 40
1.0
 40
1.0
 40
1.0
 10
57.09036458333352
 20
-22.87708333333276
 30
0.0
 10
57.09116963362016
 20
-22.93567610097146
 30
0.0
 10
57.0927101730501
 20
-23.04779887187856
 30
0.0
 10
57.09362357152034
 20
-23.20700231820043
 30
0.0
 10
57.09964300195578
 20
-23.3489350169116
 30
0.0
 10
57.111500609366
 20
-23.47248792210802
 30
0.0
 10
57.12186489934638
 20
-23.57967203142551
 30
0.0
 10
57.13334711126795
 20
-23.66992758092289
 30
0.0
 10
57.15069095667345
 20
-23.74249704897094
 30
0.0
 10
57.17683147752492
 20
-23.81700789413128
 30
0.0
 10
57.22356678887663
 20
-23.89618260033451
 30
0.0
 10
57.29644227025379
 20
-23.98177866518371
 30
0.0
 10
57.3892946024433
 20
-24.05993261789548
 30
0.0
 10
57.50073985131863
 20
-24.13220139722717
 30
0.0
 10
57.63380809874469
 20
-24.19355795021576
 30
0.0
 10
57.78923089527341
 20
-24.2354612212872
 30
0.0
 10
57.96475924043031
 20
-24.26178210396783
 30
0.0
 10
58.08852323066591
 20
-24.26452633018633
 30
0.0
 10
58.1537326388891
 20
-24.26597222222163
 30
0.0
  0
SPLINE
  5
65
330
1F
100
AcDbEntity
  8
0
  6
Continuous
 62
     7
370
    25
100
AcDbSpline
210
0.0
220
0.0
230
1.0
 70
     8
 71
     3
 72
    15
 73
    11
 74
     0
 42
0.00000001
 43
0.00000001
 40
0.0
 40
0.0
 40
0.0
 40
0.0
 40
0.0613943520403088
 40
0.1398538629143153
 40
0.2347602763706147
 40
0.3503529954263541
 40
0.484827155322669
 40
0.6382896720196851
 40
0.8083672866041928
 40
1.0
 40
1.0
 40
1.0
 40
1.0
 10
57.17065972222233
 20
-15.31197916666609
 30
0.0
 10
57.16357149779684
 20
-15.32916843312057
 30
0.0
 10
57.14742480784628
 20
-15.36832489026091
 30
0.0
 10
57.13541974544944
 20
-15.4385439120594
 30
0.0
 10
57.11801215758908
 20
-15.52401763208418
 30
0.0
 10
57.10922783155701
 20
-15.62802532109038
 30
0.0
 10
57.10036627377185
 20
-15.74950888055093
 30
0.0
 10
57.09345886515666
 20
-15.88771919591214
 30
0.0
 10
57.09273446809962
 20
-16.04332111007688
 30
0.0
 10
57.09118531733426
 20
-16.15254845018694
 30
0.0
 10
57.09036458333344
 20
-16.21041666666607
 30
0.0
  0
SPLINE
  5
66
330
1F
100
AcDbEntity
  8
0
  6
Continuous
 62
     7
370
    25
100
AcDbSpline
210
0.0
220
0.0
230
1.0
 70
     8
 71
     3
 72
    11
 73
     7
 74
     0
 42
0.00000001
 43
0.00000001
 40
0.0
 40
0.0
 40
0.0
 40
0.0
 40
0.2322074352791609
 40
0.4697021905392589
 40
0.7270458402700734
 40
1.0
 40
1.0
 40
1.0
 40
1.0
 10
57.46579861111123
 20
-14.97126736111053
 30
0.0
 10
57.43527039727805
 20
-14.9896427185576
 30
0.0
 10
57.37351884787804
 20
-15.02681183691272
 30
0.0
 10
57.29445776046064
 20
-15.10630737401523
 30
0.0
 10
57.22498819376103
 20
-15.20156707812476
 30
0.0
 10
57.18912115508154
 20
-15.27445988254632
 30
0.0
 10
57.17065972222233
 20
-15.31197916666609
 30
0.0
  0
SPLINE
  5
67
330
1F
100
AcDbEntity
  8
0
  6
Continuous
 62
     7
370
    25
100
AcDbSpline
210
0.0
220
0.0
230
1.0
 70
     8
 71
     3
 72
    11
 73
     7
 74
     0
 42
0.00000001
 43
0.00000001
 40
0.0
 40
0.0
 40
0.0
 40
0.0
 40
0.2869538933514393
 40
0.5461988668811921
 40
0.781657462202783
 40
1.0
 40
1.0
 40
1.0
 40
1.0
 10
58.15373263888898
 20
-14.82152777777718
 30
0.0
 10
58.08561564925631
 20
-14.82282692790386
 30
0.0
 10
57.95595920125281
 20
-14.82529977926968
 30
0.0
 10
57.77226545112149
 20
-14.85363871491804
 30
0.0
 10
57.60874971350758
 20
-14.9000596078479
 30
0.0
 10
57.51223556771545
 20
-14.94813587563955
 30
0.0
 10
57.46579861111123
 20
-14.97126736111053
 30
0.0
  0
SPLINE
  5
6D
330
1F
100
AcDbEntity
  8
0
  6
Continuous
 62
     7
370
    25
100
AcDbSpline
210
0.0
220
0.0
230
1.0
 70
     8
 71
     3
 72
    23
 73
    19
 74
     0
 42
0.00000001
 43
0.00000001
 40
0.0
 40
0.0
 40
0.0
 40
0.0
 40
0.0846127534506955
 40
0.1619144606629829
 40
0.2298806845577117
 40
0.2895648750439977
 40
0.3420514708676082
 40
0.3854965674004628
 40
0.4217551846928418
 40
0.4495088320332219
 40
0.4986124906573489
 40
0.551975211929283
 40
0.6097553304323343
 40
0.6732052240175824
 40
0.7433128260372264
 40
0.8203600646127891
 40
0.9048566891820637
 40
1.0
 40
1.0
 40
1.0
 40
1.0
 10
54.72925347222233
 20
-16.2104166666661
 30
0.0
 10
54.72842499519479
 20
-16.1518252040959
 30
0.0
 10
54.7268396264931
 20
-16.0397049305601
 30
0.0
 10
54.72622796499225
 20
-15.8804846749255
 30
0.0
 10
54.71925560113119
 20
-15.73866210150642
 30
0.0
 10
54.71028473811217
 20
-15.61428486089218
 30
0.0
 10
54.70153502594746
 20
-15.50670604449922
 30
0.0
 10
54.68418184840949
 20
-15.41682076910149
 30
0.0
 10
54.67208160361186
 20
-15.34316943289386
 30
0.0
 10
54.64483534006921
 20
-15.26938882042564
 30
0.0
 10
54.60022126786946
 20
-15.19033605538873
 30
0.0
 10
54.52737373190888
 20
-15.1057900583788
 30
0.0
 10
54.43470730705985
 20
-15.02754634151974
 30
0.0
 10
54.32320497857302
 20
-14.95530512350038
 30
0.0
 10
54.1901543723303
 20
-14.89394004889914
 30
0.0
 10
54.0347263141249
 20
-14.85203933432636
 30
0.0
 10
53.85848232426849
 20
-14.82561053926101
 30
0.0
 10
53.73399055521053
 20
-14.82294142817336
 30
0.0
 10
53.66805555555565
 20
-14.82152777777723
 30
0.0
  0
SPLINE
  5
6F
330
1F
100
AcDbEntity
  8
0
  6
Continuous
 62
     7
370
    25
100
AcDbSpline
210
0.0
220
0.0
230
1.0
 70
     8
 71
     3
 72
    15
 73
    11
 74
     0
 42
0.00000001
 43
0.00000001
 40
0.0
 40
0.0
 40
0.0
 40
0.0
 40
0.061392956484742
 40
0.1375125657304183
 40
0.2347752365658268
 40
0.3503653280824224
 40
0.4848364312453929
 40
0.6359029609429149
 40
0.8083716426091333
 40
1.0
 40
1.0
 40
1.0
 40
1.0
 10
54.64895833333352
 20
-23.77552083333277
 30
0.0
 10
54.65601399684687
 20
-23.75832518527425
 30
0.0
 10
54.67181780314984
 20
-23.71980907822681
 30
0.0
 10
54.68478855318022
 20
-23.64979865051828
 30
0.0
 10
54.70127328402543
 20
-23.56414226214065
 30
0.0
 10
54.71048782961695
 20
-23.4594922030822
 30
0.0
 10
54.71914265932698
 20
-23.33870474087421
 30
0.0
 10
54.72626331495943
 20
-23.20050971629512
 30
0.0
 10
54.72684217948577
 20
-23.04490070510457
 30
0.0
 10
54.72842199669643
 20
-22.93495106351
 30
0.0
 10
54.7292534722224
 20
-22.87708333333277
 30
0.0
  0
SPLINE
  5
70
330
1F
100
AcDbEntity
  8
0
  6
Continuous
 62
     7
370
    25
100
AcDbSpline
210
0.0
220
0.0
230
1.0
 70
     8
 71
     3
 72
    11
 73
     7
 74
     0
 42
0.00000001
 43
0.00000001
 40
0.0
 40
0.0
 40
0.0
 40
0.0
 40
0.2333588799629273
 40
0.4720312980874316
 40
0.7278840296407335
 40
1.0
 40
1.0
 40
1.0
 40
1.0
 10
54.35815972222241
 20
-24.11623263888833
 30
0.0
 10
54.388658246379
 20
-24.09783437852951
 30
0.0
 10
54.45034974039741
 20
-24.06061893285584
 30
0.0
 10
54.52958078062452
 20
-23.98178651790808
 30
0.0
 10
54.59672300275668
 20
-23.88569077644391
 30
0.0
 10
54.631192629078
 20
-23.8129906187356
 30
0.0
 10
54.64895833333352
 20
-23.77552083333277
 30
0.0
  0
SPLINE
  5
71
330
1F
100
AcDbEntity
  8
0
  6
Continuous
 62
     7
370
    25
100
AcDbSpline
210
0.0
220
0.0
230
1.0
 70
     8
 71
     3
 72
    11
 73
     7
 74
     0
 42
0.00000001
 43
0.00000001
 40
0.0
 40
0.0
 40
0.0
 40
0.0
 40
0.2861169829655843
 40
0.5446058600775597
 40
0.782294265333147
 40
1.0
 40
1.0
 40
1.0
 40
1.0
 10
53.66805555555576
 20
-24.26597222222167
 30
0.0
 10
53.73618029000745
 20
-24.26469967798257
 30
0.0
 10
53.86585147979169
 20
-24.26227746926696
 30
0.0
 10
54.05013289159055
 20
-24.23348983303343
 30
0.0
 10
54.2146279378192
 20
-24.18789898140487
 30
0.0
 10
54.31173616198834
 20
-24.139412220905
 30
0.0
 10
54.35815972222242
 20
-24.11623263888833
 30
0.0
  0
SPLINE
  5
77
330
1F
100
AcDbEntity
  8
0
  6
Continuous
 62
     7
370
    25
100
AcDbSpline
210
0.0
220
0.0
230
1.0
 70
     8
 71
     3
 72
    23
 73
    19
 74
     0
 42
0.00000001
 43
0.00000001
 40
0.0
 40
0.0
 40
0.0
 40
0.0
 40
0.0846548848337132
 40
0.1619950830264
 40
0.2299951494672509
 40
0.2897913029205963
 40
0.3412642824757846
 40
0.3856016764313388
 40
0.4210869831847754
 40
0.4488544499495131
 40
0.4994068569505768
 40
0.5527961492198724
 40
0.610605038282965
 40
0.6740865255897248
 40
0.7442290364158151
 40
0.8213146392637454
 40
0.9058533373917714
 40
1.0
 40
1.0
 40
1.0
 40
1.0
 10
68.75703125000018
 20
-22.87708333333262
 30
0.0
 10
68.75783630028681
 20
-22.93567610097132
 30
0.0
 10
68.75937683971677
 20
-23.04779887187844
 30
0.0
 10
68.76029023818704
 20
-23.20700231820029
 30
0.0
 10
68.76630966862247
 20
-23.34893501691147
 30
0.0
 10
68.77816727603269
 20
-23.47248792210789
 30
0.0
 10
68.78853156601306
 20
-23.57967203142539
 30
0.0
 10
68.80001377793462
 20
-23.66992758092275
 30
0.0
 10
68.81735762334014
 20
-23.74249704897082
 30
0.0
 10
68.84349814419157
 20
-23.81700789413116
 30
0.0
 10
68.89023345554332
 20
-23.89618260033437
 30
0.0
 10
68.96310893692046
 20
-23.9817786651836
 30
0.0
 10
69.05596126910996
 20
-24.05993261789534
 30
0.0
 10
69.16740651798533
 20
-24.13220139722705
 30
0.0
 10
69.30047476541134
 20
-24.19355795021562
 30
0.0
 10
69.4558975619401
 20
-24.23546122128707
 30
0.0
 10
69.63142590709697
 20
-24.26178210396769
 30
0.0
 10
69.75518989733257
 20
-24.26452633018621
 30
0.0
 10
69.82039930555575
 20
-24.2659722222215
 30
0.0
  0
SPLINE
  5
79
330
1F
100
AcDbEntity
  8
0
  6
Continuous
 62
     7
370
    25
100
AcDbSpline
210
0.0
220
0.0
230
1.0
 70
     8
 71
     3
 72
    15
 73
    11
 74
     0
 42
0.00000001
 43
0.00000001
 40
0.0
 40
0.0
 40
0.0
 40
0.0
 40
0.0613943520403136
 40
0.1398538629143179
 40
0.2347602763706166
 40
0.3503529954263558
 40
0.4848271553226658
 40
0.638289672019684
 40
0.808367286604194
 40
0.9999999999999999
 40
0.9999999999999999
 40
0.9999999999999999
 40
0.9999999999999999
 10
68.83732638888901
 20
-15.31197916666595
 30
0.0
 10
68.83023816446351
 20
-15.32916843312045
 30
0.0
 10
68.81409147451296
 20
-15.36832489026077
 30
0.0
 10
68.8020864121161
 20
-15.43854391205927
 30
0.0
 10
68.78467882425576
 20
-15.52401763208404
 30
0.0
 10
68.77589449822369
 20
-15.62802532109024
 30
0.0
 10
68.76703294043851
 20
-15.74950888055079
 30
0.0
 10
68.76012553182332
 20
-15.88771919591202
 30
0.0
 10
68.75940113476629
 20
-16.04332111007674
 30
0.0
 10
68.75785198400095
 20
-16.15254845018683
 30
0.0
 10
68.75703125000011
 20
-16.21041666666596
 30
0.0
  0
SPLINE
  5
7A
330
1F
100
AcDbEntity
  8
0
  6
Continuous
 62
     7
370
    25
100
AcDbSpline
210
0.0
220
0.0
230
1.0
 70
     8
 71
     3
 72
    11
 73
     7
 74
     0
 42
0.00000001
 43
0.00000001
 40
0.0
 40
0.0
 40
0.0
 40
0.0
 40
0.2322074352791532
 40
0.4697021905392564
 40
0.7270458402700675
 40
1.0
 40
1.0
 40
1.0
 40
1.0
 10
69.13246527777788
 20
-14.9712673611104
 30
0.0
 10
69.10193706394472
 20
-14.98964271855747
 30
0.0
 10
69.0401855145447
 20
-15.0268118369126
 30
0.0
 10
68.96112442712732
 20
-15.10630737401511
 30
0.0
 10
68.89165486042766
 20
-15.20156707812463
 30
0.0
 10
68.85578782174821
 20
-15.27445988254619
 30
0.0
 10
68.83732638888901
 20
-15.31197916666595
 30
0.0
  0
SPLINE
  5
7B
330
1F
100
AcDbEntity
  8
0
  6
Continuous
 62
     7
370
    25
100
AcDbSpline
210
0.0
220
0.0
230
1.0
 70
     8
 71
     3
 72
    11
 73
     7
 74
     0
 42
0.00000001
 43
0.00000001
 40
0.0
 40
0.0
 40
0.0
 40
0.0
 40
0.2869538933514464
 40
0.5461988668811969
 40
0.781657462202776
 40
1.0
 40
1.0
 40
1.0
 40
1.0
 10
69.82039930555565
 20
-14.82152777777705
 30
0.0
 10
69.75228231592298
 20
-14.82282692790374
 30
0.0
 10
69.6226258679195
 20
-14.82529977926955
 30
0.0
 10
69.43893211778816
 20
-14.85363871491792
 30
0.0
 10
69.27541638017426
 20
-14.90005960784778
 30
0.0
 10
69.1789022343821
 20
-14.94813587563942
 30
0.0
 10
69.13246527777787
 20
-14.9712673611104
 30
0.0
  0
SPLINE
  5
81
330
1F
100
AcDbEntity
  8
0
  6
Continuous
 62
     7
370
    25
100
AcDbSpline
210
0.0
220
0.0
230
1.0
 70
     8
 71
     3
 72
    23
 73
    19
 74
     0
 42
0.00000001
 43
0.00000001
 40
0.0
 40
0.0
 40
0.0
 40
0.0
 40
0.0846127534506955
 40
0.1619144606629861
 40
0.2298806845577136
 40
0.2895648750439995
 40
0.3420514708676097
 40
0.3854965674004638
 40
0.4217551846928441
 40
0.4495088320332229
 40
0.49861249065735
 40
0.5519752119292862
 40
0.6097553304323374
 40
0.6732052240175828
 40
0.7433128260372266
 40
0.8203600646127926
 40
0.9048566891820672
 40
1.0
 40
1.0
 40
1.0
 40
1.0
 10
66.39592013888901
 20
-16.21041666666599
 30
0.0
 10
66.39509166186146
 20
-16.15182520409579
 30
0.0
 10
66.39350629315975
 20
-16.03970493055998
 30
0.0
 10
66.39289463165895
 20
-15.88048467492538
 30
0.0
 10
66.38592226779781
 20
-15.73866210150628
 30
0.0
 10
66.37695140477886
 20
-15.61428486089206
 30
0.0
 10
66.36820169261411
 20
-15.50670604449908
 30
0.0
 10
66.3508485150762
 20
-15.41682076910136
 30
0.0
 10
66.33874827027854
 20
-15.34316943289375
 30
0.0
 10
66.31150200673588
 20
-15.26938882042551
 30
0.0
 10
66.26688793453611
 20
-15.19033605538861
 30
0.0
 10
66.19404039857552
 20
-15.10579005837867
 30
0.0
 10
66.10137397372648
 20
-15.02754634151962
 30
0.0
 10
65.9898716452397
 20
-14.95530512350025
 30
0.0
 10
65.85682103899697
 20
-14.893940048899
 30
0.0
 10
65.70139298079154
 20
-14.85203933432623
 30
0.0
 10
65.52514899093516
 20
-14.82561053926089
 30
0.0
 10
65.40065722187721
 20
-14.82294142817324
 30
0.0
 10
65.33472222222234
 20
-14.82152777777711
 30
0.0
  0
SPLINE
  5
83
330
1F
100
AcDbEntity
  8
0
  6
Continuous
 62
     7
370
    25
100
AcDbSpline
210
0.0
220
0.0
230
1.0
 70
     8
 71
     3
 72
    15
 73
    11
 74
     0
 42
0.00000001
 43
0.00000001
 40
0.0
 40
0.0
 40
0.0
 40
0.0
 40
0.0613929564847393
 40
0.1375125657304191
 40
0.2347752365658263
 40
0.3503653280824212
 40
0.4848364312453918
 40
0.6359029609429145
 40
0.8083716426091331
 40
1.0
 40
1.0
 40
1.0
 40
1.0
 10
66.3156250000002
 20
-23.77552083333265
 30
0.0
 10
66.32268066351355
 20
-23.75832518527411
 30
0.0
 10
66.33848446981649
 20
-23.71980907822667
 30
0.0
 10
66.35145521984691
 20
-23.64979865051815
 30
0.0
 10
66.36793995069212
 20
-23.56414226214054
 30
0.0
 10
66.37715449628362
 20
-23.45949220308206
 30
0.0
 10
66.38580932599365
 20
-23.33870474087409
 30
0.0
 10
66.3929299816261
 20
-23.20050971629499
 30
0.0
 10
66.39350884615243
 20
-23.04490070510444
 30
0.0
 10
66.3950886633631
 20
-22.93495106350987
 30
0.0
 10
66.3959201388891
 20
-22.87708333333265
 30
0.0
  0
SPLINE
  5
84
330
1F
100
AcDbEntity
  8
0
  6
Continuous
 62
     7
370
    25
100
AcDbSpline
210
0.0
220
0.0
230
1.0
 70
     8
 71
     3
 72
    11
 73
     7
 74
     0
 42
0.00000001
 43
0.00000001
 40
0.0
 40
0.0
 40
0.0
 40
0.0
 40
0.2333588799629366
 40
0.4720312980874374
 40
0.7278840296407444
 40
1.0
 40
1.0
 40
1.0
 40
1.0
 10
66.02482638888908
 20
-24.11623263888821
 30
0.0
 10
66.05532491304567
 20
-24.09783437852939
 30
0.0
 10
66.11701640706409
 20
-24.06061893285571
 30
0.0
 10
66.19624744729121
 20
-23.98178651790796
 30
0.0
 10
66.26338966942333
 20
-23.88569077644377
 30
0.0
 10
66.29785929574466
 20
-23.81299061873547
 30
0.0
 10
66.3156250000002
 20
-23.77552083333265
 30
0.0
  0
SPLINE
  5
85
330
1F
100
AcDbEntity
  8
0
  6
Continuous
 62
     7
370
    25
100
AcDbSpline
210
0.0
220
0.0
230
1.0
 70
     8
 71
     3
 72
    11
 73
     7
 74
     0
 42
0.00000001
 43
0.00000001
 40
0.0
 40
0.0
 40
0.0
 40
0.0
 40
0.286116982965587
 40
0.5446058600775648
 40
0.782294265333145
 40
1.0
 40
1.0
 40
1.0
 40
1.0
 10
65.33472222222244
 20
-24.26597222222156
 30
0.0
 10
65.40284695667413
 20
-24.26469967798245
 30
0.0
 10
65.53251814645833
 20
-24.26227746926683
 30
0.0
 10
65.7167995582572
 20
-24.23348983303329
 30
0.0
 10
65.88129460448589
 20
-24.18789898140476
 30
0.0
 10
65.978402828655
 20
-24.13941222090488
 30
0.0
 10
66.02482638888908
 20
-24.11623263888821
 30
0.0
  0
SPLINE
  5
8B
330
1F
100
AcDbEntity
  8
0
  6
Continuous
 62
     7
370
    25
100
AcDbSpline
210
0.0
220
0.0
230
1.0
 70
     8
 71
     3
 72
    23
 73
    19
 74
     0
 42
0.00000001
 43
0.00000001
 40
0.0
 40
0.0
 40
0.0
 40
0.0
 40
0.0846548848337132
 40
0.1619950830264
 40
0.2299951494672509
 40
0.2897913029205963
 40
0.3412642824757846
 40
0.3856016764313388
 40
0.4210869831847754
 40
0.4488544499495131
 40
0.4994068569505768
 40
0.5527961492198724
 40
0.610605038282965
 40
0.6740865255897248
 40
0.7442290364158151
 40
0.8213146392637454
 40
0.9058533373917714
 40
1.0
 40
1.0
 40
1.0
 40
1.0
 10
107.4335937500002
 20
-22.87708333333223
 30
0.0
 10
107.4343988002868
 20
-22.93567610097093
 30
0.0
 10
107.4359393397168
 20
-23.04779887187804
 30
0.0
 10
107.436852738187
 20
-23.2070023181999
 30
0.0
 10
107.4428721686225
 20
-23.34893501691108
 30
0.0
 10
107.4547297760327
 20
-23.47248792210749
 30
0.0
 10
107.4650940660131
 20
-23.579672031425
 30
0.0
 10
107.4765762779346
 20
-23.66992758092236
 30
0.0
 10
107.4939201233401
 20
-23.74249704897041
 30
0.0
 10
107.5200606441916
 20
-23.81700789413076
 30
0.0
 10
107.5667959555434
 20
-23.89618260033398
 30
0.0
 10
107.6396714369205
 20
-23.98177866518318
 30
0.0
 10
107.73252376911
 20
-24.05993261789495
 30
0.0
 10
107.8439690179853
 20
-24.13220139722664
 30
0.0
 10
107.9770372654113
 20
-24.19355795021523
 30
0.0
 10
108.1324600619401
 20
-24.23546122128668
 30
0.0
 10
108.307988407097
 20
-24.2617821039673
 30
0.0
 10
108.4317523973326
 20
-24.2645263301858
 30
0.0
 10
108.4969618055558
 20
-24.2659722222211
 30
0.0
  0
SPLINE
  5
8D
330
1F
100
AcDbEntity
  8
0
  6
Continuous
 62
     7
370
    25
100
AcDbSpline
210
0.0
220
0.0
230
1.0
 70
     8
 71
     3
 72
    15
 73
    11
 74
     0
 42
0.00000001
 43
0.00000001
 40
0.0
 40
0.0
 40
0.0
 40
0.0
 40
0.0613943520403139
 40
0.1398538629143184
 40
0.2347602763706175
 40
0.3503529954263572
 40
0.4848271553226716
 40
0.6382896720196866
 40
0.8083672866041933
 40
1.0
 40
1.0
 40
1.0
 40
1.0
 10
107.513888888889
 20
-15.31197916666556
 30
0.0
 10
107.5068006644635
 20
-15.32916843312004
 30
0.0
 10
107.490653974513
 20
-15.36832489026037
 30
0.0
 10
107.4786489121161
 20
-15.43854391205889
 30
0.0
 10
107.4612413242558
 20
-15.52401763208364
 30
0.0
 10
107.4524569982237
 20
-15.62802532108985
 30
0.0
 10
107.4435954404385
 20
-15.74950888055039
 30
0.0
 10
107.4366880318234
 20
-15.88771919591163
 30
0.0
 10
107.4359636347663
 20
-16.04332111007635
 30
0.0
 10
107.4344144840009
 20
-16.15254845018642
 30
0.0
 10
107.4335937500001
 20
-16.21041666666555
 30
0.0
  0
SPLINE
  5
8E
330
1F
100
AcDbEntity
  8
0
  6
Continuous
 62
     7
370
    25
100
AcDbSpline
210
0.0
220
0.0
230
1.0
 70
     8
 71
     3
 72
    11
 73
     7
 74
     0
 42
0.00000001
 43
0.00000001
 40
0.0
 40
0.0
 40
0.0
 40
0.0
 40
0.2322074352791532
 40
0.4697021905392564
 40
0.7270458402700675
 40
1.0
 40
1.0
 40
1.0
 40
1.0
 10
107.8090277777779
 20
-14.97126736111
 30
0.0
 10
107.7784995639447
 20
-14.98964271855707
 30
0.0
 10
107.7167480145447
 20
-15.02681183691219
 30
0.0
 10
107.6376869271273
 20
-15.10630737401471
 30
0.0
 10
107.5682173604277
 20
-15.20156707812423
 30
0.0
 10
107.5323503217482
 20
-15.27445988254579
 30
0.0
 10
107.513888888889
 20
-15.31197916666556
 30
0.0
  0
SPLINE
  5
8F
330
1F
100
AcDbEntity
  8
0
  6
Continuous
 62
     7
370
    25
100
AcDbSpline
210
0.0
220
0.0
230
1.0
 70
     8
 71
     3
 72
    11
 73
     7
 74
     0
 42
0.00000001
 43
0.00000001
 40
0.0
 40
0.0
 40
0.0
 40
0.0
 40
0.2869538933514464
 40
0.5461988668811969
 40
0.781657462202776
 40
1.0
 40
1.0
 40
1.0
 40
1.0
 10
108.4969618055557
 20
-14.82152777777665
 30
0.0
 10
108.428844815923
 20
-14.82282692790334
 30
0.0
 10
108.2991883679195
 20
-14.82529977926915
 30
0.0
 10
108.1154946177882
 20
-14.85363871491752
 30
0.0
 10
107.9519788801743
 20
-14.90005960784738
 30
0.0
 10
107.8554647343821
 20
-14.94813587563902
 30
0.0
 10
107.8090277777779
 20
-14.97126736111
 30
0.0
  0
SPLINE
  5
95
330
1F
100
AcDbEntity
  8
0
  6
Continuous
 62
     7
370
    25
100
AcDbSpline
210
0.0
220
0.0
230
1.0
 70
     8
 71
     3
 72
    23
 73
    19
 74
     0
 42
0.00000001
 43
0.00000001
 40
0.0
 40
0.0
 40
0.0
 40
0.0
 40
0.0846127534506957
 40
0.1619144606629831
 40
0.2298806845577123
 40
0.2895648750439984
 40
0.3420514708676086
 40
0.3854965674004627
 40
0.4217551846928431
 40
0.4495088320332221
 40
0.4986124906573491
 40
0.5519752119292854
 40
0.6097553304323368
 40
0.6732052240175822
 40
0.7433128260372261
 40
0.8203600646127923
 40
0.9048566891820671
 40
1.0
 40
1.0
 40
1.0
 40
1.0
 10
105.072482638889
 20
-16.21041666666558
 30
0.0
 10
105.0716541618615
 20
-16.15182520409537
 30
0.0
 10
105.0700687931598
 20
-16.03970493055958
 30
0.0
 10
105.0694571316589
 20
-15.88048467492498
 30
0.0
 10
105.0624847677979
 20
-15.73866210150589
 30
0.0
 10
105.0535139047788
 20
-15.61428486089164
 30
0.0
 10
105.0447641926141
 20
-15.50670604449869
 30
0.0
 10
105.0274110150762
 20
-15.41682076910096
 30
0.0
 10
105.0153107702785
 20
-15.34316943289335
 30
0.0
 10
104.988064506736
 20
-15.26938882042513
 30
0.0
 10
104.9434504345361
 20
-15.19033605538821
 30
0.0
 10
104.8706028985755
 20
-15.10579005837828
 30
0.0
 10
104.7779364737265
 20
-15.02754634151922
 30
0.0
 10
104.6664341452397
 20
-14.95530512349985
 30
0.0
 10
104.533383538997
 20
-14.8939400488986
 30
0.0
 10
104.3779554807916
 20
-14.85203933432583
 30
0.0
 10
104.2017114909352
 20
-14.82561053926049
 30
0.0
 10
104.0772197218772
 20
-14.82294142817284
 30
0.0
 10
104.0112847222223
 20
-14.8215277777767
 30
0.0
  0
SPLINE
  5
97
330
1F
100
AcDbEntity
  8
0
  6
Continuous
 62
     7
370
    25
100
AcDbSpline
210
0.0
220
0.0
230
1.0
 70
     8
 71
     3
 72
    15
 73
    11
 74
     0
 42
0.00000001
 43
0.00000001
 40
0.0
 40
0.0
 40
0.0
 40
0.0
 40
0.0613929564847393
 40
0.1375125657304191
 40
0.2347752365658263
 40
0.3503653280824212
 40
0.4848364312453918
 40
0.6359029609429145
 40
0.8083716426091331
 40
1.0
 40
1.0
 40
1.0
 40
1.0
 10
104.9921875000002
 20
-23.77552083333224
 30
0.0
 10
104.9992431635136
 20
-23.75832518527372
 30
0.0
 10
105.0150469698165
 20
-23.71980907822627
 30
0.0
 10
105.0280177198469
 20
-23.64979865051776
 30
0.0
 10
105.0445024506921
 20
-23.56414226214013
 30
0.0
 10
105.0537169962836
 20
-23.45949220308167
 30
0.0
 10
105.0623718259937
 20
-23.33870474087368
 30
0.0
 10
105.0694924816261
 20
-23.20050971629459
 30
0.0
 10
105.0700713461525
 20
-23.04490070510404
 30
0.0
 10
105.0716511633631
 20
-22.93495106350947
 30
0.0
 10
105.0724826388891
 20
-22.87708333333226
 30
0.0
  0
SPLINE
  5
98
330
1F
100
AcDbEntity
  8
0
  6
Continuous
 62
     7
370
    25
100
AcDbSpline
210
0.0
220
0.0
230
1.0
 70
     8
 71
     3
 72
    11
 73
     7
 74
     0
 42
0.00000001
 43
0.00000001
 40
0.0
 40
0.0
 40
0.0
 40
0.0
 40
0.2333588799629366
 40
0.4720312980874374
 40
0.7278840296407444
 40
1.0
 40
1.0
 40
1.0
 40
1.0
 10
104.7013888888891
 20
-24.1162326388878
 30
0.0
 10
104.7318874130457
 20
-24.09783437852898
 30
0.0
 10
104.7935789070641
 20
-24.06061893285531
 30
0.0
 10
104.8728099472912
 20
-23.98178651790757
 30
0.0
 10
104.9399521694233
 20
-23.88569077644337
 30
0.0
 10
104.9744217957447
 20
-23.81299061873506
 30
0.0
 10
104.9921875000002
 20
-23.77552083333224
 30
0.0
  0
SPLINE
  5
99
330
1F
100
AcDbEntity
  8
0
  6
Continuous
 62
     7
370
    25
100
AcDbSpline
210
0.0
220
0.0
230
1.0
 70
     8
 71
     3
 72
    11
 73
     7
 74
     0
 42
0.00000001
 43
0.00000001
 40
0.0
 40
0.0
 40
0.0
 40
0.0
 40
0.286116982965587
 40
0.5446058600775648
 40
0.782294265333145
 40
1.0
 40
1.0
 40
1.0
 40
1.0
 10
104.0112847222224
 20
-24.26597222222115
 30
0.0
 10
104.0794094566741
 20
-24.26469967798205
 30
0.0
 10
104.2090806464584
 20
-24.26227746926642
 30
0.0
 10
104.3933620582572
 20
-24.2334898330329
 30
0.0
 10
104.5578571044859
 20
-24.18789898140436
 30
0.0
 10
104.654965328655
 20
-24.13941222090448
 30
0.0
 10
104.7013888888891
 20
-24.1162326388878
 30
0.0
  0
SPLINE
  5
A0
330
1F
100
AcDbEntity
  8
0
  6
Continuous
 62
     7
370
    25
100
AcDbSpline
210
0.0
220
0.0
230
1.0
 70
     8
 71
     3
 72
    11
 73
     7
 74
     0
 42
0.00000001
 43
0.00000001
 40
0.0
 40
0.0
 40
0.0
 40
0.0
 40
0.2093610344976171
 40
0.446466954227715
 40
0.7084325846751198
 40
1.0
 40
1.0
 40
1.0
 40
1.0
 10
151.0624131944446
 20
-14.94522569444287
 30
0.0
 10
151.0063672095459
 20
-14.92579347996069
 30
0.0
 10
150.8868479292057
 20
-14.8843538604318
 30
0.0
 10
150.689025559644
 20
-14.84777493538393
 30
0.0
 10
150.4660886130673
 20
-14.82696302886947
 30
0.0
 10
150.3094286347235
 20
-14.82340298928758
 30
0.0
 10
150.2269097222224
 20
-14.82152777777622
 30
0.0
  0
SPLINE
  5
A1
330
1F
100
AcDbEntity
  8
0
  6
Continuous
 62
     7
370
    25
100
AcDbSpline
210
0.0
220
0.0
230
1.0
 70
     8
 71
     3
 72
    15
 73
    11
 74
     0
 42
0.00000001
 43
0.00000001
 40
0.0
 40
0.0
 40
0.0
 40
0.0
 40
0.1263407098085297
 40
0.2474896639401361
 40
0.3664873842949352
 40
0.4865379571477493
 40
0.6071389710934644
 40
0.7310981764955093
 40
0.8617682838019787
 40
1.0
 40
1.0
 40
1.0
 40
1.0
 10
151.522482638889
 20
-15.58541666666509
 30
0.0
 10
151.5214576893117
 20
-15.54985364624883
 30
0.0
 10
151.5194499087091
 20
-15.48018900699794
 30
0.0
 10
151.4969545827134
 20
-15.37902993605515
 30
0.0
 10
151.4598067289873
 20
-15.2844240538854
 30
0.0
 10
151.4073132624232
 20
-15.19747186740929
 30
0.0
 10
151.3413197337462
 20
-15.11861682890786
 30
0.0
 10
151.2624474486751
 20
-15.04796272397788
 30
0.0
 10
151.1682025151169
 20
-14.98919745108866
 30
0.0
 10
151.0983312358878
 20
-14.96015517283915
 30
0.0
 10
151.0624131944446
 20
-14.94522569444287
 30
0.0
  0
SPLINE
  5
A2
330
1F
100
AcDbEntity
  8
0
  6
Continuous
 62
     7
370
    25
100
AcDbSpline
210
0.0
220
0.0
230
1.0
 70
     8
 71
     3
 72
    17
 73
    13
 74
     0
 42
0.00000001
 43
0.00000001
 40
0.0
 40
0.0
 40
0.0
 40
0.0
 40
0.1340703849795684
 40
0.2550331934463145
 40
0.3645759520974316
 40
0.461520962108003
 40
0.5458693035481996
 40
0.6183490298917503
 40
0.6782524972719749
 40
0.7251937003708052
 40
0.8766318358918331
 40
1.0
 40
1.0
 40
1.0
 40
1.0
 10
150.9799479166668
 20
-17.18263888888731
 30
0.0
 10
151.0105027191854
 20
-17.11326916662911
 30
0.0
 10
151.0686250917184
 20
-16.98131174889896
 30
0.0
 10
151.1490299516086
 20
-16.79151596374891
 30
0.0
 10
151.2204233386933
 20
-16.62070028064011
 30
0.0
 10
151.2830003295103
 20
-16.46865373166358
 30
0.0
 10
151.3387131987253
 20
-16.33639692731388
 30
0.0
 10
151.3809058780888
 20
-16.22135628875652
 30
0.0
 10
151.4168988127584
 20
-16.12651520584015
 30
0.0
 10
151.4596302463534
 20
-15.98692390893648
 30
0.0
 10
151.5083914235038
 20
-15.81059188502669
 30
0.0
 10
151.5181166949864
 20
-15.65518370554343
 30
0.0
 10
151.522482638889
 20
-15.58541666666509
 30
0.0
  0
SPLINE
  5
A5
330
1F
100
AcDbEntity
  8
0
  6
Continuous
 62
     7
370
    25
100
AcDbSpline
210
0.0
220
0.0
230
1.0
 70
     8
 71
     3
 72
    17
 73
    13
 74
     0
 42
0.00000001
 43
0.00000001
 40
0.0
 40
0.0
 40
0.0
 40
0.0
 40
0.1027584357504482
 40
0.2244325439629709
 40
0.2655708949033994
 40
0.3233772937501809
 40
0.3969808414278514
 40
0.4852453705532461
 40
0.5893365059177832
 40
0.7107048626354316
 40
0.8467142167753084
 40
1.0
 40
1.0
 40
1.0
 40
1.0
 10
146.4877604166668
 20
-15.30112847222069
 30
0.0
 10
146.4913913746797
 20
-15.34908388773733
 30
0.0
 10
146.499321673909
 20
-15.45382230480838
 30
0.0
 10
146.5329665349486
 20
-15.57416316507577
 30
0.0
 10
146.5686432097265
 20
-15.67081301336561
 30
0.0
 10
146.5959170829992
 20
-15.74671334302481
 30
0.0
 10
146.6364894846541
 20
-15.8410283932536
 30
0.0
 10
146.6806677895528
 20
-15.95719237425516
 30
0.0
 10
146.7381544551073
 20
-16.09205196823794
 30
0.0
 10
146.8056509857038
 20
-16.24686045418353
 30
0.0
 10
146.8788424477489
 20
-16.42423424215057
 30
0.0
 10
146.9324475307725
 20
-16.54831639159494
 30
0.0
 10
146.9608506944446
 20
-16.61406249999847
 30
0.0
  0
SPLINE
  5
A6
330
1F
100
AcDbEntity
  8
0
  6
Continuous
 62
     7
370
    25
100
AcDbSpline
210
0.0
220
0.0
230
1.0
 70
     8
 71
     3
 72
    11
 73
     7
 74
     0
 42
0.00000001
 43
0.00000001
 40
0.0
 40
0.0
 40
0.0
 40
0.0
 40
0.2535443523655762
 40
0.493111366518148
 40
0.7336446589224114
 40
1.0
 40
1.0
 40
1.0
 40
1.0
 10
146.6570312500002
 20
-14.98211805555404
 30
0.0
 10
146.6310942337476
 20
-15.00102246921299
 30
0.0
 10
146.5806500514639
 20
-15.03778913810391
 30
0.0
 10
146.528258393064
 20
-15.11528551737074
 30
0.0
 10
146.4926593569545
 20
-15.20339677475262
 30
0.0
 10
146.4894479292168
 20
-15.26746334133101
 30
0.0
 10
146.4877604166668
 20
-15.30112847222069
 30
0.0
  0
SPLINE
  5
A7
330
1F
100
AcDbEntity
  8
0
  6
Continuous
 62
     7
370
    25
100
AcDbSpline
210
0.0
220
0.0
230
1.0
 70
     8
 71
     3
 72
    11
 73
     7
 74
     0
 42
0.00000001
 43
0.00000001
 40
0.0
 40
0.0
 40
0.0
 40
0.0
 40
0.3293660339014154
 40
0.6029278382156725
 40
0.8237779144166779
 40
1.0
 40
1.0
 40
1.0
 40
1.0
 10
147.5359375000002
 20
-14.82152777777625
 30
0.0
 10
147.4366781038695
 20
-14.82328073347526
 30
0.0
 10
147.2549767534819
 20
-14.82648964295989
 30
0.0
 10
147.008866944363
 20
-14.8564758289013
 30
0.0
 10
146.8097676904575
 20
-14.90023077614849
 30
0.0
 10
146.7039801496369
 20
-14.95694712940948
 30
0.0
 10
146.6570312500002
 20
-14.98211805555404
 30
0.0
  0
SPLINE
  5
AC
330
1F
100
AcDbEntity
  8
0
  6
Continuous
 62
     7
370
    25
100
AcDbSpline
210
0.0
220
0.0
230
1.0
 70
     8
 71
     3
 72
    19
 73
    15
 74
     0
 42
0.00000001
 43
0.00000001
 40
0.0
 40
0.0
 40
0.0
 40
0.0
 40
0.1341655931047205
 40
0.2538598215297621
 40
0.3598260006184423
 40
0.4520760620251489
 40
0.5302803171944979
 40
0.5941406015790083
 40
0.6444446339598966
 40
0.6807018451263661
 40
0.7430134279726981
 40
0.8147266608523598
 40
0.900390583353979
 40
1.0
 40
1.0
 40
1.0
 40
1.0
 10
144.6192708333335
 20
-16.76163194444294
 30
0.0
 10
144.5703193038853
 20
-16.65157116470105
 30
0.0
 10
144.4776962532076
 20
-16.44332097733076
 30
0.0
 10
144.3427828554923
 20
-16.14977309973874
 30
0.0
 10
144.2211673439992
 20
-15.89156379930068
 30
0.0
 10
144.113982795764
 20
-15.6676975097623
 30
0.0
 10
144.0164685046089
 20
-15.48125975353047
 30
0.0
 10
143.9317761445043
 20
-15.33066685553699
 30
0.0
 10
143.8614185285545
 20
-15.21545995028381
 30
0.0
 10
143.7834513044189
 20
-15.10623014913648
 30
0.0
 10
143.662628200518
 20
-15.00900875218969
 30
0.0
 10
143.4861279399388
 20
-14.91871860378888
 30
0.0
 10
143.262383159271
 20
-14.85700122050591
 30
0.0
 10
143.0976136301731
 20
-14.83393108708464
 30
0.0
 10
143.009027777778
 20
-14.82152777777629
 30
0.0
  0
SPLINE
  5
B0
330
1F
100
AcDbEntity
  8
0
  6
Continuous
 62
     7
370
    25
100
AcDbSpline
210
0.0
220
0.0
230
1.0
 70
     8
 71
     3
 72
    15
 73
    11
 74
     0
 42
0.00000001
 43
0.00000001
 40
0.0
 40
0.0
 40
0.0
 40
0.0
 40
0.0686855839473738
 40
0.153325319593374
 40
0.2533074399630169
 40
0.3697541064027202
 40
0.5032837531793213
 40
0.6529605348839072
 40
0.8178805146323402
 40
1.0
 40
1.0
 40
1.0
 40
1.0
 10
152.6466145833335
 20
-15.41180555555396
 30
0.0
 10
152.618531930981
 20
-15.44755105361276
 30
0.0
 10
152.555843643286
 20
-15.527344943377
 30
0.0
 10
152.4669527329374
 20
-15.66963069664661
 30
0.0
 10
152.3664748806954
 20
-15.84152851888938
 30
0.0
 10
152.2588286267289
 20
-16.04652729888302
 30
0.0
 10
152.1402200102371
 20
-16.28273697743839
 30
0.0
 10
152.0093634531886
 20
-16.54871557304416
 30
0.0
 10
151.8733132553433
 20
-16.84778578759867
 30
0.0
 10
151.7798589523034
 20
-17.05743049678797
 30
0.0
 10
151.7308159722224
 20
-17.16744791666509
 30
0.0
  0
SPLINE
  5
B1
330
1F
100
AcDbEntity
  8
0
  6
Continuous
 62
     7
370
    25
100
AcDbSpline
210
0.0
220
0.0
230
1.0
 70
     8
 71
     3
 72
    11
 73
     7
 74
     0
 42
0.00000001
 43
0.00000001
 40
0.0
 40
0.0
 40
0.0
 40
0.0
 40
0.2369182312099554
 40
0.4763327855864743
 40
0.7276821857468461
 40
1.0
 40
1.0
 40
1.0
 40
1.0
 10
153.612326388889
 20
-14.82152777777618
 30
0.0
 10
153.5226891853085
 20
-14.84068965342734
 30
0.0
 10
153.3424703028036
 20
-14.87921530660044
 30
0.0
 10
153.092810378246
 20
-15.01191883253673
 30
0.0
 10
152.8523599253402
 20
-15.18327353594616
 30
0.0
 10
152.717002994937
 20
-15.33362149702877
 30
0.0
 10
152.6466145833335
 20
-15.41180555555396
 30
0.0
  0
SPLINE
  5
B5
330
1F
100
AcDbEntity
  8
0
  6
Continuous
 62
     7
370
    25
100
AcDbSpline
210
0.0
220
0.0
230
1.0
 70
     8
 71
     3
 72
    11
 73
     7
 74
     0
 42
0.00000001
 43
0.00000001
 40
0.0
 40
0.0
 40
0.0
 40
0.0
 40
0.2093610344976171
 40
0.446466954227715
 40
0.7084325846751198
 40
1.0
 40
1.0
 40
1.0
 40
1.0
 10
201.4056423611112
 20
-14.94522569444236
 30
0.0
 10
201.3495963762125
 20
-14.92579347996018
 30
0.0
 10
201.2300770958723
 20
-14.88435386043127
 30
0.0
 10
201.0322547263106
 20
-14.8477749353834
 30
0.0
 10
200.8093177797339
 20
-14.82696302886896
 30
0.0
 10
200.6526578013901
 20
-14.82340298928705
 30
0.0
 10
200.570138888889
 20
-14.82152777777569
 30
0.0
  0
SPLINE
  5
B6
330
1F
100
AcDbEntity
  8
0
  6
Continuous
 62
     7
370
    25
100
AcDbSpline
210
0.0
220
0.0
230
1.0
 70
     8
 71
     3
 72
    15
 73
    11
 74
     0
 42
0.00000001
 43
0.00000001
 40
0.0
 40
0.0
 40
0.0
 40
0.0
 40
0.1263407098085297
 40
0.2474896639401361
 40
0.3664873842949352
 40
0.4865379571477493
 40
0.6071389710934644
 40
0.7310981764955093
 40
0.8617682838019787
 40
1.0
 40
1.0
 40
1.0
 40
1.0
 10
201.8657118055557
 20
-15.58541666666456
 30
0.0
 10
201.8646868559783
 20
-15.54985364624832
 30
0.0
 10
201.8626790753758
 20
-15.48018900699741
 30
0.0
 10
201.8401837493801
 20
-15.37902993605464
 30
0.0
 10
201.8030358956539
 20
-15.28442405388489
 30
0.0
 10
201.7505424290898
 20
-15.19747186740876
 30
0.0
 10
201.6845489004128
 20
-15.11861682890733
 30
0.0
 10
201.6056766153417
 20
-15.04796272397735
 30
0.0
 10
201.5114316817836
 20
-14.98919745108813
 30
0.0
 10
201.4415604025544
 20
-14.96015517283862
 30
0.0
 10
201.4056423611112
 20
-14.94522569444236
 30
0.0
  0
SPLINE
  5
B7
330
1F
100
AcDbEntity
  8
0
  6
Continuous
 62
     7
370
    25
100
AcDbSpline
210
0.0
220
0.0
230
1.0
 70
     8
 71
     3
 72
    17
 73
    13
 74
     0
 42
0.00000001
 43
0.00000001
 40
0.0
 40
0.0
 40
0.0
 40
0.0
 40
0.1340703849795684
 40
0.2550331934463145
 40
0.3645759520974316
 40
0.461520962108003
 40
0.5458693035481996
 40
0.6183490298917503
 40
0.6782524972719749
 40
0.7251937003708052
 40
0.8766318358918331
 40
1.0
 40
1.0
 40
1.0
 40
1.0
 10
201.3231770833334
 20
-17.1826388888868
 30
0.0
 10
201.353731885852
 20
-17.1132691666286
 30
0.0
 10
201.411854258385
 20
-16.98131174889843
 30
0.0
 10
201.4922591182752
 20
-16.79151596374838
 30
0.0
 10
201.56365250536
 20
-16.6207002806396
 30
0.0
 10
201.6262294961769
 20
-16.46865373166305
 30
0.0
 10
201.681942365392
 20
-16.33639692731337
 30
0.0
 10
201.7241350447554
 20
-16.221356288756
 30
0.0
 10
201.7601279794251
 20
-16.12651520583962
 30
0.0
 10
201.8028594130199
 20
-15.98692390893595
 30
0.0
 10
201.8516205901705
 20
-15.81059188502616
 30
0.0
 10
201.861345861653
 20
-15.65518370554291
 30
0.0
 10
201.8657118055557
 20
-15.58541666666456
 30
0.0
  0
SPLINE
  5
BA
330
1F
100
AcDbEntity
  8
0
  6
Continuous
 62
     7
370
    25
100
AcDbSpline
210
0.0
220
0.0
230
1.0
 70
     8
 71
     3
 72
    17
 73
    13
 74
     0
 42
0.00000001
 43
0.00000001
 40
0.0
 40
0.0
 40
0.0
 40
0.0
 40
0.1027584357504482
 40
0.2244325439629709
 40
0.2655708949033994
 40
0.3233772937501809
 40
0.3969808414278514
 40
0.4852453705532461
 40
0.5893365059177832
 40
0.7107048626354316
 40
0.8467142167753084
 40
1.0
 40
1.0
 40
1.0
 40
1.0
 10
196.8309895833335
 20
-15.30112847222018
 30
0.0
 10
196.8346205413463
 20
-15.34908388773681
 30
0.0
 10
196.8425508405756
 20
-15.45382230480786
 30
0.0
 10
196.8761957016152
 20
-15.57416316507525
 30
0.0
 10
196.9118723763931
 20
-15.67081301336509
 30
0.0
 10
196.9391462496658
 20
-15.74671334302428
 30
0.0
 10
196.9797186513206
 20
-15.84102839325308
 30
0.0
 10
197.0238969562194
 20
-15.95719237425464
 30
0.0
 10
197.0813836217739
 20
-16.09205196823743
 30
0.0
 10
197.1488801523704
 20
-16.24686045418301
 30
0.0
 10
197.2220716144155
 20
-16.42423424215006
 30
0.0
 10
197.2756766974391
 20
-16.54831639159443
 30
0.0
 10
197.3040798611112
 20
-16.61406249999796
 30
0.0
  0
SPLINE
  5
BB
330
1F
100
AcDbEntity
  8
0
  6
Continuous
 62
     7
370
    25
100
AcDbSpline
210
0.0
220
0.0
230
1.0
 70
     8
 71
     3
 72
    11
 73
     7
 74
     0
 42
0.00000001
 43
0.00000001
 40
0.0
 40
0.0
 40
0.0
 40
0.0
 40
0.2535443523655762
 40
0.493111366518148
 40
0.7336446589224114
 40
1.0
 40
1.0
 40
1.0
 40
1.0
 10
197.0002604166668
 20
-14.98211805555351
 30
0.0
 10
196.9743234004142
 20
-15.00102246921246
 30
0.0
 10
196.9238792181305
 20
-15.0377891381034
 30
0.0
 10
196.8714875597306
 20
-15.11528551737021
 30
0.0
 10
196.8358885236212
 20
-15.2033967747521
 30
0.0
 10
196.8326770958834
 20
-15.2674633413305
 30
0.0
 10
196.8309895833335
 20
-15.30112847222018
 30
0.0
  0
SPLINE
  5
BC
330
1F
100
AcDbEntity
  8
0
  6
Continuous
 62
     7
370
    25
100
AcDbSpline
210
0.0
220
0.0
230
1.0
 70
     8
 71
     3
 72
    11
 73
     7
 74
     0
 42
0.00000001
 43
0.00000001
 40
0.0
 40
0.0
 40
0.0
 40
0.0
 40
0.3293660339014154
 40
0.6029278382156725
 40
0.8237779144166779
 40
1.0
 40
1.0
 40
1.0
 40
1.0
 10
197.8791666666668
 20
-14.82152777777572
 30
0.0
 10
197.7799072705361
 20
-14.82328073347475
 30
0.0
 10
197.5982059201485
 20
-14.82648964295938
 30
0.0
 10
197.3520961110296
 20
-14.85647582890078
 30
0.0
 10
197.1529968571241
 20
-14.90023077614798
 30
0.0
 10
197.0472093163035
 20
-14.95694712940895
 30
0.0
 10
197.0002604166668
 20
-14.98211805555351
 30
0.0
  0
SPLINE
  5
C1
330
1F
100
AcDbEntity
  8
0
  6
Continuous
 62
     7
370
    25
100
AcDbSpline
210
0.0
220
0.0
230
1.0
 70
     8
 71
     3
 72
    19
 73
    15
 74
     0
 42
0.00000001
 43
0.00000001
 40
0.0
 40
0.0
 40
0.0
 40
0.0
 40
0.1341655931047205
 40
0.2538598215297621
 40
0.3598260006184423
 40
0.4520760620251489
 40
0.5302803171944979
 40
0.5941406015790083
 40
0.6444446339598966
 40
0.6807018451263661
 40
0.7430134279726981
 40
0.8147266608523598
 40
0.900390583353979
 40
1.0
 40
1.0
 40
1.0
 40
1.0
 10
194.9625000000001
 20
-16.76163194444243
 30
0.0
 10
194.9135484705519
 20
-16.65157116470052
 30
0.0
 10
194.8209254198743
 20
-16.44332097733024
 30
0.0
 10
194.686012022159
 20
-16.14977309973821
 30
0.0
 10
194.5643965106658
 20
-15.89156379930017
 30
0.0
 10
194.4572119624306
 20
-15.66769750976178
 30
0.0
 10
194.3596976712755
 20
-15.48125975352994
 30
0.0
 10
194.275005311171
 20
-15.33066685553648
 30
0.0
 10
194.2046476952211
 20
-15.2154599502833
 30
0.0
 10
194.1266804710855
 20
-15.10623014913595
 30
0.0
 10
194.0058573671846
 20
-15.00900875218916
 30
0.0
 10
193.8293571066054
 20
-14.91871860378836
 30
0.0
 10
193.6056123259377
 20
-14.85700122050539
 30
0.0
 10
193.4408427968397
 20
-14.83393108708413
 30
0.0
 10
193.3522569444446
 20
-14.82152777777578
 30
0.0
  0
SPLINE
  5
C5
330
1F
100
AcDbEntity
  8
0
  6
Continuous
 62
     7
370
    25
100
AcDbSpline
210
0.0
220
0.0
230
1.0
 70
     8
 71
     3
 72
    15
 73
    11
 74
     0
 42
0.00000001
 43
0.00000001
 40
0.0
 40
0.0
 40
0.0
 40
0.0
 40
0.0686855839473738
 40
0.153325319593374
 40
0.2533074399630169
 40
0.3697541064027202
 40
0.5032837531793213
 40
0.6529605348839072
 40
0.8178805146323402
 40
1.0
 40
1.0
 40
1.0
 40
1.0
 10
202.9898437500001
 20
-15.41180555555345
 30
0.0
 10
202.9617610976476
 20
-15.44755105361224
 30
0.0
 10
202.8990728099526
 20
-15.52734494337647
 30
0.0
 10
202.8101818996041
 20
-15.66963069664608
 30
0.0
 10
202.7097040473619
 20
-15.84152851888886
 30
0.0
 10
202.6020577933956
 20
-16.04652729888251
 30
0.0
 10
202.4834491769037
 20
-16.28273697743786
 30
0.0
 10
202.3525926198552
 20
-16.54871557304364
 30
0.0
 10
202.21654242201
 20
-16.84778578759814
 30
0.0
 10
202.12308811897
 20
-17.05743049678744
 30
0.0
 10
202.074045138889
 20
-17.16744791666457
 30
0.0
  0
SPLINE
  5
C6
330
1F
100
AcDbEntity
  8
0
  6
Continuous
 62
     7
370
    25
100
AcDbSpline
210
0.0
220
0.0
230
1.0
 70
     8
 71
     3
 72
    11
 73
     7
 74
     0
 42
0.00000001
 43
0.00000001
 40
0.0
 40
0.0
 40
0.0
 40
0.0
 40
0.2369182312099554
 40
0.4763327855864743
 40
0.7276821857468461
 40
1.0
 40
1.0
 40
1.0
 40
1.0
 10
203.9555555555557
 20
-14.82152777777566
 30
0.0
 10
203.8659183519751
 20
-14.84068965342682
 30
0.0
 10
203.6856994694702
 20
-14.87921530659993
 30
0.0
 10
203.4360395449127
 20
-15.01191883253622
 30
0.0
 10
203.1955890920069
 20
-15.18327353594563
 30
0.0
 10
203.0602321616036
 20
-15.33362149702824
 30
0.0
 10
202.9898437500001
 20
-15.41180555555345
 30
0.0
  0
SPLINE
  5
C9
330
1F
100
AcDbEntity
  8
0
  6
Continuous
 62
     7
370
    25
100
AcDbSpline
210
0.0
220
0.0
230
1.0
 70
     8
 71
     3
 72
    23
 73
    19
 74
     0
 42
0.00000001
 43
0.00000001
 40
0.0
 40
0.0
 40
0.0
 40
0.0
 40
0.0772754355871556
 40
0.1489095170736315
 40
0.2145393001505682
 40
0.2746758547358357
 40
0.3293738086394441
 40
0.37834580433412
 40
0.4222551737023332
 40
0.4610018959225683
 40
0.5321273650006639
 40
0.6009626247443535
 40
0.6691327006003535
 40
0.7381167727533068
 40
0.8060644849513675
 40
0.8712390621279321
 40
0.9355578737346906
 40
1.0
 40
1.0
 40
1.0
 40
1.0
 10
14.54375000000105
 20
-103.6184895833332
 30
0.0
 10
14.54428911196585
 20
-103.4810281636671
 30
0.0
 10
14.54532797899674
 20
-103.2161404478852
 30
0.0
 10
14.5613922032786
 20
-102.8348167828901
 30
0.0
 10
14.58377398806122
 20
-102.4843468948045
 30
0.0
 10
14.61875747984702
 20
-102.1651699985196
 30
0.0
 10
14.66124366657984
 20
-101.8768327364607
 30
0.0
 10
14.71255578773326
 20
-101.6192772504099
 30
0.0
 10
14.77384500994701
 20
-101.3929710850492
 30
0.0
 10
14.87212539300516
 20
-101.1372900094228
 30
0.0
 10
15.02096027382251
 20
-100.8552144786308
 30
0.0
 10
15.23457036571382
 20
-100.5514755944413
 30
0.0
 10
15.48935283425516
 20
-100.2861144113949
 30
0.0
 10
15.7789020613586
 20
-100.0622948830368
 30
0.0
 10
16.09158037803918
 20
-99.88232716206268
 30
0.0
 10
16.41906656638767
 20
-99.7529855786773
 30
0.0
 10
16.7561352885731
 20
-99.67062282057975
 30
0.0
 10
16.98542097444895
 20
-99.66075473856986
 30
0.0
 10
17.10017361111212
 20
-99.65581597222204
 30
0.0
  0
SPLINE
  5
CC
330
1F
100
AcDbEntity
  8
0
  6
Continuous
 62
     7
370
    25
100
AcDbSpline
210
0.0
220
0.0
230
1.0
 70
     8
 71
     3
 72
    23
 73
    19
 74
     0
 42
0.00000001
 43
0.00000001
 40
0.0
 40
0.0
 40
0.0
 40
0.0
 40
0.0751004865320543
 40
0.1438860119222554
 40
0.2045656337038214
 40
0.2582217610103927
 40
0.3046827237196876
 40
0.344254962832658
 40
0.3769517234765925
 40
0.4033297683334706
 40
0.4492680341169621
 40
0.4972885214430309
 40
0.5483172766323994
 40
0.6029785282508455
 40
0.670787217819787
 40
0.7579498879569624
 40
0.8678772332647745
 40
1.0
 40
1.0
 40
1.0
 40
1.0
 10
16.21041666666774
 20
-107.0104166666665
 30
0.0
 10
16.15036879326759
 20
-107.0109114513493
 30
0.0
 10
16.03532228122836
 20
-107.0118594158442
 30
0.0
 10
15.87187363850426
 20
-107.0167860895235
 30
0.0
 10
15.72539671388429
 20
-107.0209245994735
 30
0.0
 10
15.59770865275823
 20
-107.0363132748601
 30
0.0
 10
15.48645196528541
 20
-107.0470415597777
 30
0.0
 10
15.39323534304851
 20
-107.0651914919816
 30
0.0
 10
15.31622644839226
 20
-107.0829926888231
 30
0.0
 10
15.23822530352917
 20
-107.1149327926213
 30
0.0
 10
15.1567371551493
 20
-107.1672870300902
 30
0.0
 10
15.07096528814657
 20
-107.2462181133954
 30
0.0
 10
14.99778760493072
 20
-107.3456208674678
 30
0.0
 10
14.93020548783375
 20
-107.4673010153954
 30
0.0
 10
14.87766490354257
 20
-107.6276856679807
 30
0.0
 10
14.84802392183301
 20
-107.8378245727881
 30
0.0
 10
14.82261815988903
 20
-108.0999447815703
 30
0.0
 10
14.82191279847214
 20
-108.2935994075308
 30
0.0
 10
14.82152777777887
 20
-108.3993055555554
 30
0.0
  0
SPLINE
  5
CE
330
1F
100
AcDbEntity
  8
0
  6
Continuous
 62
     7
370
    25
100
AcDbSpline
210
0.0
220
0.0
230
1.0
 70
     8
 71
     3
 72
    23
 73
    19
 74
     0
 42
0.00000001
 43
0.00000001
 40
0.0
 40
0.0
 40
0.0
 40
0.0
 40
0.1331967580684004
 40
0.2432641050970222
 40
0.3315846945403657
 40
0.3989214271788825
 40
0.4540928666081524
 40
0.5044667741667423
 40
0.5518867337672894
 40
0.5978835057963606
 40
0.6234584714377412
 40
0.6561968741566493
 40
0.6949292372032233
 40
0.7414493718565991
 40
0.7951738347545888
 40
0.8559307371385675
 40
0.9248038666812589
 40
1.0
 40
1.0
 40
1.0
 40
1.0
 10
24.26597222222332
 20
-108.3993055555553
 30
0.0
 10
24.26556157215916
 20
-108.2928756411879
 30
0.0
 10
24.26481158077939
 20
-108.0984972024812
 30
0.0
 10
24.23979030401427
 20
-107.8348168111762
 30
0.0
 10
24.20860344349293
 20
-107.6243133912801
 30
0.0
 10
24.15254759531628
 20
-107.4643854638916
 30
0.0
 10
24.08383983697929
 20
-107.3440234339973
 30
0.0
 10
24.00929478926356
 20
-107.2468868967027
 30
0.0
 10
23.92647709241072
 20
-107.1663865735189
 30
0.0
 10
23.84525252246643
 20
-107.1158207330355
 30
0.0
 10
23.76862204011927
 20
-107.0824349966878
 30
0.0
 10
23.69270901973847
 20
-107.0655962872858
 30
0.0
 10
23.60039690888678
 20
-107.0467280614383
 30
0.0
 10
23.48977214134343
 20
-107.0363958417503
 30
0.0
 10
23.36210950991491
 20
-107.0208978431353
 30
0.0
 10
23.21562436109459
 20
-107.0167946893327
 30
0.0
 10
23.05217830111794
 20
-107.0118569123247
 30
0.0
 10
22.93713140644702
 20
-107.010910592778
 30
0.0
 10
22.87708333333441
 20
-107.0104166666664
 30
0.0
  0
SPLINE
  5
D1
330
1F
100
AcDbEntity
  8
0
  6
Continuous
 62
     7
370
    25
100
AcDbSpline
210
0.0
220
0.0
230
1.0
 70
     8
 71
     3
 72
    15
 73
    11
 74
     0
 42
0.00000001
 43
0.00000001
 40
0.0
 40
0.0
 40
0.0
 40
0.0
 40
0.1055632026566013
 40
0.2143223986051253
 40
0.3277635891249817
 40
0.4472854225172638
 40
0.5738724581817599
 40
0.7071859688919979
 40
0.8490331412233435
 40
1.0
 40
1.0
 40
1.0
 40
1.0
 10
23.66484375000101
 20
-100.1397569444442
 30
0.0
 10
23.73593734642184
 20
-100.2358690311171
 30
0.0
 10
23.88027694324081
 20
-100.4310030591901
 30
0.0
 10
24.05614775169948
 20
-100.7586241815678
 30
0.0
 10
24.20948446373137
 20
-101.1138848346734
 30
0.0
 10
24.33249721599018
 20
-101.502296840593
 30
0.0
 10
24.42626556604741
 20
-101.9215188988207
 30
0.0
 10
24.49589598278729
 20
-102.3709057395787
 30
0.0
 10
24.53728959687611
 20
-102.8516472423468
 30
0.0
 10
24.54155227858393
 20
-103.1829315591638
 30
0.0
 10
24.54375000000104
 20
-103.3537326388886
 30
0.0
  0
SPLINE
  5
D2
330
1F
100
AcDbEntity
  8
0
  6
Continuous
 62
     7
370
    25
100
AcDbSpline
210
0.0
220
0.0
230
1.0
 70
     8
 71
     3
 72
    15
 73
    11
 74
     0
 42
0.00000001
 43
0.00000001
 40
0.0
 40
0.0
 40
0.0
 40
0.0
 40
0.128026411716027
 40
0.2524838009045979
 40
0.3736171808661198
 40
0.4946511595679153
 40
0.6155813281051986
 40
0.7385582878530284
 40
0.8666990964366622
 40
1.0
 40
1.0
 40
1.0
 40
1.0
 10
21.8267361111121
 20
-99.23914930555533
 30
0.0
 10
21.91736397810214
 20
-99.24115807538927
 30
0.0
 10
22.09609325762199
 20
-99.24511961610588
 30
0.0
 10
22.35702434614338
 20
-99.29123672998648
 30
0.0
 10
22.60769117220765
 20
-99.35931152623994
 30
0.0
 10
22.84430190043751
 20
-99.46081325183428
 30
0.0
 10
23.07000752383378
 20
-99.58695047159216
 30
0.0
 10
23.28238513766087
 20
-99.74327364779123
 30
0.0
 10
23.48236507544543
 20
-99.92833380291898
 30
0.0
 10
23.60322240173202
 20
-100.0683613193511
 30
0.0
 10
23.66484375000101
 20
-100.1397569444442
 30
0.0
  0
SPLINE
  5
D3
330
1F
100
AcDbEntity
  8
0
  6
Continuous
 62
     7
370
    25
100
AcDbSpline
210
0.0
220
0.0
230
1.0
 70
     8
 71
     3
 72
    15
 73
    11
 74
     0
 42
0.00000001
 43
0.00000001
 40
0.0
 40
0.0
 40
0.0
 40
0.0
 40
0.1294622447289021
 40
0.2551333042247627
 40
0.3769254708172152
 40
0.4979634990961942
 40
0.6194272549426261
 40
0.7423294541245573
 40
0.8690135349851433
 40
1.0
 40
1.0
 40
1.0
 40
1.0
 10
20.11232638888989
 20
-100.0377604166665
 30
0.0
 10
20.16814115216425
 20
-99.97425892959716
 30
0.0
 10
20.27813619364162
 20
-99.84911553931292
 30
0.0
 10
20.46357090237658
 20
-99.68645211502118
 30
0.0
 10
20.66073964120645
 20
-99.54815232113961
 30
0.0
 10
20.86996129257093
 20
-99.43397442671235
 30
0.0
 10
21.09287430766551
 20
-99.34784143140493
 30
0.0
 10
21.32680562311232
 20
-99.28383015807178
 30
0.0
 10
21.57310898010699
 20
-99.24697635109497
 30
0.0
 10
21.74125786064618
 20
-99.24178720220459
 30
0.0
 10
21.8267361111121
 20
-99.23914930555533
 30
0.0
  0
SPLINE
  5
D4
330
1F
100
AcDbEntity
  8
0
  6
Continuous
 62
     7
370
    25
100
AcDbSpline
210
0.0
220
0.0
230
1.0
 70
     8
 71
     3
 72
    15
 73
    11
 74
     0
 42
0.00000001
 43
0.00000001
 40
0.0
 40
0.0
 40
0.0
 40
0.0
 40
0.162734812503245
 40
0.3128025237949034
 40
0.4529508076830787
 40
0.5831133605067316
 40
0.7012633089002376
 40
0.8105191133431915
 40
0.909506298757554
 40
1.0
 40
1.0
 40
1.0
 40
1.0
 10
19.32022569444547
 20
-101.9713541666665
 30
0.0
 10
19.34784436492401
 20
-101.8605248749204
 30
0.0
 10
19.40093189854176
 20
-101.6474931232301
 30
0.0
 10
19.48732477362718
 20
-101.3414574432702
 30
0.0
 10
19.58077715185663
 20
-101.0614817791851
 30
0.0
 10
19.67774924213386
 20
-100.8066360851598
 30
0.0
 10
19.77691925577091
 20
-100.5758504097756
 30
0.0
 10
19.88381571414127
 20
-100.373187088588
 30
0.0
 10
19.99011453287887
 20
-100.1919195659816
 30
0.0
 10
20.07282493531467
 20
-100.0875879103207
 30
0.0
 10
20.11232638888989
 20
-100.0377604166665
 30
0.0
  0
SPLINE
  5
D5
330
1F
100
AcDbEntity
  8
0
  6
Continuous
 62
     7
370
    25
100
AcDbSpline
210
0.0
220
0.0
230
1.0
 70
     8
 71
     3
 72
    23
 73
    19
 74
     0
 42
0.00000001
 43
0.00000001
 40
0.0
 40
0.0
 40
0.0
 40
0.0
 40
0.0523562629078048
 40
0.1032484071602174
 40
0.1536930299746413
 40
0.2037016295887716
 40
0.254146252403197
 40
0.3057305812788655
 40
0.3585732041521028
 40
0.4125408046849744
 40
0.4697710843717466
 40
0.5299591522658181
 40
0.5947138085367891
 40
0.6652225774022281
 40
0.7398832773247889
 40
0.8209267982148117
 40
0.9075531830308393
 40
1.0
 40
1.0
 40
1.0
 40
1.0
 10
17.10017361111212
 20
-99.65581597222204
 30
0.0
 10
17.16102539625718
 20
-99.65756076898907
 30
0.0
 10
17.28102727454531
 20
-99.66100157008921
 30
0.0
 10
17.45813262534814
 20
-99.68607316090156
 30
0.0
 10
17.63015346950664
 20
-99.7239188025067
 30
0.0
 10
17.79593779032301
 20
-99.78192205441785
 30
0.0
 10
17.95784014777269
 20
-99.8531862735676
 30
0.0
 10
18.11395417136944
 20
-99.94326945632524
 30
0.0
 10
18.26598949977162
 20
-100.0472552401358
 30
0.0
 10
18.41377077670223
 20
-100.1680894882252
 30
0.0
 10
18.55466298777277
 20
-100.3092704589747
 30
0.0
 10
18.68871585450013
 20
-100.4736648922084
 30
0.0
 10
18.81130100770215
 20
-100.6651704641939
 30
0.0
 10
18.93084649071866
 20
-100.8780193524545
 30
0.0
 10
19.03838718246134
 20
-101.1181143957346
 30
0.0
 10
19.14285817162013
 20
-101.3796434858631
 30
0.0
 10
19.23828120354538
 20
-101.6666604473868
 30
0.0
 10
19.29232533046264
 20
-101.8676124071191
 30
0.0
 10
19.32022569444547
 20
-101.9713541666665
 30
0.0
  0
SPLINE
  5
D6
330
1F
100
AcDbEntity
  8
0
  6
Continuous
 62
     7
370
    25
100
AcDbSpline
210
0.0
220
0.0
230
1.0
 70
     8
 71
     3
 72
    11
 73
     7
 74
     0
 42
0.00000001
 43
0.00000001
 40
0.0
 40
0.0
 40
0.0
 40
0.0
 40
0.1823673005486106
 40
0.4097149169913213
 40
0.6826089489130944
 40
1.0
 40
1.0
 40
1.0
 40
1.0
 10
24.45477430555759
 20
-197.8270833333331
 30
0.0
 10
24.46888998856002
 20
-197.9115752100075
 30
0.0
 10
24.50060294297791
 20
-198.101398616583
 30
0.0
 10
24.52581781878897
 20
-198.4212766959641
 30
0.0
 10
24.53950711199075
 20
-198.8049574485512
 30
0.0
 10
24.54226637094653
 20
-199.0821299825013
 30
0.0
 10
24.54375000000204
 20
-199.2311631944443
 30
0.0
  0
SPLINE
  5
D7
330
1F
100
AcDbEntity
  8
0
  6
Continuous
 62
     7
370
    25
100
AcDbSpline
210
0.0
220
0.0
230
1.0
 70
     8
 71
     3
 72
    23
 73
    19
 74
     0
 42
0.00000001
 43
0.00000001
 40
0.0
 40
0.0
 40
0.0
 40
0.0
 40
0.0733304288060777
 40
0.1443886792380254
 40
0.2134058408501984
 40
0.2810640182423798
 40
0.3465875530796388
 40
0.408698688479506
 40
0.4677814088232187
 40
0.5244213549719985
 40
0.5799289962765676
 40
0.6350313949806223
 40
0.6897619219065615
 40
0.7447481115560516
 40
0.8020724099894401
 40
0.8636156646084193
 40
0.9294134180804132
 40
0.9999999999999999
 40
0.9999999999999999
 40
0.9999999999999999
 40
0.9999999999999999
 10
19.57413194444643
 20
-193.6756076388887
 30
0.0
 10
19.74650044098729
 20
-193.6797764700894
 30
0.0
 10
20.08589651384533
 20
-193.6879849592642
 30
0.0
 10
20.58401305605344
 20
-193.7528058071235
 30
0.0
 10
21.06202962972181
 20
-193.8551909037734
 30
0.0
 10
21.51391082481885
 20
-194.0044469021508
 30
0.0
 10
21.93743111283577
 20
-194.1824493727942
 30
0.0
 10
22.32526929437706
 20
-194.3889438999607
 30
0.0
 10
22.6749811885692
 20
-194.6189710243193
 30
0.0
 10
22.98602401101976
 20
-194.8754682758036
 30
0.0
 10
23.26258668619155
 20
-195.1554729947295
 30
0.0
 10
23.51089001848054
 20
-195.4550216908311
 30
0.0
 10
23.72845146567457
 20
-195.7760812676462
 30
0.0
 10
23.92033326289075
 20
-196.1191448403052
 30
0.0
 10
24.08511696992348
 20
-196.4934493477879
 30
0.0
 10
24.23377601394935
 20
-196.9015284935707
 30
0.0
 10
24.35577000687021
 20
-197.3508720813885
 30
0.0
 10
24.42100929581382
 20
-197.6646734402761
 30
0.0
 10
24.45477430555759
 20
-197.8270833333331
 30
0.0
  0
SPLINE
  5
D8
330
1F
100
AcDbEntity
  8
0
  6
Continuous
 62
     7
370
    25
100
AcDbSpline
210
0.0
220
0.0
230
1.0
 70
     8
 71
     3
 72
    23
 73
    19
 74
     0
 42
0.00000001
 43
0.00000001
 40
0.0
 40
0.0
 40
0.0
 40
0.0
 40
0.0639335652641621
 40
0.1266548132470097
 40
0.1878155384597858
 40
0.2480850728564776
 40
0.308632886667208
 40
0.3687677905136394
 40
0.4292101580696003
 40
0.4908098166249477
 40
0.5528453029188254
 40
0.6146043524921069
 40
0.676368262495061
 40
0.7391636505082732
 40
0.8026164877359349
 40
0.8668299843952858
 40
0.9325612268030854
 40
0.9999999999999999
 40
0.9999999999999999
 40
0.9999999999999999
 40
0.9999999999999999
 10
15.02986111111312
 20
-196.3687499999998
 30
0.0
 10
15.08084454417935
 20
-196.2607359820977
 30
0.0
 10
15.18184465526365
 20
-196.0467561233347
 30
0.0
 10
15.36344945793269
 20
-195.7460997448278
 30
0.0
 10
15.56148551505693
 20
-195.4647537196627
 30
0.0
 10
15.77751488984797
 20
-195.2019698632957
 30
0.0
 10
16.01366029240888
 20
-194.9598297209616
 30
0.0
 10
16.26836681377994
 20
-194.7366742467227
 30
0.0
 10
16.54427076815444
 20
-194.5370841264012
 30
0.0
 10
16.83596660976118
 20
-194.3547268989982
 30
0.0
 10
17.14370772151887
 20
-194.1954859183417
 30
0.0
 10
17.46115215238817
 20
-194.0561754248775
 30
0.0
 10
17.78860339212132
 20
-193.9376736243326
 30
0.0
 10
18.1271167161563
 20
-193.8439090975338
 30
0.0
 10
18.47440849463794
 20
-193.7660678741446
 30
0.0
 10
18.83226626269048
 20
-193.7159406746018
 30
0.0
 10
19.19946787555025
 20
-193.6814282885257
 30
0.0
 10
19.44818090651704
 20
-193.6775643700622
 30
0.0
 10
19.57413194444643
 20
-193.6756076388887
 30
0.0
  0
SPLINE
  5
D9
330
1F
100
AcDbEntity
  8
0
  6
Continuous
 62
     7
370
    25
100
AcDbSpline
210
0.0
220
0.0
230
1.0
 70
     8
 71
     3
 72
    15
 73
    11
 74
     0
 42
0.00000001
 43
0.00000001
 40
0.0
 40
0.0
 40
0.0
 40
0.0
 40
0.1484883489192777
 40
0.2897192813194125
 40
0.4232598885552213
 40
0.5507010776386247
 40
0.6718200544540444
 40
0.7866813982641804
 40
0.8960683342418877
 40
1.0
 40
1.0
 40
1.0
 40
1.0
 10
14.54375000000205
 20
-199.2311631944443
 30
0.0
 10
14.54578813048771
 20
-199.0864718924381
 30
0.0
 10
14.54976477716632
 20
-198.8041611230376
 30
0.0
 10
14.56984636213408
 20
-198.3919811062709
 30
0.0
 10
14.61065302986893
 20
-198.002053334322
 30
0.0
 10
14.66017024244526
 20
-197.6328196411307
 30
0.0
 10
14.73111742591804
 20
-197.2856420303173
 30
0.0
 10
14.81178010276737
 20
-196.9587352777702
 30
0.0
 10
14.91145989497443
 20
-196.654422884827
 30
0.0
 10
14.9910726942639
 20
-196.4623368676062
 30
0.0
 10
15.02986111111312
 20
-196.3687499999999
 30
0.0
  0
SPLINE
  5
DD
330
1F
100
AcDbEntity
  8
0
  6
Continuous
 62
     7
370
    25
100
AcDbSpline
210
0.0
220
0.0
230
1.0
 70
     8
 71
     3
 72
    23
 73
    19
 74
     0
 42
0.00000001
 43
0.00000001
 40
0.0
 40
0.0
 40
0.0
 40
0.0
 40
0.084612753450696
 40
0.1619144606629838
 40
0.229880684557713
 40
0.2895648750439992
 40
0.3420514708676103
 40
0.3854965674004647
 40
0.4217551846928438
 40
0.4495088320332251
 40
0.4986124906573524
 40
0.5519752119292846
 40
0.6097553304323361
 40
0.6732052240175874
 40
0.7433128260372317
 40
0.8203600646127917
 40
0.9048566891820667
 40
1.0
 40
1.0
 40
1.0
 40
1.0
 10
16.21041666666874
 20
-202.2867187499998
 30
0.0
 10
16.15182520409854
 20
-202.2875472270274
 30
0.0
 10
16.03970493056273
 20
-202.289132595729
 30
0.0
 10
15.88048467492814
 20
-202.28974425723
 30
0.0
 10
15.73866210150905
 20
-202.2967166210911
 30
0.0
 10
15.61428486089481
 20
-202.3056874841099
 30
0.0
 10
15.50670604450186
 20
-202.3144371962748
 30
0.0
 10
15.41682076910413
 20
-202.3317903738127
 30
0.0
 10
15.3431694328965
 20
-202.3438906186103
 30
0.0
 10
15.26938882042829
 20
-202.371136882153
 30
0.0
 10
15.19033605539137
 20
-202.4157509543527
 30
0.0
 10
15.10579005838145
 20
-202.4885984903133
 30
0.0
 10
15.02754634152237
 20
-202.5812649151623
 30
0.0
 10
14.95530512350301
 20
-202.6927672436491
 30
0.0
 10
14.89394004890177
 20
-202.8258178498919
 30
0.0
 10
14.85203933432899
 20
-202.9812459080973
 30
0.0
 10
14.82561053926365
 20
-203.1574898979536
 30
0.0
 10
14.822941428176
 20
-203.2819816670116
 30
0.0
 10
14.82152777777987
 20
-203.3479166666665
 30
0.0
  0
SPLINE
  5
DF
330
1F
100
AcDbEntity
  8
0
  6
Continuous
 62
     7
370
    25
100
AcDbSpline
210
0.0
220
0.0
230
1.0
 70
     8
 71
     3
 72
    15
 73
    11
 74
     0
 42
0.00000001
 43
0.00000001
 40
0.0
 40
0.0
 40
0.0
 40
0.0
 40
0.0554476680579137
 40
0.1289257152690231
 40
0.2233588542939375
 40
0.3366470575720555
 40
0.4714852077269462
 40
0.6276699207589705
 40
0.8030601813005606
 40
0.9999999999999999
 40
0.9999999999999999
 40
0.9999999999999999
 40
0.9999999999999999
 10
23.77552083333541
 20
-202.3518229166665
 30
0.0
 10
23.75970366944696
 20
-202.3464002803857
 30
0.0
 10
23.72292594300196
 20
-202.333791684107
 30
0.0
 10
23.65647901753201
 20
-202.322034874191
 30
0.0
 10
23.57248120496295
 20
-202.3113721750088
 30
0.0
 10
23.46955385433275
 20
-202.3037551558055
 30
0.0
 10
23.34817228583152
 20
-202.293557611938
 30
0.0
 10
23.20764615390534
 20
-202.2915237406632
 30
0.0
 10
23.0485691566135
 20
-202.2852789556254
 30
0.0
 10
22.93640912426181
 20
-202.286220650866
 30
0.0
 10
22.87708333333541
 20
-202.2867187499997
 30
0.0
  0
SPLINE
  5
E0
330
1F
100
AcDbEntity
  8
0
  6
Continuous
 62
     7
370
    25
100
AcDbSpline
210
0.0
220
0.0
230
1.0
 70
     8
 71
     3
 72
    15
 73
    11
 74
     0
 42
0.00000001
 43
0.00000001
 40
0.0
 40
0.0
 40
0.0
 40
0.0
 40
0.1715137813372215
 40
0.3221286938921416
 40
0.4557725164959747
 40
0.5753242248045095
 40
0.6841739787898525
 40
0.7899069906995908
 40
0.893499173984606
 40
1.0
 40
1.0
 40
1.0
 40
1.0
 10
24.26597222222432
 20
-203.3479166666664
 30
0.0
 10
24.26432826818273
 20
-203.2805683777047
 30
0.0
 10
24.26124067508024
 20
-203.1540781552282
 30
0.0
 10
24.23816272895023
 20
-202.9762177673624
 30
0.0
 10
24.19806634170574
 20
-202.8222657212266
 30
0.0
 10
24.13912607886878
 20
-202.6919847164693
 30
0.0
 10
24.06449218067777
 20
-202.5836596419296
 30
0.0
 10
23.98295364056657
 20
-202.4884525075417
 30
0.0
 10
23.88492026389144
 20
-202.4110969162443
 30
0.0
 10
23.81232233867176
 20
-202.3717624392095
 30
0.0
 10
23.77552083333541
 20
-202.3518229166665
 30
0.0
  0
SPLINE
  5
127
330
1F
100
AcDbEntity
  8
0
  6
Continuous
 62
     7
370
    25
100
AcDbSpline
210
0.0
220
0.0
230
1.0
 70
     8
 71
     3
 72
    11
 73
     7
 74
     0
 42
0.00000001
 43
0.00000001
 40
0.0
 40
0.0
 40
0.0
 40
0.0
 40
0.2093610344976014
 40
0.4464669542277072
 40
0.7084325846751117
 40
1.0
 40
1.0
 40
1.0
 40
1.0
 10
50.37595486111121
 20
-14.94522569444393
 30
0.0
 10
50.31990887621249
 20
-14.92579347996176
 30
0.0
 10
50.20038959587228
 20
-14.88435386043287
 30
0.0
 10
50.00256722631066
 20
-14.847774935385
 30
0.0
 10
49.77963027973392
 20
-14.82696302887056
 30
0.0
 10
49.62297030139011
 20
-14.82340298928864
 30
0.0
 10
49.54045138888899
 20
-14.82152777777727
 30
0.0
  0
SPLINE
  5
128
330
1F
100
AcDbEntity
  8
0
  6
Continuous
 62
     7
370
    25
100
AcDbSpline
210
0.0
220
0.0
230
1.0
 70
     8
 71
     3
 72
    15
 73
    11
 74
     0
 42
0.00000001
 43
0.00000001
 40
0.0
 40
0.0
 40
0.0
 40
0.0
 40
0.1263407098085292
 40
0.2474896639401382
 40
0.3664873842949303
 40
0.4865379571477351
 40
0.6071389710934545
 40
0.7310981764955107
 40
0.8617682838019721
 40
0.9999999999999999
 40
0.9999999999999999
 40
0.9999999999999999
 40
0.9999999999999999
 10
50.83602430555567
 20
-15.58541666666614
 30
0.0
 10
50.8349993559783
 20
-15.54985364624989
 30
0.0
 10
50.83299157537577
 20
-15.48018900699899
 30
0.0
 10
50.81049624938
 20
-15.37902993605622
 30
0.0
 10
50.77334839565391
 20
-15.28442405388647
 30
0.0
 10
50.72085492908988
 20
-15.19747186741034
 30
0.0
 10
50.6548614004128
 20
-15.11861682890892
 30
0.0
 10
50.5759891153417
 20
-15.04796272397894
 30
0.0
 10
50.48174418178358
 20
-14.98919745108972
 30
0.0
 10
50.41187290255444
 20
-14.9601551728402
 30
0.0
 10
50.37595486111121
 20
-14.94522569444393
 30
0.0
  0
SPLINE
  5
129
330
1F
100
AcDbEntity
  8
0
  6
Continuous
 62
     7
370
    25
100
AcDbSpline
210
0.0
220
0.0
230
1.0
 70
     8
 71
     3
 72
    17
 73
    13
 74
     0
 42
0.00000001
 43
0.00000001
 40
0.0
 40
0.0
 40
0.0
 40
0.0
 40
0.1340703849795683
 40
0.2550331934463178
 40
0.3645759520974379
 40
0.4615209621080026
 40
0.5458693035482024
 40
0.6183490298917534
 40
0.6782524972719766
 40
0.7251937003708062
 40
0.876631835891832
 40
1.0
 40
1.0
 40
1.0
 40
1.0
 10
50.29348958333346
 20
-17.18263888888838
 30
0.0
 10
50.324044385852
 20
-17.11326916663018
 30
0.0
 10
50.382166758385
 20
-16.98131174890001
 30
0.0
 10
50.46257161827523
 20
-16.79151596374996
 30
0.0
 10
50.53396500535992
 20
-16.62070028064118
 30
0.0
 10
50.59654199617697
 20
-16.46865373166462
 30
0.0
 10
50.65225486539196
 20
-16.33639692731494
 30
0.0
 10
50.69444754475546
 20
-16.22135628875758
 30
0.0
 10
50.73044047942491
 20
-16.12651520584119
 30
0.0
 10
50.77317191302009
 20
-15.98692390893754
 30
0.0
 10
50.82193309017035
 20
-15.81059188502773
 30
0.0
 10
50.83165836165304
 20
-15.65518370554449
 30
0.0
 10
50.83602430555567
 20
-15.58541666666614
 30
0.0
  0
SPLINE
  5
12C
330
1F
100
AcDbEntity
  8
0
  6
Continuous
 62
     7
370
    25
100
AcDbSpline
210
0.0
220
0.0
230
1.0
 70
     8
 71
     3
 72
    17
 73
    13
 74
     0
 42
0.00000001
 43
0.00000001
 40
0.0
 40
0.0
 40
0.0
 40
0.0
 40
0.1027584357504483
 40
0.2244325439629691
 40
0.2655708949034025
 40
0.3233772937501826
 40
0.3969808414278547
 40
0.485245370553243
 40
0.5893365059177815
 40
0.7107048626354275
 40
0.8467142167753056
 40
1.0
 40
1.0
 40
1.0
 40
1.0
 10
45.80130208333344
 20
-15.30112847222176
 30
0.0
 10
45.80493304134624
 20
-15.34908388773838
 30
0.0
 10
45.81286334057556
 20
-15.45382230480945
 30
0.0
 10
45.84650820161515
 20
-15.57416316507684
 30
0.0
 10
45.88218487639318
 20
-15.67081301336666
 30
0.0
 10
45.90945874966576
 20
-15.74671334302587
 30
0.0
 10
45.95003115132074
 20
-15.84102839325466
 30
0.0
 10
45.99420945621928
 20
-15.95719237425622
 30
0.0
 10
46.0516961217739
 20
-16.092051968239
 30
0.0
 10
46.11919265237036
 20
-16.24686045418458
 30
0.0
 10
46.19238411441554
 20
-16.42423424215164
 30
0.0
 10
46.24598919743917
 20
-16.548316391596
 30
0.0
 10
46.27439236111123
 20
-16.61406249999953
 30
0.0
  0
SPLINE
  5
12D
330
1F
100
AcDbEntity
  8
0
  6
Continuous
 62
     7
370
    25
100
AcDbSpline
210
0.0
220
0.0
230
1.0
 70
     8
 71
     3
 72
    11
 73
     7
 74
     0
 42
0.00000001
 43
0.00000001
 40
0.0
 40
0.0
 40
0.0
 40
0.0
 40
0.253544352365588
 40
0.4931113665181469
 40
0.7336446589224078
 40
1.0
 40
1.0
 40
1.0
 40
1.0
 10
45.97057291666677
 20
-14.98211805555509
 30
0.0
 10
45.9446359004142
 20
-15.00102246921405
 30
0.0
 10
45.89419171813056
 20
-15.03778913810497
 30
0.0
 10
45.84180005973056
 20
-15.11528551737179
 30
0.0
 10
45.80620102362118
 20
-15.20339677475368
 30
0.0
 10
45.80298959588342
 20
-15.26746334133207
 30
0.0
 10
45.80130208333344
 20
-15.30112847222176
 30
0.0
  0
SPLINE
  5
12E
330
1F
100
AcDbEntity
  8
0
  6
Continuous
 62
     7
370
    25
100
AcDbSpline
210
0.0
220
0.0
230
1.0
 70
     8
 71
     3
 72
    11
 73
     7
 74
     0
 42
0.00000001
 43
0.00000001
 40
0.0
 40
0.0
 40
0.0
 40
0.0
 40
0.3293660339014174
 40
0.6029278382156913
 40
0.8237779144166906
 40
1.0
 40
1.0
 40
1.0
 40
1.0
 10
46.84947916666676
 20
-14.8215277777773
 30
0.0
 10
46.75021977053605
 20
-14.82328073347633
 30
0.0
 10
46.5685184201485
 20
-14.82648964296095
 30
0.0
 10
46.32240861102959
 20
-14.85647582890236
 30
0.0
 10
46.12330935712411
 20
-14.90023077614955
 30
0.0
 10
46.01752181630349
 20
-14.95694712941054
 30
0.0
 10
45.97057291666677
 20
-14.98211805555509
 30
0.0
  0
SPLINE
  5
133
330
1F
100
AcDbEntity
  8
0
  6
Continuous
 62
     7
370
    25
100
AcDbSpline
210
0.0
220
0.0
230
1.0
 70
     8
 71
     3
 72
    19
 73
    15
 74
     0
 42
0.00000001
 43
0.00000001
 40
0.0
 40
0.0
 40
0.0
 40
0.0
 40
0.1341655931047223
 40
0.2538598215297601
 40
0.359826000618441
 40
0.4520760620251474
 40
0.5302803171944984
 40
0.5941406015790074
 40
0.6444446339598969
 40
0.6807018451263663
 40
0.7430134279726941
 40
0.8147266608523578
 40
0.9003905833539794
 40
1.0
 40
1.0
 40
1.0
 40
1.0
 10
43.93281250000011
 20
-16.76163194444399
 30
0.0
 10
43.8838609705519
 20
-16.6515711647021
 30
0.0
 10
43.79123791987427
 20
-16.44332097733182
 30
0.0
 10
43.65632452215894
 20
-16.14977309973979
 30
0.0
 10
43.53470901066592
 20
-15.89156379930175
 30
0.0
 10
43.42752446243059
 20
-15.66769750976335
 30
0.0
 10
43.33001017127547
 20
-15.48125975353153
 30
0.0
 10
43.24531781117094
 20
-15.33066685553805
 30
0.0
 10
43.1749601952211
 20
-15.21545995028488
 30
0.0
 10
43.09699297108549
 20
-15.10623014913753
 30
0.0
 10
42.97616986718461
 20
-15.00900875219074
 30
0.0
 10
42.79966960660538
 20
-14.91871860378993
 30
0.0
 10
42.57592482593764
 20
-14.85700122050697
 30
0.0
 10
42.41115529683967
 20
-14.83393108708569
 30
0.0
 10
42.32256944444454
 20
-14.82152777777734
 30
0.0
  0
SPLINE
  5
137
330
1F
100
AcDbEntity
  8
0
  6
Continuous
 62
     7
370
    25
100
AcDbSpline
210
0.0
220
0.0
230
1.0
 70
     8
 71
     3
 72
    15
 73
    11
 74
     0
 42
0.00000001
 43
0.00000001
 40
0.0
 40
0.0
 40
0.0
 40
0.0
 40
0.0686855839473736
 40
0.1533253195933735
 40
0.2533074399630175
 40
0.3697541064027238
 40
0.5032837531793244
 40
0.6529605348839114
 40
0.8178805146323394
 40
1.0
 40
1.0
 40
1.0
 40
1.0
 10
51.96015625000011
 20
-15.41180555555502
 30
0.0
 10
51.93207359764754
 20
-15.44755105361381
 30
0.0
 10
51.86938530995266
 20
-15.52734494337805
 30
0.0
 10
51.78049439960405
 20
-15.66963069664766
 30
0.0
 10
51.68001654736199
 20
-15.84152851889045
 30
0.0
 10
51.57237029339556
 20
-16.04652729888408
 30
0.0
 10
51.45376167690369
 20
-16.28273697743946
 30
0.0
 10
51.32290511985526
 20
-16.54871557304521
 30
0.0
 10
51.18685492200997
 20
-16.84778578759973
 30
0.0
 10
51.09340061897007
 20
-17.05743049678902
 30
0.0
 10
51.04435763888901
 20
-17.16744791666615
 30
0.0
  0
SPLINE
  5
138
330
1F
100
AcDbEntity
  8
0
  6
Continuous
 62
     7
370
    25
100
AcDbSpline
210
0.0
220
0.0
230
1.0
 70
     8
 71
     3
 72
    11
 73
     7
 74
     0
 42
0.00000001
 43
0.00000001
 40
0.0
 40
0.0
 40
0.0
 40
0.0
 40
0.2369182312099584
 40
0.4763327855864856
 40
0.7276821857468508
 40
1.0
 40
1.0
 40
1.0
 40
1.0
 10
52.92586805555566
 20
-14.82152777777723
 30
0.0
 10
52.83623085197512
 20
-14.8406896534284
 30
0.0
 10
52.65601196947017
 20
-14.87921530660151
 30
0.0
 10
52.40635204491262
 20
-15.01191883253779
 30
0.0
 10
52.16590159200688
 20
-15.18327353594721
 30
0.0
 10
52.03054466160364
 20
-15.33362149702983
 30
0.0
 10
51.96015625000011
 20
-15.41180555555502
 30
0.0
  0
SPLINE
  5
13B
330
1F
100
AcDbEntity
  8
0
  6
Continuous
 62
     7
370
    25
100
AcDbSpline
210
0.0
220
0.0
230
1.0
 70
     8
 71
     3
 72
    15
 73
    11
 74
     0
 42
0.00000001
 43
0.00000001
 40
0.0
 40
0.0
 40
0.0
 40
0.0
 40
0.1108115786351053
 40
0.218891535555413
 40
0.3268912847044348
 40
0.4393716309874437
 40
0.559037679621366
 40
0.689445924377748
 40
0.8342590408035495
 40
1.0
 40
1.0
 40
1.0
 40
1.0
 10
15.09930555555705
 20
-147.3080729166665
 30
0.0
 10
15.09708449611155
 20
-147.2695456791535
 30
0.0
 10
15.09269712866698
 20
-147.1934409409682
 30
0.0
 10
15.06174344891181
 20
-147.0830751934989
 30
0.0
 10
15.00836956119428
 20
-146.9812655891728
 30
0.0
 10
14.9331311074687
 20
-146.8891640247523
 30
0.0
 10
14.83620053559968
 20
-146.8074044330687
 30
0.0
 10
14.71439401620253
 20
-146.7421748420147
 30
0.0
 10
14.56784055667298
 20
-146.6951875409337
 30
0.0
 10
14.46157463458396
 20
-146.6759687603786
 30
0.0
 10
14.40486111111261
 20
-146.6657118055554
 30
0.0
  0
SPLINE
  5
13C
330
1F
100
AcDbEntity
  8
0
  6
Continuous
 62
     7
370
    25
100
AcDbSpline
210
0.0
220
0.0
230
1.0
 70
     8
 71
     3
 72
    15
 73
    11
 74
     0
 42
0.00000001
 43
0.00000001
 40
0.0
 40
0.0
 40
0.0
 40
0.0
 40
0.1905317592330725
 40
0.3644002334750167
 40
0.5171827112215182
 40
0.6496513117953928
 40
0.7650984589014183
 40
0.8632273073386322
 40
0.9403105517585024
 40
1.0
 40
1.0
 40
1.0
 40
1.0
 10
14.84322916666818
 20
-148.1804687499998
 30
0.0
 10
14.8637344471861
 20
-148.126308977884
 30
0.0
 10
14.90295168340056
 20
-148.0227260703234
 30
0.0
 10
14.95470785481237
 20
-147.8742545301104
 30
0.0
 10
14.99697433431929
 20
-147.7412983673061
 30
0.0
 10
15.03697064299787
 20
-147.6261153267313
 30
0.0
 10
15.06027627254991
 20
-147.5234674853556
 30
0.0
 10
15.0843723291184
 20
-147.4383947835206
 30
0.0
 10
15.09528706492357
 20
-147.3676579097962
 30
0.0
 10
15.09808465117531
 20
-147.3261761265116
 30
0.0
 10
15.09930555555705
 20
-147.3080729166665
 30
0.0
  0
SPLINE
  5
13D
330
1F
100
AcDbEntity
  8
0
  6
Continuous
 62
     7
370
    25
100
AcDbSpline
210
0.0
220
0.0
230
1.0
 70
     8
 71
     3
 72
    11
 73
     7
 74
     0
 42
0.00000001
 43
0.00000001
 40
0.0
 40
0.0
 40
0.0
 40
0.0
 40
0.2344398790845307
 40
0.478710041576932
 40
0.7329902712938126
 40
1.0
 40
1.0
 40
1.0
 40
1.0
 10
14.40486111111264
 20
-150.4352430555554
 30
0.0
 10
14.41065036072138
 20
-150.2548186279857
 30
0.0
 10
14.42247160858978
 20
-149.8864044078423
 30
0.0
 10
14.50980287501968
 20
-149.3280980046262
 30
0.0
 10
14.64532983810821
 20
-148.7541325402573
 30
0.0
 10
14.7761974947131
 20
-148.3747778630264
 30
0.0
 10
14.84322916666818
 20
-148.1804687499998
 30
0.0
  0
SPLINE
  5
13E
330
1F
100
AcDbEntity
  8
0
  6
Continuous
 62
     7
370
    25
100
AcDbSpline
210
0.0
220
0.0
230
1.0
 70
     8
 71
     3
 72
    31
 73
    27
 74
     0
 42
0.00000001
 43
0.00000001
 40
0.0
 40
0.0
 40
0.0
 40
0.0
 40
0.0410175939036707
 40
0.0814837044408132
 40
0.1220498430890217
 40
0.1626886473391437
 40
0.2033561625778732
 40
0.2447318443235141
 40
0.2865316312631111
 40
0.3293945020433697
 40
0.3721278305313942
 40
0.4143482305827601
 40
0.4560828120506452
 40
0.4976804410975869
 40
0.5393403770568835
 40
0.5809036974888917
 40
0.6230687708419884
 40
0.6655204501410907
 40
0.707998088635731
 40
0.7500946715476865
 40
0.7917359252222708
 40
0.833080251060452
 40
0.8745381292295834
 40
0.9160272774877671
 40
0.9577097767025121
 40
1.0
 40
1.0
 40
1.0
 40
1.0
 10
19.72387152777938
 20
-155.971267361111
 30
0.0
 10
19.6072925610031
 20
-155.9696312992747
 30
0.0
 10
19.37570203682165
 20
-155.9663811725259
 30
0.0
 10
19.03085226094717
 20
-155.9263862813554
 30
0.0
 10
18.68985641809173
 20
-155.8690864577094
 30
0.0
 10
18.35325971495895
 20
-155.7864925410932
 30
0.0
 10
18.02152319238981
 20
-155.6789085629819
 30
0.0
 10
17.69410975304778
 20
-155.5494116496398
 30
0.0
 10
17.37149110068101
 20
-155.393522878557
 30
0.0
 10
17.05508273198335
 20
-155.2174514548909
 30
0.0
 10
16.74959823293201
 20
-155.02064991748
 30
0.0
 10
16.46100778446496
 20
-154.8052294801451
 30
0.0
 10
16.18831911848158
 20
-154.5749412069488
 30
0.0
 10
15.93397302236349
 20
-154.3267706908034
 30
0.0
 10
15.69726837928072
 20
-154.0623493406204
 30
0.0
 10
15.47962315835204
 20
-153.7800729082097
 30
0.0
 10
15.27743685209934
 20
-153.4837797083287
 30
0.0
 10
15.09617323262491
 20
-153.1712174165167
 30
0.0
 10
14.93353675926067
 20
-152.8488670965154
 30
0.0
 10
14.7926218674867
 20
-152.5189140410037
 30
0.0
 10
14.67290600382053
 20
-152.1841368202844
 30
0.0
 10
14.57468576811009
 20
-151.8442960704149
 30
0.0
 10
14.49884329446913
 20
-151.4991932853061
 30
0.0
 10
14.4447777886258
 20
-151.1491277796024
 30
0.0
 10
14.41097557691198
 20
-150.7939835580133
 30
0.0
 10
14.4069090763517
 20
-150.5553987818257
 30
0.0
 10
14.40486111111265
 20
-150.4352430555555
 30
0.0
  0
SPLINE
  5
13F
330
1F
100
AcDbEntity
  8
0
  6
Continuous
 62
     7
370
    25
100
AcDbSpline
210
0.0
220
0.0
230
1.0
 70
     8
 71
     3
 72
    31
 73
    27
 74
     0
 42
0.00000001
 43
0.00000001
 40
0.0
 40
0.0
 40
0.0
 40
0.0
 40
0.0479180350991639
 40
0.0943650655598295
 40
0.1400360946519505
 40
0.184529423317774
 40
0.2282548505169961
 40
0.2713692833216294
 40
0.3137913397127168
 40
0.3561799102671821
 40
0.3978740186317551
 40
0.4389732850496375
 40
0.4791883364193188
 40
0.5194705061411862
 40
0.5592978667800592
 40
0.599264120118221
 40
0.6396493310292038
 40
0.6805475474795816
 40
0.7214034007849793
 40
0.7615684709285101
 40
0.8015520519298904
 40
0.8411045422503186
 40
0.8805579615958652
 40
0.9200613858511958
 40
0.9597109526667252
 40
1.0
 40
1.0
 40
1.0
 40
1.0
 10
24.68263888889043
 20
-150.5415798611109
 30
0.0
 10
24.68022386511118
 20
-150.6732771922333
 30
0.0
 10
24.67546795479925
 20
-150.9326289636427
 30
0.0
 10
24.64765952896536
 20
-151.3167731613451
 30
0.0
 10
24.59761182812384
 20
-151.6891177576348
 30
0.0
 10
24.52820504112979
 20
-152.0507211839605
 30
0.0
 10
24.43912329731437
 20
-152.4007461987014
 30
0.0
 10
24.33109824834478
 20
-152.7394636798957
 30
0.0
 10
24.20191853327954
 20
-153.0667463655653
 30
0.0
 10
24.05517415993659
 20
-153.3821642344726
 30
0.0
 10
23.89098354369388
 20
-153.684887164193
 30
0.0
 10
23.7061782693403
 20
-153.9683834969757
 30
0.0
 10
23.50526785093793
 20
-154.2357937416887
 30
0.0
 10
23.2867225565315
 20
-154.4844758270857
 30
0.0
 10
23.05086162403144
 20
-154.7156673205037
 30
0.0
 10
22.79901865511523
 20
-154.9300506174056
 30
0.0
 10
22.52597215011846
 20
-155.1216852883345
 30
0.0
 10
22.24114290649076
 20
-155.2996803629433
 30
0.0
 10
21.94501860843886
 20
-155.4571659729031
 30
0.0
 10
21.64179284137657
 20
-155.5941820508751
 30
0.0
 10
21.33449530057158
 20
-155.7125087329779
 30
0.0
 10
21.02047554568136
 20
-155.8049470880779
 30
0.0
 10
20.70311660682761
 20
-155.8788926792723
 30
0.0
 10
20.38160907965059
 20
-155.9343673029019
 30
0.0
 10
20.05431275325414
 20
-155.9643985468593
 30
0.0
 10
19.83460446568985
 20
-155.9689655781511
 30
0.0
 10
19.72387152777937
 20
-155.9712673611109
 30
0.0
  0
SPLINE
  5
140
330
1F
100
AcDbEntity
  8
0
  6
Continuous
 62
     7
370
    25
100
AcDbSpline
210
0.0
220
0.0
230
1.0
 70
     8
 71
     3
 72
    15
 73
    11
 74
     0
 42
0.00000001
 43
0.00000001
 40
0.0
 40
0.0
 40
0.0
 40
0.0
 40
0.135049085818993
 40
0.2620459811009148
 40
0.38321685330124
 40
0.4987750828483097
 40
0.615134672779094
 40
0.736362223949629
 40
0.864443205590008
 40
1.0
 40
1.0
 40
1.0
 40
1.0
 10
23.03767361111261
 20
-146.6657118055554
 30
0.0
 10
23.17490209527298
 20
-146.8050610267297
 30
0.0
 10
23.44117692822517
 20
-147.0754508865118
 30
0.0
 10
23.78631165956764
 20
-147.5110614645707
 30
0.0
 10
24.07271550685473
 20
-147.9538019983768
 30
0.0
 10
24.30152528885135
 20
-148.4120085400827
 30
0.0
 10
24.47522161370713
 20
-148.8940555925798
 30
0.0
 10
24.59493814061524
 20
-149.4104787714116
 30
0.0
 10
24.67059004960297
 20
-149.9635268891506
 30
0.0
 10
24.67854739529049
 20
-150.3452870914278
 30
0.0
 10
24.68263888889043
 20
-150.5415798611109
 30
0.0
  0
SPLINE
  5
142
330
1F
100
AcDbEntity
  8
0
  6
Continuous
 62
     7
370
    25
100
AcDbSpline
210
0.0
220
0.0
230
1.0
 70
     8
 71
     3
 72
    19
 73
    15
 74
     0
 42
0.00000001
 43
0.00000001
 40
0.0
 40
0.0
 40
0.0
 40
0.0
 40
0.116391392069484
 40
0.2298522823190757
 40
0.341002053204953
 40
0.4519024978396687
 40
0.50881497535489
 40
0.568442421385521
 40
0.6317383332560739
 40
0.6984546127050728
 40
0.7684093686242361
 40
0.8417235442065538
 40
0.9188946938838135
 40
1.0
 40
1.0
 40
1.0
 40
1.0
 10
23.98819444444597
 20
-150.0554687499998
 30
0.0
 10
23.98310291442748
 20
-149.9010904008973
 30
0.0
 10
23.9730480489049
 20
-149.5962206399045
 30
0.0
 10
23.89583469928258
 20
-149.1491058558175
 30
0.0
 10
23.76651535270473
 20
-148.7225090595407
 30
0.0
 10
23.61757912821931
 20
-148.3827620584116
 30
0.0
 10
23.4696262528313
 20
-148.1197825436946
 30
0.0
 10
23.34059838078925
 20
-147.9191149915537
 30
0.0
 10
23.19314553534062
 20
-147.7152705951183
 30
0.0
 10
23.0254539624901
 20
-147.5097485798983
 30
0.0
 10
22.84067727867979
 20
-147.3014034032423
 30
0.0
 10
22.63848984358871
 20
-147.0902112576453
 30
0.0
 10
22.41641884255537
 20
-146.8780161152169
 30
0.0
 10
22.26041136689956
 20
-146.737642958069
 30
0.0
 10
22.1804687500015
 20
-146.6657118055554
 30
0.0
  0
SPLINE
  5
143
330
1F
100
AcDbEntity
  8
0
  6
Continuous
 62
     7
370
    25
100
AcDbSpline
210
0.0
220
0.0
230
1.0
 70
     8
 71
     3
 72
    27
 73
    23
 74
     0
 42
0.00000001
 43
0.00000001
 40
0.0
 40
0.0
 40
0.0
 40
0.0
 40
0.1003450890490891
 40
0.1967187155615267
 40
0.2893376606768117
 40
0.3791443900257999
 40
0.4223658216605156
 40
0.4639714073731873
 40
0.5039565466245715
 40
0.542669938888161
 40
0.580136287135425
 40
0.6168296647124362
 40
0.6528876110756394
 40
0.6886236050438022
 40
0.7242721733532365
 40
0.7603301197164357
 40
0.7968498559002851
 40
0.8345851471161225
 40
0.8734207438706543
 40
0.9137727203467444
 40
0.9561243947954567
 40
0.9999999999999999
 40
0.9999999999999999
 40
0.9999999999999999
 40
0.9999999999999999
 10
19.42222222222378
 20
-153.3323784722221
 30
0.0
 10
19.63576924606919
 20
-153.328168789365
 30
0.0
 10
20.05441151985607
 20
-153.3199160346719
 30
0.0
 10
20.66761431650292
 20
-153.2564942157576
 30
0.0
 10
21.25179211678907
 20
-153.1504052426795
 30
0.0
 10
21.71646431490701
 20
-153.0264941090827
 30
0.0
 10
22.06738127367941
 20
-152.9039647855295
 30
0.0
 10
22.31344325007804
 20
-152.8032988930543
 30
0.0
 10
22.54142865981942
 20
-152.6866058442857
 30
0.0
 10
22.75609907655643
 20
-152.5632618534439
 30
0.0
 10
22.94834635788297
 20
-152.4187492557389
 30
0.0
 10
23.13045191169311
 20
-152.270766914776
 30
0.0
 10
23.2939746290419
 20
-152.1070911065545
 30
0.0
 10
23.43883568146625
 20
-151.9300081711115
 30
0.0
 10
23.57183901443207
 20
-151.7435233938849
 30
0.0
 10
23.68050180657058
 20
-151.5400007186131
 30
0.0
 10
23.77787525897872
 20
-151.3262397949226
 30
0.0
 10
23.85596769955199
 20
-151.0981232071519
 30
0.0
 10
23.91324069236279
 20
-150.8557559929277
 30
0.0
 10
23.95727799372249
 20
-150.6007620663052
 30
0.0
 10
23.98333162345751
 20
-150.3323418909162
 30
0.0
 10
23.98655451759806
 20
-150.1488408273052
 30
0.0
 10
23.98819444444597
 20
-150.0554687499998
 30
0.0
  0
SPLINE
  5
144
330
1F
100
AcDbEntity
  8
0
  6
Continuous
 62
     7
370
    25
100
AcDbSpline
210
0.0
220
0.0
230
1.0
 70
     8
 71
     3
 72
    15
 73
    11
 74
     0
 42
0.00000001
 43
0.00000001
 40
0.0
 40
0.0
 40
0.0
 40
0.0
 40
0.1195192915612536
 40
0.2402038471735107
 40
0.3618420476445059
 40
0.4853623651717741
 40
0.6101267483725488
 40
0.7376242287519005
 40
0.8672308174938761
 40
1.0
 40
1.0
 40
1.0
 40
1.0
 10
17.00034722222378
 20
-152.8592881944443
 30
0.0
 10
17.09176760664502
 20
-152.897368099428
 30
0.0
 10
17.27549968672355
 20
-152.9738991728438
 30
0.0
 10
17.56046556151636
 20
-153.0675085183759
 30
0.0
 10
17.85179944185029
 20
-153.1511333631721
 30
0.0
 10
18.15092425566159
 20
-153.2186113190298
 30
0.0
 10
18.45847164611152
 20
-153.2676297548743
 30
0.0
 10
18.77270564242314
 20
-153.3040188389194
 30
0.0
 10
19.09482449242716
 20
-153.3299397360535
 30
0.0
 10
19.31221618892773
 20
-153.3315590539191
 30
0.0
 10
19.42222222222378
 20
-153.332378472222
 30
0.0
  0
SPLINE
  5
145
330
1F
100
AcDbEntity
  8
0
  6
Continuous
 62
     7
370
    25
100
AcDbSpline
210
0.0
220
0.0
230
1.0
 70
     8
 71
     3
 72
    23
 73
    19
 74
     0
 42
0.00000001
 43
0.00000001
 40
0.0
 40
0.0
 40
0.0
 40
0.0
 40
0.064258925470975
 40
0.1270425727029857
 40
0.1899063275756421
 40
0.2520677341188229
 40
0.313735832857369
 40
0.3763201488427874
 40
0.4392942298004444
 40
0.5035558558503613
 40
0.5677958740899659
 40
0.6305546395391411
 40
0.6926601857128979
 40
0.7539670220001737
 40
0.8152483768848825
 40
0.8763595842272904
 40
0.9378162633594488
 40
0.9999999999999999
 40
0.9999999999999999
 40
0.9999999999999999
 40
0.9999999999999999
 10
15.09930555555708
 20
-149.9426215277776
 30
0.0
 10
15.10110898969835
 20
-150.0215285945536
 30
0.0
 10
15.10467445412728
 20
-150.1775311528628
 30
0.0
 10
15.12911166624256
 20
-150.4096988776641
 30
0.0
 10
15.16977957392324
 20
-150.6369103560747
 30
0.0
 10
15.228862094671
 20
-150.8586726661123
 30
0.0
 10
15.30378160117002
 20
-151.0750939039346
 30
0.0
 10
15.39160081591533
 20
-151.2877709655223
 30
0.0
 10
15.49905231415552
 20
-151.4949316600575
 30
0.0
 10
15.62253982522528
 20
-151.6951402526853
 30
0.0
 10
15.75734763095711
 20
-151.8877483369072
 30
0.0
 10
15.90696681863368
 20
-152.0655331190042
 30
0.0
 10
16.06184181401146
 20
-152.2338917242272
 30
0.0
 10
16.2303271045207
 20
-152.3861644237834
 30
0.0
 10
16.40849660055023
 20
-152.5246896545437
 30
0.0
 10
16.59524684963876
 20
-152.6519356327854
 30
0.0
 10
16.79386113650666
 20
-152.7621504622811
 30
0.0
 10
16.93124922711701
 20
-152.8267822630234
 30
0.0
 10
17.00034722222378
 20
-152.8592881944443
 30
0.0
  0
SPLINE
  5
146
330
1F
100
AcDbEntity
  8
0
  6
Continuous
 62
     7
370
    25
100
AcDbSpline
210
0.0
220
0.0
230
1.0
 70
     8
 71
     3
 72
    23
 73
    19
 74
     0
 42
0.00000001
 43
0.00000001
 40
0.0
 40
0.0
 40
0.0
 40
0.0
 40
0.0726172127862122
 40
0.1429555673138987
 40
0.2101703395174155
 40
0.2754662139313125
 40
0.3394712363903005
 40
0.4021570980812685
 40
0.4638223021353161
 40
0.5256142518181489
 40
0.586691615195583
 40
0.6463378064501123
 40
0.7049233811764163
 40
0.7635312092238759
 40
0.8216269247379635
 40
0.8801401177213819
 40
0.9393511297009954
 40
1.0
 40
1.0
 40
1.0
 40
1.0
 10
17.87708333333483
 20
-146.6657118055554
 30
0.0
 10
17.76805412439183
 20
-146.6943925714074
 30
0.0
 10
17.55341723844968
 20
-146.7508540492864
 30
0.0
 10
17.24678948746054
 20
-146.8629405532545
 30
0.0
 10
16.95744415076572
 20
-146.9876374690778
 30
0.0
 10
16.69002907504654
 20
-147.1348728026636
 30
0.0
 10
16.4389360871202
 20
-147.295961657333
 30
0.0
 10
16.2114679955412
 20
-147.480181673203
 30
0.0
 10
16.00052363558945
 20
-147.6779900495324
 30
0.0
 10
15.81288773621073
 20
-147.8949471421064
 30
0.0
 10
15.64662927576174
 20
-148.1245860842104
 30
0.0
 10
15.50084556740008
 20
-148.3617884555008
 30
0.0
 10
15.37451309364395
 20
-148.605944143347
 30
0.0
 10
15.27756510236249
 20
-148.8603645697502
 30
0.0
 10
15.19342799076118
 20
-149.1193501677211
 30
0.0
 10
15.14243224265489
 20
-149.3877668116635
 30
0.0
 10
15.10445783555346
 20
-149.662316741402
 30
0.0
 10
15.10103666253545
 20
-149.8484423348558
 30
0.0
 10
15.09930555555708
 20
-149.9426215277777
 30
0.0
  0
SPLINE
  5
14A
330
1F
100
AcDbEntity
  8
0
  6
Continuous
 62
     7
370
    25
100
AcDbSpline
210
0.0
220
0.0
230
1.0
 70
     8
 71
     3
 72
    11
 73
     7
 74
     0
 42
0.00000001
 43
0.00000001
 40
0.0
 40
0.0
 40
0.0
 40
0.0
 40
0.1037406372088866
 40
0.3068206855435469
 40
0.6046480276905518
 40
1.0
 40
1.0
 40
1.0
 40
1.0
 10
23.48906250000053
 20
-54.57083333333311
 30
0.0
 10
23.46947491076482
 20
-54.57718661460255
 30
0.0
 10
23.41154315211029
 20
-54.59597691864334
 30
0.0
 10
23.30029124019689
 20
-54.64113290479792
 30
0.0
 10
23.13426655574505
 20
-54.70491348259572
 30
0.0
 10
23.00780430700873
 20
-54.75910783500795
 30
0.0
 10
22.93567708333385
 20
-54.79001736111088
 30
0.0
  0
SPLINE
  5
14B
330
1F
100
AcDbEntity
  8
0
  6
Continuous
 62
     7
370
    25
100
AcDbSpline
210
0.0
220
0.0
230
1.0
 70
     8
 71
     3
 72
     9
 73
     5
 74
     0
 42
0.00000001
 43
0.00000001
 40
0.0
 40
0.0
 40
0.0
 40
0.0
 40
0.486192164021593
 40
1.0
 40
1.0
 40
1.0
 40
1.0
 10
23.76250000000053
 20
-54.52743055555533
 30
0.0
 10
23.71739727071713
 20
-54.52943071813935
 30
0.0
 10
23.62462998111231
 20
-54.53354465236544
 30
0.0
 10
23.53507602459961
 20
-54.55817702648943
 30
0.0
 10
23.48906250000053
 20
-54.57083333333311
 30
0.0
  0
SPLINE
  5
14C
330
1F
100
AcDbEntity
  8
0
  6
Continuous
 62
     7
370
    25
100
AcDbSpline
210
0.0
220
0.0
230
1.0
 70
     8
 71
     3
 72
    11
 73
     7
 74
     0
 42
0.00000001
 43
0.00000001
 40
0.0
 40
0.0
 40
0.0
 40
0.0
 40
0.2435979506528333
 40
0.4808459347364358
 40
0.7319870119058195
 40
1.0
 40
1.0
 40
1.0
 40
1.0
 10
24.10321180555609
 20
-54.68802083333311
 30
0.0
 10
24.08265644052696
 20
-54.66362952369142
 30
0.0
 10
24.04208153550497
 20
-54.61548272256822
 30
0.0
 10
23.95992195327119
 20
-54.56431063459381
 30
0.0
 10
23.86518575471838
 20
-54.53362386970677
 30
0.0
 10
23.79746223049435
 20
-54.52953924217383
 30
0.0
 10
23.76250000000053
 20
-54.52743055555533
 30
0.0
  0
SPLINE
  5
14D
330
1F
100
AcDbEntity
  8
0
  6
Continuous
 62
     7
370
    25
100
AcDbSpline
210
0.0
220
0.0
230
1.0
 70
     8
 71
     3
 72
    11
 73
     7
 74
     0
 42
0.00000001
 43
0.00000001
 40
0.0
 40
0.0
 40
0.0
 40
0.0
 40
0.3187941724922586
 40
0.5879842937585833
 40
0.8135247865822112
 40
0.9999999999999999
 40
0.9999999999999999
 40
0.9999999999999999
 40
0.9999999999999999
 10
24.26597222222276
 20
-55.49965277777754
 30
0.0
 10
24.26421558930213
 20
-55.4105053782804
 30
0.0
 10
24.26097565376892
 20
-55.24608182460012
 30
0.0
 10
24.23022584998667
 20
-55.0210127593772
 30
0.0
 10
24.18663514739391
 20
-54.83378200430512
 30
0.0
 10
24.12920448975937
 20
-54.73343646884604
 30
0.0
 10
24.10321180555608
 20
-54.6880208333331
 30
0.0
  0
SPLINE
  5
152
330
1F
100
AcDbEntity
  8
0
  6
Continuous
 62
     7
370
    25
100
AcDbSpline
210
0.0
220
0.0
230
1.0
 70
     8
 71
     3
 72
    11
 73
     7
 74
     0
 42
0.00000001
 43
0.00000001
 40
0.0
 40
0.0
 40
0.0
 40
0.0
 40
0.2221507759214583
 40
0.4578525378168317
 40
0.7156422151946246
 40
1.0
 40
1.0
 40
1.0
 40
1.0
 10
24.00772569444494
 20
-51.68888888888866
 30
0.0
 10
24.04302709729901
 20
-51.64458187768875
 30
0.0
 10
24.11578325499503
 20
-51.55326516976007
 30
0.0
 10
24.18915129674512
 20
-51.38531903752242
 30
0.0
 10
24.24554335932465
 20
-51.19522290828854
 30
0.0
 10
24.25894370519763
 20
-51.05782792354673
 30
0.0
 10
24.26597222222271
 20
-50.98576388888866
 30
0.0
  0
SPLINE
  5
153
330
1F
100
AcDbEntity
  8
0
  6
Continuous
 62
     7
370
    25
100
AcDbSpline
210
0.0
220
0.0
230
1.0
 70
     8
 71
     3
 72
    15
 73
    11
 74
     0
 42
0.00000001
 43
0.00000001
 40
0.0
 40
0.0
 40
0.0
 40
0.0
 40
0.178927065897368
 40
0.342014915488621
 40
0.4893348406489388
 40
0.6216245407493156
 40
0.7384207391762913
 40
0.8396135399541274
 40
0.9269806216360702
 40
1.0
 40
1.0
 40
1.0
 40
1.0
 10
22.58628472222274
 20
-52.53090277777756
 30
0.0
 10
22.67616317934833
 20
-52.48932151201628
 30
0.0
 10
22.84796375498449
 20
-52.40983989181571
 30
0.0
 10
23.09095271427564
 20
-52.2902451321887
 30
0.0
 10
23.30900004756087
 20
-52.17835810869956
 30
0.0
 10
23.49938648823119
 20
-52.06933807645098
 30
0.0
 10
23.66560415999167
 20
-51.96924431453559
 30
0.0
 10
23.80243254461573
 20
-51.86998758584355
 30
0.0
 10
23.91697217422159
 20
-51.78099468739758
 30
0.0
 10
23.97933409260586
 20
-51.71770354149827
 30
0.0
 10
24.00772569444494
 20
-51.68888888888866
 30
0.0
  0
SPLINE
  5
157
330
1F
100
AcDbEntity
  8
0
  6
Continuous
 62
     7
370
    25
100
AcDbSpline
210
0.0
220
0.0
230
1.0
 70
     8
 71
     3
 72
    19
 73
    15
 74
     0
 42
0.00000001
 43
0.00000001
 40
0.0
 40
0.0
 40
0.0
 40
0.0
 40
0.0973420959496845
 40
0.1891956450233344
 40
0.2791392741050689
 40
0.3699303626790288
 40
0.41957182471569
 40
0.4770925271332436
 40
0.5427830065982202
 40
0.6172528256834359
 40
0.7001953402808765
 40
0.7909971507343674
 40
0.8915176471284376
 40
1.0
 40
1.0
 40
1.0
 40
1.0
 10
24.26597222222282
 20
-61.54131944444421
 30
0.0
 10
24.25013604205997
 20
-61.45514545486584
 30
0.0
 10
24.21935659056587
 20
-61.28765631891235
 30
0.0
 10
24.12425613096354
 20
-61.05417335417025
 30
0.0
 10
24.000829344686
 20
-60.84163215227675
 30
0.0
 10
23.8630194744813
 20
-60.68558741291253
 30
0.0
 10
23.73013912744576
 20
-60.56734925866904
 30
0.0
 10
23.60553872872176
 20
-60.47449147118772
 30
0.0
 10
23.45687476662095
 20
-60.37743271524213
 30
0.0
 10
23.28578570982409
 20
-60.27312428777901
 30
0.0
 10
23.09048515788617
 20
-60.16562175822224
 30
0.0
 10
22.87190509081163
 20
-60.05214254142818
 30
0.0
 10
22.63020808238039
 20
-59.93352740211476
 30
0.0
 10
22.4598597859713
 20
-59.85476848680838
 30
0.0
 10
22.37144097222281
 20
-59.81388888888868
 30
0.0
  0
SPLINE
  5
15B
330
1F
100
AcDbEntity
  8
0
  6
Continuous
 62
     7
370
    25
100
AcDbSpline
210
0.0
220
0.0
230
1.0
 70
     8
 71
     3
 72
    15
 73
    11
 74
     0
 42
0.00000001
 43
0.00000001
 40
0.0
 40
0.0
 40
0.0
 40
0.0
 40
0.0645559730774108
 40
0.1453968533748355
 40
0.2444906472039237
 40
0.3601866393199276
 40
0.4927465548503963
 40
0.6445137712814475
 40
0.8136557663141031
 40
1.0
 40
1.0
 40
1.0
 40
1.0
 10
24.09887152777836
 20
-59.11076388888866
 30
0.0
 10
24.10788170326114
 20
-59.09136955283716
 30
0.0
 10
24.12817496352973
 20
-59.0476884602789
 30
0.0
 10
24.15386401164421
 20
-58.97073335863968
 30
0.0
 10
24.1768577727399
 20
-58.87553835155545
 30
0.0
 10
24.19825114239863
 20
-58.76251028943054
 30
0.0
 10
24.21780878381001
 20
-58.63148244270816
 30
0.0
 10
24.23403114525721
 20
-58.48221314357612
 30
0.0
 10
24.25225219307926
 20
-58.31525083082165
 30
0.0
 10
24.26125368294843
 20
-58.19789100473737
 30
0.0
 10
24.26597222222279
 20
-58.13637152777754
 30
0.0
  0
SPLINE
  5
15C
330
1F
100
AcDbEntity
  8
0
  6
Continuous
 62
     7
370
    25
100
AcDbSpline
210
0.0
220
0.0
230
1.0
 70
     8
 71
     3
 72
    11
 73
     7
 74
     0
 42
0.00000001
 43
0.00000001
 40
0.0
 40
0.0
 40
0.0
 40
0.0
 40
0.2631271843175557
 40
0.5017656398150938
 40
0.7423174152036072
 40
1.0
 40
1.0
 40
1.0
 40
1.0
 10
23.51944444444502
 20
-59.44930555555533
 30
0.0
 10
23.5816043255041
 20
-59.44556531223557
 30
0.0
 10
23.70013898991492
 20
-59.43843292267549
 30
0.0
 10
23.86464504315344
 20
-59.37149824969333
 30
0.0
 10
24.00274125616446
 20
-59.26164778822801
 30
0.0
 10
24.06610192652638
 20
-59.16219831358842
 30
0.0
 10
24.09887152777836
 20
-59.11076388888866
 30
0.0
  0
SPLINE
  5
15D
330
1F
100
AcDbEntity
  8
0
  6
Continuous
 62
     7
370
    25
100
AcDbSpline
210
0.0
220
0.0
230
1.0
 70
     8
 71
     3
 72
    11
 73
     7
 74
     0
 42
0.00000001
 43
0.00000001
 40
0.0
 40
0.0
 40
0.0
 40
0.0
 40
0.3012775474581528
 40
0.5643379314977722
 40
0.7982584844824543
 40
1.0
 40
1.0
 40
1.0
 40
1.0
 10
22.7642361111117
 20
-59.2431423611109
 30
0.0
 10
22.83675505638705
 20
-59.27497784433671
 30
0.0
 10
22.97259389308885
 20
-59.33461046848496
 30
0.0
 10
23.17281437081733
 20
-59.39731909058997
 30
0.0
 10
23.35198065604613
 20
-59.4402354551728
 30
0.0
 10
23.46644129336005
 20
-59.44643482209392
 30
0.0
 10
23.51944444444502
 20
-59.44930555555533
 30
0.0
  0
SPLINE
  5
161
330
1F
100
AcDbEntity
  8
0
  6
Continuous
 62
     7
370
    25
100
AcDbSpline
210
0.0
220
0.0
230
1.0
 70
     8
 71
     3
 72
    23
 73
    19
 74
     0
 42
0.00000001
 43
0.00000001
 40
0.0
 40
0.0
 40
0.0
 40
0.0
 40
0.0846548848337132
 40
0.1619950830264002
 40
0.2299951494672512
 40
0.2897913029205968
 40
0.3412642824757858
 40
0.3856016764313392
 40
0.4210869831847758
 40
0.4488544499495158
 40
0.499406856950573
 40
0.5527961492198774
 40
0.6106050382829701
 40
0.6740865255897246
 40
0.744229036415815
 40
0.8213146392637518
 40
0.9058533373917781
 40
1.0
 40
1.0
 40
1.0
 40
1.0
 10
157.7768229166669
 20
-22.8770833333317
 30
0.0
 10
157.7776279669535
 20
-22.9356761009704
 30
0.0
 10
157.7791685063835
 20
-23.04779887187751
 30
0.0
 10
157.7800819048537
 20
-23.20700231819938
 30
0.0
 10
157.7861013352892
 20
-23.34893501691056
 30
0.0
 10
157.7979589426994
 20
-23.47248792210696
 30
0.0
 10
157.8083232326798
 20
-23.57967203142445
 30
0.0
 10
157.8198054446014
 20
-23.66992758092183
 30
0.0
 10
157.8371492900068
 20
-23.7424970489699
 30
0.0
 10
157.8632898108584
 20
-23.81700789413023
 30
0.0
 10
157.91002512221
 20
-23.89618260033345
 30
0.0
 10
157.9829006035872
 20
-23.98177866518266
 30
0.0
 10
158.0757529357767
 20
-24.05993261789442
 30
0.0
 10
158.187198184652
 20
-24.13220139722612
 30
0.0
 10
158.320266432078
 20
-24.1935579502147
 30
0.0
 10
158.4756892286068
 20
-24.23546122128614
 30
0.0
 10
158.6512175737637
 20
-24.26178210396676
 30
0.0
 10
158.7749815639993
 20
-24.26452633018528
 30
0.0
 10
158.8401909722225
 20
-24.26597222222057
 30
0.0
  0
SPLINE
  5
163
330
1F
100
AcDbEntity
  8
0
  6
Continuous
 62
     7
370
    25
100
AcDbSpline
210
0.0
220
0.0
230
1.0
 70
     8
 71
     3
 72
    15
 73
    11
 74
     0
 42
0.00000001
 43
0.00000001
 40
0.0
 40
0.0
 40
0.0
 40
0.0
 40
0.0613943520403139
 40
0.1398538629143185
 40
0.2347602763706175
 40
0.3503529954263572
 40
0.4848271553226717
 40
0.6382896720196867
 40
0.8083672866041938
 40
1.0
 40
1.0
 40
1.0
 40
1.0
 10
157.8571180555557
 20
-15.31197916666503
 30
0.0
 10
157.8500298311302
 20
-15.32916843311952
 30
0.0
 10
157.8338831411797
 20
-15.36832489025984
 30
0.0
 10
157.8218780787828
 20
-15.43854391205836
 30
0.0
 10
157.8044704909225
 20
-15.52401763208311
 30
0.0
 10
157.7956861648904
 20
-15.62802532108932
 30
0.0
 10
157.7868246071053
 20
-15.74950888054988
 30
0.0
 10
157.77991719849
 20
-15.88771919591109
 30
0.0
 10
157.779192801433
 20
-16.04332111007582
 30
0.0
 10
157.7776436506676
 20
-16.15254845018589
 30
0.0
 10
157.7768229166668
 20
-16.21041666666502
 30
0.0
  0
SPLINE
  5
164
330
1F
100
AcDbEntity
  8
0
  6
Continuous
 62
     7
370
    25
100
AcDbSpline
210
0.0
220
0.0
230
1.0
 70
     8
 71
     3
 72
    11
 73
     7
 74
     0
 42
0.00000001
 43
0.00000001
 40
0.0
 40
0.0
 40
0.0
 40
0.0
 40
0.2322074352791522
 40
0.4697021905392761
 40
0.7270458402700684
 40
0.9999999999999999
 40
0.9999999999999999
 40
0.9999999999999999
 40
0.9999999999999999
 10
158.1522569444446
 20
-14.97126736110947
 30
0.0
 10
158.1217287306114
 20
-14.98964271855653
 30
0.0
 10
158.0599771812114
 20
-15.02681183691167
 30
0.0
 10
157.9809160937941
 20
-15.10630737401417
 30
0.0
 10
157.9114465270943
 20
-15.2015670781237
 30
0.0
 10
157.8755794884149
 20
-15.27445988254526
 30
0.0
 10
157.8571180555557
 20
-15.31197916666503
 30
0.0
  0
SPLINE
  5
165
330
1F
100
AcDbEntity
  8
0
  6
Continuous
 62
     7
370
    25
100
AcDbSpline
210
0.0
220
0.0
230
1.0
 70
     8
 71
     3
 72
    11
 73
     7
 74
     0
 42
0.00000001
 43
0.00000001
 40
0.0
 40
0.0
 40
0.0
 40
0.0
 40
0.2869538933514271
 40
0.5461988668811778
 40
0.7816574622027759
 40
1.0
 40
1.0
 40
1.0
 40
1.0
 10
158.8401909722224
 20
-14.82152777777612
 30
0.0
 10
158.7720739825897
 20
-14.82282692790281
 30
0.0
 10
158.6424175345862
 20
-14.82529977926861
 30
0.0
 10
158.4587237844549
 20
-14.85363871491699
 30
0.0
 10
158.295208046841
 20
-14.90005960784685
 30
0.0
 10
158.1986939010488
 20
-14.94813587563849
 30
0.0
 10
158.1522569444446
 20
-14.97126736110947
 30
0.0
  0
SPLINE
  5
16B
330
1F
100
AcDbEntity
  8
0
  6
Continuous
 62
     7
370
    25
100
AcDbSpline
210
0.0
220
0.0
230
1.0
 70
     8
 71
     3
 72
    23
 73
    19
 74
     0
 42
0.00000001
 43
0.00000001
 40
0.0
 40
0.0
 40
0.0
 40
0.0
 40
0.0846127534506955
 40
0.1619144606629828
 40
0.2298806845577116
 40
0.2895648750439975
 40
0.3420514708676083
 40
0.3854965674004624
 40
0.4217551846928413
 40
0.449508832033218
 40
0.498612490657345
 40
0.5519752119292856
 40
0.6097553304323367
 40
0.6732052240175763
 40
0.7433128260372202
 40
0.8203600646127926
 40
0.9048566891820672
 40
1.0
 40
1.0
 40
1.0
 40
1.0
 10
155.4157118055557
 20
-16.21041666666505
 30
0.0
 10
155.4148833285282
 20
-16.15182520409485
 30
0.0
 10
155.4132979598265
 20
-16.03970493055905
 30
0.0
 10
155.4126862983255
 20
-15.88048467492444
 30
0.0
 10
155.4057139344646
 20
-15.73866210150536
 30
0.0
 10
155.3967430714455
 20
-15.61428486089113
 30
0.0
 10
155.3879933592808
 20
-15.50670604449816
 30
0.0
 10
155.3706401817429
 20
-15.41682076910043
 30
0.0
 10
155.3585399369452
 20
-15.34316943289281
 30
0.0
 10
155.3312936734026
 20
-15.26938882042458
 30
0.0
 10
155.2866796012028
 20
-15.19033605538768
 30
0.0
 10
155.2138320652423
 20
-15.10579005837775
 30
0.0
 10
155.1211656403933
 20
-15.02754634151869
 30
0.0
 10
155.0096633119064
 20
-14.95530512349931
 30
0.0
 10
154.8766127056636
 20
-14.89394004889807
 30
0.0
 10
154.7211846474583
 20
-14.8520393343253
 30
0.0
 10
154.5449406576019
 20
-14.82561053925996
 30
0.0
 10
154.4204488885439
 20
-14.82294142817231
 30
0.0
 10
154.3545138888891
 20
-14.82152777777618
 30
0.0
  0
SPLINE
  5
16D
330
1F
100
AcDbEntity
  8
0
  6
Continuous
 62
     7
370
    25
100
AcDbSpline
210
0.0
220
0.0
230
1.0
 70
     8
 71
     3
 72
    15
 73
    11
 74
     0
 42
0.00000001
 43
0.00000001
 40
0.0
 40
0.0
 40
0.0
 40
0.0
 40
0.0613929564847344
 40
0.1375125657304114
 40
0.2347752365658194
 40
0.3503653280824167
 40
0.4848364312453884
 40
0.6359029609429115
 40
0.8083716426091316
 40
0.9999999999999999
 40
0.9999999999999999
 40
0.9999999999999999
 40
0.9999999999999999
 10
155.335416666667
 20
-23.77552083333172
 30
0.0
 10
155.3424723301803
 20
-23.7583251852732
 30
0.0
 10
155.3582761364833
 20
-23.71980907822575
 30
0.0
 10
155.3712468865136
 20
-23.64979865051722
 30
0.0
 10
155.3877316173589
 20
-23.56414226213961
 30
0.0
 10
155.3969461629503
 20
-23.45949220308113
 30
0.0
 10
155.4056009926604
 20
-23.33870474087315
 30
0.0
 10
155.4127216482928
 20
-23.20050971629406
 30
0.0
 10
155.4133005128192
 20
-23.04490070510351
 30
0.0
 10
155.4148803300298
 20
-22.93495106350894
 30
0.0
 10
155.4157118055558
 20
-22.87708333333171
 30
0.0
  0
SPLINE
  5
16E
330
1F
100
AcDbEntity
  8
0
  6
Continuous
 62
     7
370
    25
100
AcDbSpline
210
0.0
220
0.0
230
1.0
 70
     8
 71
     3
 72
    11
 73
     7
 74
     0
 42
0.00000001
 43
0.00000001
 40
0.0
 40
0.0
 40
0.0
 40
0.0
 40
0.2333588799629157
 40
0.4720312980873994
 40
0.7278840296407114
 40
1.0
 40
1.0
 40
1.0
 40
1.0
 10
155.0446180555558
 20
-24.11623263888728
 30
0.0
 10
155.0751165797124
 20
-24.09783437852846
 30
0.0
 10
155.1368080737308
 20
-24.06061893285479
 30
0.0
 10
155.2160391139579
 20
-23.98178651790703
 30
0.0
 10
155.28318133609
 20
-23.88569077644284
 30
0.0
 10
155.3176509624114
 20
-23.81299061873454
 30
0.0
 10
155.3354166666669
 20
-23.77552083333172
 30
0.0
  0
SPLINE
  5
16F
330
1F
100
AcDbEntity
  8
0
  6
Continuous
 62
     7
370
    25
100
AcDbSpline
210
0.0
220
0.0
230
1.0
 70
     8
 71
     3
 72
    11
 73
     7
 74
     0
 42
0.00000001
 43
0.00000001
 40
0.0
 40
0.0
 40
0.0
 40
0.0
 40
0.2861169829655624
 40
0.5446058600775356
 40
0.7822942653331488
 40
1.0
 40
1.0
 40
1.0
 40
1.0
 10
154.3545138888891
 20
-24.26597222222061
 30
0.0
 10
154.4226386233408
 20
-24.26469967798152
 30
0.0
 10
154.552309813125
 20
-24.26227746926589
 30
0.0
 10
154.736591224924
 20
-24.23348983303238
 30
0.0
 10
154.9010862711525
 20
-24.18789898140382
 30
0.0
 10
154.9981944953217
 20
-24.13941222090395
 30
0.0
 10
155.0446180555558
 20
-24.11623263888728
 30
0.0
  0
SPLINE
  5
175
330
1F
100
AcDbEntity
  8
0
  6
Continuous
 62
     7
370
    25
100
AcDbSpline
210
0.0
220
0.0
230
1.0
 70
     8
 71
     3
 72
    23
 73
    19
 74
     0
 42
0.00000001
 43
0.00000001
 40
0.0
 40
0.0
 40
0.0
 40
0.0
 40
0.0846548848337132
 40
0.1619950830264
 40
0.2299951494672509
 40
0.2897913029205963
 40
0.3412642824757846
 40
0.3856016764313388
 40
0.4210869831847754
 40
0.4488544499495131
 40
0.4994068569505768
 40
0.5527961492198724
 40
0.610605038282965
 40
0.6740865255897248
 40
0.7442290364158151
 40
0.8213146392637454
 40
0.9058533373917714
 40
1.0
 40
1.0
 40
1.0
 40
1.0
 10
113.2669270833335
 20
-22.87708333333216
 30
0.0
 10
113.2677321336201
 20
-22.93567610097086
 30
0.0
 10
113.2692726730501
 20
-23.04779887187797
 30
0.0
 10
113.2701860715204
 20
-23.20700231819984
 30
0.0
 10
113.2762055019558
 20
-23.34893501691101
 30
0.0
 10
113.288063109366
 20
-23.47248792210742
 30
0.0
 10
113.2984273993464
 20
-23.57967203142493
 30
0.0
 10
113.309909611268
 20
-23.66992758092229
 30
0.0
 10
113.3272534566735
 20
-23.74249704897036
 30
0.0
 10
113.3533939775249
 20
-23.8170078941307
 30
0.0
 10
113.4001292888767
 20
-23.89618260033391
 30
0.0
 10
113.4730047702538
 20
-23.98177866518312
 30
0.0
 10
113.5658571024433
 20
-24.05993261789488
 30
0.0
 10
113.6773023513187
 20
-24.13220139722659
 30
0.0
 10
113.8103705987447
 20
-24.19355795021516
 30
0.0
 10
113.9657933952735
 20
-24.23546122128661
 30
0.0
 10
114.1413217404303
 20
-24.26178210396724
 30
0.0
 10
114.2650857306659
 20
-24.26452633018573
 30
0.0
 10
114.3302951388891
 20
-24.26597222222104
 30
0.0
  0
SPLINE
  5
177
330
1F
100
AcDbEntity
  8
0
  6
Continuous
 62
     7
370
    25
100
AcDbSpline
210
0.0
220
0.0
230
1.0
 70
     8
 71
     3
 72
    15
 73
    11
 74
     0
 42
0.00000001
 43
0.00000001
 40
0.0
 40
0.0
 40
0.0
 40
0.0
 40
0.0613943520403139
 40
0.1398538629143184
 40
0.2347602763706175
 40
0.3503529954263572
 40
0.4848271553226716
 40
0.6382896720196866
 40
0.8083672866041933
 40
1.0
 40
1.0
 40
1.0
 40
1.0
 10
113.3472222222223
 20
-15.31197916666549
 30
0.0
 10
113.3401339977969
 20
-15.32916843311999
 30
0.0
 10
113.3239873078463
 20
-15.36832489026031
 30
0.0
 10
113.3119822454495
 20
-15.43854391205882
 30
0.0
 10
113.2945746575891
 20
-15.52401763208358
 30
0.0
 10
113.285790331557
 20
-15.62802532108978
 30
0.0
 10
113.2769287737718
 20
-15.74950888055034
 30
0.0
 10
113.2700213651567
 20
-15.88771919591156
 30
0.0
 10
113.2692969680997
 20
-16.04332111007628
 30
0.0
 10
113.2677478173343
 20
-16.15254845018636
 30
0.0
 10
113.2669270833335
 20
-16.21041666666549
 30
0.0
  0
SPLINE
  5
178
330
1F
100
AcDbEntity
  8
0
  6
Continuous
 62
     7
370
    25
100
AcDbSpline
210
0.0
220
0.0
230
1.0
 70
     8
 71
     3
 72
    11
 73
     7
 74
     0
 42
0.00000001
 43
0.00000001
 40
0.0
 40
0.0
 40
0.0
 40
0.0
 40
0.2322074352791532
 40
0.4697021905392564
 40
0.7270458402700675
 40
1.0
 40
1.0
 40
1.0
 40
1.0
 10
113.6423611111112
 20
-14.97126736110994
 30
0.0
 10
113.6118328972781
 20
-14.989642718557
 30
0.0
 10
113.5500813478781
 20
-15.02681183691214
 30
0.0
 10
113.4710202604607
 20
-15.10630737401465
 30
0.0
 10
113.401550693761
 20
-15.20156707812416
 30
0.0
 10
113.3656836550816
 20
-15.27445988254573
 30
0.0
 10
113.3472222222223
 20
-15.31197916666549
 30
0.0
  0
SPLINE
  5
179
330
1F
100
AcDbEntity
  8
0
  6
Continuous
 62
     7
370
    25
100
AcDbSpline
210
0.0
220
0.0
230
1.0
 70
     8
 71
     3
 72
    11
 73
     7
 74
     0
 42
0.00000001
 43
0.00000001
 40
0.0
 40
0.0
 40
0.0
 40
0.0
 40
0.2869538933514464
 40
0.5461988668811969
 40
0.781657462202776
 40
1.0
 40
1.0
 40
1.0
 40
1.0
 10
114.330295138889
 20
-14.82152777777659
 30
0.0
 10
114.2621781492563
 20
-14.82282692790328
 30
0.0
 10
114.1325217012528
 20
-14.82529977926909
 30
0.0
 10
113.9488279511215
 20
-14.85363871491745
 30
0.0
 10
113.7853122135076
 20
-14.90005960784732
 30
0.0
 10
113.6887980677154
 20
-14.94813587563896
 30
0.0
 10
113.6423611111112
 20
-14.97126736110993
 30
0.0
  0
SPLINE
  5
17F
330
1F
100
AcDbEntity
  8
0
  6
Continuous
 62
     7
370
    25
100
AcDbSpline
210
0.0
220
0.0
230
1.0
 70
     8
 71
     3
 72
    23
 73
    19
 74
     0
 42
0.00000001
 43
0.00000001
 40
0.0
 40
0.0
 40
0.0
 40
0.0
 40
0.0846127534506957
 40
0.1619144606629831
 40
0.2298806845577123
 40
0.2895648750439984
 40
0.3420514708676086
 40
0.3854965674004627
 40
0.4217551846928431
 40
0.4495088320332221
 40
0.4986124906573491
 40
0.5519752119292854
 40
0.6097553304323368
 40
0.6732052240175822
 40
0.7433128260372261
 40
0.8203600646127923
 40
0.9048566891820671
 40
1.0
 40
1.0
 40
1.0
 40
1.0
 10
110.9058159722223
 20
-16.21041666666552
 30
0.0
 10
110.9049874951948
 20
-16.15182520409532
 30
0.0
 10
110.9034021264931
 20
-16.03970493055951
 30
0.0
 10
110.9027904649923
 20
-15.88048467492491
 30
0.0
 10
110.8958181011312
 20
-15.73866210150582
 30
0.0
 10
110.8868472381122
 20
-15.61428486089159
 30
0.0
 10
110.8780975259475
 20
-15.50670604449862
 30
0.0
 10
110.8607443484095
 20
-15.41682076910091
 30
0.0
 10
110.8486441036119
 20
-15.34316943289328
 30
0.0
 10
110.8213978400693
 20
-15.26938882042506
 30
0.0
 10
110.7767837678695
 20
-15.19033605538814
 30
0.0
 10
110.7039362319089
 20
-15.10579005837821
 30
0.0
 10
110.6112698070599
 20
-15.02754634151916
 30
0.0
 10
110.499767478573
 20
-14.95530512349978
 30
0.0
 10
110.3667168723303
 20
-14.89394004889855
 30
0.0
 10
110.2112888141249
 20
-14.85203933432577
 30
0.0
 10
110.0350448242685
 20
-14.82561053926043
 30
0.0
 10
109.9105530552105
 20
-14.82294142817277
 30
0.0
 10
109.8446180555557
 20
-14.82152777777664
 30
0.0
  0
SPLINE
  5
181
330
1F
100
AcDbEntity
  8
0
  6
Continuous
 62
     7
370
    25
100
AcDbSpline
210
0.0
220
0.0
230
1.0
 70
     8
 71
     3
 72
    15
 73
    11
 74
     0
 42
0.00000001
 43
0.00000001
 40
0.0
 40
0.0
 40
0.0
 40
0.0
 40
0.0613929564847393
 40
0.1375125657304191
 40
0.2347752365658263
 40
0.3503653280824212
 40
0.4848364312453918
 40
0.6359029609429145
 40
0.8083716426091331
 40
1.0
 40
1.0
 40
1.0
 40
1.0
 10
110.8255208333335
 20
-23.77552083333219
 30
0.0
 10
110.8325764968469
 20
-23.75832518527366
 30
0.0
 10
110.8483803031499
 20
-23.71980907822621
 30
0.0
 10
110.8613510531802
 20
-23.6497986505177
 30
0.0
 10
110.8778357840255
 20
-23.56414226214007
 30
0.0
 10
110.887050329617
 20
-23.45949220308161
 30
0.0
 10
110.895705159327
 20
-23.33870474087363
 30
0.0
 10
110.9028258149595
 20
-23.20050971629452
 30
0.0
 10
110.9034046794858
 20
-23.04490070510397
 30
0.0
 10
110.9049844966964
 20
-22.93495106350942
 30
0.0
 10
110.9058159722224
 20
-22.87708333333219
 30
0.0
  0
SPLINE
  5
182
330
1F
100
AcDbEntity
  8
0
  6
Continuous
 62
     7
370
    25
100
AcDbSpline
210
0.0
220
0.0
230
1.0
 70
     8
 71
     3
 72
    11
 73
     7
 74
     0
 42
0.00000001
 43
0.00000001
 40
0.0
 40
0.0
 40
0.0
 40
0.0
 40
0.2333588799629366
 40
0.4720312980874374
 40
0.7278840296407444
 40
1.0
 40
1.0
 40
1.0
 40
1.0
 10
110.5347222222224
 20
-24.11623263888775
 30
0.0
 10
110.565220746379
 20
-24.09783437852892
 30
0.0
 10
110.6269122403974
 20
-24.06061893285526
 30
0.0
 10
110.7061432806246
 20
-23.98178651790751
 30
0.0
 10
110.7732855027566
 20
-23.88569077644331
 30
0.0
 10
110.807755129078
 20
-23.812990618735
 30
0.0
 10
110.8255208333335
 20
-23.77552083333219
 30
0.0
  0
SPLINE
  5
183
330
1F
100
AcDbEntity
  8
0
  6
Continuous
 62
     7
370
    25
100
AcDbSpline
210
0.0
220
0.0
230
1.0
 70
     8
 71
     3
 72
    11
 73
     7
 74
     0
 42
0.00000001
 43
0.00000001
 40
0.0
 40
0.0
 40
0.0
 40
0.0
 40
0.286116982965587
 40
0.5446058600775648
 40
0.782294265333145
 40
1.0
 40
1.0
 40
1.0
 40
1.0
 10
109.8446180555558
 20
-24.26597222222108
 30
0.0
 10
109.9127427900075
 20
-24.26469967798199
 30
0.0
 10
110.0424139797917
 20
-24.26227746926636
 30
0.0
 10
110.2266953915905
 20
-24.23348983303283
 30
0.0
 10
110.3911904378192
 20
-24.18789898140431
 30
0.0
 10
110.4882986619884
 20
-24.13941222090442
 30
0.0
 10
110.5347222222224
 20
-24.11623263888775
 30
0.0
  0
SPLINE
  5
18A
330
1F
100
AcDbEntity
  8
0
  6
Continuous
 62
     7
370
    25
100
AcDbSpline
210
0.0
220
0.0
230
1.0
 70
     8
 71
     3
 72
    11
 73
     7
 74
     0
 42
0.00000001
 43
0.00000001
 40
0.0
 40
0.0
 40
0.0
 40
0.0
 40
0.2093610344976014
 40
0.4464669542277153
 40
0.7084325846751199
 40
1.0
 40
1.0
 40
1.0
 40
1.0
 10
100.7191840277779
 20
-14.9452256944434
 30
0.0
 10
100.6631380428791
 20
-14.92579347996123
 30
0.0
 10
100.5436187625389
 20
-14.88435386043233
 30
0.0
 10
100.3457963929773
 20
-14.84777493538447
 30
0.0
 10
100.1228594464006
 20
-14.82696302887002
 30
0.0
 10
99.96619946805676
 20
-14.82340298928811
 30
0.0
 10
99.88368055555564
 20
-14.82152777777675
 30
0.0
  0
SPLINE
  5
18B
330
1F
100
AcDbEntity
  8
0
  6
Continuous
 62
     7
370
    25
100
AcDbSpline
210
0.0
220
0.0
230
1.0
 70
     8
 71
     3
 72
    15
 73
    11
 74
     0
 42
0.00000001
 43
0.00000001
 40
0.0
 40
0.0
 40
0.0
 40
0.0
 40
0.12634070980853
 40
0.2474896639401401
 40
0.3664873842949334
 40
0.4865379571477394
 40
0.6071389710934652
 40
0.7310981764955227
 40
0.8617682838019783
 40
1.0
 40
1.0
 40
1.0
 40
1.0
 10
101.1792534722223
 20
-15.58541666666562
 30
0.0
 10
101.1782285226449
 20
-15.54985364624936
 30
0.0
 10
101.1762207420424
 20
-15.48018900699846
 30
0.0
 10
101.1537254160466
 20
-15.37902993605569
 30
0.0
 10
101.1165775623206
 20
-15.28442405388594
 30
0.0
 10
101.0640840957565
 20
-15.1974718674098
 30
0.0
 10
100.9980905670795
 20
-15.11861682890839
 30
0.0
 10
100.9192182820083
 20
-15.0479627239784
 30
0.0
 10
100.8249733484503
 20
-14.98919745108919
 30
0.0
 10
100.7551020692211
 20
-14.96015517283968
 30
0.0
 10
100.7191840277779
 20
-14.9452256944434
 30
0.0
  0
SPLINE
  5
18C
330
1F
100
AcDbEntity
  8
0
  6
Continuous
 62
     7
370
    25
100
AcDbSpline
210
0.0
220
0.0
230
1.0
 70
     8
 71
     3
 72
    17
 73
    13
 74
     0
 42
0.00000001
 43
0.00000001
 40
0.0
 40
0.0
 40
0.0
 40
0.0
 40
0.1340703849795686
 40
0.2550331934463166
 40
0.364575952097437
 40
0.4615209621080035
 40
0.5458693035482003
 40
0.618349029891753
 40
0.6782524972719776
 40
0.725193700370806
 40
0.8766318358918321
 40
1.0
 40
1.0
 40
1.0
 40
1.0
 10
100.6367187500001
 20
-17.18263888888785
 30
0.0
 10
100.6672735525186
 20
-17.11326916662964
 30
0.0
 10
100.7253959250517
 20
-16.98131174889948
 30
0.0
 10
100.8058007849419
 20
-16.79151596374943
 30
0.0
 10
100.8771941720266
 20
-16.62070028064065
 30
0.0
 10
100.9397711628436
 20
-16.46865373166411
 30
0.0
 10
100.9954840320586
 20
-16.33639692731441
 30
0.0
 10
101.0376767114221
 20
-16.22135628875705
 30
0.0
 10
101.0736696460916
 20
-16.12651520584067
 30
0.0
 10
101.1164010796867
 20
-15.98692390893701
 30
0.0
 10
101.165162256837
 20
-15.8105918850272
 30
0.0
 10
101.1748875283197
 20
-15.65518370554396
 30
0.0
 10
101.1792534722223
 20
-15.58541666666562
 30
0.0
  0
SPLINE
  5
18F
330
1F
100
AcDbEntity
  8
0
  6
Continuous
 62
     7
370
    25
100
AcDbSpline
210
0.0
220
0.0
230
1.0
 70
     8
 71
     3
 72
    17
 73
    13
 74
     0
 42
0.00000001
 43
0.00000001
 40
0.0
 40
0.0
 40
0.0
 40
0.0
 40
0.1027584357504488
 40
0.2244325439629686
 40
0.2655708949034002
 40
0.3233772937501839
 40
0.3969808414278541
 40
0.4852453705532425
 40
0.5893365059177792
 40
0.7107048626354273
 40
0.8467142167753035
 40
1.0
 40
1.0
 40
1.0
 40
1.0
 10
96.14453125000011
 20
-15.30112847222123
 30
0.0
 10
96.14816220801293
 20
-15.34908388773787
 30
0.0
 10
96.15609250724224
 20
-15.45382230480891
 30
0.0
 10
96.18973736828181
 20
-15.5741631650763
 30
0.0
 10
96.22541404305981
 20
-15.67081301336613
 30
0.0
 10
96.25268791633243
 20
-15.74671334302534
 30
0.0
 10
96.29326031798739
 20
-15.84102839325415
 30
0.0
 10
96.33743862288593
 20
-15.95719237425569
 30
0.0
 10
96.39492528844058
 20
-16.09205196823849
 30
0.0
 10
96.46242181903702
 20
-16.24686045418407
 30
0.0
 10
96.53561328108219
 20
-16.42423424215112
 30
0.0
 10
96.58921836410582
 20
-16.54831639159547
 30
0.0
 10
96.61762152777789
 20
-16.614062499999
 30
0.0
  0
SPLINE
  5
190
330
1F
100
AcDbEntity
  8
0
  6
Continuous
 62
     7
370
    25
100
AcDbSpline
210
0.0
220
0.0
230
1.0
 70
     8
 71
     3
 72
    11
 73
     7
 74
     0
 42
0.00000001
 43
0.00000001
 40
0.0
 40
0.0
 40
0.0
 40
0.0
 40
0.2535443523655795
 40
0.4931113665181333
 40
0.7336446589223998
 40
1.0
 40
1.0
 40
1.0
 40
1.0
 10
96.31380208333341
 20
-14.98211805555456
 30
0.0
 10
96.28786506708086
 20
-15.00102246921352
 30
0.0
 10
96.23742088479723
 20
-15.03778913810445
 30
0.0
 10
96.18502922639719
 20
-15.11528551737126
 30
0.0
 10
96.14943019028784
 20
-15.20339677475316
 30
0.0
 10
96.14621876255008
 20
-15.26746334133156
 30
0.0
 10
96.1445312500001
 20
-15.30112847222123
 30
0.0
  0
SPLINE
  5
191
330
1F
100
AcDbEntity
  8
0
  6
Continuous
 62
     7
370
    25
100
AcDbSpline
210
0.0
220
0.0
230
1.0
 70
     8
 71
     3
 72
    11
 73
     7
 74
     0
 42
0.00000001
 43
0.00000001
 40
0.0
 40
0.0
 40
0.0
 40
0.0
 40
0.3293660339014153
 40
0.6029278382156875
 40
0.8237779144166779
 40
1.0
 40
1.0
 40
1.0
 40
1.0
 10
97.19270833333341
 20
-14.82152777777677
 30
0.0
 10
97.09344893720272
 20
-14.8232807334758
 30
0.0
 10
96.91174758681515
 20
-14.82648964296043
 30
0.0
 10
96.66563777769623
 20
-14.85647582890183
 30
0.0
 10
96.46653852379079
 20
-14.90023077614903
 30
0.0
 10
96.36075098297013
 20
-14.95694712941001
 30
0.0
 10
96.31380208333341
 20
-14.98211805555456
 30
0.0
  0
SPLINE
  5
196
330
1F
100
AcDbEntity
  8
0
  6
Continuous
 62
     7
370
    25
100
AcDbSpline
210
0.0
220
0.0
230
1.0
 70
     8
 71
     3
 72
    19
 73
    15
 74
     0
 42
0.00000001
 43
0.00000001
 40
0.0
 40
0.0
 40
0.0
 40
0.0
 40
0.1341655931047234
 40
0.2538598215297601
 40
0.3598260006184421
 40
0.4520760620251463
 40
0.5302803171944985
 40
0.5941406015790063
 40
0.6444446339598972
 40
0.6807018451263666
 40
0.7430134279726943
 40
0.8147266608523603
 40
0.9003905833539793
 40
1.0
 40
1.0
 40
1.0
 40
1.0
 10
94.27604166666679
 20
-16.76163194444347
 30
0.0
 10
94.22709013721857
 20
-16.65157116470158
 30
0.0
 10
94.1344670865409
 20
-16.4433209773313
 30
0.0
 10
93.99955368882559
 20
-16.14977309973925
 30
0.0
 10
93.87793817733258
 20
-15.89156379930123
 30
0.0
 10
93.77075362909726
 20
-15.66769750976282
 30
0.0
 10
93.67323933794209
 20
-15.481259753531
 30
0.0
 10
93.58854697783765
 20
-15.33066685553752
 30
0.0
 10
93.51818936188775
 20
-15.21545995028435
 30
0.0
 10
93.44022213775213
 20
-15.10623014913701
 30
0.0
 10
93.31939903385127
 20
-15.00900875219022
 30
0.0
 10
93.14289877327202
 20
-14.91871860378942
 30
0.0
 10
92.91915399260431
 20
-14.85700122050644
 30
0.0
 10
92.75438446350633
 20
-14.83393108708517
 30
0.0
 10
92.6657986111112
 20
-14.82152777777682
 30
0.0
  0
SPLINE
  5
19A
330
1F
100
AcDbEntity
  8
0
  6
Continuous
 62
     7
370
    25
100
AcDbSpline
210
0.0
220
0.0
230
1.0
 70
     8
 71
     3
 72
    15
 73
    11
 74
     0
 42
0.00000001
 43
0.00000001
 40
0.0
 40
0.0
 40
0.0
 40
0.0
 40
0.0686855839473736
 40
0.1533253195933735
 40
0.2533074399630175
 40
0.3697541064027238
 40
0.5032837531793244
 40
0.6529605348839098
 40
0.8178805146323408
 40
1.0
 40
1.0
 40
1.0
 40
1.0
 10
102.3033854166668
 20
-15.41180555555449
 30
0.0
 10
102.2753027643142
 20
-15.44755105361329
 30
0.0
 10
102.2126144766194
 20
-15.52734494337753
 30
0.0
 10
102.1237235662707
 20
-15.66963069664713
 30
0.0
 10
102.0232457140287
 20
-15.84152851888993
 30
0.0
 10
101.9155994600622
 20
-16.04652729888355
 30
0.0
 10
101.7969908435703
 20
-16.28273697743891
 30
0.0
 10
101.6661342865219
 20
-16.5487155730447
 30
0.0
 10
101.5300840886766
 20
-16.8477857875992
 30
0.0
 10
101.4366297856367
 20
-17.0574304967885
 30
0.0
 10
101.3875868055557
 20
-17.16744791666562
 30
0.0
  0
SPLINE
  5
19B
330
1F
100
AcDbEntity
  8
0
  6
Continuous
 62
     7
370
    25
100
AcDbSpline
210
0.0
220
0.0
230
1.0
 70
     8
 71
     3
 72
    11
 73
     7
 74
     0
 42
0.00000001
 43
0.00000001
 40
0.0
 40
0.0
 40
0.0
 40
0.0
 40
0.2369182312099685
 40
0.4763327855864889
 40
0.7276821857468526
 40
1.0
 40
1.0
 40
1.0
 40
1.0
 10
103.2690972222223
 20
-14.8215277777767
 30
0.0
 10
103.1794600186418
 20
-14.84068965342787
 30
0.0
 10
102.9992411361368
 20
-14.87921530660097
 30
0.0
 10
102.7495812115793
 20
-15.01191883253726
 30
0.0
 10
102.5091307586735
 20
-15.18327353594669
 30
0.0
 10
102.3737738282703
 20
-15.3336214970293
 30
0.0
 10
102.3033854166668
 20
-15.41180555555449
 30
0.0
  0
SPLINE
  5
19E
330
1F
100
AcDbEntity
  8
0
  6
Continuous
 62
     7
370
    25
100
AcDbSpline
210
0.0
220
0.0
230
1.0
 70
     8
 71
     3
 72
    23
 73
    19
 74
     0
 42
0.00000001
 43
0.00000001
 40
0.0
 40
0.0
 40
0.0
 40
0.0
 40
0.0846548848337129
 40
0.1619950830263996
 40
0.2299951494672506
 40
0.2897913029205954
 40
0.3412642824757841
 40
0.3856016764313382
 40
0.4210869831847732
 40
0.4488544499495131
 40
0.4994068569505734
 40
0.5527961492198734
 40
0.6106050382829658
 40
0.6740865255897256
 40
0.7442290364158156
 40
0.8213146392637458
 40
0.9058533373917717
 40
1.0
 40
1.0
 40
1.0
 40
1.0
 10
62.92369791666687
 20
-22.87708333333269
 30
0.0
 10
62.9245029669535
 20
-22.93567610097138
 30
0.0
 10
62.92604350638344
 20
-23.04779887187849
 30
0.0
 10
62.92695690485371
 20
-23.20700231820037
 30
0.0
 10
62.93297633528913
 20
-23.34893501691153
 30
0.0
 10
62.94483394269934
 20
-23.47248792210794
 30
0.0
 10
62.95519823267977
 20
-23.57967203142546
 30
0.0
 10
62.96668044460131
 20
-23.66992758092282
 30
0.0
 10
62.98402429000681
 20
-23.7424970489709
 30
0.0
 10
63.01016481085826
 20
-23.81700789413123
 30
0.0
 10
63.05690012220997
 20
-23.89618260033445
 30
0.0
 10
63.12977560358715
 20
-23.98177866518365
 30
0.0
 10
63.22262793577666
 20
-24.05993261789541
 30
0.0
 10
63.33407318465198
 20
-24.1322013972271
 30
0.0
 10
63.46714143207803
 20
-24.19355795021569
 30
0.0
 10
63.62256422860678
 20
-24.23546122128714
 30
0.0
 10
63.79809257376365
 20
-24.26178210396776
 30
0.0
 10
63.92185656399926
 20
-24.26452633018626
 30
0.0
 10
63.98706597222244
 20
-24.26597222222157
 30
0.0
  0
SPLINE
  5
1A0
330
1F
100
AcDbEntity
  8
0
  6
Continuous
 62
     7
370
    25
100
AcDbSpline
210
0.0
220
0.0
230
1.0
 70
     8
 71
     3
 72
    15
 73
    11
 74
     0
 42
0.00000001
 43
0.00000001
 40
0.0
 40
0.0
 40
0.0
 40
0.0
 40
0.0613943520403087
 40
0.1398538629143136
 40
0.2347602763706157
 40
0.3503529954263541
 40
0.4848271553226691
 40
0.6382896720196853
 40
0.8083672866041928
 40
0.9999999999999999
 40
0.9999999999999999
 40
0.9999999999999999
 40
0.9999999999999999
 10
63.0039930555557
 20
-15.31197916666602
 30
0.0
 10
62.99690483113019
 20
-15.32916843312052
 30
0.0
 10
62.98075814117965
 20
-15.36832489026084
 30
0.0
 10
62.96875307878279
 20
-15.43854391205934
 30
0.0
 10
62.95134549092242
 20
-15.52401763208411
 30
0.0
 10
62.94256116489036
 20
-15.62802532109031
 30
0.0
 10
62.9336996071052
 20
-15.74950888055086
 30
0.0
 10
62.92679219849
 20
-15.88771919591209
 30
0.0
 10
62.92606780143298
 20
-16.04332111007681
 30
0.0
 10
62.92451865066761
 20
-16.15254845018689
 30
0.0
 10
62.9236979166668
 20
-16.21041666666602
 30
0.0
  0
SPLINE
  5
1A1
330
1F
100
AcDbEntity
  8
0
  6
Continuous
 62
     7
370
    25
100
AcDbSpline
210
0.0
220
0.0
230
1.0
 70
     8
 71
     3
 72
    11
 73
     7
 74
     0
 42
0.00000001
 43
0.00000001
 40
0.0
 40
0.0
 40
0.0
 40
0.0
 40
0.2322074352791726
 40
0.4697021905392697
 40
0.7270458402700742
 40
0.9999999999999999
 40
0.9999999999999999
 40
0.9999999999999999
 40
0.9999999999999999
 10
63.29913194444456
 20
-14.97126736111046
 30
0.0
 10
63.26860373061138
 20
-14.98964271855753
 30
0.0
 10
63.20685218121137
 20
-15.02681183691265
 30
0.0
 10
63.12779109379399
 20
-15.10630737401516
 30
0.0
 10
63.05832152709437
 20
-15.2015670781247
 30
0.0
 10
63.02245448841489
 20
-15.27445988254625
 30
0.0
 10
63.00399305555568
 20
-15.31197916666602
 30
0.0
  0
SPLINE
  5
1A2
330
1F
100
AcDbEntity
  8
0
  6
Continuous
 62
     7
370
    25
100
AcDbSpline
210
0.0
220
0.0
230
1.0
 70
     8
 71
     3
 72
    11
 73
     7
 74
     0
 42
0.00000001
 43
0.00000001
 40
0.0
 40
0.0
 40
0.0
 40
0.0
 40
0.2869538933514464
 40
0.5461988668811969
 40
0.781657462202776
 40
1.0
 40
1.0
 40
1.0
 40
1.0
 10
63.98706597222234
 20
-14.82152777777712
 30
0.0
 10
63.91894898258967
 20
-14.82282692790381
 30
0.0
 10
63.78929253458618
 20
-14.82529977926962
 30
0.0
 10
63.60559878445485
 20
-14.85363871491797
 30
0.0
 10
63.44208304684094
 20
-14.90005960784785
 30
0.0
 10
63.34556890104878
 20
-14.94813587563949
 30
0.0
 10
63.29913194444456
 20
-14.97126736111046
 30
0.0
  0
SPLINE
  5
1A8
330
1F
100
AcDbEntity
  8
0
  6
Continuous
 62
     7
370
    25
100
AcDbSpline
210
0.0
220
0.0
230
1.0
 70
     8
 71
     3
 72
    23
 73
    19
 74
     0
 42
0.00000001
 43
0.00000001
 40
0.0
 40
0.0
 40
0.0
 40
0.0
 40
0.0846127534506955
 40
0.1619144606629829
 40
0.2298806845577117
 40
0.2895648750439977
 40
0.3420514708676082
 40
0.3854965674004628
 40
0.4217551846928418
 40
0.4495088320332219
 40
0.4986124906573489
 40
0.551975211929283
 40
0.6097553304323343
 40
0.6732052240175824
 40
0.7433128260372264
 40
0.8203600646127891
 40
0.9048566891820637
 40
1.0
 40
1.0
 40
1.0
 40
1.0
 10
60.56258680555568
 20
-16.21041666666605
 30
0.0
 10
60.56175832852814
 20
-16.15182520409585
 30
0.0
 10
60.56017295982645
 20
-16.03970493056003
 30
0.0
 10
60.5595612983256
 20
-15.88048467492544
 30
0.0
 10
60.55258893446453
 20
-15.73866210150635
 30
0.0
 10
60.54361807144554
 20
-15.61428486089211
 30
0.0
 10
60.5348683592808
 20
-15.50670604449915
 30
0.0
 10
60.51751518174284
 20
-15.41682076910143
 30
0.0
 10
60.5054149369452
 20
-15.34316943289381
 30
0.0
 10
60.47816867340256
 20
-15.26938882042558
 30
0.0
 10
60.43355460120281
 20
-15.19033605538868
 30
0.0
 10
60.36070706524222
 20
-15.10579005837874
 30
0.0
 10
60.26804064039322
 20
-15.02754634151969
 30
0.0
 10
60.15653831190635
 20
-14.95530512350031
 30
0.0
 10
60.02348770566363
 20
-14.89394004889907
 30
0.0
 10
59.86805964745825
 20
-14.8520393343263
 30
0.0
 10
59.69181565760184
 20
-14.82561053926096
 30
0.0
 10
59.56732388854387
 20
-14.82294142817329
 30
0.0
 10
59.501388888889
 20
-14.82152777777716
 30
0.0
  0
SPLINE
  5
1AA
330
1F
100
AcDbEntity
  8
0
  6
Continuous
 62
     7
370
    25
100
AcDbSpline
210
0.0
220
0.0
230
1.0
 70
     8
 71
     3
 72
    15
 73
    11
 74
     0
 42
0.00000001
 43
0.00000001
 40
0.0
 40
0.0
 40
0.0
 40
0.0
 40
0.061392956484742
 40
0.1375125657304183
 40
0.2347752365658268
 40
0.3503653280824224
 40
0.4848364312453929
 40
0.6359029609429149
 40
0.8083716426091333
 40
1.0
 40
1.0
 40
1.0
 40
1.0
 10
60.48229166666687
 20
-23.77552083333272
 30
0.0
 10
60.48934733018022
 20
-23.75832518527418
 30
0.0
 10
60.5051511364832
 20
-23.71980907822674
 30
0.0
 10
60.51812188651357
 20
-23.64979865051822
 30
0.0
 10
60.53460661735878
 20
-23.56414226214058
 30
0.0
 10
60.54382116295029
 20
-23.45949220308213
 30
0.0
 10
60.55247599266033
 20
-23.33870474087414
 30
0.0
 10
60.55959664829277
 20
-23.20050971629506
 30
0.0
 10
60.56017551281913
 20
-23.0449007051045
 30
0.0
 10
60.56175533002978
 20
-22.93495106350994
 30
0.0
 10
60.56258680555575
 20
-22.87708333333271
 30
0.0
  0
SPLINE
  5
1AB
330
1F
100
AcDbEntity
  8
0
  6
Continuous
 62
     7
370
    25
100
AcDbSpline
210
0.0
220
0.0
230
1.0
 70
     8
 71
     3
 72
    11
 73
     7
 74
     0
 42
0.00000001
 43
0.00000001
 40
0.0
 40
0.0
 40
0.0
 40
0.0
 40
0.2333588799629273
 40
0.4720312980874316
 40
0.7278840296407335
 40
1.0
 40
1.0
 40
1.0
 40
1.0
 10
60.19149305555577
 20
-24.11623263888828
 30
0.0
 10
60.22199157971235
 20
-24.09783437852944
 30
0.0
 10
60.28368307373077
 20
-24.06061893285577
 30
0.0
 10
60.36291411395786
 20
-23.98178651790803
 30
0.0
 10
60.43005633609003
 20
-23.88569077644386
 30
0.0
 10
60.46452596241135
 20
-23.81299061873553
 30
0.0
 10
60.48229166666687
 20
-23.77552083333272
 30
0.0
  0
SPLINE
  5
1AC
330
1F
100
AcDbEntity
  8
0
  6
Continuous
 62
     7
370
    25
100
AcDbSpline
210
0.0
220
0.0
230
1.0
 70
     8
 71
     3
 72
    11
 73
     7
 74
     0
 42
0.00000001
 43
0.00000001
 40
0.0
 40
0.0
 40
0.0
 40
0.0
 40
0.2861169829655843
 40
0.5446058600775597
 40
0.782294265333147
 40
1.0
 40
1.0
 40
1.0
 40
1.0
 10
59.5013888888891
 20
-24.26597222222161
 30
0.0
 10
59.5695136233408
 20
-24.26469967798251
 30
0.0
 10
59.69918481312504
 20
-24.26227746926689
 30
0.0
 10
59.88346622492389
 20
-24.23348983303336
 30
0.0
 10
60.04796127115255
 20
-24.18789898140482
 30
0.0
 10
60.14506949532169
 20
-24.13941222090493
 30
0.0
 10
60.19149305555577
 20
-24.11623263888828
 30
0.0
  0
SPLINE
  5
1B5
330
1F
100
AcDbEntity
  8
0
  6
Continuous
 62
     7
370
    25
100
AcDbSpline
210
0.0
220
0.0
230
1.0
 70
     8
 71
     3
 72
    15
 73
    11
 74
     0
 42
0.00000001
 43
0.00000001
 40
0.0
 40
0.0
 40
0.0
 40
0.0
 40
0.1436891722908768
 40
0.2700803300698626
 40
0.3870298283172266
 40
0.4973739383253056
 40
0.6080011473899218
 40
0.7249506456372892
 40
0.854628699665032
 40
1.0
 40
1.0
 40
1.0
 40
1.0
 10
23.19826388888994
 20
-104.7881944444442
 30
0.0
 10
23.25997128047426
 20
-104.785893344918
 30
0.0
 10
23.375957422096
 20
-104.7815681636281
 30
0.0
 10
23.5388242821418
 20
-104.7443983528156
 30
0.0
 10
23.6787608516252
 20
-104.6823595854682
 30
0.0
 10
23.79275079959707
 20
-104.590213003364
 30
0.0
 10
23.88151300513855
 20
-104.4740343298907
 30
0.0
 10
23.94542511162626
 20
-104.3333803129382
 30
0.0
 10
23.9811520454933
 20
-104.1678359328849
 30
0.0
 10
23.98575935311084
 20
-104.0497990163682
 30
0.0
 10
23.9881944444455
 20
-103.9874131944442
 30
0.0
  0
SPLINE
  5
1B7
330
1F
100
AcDbEntity
  8
0
  6
Continuous
 62
     7
370
    25
100
AcDbSpline
210
0.0
220
0.0
230
1.0
 70
     8
 71
     3
 72
    19
 73
    15
 74
     0
 42
0.00000001
 43
0.00000001
 40
0.0
 40
0.0
 40
0.0
 40
0.0
 40
0.0862683923373261
 40
0.1698692645287765
 40
0.2530676750149322
 40
0.3362660855010913
 40
0.4176983720506631
 40
0.4976513899978533
 40
0.5775361595178021
 40
0.6596559536296268
 40
0.7428543641157863
 40
0.826241670384066
 40
0.9117553539600262
 40
1.0
 40
1.0
 40
1.0
 40
1.0
 10
23.9881944444455
 20
-103.9874131944442
 30
0.0
 10
23.98584060550761
 20
-103.8909392276281
 30
0.0
 10
23.98120571110002
 20
-103.7009743825068
 30
0.0
 10
23.92734274957706
 20
-103.4225517939675
 30
0.0
 10
23.84927255528024
 20
-103.1538792693041
 30
0.0
 10
23.73329007983412
 20
-102.901661056774
 30
0.0
 10
23.59156874132447
 20
-102.667172736056
 30
0.0
 10
23.41557940010652
 20
-102.4616055617511
 30
0.0
 10
23.21130666839136
 20
-102.283272651454
 30
0.0
 10
22.97890304628829
 20
-102.136439420105
 30
0.0
 10
22.72479361908784
 20
-102.0223210847127
 30
0.0
 10
22.45518465355456
 20
-101.9392257814003
 30
0.0
 10
22.17154474742753
 20
-101.8881078410971
 30
0.0
 10
21.97741160998837
 20
-101.8814297299885
 30
0.0
 10
21.87881944444548
 20
-101.8780381944442
 30
0.0
  0
SPLINE
  5
1B8
330
1F
100
AcDbEntity
  8
0
  6
Continuous
 62
     7
370
    25
100
AcDbSpline
210
0.0
220
0.0
230
1.0
 70
     8
 71
     3
 72
    23
 73
    19
 74
     0
 42
0.00000001
 43
0.00000001
 40
0.0
 40
0.0
 40
0.0
 40
0.0
 40
0.0789951383736523
 40
0.1540431412180436
 40
0.2269235525699153
 40
0.2975010391692864
 40
0.365208303872387
 40
0.4311229991721931
 40
0.498220900335079
 40
0.5700277266890829
 40
0.6095665778912263
 40
0.6525298104511937
 40
0.7002669009720133
 40
0.7517812673487271
 40
0.807152669136224
 40
0.8669224540990512
 40
0.931199810809012
 40
1.0
 40
1.0
 40
1.0
 40
1.0
 10
21.87881944444548
 20
-101.8780381944442
 30
0.0
 10
21.76583043093688
 20
-101.8809793594345
 30
0.0
 10
21.54549810514661
 20
-101.8867147287657
 30
0.0
 10
21.2233056596321
 20
-101.930832407632
 30
0.0
 10
20.91902943029717
 20
-102.0041786134101
 30
0.0
 10
20.6342454140707
 20
-102.106229351303
 30
0.0
 10
20.374644406359
 20
-102.2444080543443
 30
0.0
 10
20.15976558850421
 20
-102.438862430687
 30
0.0
 10
19.9888918111347
 20
-102.6794778482666
 30
0.0
 10
19.88863092413162
 20
-102.9159389763112
 30
0.0
 10
19.82675759392396
 20
-103.1278800915325
 30
0.0
 10
19.7888156973626
 20
-103.3103438284844
 30
0.0
 10
19.75394961266795
 20
-103.5107293819482
 30
0.0
 10
19.72646593336799
 20
-103.7301830577625
 30
0.0
 10
19.70396070873159
 20
-103.9675036437511
 30
0.0
 10
19.69290967843812
 20
-104.2238834050451
 30
0.0
 10
19.68305560418518
 20
-104.4994896844826
 30
0.0
 10
19.68278090599321
 20
-104.6898034946119
 30
0.0
 10
19.68263888888994
 20
-104.7881944444442
 30
0.0
  0
SPLINE
  5
1BA
330
1F
100
AcDbEntity
  8
0
  6
Continuous
 62
     7
370
    25
100
AcDbSpline
210
0.0
220
0.0
230
1.0
 70
     8
 71
     3
 72
    23
 73
    19
 74
     0
 42
0.00000001
 43
0.00000001
 40
0.0
 40
0.0
 40
0.0
 40
0.0
 40
0.0824533065215458
 40
0.1588636280757277
 40
0.2292847775534506
 40
0.2962772255937802
 40
0.3617062934905493
 40
0.4273682886740174
 40
0.4943675732597897
 40
0.5650462445098055
 40
0.6033342355418818
 40
0.6458399686721785
 40
0.6933105890574718
 40
0.744733383379403
 40
0.8014235559223016
 40
0.8623681140097887
 40
0.9287147814539743
 40
1.0
 40
1.0
 40
1.0
 40
1.0
 10
17.09149305555659
 20
-102.0169270833332
 30
0.0
 10
16.98343101820109
 20
-102.0197200007394
 30
0.0
 10
16.77522678679089
 20
-102.0251011432405
 30
0.0
 10
16.47920564839493
 20
-102.0809929967271
 30
0.0
 10
16.2113740609634
 20
-102.1658573893267
 30
0.0
 10
15.97605516950323
 20
-102.2920534155892
 30
0.0
 10
15.7694623636849
 20
-102.4504677746957
 30
0.0
 10
15.59024056188461
 20
-102.6392998445098
 30
0.0
 10
15.43640656944334
 20
-102.8575496023459
 30
0.0
 10
15.33117091011357
 20
-103.0635288678033
 30
0.0
 10
15.26268706078131
 20
-103.2498321047304
 30
0.0
 10
15.21750693345873
 20
-103.4116991074678
 30
0.0
 10
15.17880892057984
 20
-103.592835093085
 30
0.0
 10
15.14906714535559
 20
-103.7944316481171
 30
0.0
 10
15.12583761579983
 20
-104.0145510370177
 30
0.0
 10
15.10793266297639
 20
-104.2547949759144
 30
0.0
 10
15.10016199794206
 20
-104.5147028225658
 30
0.0
 10
15.09959778477717
 20
-104.6948755652678
 30
0.0
 10
15.09930555555661
 20
-104.7881944444443
 30
0.0
  0
SPLINE
  5
1BB
330
1F
100
AcDbEntity
  8
0
  6
Continuous
 62
     7
370
    25
100
AcDbSpline
210
0.0
220
0.0
230
1.0
 70
     8
 71
     3
 72
    23
 73
    19
 74
     0
 42
0.00000001
 43
0.00000001
 40
0.0
 40
0.0
 40
0.0
 40
0.0
 40
0.0694159066413283
 40
0.1339242403406444
 40
0.1941712714507738
 40
0.2496515166210897
 40
0.3004553450277535
 40
0.3473585753598963
 40
0.3905713842814263
 40
0.4296468414247342
 40
0.5018418893672356
 40
0.5709357600213649
 40
0.6379496161601084
 40
0.7039460125359007
 40
0.7707285432922802
 40
0.8416258066053024
 40
0.9172549930384153
 40
1.0
 40
1.0
 40
1.0
 40
1.0
 10
19.12708333333439
 20
-104.7881944444442
 30
0.0
 10
19.12609308623078
 20
-104.6970409494045
 30
0.0
 10
19.12418260061564
 20
-104.5211783385382
 30
0.0
 10
19.11402172424041
 20
-104.2663263843608
 30
0.0
 10
19.09428918040337
 20
-104.0303990539268
 30
0.0
 10
19.06859074813376
 20
-103.8131870760927
 30
0.0
 10
19.03675457485836
 20
-103.6144599393147
 30
0.0
 10
18.99585665393508
 20
-103.4338304054705
 30
0.0
 10
18.94645053266081
 20
-103.271342956646
 30
0.0
 10
18.8720770062996
 20
-103.0824082376849
 30
0.0
 10
18.76126922441997
 20
-102.8721264197055
 30
0.0
 10
18.60198936015045
 20
-102.6487582609875
 30
0.0
 10
18.41864148890582
 20
-102.4555453448389
 30
0.0
 10
18.21010611462359
 20
-102.2945008512202
 30
0.0
 10
17.97279147801078
 20
-102.1680821634974
 30
0.0
 10
17.70551098694313
 20
-102.0809973299255
 30
0.0
 10
17.40848762340445
 20
-102.0249071017659
 30
0.0
 10
17.20027625359555
 20
-102.0196655905935
 30
0.0
 10
17.09149305555659
 20
-102.0169270833332
 30
0.0
  0
SPLINE
  5
1BC
330
1F
100
AcDbEntity
  8
0
  6
Continuous
 62
     7
370
    25
100
AcDbSpline
210
0.0
220
0.0
230
1.0
 70
     8
 71
     3
 72
    15
 73
    11
 74
     0
 42
0.00000001
 43
0.00000001
 40
0.0
 40
0.0
 40
0.0
 40
0.0
 40
0.1399003960930673
 40
0.2740657867247136
 40
0.403931174944352
 40
0.528737859762982
 40
0.6492590746358927
 40
0.7673160512190054
 40
0.8838900659274453
 40
1.0
 40
1.0
 40
1.0
 40
1.0
 10
16.54461805555759
 20
-196.9221354166665
 30
0.0
 10
16.47243003665258
 20
-196.9623966967036
 30
0.0
 10
16.33101323765987
 20
-197.041268806405
 30
0.0
 10
16.13231683059896
 20
-197.1739968509604
 30
0.0
 10
15.95296564347057
 20
-197.3177465342187
 30
0.0
 10
15.78862058166804
 20
-197.4667878238539
 30
0.0
 10
15.64470764312129
 20
-197.6265358931905
 30
0.0
 10
15.51834004911304
 20
-197.7942235449312
 30
0.0
 10
15.40830411007706
 20
-197.9703246605304
 30
0.0
 10
15.34983564702019
 20
-198.0948206175308
 30
0.0
 10
15.32065972222425
 20
-198.1569444444443
 30
0.0
  0
SPLINE
  5
1BD
330
1F
100
AcDbEntity
  8
0
  6
Continuous
 62
     7
370
    25
100
AcDbSpline
210
0.0
220
0.0
230
1.0
 70
     8
 71
     3
 72
    15
 73
    11
 74
     0
 42
0.00000001
 43
0.00000001
 40
0.0
 40
0.0
 40
0.0
 40
0.0
 40
0.1397146445497783
 40
0.2724601279707893
 40
0.3997807837310651
 40
0.5207687595203685
 40
0.640660953346237
 40
0.758496052202687
 40
0.8781105938308394
 40
1.0
 40
1.0
 40
1.0
 40
1.0
 10
23.98819444444648
 20
-199.0901041666664
 30
0.0
 10
23.98577268410218
 20
-198.9901579461179
 30
0.0
 10
23.98104996419369
 20
-198.7952509617527
 30
0.0
 10
23.94200383102868
 20
-198.5112699298863
 30
0.0
 10
23.87462685194695
 20
-198.2467239864454
 30
0.0
 10
23.78318197601617
 20
-197.9991240909615
 30
0.0
 10
23.66328641195292
 20
-197.7715221744966
 30
0.0
 10
23.51864102669601
 20
-197.5602336826974
 30
0.0
 10
23.34702676362235
 20
-197.3674942418471
 30
0.0
 10
23.21354839474653
 20
-197.2575654636269
 30
0.0
 10
23.14618055555757
 20
-197.2020833333331
 30
0.0
  0
SPLINE
  5
1BE
330
1F
100
AcDbEntity
  8
0
  6
Continuous
 62
     7
370
    25
100
AcDbSpline
210
0.0
220
0.0
230
1.0
 70
     8
 71
     3
 72
    11
 73
     7
 74
     0
 42
0.00000001
 43
0.00000001
 40
0.0
 40
0.0
 40
0.0
 40
0.0
 40
0.2031912365631702
 40
0.4338952685143608
 40
0.6998200393238352
 40
1.0
 40
1.0
 40
1.0
 40
1.0
 10
23.87751736111315
 20
-199.6673611111109
 30
0.0
 10
23.89463495093658
 20
-199.6309101727296
 30
0.0
 10
23.93118791138103
 20
-199.5530727129843
 30
0.0
 10
23.9635952276223
 20
-199.417790889311
 30
0.0
 10
23.98576100677619
 20
-199.2615755909283
 30
0.0
 10
23.98735122370071
 20
-199.1495214527593
 30
0.0
 10
23.98819444444648
 20
-199.0901041666664
 30
0.0
  0
SPLINE
  5
1BF
330
1F
100
AcDbEntity
  8
0
  6
Continuous
 62
     7
370
    25
100
AcDbSpline
210
0.0
220
0.0
230
1.0
 70
     8
 71
     3
 72
    13
 73
     9
 74
     0
 42
0.00000001
 43
0.00000001
 40
0.0
 40
0.0
 40
0.0
 40
0.0
 40
0.2639166889304264
 40
0.4728204639135452
 40
0.6232813401790869
 40
0.7205290032643575
 40
0.8584377773774325
 40
1.0
 40
1.0
 40
1.0
 40
1.0
 10
22.90312500000205
 20
-199.9256076388887
 30
0.0
 10
22.99644593967283
 20
-199.924683315819
 30
0.0
 10
23.16363525296258
 20
-199.9230273430026
 30
0.0
 10
23.38396447886933
 20
-199.9142130683099
 30
0.0
 10
23.54463608055943
 20
-199.8965888237289
 30
0.0
 10
23.67815993838673
 20
-199.8663061765865
 30
0.0
 10
23.79542262393378
 20
-199.7931122282911
 30
0.0
 10
23.84991499406373
 20
-199.709641878582
 30
0.0
 10
23.87751736111315
 20
-199.6673611111109
 30
0.0
  0
SPLINE
  5
1C1
330
1F
100
AcDbEntity
  8
0
  6
Continuous
 62
     7
370
    25
100
AcDbSpline
210
0.0
220
0.0
230
1.0
 70
     8
 71
     3
 72
    15
 73
    11
 74
     0
 42
0.00000001
 43
0.00000001
 40
0.0
 40
0.0
 40
0.0
 40
0.0
 40
0.0865648624072097
 40
0.1820095399193542
 40
0.2895525858074837
 40
0.4081868021538044
 40
0.5383918917387056
 40
0.6803499344374518
 40
0.834158423502016
 40
1.0
 40
1.0
 40
1.0
 40
1.0
 10
15.32065972222425
 20
-198.1569444444443
 30
0.0
 10
15.30164696491269
 20
-198.2050986679948
 30
0.0
 10
15.26167112350725
 20
-198.3063467706298
 30
0.0
 10
15.21766035363814
 20
-198.4740061401272
 30
0.0
 10
15.17833596122167
 20
-198.6621944620845
 30
0.0
 10
15.14924936781957
 20
-198.8733119141251
 30
0.0
 10
15.12561191492903
 20
-199.1056623468811
 30
0.0
 10
15.10801585462622
 20
-199.3596790594972
 30
0.0
 10
15.10013223189303
 20
-199.6354791894155
 30
0.0
 10
15.09958794416091
 20
-199.8265011759158
 30
0.0
 10
15.09930555555761
 20
-199.9256076388887
 30
0.0
  0
SPLINE
  5
1C2
330
1F
100
AcDbEntity
  8
0
  6
Continuous
 62
     7
370
    25
100
AcDbSpline
210
0.0
220
0.0
230
1.0
 70
     8
 71
     3
 72
    15
 73
    11
 74
     0
 42
0.00000001
 43
0.00000001
 40
0.0
 40
0.0
 40
0.0
 40
0.0
 40
0.099634871790965
 40
0.2043886484349015
 40
0.3155609319304143
 40
0.4338452183209798
 40
0.5615032200401813
 40
0.6977999914983006
 40
0.843833955741847
 40
1.0
 40
1.0
 40
1.0
 40
1.0
 10
23.14618055555757
 20
-197.2020833333331
 30
0.0
 10
23.04653399664472
 20
-197.130076045551
 30
0.0
 10
22.84212137352103
 20
-196.9823619775477
 30
0.0
 10
22.49481925428007
 20
-196.8042552851718
 30
0.0
 10
22.11118089007641
 20
-196.6534399674411
 30
0.0
 10
21.68925054108274
 20
-196.5258993526201
 30
0.0
 10
21.22669918886376
 20
-196.4337562509718
 30
0.0
 10
20.72595434613229
 20
-196.3649780489233
 30
0.0
 10
20.18692143385294
 20
-196.3201312677981
 30
0.0
 10
19.8143872200178
 20
-196.3164162926776
 30
0.0
 10
19.62187500000201
 20
-196.3144965277776
 30
0.0
  0
SPLINE
  5
1C3
330
1F
100
AcDbEntity
  8
0
  6
Continuous
 62
     7
370
    25
100
AcDbSpline
210
0.0
220
0.0
230
1.0
 70
     8
 71
     3
 72
    15
 73
    11
 74
     0
 42
0.00000001
 43
0.00000001
 40
0.0
 40
0.0
 40
0.0
 40
0.0
 40
0.148068026063935
 40
0.2888987262382046
 40
0.422639688259728
 40
0.5498515750181192
 40
0.6707298305132103
 40
0.7854183249534765
 40
0.895156620963343
 40
1.0
 40
1.0
 40
1.0
 40
1.0
 10
19.62187500000201
 20
-196.3144965277776
 30
0.0
 10
19.46555258232907
 20
-196.3155666288407
 30
0.0
 10
19.1605485341986
 20
-196.3176545261558
 30
0.0
 10
18.71555775442352
 20
-196.3511739472489
 30
0.0
 10
18.29337960654098
 20
-196.3931781820196
 30
0.0
 10
17.89618016023031
 20
-196.4624603249403
 30
0.0
 10
17.52165065545879
 20
-196.5438394730673
 30
0.0
 10
17.17395589921665
 20
-196.6536637063912
 30
0.0
 10
16.84603970912658
 20
-196.7704127238955
 30
0.0
 10
16.64355226335068
 20
-196.8723361927694
 30
0.0
 10
16.54461805555759
 20
-196.9221354166665
 30
0.0
  0
LINE
  5
1C4
330
1F
100
AcDbEntity
  8
0
  6
Continuous
 62
     7
370
    25
100
AcDbLine
 10
57.0903645833
 20
-16.2104166667
 30
0.0
 11
57.0903645833
 21
-22.8770833333
 31
0.0
  0
LINE
  5
1C5
330
1F
100
AcDbEntity
  8
0
  6
Continuous
 62
     7
370
    25
100
AcDbLine
 10
58.4792534722
 20
-14.8215277778
 30
0.0
 11
58.1537326389
 21
-14.8215277778
 31
0.0
  0
LINE
  5
1C6
330
1F
100
AcDbEntity
  8
0
  6
Continuous
 62
     7
370
    25
100
AcDbLine
 10
58.4792534722
 20
-14.54375
 30
0.0
 11
58.4792534722
 21
-14.8215277778
 31
0.0
  0
LINE
  5
1C7
330
1F
100
AcDbEntity
  8
0
  6
Continuous
 62
     7
370
    25
100
AcDbLine
 10
53.3403645833
 20
-14.54375
 30
0.0
 11
58.4792534722
 21
-14.54375
 31
0.0
  0
LINE
  5
1C8
330
1F
100
AcDbEntity
  8
0
  6
Continuous
 62
     7
370
    25
100
AcDbLine
 10
53.3403645833
 20
-14.8215277778
 30
0.0
 11
53.3403645833
 21
-14.54375
 31
0.0
  0
LINE
  5
1C9
330
1F
100
AcDbEntity
  8
0
  6
Continuous
 62
     7
370
    25
100
AcDbLine
 10
53.6680555556
 20
-14.8215277778
 30
0.0
 11
53.3403645833
 21
-14.8215277778
 31
0.0
  0
LINE
  5
1CA
330
1F
100
AcDbEntity
  8
0
  6
Continuous
 62
     7
370
    25
100
AcDbLine
 10
54.7292534722
 20
-22.8770833333
 30
0.0
 11
54.7292534722
 21
-16.2104166667
 31
0.0
  0
LINE
  5
1CB
330
1F
100
AcDbEntity
  8
0
  6
Continuous
 62
     7
370
    25
100
AcDbLine
 10
53.3403645833
 20
-24.2659722222
 30
0.0
 11
53.6680555556
 21
-24.2659722222
 31
0.0
  0
LINE
  5
1CC
330
1F
100
AcDbEntity
  8
0
  6
Continuous
 62
     7
370
    25
100
AcDbLine
 10
53.3403645833
 20
-24.54375
 30
0.0
 11
53.3403645833
 21
-24.2659722222
 31
0.0
  0
LINE
  5
1CD
330
1F
100
AcDbEntity
  8
0
  6
Continuous
 62
     7
370
    25
100
AcDbLine
 10
58.4792534722
 20
-24.54375
 30
0.0
 11
53.3403645833
 21
-24.54375
 31
0.0
  0
LINE
  5
1CE
330
1F
100
AcDbEntity
  8
0
  6
Continuous
 62
     7
370
    25
100
AcDbLine
 10
58.4792534722
 20
-24.2659722222
 30
0.0
 11
58.4792534722
 21
-24.54375
 31
0.0
  0
LINE
  5
1CF
330
1F
100
AcDbEntity
  8
0
  6
Continuous
 62
     7
370
    25
100
AcDbLine
 10
58.1537326389
 20
-24.2659722222
 30
0.0
 11
58.4792534722
 21
-24.2659722222
 31
0.0
  0
LINE
  5
1D0
330
1F
100
AcDbEntity
  8
0
  6
Continuous
 62
     7
370
    25
100
AcDbLine
 10
68.75703125
 20
-16.2104166667
 30
0.0
 11
68.75703125
 21
-22.8770833333
 31
0.0
  0
LINE
  5
1D1
330
1F
100
AcDbEntity
  8
0
  6
Continuous
 62
     7
370
    25
100
AcDbLine
 10
70.1459201389
 20
-14.8215277778
 30
0.0
 11
69.8203993056
 21
-14.8215277778
 31
0.0
  0
LINE
  5
1D2
330
1F
100
AcDbEntity
  8
0
  6
Continuous
 62
     7
370
    25
100
AcDbLine
 10
70.1459201389
 20
-14.54375
 30
0.0
 11
70.1459201389
 21
-14.8215277778
 31
0.0
  0
LINE
  5
1D3
330
1F
100
AcDbEntity
  8
0
  6
Continuous
 62
     7
370
    25
100
AcDbLine
 10
65.00703125
 20
-14.54375
 30
0.0
 11
70.1459201389
 21
-14.54375
 31
0.0
  0
LINE
  5
1D4
330
1F
100
AcDbEntity
  8
0
  6
Continuous
 62
     7
370
    25
100
AcDbLine
 10
65.00703125
 20
-14.8215277778
 30
0.0
 11
65.00703125
 21
-14.54375
 31
0.0
  0
LINE
  5
1D5
330
1F
100
AcDbEntity
  8
0
  6
Continuous
 62
     7
370
    25
100
AcDbLine
 10
65.3347222222
 20
-14.8215277778
 30
0.0
 11
65.00703125
 21
-14.8215277778
 31
0.0
  0
LINE
  5
1D6
330
1F
100
AcDbEntity
  8
0
  6
Continuous
 62
     7
370
    25
100
AcDbLine
 10
66.3959201389
 20
-22.8770833333
 30
0.0
 11
66.3959201389
 21
-16.2104166667
 31
0.0
  0
LINE
  5
1D7
330
1F
100
AcDbEntity
  8
0
  6
Continuous
 62
     7
370
    25
100
AcDbLine
 10
65.00703125
 20
-24.2659722222
 30
0.0
 11
65.3347222222
 21
-24.2659722222
 31
0.0
  0
LINE
  5
1D8
330
1F
100
AcDbEntity
  8
0
  6
Continuous
 62
     7
370
    25
100
AcDbLine
 10
65.00703125
 20
-24.54375
 30
0.0
 11
65.00703125
 21
-24.2659722222
 31
0.0
  0
LINE
  5
1D9
330
1F
100
AcDbEntity
  8
0
  6
Continuous
 62
     7
370
    25
100
AcDbLine
 10
70.1459201389
 20
-24.54375
 30
0.0
 11
65.00703125
 21
-24.54375
 31
0.0
  0
LINE
  5
1DA
330
1F
100
AcDbEntity
  8
0
  6
Continuous
 62
     7
370
    25
100
AcDbLine
 10
70.1459201389
 20
-24.2659722222
 30
0.0
 11
70.1459201389
 21
-24.54375
 31
0.0
  0
LINE
  5
1DB
330
1F
100
AcDbEntity
  8
0
  6
Continuous
 62
     7
370
    25
100
AcDbLine
 10
69.8203993056
 20
-24.2659722222
 30
0.0
 11
70.1459201389
 21
-24.2659722222
 31
0.0
  0
LINE
  5
1DC
330
1F
100
AcDbEntity
  8
0
  6
Continuous
 62
     7
370
    25
100
AcDbLine
 10
107.43359375
 20
-16.2104166667
 30
0.0
 11
107.43359375
 21
-22.8770833333
 31
0.0
  0
LINE
  5
1DD
330
1F
100
AcDbEntity
  8
0
  6
Continuous
 62
     7
370
    25
100
AcDbLine
 10
108.8224826389
 20
-14.8215277778
 30
0.0
 11
108.4969618056
 21
-14.8215277778
 31
0.0
  0
LINE
  5
1DE
330
1F
100
AcDbEntity
  8
0
  6
Continuous
 62
     7
370
    25
100
AcDbLine
 10
108.8224826389
 20
-14.54375
 30
0.0
 11
108.8224826389
 21
-14.8215277778
 31
0.0
  0
LINE
  5
1DF
330
1F
100
AcDbEntity
  8
0
  6
Continuous
 62
     7
370
    25
100
AcDbLine
 10
103.68359375
 20
-14.54375
 30
0.0
 11
108.8224826389
 21
-14.54375
 31
0.0
  0
LINE
  5
1E0
330
1F
100
AcDbEntity
  8
0
  6
Continuous
 62
     7
370
    25
100
AcDbLine
 10
103.68359375
 20
-14.8215277778
 30
0.0
 11
103.68359375
 21
-14.54375
 31
0.0
  0
LINE
  5
1E1
330
1F
100
AcDbEntity
  8
0
  6
Continuous
 62
     7
370
    25
100
AcDbLine
 10
104.0112847222
 20
-14.8215277778
 30
0.0
 11
103.68359375
 21
-14.8215277778
 31
0.0
  0
LINE
  5
1E2
330
1F
100
AcDbEntity
  8
0
  6
Continuous
 62
     7
370
    25
100
AcDbLine
 10
105.0724826389
 20
-22.8770833333
 30
0.0
 11
105.0724826389
 21
-16.2104166667
 31
0.0
  0
LINE
  5
1E3
330
1F
100
AcDbEntity
  8
0
  6
Continuous
 62
     7
370
    25
100
AcDbLine
 10
103.68359375
 20
-24.2659722222
 30
0.0
 11
104.0112847222
 21
-24.2659722222
 31
0.0
  0
LINE
  5
1E4
330
1F
100
AcDbEntity
  8
0
  6
Continuous
 62
     7
370
    25
100
AcDbLine
 10
103.68359375
 20
-24.54375
 30
0.0
 11
103.68359375
 21
-24.2659722222
 31
0.0
  0
LINE
  5
1E5
330
1F
100
AcDbEntity
  8
0
  6
Continuous
 62
     7
370
    25
100
AcDbLine
 10
108.8224826389
 20
-24.54375
 30
0.0
 11
103.68359375
 21
-24.54375
 31
0.0
  0
LINE
  5
1E6
330
1F
100
AcDbEntity
  8
0
  6
Continuous
 62
     7
370
    25
100
AcDbLine
 10
108.8224826389
 20
-24.2659722222
 30
0.0
 11
108.8224826389
 21
-24.54375
 31
0.0
  0
LINE
  5
1E7
330
1F
100
AcDbEntity
  8
0
  6
Continuous
 62
     7
370
    25
100
AcDbLine
 10
108.4969618056
 20
-24.2659722222
 30
0.0
 11
108.8224826389
 21
-24.2659722222
 31
0.0
  0
LINE
  5
1E8
330
1F
100
AcDbEntity
  8
0
  6
Continuous
 62
     7
370
    25
100
AcDbLine
 10
150.2269097222
 20
-14.8215277778
 30
0.0
 11
150.2269097222
 21
-14.54375
 31
0.0
  0
LINE
  5
1E9
330
1F
100
AcDbEntity
  8
0
  6
Continuous
 62
     7
370
    25
100
AcDbLine
 10
149.0810763889
 20
-21.5033854167
 30
0.0
 11
150.9799479167
 21
-17.1826388889
 31
0.0
  0
LINE
  5
1EA
330
1F
100
AcDbEntity
  8
0
  6
Continuous
 62
     7
370
    25
100
AcDbLine
 10
146.9608506944
 20
-16.6140625
 30
0.0
 11
149.0810763889
 21
-21.5033854167
 31
0.0
  0
LINE
  5
1EB
330
1F
100
AcDbEntity
  8
0
  6
Continuous
 62
     7
370
    25
100
AcDbLine
 10
147.6965277778
 20
-14.8215277778
 30
0.0
 11
147.5359375
 21
-14.8215277778
 31
0.0
  0
LINE
  5
1EC
330
1F
100
AcDbEntity
  8
0
  6
Continuous
 62
     7
370
    25
100
AcDbLine
 10
147.6965277778
 20
-14.54375
 30
0.0
 11
147.6965277778
 21
-14.8215277778
 31
0.0
  0
LINE
  5
1ED
330
1F
100
AcDbEntity
  8
0
  6
Continuous
 62
     7
370
    25
100
AcDbLine
 10
143.0090277778
 20
-14.54375
 30
0.0
 11
147.6965277778
 21
-14.54375
 31
0.0
  0
LINE
  5
1EE
330
1F
100
AcDbEntity
  8
0
  6
Continuous
 62
     7
370
    25
100
AcDbLine
 10
143.0090277778
 20
-14.8215277778
 30
0.0
 11
143.0090277778
 21
-14.54375
 31
0.0
  0
LINE
  5
1EF
330
1F
100
AcDbEntity
  8
0
  6
Continuous
 62
     7
370
    25
100
AcDbLine
 10
148.0502604167
 20
-24.6826388889
 30
0.0
 11
144.6192708333
 21
-16.7616319444
 31
0.0
  0
LINE
  5
1F0
330
1F
100
AcDbEntity
  8
0
  6
Continuous
 62
     7
370
    25
100
AcDbLine
 10
148.4300347222
 20
-24.6826388889
 30
0.0
 11
148.0502604167
 21
-24.6826388889
 31
0.0
  0
LINE
  5
1F1
330
1F
100
AcDbEntity
  8
0
  6
Continuous
 62
     7
370
    25
100
AcDbLine
 10
151.7308159722
 20
-17.1674479167
 30
0.0
 11
148.4300347222
 21
-24.6826388889
 31
0.0
  0
LINE
  5
1F2
330
1F
100
AcDbEntity
  8
0
  6
Continuous
 62
     7
370
    25
100
AcDbLine
 10
153.6123263889
 20
-14.54375
 30
0.0
 11
153.6123263889
 21
-14.8215277778
 31
0.0
  0
LINE
  5
1F3
330
1F
100
AcDbEntity
  8
0
  6
Continuous
 62
     7
370
    25
100
AcDbLine
 10
150.2269097222
 20
-14.54375
 30
0.0
 11
153.6123263889
 21
-14.54375
 31
0.0
  0
LINE
  5
1F4
330
1F
100
AcDbEntity
  8
0
  6
Continuous
 62
     7
370
    25
100
AcDbLine
 10
200.5701388889
 20
-14.8215277778
 30
0.0
 11
200.5701388889
 21
-14.54375
 31
0.0
  0
LINE
  5
1F5
330
1F
100
AcDbEntity
  8
0
  6
Continuous
 62
     7
370
    25
100
AcDbLine
 10
199.4243055556
 20
-21.5033854167
 30
0.0
 11
201.3231770833
 21
-17.1826388889
 31
0.0
  0
LINE
  5
1F6
330
1F
100
AcDbEntity
  8
0
  6
Continuous
 62
     7
370
    25
100
AcDbLine
 10
197.3040798611
 20
-16.6140625
 30
0.0
 11
199.4243055556
 21
-21.5033854167
 31
0.0
  0
LINE
  5
1F7
330
1F
100
AcDbEntity
  8
0
  6
Continuous
 62
     7
370
    25
100
AcDbLine
 10
198.0397569444
 20
-14.8215277778
 30
0.0
 11
197.8791666667
 21
-14.8215277778
 31
0.0
  0
LINE
  5
1F8
330
1F
100
AcDbEntity
  8
0
  6
Continuous
 62
     7
370
    25
100
AcDbLine
 10
198.0397569444
 20
-14.54375
 30
0.0
 11
198.0397569444
 21
-14.8215277778
 31
0.0
  0
LINE
  5
1F9
330
1F
100
AcDbEntity
  8
0
  6
Continuous
 62
     7
370
    25
100
AcDbLine
 10
193.3522569444
 20
-14.54375
 30
0.0
 11
198.0397569444
 21
-14.54375
 31
0.0
  0
LINE
  5
1FA
330
1F
100
AcDbEntity
  8
0
  6
Continuous
 62
     7
370
    25
100
AcDbLine
 10
193.3522569444
 20
-14.8215277778
 30
0.0
 11
193.3522569444
 21
-14.54375
 31
0.0
  0
LINE
  5
1FB
330
1F
100
AcDbEntity
  8
0
  6
Continuous
 62
     7
370
    25
100
AcDbLine
 10
198.3934895833
 20
-24.6826388889
 30
0.0
 11
194.9625
 21
-16.7616319444
 31
0.0
  0
LINE
  5
1FC
330
1F
100
AcDbEntity
  8
0
  6
Continuous
 62
     7
370
    25
100
AcDbLine
 10
198.7732638889
 20
-24.6826388889
 30
0.0
 11
198.3934895833
 21
-24.6826388889
 31
0.0
  0
LINE
  5
1FD
330
1F
100
AcDbEntity
  8
0
  6
Continuous
 62
     7
370
    25
100
AcDbLine
 10
202.0740451389
 20
-17.1674479167
 30
0.0
 11
198.7732638889
 21
-24.6826388889
 31
0.0
  0
LINE
  5
1FE
330
1F
100
AcDbEntity
  8
0
  6
Continuous
 62
     7
370
    25
100
AcDbLine
 10
203.9555555556
 20
-14.54375
 30
0.0
 11
203.9555555556
 21
-14.8215277778
 31
0.0
  0
LINE
  5
1FF
330
1F
100
AcDbEntity
  8
0
  6
Continuous
 62
     7
370
    25
100
AcDbLine
 10
200.5701388889
 20
-14.54375
 30
0.0
 11
203.9555555556
 21
-14.54375
 31
0.0
  0
LINE
  5
200
330
1F
100
AcDbEntity
  8
0
  6
Continuous
 62
     7
370
    25
100
AcDbLine
 10
14.54375
 20
-108.3993055556
 30
0.0
 11
14.54375
 21
-103.6184895833
 31
0.0
  0
LINE
  5
201
330
1F
100
AcDbEntity
  8
0
  6
Continuous
 62
     7
370
    25
100
AcDbLine
 10
14.8215277778
 20
-108.3993055556
 30
0.0
 11
14.54375
 21
-108.3993055556
 31
0.0
  0
LINE
  5
202
330
1F
100
AcDbEntity
  8
0
  6
Continuous
 62
     7
370
    25
100
AcDbLine
 10
22.8770833333
 20
-107.0104166667
 30
0.0
 11
16.2104166667
 21
-107.0104166667
 31
0.0
  0
LINE
  5
203
330
1F
100
AcDbEntity
  8
0
  6
Continuous
 62
     7
370
    25
100
AcDbLine
 10
24.54375
 20
-108.3993055556
 30
0.0
 11
24.2659722222
 21
-108.3993055556
 31
0.0
  0
LINE
  5
204
330
1F
100
AcDbEntity
  8
0
  6
Continuous
 62
     7
370
    25
100
AcDbLine
 10
24.54375
 20
-103.3537326389
 30
0.0
 11
24.54375
 21
-108.3993055556
 31
0.0
  0
LINE
  5
205
330
1F
100
AcDbEntity
  8
0
  6
Continuous
 62
     7
370
    25
100
AcDbLine
 10
14.54375
 20
-203.6756076389
 30
0.0
 11
14.54375
 21
-199.2311631944
 31
0.0
  0
LINE
  5
206
330
1F
100
AcDbEntity
  8
0
  6
Continuous
 62
     7
370
    25
100
AcDbLine
 10
14.8215277778
 20
-203.6756076389
 30
0.0
 11
14.54375
 21
-203.6756076389
 31
0.0
  0
LINE
  5
207
330
1F
100
AcDbEntity
  8
0
  6
Continuous
 62
     7
370
    25
100
AcDbLine
 10
14.8215277778
 20
-203.3479166667
 30
0.0
 11
14.8215277778
 21
-203.6756076389
 31
0.0
  0
LINE
  5
208
330
1F
100
AcDbEntity
  8
0
  6
Continuous
 62
     7
370
    25
100
AcDbLine
 10
22.8770833333
 20
-202.28671875
 30
0.0
 11
16.2104166667
 21
-202.28671875
 31
0.0
  0
LINE
  5
209
330
1F
100
AcDbEntity
  8
0
  6
Continuous
 62
     7
370
    25
100
AcDbLine
 10
24.2659722222
 20
-203.6756076389
 30
0.0
 11
24.2659722222
 21
-203.3479166667
 31
0.0
  0
LINE
  5
20A
330
1F
100
AcDbEntity
  8
0
  6
Continuous
 62
     7
370
    25
100
AcDbLine
 10
24.54375
 20
-203.6756076389
 30
0.0
 11
24.2659722222
 21
-203.6756076389
 31
0.0
  0
LINE
  5
20B
330
1F
100
AcDbEntity
  8
0
  6
Continuous
 62
     7
370
    25
100
AcDbLine
 10
24.54375
 20
-199.2311631944
 30
0.0
 11
24.54375
 21
-203.6756076389
 31
0.0
  0
LINE
  5
20C
330
1F
100
AcDbEntity
  8
0
  6
Continuous
 62
     7
370
    25
100
AcDbLine
 10
0.0
 20
-200.025
 30
0.0
 11
0.0
 21
-222.25
 31
0.0
  0
LINE
  5
20D
330
1F
100
AcDbEntity
  8
0
  6
Continuous
 62
     7
370
    25
100
AcDbLine
 10
0.0
 20
-200.025
 30
0.0
 11
5.15
 21
-200.025
 31
0.0
  0
LINE
  5
20E
330
1F
100
AcDbEntity
  8
0
  6
Continuous
 62
     7
370
    25
100
AcDbLine
 10
5.15
 20
-177.8
 30
0.0
 11
5.15
 21
-200.025
 31
0.0
  0
LINE
  5
20F
330
1F
100
AcDbEntity
  8
0
  6
Continuous
 62
     7
370
    25
100
AcDbLine
 10
0.0
 20
-177.8
 30
0.0
 11
5.15
 21
-177.8
 31
0.0
  0
LINE
  5
210
330
1F
100
AcDbEntity
  8
0
  6
Continuous
 62
     7
370
    25
100
AcDbLine
 10
0.0
 20
-155.575
 30
0.0
 11
0.0
 21
-177.8
 31
0.0
  0
LINE
  5
211
330
1F
100
AcDbEntity
  8
0
  6
Continuous
 62
     7
370
    25
100
AcDbLine
 10
0.0
 20
-155.575
 30
0.0
 11
5.15
 21
-155.575
 31
0.0
  0
LINE
  5
212
330
1F
100
AcDbEntity
  8
0
  6
Continuous
 62
     7
370
    25
100
AcDbLine
 10
5.15
 20
-133.35
 30
0.0
 11
5.15
 21
-155.575
 31
0.0
  0
LINE
  5
213
330
1F
100
AcDbEntity
  8
0
  6
Continuous
 62
     7
370
    25
100
AcDbLine
 10
0.0
 20
-133.35
 30
0.0
 11
5.15
 21
-133.35
 31
0.0
  0
LINE
  5
214
330
1F
100
AcDbEntity
  8
0
  6
Continuous
 62
     7
370
    25
100
AcDbLine
 10
0.0
 20
-111.125
 30
0.0
 11
0.0
 21
-133.35
 31
0.0
  0
LINE
  5
215
330
1F
100
AcDbEntity
  8
0
  6
Continuous
 62
     7
370
    25
100
AcDbLine
 10
0.0
 20
-111.125
 30
0.0
 11
5.15
 21
-111.125
 31
0.0
  0
LINE
  5
216
330
1F
100
AcDbEntity
  8
0
  6
Continuous
 62
     7
370
    25
100
AcDbLine
 10
5.15
 20
-88.9
 30
0.0
 11
5.15
 21
-111.125
 31
0.0
  0
LINE
  5
217
330
1F
100
AcDbEntity
  8
0
  6
Continuous
 62
     7
370
    25
100
AcDbLine
 10
0.0
 20
-88.9
 30
0.0
 11
5.15
 21
-88.9
 31
0.0
  0
LINE
  5
218
330
1F
100
AcDbEntity
  8
0
  6
Continuous
 62
     7
370
    25
100
AcDbLine
 10
0.0
 20
-66.675
 30
0.0
 11
0.0
 21
-88.9
 31
0.0
  0
LINE
  5
219
330
1F
100
AcDbEntity
  8
0
  6
Continuous
 62
     7
370
    25
100
AcDbLine
 10
0.0
 20
-66.675
 30
0.0
 11
5.15
 21
-66.675
 31
0.0
  0
LINE
  5
21A
330
1F
100
AcDbEntity
  8
0
  6
Continuous
 62
     7
370
    25
100
AcDbLine
 10
5.15
 20
-44.45
 30
0.0
 11
5.15
 21
-66.675
 31
0.0
  0
LINE
  5
21B
330
1F
100
AcDbEntity
  8
0
  6
Continuous
 62
     7
370
    25
100
AcDbLine
 10
0.0
 20
-44.45
 30
0.0
 11
5.15
 21
-44.45
 31
0.0
  0
LINE
  5
21C
330
1F
100
AcDbEntity
  8
0
  6
Continuous
 62
     7
370
    25
100
AcDbLine
 10
0.0
 20
-22.225
 30
0.0
 11
0.0
 21
-44.45
 31
0.0
  0
LINE
  5
21D
330
1F
100
AcDbEntity
  8
0
  6
Continuous
 62
     7
370
    25
100
AcDbLine
 10
5.15
 20
-22.225
 30
0.0
 11
0.0
 21
-22.225
 31
0.0
  0
LINE
  5
21E
330
1F
100
AcDbEntity
  8
0
  6
Continuous
 62
     7
370
    25
100
AcDbLine
 10
5.15
 20
-5.15
 30
0.0
 11
5.15
 21
-22.225
 31
0.0
  0
LINE
  5
21F
330
1F
100
AcDbEntity
  8
0
  6
Continuous
 62
     7
370
    25
100
AcDbLine
 10
5.15
 20
-5.15
 30
0.0
 11
22.225
 21
-5.15
 31
0.0
  0
LINE
  5
220
330
1F
100
AcDbEntity
  8
0
  6
Continuous
 62
     7
370
    25
100
AcDbLine
 10
22.225
 20
0.0
 30
0.0
 11
22.225
 21
-5.15
 31
0.0
  0
LINE
  5
221
330
1F
100
AcDbEntity
  8
0
  6
Continuous
 62
     7
370
    25
100
AcDbLine
 10
44.45
 20
0.0
 30
0.0
 11
22.225
 21
0.0
 31
0.0
  0
LINE
  5
222
330
1F
100
AcDbEntity
  8
0
  6
Continuous
 62
     7
370
    25
100
AcDbLine
 10
44.45
 20
0.0
 30
0.0
 11
44.45
 21
-5.15
 31
0.0
  0
LINE
  5
223
330
1F
100
AcDbEntity
  8
0
  6
Continuous
 62
     7
370
    25
100
AcDbLine
 10
44.45
 20
-5.15
 30
0.0
 11
66.675
 21
-5.15
 31
0.0
  0
LINE
  5
224
330
1F
100
AcDbEntity
  8
0
  6
Continuous
 62
     7
370
    25
100
AcDbLine
 10
66.675
 20
0.0
 30
0.0
 11
66.675
 21
-5.15
 31
0.0
  0
LINE
  5
225
330
1F
100
AcDbEntity
  8
0
  6
Continuous
 62
     7
370
    25
100
AcDbLine
 10
88.9
 20
0.0
 30
0.0
 11
66.675
 21
0.0
 31
0.0
  0
LINE
  5
226
330
1F
100
AcDbEntity
  8
0
  6
Continuous
 62
     7
370
    25
100
AcDbLine
 10
88.9
 20
0.0
 30
0.0
 11
88.9
 21
-5.15
 31
0.0
  0
LINE
  5
227
330
1F
100
AcDbEntity
  8
0
  6
Continuous
 62
     7
370
    25
100
AcDbLine
 10
88.9
 20
-5.15
 30
0.0
 11
111.125
 21
-5.15
 31
0.0
  0
LINE
  5
228
330
1F
100
AcDbEntity
  8
0
  6
Continuous
 62
     7
370
    25
100
AcDbLine
 10
111.125
 20
0.0
 30
0.0
 11
111.125
 21
-5.15
 31
0.0
  0
LINE
  5
229
330
1F
100
AcDbEntity
  8
0
  6
Continuous
 62
     7
370
    25
100
AcDbLine
 10
133.35
 20
0.0
 30
0.0
 11
111.125
 21
0.0
 31
0.0
  0
LINE
  5
22A
330
1F
100
AcDbEntity
  8
0
  6
Continuous
 62
     7
370
    25
100
AcDbLine
 10
133.35
 20
0.0
 30
0.0
 11
133.35
 21
-5.15
 31
0.0
  0
LINE
  5
22B
330
1F
100
AcDbEntity
  8
0
  6
Continuous
 62
     7
370
    25
100
AcDbLine
 10
133.35
 20
-5.15
 30
0.0
 11
155.575
 21
-5.15
 31
0.0
  0
LINE
  5
22C
330
1F
100
AcDbEntity
  8
0
  6
Continuous
 62
     7
370
    25
100
AcDbLine
 10
155.575
 20
0.0
 30
0.0
 11
155.575
 21
-5.15
 31
0.0
  0
LINE
  5
22D
330
1F
100
AcDbEntity
  8
0
  6
Continuous
 62
     7
370
    25
100
AcDbLine
 10
177.8
 20
0.0
 30
0.0
 11
155.575
 21
0.0
 31
0.0
  0
LINE
  5
22E
330
1F
100
AcDbEntity
  8
0
  6
Continuous
 62
     7
370
    25
100
AcDbLine
 10
177.8
 20
0.0
 30
0.0
 11
177.8
 21
-5.15
 31
0.0
  0
LINE
  5
22F
330
1F
100
AcDbEntity
  8
0
  6
Continuous
 62
     7
370
    25
100
AcDbLine
 10
177.8
 20
-5.15
 30
0.0
 11
200.025
 21
-5.15
 31
0.0
  0
LINE
  5
230
330
1F
100
AcDbEntity
  8
0
  6
Continuous
 62
     7
370
    25
100
AcDbLine
 10
200.025
 20
0.0
 30
0.0
 11
200.025
 21
-5.15
 31
0.0
  0
LINE
  5
231
330
1F
100
AcDbEntity
  8
0
  6
Continuous
 62
     7
370
    25
100
AcDbLine
 10
222.25
 20
0.0
 30
0.0
 11
200.025
 21
0.0
 31
0.0
  0
LINE
  5
232
330
1F
100
AcDbEntity
  8
0
  6
Continuous
 62
     7
370
    25
100
AcDbLine
 10
222.25
 20
-9.65
 30
0.0
 11
222.25
 21
0.0
 31
0.0
  0
LINE
  5
233
330
1F
100
AcDbEntity
  8
0
  6
Continuous
 62
     7
370
    25
100
AcDbLine
 10
227.25
 20
-9.65
 30
0.0
 11
222.25
 21
-9.65
 31
0.0
  0
LINE
  5
234
330
1F
100
AcDbEntity
  8
0
  6
Continuous
 62
     7
370
    25
100
AcDbLine
 10
227.25
 20
-6.15
 30
0.0
 11
227.25
 21
-9.65
 31
0.0
  0
LINE
  5
235
330
1F
100
AcDbEntity
  8
0
  6
Continuous
 62
     7
370
    25
100
AcDbLine
 10
230.25
 20
-6.15
 30
0.0
 11
227.25
 21
-6.15
 31
0.0
  0
LINE
  5
236
330
1F
100
AcDbEntity
  8
0
  6
Continuous
 62
     7
370
    25
100
AcDbLine
 10
230.25
 20
-9.65
 30
0.0
 11
230.25
 21
-6.15
 31
0.0
  0
LINE
  5
237
330
1F
100
AcDbEntity
  8
0
  6
Continuous
 62
     7
370
    25
100
AcDbLine
 10
233.75
 20
-9.65
 30
0.0
 11
230.25
 21
-9.65
 31
0.0
  0
LINE
  5
238
330
1F
100
AcDbEntity
  8
0
  6
Continuous
 62
     7
370
    25
100
AcDbLine
 10
233.75
 20
-12.65
 30
0.0
 11
233.75
 21
-9.65
 31
0.0
  0
LINE
  5
239
330
1F
100
AcDbEntity
  8
0
  6
Continuous
 62
     7
370
    25
100
AcDbLine
 10
230.25
 20
-12.65
 30
0.0
 11
233.75
 21
-12.65
 31
0.0
  0
LINE
  5
23A
330
1F
100
AcDbEntity
  8
0
  6
Continuous
 62
     7
370
    25
100
AcDbLine
 10
230.25
 20
-16.15
 30
0.0
 11
230.25
 21
-12.65
 31
0.0
  0
LINE
  5
23B
330
1F
100
AcDbEntity
  8
0
  6
Continuous
 62
     7
370
    25
100
AcDbLine
 10
227.25
 20
-16.15
 30
0.0
 11
230.25
 21
-16.15
 31
0.0
  0
LINE
  5
23C
330
1F
100
AcDbEntity
  8
0
  6
Continuous
 62
     7
370
    25
100
AcDbLine
 10
227.25
 20
-12.65
 30
0.0
 11
227.25
 21
-16.15
 31
0.0
  0
LINE
  5
23D
330
1F
100
AcDbEntity
  8
0
  6
Continuous
 62
     7
370
    25
100
AcDbLine
 10
222.25
 20
-12.65
 30
0.0
 11
227.25
 21
-12.65
 31
0.0
  0
LINE
  5
23E
330
1F
100
AcDbEntity
  8
0
  6
Continuous
 62
     7
370
    25
100
AcDbLine
 10
222.25
 20
-32.54375
 30
0.0
 11
222.25
 21
-12.65
 31
0.0
  0
LINE
  5
23F
330
1F
100
AcDbEntity
  8
0
  6
Continuous
 62
     7
370
    25
100
AcDbLine
 10
222.25
 20
-32.54375
 30
0.0
 11
32.54375
 21
-32.54375
 31
0.0
  0
LINE
  5
240
330
1F
100
AcDbEntity
  8
0
  6
Continuous
 62
     7
370
    25
100
AcDbLine
 10
32.54375
 20
-32.54375
 30
0.0
 11
32.54375
 21
-222.25
 31
0.0
  0
LINE
  5
241
330
1F
100
AcDbEntity
  8
0
  6
Continuous
 62
     7
370
    25
100
AcDbLine
 10
12.65
 20
-222.25
 30
0.0
 11
32.54375
 21
-222.25
 31
0.0
  0
LINE
  5
242
330
1F
100
AcDbEntity
  8
0
  6
Continuous
 62
     7
370
    25
100
AcDbLine
 10
12.65
 20
-222.25
 30
0.0
 11
12.65
 21
-217.25
 31
0.0
  0
LINE
  5
243
330
1F
100
AcDbEntity
  8
0
  6
Continuous
 62
     7
370
    25
100
AcDbLine
 10
12.65
 20
-217.25
 30
0.0
 11
16.15
 21
-217.25
 31
0.0
  0
LINE
  5
244
330
1F
100
AcDbEntity
  8
0
  6
Continuous
 62
     7
370
    25
100
AcDbLine
 10
16.15
 20
-217.25
 30
0.0
 11
16.15
 21
-214.25
 31
0.0
  0
LINE
  5
245
330
1F
100
AcDbEntity
  8
0
  6
Continuous
 62
     7
370
    25
100
AcDbLine
 10
16.15
 20
-214.25
 30
0.0
 11
12.65
 21
-214.25
 31
0.0
  0
LINE
  5
246
330
1F
100
AcDbEntity
  8
0
  6
Continuous
 62
     7
370
    25
100
AcDbLine
 10
12.65
 20
-214.25
 30
0.0
 11
12.65
 21
-210.75
 31
0.0
  0
LINE
  5
247
330
1F
100
AcDbEntity
  8
0
  6
Continuous
 62
     7
370
    25
100
AcDbLine
 10
12.65
 20
-210.75
 30
0.0
 11
9.65
 21
-210.75
 31
0.0
  0
LINE
  5
248
330
1F
100
AcDbEntity
  8
0
  6
Continuous
 62
     7
370
    25
100
AcDbLine
 10
9.65
 20
-210.75
 30
0.0
 11
9.65
 21
-214.25
 31
0.0
  0
LINE
  5
249
330
1F
100
AcDbEntity
  8
0
  6
Continuous
 62
     7
370
    25
100
AcDbLine
 10
9.65
 20
-214.25
 30
0.0
 11
6.15
 21
-214.25
 31
0.0
  0
LINE
  5
24A
330
1F
100
AcDbEntity
  8
0
  6
Continuous
 62
     7
370
    25
100
AcDbLine
 10
6.15
 20
-214.25
 30
0.0
 11
6.15
 21
-217.25
 31
0.0
  0
LINE
  5
24B
330
1F
100
AcDbEntity
  8
0
  6
Continuous
 62
     7
370
    25
100
AcDbLine
 10
6.15
 20
-217.25
 30
0.0
 11
9.65
 21
-217.25
 31
0.0
  0
LINE
  5
24C
330
1F
100
AcDbEntity
  8
0
  6
Continuous
 62
     7
370
    25
100
AcDbLine
 10
9.65
 20
-217.25
 30
0.0
 11
9.65
 21
-222.25
 31
0.0
  0
LINE
  5
24D
330
1F
100
AcDbEntity
  8
0
  6
Continuous
 62
     7
370
    25
100
AcDbLine
 10
0.0
 20
-222.25
 30
0.0
 11
9.65
 21
-222.25
 31
0.0
  0
LINE
  5
24E
330
1F
100
AcDbEntity
  8
0
  6
Continuous
 62
     7
370
    25
100
AcDbLine
 10
49.5404513889
 20
-14.8215277778
 30
0.0
 11
49.5404513889
 21
-14.54375
 31
0.0
  0
LINE
  5
24F
330
1F
100
AcDbEntity
  8
0
  6
Continuous
 62
     7
370
    25
100
AcDbLine
 10
48.3946180556
 20
-21.5033854167
 30
0.0
 11
50.2934895833
 21
-17.1826388889
 31
0.0
  0
LINE
  5
250
330
1F
100
AcDbEntity
  8
0
  6
Continuous
 62
     7
370
    25
100
AcDbLine
 10
46.2743923611
 20
-16.6140625
 30
0.0
 11
48.3946180556
 21
-21.5033854167
 31
0.0
  0
LINE
  5
251
330
1F
100
AcDbEntity
  8
0
  6
Continuous
 62
     7
370
    25
100
AcDbLine
 10
47.0100694444
 20
-14.8215277778
 30
0.0
 11
46.8494791667
 21
-14.8215277778
 31
0.0
  0
LINE
  5
252
330
1F
100
AcDbEntity
  8
0
  6
Continuous
 62
     7
370
    25
100
AcDbLine
 10
47.0100694444
 20
-14.54375
 30
0.0
 11
47.0100694444
 21
-14.8215277778
 31
0.0
  0
LINE
  5
253
330
1F
100
AcDbEntity
  8
0
  6
Continuous
 62
     7
370
    25
100
AcDbLine
 10
42.3225694444
 20
-14.54375
 30
0.0
 11
47.0100694444
 21
-14.54375
 31
0.0
  0
LINE
  5
254
330
1F
100
AcDbEntity
  8
0
  6
Continuous
 62
     7
370
    25
100
AcDbLine
 10
42.3225694444
 20
-14.8215277778
 30
0.0
 11
42.3225694444
 21
-14.54375
 31
0.0
  0
LINE
  5
255
330
1F
100
AcDbEntity
  8
0
  6
Continuous
 62
     7
370
    25
100
AcDbLine
 10
47.3638020833
 20
-24.6826388889
 30
0.0
 11
43.9328125
 21
-16.7616319444
 31
0.0
  0
LINE
  5
256
330
1F
100
AcDbEntity
  8
0
  6
Continuous
 62
     7
370
    25
100
AcDbLine
 10
47.7435763889
 20
-24.6826388889
 30
0.0
 11
47.3638020833
 21
-24.6826388889
 31
0.0
  0
LINE
  5
257
330
1F
100
AcDbEntity
  8
0
  6
Continuous
 62
     7
370
    25
100
AcDbLine
 10
51.0443576389
 20
-17.1674479167
 30
0.0
 11
47.7435763889
 21
-24.6826388889
 31
0.0
  0
LINE
  5
258
330
1F
100
AcDbEntity
  8
0
  6
Continuous
 62
     7
370
    25
100
AcDbLine
 10
52.9258680556
 20
-14.54375
 30
0.0
 11
52.9258680556
 21
-14.8215277778
 31
0.0
  0
LINE
  5
259
330
1F
100
AcDbEntity
  8
0
  6
Continuous
 62
     7
370
    25
100
AcDbLine
 10
49.5404513889
 20
-14.54375
 30
0.0
 11
52.9258680556
 21
-14.54375
 31
0.0
  0
LINE
  5
25A
330
1F
100
AcDbEntity
  8
0
  6
Continuous
 62
     7
370
    25
100
AcDbLine
 10
22.18046875
 20
-146.6657118056
 30
0.0
 11
23.0376736111
 21
-146.6657118056
 31
0.0
  0
LINE
  5
25B
330
1F
100
AcDbEntity
  8
0
  6
Continuous
 62
     7
370
    25
100
AcDbLine
 10
17.8770833333
 20
-146.3879340278
 30
0.0
 11
17.8770833333
 21
-146.6657118056
 31
0.0
  0
LINE
  5
25C
330
1F
100
AcDbEntity
  8
0
  6
Continuous
 62
     7
370
    25
100
AcDbLine
 10
14.4048611111
 20
-146.3879340278
 30
0.0
 11
17.8770833333
 21
-146.3879340278
 31
0.0
  0
LINE
  5
25D
330
1F
100
AcDbEntity
  8
0
  6
Continuous
 62
     7
370
    25
100
AcDbLine
 10
14.4048611111
 20
-146.6657118056
 30
0.0
 11
14.4048611111
 21
-146.3879340278
 31
0.0
  0
LINE
  5
25E
330
1F
100
AcDbEntity
  8
0
  6
Continuous
 62
     7
370
    25
100
AcDbLine
 10
24.2659722222
 20
-55.6971354167
 30
0.0
 11
24.2659722222
 21
-55.4996527778
 31
0.0
  0
LINE
  5
25F
330
1F
100
AcDbEntity
  8
0
  6
Continuous
 62
     7
370
    25
100
AcDbLine
 10
24.54375
 20
-55.6971354167
 30
0.0
 11
24.2659722222
 21
-55.6971354167
 31
0.0
  0
LINE
  5
260
330
1F
100
AcDbEntity
  8
0
  6
Continuous
 62
     7
370
    25
100
AcDbLine
 10
24.54375
 20
-50.9857638889
 30
0.0
 11
24.54375
 21
-55.6971354167
 31
0.0
  0
LINE
  5
261
330
1F
100
AcDbEntity
  8
0
  6
Continuous
 62
     7
370
    25
100
AcDbLine
 10
24.2659722222
 20
-50.9857638889
 30
0.0
 11
24.54375
 21
-50.9857638889
 31
0.0
  0
LINE
  5
262
330
1F
100
AcDbEntity
  8
0
  6
Continuous
 62
     7
370
    25
100
AcDbLine
 10
14.4048611111
 20
-56.1289930556
 30
0.0
 11
22.5862847222
 21
-52.5309027778
 31
0.0
  0
LINE
  5
263
330
1F
100
AcDbEntity
  8
0
  6
Continuous
 62
     7
370
    25
100
AcDbLine
 10
14.4048611111
 20
-56.2700520833
 30
0.0
 11
14.4048611111
 21
-56.1289930556
 31
0.0
  0
LINE
  5
264
330
1F
100
AcDbEntity
  8
0
  6
Continuous
 62
     7
370
    25
100
AcDbLine
 10
22.3714409722
 20
-59.8138888889
 30
0.0
 11
14.4048611111
 21
-56.2700520833
 31
0.0
  0
LINE
  5
265
330
1F
100
AcDbEntity
  8
0
  6
Continuous
 62
     7
370
    25
100
AcDbLine
 10
24.54375
 20
-61.5413194444
 30
0.0
 11
24.2659722222
 21
-61.5413194444
 31
0.0
  0
LINE
  5
266
330
1F
100
AcDbEntity
  8
0
  6
Continuous
 62
     7
370
    25
100
AcDbLine
 10
24.54375
 20
-58.1363715278
 30
0.0
 11
24.54375
 21
-61.5413194444
 31
0.0
  0
LINE
  5
267
330
1F
100
AcDbEntity
  8
0
  6
Continuous
 62
     7
370
    25
100
AcDbLine
 10
24.2659722222
 20
-58.1363715278
 30
0.0
 11
24.54375
 21
-58.1363715278
 31
0.0
  0
LINE
  5
268
330
1F
100
AcDbEntity
  8
0
  6
Continuous
 62
     7
370
    25
100
AcDbLine
 10
21.7659722222
 20
-58.8004340278
 30
0.0
 11
22.7642361111
 21
-59.2431423611
 31
0.0
  0
LINE
  5
269
330
1F
100
AcDbEntity
  8
0
  6
Continuous
 62
     7
370
    25
100
AcDbLine
 10
21.7659722222
 20
-55.3065104167
 30
0.0
 11
21.7659722222
 21
-58.8004340278
 31
0.0
  0
LINE
  5
26A
330
1F
100
AcDbEntity
  8
0
  6
Continuous
 62
     7
370
    25
100
AcDbLine
 10
22.9356770833
 20
-54.7900173611
 30
0.0
 11
21.7659722222
 21
-55.3065104167
 31
0.0
  0
LINE
  5
26B
330
1F
100
AcDbEntity
  8
0
  6
Continuous
 62
     7
370
    25
100
AcDbLine
 10
157.7768229167
 20
-16.2104166667
 30
0.0
 11
157.7768229167
 21
-22.8770833333
 31
0.0
  0
LINE
  5
26C
330
1F
100
AcDbEntity
  8
0
  6
Continuous
 62
     7
370
    25
100
AcDbLine
 10
159.1657118056
 20
-14.8215277778
 30
0.0
 11
158.8401909722
 21
-14.8215277778
 31
0.0
  0
LINE
  5
26D
330
1F
100
AcDbEntity
  8
0
  6
Continuous
 62
     7
370
    25
100
AcDbLine
 10
159.1657118056
 20
-14.54375
 30
0.0
 11
159.1657118056
 21
-14.8215277778
 31
0.0
  0
LINE
  5
26E
330
1F
100
AcDbEntity
  8
0
  6
Continuous
 62
     7
370
    25
100
AcDbLine
 10
154.0268229167
 20
-14.54375
 30
0.0
 11
159.1657118056
 21
-14.54375
 31
0.0
  0
LINE
  5
26F
330
1F
100
AcDbEntity
  8
0
  6
Continuous
 62
     7
370
    25
100
AcDbLine
 10
154.0268229167
 20
-14.8215277778
 30
0.0
 11
154.0268229167
 21
-14.54375
 31
0.0
  0
LINE
  5
270
330
1F
100
AcDbEntity
  8
0
  6
Continuous
 62
     7
370
    25
100
AcDbLine
 10
154.3545138889
 20
-14.8215277778
 30
0.0
 11
154.0268229167
 21
-14.8215277778
 31
0.0
  0
LINE
  5
271
330
1F
100
AcDbEntity
  8
0
  6
Continuous
 62
     7
370
    25
100
AcDbLine
 10
155.4157118056
 20
-22.8770833333
 30
0.0
 11
155.4157118056
 21
-16.2104166667
 31
0.0
  0
LINE
  5
272
330
1F
100
AcDbEntity
  8
0
  6
Continuous
 62
     7
370
    25
100
AcDbLine
 10
154.0268229167
 20
-24.2659722222
 30
0.0
 11
154.3545138889
 21
-24.2659722222
 31
0.0
  0
LINE
  5
273
330
1F
100
AcDbEntity
  8
0
  6
Continuous
 62
     7
370
    25
100
AcDbLine
 10
154.0268229167
 20
-24.54375
 30
0.0
 11
154.0268229167
 21
-24.2659722222
 31
0.0
  0
LINE
  5
274
330
1F
100
AcDbEntity
  8
0
  6
Continuous
 62
     7
370
    25
100
AcDbLine
 10
159.1657118056
 20
-24.54375
 30
0.0
 11
154.0268229167
 21
-24.54375
 31
0.0
  0
LINE
  5
275
330
1F
100
AcDbEntity
  8
0
  6
Continuous
 62
     7
370
    25
100
AcDbLine
 10
159.1657118056
 20
-24.2659722222
 30
0.0
 11
159.1657118056
 21
-24.54375
 31
0.0
  0
LINE
  5
276
330
1F
100
AcDbEntity
  8
0
  6
Continuous
 62
     7
370
    25
100
AcDbLine
 10
158.8401909722
 20
-24.2659722222
 30
0.0
 11
159.1657118056
 21
-24.2659722222
 31
0.0
  0
LINE
  5
277
330
1F
100
AcDbEntity
  8
0
  6
Continuous
 62
     7
370
    25
100
AcDbLine
 10
113.2669270833
 20
-16.2104166667
 30
0.0
 11
113.2669270833
 21
-22.8770833333
 31
0.0
  0
LINE
  5
278
330
1F
100
AcDbEntity
  8
0
  6
Continuous
 62
     7
370
    25
100
AcDbLine
 10
114.6558159722
 20
-14.8215277778
 30
0.0
 11
114.3302951389
 21
-14.8215277778
 31
0.0
  0
LINE
  5
279
330
1F
100
AcDbEntity
  8
0
  6
Continuous
 62
     7
370
    25
100
AcDbLine
 10
114.6558159722
 20
-14.54375
 30
0.0
 11
114.6558159722
 21
-14.8215277778
 31
0.0
  0
LINE
  5
27A
330
1F
100
AcDbEntity
  8
0
  6
Continuous
 62
     7
370
    25
100
AcDbLine
 10
109.5169270833
 20
-14.54375
 30
0.0
 11
114.6558159722
 21
-14.54375
 31
0.0
  0
LINE
  5
27B
330
1F
100
AcDbEntity
  8
0
  6
Continuous
 62
     7
370
    25
100
AcDbLine
 10
109.5169270833
 20
-14.8215277778
 30
0.0
 11
109.5169270833
 21
-14.54375
 31
0.0
  0
LINE
  5
27C
330
1F
100
AcDbEntity
  8
0
  6
Continuous
 62
     7
370
    25
100
AcDbLine
 10
109.8446180556
 20
-14.8215277778
 30
0.0
 11
109.5169270833
 21
-14.8215277778
 31
0.0
  0
LINE
  5
27D
330
1F
100
AcDbEntity
  8
0
  6
Continuous
 62
     7
370
    25
100
AcDbLine
 10
110.9058159722
 20
-22.8770833333
 30
0.0
 11
110.9058159722
 21
-16.2104166667
 31
0.0
  0
LINE
  5
27E
330
1F
100
AcDbEntity
  8
0
  6
Continuous
 62
     7
370
    25
100
AcDbLine
 10
109.5169270833
 20
-24.2659722222
 30
0.0
 11
109.8446180556
 21
-24.2659722222
 31
0.0
  0
LINE
  5
27F
330
1F
100
AcDbEntity
  8
0
  6
Continuous
 62
     7
370
    25
100
AcDbLine
 10
109.5169270833
 20
-24.54375
 30
0.0
 11
109.5169270833
 21
-24.2659722222
 31
0.0
  0
LINE
  5
280
330
1F
100
AcDbEntity
  8
0
  6
Continuous
 62
     7
370
    25
100
AcDbLine
 10
114.6558159722
 20
-24.54375
 30
0.0
 11
109.5169270833
 21
-24.54375
 31
0.0
  0
LINE
  5
281
330
1F
100
AcDbEntity
  8
0
  6
Continuous
 62
     7
370
    25
100
AcDbLine
 10
114.6558159722
 20
-24.2659722222
 30
0.0
 11
114.6558159722
 21
-24.54375
 31
0.0
  0
LINE
  5
282
330
1F
100
AcDbEntity
  8
0
  6
Continuous
 62
     7
370
    25
100
AcDbLine
 10
114.3302951389
 20
-24.2659722222
 30
0.0
 11
114.6558159722
 21
-24.2659722222
 31
0.0
  0
LINE
  5
283
330
1F
100
AcDbEntity
  8
0
  6
Continuous
 62
     7
370
    25
100
AcDbLine
 10
99.8836805556
 20
-14.8215277778
 30
0.0
 11
99.8836805556
 21
-14.54375
 31
0.0
  0
LINE
  5
284
330
1F
100
AcDbEntity
  8
0
  6
Continuous
 62
     7
370
    25
100
AcDbLine
 10
98.7378472222
 20
-21.5033854167
 30
0.0
 11
100.63671875
 21
-17.1826388889
 31
0.0
  0
LINE
  5
285
330
1F
100
AcDbEntity
  8
0
  6
Continuous
 62
     7
370
    25
100
AcDbLine
 10
96.6176215278
 20
-16.6140625
 30
0.0
 11
98.7378472222
 21
-21.5033854167
 31
0.0
  0
LINE
  5
286
330
1F
100
AcDbEntity
  8
0
  6
Continuous
 62
     7
370
    25
100
AcDbLine
 10
97.3532986111
 20
-14.8215277778
 30
0.0
 11
97.1927083333
 21
-14.8215277778
 31
0.0
  0
LINE
  5
287
330
1F
100
AcDbEntity
  8
0
  6
Continuous
 62
     7
370
    25
100
AcDbLine
 10
97.3532986111
 20
-14.54375
 30
0.0
 11
97.3532986111
 21
-14.8215277778
 31
0.0
  0
LINE
  5
288
330
1F
100
AcDbEntity
  8
0
  6
Continuous
 62
     7
370
    25
100
AcDbLine
 10
92.6657986111
 20
-14.54375
 30
0.0
 11
97.3532986111
 21
-14.54375
 31
0.0
  0
LINE
  5
289
330
1F
100
AcDbEntity
  8
0
  6
Continuous
 62
     7
370
    25
100
AcDbLine
 10
92.6657986111
 20
-14.8215277778
 30
0.0
 11
92.6657986111
 21
-14.54375
 31
0.0
  0
LINE
  5
28A
330
1F
100
AcDbEntity
  8
0
  6
Continuous
 62
     7
370
    25
100
AcDbLine
 10
97.70703125
 20
-24.6826388889
 30
0.0
 11
94.2760416667
 21
-16.7616319444
 31
0.0
  0
LINE
  5
28B
330
1F
100
AcDbEntity
  8
0
  6
Continuous
 62
     7
370
    25
100
AcDbLine
 10
98.0868055556
 20
-24.6826388889
 30
0.0
 11
97.70703125
 21
-24.6826388889
 31
0.0
  0
LINE
  5
28C
330
1F
100
AcDbEntity
  8
0
  6
Continuous
 62
     7
370
    25
100
AcDbLine
 10
101.3875868056
 20
-17.1674479167
 30
0.0
 11
98.0868055556
 21
-24.6826388889
 31
0.0
  0
LINE
  5
28D
330
1F
100
AcDbEntity
  8
0
  6
Continuous
 62
     7
370
    25
100
AcDbLine
 10
103.2690972222
 20
-14.54375
 30
0.0
 11
103.2690972222
 21
-14.8215277778
 31
0.0
  0
LINE
  5
28E
330
1F
100
AcDbEntity
  8
0
  6
Continuous
 62
     7
370
    25
100
AcDbLine
 10
99.8836805556
 20
-14.54375
 30
0.0
 11
103.2690972222
 21
-14.54375
 31
0.0
  0
LINE
  5
28F
330
1F
100
AcDbEntity
  8
0
  6
Continuous
 62
     7
370
    25
100
AcDbLine
 10
62.9236979167
 20
-16.2104166667
 30
0.0
 11
62.9236979167
 21
-22.8770833333
 31
0.0
  0
LINE
  5
290
330
1F
100
AcDbEntity
  8
0
  6
Continuous
 62
     7
370
    25
100
AcDbLine
 10
64.3125868056
 20
-14.8215277778
 30
0.0
 11
63.9870659722
 21
-14.8215277778
 31
0.0
  0
LINE
  5
291
330
1F
100
AcDbEntity
  8
0
  6
Continuous
 62
     7
370
    25
100
AcDbLine
 10
64.3125868056
 20
-14.54375
 30
0.0
 11
64.3125868056
 21
-14.8215277778
 31
0.0
  0
LINE
  5
292
330
1F
100
AcDbEntity
  8
0
  6
Continuous
 62
     7
370
    25
100
AcDbLine
 10
59.1736979167
 20
-14.54375
 30
0.0
 11
64.3125868056
 21
-14.54375
 31
0.0
  0
LINE
  5
293
330
1F
100
AcDbEntity
  8
0
  6
Continuous
 62
     7
370
    25
100
AcDbLine
 10
59.1736979167
 20
-14.8215277778
 30
0.0
 11
59.1736979167
 21
-14.54375
 31
0.0
  0
LINE
  5
294
330
1F
100
AcDbEntity
  8
0
  6
Continuous
 62
     7
370
    25
100
AcDbLine
 10
59.5013888889
 20
-14.8215277778
 30
0.0
 11
59.1736979167
 21
-14.8215277778
 31
0.0
  0
LINE
  5
295
330
1F
100
AcDbEntity
  8
0
  6
Continuous
 62
     7
370
    25
100
AcDbLine
 10
60.5625868056
 20
-22.8770833333
 30
0.0
 11
60.5625868056
 21
-16.2104166667
 31
0.0
  0
LINE
  5
296
330
1F
100
AcDbEntity
  8
0
  6
Continuous
 62
     7
370
    25
100
AcDbLine
 10
59.1736979167
 20
-24.2659722222
 30
0.0
 11
59.5013888889
 21
-24.2659722222
 31
0.0
  0
LINE
  5
297
330
1F
100
AcDbEntity
  8
0
  6
Continuous
 62
     7
370
    25
100
AcDbLine
 10
59.1736979167
 20
-24.54375
 30
0.0
 11
59.1736979167
 21
-24.2659722222
 31
0.0
  0
LINE
  5
298
330
1F
100
AcDbEntity
  8
0
  6
Continuous
 62
     7
370
    25
100
AcDbLine
 10
64.3125868056
 20
-24.54375
 30
0.0
 11
59.1736979167
 21
-24.54375
 31
0.0
  0
LINE
  5
299
330
1F
100
AcDbEntity
  8
0
  6
Continuous
 62
     7
370
    25
100
AcDbLine
 10
64.3125868056
 20
-24.2659722222
 30
0.0
 11
64.3125868056
 21
-24.54375
 31
0.0
  0
LINE
  5
29A
330
1F
100
AcDbEntity
  8
0
  6
Continuous
 62
     7
370
    25
100
AcDbLine
 10
63.9870659722
 20
-24.2659722222
 30
0.0
 11
64.3125868056
 21
-24.2659722222
 31
0.0
  0
LINE
  5
29B
330
1F
100
AcDbEntity
  8
0
  6
Continuous
 62
     7
370
    25
100
AcDbLine
 10
17.8141493056
 20
-57.0426215278
 30
0.0
 11
21.0715277778
 21
-58.4922743056
 31
0.0
  0
LINE
  5
29C
330
1F
100
AcDbEntity
  8
0
  6
Continuous
 62
     7
370
    25
100
AcDbLine
 10
21.0715277778
 20
-55.6103298611
 30
0.0
 11
17.8141493056
 21
-57.0426215278
 31
0.0
  0
LINE
  5
29D
330
1F
100
AcDbEntity
  8
0
  6
Continuous
 62
     7
370
    25
100
AcDbLine
 10
21.0715277778
 20
-58.4922743056
 30
0.0
 11
21.0715277778
 21
-55.6103298611
 31
0.0
  0
LINE
  5
29E
330
1F
100
AcDbEntity
  8
0
  6
Continuous
 62
     7
370
    25
100
AcDbLine
 10
19.6826388889
 20
-104.7881944444
 30
0.0
 11
23.1982638889
 21
-104.7881944444
 31
0.0
  0
LINE
  5
29F
330
1F
100
AcDbEntity
  8
0
  6
Continuous
 62
     7
370
    25
100
AcDbLine
 10
15.0993055556
 20
-104.7881944444
 30
0.0
 11
19.1270833333
 21
-104.7881944444
 31
0.0
  0
LINE
  5
2A0
330
1F
100
AcDbEntity
  8
0
  6
Continuous
 62
     7
370
    25
100
AcDbLine
 10
15.0993055556
 20
-199.9256076389
 30
0.0
 11
22.903125
 21
-199.9256076389
 31
0.0
  0
MTEXT
  5
2A2
330
1F
100
AcDbEntity
  8
0
  6
Continuous
 62
     7
100
AcDbMText
 10
0.0
 20
-223.2695663917
 30
0.0
 40
4.83362
 41
0.0
 71
     1
 72
     1
  1
SOLIDWORKS Maker Product.
  7
SLDTEXTSTYLE0
 73
     1
 44
1.0
  0
MTEXT
  5
2A3
330
1F
100
AcDbEntity
  8
0
  6
Continuous
 62
     7
100
AcDbMText
 10
0.0
 20
-230.5199963917
 30
0.0
 40
4.83362
 41
0.0
 71
     1
 72
     1
  1
For Personal Use Only.
  7
SLDTEXTSTYLE0
 73
     1
 44
1.0
  0
ENDSEC
  0
SECTION
  2
OBJECTS
  0
DICTIONARY
  5
C
330
0
100
AcDbDictionary
281
     1
  3
ACAD_GROUP
350
D
  3
ACAD_LAYOUT
350
1A
  3
ACAD_MLINESTYLE
350
17
  3
ACAD_PLOTSETTINGS
350
19
  3
ACAD_PLOTSTYLENAME
350
E
  3
ACAD_SCALELIST
350
47
  3
DWGPROPS
350
2A4
  0
DICTIONARY
  5
D
102
{ACAD_REACTORS
330
C
102
}
330
C
100
AcDbDictionary
281
     1
  0
DICTIONARY
  5
1A
102
{ACAD_REACTORS
330
C
102
}
330
C
100
AcDbDictionary
281
     1
  3
Layout1
350
1E
  3
Layout2
350
26
  3
Model
350
22
  0
DICTIONARY
  5
17
102
{ACAD_REACTORS
330
C
102
}
330
C
100
AcDbDictionary
281
     1
  3
Standard
350
18
  0
DICTIONARY
  5
19
102
{ACAD_REACTORS
330
C
102
}
330
C
100
AcDbDictionary
281
     1
  0
ACDBDICTIONARYWDFLT
  5
E
102
{ACAD_REACTORS
330
C
102
}
330
C
100
AcDbDictionary
281
     1
  3
Normal
350
F
100
AcDbDictionaryWithDefault
340
F
  0
DICTIONARY
  5
47
102
{ACAD_REACTORS
330
C
102
}
330
C
100
AcDbDictionary
281
     1
  3
A0
350
48
  3
A1
350
49
  3
A2
350
4A
  3
A3
350
4B
  3
A4
350
4C
  3
A5
350
4D
  3
A6
350
4E
  3
A7
350
4F
  3
A8
350
50
  3
A9
350
51
  3
B0
350
52
  3
B1
350
53
  3
B2
350
54
  3
B3
350
55
  3
B4
350
56
  3
B5
350
57
  3
B6
350
58
  0
XRECORD
  5
2A4
102
{ACAD_REACTORS
330
C
102
}
330
C
100
AcDbXrecord
280
     1
  1
DWGPROPS COOKIE
  2

  3

  4

  6

  7

  8
Caden
  9

300
=
301
=
302
=
303
=
304
=
305
=
306
=
307
=
308
=
309
=
 40
0.0
 41
2460169.980183947
 42
2460169.980214468
  1

 90
        0
  0
LAYOUT
  5
1E
102
{ACAD_REACTORS
330
1A
102
}
330
1A
100
AcDbPlotSettings
  1

  2
none_device
  4

  6

 40
0.0
 41
0.0
 42
0.0
 43
0.0
 44
0.0
 45
0.0
 46
0.0
 47
0.0
 48
0.0
 49
0.0
140
0.0
141
0.0
142
1.0
143
1.0
 70
   688
 72
     1
 73
     0
 74
     5
  7

 75
    16
147
1.0
148
0.0
149
0.0
100
AcDbLayout
  1
Layout1
 70
     1
 71
     1
 10
0.0
 20
0.0
 11
420.0
 21
297.0
 12
0.0
 22
0.0
 32
0.0
 14
1.0000000000E+20
 24
1.0000000000E+20
 34
1.0000000000E+20
 15
-1.0000000000E+20
 25
-1.0000000000E+20
 35
-1.0000000000E+20
146
0.0
 13
0.0
 23
0.0
 33
0.0
 16
1.0
 26
0.0
 36
0.0
 17
0.0
 27
1.0
 37
0.0
 76
     0
330
1B
  0
LAYOUT
  5
26
102
{ACAD_REACTORS
330
1A
102
}
330
1A
100
AcDbPlotSettings
  1

  2
none_device
  4

  6

 40
0.0
 41
0.0
 42
0.0
 43
0.0
 44
0.0
 45
0.0
 46
0.0
 47
0.0
 48
0.0
 49
0.0
140
0.0
141
0.0
142
1.0
143
1.0
 70
   688
 72
     1
 73
     0
 74
     5
  7

 75
    16
147
1.0
148
0.0
149
0.0
100
AcDbLayout
  1
Layout2
 70
     1
 71
     2
 10
0.0
 20
0.0
 11
0.0
 21
0.0
 12
0.0
 22
0.0
 32
0.0
 14
0.0
 24
0.0
 34
0.0
 15
0.0
 25
0.0
 35
0.0
146
0.0
 13
0.0
 23
0.0
 33
0.0
 16
1.0
 26
0.0
 36
0.0
 17
0.0
 27
1.0
 37
0.0
 76
     0
330
23
  0
LAYOUT
  5
22
102
{ACAD_REACTORS
330
1A
102
}
330
1A
100
AcDbPlotSettings
  1

  2
none_device
  4
ANSI_A_(11.00_x_8.50_Inches)
  6

 40
6.35
 41
19.05
 42
6.35000508
 43
19.05000254
 44
279.4
 45
215.9
 46
20.9496403171
 47
195.77049873
 48
0.0
 49
0.0
140
0.0
141
0.0
142
0.0378627672
143
1.0
 70
  1696
 72
     0
 73
     0
 74
     0
  7

 75
     0
147
0.0179189148
148
-1300.4909072572
149
0.0
100
AcDbLayout
  1
Model
 70
     1
 71
     0
 10
0.0
 20
0.0
 11
420.0
 21
297.0
 12
0.0
 22
0.0
 32
0.0
 14
0.0
 24
-222.25
 34
0.0
 15
233.75
 25
0.0
 35
0.0
146
0.0
 13
0.0
 23
0.0
 33
0.0
 16
1.0
 26
0.0
 36
0.0
 17
0.0
 27
1.0
 37
0.0
 76
     0
330
1F
331
29
  0
MLINESTYLE
  5
18
102
{ACAD_REACTORS
330
17
102
}
330
17
100
AcDbMlineStyle
  2
Standard
 70
     0
  3

 62
   256
 51
90.0
 52
90.0
 71
     2
 49
0.5
 62
   256
  6
BYLAYER
 49
-0.5
 62
   256
  6
BYLAYER
  0
ACDBPLACEHOLDER
  5
F
102
{ACAD_REACTORS
330
E
102
}
330
E
  0
SCALE
  5
48
102
{ACAD_REACTORS
330
47
102
}
330
47
100
AcDbScale
 70
     0
300
1:1
140
1.0
141
1.0
290
     1
  0
SCALE
  5
49
102
{ACAD_REACTORS
330
47
102
}
330
47
100
AcDbScale
 70
     0
300
1:2
140
1.0
141
2.0
290
     0
  0
SCALE
  5
4A
102
{ACAD_REACTORS
330
47
102
}
330
47
100
AcDbScale
 70
     0
300
1:4
140
1.0
141
4.0
290
     0
  0
SCALE
  5
4B
102
{ACAD_REACTORS
330
47
102
}
330
47
100
AcDbScale
 70
     0
300
1:5
140
1.0
141
5.0
290
     0
  0
SCALE
  5
4C
102
{ACAD_REACTORS
330
47
102
}
330
47
100
AcDbScale
 70
     0
300
1:8
140
1.0
141
8.0
290
     0
  0
SCALE
  5
4D
102
{ACAD_REACTORS
330
47
102
}
330
47
100
AcDbScale
 70
     0
300
1:10
140
1.0
141
10.0
290
     0
  0
SCALE
  5
4E
102
{ACAD_REACTORS
330
47
102
}
330
47
100
AcDbScale
 70
     0
300
1:16
140
1.0
141
16.0
290
     0
  0
SCALE
  5
4F
102
{ACAD_REACTORS
330
47
102
}
330
47
100
AcDbScale
 70
     0
300
1:20
140
1.0
141
20.0
290
     0
  0
SCALE
  5
50
102
{ACAD_REACTORS
330
47
102
}
330
47
100
AcDbScale
 70
     0
300
1:30
140
1.0
141
30.0
290
     0
  0
SCALE
  5
51
102
{ACAD_REACTORS
330
47
102
}
330
47
100
AcDbScale
 70
     0
300
1:40
140
1.0
141
40.0
290
     0
  0
SCALE
  5
52
102
{ACAD_REACTORS
330
47
102
}
330
47
100
AcDbScale
 70
     0
300
1:50
140
1.0
141
50.0
290
     0
  0
SCALE
  5
53
102
{ACAD_REACTORS
330
47
102
}
330
47
100
AcDbScale
 70
     0
300
1:100
140
1.0
141
100.0
290
     0
  0
SCALE
  5
54
102
{ACAD_REACTORS
330
47
102
}
330
47
100
AcDbScale
 70
     0
300
2:1
140
2.0
141
1.0
290
     0
  0
SCALE
  5
55
102
{ACAD_REACTORS
330
47
102
}
330
47
100
AcDbScale
 70
     0
300
4:1
140
4.0
141
1.0
290
     0
  0
SCALE
  5
56
102
{ACAD_REACTORS
330
47
102
}
330
47
100
AcDbScale
 70
     0
300
8:1
140
8.0
141
1.0
290
     0
  0
SCALE
  5
57
102
{ACAD_REACTORS
330
47
102
}
330
47
100
AcDbScale
 70
     0
300
10:1
140
10.0
141
1.0
290
     0
  0
SCALE
  5
58
102
{ACAD_REACTORS
330
47
102
}
330
47
100
AcDbScale
 70
     0
300
100:1
140
100.0
141
1.0
290
     0
  0
ENDSEC
  0
EOF
