  0
SECTION
  2
HEADER
  9
$ACADVER
  1
AC1015
  9
$ACADMAINTVER
 70
     6
  9
$DWGCODEPAGE
  3
ANSI_1252
  9
$INSBASE
 10
0.0
 20
0.0
 30
0.0
  9
$EXTMIN
 10
0.0
 20
0.0
 30
0.0
  9
$EXTMAX
 10
17.5
 20
2.875
 30
0.0
  9
$LIMMIN
 10
0.0
 20
0.0
  9
$LIMMAX
 10
12.0
 20
9.0
  9
$ORTHOMODE
 70
     0
  9
$REGENMODE
 70
     1
  9
$FILLMODE
 70
     1
  9
$QTEXTMODE
 70
     0
  9
$MIRRTEXT
 70
     1
  9
$LTSCALE
 40
1.0
  9
$ATTMODE
 70
     1
  9
$TEXTSIZE
 40
0.1377952756
  9
$TRACEWID
 40
0.05
  9
$TEXTSTYLE
  7
Standard
  9
$CLAYER
  8
0
  9
$CELTYPE
  6
ByLayer
  9
$CECOLOR
 62
   256
  9
$CELTSCALE
 40
1.0
  9
$DISPSILH
 70
     0
  9
$DIMSCALE
 40
1.0
  9
$DIMASZ
 40
0.13
  9
$DIMEXO
 40
0.0
  9
$DIMDLI
 40
0.38
  9
$DIMRND
 40
0.0
  9
$DIMDLE
 40
0.0
  9
$DIMEXE
 40
0.125
  9
$DIMTP
 40
0.0
  9
$DIMTM
 40
0.0
  9
$DIMTXT
 40
0.1377952756
  9
$DIMCEN
 40
0.09
  9
$DIMTSZ
 40
0.0
  9
$DIMTOL
 70
     0
  9
$DIMLIM
 70
     0
  9
$DIMTIH
 70
     1
  9
$DIMTOH
 70
     1
  9
$DIMSE1
 70
     0
  9
$DIMSE2
 70
     0
  9
$DIMTAD
 70
     1
  9
$DIMZIN
 70
     1
  9
$DIMBLK
  1

  9
$DIMASO
 70
     1
  9
$DIMSHO
 70
     1
  9
$DIMPOST
  1

  9
$DIMAPOST
  1

  9
$DIMALT
 70
     0
  9
$DIMALTD
 70
     2
  9
$DIMALTF
 40
25.4
  9
$DIMLFAC
 40
1.0
  9
$DIMTOFL
 70
     0
  9
$DIMTVP
 40
0.0
  9
$DIMTIX
 70
     0
  9
$DIMSOXD
 70
     0
  9
$DIMSAH
 70
     0
  9
$DIMBLK1
  1

  9
$DIMBLK2
  1

  9
$DIMSTYLE
  2
Standard
  9
$DIMCLRD
 70
     0
  9
$DIMCLRE
 70
     0
  9
$DIMCLRT
 70
     0
  9
$DIMTFAC
 40
1.0
  9
$DIMGAP
 40
0.06
  9
$DIMJUST
 70
     0
  9
$DIMSD1
 70
     0
  9
$DIMSD2
 70
     0
  9
$DIMTOLJ
 70
     1
  9
$DIMTZIN
 70
     1
  9
$DIMALTZ
 70
     0
  9
$DIMALTTZ
 70
     0
  9
$DIMUPT
 70
     0
  9
$DIMDEC
 70
     2
  9
$DIMTDEC
 70
     2
  9
$DIMALTU
 70
     2
  9
$DIMALTTD
 70
     2
  9
$DIMTXSTY
  7
Standard
  9
$DIMAUNIT
 70
     0
  9
$DIMADEC
 70
     2
  9
$DIMALTRND
 40
0.0
  9
$DIMAZIN
 70
     0
  9
$DIMDSEP
 70
    46
  9
$DIMATFIT
 70
     3
  9
$DIMFRAC
 70
     0
  9
$DIMLDRBLK
  1

  9
$DIMLUNIT
 70
     2
  9
$DIMLWD
 70
    -2
  9
$DIMLWE
 70
    -2
  9
$DIMTMOVE
 70
     0
  9
$LUNITS
 70
     2
  9
$LUPREC
 70
     6
  9
$SKETCHINC
 40
0.1
  9
$FILLETRAD
 40
0.0
  9
$AUNITS
 70
     0
  9
$AUPREC
 70
     6
  9
$MENU
  1
.
  9
$ELEVATION
 40
0.0
  9
$PELEVATION
 40
0.0
  9
$THICKNESS
 40
0.0
  9
$LIMCHECK
 70
     0
  9
$CHAMFERA
 40
0.0
  9
$CHAMFERB
 40
0.0
  9
$CHAMFERC
 40
0.0
  9
$CHAMFERD
 40
0.0
  9
$SKPOLY
 70
     0
  9
$TDCREATE
 40
2460158.261970556
  9
$TDUCREATE
 40
2460158.470303889
  9
$TDUPDATE
 40
2460158.261996389
  9
$TDUUPDATE
 40
2460158.470329723
  9
$TDINDWG
 40
0.0000000116
  9
$TDUSRTIMER
 40
0.0000000116
  9
$USRTIMER
 70
     1
  9
$ANGBASE
 50
0.0
  9
$ANGDIR
 70
     0
  9
$PDMODE
 70
     0
  9
$PDSIZE
 40
-1.0
  9
$PLINEWID
 40
0.0
  9
$SPLFRAME
 70
     0
  9
$SPLINETYPE
 70
     6
  9
$SPLINESEGS
 70
     8
  9
$HANDSEED
  5
39A
  9
$SURFTAB1
 70
     6
  9
$SURFTAB2
 70
     6
  9
$SURFTYPE
 70
     6
  9
$SURFU
 70
     6
  9
$SURFV
 70
     6
  9
$UCSBASE
  2

  9
$UCSNAME
  2

  9
$UCSORG
 10
0.0
 20
0.0
 30
0.0
  9
$UCSXDIR
 10
1.0
 20
0.0
 30
0.0
  9
$UCSYDIR
 10
0.0
 20
1.0
 30
0.0
  9
$UCSORTHOREF
  2

  9
$UCSORTHOVIEW
 70
     0
  9
$UCSORGTOP
 10
0.0
 20
0.0
 30
0.0
  9
$UCSORGBOTTOM
 10
0.0
 20
0.0
 30
0.0
  9
$UCSORGLEFT
 10
0.0
 20
0.0
 30
0.0
  9
$UCSORGRIGHT
 10
0.0
 20
0.0
 30
0.0
  9
$UCSORGFRONT
 10
0.0
 20
0.0
 30
0.0
  9
$UCSORGBACK
 10
0.0
 20
0.0
 30
0.0
  9
$PUCSBASE
  2

  9
$PUCSNAME
  2

  9
$PUCSORG
 10
0.0
 20
0.0
 30
0.0
  9
$PUCSXDIR
 10
1.0
 20
0.0
 30
0.0
  9
$PUCSYDIR
 10
0.0
 20
1.0
 30
0.0
  9
$PUCSORTHOREF
  2

  9
$PUCSORTHOVIEW
 70
     0
  9
$PUCSORGTOP
 10
0.0
 20
0.0
 30
0.0
  9
$PUCSORGBOTTOM
 10
0.0
 20
0.0
 30
0.0
  9
$PUCSORGLEFT
 10
0.0
 20
0.0
 30
0.0
  9
$PUCSORGRIGHT
 10
0.0
 20
0.0
 30
0.0
  9
$PUCSORGFRONT
 10
0.0
 20
0.0
 30
0.0
  9
$PUCSORGBACK
 10
0.0
 20
0.0
 30
0.0
  9
$USERI1
 70
     0
  9
$USERI2
 70
     0
  9
$USERI3
 70
     0
  9
$USERI4
 70
     0
  9
$USERI5
 70
     0
  9
$USERR1
 40
0.0
  9
$USERR2
 40
0.0
  9
$USERR3
 40
0.0
  9
$USERR4
 40
0.0
  9
$USERR5
 40
0.0
  9
$WORLDVIEW
 70
     1
  9
$SHADEDGE
 70
     3
  9
$SHADEDIF
 70
    70
  9
$TILEMODE
 70
     1
  9
$MAXACTVP
 70
    64
  9
$PINSBASE
 10
0.0
 20
0.0
 30
0.0
  9
$PLIMCHECK
 70
     0
  9
$PEXTMIN
 10
1.0000000000E+20
 20
1.0000000000E+20
 30
1.0000000000E+20
  9
$PEXTMAX
 10
-1.0000000000E+20
 20
-1.0000000000E+20
 30
-1.0000000000E+20
  9
$PLIMMIN
 10
0.0
 20
0.0
  9
$PLIMMAX
 10
12.0
 20
9.0
  9
$UNITMODE
 70
     0
  9
$VISRETAIN
 70
     1
  9
$PLINEGEN
 70
     0
  9
$PSLTSCALE
 70
     1
  9
$TREEDEPTH
 70
  3020
  9
$CMLSTYLE
  2
Standard
  9
$CMLJUST
 70
     0
  9
$CMLSCALE
 40
1.0
  9
$PROXYGRAPHICS
 70
     1
  9
$MEASUREMENT
 70
     0
  9
$CELWEIGHT
370
    -1
  9
$ENDCAPS
280
     0
  9
$JOINSTYLE
280
     0
  9
$LWDISPLAY
290
     1
  9
$INSUNITS
 70
     1
  9
$HYPERLINKBASE
  1

  9
$STYLESHEET
  1

  9
$XEDIT
290
     1
  9
$CEPSNTYPE
380
     0
  9
$PSTYLEMODE
290
     1
  9
$FINGERPRINTGUID
  2
{077fa176-12e1-4ba2-9d05-d659af3ddd36}
  9
$VERSIONGUID
  2
{FAEB1C32-E019-11D5-929B-00C0DF256EC4}
  9
$EXTNAMES
290
     1
  9
$PSVPSCALE
 40
0.0
  9
$OLESTARTUP
290
     0
  0
ENDSEC
  0
SECTION
  2
CLASSES
  0
CLASS
  1
ACDBDICTIONARYWDFLT
  2
AcDbDictionaryWithDefault
  3
ObjectDBX Classes
 90
        0
280
     0
281
     0
  0
CLASS
  1
VISUALSTYLE
  2
AcDbVisualStyle
  3
ObjectDBX Classes
 90
     4095
280
     0
281
     0
  0
CLASS
  1
MATERIAL
  2
AcDbMaterial
  3
ObjectDBX Classes
 90
     1153
280
     0
281
     0
  0
CLASS
  1
SCALE
  2
AcDbScale
  3
ObjectDBX Classes
 90
     1153
280
     0
281
     0
  0
CLASS
  1
TABLESTYLE
  2
AcDbTableStyle
  3
ObjectDBX Classes
 90
     4095
280
     0
281
     0
  0
CLASS
  1
MLEADERSTYLE
  2
AcDbMLeaderStyle
  3
ACDB_MLEADERSTYLE_CLASS
 90
     4095
280
     0
281
     0
  0
CLASS
  1
SUN
  2
AcDbSun
  3
SCENEOE
 90
     1153
280
     0
281
     0
  0
CLASS
  1
ACDBPLACEHOLDER
  2
AcDbPlaceHolder
  3
ObjectDBX Classes
 90
        0
280
     0
281
     0
  0
CLASS
  1
LAYOUT
  2
AcDbLayout
  3
ObjectDBX Classes
 90
        0
280
     0
281
     0
  0
ENDSEC
  0
SECTION
  2
TABLES
  0
TABLE
  2
VPORT
  5
8
330
0
100
AcDbSymbolTable
 70
     1
  0
VPORT
  5
29
330
8
100
AcDbSymbolTableRecord
100
AcDbViewportTableRecord
  2
*Active
 70
     0
 10
0.0
 20
0.0
 11
1.0
 21
1.0
 12
8.75
 22
1.4375
 13
0.0
 23
0.0
 14
0.5
 24
0.5
 15
0.5
 25
0.5
 16
0.0
 26
0.0
 36
1.0
 17
0.0
 27
0.0
 37
0.0
 40
2.9325
 41
6.0869565217
 42
50.0
 43
0.0
 44
0.0
 50
0.0
 51
0.0
 71
     0
 72
   100
 73
     1
 74
     3
 75
     0
 76
     0
 77
     0
 78
     0
281
     0
 65
     1
110
0.0
120
0.0
130
0.0
111
1.0
121
0.0
131
0.0
112
0.0
122
1.0
132
0.0
 79
     0
146
0.0
  0
ENDTAB
  0
TABLE
  2
LTYPE
  5
5
330
0
100
AcDbSymbolTable
 70
     6
  0
LTYPE
  5
14
330
5
100
AcDbSymbolTableRecord
100
AcDbLinetypeTableRecord
  2
ByBlock
 70
     0
  3

 72
    65
 73
     0
 40
0.0
  0
LTYPE
  5
15
330
5
100
AcDbSymbolTableRecord
100
AcDbLinetypeTableRecord
  2
ByLayer
 70
     0
  3

 72
    65
 73
     0
 40
0.0
  0
LTYPE
  5
16
330
5
100
AcDbSymbolTableRecord
100
AcDbLinetypeTableRecord
  2
Continuous
 70
     0
  3
Solid line
 72
    65
 73
     0
 40
0.0
  0
LTYPE
  5
5E
330
5
100
AcDbSymbolTableRecord
100
AcDbLinetypeTableRecord
  2
HIDDEN
 70
     0
  3
Hidden __ __ __ __ __ __ __ __ __ __ __ __ __ __
 72
    65
 73
     2
 40
0.075
 49
0.05
 74
     0
 49
-0.025
 74
     0
  0
LTYPE
  5
5F
330
5
100
AcDbSymbolTableRecord
100
AcDbLinetypeTableRecord
  2
PHANTOM
 70
     0
  3
Phantom ______  __  __  ______  __  __  ______
 72
    65
 73
     6
 40
0.5
 49
0.25
 74
     0
 49
-0.05
 74
     0
 49
0.05
 74
     0
 49
-0.05
 74
     0
 49
0.05
 74
     0
 49
-0.05
 74
     0
  0
LTYPE
  5
60
330
5
100
AcDbSymbolTableRecord
100
AcDbLinetypeTableRecord
  2
CENTER
 70
     0
  3
Center ____ _ ____ _ ____ _ ____ _ ____ _ ____
 72
    65
 73
     4
 40
0.4
 49
0.25
 74
     0
 49
-0.05
 74
     0
 49
0.05
 74
     0
 49
-0.05
 74
     0
  0
LTYPE
  5
61
330
5
100
AcDbSymbolTableRecord
100
AcDbLinetypeTableRecord
  2
CENTERX2
 70
     0
  3
Center (2x) ________  __  ________  __  _____
 72
    65
 73
     4
 40
0.8
 49
0.5
 74
     0
 49
-0.1
 74
     0
 49
0.1
 74
     0
 49
-0.1
 74
     0
  0
LTYPE
  5
62
330
5
100
AcDbSymbolTableRecord
100
AcDbLinetypeTableRecord
  2
DOT2
 70
     0
  3
Dot (.5x) ........................................
 72
    65
 73
     2
 40
0.025
 49
0.0
 74
     0
 49
-0.025
 74
     0
  0
ENDTAB
  0
TABLE
  2
LAYER
  5
2
330
0
100
AcDbSymbolTable
 70
     1
  0
LAYER
  5
10
330
2
100
AcDbSymbolTableRecord
100
AcDbLayerTableRecord
  2
0
 70
     0
 62
     7
  6
Continuous
370
    -3
390
F
  0
ENDTAB
  0
TABLE
  2
STYLE
  5
3
330
0
100
AcDbSymbolTable
 70
     2
  0
STYLE
  5
11
330
3
100
AcDbSymbolTableRecord
100
AcDbTextStyleTableRecord
  2
Standard
 70
     0
 40
0.0
 41
1.0
 50
0.0
 71
     0
 42
0.1377952756
  3
txt
  4

  0
STYLE
  5
396
330
3
100
AcDbSymbolTableRecord
100
AcDbTextStyleTableRecord
  2
SLDTEXTSTYLE0
 70
     0
 40
0.0
 41
0.7
 50
0.0
 71
     0
 42
0.1377952756
  3
TXT
  4

  0
ENDTAB
  0
TABLE
  2
VIEW
  5
6
330
0
100
AcDbSymbolTable
 70
     0
  0
ENDTAB
  0
TABLE
  2
UCS
  5
7
330
0
100
AcDbSymbolTable
 70
     0
  0
ENDTAB
  0
TABLE
  2
APPID
  5
9
330
0
100
AcDbSymbolTable
 70
     1
  0
APPID
  5
12
330
9
100
AcDbSymbolTableRecord
100
AcDbRegAppTableRecord
  2
ACAD
 70
     0
  0
ENDTAB
  0
TABLE
  2
DIMSTYLE
  5
A
330
0
100
AcDbSymbolTable
 70
     1
100
AcDbDimStyleTable
  0
DIMSTYLE
105
27
330
A
100
AcDbSymbolTableRecord
100
AcDbDimStyleTableRecord
  2
Standard
 70
     0
178
     0
340
11
  0
ENDTAB
  0
TABLE
  2
BLOCK_RECORD
  5
1
330
0
100
AcDbSymbolTable
 70
     1
  0
BLOCK_RECORD
  5
1F
330
1
100
AcDbSymbolTableRecord
100
AcDbBlockTableRecord
  2
*Model_Space
340
22
  0
BLOCK_RECORD
  5
1B
330
1
100
AcDbSymbolTableRecord
100
AcDbBlockTableRecord
  2
*Paper_Space
340
1E
  0
BLOCK_RECORD
  5
23
330
1
100
AcDbSymbolTableRecord
100
AcDbBlockTableRecord
  2
*Paper_Space0
340
26
  0
ENDTAB
  0
ENDSEC
  0
SECTION
  2
BLOCKS
  0
BLOCK
  5
20
330
1F
100
AcDbEntity
  8
0
100
AcDbBlockBegin
  2
*Model_Space
 70
     0
 10
0.0
 20
0.0
 30
0.0
  3
*Model_Space
  1

  0
ENDBLK
  5
21
330
1F
100
AcDbEntity
  8
0
100
AcDbBlockEnd
  0
BLOCK
  5
1C
330
1B
100
AcDbEntity
 67
     1
  8
0
100
AcDbBlockBegin
  2
*Paper_Space
 70
     0
 10
0.0
 20
0.0
 30
0.0
  3
*Paper_Space
  1

  0
ENDBLK
  5
1D
330
1B
100
AcDbEntity
 67
     1
  8
0
100
AcDbBlockEnd
  0
BLOCK
  5
24
330
23
100
AcDbEntity
  8
0
100
AcDbBlockBegin
  2
*Paper_Space0
 70
     0
 10
0.0
 20
0.0
 30
0.0
  3
*Paper_Space0
  1

  0
ENDBLK
  5
25
330
23
100
AcDbEntity
  8
0
100
AcDbBlockEnd
  0
ENDSEC
  0
SECTION
  2
ENTITIES
  0
LINE
  5
63
330
1F
100
AcDbEntity
  8
0
  6
Continuous
 62
     7
370
    25
100
AcDbLine
 10
11.8300906447
 20
0.0
 30
0.0
 11
11.5146282591
 21
0.1897103134
 31
0.0
  0
LINE
  5
64
330
1F
100
AcDbEntity
  8
0
  6
Continuous
 62
     7
370
    25
100
AcDbLine
 10
5.9355567008
 20
0.0
 30
0.0
 11
11.8300906447
 21
0.0
 31
0.0
  0
LINE
  5
65
330
1F
100
AcDbEntity
  8
0
  6
Continuous
 62
     7
370
    25
100
AcDbLine
 10
8.75
 20
0.0
 30
0.0
 11
8.75
 21
0.1968503937
 31
0.0
  0
LINE
  5
66
330
1F
100
AcDbEntity
  8
0
  6
Continuous
 62
     7
370
    25
100
AcDbLine
 10
8.5
 20
0.1968503937
 30
0.0
 11
9.0
 21
0.1968503937
 31
0.0
  0
LINE
  5
67
330
1F
100
AcDbEntity
  8
0
  6
Continuous
 62
     7
370
    25
100
AcDbLine
 10
9.0
 20
0.1968503937
 30
0.0
 11
9.0
 21
1.5781496063
 31
0.0
  0
LINE
  5
68
330
1F
100
AcDbEntity
  8
0
  6
Continuous
 62
     7
370
    25
100
AcDbLine
 10
9.0
 20
1.5781496063
 30
0.0
 11
9.5905511811
 21
1.5781496063
 31
0.0
  0
LINE
  5
69
330
1F
100
AcDbEntity
  8
0
  6
Continuous
 62
     7
370
    25
100
AcDbLine
 10
9.5905511811
 20
1.5781496063
 30
0.0
 11
9.5905511811
 21
2.0781496063
 31
0.0
  0
LINE
  5
6A
330
1F
100
AcDbEntity
  8
0
  6
Continuous
 62
     7
370
    25
100
AcDbLine
 10
9.5905511811
 20
2.0781496063
 30
0.0
 11
9.0
 21
2.0781496063
 31
0.0
  0
LINE
  5
6B
330
1F
100
AcDbEntity
  8
0
  6
Continuous
 62
     7
370
    25
100
AcDbLine
 10
9.0
 20
2.0781496063
 30
0.0
 11
9.0
 21
2.6781496063
 31
0.0
  0
LINE
  5
6C
330
1F
100
AcDbEntity
  8
0
  6
Continuous
 62
     7
370
    25
100
AcDbLine
 10
9.0
 20
2.6781496063
 30
0.0
 11
8.5
 21
2.6781496063
 31
0.0
  0
LINE
  5
6D
330
1F
100
AcDbEntity
  8
0
  6
Continuous
 62
     7
370
    25
100
AcDbLine
 10
8.75
 20
2.6781496063
 30
0.0
 11
8.75
 21
2.875
 31
0.0
  0
LINE
  5
6E
330
1F
100
AcDbEntity
  8
0
  6
Continuous
 62
     7
370
    25
100
AcDbLine
 10
12.2457925797
 20
2.875
 30
0.0
 11
5.7037461638
 21
2.875
 31
0.0
  0
LINE
  5
6F
330
1F
100
AcDbEntity
  8
0
  6
Continuous
 62
     7
370
    25
100
AcDbLine
 10
11.8292985025
 20
2.74770029
 30
0.0
 11
12.2457925797
 21
2.875
 31
0.0
  0
LINE
  5
70
330
1F
100
AcDbEntity
  8
0
  6
Continuous
 62
     7
370
    25
100
AcDbLine
 10
11.8376173773
 20
2.7193688046
 30
0.0
 11
11.8292985025
 21
2.74770029
 31
0.0
  0
LINE
  5
71
330
1F
100
AcDbEntity
  8
0
  6
Continuous
 62
     7
370
    25
100
AcDbLine
 10
12.3901188337
 20
2.875
 30
0.0
 11
11.8376173773
 21
2.7193688046
 31
0.0
  0
LINE
  5
72
330
1F
100
AcDbEntity
  8
0
  6
Continuous
 62
     7
370
    25
100
AcDbLine
 10
13.640074601
 20
2.875
 30
0.0
 11
12.3901188337
 21
2.875
 31
0.0
  0
LINE
  5
73
330
1F
100
AcDbEntity
  8
0
  6
Continuous
 62
     7
370
    25
100
AcDbLine
 10
11.8940043082
 20
2.4936491462
 30
0.0
 11
13.640074601
 21
2.875
 31
0.0
  0
LINE
  5
74
330
1F
100
AcDbEntity
  8
0
  6
Continuous
 62
     7
370
    25
100
AcDbLine
 10
11.8999862235
 20
2.4647338659
 30
0.0
 11
11.8940043082
 21
2.4936491462
 31
0.0
  0
LINE
  5
75
330
1F
100
AcDbEntity
  8
0
  6
Continuous
 62
     7
370
    25
100
AcDbLine
 10
13.9995879376
 20
2.875
 30
0.0
 11
11.8999862235
 21
2.4647338659
 31
0.0
  0
LINE
  5
76
330
1F
100
AcDbEntity
  8
0
  6
Continuous
 62
     7
370
    25
100
AcDbLine
 10
16.704592742
 20
2.875
 30
0.0
 11
13.9995879376
 21
2.875
 31
0.0
  0
LINE
  5
77
330
1F
100
AcDbEntity
  8
0
  6
Continuous
 62
     7
370
    25
100
AcDbLine
 10
11.9377872839
 20
2.2351692128
 30
0.0
 11
16.704592742
 21
2.875
 31
0.0
  0
LINE
  5
78
330
1F
100
AcDbEntity
  8
0
  6
Continuous
 62
     7
370
    25
100
AcDbLine
 10
11.9413924311
 20
2.2058625641
 30
0.0
 11
11.9377872839
 21
2.2351692128
 31
0.0
  0
LINE
  5
79
330
1F
100
AcDbEntity
  8
0
  6
Continuous
 62
     7
370
    25
100
AcDbLine
 10
16.8193534559
 20
2.7513813221
 30
0.0
 11
11.9413924311
 21
2.2058625641
 31
0.0
  0
LINE
  5
7A
330
1F
100
AcDbEntity
  8
0
  6
Continuous
 62
     7
370
    25
100
AcDbLine
 10
16.8041465474
 20
2.875
 30
0.0
 11
16.8193534559
 21
2.7513813221
 31
0.0
  0
LINE
  5
7B
330
1F
100
AcDbEntity
  8
0
  6
Continuous
 62
     7
370
    25
100
AcDbLine
 10
17.375
 20
2.875
 30
0.0
 11
16.8041465474
 21
2.875
 31
0.0
  0
LINE
  5
7C
330
1F
100
AcDbEntity
  8
0
  6
Continuous
 62
     7
370
    25
100
AcDbLine
 10
17.375
 20
2.4642857143
 30
0.0
 11
17.375
 21
2.875
 31
0.0
  0
LINE
  5
7D
330
1F
100
AcDbEntity
  8
0
  6
Continuous
 62
     7
370
    25
100
AcDbLine
 10
17.5
 20
2.4642857143
 30
0.0
 11
17.375
 21
2.4642857143
 31
0.0
  0
LINE
  5
7E
330
1F
100
AcDbEntity
  8
0
  6
Continuous
 62
     7
370
    25
100
AcDbLine
 10
17.5
 20
2.4642857143
 30
0.0
 11
17.5
 21
2.0535714286
 31
0.0
  0
LINE
  5
7F
330
1F
100
AcDbEntity
  8
0
  6
Continuous
 62
     7
370
    25
100
AcDbLine
 10
17.5
 20
2.0535714286
 30
0.0
 11
17.375
 21
2.0535714286
 31
0.0
  0
LINE
  5
80
330
1F
100
AcDbEntity
  8
0
  6
Continuous
 62
     7
370
    25
100
AcDbLine
 10
17.375
 20
1.6428571429
 30
0.0
 11
17.375
 21
2.0535714286
 31
0.0
  0
LINE
  5
81
330
1F
100
AcDbEntity
  8
0
  6
Continuous
 62
     7
370
    25
100
AcDbLine
 10
17.5
 20
1.6428571429
 30
0.0
 11
17.375
 21
1.6428571429
 31
0.0
  0
LINE
  5
82
330
1F
100
AcDbEntity
  8
0
  6
Continuous
 62
     7
370
    25
100
AcDbLine
 10
17.5
 20
1.6428571429
 30
0.0
 11
17.5
 21
1.2321428571
 31
0.0
  0
LINE
  5
83
330
1F
100
AcDbEntity
  8
0
  6
Continuous
 62
     7
370
    25
100
AcDbLine
 10
17.5
 20
1.2321428571
 30
0.0
 11
17.375
 21
1.2321428571
 31
0.0
  0
LINE
  5
84
330
1F
100
AcDbEntity
  8
0
  6
Continuous
 62
     7
370
    25
100
AcDbLine
 10
17.375
 20
0.8214285714
 30
0.0
 11
17.375
 21
1.2321428571
 31
0.0
  0
LINE
  5
85
330
1F
100
AcDbEntity
  8
0
  6
Continuous
 62
     7
370
    25
100
AcDbLine
 10
17.5
 20
0.8214285714
 30
0.0
 11
17.375
 21
0.8214285714
 31
0.0
  0
LINE
  5
86
330
1F
100
AcDbEntity
  8
0
  6
Continuous
 62
     7
370
    25
100
AcDbLine
 10
17.5
 20
0.8214285714
 30
0.0
 11
17.5
 21
0.4107142857
 31
0.0
  0
LINE
  5
87
330
1F
100
AcDbEntity
  8
0
  6
Continuous
 62
     7
370
    25
100
AcDbLine
 10
17.5
 20
0.4107142857
 30
0.0
 11
17.375
 21
0.4107142857
 31
0.0
  0
LINE
  5
88
330
1F
100
AcDbEntity
  8
0
  6
Continuous
 62
     7
370
    25
100
AcDbLine
 10
17.375
 20
0.0
 30
0.0
 11
17.375
 21
0.4107142857
 31
0.0
  0
LINE
  5
89
330
1F
100
AcDbEntity
  8
0
  6
Continuous
 62
     7
370
    25
100
AcDbLine
 10
15.1637848182
 20
0.0
 30
0.0
 11
17.375
 21
0.0
 31
0.0
  0
LINE
  5
8A
330
1F
100
AcDbEntity
  8
0
  6
Continuous
 62
     7
370
    25
100
AcDbLine
 10
11.8376173773
 20
0.936930408
 30
0.0
 11
15.1637848182
 21
0.0
 31
0.0
  0
LINE
  5
8B
330
1F
100
AcDbEntity
  8
0
  6
Continuous
 62
     7
370
    25
100
AcDbLine
 10
11.8292985025
 20
0.9085989226
 30
0.0
 11
11.8376173773
 21
0.936930408
 31
0.0
  0
LINE
  5
8C
330
1F
100
AcDbEntity
  8
0
  6
Continuous
 62
     7
370
    25
100
AcDbLine
 10
14.802015957
 20
0.0
 30
0.0
 11
11.8292985025
 21
0.9085989226
 31
0.0
  0
LINE
  5
8D
330
1F
100
AcDbEntity
  8
0
  6
Continuous
 62
     7
370
    25
100
AcDbLine
 10
13.6045902275
 20
0.0
 30
0.0
 11
14.802015957
 21
0.0
 31
0.0
  0
LINE
  5
8E
330
1F
100
AcDbEntity
  8
0
  6
Continuous
 62
     7
370
    25
100
AcDbLine
 10
11.7547009468
 20
0.6882263861
 30
0.0
 11
13.6045902275
 21
0.0
 31
0.0
  0
LINE
  5
8F
330
1F
100
AcDbEntity
  8
0
  6
Continuous
 62
     7
370
    25
100
AcDbLine
 10
11.7441004734
 20
0.6606672368
 30
0.0
 11
11.7547009468
 21
0.6882263861
 31
0.0
  0
LINE
  5
90
330
1F
100
AcDbEntity
  8
0
  6
Continuous
 62
     7
370
    25
100
AcDbLine
 10
13.4067429344
 20
0.0
 30
0.0
 11
11.7441004734
 21
0.6606672368
 31
0.0
  0
LINE
  5
91
330
1F
100
AcDbEntity
  8
0
  6
Continuous
 62
     7
370
    25
100
AcDbLine
 10
12.6070281795
 20
0.0
 30
0.0
 11
13.4067429344
 21
0.0
 31
0.0
  0
LINE
  5
92
330
1F
100
AcDbEntity
  8
0
  6
Continuous
 62
     7
370
    25
100
AcDbLine
 10
11.6517887273
 20
0.4471083651
 30
0.0
 11
12.6070281795
 21
0.0
 31
0.0
  0
LINE
  5
93
330
1F
100
AcDbEntity
  8
0
  6
Continuous
 62
     7
370
    25
100
AcDbLine
 10
11.6389771996
 20
0.4205049536
 30
0.0
 11
11.6517887273
 21
0.4471083651
 31
0.0
  0
LINE
  5
94
330
1F
100
AcDbEntity
  8
0
  6
Continuous
 62
     7
370
    25
100
AcDbLine
 10
12.4880796592
 20
0.0
 30
0.0
 11
11.6389771996
 21
0.4205049536
 31
0.0
  0
LINE
  5
95
330
1F
100
AcDbEntity
  8
0
  6
Continuous
 62
     7
370
    25
100
AcDbLine
 10
11.9059369063
 20
0.0
 30
0.0
 11
12.4880796592
 21
0.0
 31
0.0
  0
LINE
  5
96
330
1F
100
AcDbEntity
  8
0
  6
Continuous
 62
     7
370
    25
100
AcDbLine
 10
11.5295655826
 20
0.2151809457
 30
0.0
 11
11.9059369063
 21
0.0
 31
0.0
  0
LINE
  5
97
330
1F
100
AcDbEntity
  8
0
  6
Continuous
 62
     7
370
    25
100
AcDbLine
 10
11.5146282591
 20
0.1897103134
 30
0.0
 11
11.5295655826
 21
0.2151809457
 31
0.0
  0
LINE
  5
98
330
1F
100
AcDbEntity
  8
0
  6
Continuous
 62
     7
370
    25
100
AcDbLine
 10
11.8940043082
 20
1.1626500664
 30
0.0
 11
11.8999862235
 21
1.1915653466
 31
0.0
  0
LINE
  5
99
330
1F
100
AcDbEntity
  8
0
  6
Continuous
 62
     7
370
    25
100
AcDbLine
 10
16.6893357877
 20
0.1153246744
 30
0.0
 11
11.8940043082
 21
1.1626500664
 31
0.0
  0
LINE
  5
9A
330
1F
100
AcDbEntity
  8
0
  6
Continuous
 62
     7
370
    25
100
AcDbLine
 10
16.7172513922
 20
0.250262649
 30
0.0
 11
16.6893357877
 21
0.1153246744
 31
0.0
  0
LINE
  5
9B
330
1F
100
AcDbEntity
  8
0
  6
Continuous
 62
     7
370
    25
100
AcDbLine
 10
11.8999862235
 20
1.1915653466
 30
0.0
 11
16.7172513922
 21
0.250262649
 31
0.0
  0
LINE
  5
9C
330
1F
100
AcDbEntity
  8
0
  6
Continuous
 62
     7
370
    25
100
AcDbLine
 10
11.9377872839
 20
1.4211299998
 30
0.0
 11
11.9413924311
 21
1.4504366485
 31
0.0
  0
LINE
  5
9D
330
1F
100
AcDbEntity
  8
0
  6
Continuous
 62
     7
370
    25
100
AcDbLine
 10
16.8025294359
 20
0.7681535299
 30
0.0
 11
11.9377872839
 21
1.4211299998
 31
0.0
  0
LINE
  5
9E
330
1F
100
AcDbEntity
  8
0
  6
Continuous
 62
     7
370
    25
100
AcDbLine
 10
16.8193534559
 20
0.9049178905
 30
0.0
 11
16.8025294359
 21
0.7681535299
 31
0.0
  0
LINE
  5
9F
330
1F
100
AcDbEntity
  8
0
  6
Continuous
 62
     7
370
    25
100
AcDbLine
 10
11.9413924311
 20
1.4504366485
 30
0.0
 11
16.8193534559
 21
0.9049178905
 31
0.0
  0
LINE
  5
A0
330
1F
100
AcDbEntity
  8
0
  6
Continuous
 62
     7
370
    25
100
AcDbLine
 10
11.9603560612
 20
1.6823185816
 30
0.0
 11
11.9615604486
 21
1.7118215678
 31
0.0
  0
LINE
  5
A1
330
1F
100
AcDbEntity
  8
0
  6
Continuous
 62
     7
370
    25
100
AcDbLine
 10
16.8621348292
 20
1.4280364845
 30
0.0
 11
11.9603560612
 21
1.6823185816
 31
0.0
  0
LINE
  5
A2
330
1F
100
AcDbEntity
  8
0
  6
Continuous
 62
     7
370
    25
100
AcDbLine
 10
16.8677553036
 20
1.5657170867
 30
0.0
 11
16.8621348292
 21
1.4280364845
 31
0.0
  0
LINE
  5
A3
330
1F
100
AcDbEntity
  8
0
  6
Continuous
 62
     7
370
    25
100
AcDbLine
 10
11.9615604486
 20
1.7118215678
 30
0.0
 11
16.8677553036
 21
1.5657170867
 31
0.0
  0
LINE
  5
A4
330
1F
100
AcDbEntity
  8
0
  6
Continuous
 62
     7
370
    25
100
AcDbLine
 10
11.9615604486
 20
1.9444776448
 30
0.0
 11
11.9603560612
 21
1.973980631
 31
0.0
  0
LINE
  5
A5
330
1F
100
AcDbEntity
  8
0
  6
Continuous
 62
     7
370
    25
100
AcDbLine
 10
16.8677553036
 20
2.0905821258
 30
0.0
 11
11.9615604486
 21
1.9444776448
 31
0.0
  0
LINE
  5
A6
330
1F
100
AcDbEntity
  8
0
  6
Continuous
 62
     7
370
    25
100
AcDbLine
 10
16.8621348292
 20
2.2282627281
 30
0.0
 11
16.8677553036
 21
2.0905821258
 31
0.0
  0
LINE
  5
A7
330
1F
100
AcDbEntity
  8
0
  6
Continuous
 62
     7
370
    25
100
AcDbLine
 10
11.9603560612
 20
1.973980631
 30
0.0
 11
16.8621348292
 21
2.2282627281
 31
0.0
  0
LINE
  5
A8
330
1F
100
AcDbEntity
  8
0
  6
Continuous
 62
     7
370
    25
100
AcDbLine
 10
10.4944229248
 20
1.1315671947
 30
0.0
 11
10.4944229248
 21
1.1065446702
 31
0.0
  0
LINE
  5
A9
330
1F
100
AcDbEntity
  8
0
  6
Continuous
 62
     7
370
    25
100
AcDbLine
 10
10.4944229248
 20
1.1065446702
 30
0.0
 11
10.522392871
 21
1.1065446702
 31
0.0
  0
LINE
  5
AA
330
1F
100
AcDbEntity
  8
0
  6
Continuous
 62
     7
370
    25
100
AcDbLine
 10
10.522392871
 20
1.1065446702
 30
0.0
 11
10.522392871
 21
1.0785747241
 31
0.0
  0
LINE
  5
AB
330
1F
100
AcDbEntity
  8
0
  6
Continuous
 62
     7
370
    25
100
AcDbLine
 10
10.522392871
 20
1.0785747241
 30
0.0
 11
10.5474153955
 21
1.0785747241
 31
0.0
  0
LINE
  5
AC
330
1F
100
AcDbEntity
  8
0
  6
Continuous
 62
     7
370
    25
100
AcDbLine
 10
10.5474153955
 20
1.0785747241
 30
0.0
 11
10.5474153955
 21
1.1065446702
 31
0.0
  0
LINE
  5
AD
330
1F
100
AcDbEntity
  8
0
  6
Continuous
 62
     7
370
    25
100
AcDbLine
 10
10.5474153955
 20
1.1065446702
 30
0.0
 11
10.5753853417
 21
1.1065446702
 31
0.0
  0
LINE
  5
AE
330
1F
100
AcDbEntity
  8
0
  6
Continuous
 62
     7
370
    25
100
AcDbLine
 10
10.5753853417
 20
1.1065446702
 30
0.0
 11
10.5753853417
 21
1.1315671947
 31
0.0
  0
LINE
  5
AF
330
1F
100
AcDbEntity
  8
0
  6
Continuous
 62
     7
370
    25
100
AcDbLine
 10
10.5753853417
 20
1.1315671947
 30
0.0
 11
10.5474153955
 21
1.1315671947
 31
0.0
  0
LINE
  5
B0
330
1F
100
AcDbEntity
  8
0
  6
Continuous
 62
     7
370
    25
100
AcDbLine
 10
10.5474153955
 20
1.1315671947
 30
0.0
 11
10.5474153955
 21
1.1595371409
 31
0.0
  0
LINE
  5
B1
330
1F
100
AcDbEntity
  8
0
  6
Continuous
 62
     7
370
    25
100
AcDbLine
 10
10.5474153955
 20
1.1595371409
 30
0.0
 11
10.522392871
 21
1.1595371409
 31
0.0
  0
LINE
  5
B2
330
1F
100
AcDbEntity
  8
0
  6
Continuous
 62
     7
370
    25
100
AcDbLine
 10
10.522392871
 20
1.1595371409
 30
0.0
 11
10.522392871
 21
1.1315671947
 31
0.0
  0
LINE
  5
B3
330
1F
100
AcDbEntity
  8
0
  6
Continuous
 62
     7
370
    25
100
AcDbLine
 10
10.522392871
 20
1.1315671947
 30
0.0
 11
10.4944229248
 21
1.1315671947
 31
0.0
  0
LINE
  5
B4
330
1F
100
AcDbEntity
  8
0
  6
Continuous
 62
     7
370
    25
100
AcDbLine
 10
10.181856205
 20
0.5901857553
 30
0.0
 11
10.181856205
 21
0.5651632308
 31
0.0
  0
LINE
  5
B5
330
1F
100
AcDbEntity
  8
0
  6
Continuous
 62
     7
370
    25
100
AcDbLine
 10
10.181856205
 20
0.5651632308
 30
0.0
 11
10.2098261512
 21
0.5651632308
 31
0.0
  0
LINE
  5
B6
330
1F
100
AcDbEntity
  8
0
  6
Continuous
 62
     7
370
    25
100
AcDbLine
 10
10.2098261512
 20
0.5651632308
 30
0.0
 11
10.2098261512
 21
0.5371932846
 31
0.0
  0
LINE
  5
B7
330
1F
100
AcDbEntity
  8
0
  6
Continuous
 62
     7
370
    25
100
AcDbLine
 10
10.2098261512
 20
0.5371932846
 30
0.0
 11
10.2348486757
 21
0.5371932846
 31
0.0
  0
LINE
  5
B8
330
1F
100
AcDbEntity
  8
0
  6
Continuous
 62
     7
370
    25
100
AcDbLine
 10
10.2348486757
 20
0.5371932846
 30
0.0
 11
10.2348486757
 21
0.5651632308
 31
0.0
  0
LINE
  5
B9
330
1F
100
AcDbEntity
  8
0
  6
Continuous
 62
     7
370
    25
100
AcDbLine
 10
10.2348486757
 20
0.5651632308
 30
0.0
 11
10.2628186219
 21
0.5651632308
 31
0.0
  0
LINE
  5
BA
330
1F
100
AcDbEntity
  8
0
  6
Continuous
 62
     7
370
    25
100
AcDbLine
 10
10.2628186219
 20
0.5651632308
 30
0.0
 11
10.2628186219
 21
0.5901857553
 31
0.0
  0
LINE
  5
BB
330
1F
100
AcDbEntity
  8
0
  6
Continuous
 62
     7
370
    25
100
AcDbLine
 10
10.2628186219
 20
0.5901857553
 30
0.0
 11
10.2348486757
 21
0.5901857553
 31
0.0
  0
LINE
  5
BC
330
1F
100
AcDbEntity
  8
0
  6
Continuous
 62
     7
370
    25
100
AcDbLine
 10
10.2348486757
 20
0.5901857553
 30
0.0
 11
10.2348486757
 21
0.6181557014
 31
0.0
  0
LINE
  5
BD
330
1F
100
AcDbEntity
  8
0
  6
Continuous
 62
     7
370
    25
100
AcDbLine
 10
10.2348486757
 20
0.6181557014
 30
0.0
 11
10.2098261512
 21
0.6181557014
 31
0.0
  0
LINE
  5
BE
330
1F
100
AcDbEntity
  8
0
  6
Continuous
 62
     7
370
    25
100
AcDbLine
 10
10.2098261512
 20
0.6181557014
 30
0.0
 11
10.2098261512
 21
0.5901857553
 31
0.0
  0
LINE
  5
BF
330
1F
100
AcDbEntity
  8
0
  6
Continuous
 62
     7
370
    25
100
AcDbLine
 10
10.2098261512
 20
0.5901857553
 30
0.0
 11
10.181856205
 21
0.5901857553
 31
0.0
  0
LINE
  5
C0
330
1F
100
AcDbEntity
  8
0
  6
Continuous
 62
     7
370
    25
100
AcDbLine
 10
10.4944229248
 20
2.3628397107
 30
0.0
 11
10.4944229248
 21
2.3378171862
 31
0.0
  0
LINE
  5
C1
330
1F
100
AcDbEntity
  8
0
  6
Continuous
 62
     7
370
    25
100
AcDbLine
 10
10.4944229248
 20
2.3378171862
 30
0.0
 11
10.522392871
 21
2.3378171862
 31
0.0
  0
LINE
  5
C2
330
1F
100
AcDbEntity
  8
0
  6
Continuous
 62
     7
370
    25
100
AcDbLine
 10
10.522392871
 20
2.3378171862
 30
0.0
 11
10.522392871
 21
2.30984724
 31
0.0
  0
LINE
  5
C3
330
1F
100
AcDbEntity
  8
0
  6
Continuous
 62
     7
370
    25
100
AcDbLine
 10
10.522392871
 20
2.30984724
 30
0.0
 11
10.5474153955
 21
2.30984724
 31
0.0
  0
LINE
  5
C4
330
1F
100
AcDbEntity
  8
0
  6
Continuous
 62
     7
370
    25
100
AcDbLine
 10
10.5474153955
 20
2.30984724
 30
0.0
 11
10.5474153955
 21
2.3378171862
 31
0.0
  0
LINE
  5
C5
330
1F
100
AcDbEntity
  8
0
  6
Continuous
 62
     7
370
    25
100
AcDbLine
 10
10.5474153955
 20
2.3378171862
 30
0.0
 11
10.5753853417
 21
2.3378171862
 31
0.0
  0
LINE
  5
C6
330
1F
100
AcDbEntity
  8
0
  6
Continuous
 62
     7
370
    25
100
AcDbLine
 10
10.5753853417
 20
2.3378171862
 30
0.0
 11
10.5753853417
 21
2.3628397107
 31
0.0
  0
LINE
  5
C7
330
1F
100
AcDbEntity
  8
0
  6
Continuous
 62
     7
370
    25
100
AcDbLine
 10
10.5753853417
 20
2.3628397107
 30
0.0
 11
10.5474153955
 21
2.3628397107
 31
0.0
  0
LINE
  5
C8
330
1F
100
AcDbEntity
  8
0
  6
Continuous
 62
     7
370
    25
100
AcDbLine
 10
10.5474153955
 20
2.3628397107
 30
0.0
 11
10.5474153955
 21
2.3908096569
 31
0.0
  0
LINE
  5
C9
330
1F
100
AcDbEntity
  8
0
  6
Continuous
 62
     7
370
    25
100
AcDbLine
 10
10.5474153955
 20
2.3908096569
 30
0.0
 11
10.522392871
 21
2.3908096569
 31
0.0
  0
LINE
  5
CA
330
1F
100
AcDbEntity
  8
0
  6
Continuous
 62
     7
370
    25
100
AcDbLine
 10
10.522392871
 20
2.3908096569
 30
0.0
 11
10.522392871
 21
2.3628397107
 31
0.0
  0
LINE
  5
CB
330
1F
100
AcDbEntity
  8
0
  6
Continuous
 62
     7
370
    25
100
AcDbLine
 10
10.522392871
 20
2.3628397107
 30
0.0
 11
10.4944229248
 21
2.3628397107
 31
0.0
  0
LINE
  5
CC
330
1F
100
AcDbEntity
  8
0
  6
Continuous
 62
     7
370
    25
100
AcDbLine
 10
10.6309461536
 20
1.8811258137
 30
0.0
 11
10.6559686781
 21
1.8811258137
 31
0.0
  0
LINE
  5
CD
330
1F
100
AcDbEntity
  8
0
  6
Continuous
 62
     7
370
    25
100
AcDbLine
 10
10.6559686781
 20
1.8811258137
 30
0.0
 11
10.6559686781
 21
1.9090957599
 31
0.0
  0
LINE
  5
CE
330
1F
100
AcDbEntity
  8
0
  6
Continuous
 62
     7
370
    25
100
AcDbLine
 10
10.6559686781
 20
1.9090957599
 30
0.0
 11
10.6839386243
 21
1.9090957599
 31
0.0
  0
LINE
  5
CF
330
1F
100
AcDbEntity
  8
0
  6
Continuous
 62
     7
370
    25
100
AcDbLine
 10
10.6839386243
 20
1.9090957599
 30
0.0
 11
10.6839386243
 21
1.9341182844
 31
0.0
  0
LINE
  5
D0
330
1F
100
AcDbEntity
  8
0
  6
Continuous
 62
     7
370
    25
100
AcDbLine
 10
10.6839386243
 20
1.9341182844
 30
0.0
 11
10.6559686781
 21
1.9341182844
 31
0.0
  0
LINE
  5
D1
330
1F
100
AcDbEntity
  8
0
  6
Continuous
 62
     7
370
    25
100
AcDbLine
 10
10.6559686781
 20
1.9341182844
 30
0.0
 11
10.6559686781
 21
1.9620882306
 31
0.0
  0
LINE
  5
D2
330
1F
100
AcDbEntity
  8
0
  6
Continuous
 62
     7
370
    25
100
AcDbLine
 10
10.6559686781
 20
1.9620882306
 30
0.0
 11
10.6309461536
 21
1.9620882306
 31
0.0
  0
LINE
  5
D3
330
1F
100
AcDbEntity
  8
0
  6
Continuous
 62
     7
370
    25
100
AcDbLine
 10
10.6309461536
 20
1.9620882306
 30
0.0
 11
10.6309461536
 21
1.9341182844
 31
0.0
  0
LINE
  5
D4
330
1F
100
AcDbEntity
  8
0
  6
Continuous
 62
     7
370
    25
100
AcDbLine
 10
10.6309461536
 20
1.9341182844
 30
0.0
 11
10.6029762074
 21
1.9341182844
 31
0.0
  0
LINE
  5
D5
330
1F
100
AcDbEntity
  8
0
  6
Continuous
 62
     7
370
    25
100
AcDbLine
 10
10.6029762074
 20
1.9341182844
 30
0.0
 11
10.6029762074
 21
1.9090957599
 31
0.0
  0
LINE
  5
D6
330
1F
100
AcDbEntity
  8
0
  6
Continuous
 62
     7
370
    25
100
AcDbLine
 10
10.6029762074
 20
1.9090957599
 30
0.0
 11
10.6309461536
 21
1.9090957599
 31
0.0
  0
LINE
  5
D7
330
1F
100
AcDbEntity
  8
0
  6
Continuous
 62
     7
370
    25
100
AcDbLine
 10
10.6309461536
 20
1.9090957599
 30
0.0
 11
10.6309461536
 21
1.8811258137
 31
0.0
  0
LINE
  5
D8
330
1F
100
AcDbEntity
  8
0
  6
Continuous
 62
     7
370
    25
100
AcDbLine
 10
10.522392871
 20
1.2654895557
 30
0.0
 11
10.5474153955
 21
1.2654895557
 31
0.0
  0
LINE
  5
D9
330
1F
100
AcDbEntity
  8
0
  6
Continuous
 62
     7
370
    25
100
AcDbLine
 10
10.5474153955
 20
1.2654895557
 30
0.0
 11
10.5474153955
 21
1.2934595019
 31
0.0
  0
LINE
  5
DA
330
1F
100
AcDbEntity
  8
0
  6
Continuous
 62
     7
370
    25
100
AcDbLine
 10
10.5474153955
 20
1.2934595019
 30
0.0
 11
10.5753853417
 21
1.2934595019
 31
0.0
  0
LINE
  5
DB
330
1F
100
AcDbEntity
  8
0
  6
Continuous
 62
     7
370
    25
100
AcDbLine
 10
10.5753853417
 20
1.2934595019
 30
0.0
 11
10.5753853417
 21
1.3184820264
 31
0.0
  0
LINE
  5
DC
330
1F
100
AcDbEntity
  8
0
  6
Continuous
 62
     7
370
    25
100
AcDbLine
 10
10.5753853417
 20
1.3184820264
 30
0.0
 11
10.5474153955
 21
1.3184820264
 31
0.0
  0
LINE
  5
DD
330
1F
100
AcDbEntity
  8
0
  6
Continuous
 62
     7
370
    25
100
AcDbLine
 10
10.5474153955
 20
1.3184820264
 30
0.0
 11
10.5474153955
 21
1.3464519726
 31
0.0
  0
LINE
  5
DE
330
1F
100
AcDbEntity
  8
0
  6
Continuous
 62
     7
370
    25
100
AcDbLine
 10
10.5474153955
 20
1.3464519726
 30
0.0
 11
10.522392871
 21
1.3464519726
 31
0.0
  0
LINE
  5
DF
330
1F
100
AcDbEntity
  8
0
  6
Continuous
 62
     7
370
    25
100
AcDbLine
 10
10.522392871
 20
1.3464519726
 30
0.0
 11
10.522392871
 21
1.3184820264
 31
0.0
  0
LINE
  5
E0
330
1F
100
AcDbEntity
  8
0
  6
Continuous
 62
     7
370
    25
100
AcDbLine
 10
10.522392871
 20
1.3184820264
 30
0.0
 11
10.4944229248
 21
1.3184820264
 31
0.0
  0
LINE
  5
E1
330
1F
100
AcDbEntity
  8
0
  6
Continuous
 62
     7
370
    25
100
AcDbLine
 10
10.4944229248
 20
1.3184820264
 30
0.0
 11
10.4944229248
 21
1.2934595019
 31
0.0
  0
LINE
  5
E2
330
1F
100
AcDbEntity
  8
0
  6
Continuous
 62
     7
370
    25
100
AcDbLine
 10
10.4944229248
 20
1.2934595019
 30
0.0
 11
10.522392871
 21
1.2934595019
 31
0.0
  0
LINE
  5
E3
330
1F
100
AcDbEntity
  8
0
  6
Continuous
 62
     7
370
    25
100
AcDbLine
 10
10.522392871
 20
1.2934595019
 30
0.0
 11
10.522392871
 21
1.2654895557
 31
0.0
  0
LINE
  5
E4
330
1F
100
AcDbEntity
  8
0
  6
Continuous
 62
     7
370
    25
100
AcDbLine
 10
10.2098261512
 20
0.7241081163
 30
0.0
 11
10.2348486757
 21
0.7241081163
 31
0.0
  0
LINE
  5
E5
330
1F
100
AcDbEntity
  8
0
  6
Continuous
 62
     7
370
    25
100
AcDbLine
 10
10.2348486757
 20
0.7241081163
 30
0.0
 11
10.2348486757
 21
0.7520780624
 31
0.0
  0
LINE
  5
E6
330
1F
100
AcDbEntity
  8
0
  6
Continuous
 62
     7
370
    25
100
AcDbLine
 10
10.2348486757
 20
0.7520780624
 30
0.0
 11
10.2628186219
 21
0.7520780624
 31
0.0
  0
LINE
  5
E7
330
1F
100
AcDbEntity
  8
0
  6
Continuous
 62
     7
370
    25
100
AcDbLine
 10
10.2628186219
 20
0.7520780624
 30
0.0
 11
10.2628186219
 21
0.777100587
 31
0.0
  0
LINE
  5
E8
330
1F
100
AcDbEntity
  8
0
  6
Continuous
 62
     7
370
    25
100
AcDbLine
 10
10.2628186219
 20
0.777100587
 30
0.0
 11
10.2348486757
 21
0.777100587
 31
0.0
  0
LINE
  5
E9
330
1F
100
AcDbEntity
  8
0
  6
Continuous
 62
     7
370
    25
100
AcDbLine
 10
10.2348486757
 20
0.777100587
 30
0.0
 11
10.2348486757
 21
0.8050705331
 31
0.0
  0
LINE
  5
EA
330
1F
100
AcDbEntity
  8
0
  6
Continuous
 62
     7
370
    25
100
AcDbLine
 10
10.2348486757
 20
0.8050705331
 30
0.0
 11
10.2098261512
 21
0.8050705331
 31
0.0
  0
LINE
  5
EB
330
1F
100
AcDbEntity
  8
0
  6
Continuous
 62
     7
370
    25
100
AcDbLine
 10
10.2098261512
 20
0.8050705331
 30
0.0
 11
10.2098261512
 21
0.777100587
 31
0.0
  0
LINE
  5
EC
330
1F
100
AcDbEntity
  8
0
  6
Continuous
 62
     7
370
    25
100
AcDbLine
 10
10.2098261512
 20
0.777100587
 30
0.0
 11
10.181856205
 21
0.777100587
 31
0.0
  0
LINE
  5
ED
330
1F
100
AcDbEntity
  8
0
  6
Continuous
 62
     7
370
    25
100
AcDbLine
 10
10.181856205
 20
0.777100587
 30
0.0
 11
10.181856205
 21
0.7520780624
 31
0.0
  0
LINE
  5
EE
330
1F
100
AcDbEntity
  8
0
  6
Continuous
 62
     7
370
    25
100
AcDbLine
 10
10.181856205
 20
0.7520780624
 30
0.0
 11
10.2098261512
 21
0.7520780624
 31
0.0
  0
LINE
  5
EF
330
1F
100
AcDbEntity
  8
0
  6
Continuous
 62
     7
370
    25
100
AcDbLine
 10
10.2098261512
 20
0.7520780624
 30
0.0
 11
10.2098261512
 21
0.7241081163
 31
0.0
  0
LINE
  5
F0
330
1F
100
AcDbEntity
  8
0
  6
Continuous
 62
     7
370
    25
100
AcDbLine
 10
10.522392871
 20
2.4967620717
 30
0.0
 11
10.5474153955
 21
2.4967620717
 31
0.0
  0
LINE
  5
F1
330
1F
100
AcDbEntity
  8
0
  6
Continuous
 62
     7
370
    25
100
AcDbLine
 10
10.5474153955
 20
2.4967620717
 30
0.0
 11
10.5474153955
 21
2.5247320179
 31
0.0
  0
LINE
  5
F2
330
1F
100
AcDbEntity
  8
0
  6
Continuous
 62
     7
370
    25
100
AcDbLine
 10
10.5474153955
 20
2.5247320179
 30
0.0
 11
10.5753853417
 21
2.5247320179
 31
0.0
  0
LINE
  5
F3
330
1F
100
AcDbEntity
  8
0
  6
Continuous
 62
     7
370
    25
100
AcDbLine
 10
10.5753853417
 20
2.5247320179
 30
0.0
 11
10.5753853417
 21
2.5497545424
 31
0.0
  0
LINE
  5
F4
330
1F
100
AcDbEntity
  8
0
  6
Continuous
 62
     7
370
    25
100
AcDbLine
 10
10.5753853417
 20
2.5497545424
 30
0.0
 11
10.5474153955
 21
2.5497545424
 31
0.0
  0
LINE
  5
F5
330
1F
100
AcDbEntity
  8
0
  6
Continuous
 62
     7
370
    25
100
AcDbLine
 10
10.5474153955
 20
2.5497545424
 30
0.0
 11
10.5474153955
 21
2.5777244885
 31
0.0
  0
LINE
  5
F6
330
1F
100
AcDbEntity
  8
0
  6
Continuous
 62
     7
370
    25
100
AcDbLine
 10
10.5474153955
 20
2.5777244885
 30
0.0
 11
10.522392871
 21
2.5777244885
 31
0.0
  0
LINE
  5
F7
330
1F
100
AcDbEntity
  8
0
  6
Continuous
 62
     7
370
    25
100
AcDbLine
 10
10.522392871
 20
2.5777244885
 30
0.0
 11
10.522392871
 21
2.5497545424
 31
0.0
  0
LINE
  5
F8
330
1F
100
AcDbEntity
  8
0
  6
Continuous
 62
     7
370
    25
100
AcDbLine
 10
10.522392871
 20
2.5497545424
 30
0.0
 11
10.4944229248
 21
2.5497545424
 31
0.0
  0
LINE
  5
F9
330
1F
100
AcDbEntity
  8
0
  6
Continuous
 62
     7
370
    25
100
AcDbLine
 10
10.4944229248
 20
2.5497545424
 30
0.0
 11
10.4944229248
 21
2.5247320179
 31
0.0
  0
LINE
  5
FA
330
1F
100
AcDbEntity
  8
0
  6
Continuous
 62
     7
370
    25
100
AcDbLine
 10
10.4944229248
 20
2.5247320179
 30
0.0
 11
10.522392871
 21
2.5247320179
 31
0.0
  0
LINE
  5
FB
330
1F
100
AcDbEntity
  8
0
  6
Continuous
 62
     7
370
    25
100
AcDbLine
 10
10.522392871
 20
2.5247320179
 30
0.0
 11
10.522392871
 21
2.4967620717
 31
0.0
  0
LINE
  5
FC
330
1F
100
AcDbEntity
  8
0
  6
Continuous
 62
     7
370
    25
100
AcDbLine
 10
10.4970237926
 20
1.9341182844
 30
0.0
 11
10.4690538464
 21
1.9341182844
 31
0.0
  0
LINE
  5
FD
330
1F
100
AcDbEntity
  8
0
  6
Continuous
 62
     7
370
    25
100
AcDbLine
 10
10.4690538464
 20
1.9341182844
 30
0.0
 11
10.4690538464
 21
1.9620882306
 31
0.0
  0
LINE
  5
FE
330
1F
100
AcDbEntity
  8
0
  6
Continuous
 62
     7
370
    25
100
AcDbLine
 10
10.4690538464
 20
1.9620882306
 30
0.0
 11
10.4440313219
 21
1.9620882306
 31
0.0
  0
LINE
  5
FF
330
1F
100
AcDbEntity
  8
0
  6
Continuous
 62
     7
370
    25
100
AcDbLine
 10
10.4440313219
 20
1.9620882306
 30
0.0
 11
10.4440313219
 21
1.9341182844
 31
0.0
  0
LINE
  5
100
330
1F
100
AcDbEntity
  8
0
  6
Continuous
 62
     7
370
    25
100
AcDbLine
 10
10.4440313219
 20
1.9341182844
 30
0.0
 11
10.4160613757
 21
1.9341182844
 31
0.0
  0
LINE
  5
101
330
1F
100
AcDbEntity
  8
0
  6
Continuous
 62
     7
370
    25
100
AcDbLine
 10
10.4160613757
 20
1.9341182844
 30
0.0
 11
10.4160613757
 21
1.9090957599
 31
0.0
  0
LINE
  5
102
330
1F
100
AcDbEntity
  8
0
  6
Continuous
 62
     7
370
    25
100
AcDbLine
 10
10.4160613757
 20
1.9090957599
 30
0.0
 11
10.4440313219
 21
1.9090957599
 31
0.0
  0
LINE
  5
103
330
1F
100
AcDbEntity
  8
0
  6
Continuous
 62
     7
370
    25
100
AcDbLine
 10
10.4440313219
 20
1.9090957599
 30
0.0
 11
10.4440313219
 21
1.8811258137
 31
0.0
  0
LINE
  5
104
330
1F
100
AcDbEntity
  8
0
  6
Continuous
 62
     7
370
    25
100
AcDbLine
 10
10.4440313219
 20
1.8811258137
 30
0.0
 11
10.4690538464
 21
1.8811258137
 31
0.0
  0
LINE
  5
105
330
1F
100
AcDbEntity
  8
0
  6
Continuous
 62
     7
370
    25
100
AcDbLine
 10
10.4690538464
 20
1.8811258137
 30
0.0
 11
10.4690538464
 21
1.9090957599
 31
0.0
  0
LINE
  5
106
330
1F
100
AcDbEntity
  8
0
  6
Continuous
 62
     7
370
    25
100
AcDbLine
 10
10.4690538464
 20
1.9090957599
 30
0.0
 11
10.4970237926
 21
1.9090957599
 31
0.0
  0
LINE
  5
107
330
1F
100
AcDbEntity
  8
0
  6
Continuous
 62
     7
370
    25
100
AcDbLine
 10
10.4970237926
 20
1.9090957599
 30
0.0
 11
10.4970237926
 21
1.9341182844
 31
0.0
  0
LINE
  5
108
330
1F
100
AcDbEntity
  8
0
  6
Continuous
 62
     7
370
    25
100
AcDbLine
 10
10.38847051
 20
1.3184820264
 30
0.0
 11
10.3605005638
 21
1.3184820264
 31
0.0
  0
LINE
  5
109
330
1F
100
AcDbEntity
  8
0
  6
Continuous
 62
     7
370
    25
100
AcDbLine
 10
10.3605005638
 20
1.3184820264
 30
0.0
 11
10.3605005638
 21
1.3464519726
 31
0.0
  0
LINE
  5
10A
330
1F
100
AcDbEntity
  8
0
  6
Continuous
 62
     7
370
    25
100
AcDbLine
 10
10.3605005638
 20
1.3464519726
 30
0.0
 11
10.3354780393
 21
1.3464519726
 31
0.0
  0
LINE
  5
10B
330
1F
100
AcDbEntity
  8
0
  6
Continuous
 62
     7
370
    25
100
AcDbLine
 10
10.3354780393
 20
1.3464519726
 30
0.0
 11
10.3354780393
 21
1.3184820264
 31
0.0
  0
LINE
  5
10C
330
1F
100
AcDbEntity
  8
0
  6
Continuous
 62
     7
370
    25
100
AcDbLine
 10
10.3354780393
 20
1.3184820264
 30
0.0
 11
10.3075080932
 21
1.3184820264
 31
0.0
  0
LINE
  5
10D
330
1F
100
AcDbEntity
  8
0
  6
Continuous
 62
     7
370
    25
100
AcDbLine
 10
10.3075080932
 20
1.3184820264
 30
0.0
 11
10.3075080932
 21
1.2934595019
 31
0.0
  0
LINE
  5
10E
330
1F
100
AcDbEntity
  8
0
  6
Continuous
 62
     7
370
    25
100
AcDbLine
 10
10.3075080932
 20
1.2934595019
 30
0.0
 11
10.3354780393
 21
1.2934595019
 31
0.0
  0
LINE
  5
10F
330
1F
100
AcDbEntity
  8
0
  6
Continuous
 62
     7
370
    25
100
AcDbLine
 10
10.3354780393
 20
1.2934595019
 30
0.0
 11
10.3354780393
 21
1.2654895557
 31
0.0
  0
LINE
  5
110
330
1F
100
AcDbEntity
  8
0
  6
Continuous
 62
     7
370
    25
100
AcDbLine
 10
10.3354780393
 20
1.2654895557
 30
0.0
 11
10.3605005638
 21
1.2654895557
 31
0.0
  0
LINE
  5
111
330
1F
100
AcDbEntity
  8
0
  6
Continuous
 62
     7
370
    25
100
AcDbLine
 10
10.3605005638
 20
1.2654895557
 30
0.0
 11
10.3605005638
 21
1.2934595019
 31
0.0
  0
LINE
  5
112
330
1F
100
AcDbEntity
  8
0
  6
Continuous
 62
     7
370
    25
100
AcDbLine
 10
10.3605005638
 20
1.2934595019
 30
0.0
 11
10.38847051
 21
1.2934595019
 31
0.0
  0
LINE
  5
113
330
1F
100
AcDbEntity
  8
0
  6
Continuous
 62
     7
370
    25
100
AcDbLine
 10
10.38847051
 20
1.2934595019
 30
0.0
 11
10.38847051
 21
1.3184820264
 31
0.0
  0
LINE
  5
114
330
1F
100
AcDbEntity
  8
0
  6
Continuous
 62
     7
370
    25
100
AcDbLine
 10
10.0759037902
 20
0.777100587
 30
0.0
 11
10.047933844
 21
0.777100587
 31
0.0
  0
LINE
  5
115
330
1F
100
AcDbEntity
  8
0
  6
Continuous
 62
     7
370
    25
100
AcDbLine
 10
10.047933844
 20
0.777100587
 30
0.0
 11
10.047933844
 21
0.8050705331
 31
0.0
  0
LINE
  5
116
330
1F
100
AcDbEntity
  8
0
  6
Continuous
 62
     7
370
    25
100
AcDbLine
 10
10.047933844
 20
0.8050705331
 30
0.0
 11
10.0229113195
 21
0.8050705331
 31
0.0
  0
LINE
  5
117
330
1F
100
AcDbEntity
  8
0
  6
Continuous
 62
     7
370
    25
100
AcDbLine
 10
10.0229113195
 20
0.8050705331
 30
0.0
 11
10.0229113195
 21
0.777100587
 31
0.0
  0
LINE
  5
118
330
1F
100
AcDbEntity
  8
0
  6
Continuous
 62
     7
370
    25
100
AcDbLine
 10
10.0229113195
 20
0.777100587
 30
0.0
 11
9.9949413734
 21
0.777100587
 31
0.0
  0
LINE
  5
119
330
1F
100
AcDbEntity
  8
0
  6
Continuous
 62
     7
370
    25
100
AcDbLine
 10
9.9949413734
 20
0.777100587
 30
0.0
 11
9.9949413734
 21
0.7520780624
 31
0.0
  0
LINE
  5
11A
330
1F
100
AcDbEntity
  8
0
  6
Continuous
 62
     7
370
    25
100
AcDbLine
 10
9.9949413734
 20
0.7520780624
 30
0.0
 11
10.0229113195
 21
0.7520780624
 31
0.0
  0
LINE
  5
11B
330
1F
100
AcDbEntity
  8
0
  6
Continuous
 62
     7
370
    25
100
AcDbLine
 10
10.0229113195
 20
0.7520780624
 30
0.0
 11
10.0229113195
 21
0.7241081163
 31
0.0
  0
LINE
  5
11C
330
1F
100
AcDbEntity
  8
0
  6
Continuous
 62
     7
370
    25
100
AcDbLine
 10
10.0229113195
 20
0.7241081163
 30
0.0
 11
10.047933844
 21
0.7241081163
 31
0.0
  0
LINE
  5
11D
330
1F
100
AcDbEntity
  8
0
  6
Continuous
 62
     7
370
    25
100
AcDbLine
 10
10.047933844
 20
0.7241081163
 30
0.0
 11
10.047933844
 21
0.7520780624
 31
0.0
  0
LINE
  5
11E
330
1F
100
AcDbEntity
  8
0
  6
Continuous
 62
     7
370
    25
100
AcDbLine
 10
10.047933844
 20
0.7520780624
 30
0.0
 11
10.0759037902
 21
0.7520780624
 31
0.0
  0
LINE
  5
11F
330
1F
100
AcDbEntity
  8
0
  6
Continuous
 62
     7
370
    25
100
AcDbLine
 10
10.0759037902
 20
0.7520780624
 30
0.0
 11
10.0759037902
 21
0.777100587
 31
0.0
  0
LINE
  5
120
330
1F
100
AcDbEntity
  8
0
  6
Continuous
 62
     7
370
    25
100
AcDbLine
 10
10.38847051
 20
2.5497545424
 30
0.0
 11
10.3605005638
 21
2.5497545424
 31
0.0
  0
LINE
  5
121
330
1F
100
AcDbEntity
  8
0
  6
Continuous
 62
     7
370
    25
100
AcDbLine
 10
10.3605005638
 20
2.5497545424
 30
0.0
 11
10.3605005638
 21
2.5777244885
 31
0.0
  0
LINE
  5
122
330
1F
100
AcDbEntity
  8
0
  6
Continuous
 62
     7
370
    25
100
AcDbLine
 10
10.3605005638
 20
2.5777244885
 30
0.0
 11
10.3354780393
 21
2.5777244885
 31
0.0
  0
LINE
  5
123
330
1F
100
AcDbEntity
  8
0
  6
Continuous
 62
     7
370
    25
100
AcDbLine
 10
10.3354780393
 20
2.5777244885
 30
0.0
 11
10.3354780393
 21
2.5497545424
 31
0.0
  0
LINE
  5
124
330
1F
100
AcDbEntity
  8
0
  6
Continuous
 62
     7
370
    25
100
AcDbLine
 10
10.3354780393
 20
2.5497545424
 30
0.0
 11
10.3075080932
 21
2.5497545424
 31
0.0
  0
LINE
  5
125
330
1F
100
AcDbEntity
  8
0
  6
Continuous
 62
     7
370
    25
100
AcDbLine
 10
10.3075080932
 20
2.5497545424
 30
0.0
 11
10.3075080932
 21
2.5247320179
 31
0.0
  0
LINE
  5
126
330
1F
100
AcDbEntity
  8
0
  6
Continuous
 62
     7
370
    25
100
AcDbLine
 10
10.3075080932
 20
2.5247320179
 30
0.0
 11
10.3354780393
 21
2.5247320179
 31
0.0
  0
LINE
  5
127
330
1F
100
AcDbEntity
  8
0
  6
Continuous
 62
     7
370
    25
100
AcDbLine
 10
10.3354780393
 20
2.5247320179
 30
0.0
 11
10.3354780393
 21
2.4967620717
 31
0.0
  0
LINE
  5
128
330
1F
100
AcDbEntity
  8
0
  6
Continuous
 62
     7
370
    25
100
AcDbLine
 10
10.3354780393
 20
2.4967620717
 30
0.0
 11
10.3605005638
 21
2.4967620717
 31
0.0
  0
LINE
  5
129
330
1F
100
AcDbEntity
  8
0
  6
Continuous
 62
     7
370
    25
100
AcDbLine
 10
10.3605005638
 20
2.4967620717
 30
0.0
 11
10.3605005638
 21
2.5247320179
 31
0.0
  0
LINE
  5
12A
330
1F
100
AcDbEntity
  8
0
  6
Continuous
 62
     7
370
    25
100
AcDbLine
 10
10.3605005638
 20
2.5247320179
 30
0.0
 11
10.38847051
 21
2.5247320179
 31
0.0
  0
LINE
  5
12B
330
1F
100
AcDbEntity
  8
0
  6
Continuous
 62
     7
370
    25
100
AcDbLine
 10
10.38847051
 20
2.5247320179
 30
0.0
 11
10.38847051
 21
2.5497545424
 31
0.0
  0
LINE
  5
12C
330
1F
100
AcDbEntity
  8
0
  6
Continuous
 62
     7
370
    25
100
AcDbLine
 10
10.4160568567
 20
2.6053108353
 30
0.0
 11
10.4160568567
 21
2.469175725
 31
0.0
  0
LINE
  5
12D
330
1F
100
AcDbEntity
  8
0
  6
Continuous
 62
     7
370
    25
100
AcDbLine
 10
10.4160568567
 20
2.469175725
 30
0.0
 11
10.2799217464
 21
2.469175725
 31
0.0
  0
LINE
  5
12E
330
1F
100
AcDbEntity
  8
0
  6
Continuous
 62
     7
370
    25
100
AcDbLine
 10
10.2799217464
 20
2.469175725
 30
0.0
 11
10.2799217464
 21
2.5084194829
 31
0.0
  0
LINE
  5
12F
330
1F
100
AcDbEntity
  8
0
  6
Continuous
 62
     7
370
    25
100
AcDbLine
 10
10.2799217464
 20
2.5084194829
 30
0.0
 11
10.2549242163
 21
2.5084194829
 31
0.0
  0
LINE
  5
130
330
1F
100
AcDbEntity
  8
0
  6
Continuous
 62
     7
370
    25
100
AcDbLine
 10
10.2549242163
 20
2.5084194829
 30
0.0
 11
10.2549242163
 21
2.3791522457
 31
0.0
  0
LINE
  5
131
330
1F
100
AcDbEntity
  8
0
  6
Continuous
 62
     7
370
    25
100
AcDbLine
 10
10.2549242163
 20
2.3791522457
 30
0.0
 11
10.2799217464
 21
2.3791522457
 31
0.0
  0
LINE
  5
132
330
1F
100
AcDbEntity
  8
0
  6
Continuous
 62
     7
370
    25
100
AcDbLine
 10
10.2799217464
 20
2.3791522457
 30
0.0
 11
10.2799217464
 21
2.4183960036
 31
0.0
  0
LINE
  5
133
330
1F
100
AcDbEntity
  8
0
  6
Continuous
 62
     7
370
    25
100
AcDbLine
 10
10.2799217464
 20
2.4183960036
 30
0.0
 11
10.4160568567
 21
2.4183960036
 31
0.0
  0
LINE
  5
134
330
1F
100
AcDbEntity
  8
0
  6
Continuous
 62
     7
370
    25
100
AcDbLine
 10
10.4160568567
 20
2.4183960036
 30
0.0
 11
10.4160568567
 21
2.2822608933
 31
0.0
  0
LINE
  5
135
330
1F
100
AcDbEntity
  8
0
  6
Continuous
 62
     7
370
    25
100
AcDbLine
 10
10.4160568567
 20
2.2822608933
 30
0.0
 11
10.3768130988
 21
2.2822608933
 31
0.0
  0
LINE
  5
136
330
1F
100
AcDbEntity
  8
0
  6
Continuous
 62
     7
370
    25
100
AcDbLine
 10
10.3768130988
 20
2.2822608933
 30
0.0
 11
10.3768130988
 21
2.2572633632
 31
0.0
  0
LINE
  5
137
330
1F
100
AcDbEntity
  8
0
  6
Continuous
 62
     7
370
    25
100
AcDbLine
 10
10.3768130988
 20
2.2572633632
 30
0.0
 11
10.506080336
 21
2.2572633632
 31
0.0
  0
LINE
  5
138
330
1F
100
AcDbEntity
  8
0
  6
Continuous
 62
     7
370
    25
100
AcDbLine
 10
10.506080336
 20
2.2572633632
 30
0.0
 11
10.506080336
 21
2.2822608933
 31
0.0
  0
LINE
  5
139
330
1F
100
AcDbEntity
  8
0
  6
Continuous
 62
     7
370
    25
100
AcDbLine
 10
10.506080336
 20
2.2822608933
 30
0.0
 11
10.4668365781
 21
2.2822608933
 31
0.0
  0
LINE
  5
13A
330
1F
100
AcDbEntity
  8
0
  6
Continuous
 62
     7
370
    25
100
AcDbLine
 10
10.4668365781
 20
2.2822608933
 30
0.0
 11
10.4668365781
 21
2.4183960036
 31
0.0
  0
LINE
  5
13B
330
1F
100
AcDbEntity
  8
0
  6
Continuous
 62
     7
370
    25
100
AcDbLine
 10
10.4668365781
 20
2.4183960036
 30
0.0
 11
10.6029716884
 21
2.4183960036
 31
0.0
  0
LINE
  5
13C
330
1F
100
AcDbEntity
  8
0
  6
Continuous
 62
     7
370
    25
100
AcDbLine
 10
10.6029716884
 20
2.4183960036
 30
0.0
 11
10.6029716884
 21
2.3791522457
 31
0.0
  0
LINE
  5
13D
330
1F
100
AcDbEntity
  8
0
  6
Continuous
 62
     7
370
    25
100
AcDbLine
 10
10.6029716884
 20
2.3791522457
 30
0.0
 11
10.6279692185
 21
2.3791522457
 31
0.0
  0
LINE
  5
13E
330
1F
100
AcDbEntity
  8
0
  6
Continuous
 62
     7
370
    25
100
AcDbLine
 10
10.6279692185
 20
2.3791522457
 30
0.0
 11
10.6279692185
 21
2.5084194829
 31
0.0
  0
LINE
  5
13F
330
1F
100
AcDbEntity
  8
0
  6
Continuous
 62
     7
370
    25
100
AcDbLine
 10
10.6279692185
 20
2.5084194829
 30
0.0
 11
10.6029716884
 21
2.5084194829
 31
0.0
  0
LINE
  5
140
330
1F
100
AcDbEntity
  8
0
  6
Continuous
 62
     7
370
    25
100
AcDbLine
 10
10.6029716884
 20
2.5084194829
 30
0.0
 11
10.6029716884
 21
2.469175725
 31
0.0
  0
LINE
  5
141
330
1F
100
AcDbEntity
  8
0
  6
Continuous
 62
     7
370
    25
100
AcDbLine
 10
10.6029716884
 20
2.469175725
 30
0.0
 11
10.4668365781
 21
2.469175725
 31
0.0
  0
LINE
  5
142
330
1F
100
AcDbEntity
  8
0
  6
Continuous
 62
     7
370
    25
100
AcDbLine
 10
10.4668365781
 20
2.469175725
 30
0.0
 11
10.4668365781
 21
2.6053108353
 31
0.0
  0
LINE
  5
143
330
1F
100
AcDbEntity
  8
0
  6
Continuous
 62
     7
370
    25
100
AcDbLine
 10
10.4668365781
 20
2.6053108353
 30
0.0
 11
10.506080336
 21
2.6053108353
 31
0.0
  0
LINE
  5
144
330
1F
100
AcDbEntity
  8
0
  6
Continuous
 62
     7
370
    25
100
AcDbLine
 10
10.506080336
 20
2.6053108353
 30
0.0
 11
10.506080336
 21
2.6303083654
 31
0.0
  0
LINE
  5
145
330
1F
100
AcDbEntity
  8
0
  6
Continuous
 62
     7
370
    25
100
AcDbLine
 10
10.506080336
 20
2.6303083654
 30
0.0
 11
10.3768130988
 21
2.6303083654
 31
0.0
  0
LINE
  5
146
330
1F
100
AcDbEntity
  8
0
  6
Continuous
 62
     7
370
    25
100
AcDbLine
 10
10.3768130988
 20
2.6303083654
 30
0.0
 11
10.3768130988
 21
2.6053108353
 31
0.0
  0
LINE
  5
147
330
1F
100
AcDbEntity
  8
0
  6
Continuous
 62
     7
370
    25
100
AcDbLine
 10
10.3768130988
 20
2.6053108353
 30
0.0
 11
10.4160568567
 21
2.6053108353
 31
0.0
  0
LINE
  5
148
330
1F
100
AcDbEntity
  8
0
  6
Continuous
 62
     7
370
    25
100
AcDbLine
 10
10.1034901369
 20
0.8326568799
 30
0.0
 11
10.1034901369
 21
0.6965217695
 31
0.0
  0
LINE
  5
149
330
1F
100
AcDbEntity
  8
0
  6
Continuous
 62
     7
370
    25
100
AcDbLine
 10
10.1034901369
 20
0.6965217695
 30
0.0
 11
9.9673550266
 21
0.6965217695
 31
0.0
  0
LINE
  5
14A
330
1F
100
AcDbEntity
  8
0
  6
Continuous
 62
     7
370
    25
100
AcDbLine
 10
9.9673550266
 20
0.6965217695
 30
0.0
 11
9.9673550266
 21
0.7357655275
 31
0.0
  0
LINE
  5
14B
330
1F
100
AcDbEntity
  8
0
  6
Continuous
 62
     7
370
    25
100
AcDbLine
 10
9.9673550266
 20
0.7357655275
 30
0.0
 11
9.9423574965
 21
0.7357655275
 31
0.0
  0
LINE
  5
14C
330
1F
100
AcDbEntity
  8
0
  6
Continuous
 62
     7
370
    25
100
AcDbLine
 10
9.9423574965
 20
0.7357655275
 30
0.0
 11
9.9423574965
 21
0.6064982903
 31
0.0
  0
LINE
  5
14D
330
1F
100
AcDbEntity
  8
0
  6
Continuous
 62
     7
370
    25
100
AcDbLine
 10
9.9423574965
 20
0.6064982903
 30
0.0
 11
9.9673550266
 21
0.6064982903
 31
0.0
  0
LINE
  5
14E
330
1F
100
AcDbEntity
  8
0
  6
Continuous
 62
     7
370
    25
100
AcDbLine
 10
9.9673550266
 20
0.6064982903
 30
0.0
 11
9.9673550266
 21
0.6457420482
 31
0.0
  0
LINE
  5
14F
330
1F
100
AcDbEntity
  8
0
  6
Continuous
 62
     7
370
    25
100
AcDbLine
 10
9.9673550266
 20
0.6457420482
 30
0.0
 11
10.1034901369
 21
0.6457420482
 31
0.0
  0
LINE
  5
150
330
1F
100
AcDbEntity
  8
0
  6
Continuous
 62
     7
370
    25
100
AcDbLine
 10
10.1034901369
 20
0.6457420482
 30
0.0
 11
10.1034901369
 21
0.5096069379
 31
0.0
  0
LINE
  5
151
330
1F
100
AcDbEntity
  8
0
  6
Continuous
 62
     7
370
    25
100
AcDbLine
 10
10.1034901369
 20
0.5096069379
 30
0.0
 11
10.064246379
 21
0.5096069379
 31
0.0
  0
LINE
  5
152
330
1F
100
AcDbEntity
  8
0
  6
Continuous
 62
     7
370
    25
100
AcDbLine
 10
10.064246379
 20
0.5096069379
 30
0.0
 11
10.064246379
 21
0.4846094078
 31
0.0
  0
LINE
  5
153
330
1F
100
AcDbEntity
  8
0
  6
Continuous
 62
     7
370
    25
100
AcDbLine
 10
10.064246379
 20
0.4846094078
 30
0.0
 11
10.1935136162
 21
0.4846094078
 31
0.0
  0
LINE
  5
154
330
1F
100
AcDbEntity
  8
0
  6
Continuous
 62
     7
370
    25
100
AcDbLine
 10
10.1935136162
 20
0.4846094078
 30
0.0
 11
10.1935136162
 21
0.5096069379
 31
0.0
  0
LINE
  5
155
330
1F
100
AcDbEntity
  8
0
  6
Continuous
 62
     7
370
    25
100
AcDbLine
 10
10.1935136162
 20
0.5096069379
 30
0.0
 11
10.1542698583
 21
0.5096069379
 31
0.0
  0
LINE
  5
156
330
1F
100
AcDbEntity
  8
0
  6
Continuous
 62
     7
370
    25
100
AcDbLine
 10
10.1542698583
 20
0.5096069379
 30
0.0
 11
10.1542698583
 21
0.6457420482
 31
0.0
  0
LINE
  5
157
330
1F
100
AcDbEntity
  8
0
  6
Continuous
 62
     7
370
    25
100
AcDbLine
 10
10.1542698583
 20
0.6457420482
 30
0.0
 11
10.2904049686
 21
0.6457420482
 31
0.0
  0
LINE
  5
158
330
1F
100
AcDbEntity
  8
0
  6
Continuous
 62
     7
370
    25
100
AcDbLine
 10
10.2904049686
 20
0.6457420482
 30
0.0
 11
10.2904049686
 21
0.6064982903
 31
0.0
  0
LINE
  5
159
330
1F
100
AcDbEntity
  8
0
  6
Continuous
 62
     7
370
    25
100
AcDbLine
 10
10.2904049686
 20
0.6064982903
 30
0.0
 11
10.3154024987
 21
0.6064982903
 31
0.0
  0
LINE
  5
15A
330
1F
100
AcDbEntity
  8
0
  6
Continuous
 62
     7
370
    25
100
AcDbLine
 10
10.3154024987
 20
0.6064982903
 30
0.0
 11
10.3154024987
 21
0.7357655275
 31
0.0
  0
LINE
  5
15B
330
1F
100
AcDbEntity
  8
0
  6
Continuous
 62
     7
370
    25
100
AcDbLine
 10
10.3154024987
 20
0.7357655275
 30
0.0
 11
10.2904049686
 21
0.7357655275
 31
0.0
  0
LINE
  5
15C
330
1F
100
AcDbEntity
  8
0
  6
Continuous
 62
     7
370
    25
100
AcDbLine
 10
10.2904049686
 20
0.7357655275
 30
0.0
 11
10.2904049686
 21
0.6965217695
 31
0.0
  0
LINE
  5
15D
330
1F
100
AcDbEntity
  8
0
  6
Continuous
 62
     7
370
    25
100
AcDbLine
 10
10.2904049686
 20
0.6965217695
 30
0.0
 11
10.1542698583
 21
0.6965217695
 31
0.0
  0
LINE
  5
15E
330
1F
100
AcDbEntity
  8
0
  6
Continuous
 62
     7
370
    25
100
AcDbLine
 10
10.1542698583
 20
0.6965217695
 30
0.0
 11
10.1542698583
 21
0.8326568799
 31
0.0
  0
LINE
  5
15F
330
1F
100
AcDbEntity
  8
0
  6
Continuous
 62
     7
370
    25
100
AcDbLine
 10
10.1542698583
 20
0.8326568799
 30
0.0
 11
10.1935136162
 21
0.8326568799
 31
0.0
  0
LINE
  5
160
330
1F
100
AcDbEntity
  8
0
  6
Continuous
 62
     7
370
    25
100
AcDbLine
 10
10.1935136162
 20
0.8326568799
 30
0.0
 11
10.1935136162
 21
0.8576544099
 31
0.0
  0
LINE
  5
161
330
1F
100
AcDbEntity
  8
0
  6
Continuous
 62
     7
370
    25
100
AcDbLine
 10
10.1935136162
 20
0.8576544099
 30
0.0
 11
10.064246379
 21
0.8576544099
 31
0.0
  0
LINE
  5
162
330
1F
100
AcDbEntity
  8
0
  6
Continuous
 62
     7
370
    25
100
AcDbLine
 10
10.064246379
 20
0.8576544099
 30
0.0
 11
10.064246379
 21
0.8326568799
 31
0.0
  0
LINE
  5
163
330
1F
100
AcDbEntity
  8
0
  6
Continuous
 62
     7
370
    25
100
AcDbLine
 10
10.064246379
 20
0.8326568799
 30
0.0
 11
10.1034901369
 21
0.8326568799
 31
0.0
  0
LINE
  5
164
330
1F
100
AcDbEntity
  8
0
  6
Continuous
 62
     7
370
    25
100
AcDbLine
 10
10.4160568567
 20
1.3740383193
 30
0.0
 11
10.4160568567
 21
1.237903209
 31
0.0
  0
LINE
  5
165
330
1F
100
AcDbEntity
  8
0
  6
Continuous
 62
     7
370
    25
100
AcDbLine
 10
10.4160568567
 20
1.237903209
 30
0.0
 11
10.2799217464
 21
1.237903209
 31
0.0
  0
LINE
  5
166
330
1F
100
AcDbEntity
  8
0
  6
Continuous
 62
     7
370
    25
100
AcDbLine
 10
10.2799217464
 20
1.237903209
 30
0.0
 11
10.2799217464
 21
1.2771469669
 31
0.0
  0
LINE
  5
167
330
1F
100
AcDbEntity
  8
0
  6
Continuous
 62
     7
370
    25
100
AcDbLine
 10
10.2799217464
 20
1.2771469669
 30
0.0
 11
10.2549242163
 21
1.2771469669
 31
0.0
  0
LINE
  5
168
330
1F
100
AcDbEntity
  8
0
  6
Continuous
 62
     7
370
    25
100
AcDbLine
 10
10.2549242163
 20
1.2771469669
 30
0.0
 11
10.2549242163
 21
1.1478797297
 31
0.0
  0
LINE
  5
169
330
1F
100
AcDbEntity
  8
0
  6
Continuous
 62
     7
370
    25
100
AcDbLine
 10
10.2549242163
 20
1.1478797297
 30
0.0
 11
10.2799217464
 21
1.1478797297
 31
0.0
  0
LINE
  5
16A
330
1F
100
AcDbEntity
  8
0
  6
Continuous
 62
     7
370
    25
100
AcDbLine
 10
10.2799217464
 20
1.1478797297
 30
0.0
 11
10.2799217464
 21
1.1871234876
 31
0.0
  0
LINE
  5
16B
330
1F
100
AcDbEntity
  8
0
  6
Continuous
 62
     7
370
    25
100
AcDbLine
 10
10.2799217464
 20
1.1871234876
 30
0.0
 11
10.4160568567
 21
1.1871234876
 31
0.0
  0
LINE
  5
16C
330
1F
100
AcDbEntity
  8
0
  6
Continuous
 62
     7
370
    25
100
AcDbLine
 10
10.4160568567
 20
1.1871234876
 30
0.0
 11
10.4160568567
 21
1.0509883773
 31
0.0
  0
LINE
  5
16D
330
1F
100
AcDbEntity
  8
0
  6
Continuous
 62
     7
370
    25
100
AcDbLine
 10
10.4160568567
 20
1.0509883773
 30
0.0
 11
10.3768130988
 21
1.0509883773
 31
0.0
  0
LINE
  5
16E
330
1F
100
AcDbEntity
  8
0
  6
Continuous
 62
     7
370
    25
100
AcDbLine
 10
10.3768130988
 20
1.0509883773
 30
0.0
 11
10.3768130988
 21
1.0259908472
 31
0.0
  0
LINE
  5
16F
330
1F
100
AcDbEntity
  8
0
  6
Continuous
 62
     7
370
    25
100
AcDbLine
 10
10.3768130988
 20
1.0259908472
 30
0.0
 11
10.506080336
 21
1.0259908472
 31
0.0
  0
LINE
  5
170
330
1F
100
AcDbEntity
  8
0
  6
Continuous
 62
     7
370
    25
100
AcDbLine
 10
10.506080336
 20
1.0259908472
 30
0.0
 11
10.506080336
 21
1.0509883773
 31
0.0
  0
LINE
  5
171
330
1F
100
AcDbEntity
  8
0
  6
Continuous
 62
     7
370
    25
100
AcDbLine
 10
10.506080336
 20
1.0509883773
 30
0.0
 11
10.4668365781
 21
1.0509883773
 31
0.0
  0
LINE
  5
172
330
1F
100
AcDbEntity
  8
0
  6
Continuous
 62
     7
370
    25
100
AcDbLine
 10
10.4668365781
 20
1.0509883773
 30
0.0
 11
10.4668365781
 21
1.1871234876
 31
0.0
  0
LINE
  5
173
330
1F
100
AcDbEntity
  8
0
  6
Continuous
 62
     7
370
    25
100
AcDbLine
 10
10.4668365781
 20
1.1871234876
 30
0.0
 11
10.6029716884
 21
1.1871234876
 31
0.0
  0
LINE
  5
174
330
1F
100
AcDbEntity
  8
0
  6
Continuous
 62
     7
370
    25
100
AcDbLine
 10
10.6029716884
 20
1.1871234876
 30
0.0
 11
10.6029716884
 21
1.1478797297
 31
0.0
  0
LINE
  5
175
330
1F
100
AcDbEntity
  8
0
  6
Continuous
 62
     7
370
    25
100
AcDbLine
 10
10.6029716884
 20
1.1478797297
 30
0.0
 11
10.6279692185
 21
1.1478797297
 31
0.0
  0
LINE
  5
176
330
1F
100
AcDbEntity
  8
0
  6
Continuous
 62
     7
370
    25
100
AcDbLine
 10
10.6279692185
 20
1.1478797297
 30
0.0
 11
10.6279692185
 21
1.2771469669
 31
0.0
  0
LINE
  5
177
330
1F
100
AcDbEntity
  8
0
  6
Continuous
 62
     7
370
    25
100
AcDbLine
 10
10.6279692185
 20
1.2771469669
 30
0.0
 11
10.6029716884
 21
1.2771469669
 31
0.0
  0
LINE
  5
178
330
1F
100
AcDbEntity
  8
0
  6
Continuous
 62
     7
370
    25
100
AcDbLine
 10
10.6029716884
 20
1.2771469669
 30
0.0
 11
10.6029716884
 21
1.237903209
 31
0.0
  0
LINE
  5
179
330
1F
100
AcDbEntity
  8
0
  6
Continuous
 62
     7
370
    25
100
AcDbLine
 10
10.6029716884
 20
1.237903209
 30
0.0
 11
10.4668365781
 21
1.237903209
 31
0.0
  0
LINE
  5
17A
330
1F
100
AcDbEntity
  8
0
  6
Continuous
 62
     7
370
    25
100
AcDbLine
 10
10.4668365781
 20
1.237903209
 30
0.0
 11
10.4668365781
 21
1.3740383193
 31
0.0
  0
LINE
  5
17B
330
1F
100
AcDbEntity
  8
0
  6
Continuous
 62
     7
370
    25
100
AcDbLine
 10
10.4668365781
 20
1.3740383193
 30
0.0
 11
10.506080336
 21
1.3740383193
 31
0.0
  0
LINE
  5
17C
330
1F
100
AcDbEntity
  8
0
  6
Continuous
 62
     7
370
    25
100
AcDbLine
 10
10.506080336
 20
1.3740383193
 30
0.0
 11
10.506080336
 21
1.3990358494
 31
0.0
  0
LINE
  5
17D
330
1F
100
AcDbEntity
  8
0
  6
Continuous
 62
     7
370
    25
100
AcDbLine
 10
10.506080336
 20
1.3990358494
 30
0.0
 11
10.3768130988
 21
1.3990358494
 31
0.0
  0
LINE
  5
17E
330
1F
100
AcDbEntity
  8
0
  6
Continuous
 62
     7
370
    25
100
AcDbLine
 10
10.3768130988
 20
1.3990358494
 30
0.0
 11
10.3768130988
 21
1.3740383193
 31
0.0
  0
LINE
  5
17F
330
1F
100
AcDbEntity
  8
0
  6
Continuous
 62
     7
370
    25
100
AcDbLine
 10
10.3768130988
 20
1.3740383193
 30
0.0
 11
10.4160568567
 21
1.3740383193
 31
0.0
  0
LINE
  5
180
330
1F
100
AcDbEntity
  8
0
  6
Continuous
 62
     7
370
    25
100
AcDbLine
 10
10.5246101393
 20
1.9896745773
 30
0.0
 11
10.5246101393
 21
1.853539467
 31
0.0
  0
LINE
  5
181
330
1F
100
AcDbEntity
  8
0
  6
Continuous
 62
     7
370
    25
100
AcDbLine
 10
10.5246101393
 20
1.853539467
 30
0.0
 11
10.388475029
 21
1.853539467
 31
0.0
  0
LINE
  5
182
330
1F
100
AcDbEntity
  8
0
  6
Continuous
 62
     7
370
    25
100
AcDbLine
 10
10.388475029
 20
1.853539467
 30
0.0
 11
10.388475029
 21
1.8927832249
 31
0.0
  0
LINE
  5
183
330
1F
100
AcDbEntity
  8
0
  6
Continuous
 62
     7
370
    25
100
AcDbLine
 10
10.388475029
 20
1.8927832249
 30
0.0
 11
10.3634774989
 21
1.8927832249
 31
0.0
  0
LINE
  5
184
330
1F
100
AcDbEntity
  8
0
  6
Continuous
 62
     7
370
    25
100
AcDbLine
 10
10.3634774989
 20
1.8927832249
 30
0.0
 11
10.3634774989
 21
1.7635159877
 31
0.0
  0
LINE
  5
185
330
1F
100
AcDbEntity
  8
0
  6
Continuous
 62
     7
370
    25
100
AcDbLine
 10
10.3634774989
 20
1.7635159877
 30
0.0
 11
10.388475029
 21
1.7635159877
 31
0.0
  0
LINE
  5
186
330
1F
100
AcDbEntity
  8
0
  6
Continuous
 62
     7
370
    25
100
AcDbLine
 10
10.388475029
 20
1.7635159877
 30
0.0
 11
10.388475029
 21
1.8027597456
 31
0.0
  0
LINE
  5
187
330
1F
100
AcDbEntity
  8
0
  6
Continuous
 62
     7
370
    25
100
AcDbLine
 10
10.388475029
 20
1.8027597456
 30
0.0
 11
10.5246101393
 21
1.8027597456
 31
0.0
  0
LINE
  5
188
330
1F
100
AcDbEntity
  8
0
  6
Continuous
 62
     7
370
    25
100
AcDbLine
 10
10.5246101393
 20
1.8027597456
 30
0.0
 11
10.5246101393
 21
1.6666246353
 31
0.0
  0
LINE
  5
189
330
1F
100
AcDbEntity
  8
0
  6
Continuous
 62
     7
370
    25
100
AcDbLine
 10
10.5246101393
 20
1.6666246353
 30
0.0
 11
10.4853663814
 21
1.6666246353
 31
0.0
  0
LINE
  5
18A
330
1F
100
AcDbEntity
  8
0
  6
Continuous
 62
     7
370
    25
100
AcDbLine
 10
10.4853663814
 20
1.6666246353
 30
0.0
 11
10.4853663814
 21
1.6416271052
 31
0.0
  0
LINE
  5
18B
330
1F
100
AcDbEntity
  8
0
  6
Continuous
 62
     7
370
    25
100
AcDbLine
 10
10.4853663814
 20
1.6416271052
 30
0.0
 11
10.6146336186
 21
1.6416271052
 31
0.0
  0
LINE
  5
18C
330
1F
100
AcDbEntity
  8
0
  6
Continuous
 62
     7
370
    25
100
AcDbLine
 10
10.6146336186
 20
1.6416271052
 30
0.0
 11
10.6146336186
 21
1.6666246353
 31
0.0
  0
LINE
  5
18D
330
1F
100
AcDbEntity
  8
0
  6
Continuous
 62
     7
370
    25
100
AcDbLine
 10
10.6146336186
 20
1.6666246353
 30
0.0
 11
10.5753898607
 21
1.6666246353
 31
0.0
  0
LINE
  5
18E
330
1F
100
AcDbEntity
  8
0
  6
Continuous
 62
     7
370
    25
100
AcDbLine
 10
10.5753898607
 20
1.6666246353
 30
0.0
 11
10.5753898607
 21
1.8027597456
 31
0.0
  0
LINE
  5
18F
330
1F
100
AcDbEntity
  8
0
  6
Continuous
 62
     7
370
    25
100
AcDbLine
 10
10.5753898607
 20
1.8027597456
 30
0.0
 11
10.711524971
 21
1.8027597456
 31
0.0
  0
LINE
  5
190
330
1F
100
AcDbEntity
  8
0
  6
Continuous
 62
     7
370
    25
100
AcDbLine
 10
10.711524971
 20
1.8027597456
 30
0.0
 11
10.711524971
 21
1.7635159877
 31
0.0
  0
LINE
  5
191
330
1F
100
AcDbEntity
  8
0
  6
Continuous
 62
     7
370
    25
100
AcDbLine
 10
10.711524971
 20
1.7635159877
 30
0.0
 11
10.7365225011
 21
1.7635159877
 31
0.0
  0
LINE
  5
192
330
1F
100
AcDbEntity
  8
0
  6
Continuous
 62
     7
370
    25
100
AcDbLine
 10
10.7365225011
 20
1.7635159877
 30
0.0
 11
10.7365225011
 21
1.8927832249
 31
0.0
  0
LINE
  5
193
330
1F
100
AcDbEntity
  8
0
  6
Continuous
 62
     7
370
    25
100
AcDbLine
 10
10.7365225011
 20
1.8927832249
 30
0.0
 11
10.711524971
 21
1.8927832249
 31
0.0
  0
LINE
  5
194
330
1F
100
AcDbEntity
  8
0
  6
Continuous
 62
     7
370
    25
100
AcDbLine
 10
10.711524971
 20
1.8927832249
 30
0.0
 11
10.711524971
 21
1.853539467
 31
0.0
  0
LINE
  5
195
330
1F
100
AcDbEntity
  8
0
  6
Continuous
 62
     7
370
    25
100
AcDbLine
 10
10.711524971
 20
1.853539467
 30
0.0
 11
10.5753898607
 21
1.853539467
 31
0.0
  0
LINE
  5
196
330
1F
100
AcDbEntity
  8
0
  6
Continuous
 62
     7
370
    25
100
AcDbLine
 10
10.5753898607
 20
1.853539467
 30
0.0
 11
10.5753898607
 21
1.9896745773
 31
0.0
  0
LINE
  5
197
330
1F
100
AcDbEntity
  8
0
  6
Continuous
 62
     7
370
    25
100
AcDbLine
 10
10.5753898607
 20
1.9896745773
 30
0.0
 11
10.6146336186
 21
1.9896745773
 31
0.0
  0
LINE
  5
198
330
1F
100
AcDbEntity
  8
0
  6
Continuous
 62
     7
370
    25
100
AcDbLine
 10
10.6146336186
 20
1.9896745773
 30
0.0
 11
10.6146336186
 21
2.0146721074
 31
0.0
  0
LINE
  5
199
330
1F
100
AcDbEntity
  8
0
  6
Continuous
 62
     7
370
    25
100
AcDbLine
 10
10.6146336186
 20
2.0146721074
 30
0.0
 11
10.4853663814
 21
2.0146721074
 31
0.0
  0
LINE
  5
19A
330
1F
100
AcDbEntity
  8
0
  6
Continuous
 62
     7
370
    25
100
AcDbLine
 10
10.4853663814
 20
2.0146721074
 30
0.0
 11
10.4853663814
 21
1.9896745773
 31
0.0
  0
LINE
  5
19B
330
1F
100
AcDbEntity
  8
0
  6
Continuous
 62
     7
370
    25
100
AcDbLine
 10
10.4853663814
 20
1.9896745773
 30
0.0
 11
10.5246101393
 21
1.9896745773
 31
0.0
  0
LINE
  5
19C
330
1F
100
AcDbEntity
  8
0
  6
Continuous
 62
     7
370
    25
100
AcDbLine
 10
10.4690538464
 20
1.7751733989
 30
0.0
 11
10.4440313219
 21
1.7751733989
 31
0.0
  0
LINE
  5
19D
330
1F
100
AcDbEntity
  8
0
  6
Continuous
 62
     7
370
    25
100
AcDbLine
 10
10.4440313219
 20
1.7751733989
 30
0.0
 11
10.4440313219
 21
1.7472034527
 31
0.0
  0
LINE
  5
19E
330
1F
100
AcDbEntity
  8
0
  6
Continuous
 62
     7
370
    25
100
AcDbLine
 10
10.4440313219
 20
1.7472034527
 30
0.0
 11
10.4160613757
 21
1.7472034527
 31
0.0
  0
LINE
  5
19F
330
1F
100
AcDbEntity
  8
0
  6
Continuous
 62
     7
370
    25
100
AcDbLine
 10
10.4160613757
 20
1.7472034527
 30
0.0
 11
10.4160613757
 21
1.7221809282
 31
0.0
  0
LINE
  5
1A0
330
1F
100
AcDbEntity
  8
0
  6
Continuous
 62
     7
370
    25
100
AcDbLine
 10
10.4160613757
 20
1.7221809282
 30
0.0
 11
10.4440313219
 21
1.7221809282
 31
0.0
  0
LINE
  5
1A1
330
1F
100
AcDbEntity
  8
0
  6
Continuous
 62
     7
370
    25
100
AcDbLine
 10
10.4440313219
 20
1.7221809282
 30
0.0
 11
10.4440313219
 21
1.694210982
 31
0.0
  0
LINE
  5
1A2
330
1F
100
AcDbEntity
  8
0
  6
Continuous
 62
     7
370
    25
100
AcDbLine
 10
10.4440313219
 20
1.694210982
 30
0.0
 11
10.4690538464
 21
1.694210982
 31
0.0
  0
LINE
  5
1A3
330
1F
100
AcDbEntity
  8
0
  6
Continuous
 62
     7
370
    25
100
AcDbLine
 10
10.4690538464
 20
1.694210982
 30
0.0
 11
10.4690538464
 21
1.7221809282
 31
0.0
  0
LINE
  5
1A4
330
1F
100
AcDbEntity
  8
0
  6
Continuous
 62
     7
370
    25
100
AcDbLine
 10
10.4690538464
 20
1.7221809282
 30
0.0
 11
10.4970237926
 21
1.7221809282
 31
0.0
  0
LINE
  5
1A5
330
1F
100
AcDbEntity
  8
0
  6
Continuous
 62
     7
370
    25
100
AcDbLine
 10
10.4970237926
 20
1.7221809282
 30
0.0
 11
10.4970237926
 21
1.7472034527
 31
0.0
  0
LINE
  5
1A6
330
1F
100
AcDbEntity
  8
0
  6
Continuous
 62
     7
370
    25
100
AcDbLine
 10
10.4970237926
 20
1.7472034527
 30
0.0
 11
10.4690538464
 21
1.7472034527
 31
0.0
  0
LINE
  5
1A7
330
1F
100
AcDbEntity
  8
0
  6
Continuous
 62
     7
370
    25
100
AcDbLine
 10
10.4690538464
 20
1.7472034527
 30
0.0
 11
10.4690538464
 21
1.7751733989
 31
0.0
  0
LINE
  5
1A8
330
1F
100
AcDbEntity
  8
0
  6
Continuous
 62
     7
370
    25
100
AcDbLine
 10
10.3605005638
 20
1.1595371409
 30
0.0
 11
10.3354780393
 21
1.1595371409
 31
0.0
  0
LINE
  5
1A9
330
1F
100
AcDbEntity
  8
0
  6
Continuous
 62
     7
370
    25
100
AcDbLine
 10
10.3354780393
 20
1.1595371409
 30
0.0
 11
10.3354780393
 21
1.1315671947
 31
0.0
  0
LINE
  5
1AA
330
1F
100
AcDbEntity
  8
0
  6
Continuous
 62
     7
370
    25
100
AcDbLine
 10
10.3354780393
 20
1.1315671947
 30
0.0
 11
10.3075080932
 21
1.1315671947
 31
0.0
  0
LINE
  5
1AB
330
1F
100
AcDbEntity
  8
0
  6
Continuous
 62
     7
370
    25
100
AcDbLine
 10
10.3075080932
 20
1.1315671947
 30
0.0
 11
10.3075080932
 21
1.1065446702
 31
0.0
  0
LINE
  5
1AC
330
1F
100
AcDbEntity
  8
0
  6
Continuous
 62
     7
370
    25
100
AcDbLine
 10
10.3075080932
 20
1.1065446702
 30
0.0
 11
10.3354780393
 21
1.1065446702
 31
0.0
  0
LINE
  5
1AD
330
1F
100
AcDbEntity
  8
0
  6
Continuous
 62
     7
370
    25
100
AcDbLine
 10
10.3354780393
 20
1.1065446702
 30
0.0
 11
10.3354780393
 21
1.0785747241
 31
0.0
  0
LINE
  5
1AE
330
1F
100
AcDbEntity
  8
0
  6
Continuous
 62
     7
370
    25
100
AcDbLine
 10
10.3354780393
 20
1.0785747241
 30
0.0
 11
10.3605005638
 21
1.0785747241
 31
0.0
  0
LINE
  5
1AF
330
1F
100
AcDbEntity
  8
0
  6
Continuous
 62
     7
370
    25
100
AcDbLine
 10
10.3605005638
 20
1.0785747241
 30
0.0
 11
10.3605005638
 21
1.1065446702
 31
0.0
  0
LINE
  5
1B0
330
1F
100
AcDbEntity
  8
0
  6
Continuous
 62
     7
370
    25
100
AcDbLine
 10
10.3605005638
 20
1.1065446702
 30
0.0
 11
10.38847051
 21
1.1065446702
 31
0.0
  0
LINE
  5
1B1
330
1F
100
AcDbEntity
  8
0
  6
Continuous
 62
     7
370
    25
100
AcDbLine
 10
10.38847051
 20
1.1065446702
 30
0.0
 11
10.38847051
 21
1.1315671947
 31
0.0
  0
LINE
  5
1B2
330
1F
100
AcDbEntity
  8
0
  6
Continuous
 62
     7
370
    25
100
AcDbLine
 10
10.38847051
 20
1.1315671947
 30
0.0
 11
10.3605005638
 21
1.1315671947
 31
0.0
  0
LINE
  5
1B3
330
1F
100
AcDbEntity
  8
0
  6
Continuous
 62
     7
370
    25
100
AcDbLine
 10
10.3605005638
 20
1.1315671947
 30
0.0
 11
10.3605005638
 21
1.1595371409
 31
0.0
  0
LINE
  5
1B4
330
1F
100
AcDbEntity
  8
0
  6
Continuous
 62
     7
370
    25
100
AcDbLine
 10
10.047933844
 20
0.6181557014
 30
0.0
 11
10.0229113195
 21
0.6181557014
 31
0.0
  0
LINE
  5
1B5
330
1F
100
AcDbEntity
  8
0
  6
Continuous
 62
     7
370
    25
100
AcDbLine
 10
10.0229113195
 20
0.6181557014
 30
0.0
 11
10.0229113195
 21
0.5901857553
 31
0.0
  0
LINE
  5
1B6
330
1F
100
AcDbEntity
  8
0
  6
Continuous
 62
     7
370
    25
100
AcDbLine
 10
10.0229113195
 20
0.5901857553
 30
0.0
 11
9.9949413734
 21
0.5901857553
 31
0.0
  0
LINE
  5
1B7
330
1F
100
AcDbEntity
  8
0
  6
Continuous
 62
     7
370
    25
100
AcDbLine
 10
9.9949413734
 20
0.5901857553
 30
0.0
 11
9.9949413734
 21
0.5651632308
 31
0.0
  0
LINE
  5
1B8
330
1F
100
AcDbEntity
  8
0
  6
Continuous
 62
     7
370
    25
100
AcDbLine
 10
9.9949413734
 20
0.5651632308
 30
0.0
 11
10.0229113195
 21
0.5651632308
 31
0.0
  0
LINE
  5
1B9
330
1F
100
AcDbEntity
  8
0
  6
Continuous
 62
     7
370
    25
100
AcDbLine
 10
10.0229113195
 20
0.5651632308
 30
0.0
 11
10.0229113195
 21
0.5371932846
 31
0.0
  0
LINE
  5
1BA
330
1F
100
AcDbEntity
  8
0
  6
Continuous
 62
     7
370
    25
100
AcDbLine
 10
10.0229113195
 20
0.5371932846
 30
0.0
 11
10.047933844
 21
0.5371932846
 31
0.0
  0
LINE
  5
1BB
330
1F
100
AcDbEntity
  8
0
  6
Continuous
 62
     7
370
    25
100
AcDbLine
 10
10.047933844
 20
0.5371932846
 30
0.0
 11
10.047933844
 21
0.5651632308
 31
0.0
  0
LINE
  5
1BC
330
1F
100
AcDbEntity
  8
0
  6
Continuous
 62
     7
370
    25
100
AcDbLine
 10
10.047933844
 20
0.5651632308
 30
0.0
 11
10.0759037902
 21
0.5651632308
 31
0.0
  0
LINE
  5
1BD
330
1F
100
AcDbEntity
  8
0
  6
Continuous
 62
     7
370
    25
100
AcDbLine
 10
10.0759037902
 20
0.5651632308
 30
0.0
 11
10.0759037902
 21
0.5901857553
 31
0.0
  0
LINE
  5
1BE
330
1F
100
AcDbEntity
  8
0
  6
Continuous
 62
     7
370
    25
100
AcDbLine
 10
10.0759037902
 20
0.5901857553
 30
0.0
 11
10.047933844
 21
0.5901857553
 31
0.0
  0
LINE
  5
1BF
330
1F
100
AcDbEntity
  8
0
  6
Continuous
 62
     7
370
    25
100
AcDbLine
 10
10.047933844
 20
0.5901857553
 30
0.0
 11
10.047933844
 21
0.6181557014
 31
0.0
  0
LINE
  5
1C0
330
1F
100
AcDbEntity
  8
0
  6
Continuous
 62
     7
370
    25
100
AcDbLine
 10
10.3605005638
 20
2.3908096569
 30
0.0
 11
10.3354780393
 21
2.3908096569
 31
0.0
  0
LINE
  5
1C1
330
1F
100
AcDbEntity
  8
0
  6
Continuous
 62
     7
370
    25
100
AcDbLine
 10
10.3354780393
 20
2.3908096569
 30
0.0
 11
10.3354780393
 21
2.3628397107
 31
0.0
  0
LINE
  5
1C2
330
1F
100
AcDbEntity
  8
0
  6
Continuous
 62
     7
370
    25
100
AcDbLine
 10
10.3354780393
 20
2.3628397107
 30
0.0
 11
10.3075080932
 21
2.3628397107
 31
0.0
  0
LINE
  5
1C3
330
1F
100
AcDbEntity
  8
0
  6
Continuous
 62
     7
370
    25
100
AcDbLine
 10
10.3075080932
 20
2.3628397107
 30
0.0
 11
10.3075080932
 21
2.3378171862
 31
0.0
  0
LINE
  5
1C4
330
1F
100
AcDbEntity
  8
0
  6
Continuous
 62
     7
370
    25
100
AcDbLine
 10
10.3075080932
 20
2.3378171862
 30
0.0
 11
10.3354780393
 21
2.3378171862
 31
0.0
  0
LINE
  5
1C5
330
1F
100
AcDbEntity
  8
0
  6
Continuous
 62
     7
370
    25
100
AcDbLine
 10
10.3354780393
 20
2.3378171862
 30
0.0
 11
10.3354780393
 21
2.30984724
 31
0.0
  0
LINE
  5
1C6
330
1F
100
AcDbEntity
  8
0
  6
Continuous
 62
     7
370
    25
100
AcDbLine
 10
10.3354780393
 20
2.30984724
 30
0.0
 11
10.3605005638
 21
2.30984724
 31
0.0
  0
LINE
  5
1C7
330
1F
100
AcDbEntity
  8
0
  6
Continuous
 62
     7
370
    25
100
AcDbLine
 10
10.3605005638
 20
2.30984724
 30
0.0
 11
10.3605005638
 21
2.3378171862
 31
0.0
  0
LINE
  5
1C8
330
1F
100
AcDbEntity
  8
0
  6
Continuous
 62
     7
370
    25
100
AcDbLine
 10
10.3605005638
 20
2.3378171862
 30
0.0
 11
10.38847051
 21
2.3378171862
 31
0.0
  0
LINE
  5
1C9
330
1F
100
AcDbEntity
  8
0
  6
Continuous
 62
     7
370
    25
100
AcDbLine
 10
10.38847051
 20
2.3378171862
 30
0.0
 11
10.38847051
 21
2.3628397107
 31
0.0
  0
LINE
  5
1CA
330
1F
100
AcDbEntity
  8
0
  6
Continuous
 62
     7
370
    25
100
AcDbLine
 10
10.38847051
 20
2.3628397107
 30
0.0
 11
10.3605005638
 21
2.3628397107
 31
0.0
  0
LINE
  5
1CB
330
1F
100
AcDbEntity
  8
0
  6
Continuous
 62
     7
370
    25
100
AcDbLine
 10
10.3605005638
 20
2.3628397107
 30
0.0
 11
10.3605005638
 21
2.3908096569
 31
0.0
  0
LINE
  5
1CC
330
1F
100
AcDbEntity
  8
0
  6
Continuous
 62
     7
370
    25
100
AcDbLine
 10
10.6029762074
 20
1.7472034527
 30
0.0
 11
10.6029762074
 21
1.7221809282
 31
0.0
  0
LINE
  5
1CD
330
1F
100
AcDbEntity
  8
0
  6
Continuous
 62
     7
370
    25
100
AcDbLine
 10
10.6029762074
 20
1.7221809282
 30
0.0
 11
10.6309461536
 21
1.7221809282
 31
0.0
  0
LINE
  5
1CE
330
1F
100
AcDbEntity
  8
0
  6
Continuous
 62
     7
370
    25
100
AcDbLine
 10
10.6309461536
 20
1.7221809282
 30
0.0
 11
10.6309461536
 21
1.694210982
 31
0.0
  0
LINE
  5
1CF
330
1F
100
AcDbEntity
  8
0
  6
Continuous
 62
     7
370
    25
100
AcDbLine
 10
10.6309461536
 20
1.694210982
 30
0.0
 11
10.6559686781
 21
1.694210982
 31
0.0
  0
LINE
  5
1D0
330
1F
100
AcDbEntity
  8
0
  6
Continuous
 62
     7
370
    25
100
AcDbLine
 10
10.6559686781
 20
1.694210982
 30
0.0
 11
10.6559686781
 21
1.7221809282
 31
0.0
  0
LINE
  5
1D1
330
1F
100
AcDbEntity
  8
0
  6
Continuous
 62
     7
370
    25
100
AcDbLine
 10
10.6559686781
 20
1.7221809282
 30
0.0
 11
10.6839386243
 21
1.7221809282
 31
0.0
  0
LINE
  5
1D2
330
1F
100
AcDbEntity
  8
0
  6
Continuous
 62
     7
370
    25
100
AcDbLine
 10
10.6839386243
 20
1.7221809282
 30
0.0
 11
10.6839386243
 21
1.7472034527
 31
0.0
  0
LINE
  5
1D3
330
1F
100
AcDbEntity
  8
0
  6
Continuous
 62
     7
370
    25
100
AcDbLine
 10
10.6839386243
 20
1.7472034527
 30
0.0
 11
10.6559686781
 21
1.7472034527
 31
0.0
  0
LINE
  5
1D4
330
1F
100
AcDbEntity
  8
0
  6
Continuous
 62
     7
370
    25
100
AcDbLine
 10
10.6559686781
 20
1.7472034527
 30
0.0
 11
10.6559686781
 21
1.7751733989
 31
0.0
  0
LINE
  5
1D5
330
1F
100
AcDbEntity
  8
0
  6
Continuous
 62
     7
370
    25
100
AcDbLine
 10
10.6559686781
 20
1.7751733989
 30
0.0
 11
10.6309461536
 21
1.7751733989
 31
0.0
  0
LINE
  5
1D6
330
1F
100
AcDbEntity
  8
0
  6
Continuous
 62
     7
370
    25
100
AcDbLine
 10
10.6309461536
 20
1.7751733989
 30
0.0
 11
10.6309461536
 21
1.7472034527
 31
0.0
  0
LINE
  5
1D7
330
1F
100
AcDbEntity
  8
0
  6
Continuous
 62
     7
370
    25
100
AcDbLine
 10
10.6309461536
 20
1.7472034527
 30
0.0
 11
10.6029762074
 21
1.7472034527
 31
0.0
  0
LINE
  5
1D8
330
1F
100
AcDbEntity
  8
0
  6
Continuous
 62
     7
370
    25
100
AcDbLine
 10
8.8309461536
 20
1.7751733989
 30
0.0
 11
8.8559686781
 21
1.7751733989
 31
0.0
  0
LINE
  5
1D9
330
1F
100
AcDbEntity
  8
0
  6
Continuous
 62
     7
370
    25
100
AcDbLine
 10
8.8309461536
 20
1.7472034527
 30
0.0
 11
8.8309461536
 21
1.7751733989
 31
0.0
  0
LINE
  5
1DA
330
1F
100
AcDbEntity
  8
0
  6
Continuous
 62
     7
370
    25
100
AcDbLine
 10
8.8029762074
 20
1.7472034527
 30
0.0
 11
8.8309461536
 21
1.7472034527
 31
0.0
  0
LINE
  5
1DB
330
1F
100
AcDbEntity
  8
0
  6
Continuous
 62
     7
370
    25
100
AcDbLine
 10
8.8029762074
 20
1.7221809282
 30
0.0
 11
8.8029762074
 21
1.7472034527
 31
0.0
  0
LINE
  5
1DC
330
1F
100
AcDbEntity
  8
0
  6
Continuous
 62
     7
370
    25
100
AcDbLine
 10
8.8309461536
 20
1.7221809282
 30
0.0
 11
8.8029762074
 21
1.7221809282
 31
0.0
  0
LINE
  5
1DD
330
1F
100
AcDbEntity
  8
0
  6
Continuous
 62
     7
370
    25
100
AcDbLine
 10
8.8309461536
 20
1.694210982
 30
0.0
 11
8.8309461536
 21
1.7221809282
 31
0.0
  0
LINE
  5
1DE
330
1F
100
AcDbEntity
  8
0
  6
Continuous
 62
     7
370
    25
100
AcDbLine
 10
8.8559686781
 20
1.694210982
 30
0.0
 11
8.8309461536
 21
1.694210982
 31
0.0
  0
LINE
  5
1DF
330
1F
100
AcDbEntity
  8
0
  6
Continuous
 62
     7
370
    25
100
AcDbLine
 10
8.8559686781
 20
1.7221809282
 30
0.0
 11
8.8559686781
 21
1.694210982
 31
0.0
  0
LINE
  5
1E0
330
1F
100
AcDbEntity
  8
0
  6
Continuous
 62
     7
370
    25
100
AcDbLine
 10
8.8839386243
 20
1.7221809282
 30
0.0
 11
8.8559686781
 21
1.7221809282
 31
0.0
  0
LINE
  5
1E1
330
1F
100
AcDbEntity
  8
0
  6
Continuous
 62
     7
370
    25
100
AcDbLine
 10
8.8839386243
 20
1.7472034527
 30
0.0
 11
8.8839386243
 21
1.7221809282
 31
0.0
  0
LINE
  5
1E2
330
1F
100
AcDbEntity
  8
0
  6
Continuous
 62
     7
370
    25
100
AcDbLine
 10
8.8559686781
 20
1.7472034527
 30
0.0
 11
8.8839386243
 21
1.7472034527
 31
0.0
  0
LINE
  5
1E3
330
1F
100
AcDbEntity
  8
0
  6
Continuous
 62
     7
370
    25
100
AcDbLine
 10
8.8559686781
 20
1.7751733989
 30
0.0
 11
8.8559686781
 21
1.7472034527
 31
0.0
  0
LINE
  5
1E4
330
1F
100
AcDbEntity
  8
0
  6
Continuous
 62
     7
370
    25
100
AcDbLine
 10
8.6970237926
 20
1.7472034527
 30
0.0
 11
8.6970237926
 21
1.7221809282
 31
0.0
  0
LINE
  5
1E5
330
1F
100
AcDbEntity
  8
0
  6
Continuous
 62
     7
370
    25
100
AcDbLine
 10
8.6690538464
 20
1.7472034527
 30
0.0
 11
8.6970237926
 21
1.7472034527
 31
0.0
  0
LINE
  5
1E6
330
1F
100
AcDbEntity
  8
0
  6
Continuous
 62
     7
370
    25
100
AcDbLine
 10
8.6690538464
 20
1.7751733989
 30
0.0
 11
8.6690538464
 21
1.7472034527
 31
0.0
  0
LINE
  5
1E7
330
1F
100
AcDbEntity
  8
0
  6
Continuous
 62
     7
370
    25
100
AcDbLine
 10
8.6440313219
 20
1.7751733989
 30
0.0
 11
8.6690538464
 21
1.7751733989
 31
0.0
  0
LINE
  5
1E8
330
1F
100
AcDbEntity
  8
0
  6
Continuous
 62
     7
370
    25
100
AcDbLine
 10
8.6440313219
 20
1.7472034527
 30
0.0
 11
8.6440313219
 21
1.7751733989
 31
0.0
  0
LINE
  5
1E9
330
1F
100
AcDbEntity
  8
0
  6
Continuous
 62
     7
370
    25
100
AcDbLine
 10
8.6160613757
 20
1.7472034527
 30
0.0
 11
8.6440313219
 21
1.7472034527
 31
0.0
  0
LINE
  5
1EA
330
1F
100
AcDbEntity
  8
0
  6
Continuous
 62
     7
370
    25
100
AcDbLine
 10
8.6160613757
 20
1.7221809282
 30
0.0
 11
8.6160613757
 21
1.7472034527
 31
0.0
  0
LINE
  5
1EB
330
1F
100
AcDbEntity
  8
0
  6
Continuous
 62
     7
370
    25
100
AcDbLine
 10
8.6440313219
 20
1.7221809282
 30
0.0
 11
8.6160613757
 21
1.7221809282
 31
0.0
  0
LINE
  5
1EC
330
1F
100
AcDbEntity
  8
0
  6
Continuous
 62
     7
370
    25
100
AcDbLine
 10
8.6440313219
 20
1.694210982
 30
0.0
 11
8.6440313219
 21
1.7221809282
 31
0.0
  0
LINE
  5
1ED
330
1F
100
AcDbEntity
  8
0
  6
Continuous
 62
     7
370
    25
100
AcDbLine
 10
8.6690538464
 20
1.694210982
 30
0.0
 11
8.6440313219
 21
1.694210982
 31
0.0
  0
LINE
  5
1EE
330
1F
100
AcDbEntity
  8
0
  6
Continuous
 62
     7
370
    25
100
AcDbLine
 10
8.6690538464
 20
1.7221809282
 30
0.0
 11
8.6690538464
 21
1.694210982
 31
0.0
  0
LINE
  5
1EF
330
1F
100
AcDbEntity
  8
0
  6
Continuous
 62
     7
370
    25
100
AcDbLine
 10
8.6970237926
 20
1.7221809282
 30
0.0
 11
8.6690538464
 21
1.7221809282
 31
0.0
  0
LINE
  5
1F0
330
1F
100
AcDbEntity
  8
0
  6
Continuous
 62
     7
370
    25
100
AcDbLine
 10
8.6690538464
 20
1.8811258137
 30
0.0
 11
8.6440313219
 21
1.8811258137
 31
0.0
  0
LINE
  5
1F1
330
1F
100
AcDbEntity
  8
0
  6
Continuous
 62
     7
370
    25
100
AcDbLine
 10
8.6690538464
 20
1.9090957599
 30
0.0
 11
8.6690538464
 21
1.8811258137
 31
0.0
  0
LINE
  5
1F2
330
1F
100
AcDbEntity
  8
0
  6
Continuous
 62
     7
370
    25
100
AcDbLine
 10
8.6970237926
 20
1.9090957599
 30
0.0
 11
8.6690538464
 21
1.9090957599
 31
0.0
  0
LINE
  5
1F3
330
1F
100
AcDbEntity
  8
0
  6
Continuous
 62
     7
370
    25
100
AcDbLine
 10
8.6970237926
 20
1.9341182844
 30
0.0
 11
8.6970237926
 21
1.9090957599
 31
0.0
  0
LINE
  5
1F4
330
1F
100
AcDbEntity
  8
0
  6
Continuous
 62
     7
370
    25
100
AcDbLine
 10
8.6690538464
 20
1.9341182844
 30
0.0
 11
8.6970237926
 21
1.9341182844
 31
0.0
  0
LINE
  5
1F5
330
1F
100
AcDbEntity
  8
0
  6
Continuous
 62
     7
370
    25
100
AcDbLine
 10
8.6690538464
 20
1.9620882306
 30
0.0
 11
8.6690538464
 21
1.9341182844
 31
0.0
  0
LINE
  5
1F6
330
1F
100
AcDbEntity
  8
0
  6
Continuous
 62
     7
370
    25
100
AcDbLine
 10
8.6440313219
 20
1.9620882306
 30
0.0
 11
8.6690538464
 21
1.9620882306
 31
0.0
  0
LINE
  5
1F7
330
1F
100
AcDbEntity
  8
0
  6
Continuous
 62
     7
370
    25
100
AcDbLine
 10
8.6440313219
 20
1.9341182844
 30
0.0
 11
8.6440313219
 21
1.9620882306
 31
0.0
  0
LINE
  5
1F8
330
1F
100
AcDbEntity
  8
0
  6
Continuous
 62
     7
370
    25
100
AcDbLine
 10
8.6160613757
 20
1.9341182844
 30
0.0
 11
8.6440313219
 21
1.9341182844
 31
0.0
  0
LINE
  5
1F9
330
1F
100
AcDbEntity
  8
0
  6
Continuous
 62
     7
370
    25
100
AcDbLine
 10
8.6160613757
 20
1.9090957599
 30
0.0
 11
8.6160613757
 21
1.9341182844
 31
0.0
  0
LINE
  5
1FA
330
1F
100
AcDbEntity
  8
0
  6
Continuous
 62
     7
370
    25
100
AcDbLine
 10
8.6440313219
 20
1.9090957599
 30
0.0
 11
8.6160613757
 21
1.9090957599
 31
0.0
  0
LINE
  5
1FB
330
1F
100
AcDbEntity
  8
0
  6
Continuous
 62
     7
370
    25
100
AcDbLine
 10
8.6440313219
 20
1.8811258137
 30
0.0
 11
8.6440313219
 21
1.9090957599
 31
0.0
  0
LINE
  5
1FC
330
1F
100
AcDbEntity
  8
0
  6
Continuous
 62
     7
370
    25
100
AcDbLine
 10
8.8029762074
 20
1.9341182844
 30
0.0
 11
8.8309461536
 21
1.9341182844
 31
0.0
  0
LINE
  5
1FD
330
1F
100
AcDbEntity
  8
0
  6
Continuous
 62
     7
370
    25
100
AcDbLine
 10
8.8029762074
 20
1.9090957599
 30
0.0
 11
8.8029762074
 21
1.9341182844
 31
0.0
  0
LINE
  5
1FE
330
1F
100
AcDbEntity
  8
0
  6
Continuous
 62
     7
370
    25
100
AcDbLine
 10
8.8309461536
 20
1.9090957599
 30
0.0
 11
8.8029762074
 21
1.9090957599
 31
0.0
  0
LINE
  5
1FF
330
1F
100
AcDbEntity
  8
0
  6
Continuous
 62
     7
370
    25
100
AcDbLine
 10
8.8309461536
 20
1.8811258137
 30
0.0
 11
8.8309461536
 21
1.9090957599
 31
0.0
  0
LINE
  5
200
330
1F
100
AcDbEntity
  8
0
  6
Continuous
 62
     7
370
    25
100
AcDbLine
 10
8.8559686781
 20
1.8811258137
 30
0.0
 11
8.8309461536
 21
1.8811258137
 31
0.0
  0
LINE
  5
201
330
1F
100
AcDbEntity
  8
0
  6
Continuous
 62
     7
370
    25
100
AcDbLine
 10
8.8559686781
 20
1.9090957599
 30
0.0
 11
8.8559686781
 21
1.8811258137
 31
0.0
  0
LINE
  5
202
330
1F
100
AcDbEntity
  8
0
  6
Continuous
 62
     7
370
    25
100
AcDbLine
 10
8.8839386243
 20
1.9090957599
 30
0.0
 11
8.8559686781
 21
1.9090957599
 31
0.0
  0
LINE
  5
203
330
1F
100
AcDbEntity
  8
0
  6
Continuous
 62
     7
370
    25
100
AcDbLine
 10
8.8839386243
 20
1.9341182844
 30
0.0
 11
8.8839386243
 21
1.9090957599
 31
0.0
  0
LINE
  5
204
330
1F
100
AcDbEntity
  8
0
  6
Continuous
 62
     7
370
    25
100
AcDbLine
 10
8.8559686781
 20
1.9341182844
 30
0.0
 11
8.8839386243
 21
1.9341182844
 31
0.0
  0
LINE
  5
205
330
1F
100
AcDbEntity
  8
0
  6
Continuous
 62
     7
370
    25
100
AcDbLine
 10
8.8559686781
 20
1.9620882306
 30
0.0
 11
8.8559686781
 21
1.9341182844
 31
0.0
  0
LINE
  5
206
330
1F
100
AcDbEntity
  8
0
  6
Continuous
 62
     7
370
    25
100
AcDbLine
 10
8.8309461536
 20
1.9620882306
 30
0.0
 11
8.8559686781
 21
1.9620882306
 31
0.0
  0
LINE
  5
207
330
1F
100
AcDbEntity
  8
0
  6
Continuous
 62
     7
370
    25
100
AcDbLine
 10
8.8309461536
 20
1.9341182844
 30
0.0
 11
8.8309461536
 21
1.9620882306
 31
0.0
  0
LINE
  5
208
330
1F
100
AcDbEntity
  8
0
  6
Continuous
 62
     7
370
    25
100
AcDbLine
 10
8.7753898607
 20
1.9896745773
 30
0.0
 11
8.7753898607
 21
1.853539467
 31
0.0
  0
LINE
  5
209
330
1F
100
AcDbEntity
  8
0
  6
Continuous
 62
     7
370
    25
100
AcDbLine
 10
8.8146336186
 20
1.9896745773
 30
0.0
 11
8.7753898607
 21
1.9896745773
 31
0.0
  0
LINE
  5
20A
330
1F
100
AcDbEntity
  8
0
  6
Continuous
 62
     7
370
    25
100
AcDbLine
 10
8.8146336186
 20
2.0146721074
 30
0.0
 11
8.8146336186
 21
1.9896745773
 31
0.0
  0
LINE
  5
20B
330
1F
100
AcDbEntity
  8
0
  6
Continuous
 62
     7
370
    25
100
AcDbLine
 10
8.6853663814
 20
2.0146721074
 30
0.0
 11
8.8146336186
 21
2.0146721074
 31
0.0
  0
LINE
  5
20C
330
1F
100
AcDbEntity
  8
0
  6
Continuous
 62
     7
370
    25
100
AcDbLine
 10
8.6853663814
 20
1.9896745773
 30
0.0
 11
8.6853663814
 21
2.0146721074
 31
0.0
  0
LINE
  5
20D
330
1F
100
AcDbEntity
  8
0
  6
Continuous
 62
     7
370
    25
100
AcDbLine
 10
8.7246101393
 20
1.9896745773
 30
0.0
 11
8.6853663814
 21
1.9896745773
 31
0.0
  0
LINE
  5
20E
330
1F
100
AcDbEntity
  8
0
  6
Continuous
 62
     7
370
    25
100
AcDbLine
 10
8.7246101393
 20
1.853539467
 30
0.0
 11
8.7246101393
 21
1.9896745773
 31
0.0
  0
LINE
  5
20F
330
1F
100
AcDbEntity
  8
0
  6
Continuous
 62
     7
370
    25
100
AcDbLine
 10
8.588475029
 20
1.853539467
 30
0.0
 11
8.7246101393
 21
1.853539467
 31
0.0
  0
LINE
  5
210
330
1F
100
AcDbEntity
  8
0
  6
Continuous
 62
     7
370
    25
100
AcDbLine
 10
8.588475029
 20
1.8927832249
 30
0.0
 11
8.588475029
 21
1.853539467
 31
0.0
  0
LINE
  5
211
330
1F
100
AcDbEntity
  8
0
  6
Continuous
 62
     7
370
    25
100
AcDbLine
 10
8.5634774989
 20
1.8927832249
 30
0.0
 11
8.588475029
 21
1.8927832249
 31
0.0
  0
LINE
  5
212
330
1F
100
AcDbEntity
  8
0
  6
Continuous
 62
     7
370
    25
100
AcDbLine
 10
8.5634774989
 20
1.7635159877
 30
0.0
 11
8.5634774989
 21
1.8927832249
 31
0.0
  0
LINE
  5
213
330
1F
100
AcDbEntity
  8
0
  6
Continuous
 62
     7
370
    25
100
AcDbLine
 10
8.588475029
 20
1.7635159877
 30
0.0
 11
8.5634774989
 21
1.7635159877
 31
0.0
  0
LINE
  5
214
330
1F
100
AcDbEntity
  8
0
  6
Continuous
 62
     7
370
    25
100
AcDbLine
 10
8.588475029
 20
1.8027597456
 30
0.0
 11
8.588475029
 21
1.7635159877
 31
0.0
  0
LINE
  5
215
330
1F
100
AcDbEntity
  8
0
  6
Continuous
 62
     7
370
    25
100
AcDbLine
 10
8.7246101393
 20
1.8027597456
 30
0.0
 11
8.588475029
 21
1.8027597456
 31
0.0
  0
LINE
  5
216
330
1F
100
AcDbEntity
  8
0
  6
Continuous
 62
     7
370
    25
100
AcDbLine
 10
8.7246101393
 20
1.6666246353
 30
0.0
 11
8.7246101393
 21
1.8027597456
 31
0.0
  0
LINE
  5
217
330
1F
100
AcDbEntity
  8
0
  6
Continuous
 62
     7
370
    25
100
AcDbLine
 10
8.6853663814
 20
1.6666246353
 30
0.0
 11
8.7246101393
 21
1.6666246353
 31
0.0
  0
LINE
  5
218
330
1F
100
AcDbEntity
  8
0
  6
Continuous
 62
     7
370
    25
100
AcDbLine
 10
8.6853663814
 20
1.6416271052
 30
0.0
 11
8.6853663814
 21
1.6666246353
 31
0.0
  0
LINE
  5
219
330
1F
100
AcDbEntity
  8
0
  6
Continuous
 62
     7
370
    25
100
AcDbLine
 10
8.8146336186
 20
1.6416271052
 30
0.0
 11
8.6853663814
 21
1.6416271052
 31
0.0
  0
LINE
  5
21A
330
1F
100
AcDbEntity
  8
0
  6
Continuous
 62
     7
370
    25
100
AcDbLine
 10
8.8146336186
 20
1.6666246353
 30
0.0
 11
8.8146336186
 21
1.6416271052
 31
0.0
  0
LINE
  5
21B
330
1F
100
AcDbEntity
  8
0
  6
Continuous
 62
     7
370
    25
100
AcDbLine
 10
8.7753898607
 20
1.6666246353
 30
0.0
 11
8.8146336186
 21
1.6666246353
 31
0.0
  0
LINE
  5
21C
330
1F
100
AcDbEntity
  8
0
  6
Continuous
 62
     7
370
    25
100
AcDbLine
 10
8.7753898607
 20
1.8027597456
 30
0.0
 11
8.7753898607
 21
1.6666246353
 31
0.0
  0
LINE
  5
21D
330
1F
100
AcDbEntity
  8
0
  6
Continuous
 62
     7
370
    25
100
AcDbLine
 10
8.911524971
 20
1.8027597456
 30
0.0
 11
8.7753898607
 21
1.8027597456
 31
0.0
  0
LINE
  5
21E
330
1F
100
AcDbEntity
  8
0
  6
Continuous
 62
     7
370
    25
100
AcDbLine
 10
8.911524971
 20
1.7635159877
 30
0.0
 11
8.911524971
 21
1.8027597456
 31
0.0
  0
LINE
  5
21F
330
1F
100
AcDbEntity
  8
0
  6
Continuous
 62
     7
370
    25
100
AcDbLine
 10
8.9365225011
 20
1.7635159877
 30
0.0
 11
8.911524971
 21
1.7635159877
 31
0.0
  0
LINE
  5
220
330
1F
100
AcDbEntity
  8
0
  6
Continuous
 62
     7
370
    25
100
AcDbLine
 10
8.9365225011
 20
1.8927832249
 30
0.0
 11
8.9365225011
 21
1.7635159877
 31
0.0
  0
LINE
  5
221
330
1F
100
AcDbEntity
  8
0
  6
Continuous
 62
     7
370
    25
100
AcDbLine
 10
8.911524971
 20
1.8927832249
 30
0.0
 11
8.9365225011
 21
1.8927832249
 31
0.0
  0
LINE
  5
222
330
1F
100
AcDbEntity
  8
0
  6
Continuous
 62
     7
370
    25
100
AcDbLine
 10
8.911524971
 20
1.853539467
 30
0.0
 11
8.911524971
 21
1.8927832249
 31
0.0
  0
LINE
  5
223
330
1F
100
AcDbEntity
  8
0
  6
Continuous
 62
     7
370
    25
100
AcDbLine
 10
8.7753898607
 20
1.853539467
 30
0.0
 11
8.911524971
 21
1.853539467
 31
0.0
  0
LINE
  5
224
330
1F
100
AcDbEntity
  8
0
  6
Continuous
 62
     7
370
    25
100
AcDbLine
 10
8.5
 20
1.5781496063
 30
0.0
 11
8.5
 21
0.1968503937
 31
0.0
  0
LINE
  5
225
330
1F
100
AcDbEntity
  8
0
  6
Continuous
 62
     7
370
    25
100
AcDbLine
 10
7.9094488189
 20
1.5781496063
 30
0.0
 11
8.5
 21
1.5781496063
 31
0.0
  0
LINE
  5
226
330
1F
100
AcDbEntity
  8
0
  6
Continuous
 62
     7
370
    25
100
AcDbLine
 10
7.9094488189
 20
2.0781496063
 30
0.0
 11
7.9094488189
 21
1.5781496063
 31
0.0
  0
LINE
  5
227
330
1F
100
AcDbEntity
  8
0
  6
Continuous
 62
     7
370
    25
100
AcDbLine
 10
8.5
 20
2.0781496063
 30
0.0
 11
7.9094488189
 21
2.0781496063
 31
0.0
  0
LINE
  5
228
330
1F
100
AcDbEntity
  8
0
  6
Continuous
 62
     7
370
    25
100
AcDbLine
 10
8.5
 20
2.6781496063
 30
0.0
 11
8.5
 21
2.0781496063
 31
0.0
  0
LINE
  5
229
330
1F
100
AcDbEntity
  8
0
  6
Continuous
 62
     7
370
    25
100
AcDbLine
 10
5.5363673579
 20
1.8429133858
 30
0.0
 11
5.5363673579
 21
1.8133858268
 31
0.0
  0
LINE
  5
22A
330
1F
100
AcDbEntity
  8
0
  6
Continuous
 62
     7
370
    25
100
AcDbLine
 10
0.6282960462
 20
1.8970472441
 30
0.0
 11
5.5363673579
 21
1.8429133858
 31
0.0
  0
LINE
  5
22B
330
1F
100
AcDbEntity
  8
0
  6
Continuous
 62
     7
370
    25
100
AcDbLine
 10
0.6282960462
 20
1.7592519685
 30
0.0
 11
0.6282960462
 21
1.8970472441
 31
0.0
  0
LINE
  5
22C
330
1F
100
AcDbEntity
  8
0
  6
Continuous
 62
     7
370
    25
100
AcDbLine
 10
5.5363673579
 20
1.8133858268
 30
0.0
 11
0.6282960462
 21
1.7592519685
 31
0.0
  0
LINE
  5
22D
330
1F
100
AcDbEntity
  8
0
  6
Continuous
 62
     7
370
    25
100
AcDbLine
 10
5.5458570703
 20
1.5809233663
 30
0.0
 11
5.5482638405
 21
1.5514940578
 31
0.0
  0
LINE
  5
22E
330
1F
100
AcDbEntity
  8
0
  6
Continuous
 62
     7
370
    25
100
AcDbLine
 10
0.649704549
 20
1.2348237224
 30
0.0
 11
5.5458570703
 21
1.5809233663
 31
0.0
  0
LINE
  5
22F
330
1F
100
AcDbEntity
  8
0
  6
Continuous
 62
     7
370
    25
100
AcDbLine
 10
0.6609361432
 20
1.0974869493
 30
0.0
 11
0.649704549
 21
1.2348237224
 31
0.0
  0
LINE
  5
230
330
1F
100
AcDbEntity
  8
0
  6
Continuous
 62
     7
370
    25
100
AcDbLine
 10
5.5482638405
 20
1.5514940578
 30
0.0
 11
0.6609361432
 21
1.0974869493
 31
0.0
  0
LINE
  5
231
330
1F
100
AcDbEntity
  8
0
  6
Continuous
 62
     7
370
    25
100
AcDbLine
 10
5.5766698253
 20
1.3205785967
 30
0.0
 11
5.581467349
 21
1.2914433858
 31
0.0
  0
LINE
  5
232
330
1F
100
AcDbEntity
  8
0
  6
Continuous
 62
     7
370
    25
100
AcDbLine
 10
0.7250191816
 20
0.5765486866
 30
0.0
 11
5.5766698253
 21
1.3205785967
 31
0.0
  0
LINE
  5
233
330
1F
100
AcDbEntity
  8
0
  6
Continuous
 62
     7
370
    25
100
AcDbLine
 10
0.7474076256
 20
0.4405843694
 30
0.0
 11
0.7250191816
 21
0.5765486866
 31
0.0
  0
LINE
  5
234
330
1F
100
AcDbEntity
  8
0
  6
Continuous
 62
     7
370
    25
100
AcDbLine
 10
5.581467349
 20
1.2914433858
 30
0.0
 11
0.7474076256
 21
0.4405843694
 31
0.0
  0
LINE
  5
235
330
1F
100
AcDbEntity
  8
0
  6
Continuous
 62
     7
370
    25
100
AcDbLine
 10
1.1619696533
 20
0.0
 30
0.0
 11
5.628600569
 21
1.0636116283
 31
0.0
  0
LINE
  5
236
330
1F
100
AcDbEntity
  8
0
  6
Continuous
 62
     7
370
    25
100
AcDbLine
 10
0.0
 20
0.0
 30
0.0
 11
1.1619696533
 21
0.0
 31
0.0
  0
LINE
  5
237
330
1F
100
AcDbEntity
  8
0
  6
Continuous
 62
     7
370
    25
100
AcDbLine
 10
0.0
 20
0.4107142857
 30
0.0
 11
0.0
 21
0.0
 31
0.0
  0
LINE
  5
238
330
1F
100
AcDbEntity
  8
0
  6
Continuous
 62
     7
370
    25
100
AcDbLine
 10
0.0
 20
0.4107142857
 30
0.0
 11
0.125
 21
0.4107142857
 31
0.0
  0
LINE
  5
239
330
1F
100
AcDbEntity
  8
0
  6
Continuous
 62
     7
370
    25
100
AcDbLine
 10
0.125
 20
0.4107142857
 30
0.0
 11
0.125
 21
0.8214285714
 31
0.0
  0
LINE
  5
23A
330
1F
100
AcDbEntity
  8
0
  6
Continuous
 62
     7
370
    25
100
AcDbLine
 10
0.0
 20
0.8214285714
 30
0.0
 11
0.125
 21
0.8214285714
 31
0.0
  0
LINE
  5
23B
330
1F
100
AcDbEntity
  8
0
  6
Continuous
 62
     7
370
    25
100
AcDbLine
 10
0.0
 20
1.2321428571
 30
0.0
 11
0.0
 21
0.8214285714
 31
0.0
  0
LINE
  5
23C
330
1F
100
AcDbEntity
  8
0
  6
Continuous
 62
     7
370
    25
100
AcDbLine
 10
0.0
 20
1.2321428571
 30
0.0
 11
0.125
 21
1.2321428571
 31
0.0
  0
LINE
  5
23D
330
1F
100
AcDbEntity
  8
0
  6
Continuous
 62
     7
370
    25
100
AcDbLine
 10
0.125
 20
1.2321428571
 30
0.0
 11
0.125
 21
1.6428571429
 31
0.0
  0
LINE
  5
23E
330
1F
100
AcDbEntity
  8
0
  6
Continuous
 62
     7
370
    25
100
AcDbLine
 10
0.0
 20
1.6428571429
 30
0.0
 11
0.125
 21
1.6428571429
 31
0.0
  0
LINE
  5
23F
330
1F
100
AcDbEntity
  8
0
  6
Continuous
 62
     7
370
    25
100
AcDbLine
 10
0.0
 20
2.0535714286
 30
0.0
 11
0.0
 21
1.6428571429
 31
0.0
  0
LINE
  5
240
330
1F
100
AcDbEntity
  8
0
  6
Continuous
 62
     7
370
    25
100
AcDbLine
 10
0.0
 20
2.0535714286
 30
0.0
 11
0.125
 21
2.0535714286
 31
0.0
  0
LINE
  5
241
330
1F
100
AcDbEntity
  8
0
  6
Continuous
 62
     7
370
    25
100
AcDbLine
 10
0.125
 20
2.0535714286
 30
0.0
 11
0.125
 21
2.4642857143
 31
0.0
  0
LINE
  5
242
330
1F
100
AcDbEntity
  8
0
  6
Continuous
 62
     7
370
    25
100
AcDbLine
 10
0.0
 20
2.4642857143
 30
0.0
 11
0.125
 21
2.4642857143
 31
0.0
  0
LINE
  5
243
330
1F
100
AcDbEntity
  8
0
  6
Continuous
 62
     7
370
    25
100
AcDbLine
 10
0.0
 20
2.875
 30
0.0
 11
0.0
 21
2.4642857143
 31
0.0
  0
LINE
  5
244
330
1F
100
AcDbEntity
  8
0
  6
Continuous
 62
     7
370
    25
100
AcDbLine
 10
2.0601510193
 20
2.875
 30
0.0
 11
0.0
 21
2.875
 31
0.0
  0
LINE
  5
245
330
1F
100
AcDbEntity
  8
0
  6
Continuous
 62
     7
370
    25
100
AcDbLine
 10
5.5766698253
 20
2.3357206159
 30
0.0
 11
2.0601510193
 21
2.875
 31
0.0
  0
LINE
  5
246
330
1F
100
AcDbEntity
  8
0
  6
Continuous
 62
     7
370
    25
100
AcDbLine
 10
5.581467349
 20
2.3648558268
 30
0.0
 11
5.5766698253
 21
2.3357206159
 31
0.0
  0
LINE
  5
247
330
1F
100
AcDbEntity
  8
0
  6
Continuous
 62
     7
370
    25
100
AcDbLine
 10
2.6831406539
 20
2.875
 30
0.0
 11
5.581467349
 21
2.3648558268
 31
0.0
  0
LINE
  5
248
330
1F
100
AcDbEntity
  8
0
  6
Continuous
 62
     7
370
    25
100
AcDbLine
 10
4.4430312029
 20
2.875
 30
0.0
 11
2.6831406539
 21
2.875
 31
0.0
  0
LINE
  5
249
330
1F
100
AcDbEntity
  8
0
  6
Continuous
 62
     7
370
    25
100
AcDbLine
 10
5.628600569
 20
2.5926875843
 30
0.0
 11
4.4430312029
 21
2.875
 31
0.0
  0
LINE
  5
24A
330
1F
100
AcDbEntity
  8
0
  6
Continuous
 62
     7
370
    25
100
AcDbLine
 10
5.6357569195
 20
2.6213348074
 30
0.0
 11
5.628600569
 21
2.5926875843
 31
0.0
  0
LINE
  5
24B
330
1F
100
AcDbEntity
  8
0
  6
Continuous
 62
     7
370
    25
100
AcDbLine
 10
4.6659397273
 20
2.875
 30
0.0
 11
5.6357569195
 21
2.6213348074
 31
0.0
  0
LINE
  5
24C
330
1F
100
AcDbEntity
  8
0
  6
Continuous
 62
     7
370
    25
100
AcDbLine
 10
5.6080240493
 20
2.875
 30
0.0
 11
4.6659397273
 21
2.875
 31
0.0
  0
LINE
  5
24D
330
1F
100
AcDbEntity
  8
0
  6
Continuous
 62
     7
370
    25
100
AcDbLine
 10
5.7013037109
 20
2.8445666785
 30
0.0
 11
5.6080240493
 21
2.875
 31
0.0
  0
LINE
  5
24E
330
1F
100
AcDbEntity
  8
0
  6
Continuous
 62
     7
370
    25
100
AcDbLine
 10
5.7107712639
 20
2.8725352713
 30
0.0
 11
5.7013037109
 21
2.8445666785
 31
0.0
  0
LINE
  5
24F
330
1F
100
AcDbEntity
  8
0
  6
Continuous
 62
     7
370
    25
100
AcDbLine
 10
5.7037461638
 20
2.875
 30
0.0
 11
5.7107712639
 21
2.8725352713
 31
0.0
  0
LINE
  5
250
330
1F
100
AcDbEntity
  8
0
  6
Continuous
 62
     7
370
    25
100
AcDbLine
 10
6.0545020884
 20
0.078308546
 30
0.0
 11
5.9355567008
 21
0.0
 31
0.0
  0
LINE
  5
251
330
1F
100
AcDbEntity
  8
0
  6
Continuous
 62
     7
370
    25
100
AcDbLine
 10
6.0385382848
 20
0.1031487093
 30
0.0
 11
6.0545020884
 21
0.078308546
 31
0.0
  0
LINE
  5
252
330
1F
100
AcDbEntity
  8
0
  6
Continuous
 62
     7
370
    25
100
AcDbLine
 10
5.8740755114
 20
0.0
 30
0.0
 11
6.0385382848
 21
0.1031487093
 31
0.0
  0
LINE
  5
253
330
1F
100
AcDbEntity
  8
0
  6
Continuous
 62
     7
370
    25
100
AcDbLine
 10
5.3654982605
 20
0.0
 30
0.0
 11
5.8740755114
 21
0.0
 31
0.0
  0
LINE
  5
254
330
1F
100
AcDbEntity
  8
0
  6
Continuous
 62
     7
370
    25
100
AcDbLine
 10
5.9208428442
 20
0.3038391013
 30
0.0
 11
5.3654982605
 21
0.0
 31
0.0
  0
LINE
  5
255
330
1F
100
AcDbEntity
  8
0
  6
Continuous
 62
     7
370
    25
100
AcDbLine
 10
5.9069568627
 20
0.3298978093
 30
0.0
 11
5.9208428442
 21
0.3038391013
 31
0.0
  0
LINE
  5
256
330
1F
100
AcDbEntity
  8
0
  6
Continuous
 62
     7
370
    25
100
AcDbLine
 10
5.2710635692
 20
0.0
 30
0.0
 11
5.9069568627
 21
0.3298978093
 31
0.0
  0
LINE
  5
257
330
1F
100
AcDbEntity
  8
0
  6
Continuous
 62
     7
370
    25
100
AcDbLine
 10
4.5947297819
 20
0.0
 30
0.0
 11
5.2710635692
 21
0.0
 31
0.0
  0
LINE
  5
258
330
1F
100
AcDbEntity
  8
0
  6
Continuous
 62
     7
370
    25
100
AcDbLine
 10
5.8060111741
 20
0.5395136916
 30
0.0
 11
4.5947297819
 21
0.0
 31
0.0
  0
LINE
  5
259
330
1F
100
AcDbEntity
  8
0
  6
Continuous
 62
     7
370
    25
100
AcDbLine
 10
5.7942954237
 20
0.5666175278
 30
0.0
 11
5.8060111741
 21
0.5395136916
 31
0.0
  0
LINE
  5
25A
330
1F
100
AcDbEntity
  8
0
  6
Continuous
 62
     7
370
    25
100
AcDbLine
 10
4.4427155478
 20
0.0
 30
0.0
 11
5.7942954237
 21
0.5666175278
 31
0.0
  0
LINE
  5
25B
330
1F
100
AcDbEntity
  8
0
  6
Continuous
 62
     7
370
    25
100
AcDbLine
 10
3.4768458101
 20
0.0
 30
0.0
 11
4.4427155478
 21
0.0
 31
0.0
  0
LINE
  5
25C
330
1F
100
AcDbEntity
  8
0
  6
Continuous
 62
     7
370
    25
100
AcDbLine
 10
5.7107712639
 20
0.7837639413
 30
0.0
 11
3.4768458101
 21
0.0
 31
0.0
  0
LINE
  5
25D
330
1F
100
AcDbEntity
  8
0
  6
Continuous
 62
     7
370
    25
100
AcDbLine
 10
5.7013037109
 20
0.8117325341
 30
0.0
 11
5.7107712639
 21
0.7837639413
 31
0.0
  0
LINE
  5
25E
330
1F
100
AcDbEntity
  8
0
  6
Continuous
 62
     7
370
    25
100
AcDbLine
 10
3.2133026508
 20
0.0
 30
0.0
 11
5.7013037109
 21
0.8117325341
 31
0.0
  0
LINE
  5
25F
330
1F
100
AcDbEntity
  8
0
  6
Continuous
 62
     7
370
    25
100
AcDbLine
 10
1.6788629399
 20
0.0
 30
0.0
 11
3.2133026508
 21
0.0
 31
0.0
  0
LINE
  5
260
330
1F
100
AcDbEntity
  8
0
  6
Continuous
 62
     7
370
    25
100
AcDbLine
 10
5.6357569195
 20
1.0349644052
 30
0.0
 11
1.6788629399
 21
0.0
 31
0.0
  0
LINE
  5
261
330
1F
100
AcDbEntity
  8
0
  6
Continuous
 62
     7
370
    25
100
AcDbLine
 10
5.628600569
 20
1.0636116283
 30
0.0
 11
5.6357569195
 21
1.0349644052
 31
0.0
  0
LINE
  5
262
330
1F
100
AcDbEntity
  8
0
  6
Continuous
 62
     7
370
    25
100
AcDbLine
 10
5.5482638405
 20
2.1048051548
 30
0.0
 11
5.5458570703
 21
2.0753758463
 31
0.0
  0
LINE
  5
263
330
1F
100
AcDbEntity
  8
0
  6
Continuous
 62
     7
370
    25
100
AcDbLine
 10
0.6609361432
 20
2.5588122633
 30
0.0
 11
5.5482638405
 21
2.1048051548
 31
0.0
  0
LINE
  5
264
330
1F
100
AcDbEntity
  8
0
  6
Continuous
 62
     7
370
    25
100
AcDbLine
 10
0.649704549
 20
2.4214754902
 30
0.0
 11
0.6609361432
 21
2.5588122633
 31
0.0
  0
LINE
  5
265
330
1F
100
AcDbEntity
  8
0
  6
Continuous
 62
     7
370
    25
100
AcDbLine
 10
5.5458570703
 20
2.0753758463
 30
0.0
 11
0.649704549
 21
2.4214754902
 31
0.0
  0
LINE
  5
266
330
1F
100
AcDbEntity
  8
0
  6
Continuous
 62
     7
370
    25
100
AcDbLine
 10
6.8970237926
 20
1.7472034527
 30
0.0
 11
6.8970237926
 21
1.7221809282
 31
0.0
  0
LINE
  5
267
330
1F
100
AcDbEntity
  8
0
  6
Continuous
 62
     7
370
    25
100
AcDbLine
 10
6.8690538464
 20
1.7472034527
 30
0.0
 11
6.8970237926
 21
1.7472034527
 31
0.0
  0
LINE
  5
268
330
1F
100
AcDbEntity
  8
0
  6
Continuous
 62
     7
370
    25
100
AcDbLine
 10
6.8690538464
 20
1.7751733989
 30
0.0
 11
6.8690538464
 21
1.7472034527
 31
0.0
  0
LINE
  5
269
330
1F
100
AcDbEntity
  8
0
  6
Continuous
 62
     7
370
    25
100
AcDbLine
 10
6.8440313219
 20
1.7751733989
 30
0.0
 11
6.8690538464
 21
1.7751733989
 31
0.0
  0
LINE
  5
26A
330
1F
100
AcDbEntity
  8
0
  6
Continuous
 62
     7
370
    25
100
AcDbLine
 10
6.8440313219
 20
1.7472034527
 30
0.0
 11
6.8440313219
 21
1.7751733989
 31
0.0
  0
LINE
  5
26B
330
1F
100
AcDbEntity
  8
0
  6
Continuous
 62
     7
370
    25
100
AcDbLine
 10
6.8160613757
 20
1.7472034527
 30
0.0
 11
6.8440313219
 21
1.7472034527
 31
0.0
  0
LINE
  5
26C
330
1F
100
AcDbEntity
  8
0
  6
Continuous
 62
     7
370
    25
100
AcDbLine
 10
6.8160613757
 20
1.7221809282
 30
0.0
 11
6.8160613757
 21
1.7472034527
 31
0.0
  0
LINE
  5
26D
330
1F
100
AcDbEntity
  8
0
  6
Continuous
 62
     7
370
    25
100
AcDbLine
 10
6.8440313219
 20
1.7221809282
 30
0.0
 11
6.8160613757
 21
1.7221809282
 31
0.0
  0
LINE
  5
26E
330
1F
100
AcDbEntity
  8
0
  6
Continuous
 62
     7
370
    25
100
AcDbLine
 10
6.8440313219
 20
1.694210982
 30
0.0
 11
6.8440313219
 21
1.7221809282
 31
0.0
  0
LINE
  5
26F
330
1F
100
AcDbEntity
  8
0
  6
Continuous
 62
     7
370
    25
100
AcDbLine
 10
6.8690538464
 20
1.694210982
 30
0.0
 11
6.8440313219
 21
1.694210982
 31
0.0
  0
LINE
  5
270
330
1F
100
AcDbEntity
  8
0
  6
Continuous
 62
     7
370
    25
100
AcDbLine
 10
6.8690538464
 20
1.7221809282
 30
0.0
 11
6.8690538464
 21
1.694210982
 31
0.0
  0
LINE
  5
271
330
1F
100
AcDbEntity
  8
0
  6
Continuous
 62
     7
370
    25
100
AcDbLine
 10
6.8970237926
 20
1.7221809282
 30
0.0
 11
6.8690538464
 21
1.7221809282
 31
0.0
  0
LINE
  5
272
330
1F
100
AcDbEntity
  8
0
  6
Continuous
 62
     7
370
    25
100
AcDbLine
 10
7.0055770752
 20
1.1315671947
 30
0.0
 11
7.0055770752
 21
1.1065446702
 31
0.0
  0
LINE
  5
273
330
1F
100
AcDbEntity
  8
0
  6
Continuous
 62
     7
370
    25
100
AcDbLine
 10
6.977607129
 20
1.1315671947
 30
0.0
 11
7.0055770752
 21
1.1315671947
 31
0.0
  0
LINE
  5
274
330
1F
100
AcDbEntity
  8
0
  6
Continuous
 62
     7
370
    25
100
AcDbLine
 10
6.977607129
 20
1.1595371409
 30
0.0
 11
6.977607129
 21
1.1315671947
 31
0.0
  0
LINE
  5
275
330
1F
100
AcDbEntity
  8
0
  6
Continuous
 62
     7
370
    25
100
AcDbLine
 10
6.9525846045
 20
1.1595371409
 30
0.0
 11
6.977607129
 21
1.1595371409
 31
0.0
  0
LINE
  5
276
330
1F
100
AcDbEntity
  8
0
  6
Continuous
 62
     7
370
    25
100
AcDbLine
 10
6.9525846045
 20
1.1315671947
 30
0.0
 11
6.9525846045
 21
1.1595371409
 31
0.0
  0
LINE
  5
277
330
1F
100
AcDbEntity
  8
0
  6
Continuous
 62
     7
370
    25
100
AcDbLine
 10
6.9246146583
 20
1.1315671947
 30
0.0
 11
6.9525846045
 21
1.1315671947
 31
0.0
  0
LINE
  5
278
330
1F
100
AcDbEntity
  8
0
  6
Continuous
 62
     7
370
    25
100
AcDbLine
 10
6.9246146583
 20
1.1065446702
 30
0.0
 11
6.9246146583
 21
1.1315671947
 31
0.0
  0
LINE
  5
279
330
1F
100
AcDbEntity
  8
0
  6
Continuous
 62
     7
370
    25
100
AcDbLine
 10
6.9525846045
 20
1.1065446702
 30
0.0
 11
6.9246146583
 21
1.1065446702
 31
0.0
  0
LINE
  5
27A
330
1F
100
AcDbEntity
  8
0
  6
Continuous
 62
     7
370
    25
100
AcDbLine
 10
6.9525846045
 20
1.0785747241
 30
0.0
 11
6.9525846045
 21
1.1065446702
 31
0.0
  0
LINE
  5
27B
330
1F
100
AcDbEntity
  8
0
  6
Continuous
 62
     7
370
    25
100
AcDbLine
 10
6.977607129
 20
1.0785747241
 30
0.0
 11
6.9525846045
 21
1.0785747241
 31
0.0
  0
LINE
  5
27C
330
1F
100
AcDbEntity
  8
0
  6
Continuous
 62
     7
370
    25
100
AcDbLine
 10
6.977607129
 20
1.1065446702
 30
0.0
 11
6.977607129
 21
1.0785747241
 31
0.0
  0
LINE
  5
27D
330
1F
100
AcDbEntity
  8
0
  6
Continuous
 62
     7
370
    25
100
AcDbLine
 10
7.0055770752
 20
1.1065446702
 30
0.0
 11
6.977607129
 21
1.1065446702
 31
0.0
  0
LINE
  5
27E
330
1F
100
AcDbEntity
  8
0
  6
Continuous
 62
     7
370
    25
100
AcDbLine
 10
7.318143795
 20
0.5901857553
 30
0.0
 11
7.318143795
 21
0.5651632308
 31
0.0
  0
LINE
  5
27F
330
1F
100
AcDbEntity
  8
0
  6
Continuous
 62
     7
370
    25
100
AcDbLine
 10
7.2901738488
 20
0.5901857553
 30
0.0
 11
7.318143795
 21
0.5901857553
 31
0.0
  0
LINE
  5
280
330
1F
100
AcDbEntity
  8
0
  6
Continuous
 62
     7
370
    25
100
AcDbLine
 10
7.2901738488
 20
0.6181557014
 30
0.0
 11
7.2901738488
 21
0.5901857553
 31
0.0
  0
LINE
  5
281
330
1F
100
AcDbEntity
  8
0
  6
Continuous
 62
     7
370
    25
100
AcDbLine
 10
7.2651513243
 20
0.6181557014
 30
0.0
 11
7.2901738488
 21
0.6181557014
 31
0.0
  0
LINE
  5
282
330
1F
100
AcDbEntity
  8
0
  6
Continuous
 62
     7
370
    25
100
AcDbLine
 10
7.2651513243
 20
0.5901857553
 30
0.0
 11
7.2651513243
 21
0.6181557014
 31
0.0
  0
LINE
  5
283
330
1F
100
AcDbEntity
  8
0
  6
Continuous
 62
     7
370
    25
100
AcDbLine
 10
7.2371813781
 20
0.5901857553
 30
0.0
 11
7.2651513243
 21
0.5901857553
 31
0.0
  0
LINE
  5
284
330
1F
100
AcDbEntity
  8
0
  6
Continuous
 62
     7
370
    25
100
AcDbLine
 10
7.2371813781
 20
0.5651632308
 30
0.0
 11
7.2371813781
 21
0.5901857553
 31
0.0
  0
LINE
  5
285
330
1F
100
AcDbEntity
  8
0
  6
Continuous
 62
     7
370
    25
100
AcDbLine
 10
7.2651513243
 20
0.5651632308
 30
0.0
 11
7.2371813781
 21
0.5651632308
 31
0.0
  0
LINE
  5
286
330
1F
100
AcDbEntity
  8
0
  6
Continuous
 62
     7
370
    25
100
AcDbLine
 10
7.2651513243
 20
0.5371932846
 30
0.0
 11
7.2651513243
 21
0.5651632308
 31
0.0
  0
LINE
  5
287
330
1F
100
AcDbEntity
  8
0
  6
Continuous
 62
     7
370
    25
100
AcDbLine
 10
7.2901738488
 20
0.5371932846
 30
0.0
 11
7.2651513243
 21
0.5371932846
 31
0.0
  0
LINE
  5
288
330
1F
100
AcDbEntity
  8
0
  6
Continuous
 62
     7
370
    25
100
AcDbLine
 10
7.2901738488
 20
0.5651632308
 30
0.0
 11
7.2901738488
 21
0.5371932846
 31
0.0
  0
LINE
  5
289
330
1F
100
AcDbEntity
  8
0
  6
Continuous
 62
     7
370
    25
100
AcDbLine
 10
7.318143795
 20
0.5651632308
 30
0.0
 11
7.2901738488
 21
0.5651632308
 31
0.0
  0
LINE
  5
28A
330
1F
100
AcDbEntity
  8
0
  6
Continuous
 62
     7
370
    25
100
AcDbLine
 10
7.0055770752
 20
2.3628397107
 30
0.0
 11
7.0055770752
 21
2.3378171862
 31
0.0
  0
LINE
  5
28B
330
1F
100
AcDbEntity
  8
0
  6
Continuous
 62
     7
370
    25
100
AcDbLine
 10
6.977607129
 20
2.3628397107
 30
0.0
 11
7.0055770752
 21
2.3628397107
 31
0.0
  0
LINE
  5
28C
330
1F
100
AcDbEntity
  8
0
  6
Continuous
 62
     7
370
    25
100
AcDbLine
 10
6.977607129
 20
2.3908096569
 30
0.0
 11
6.977607129
 21
2.3628397107
 31
0.0
  0
LINE
  5
28D
330
1F
100
AcDbEntity
  8
0
  6
Continuous
 62
     7
370
    25
100
AcDbLine
 10
6.9525846045
 20
2.3908096569
 30
0.0
 11
6.977607129
 21
2.3908096569
 31
0.0
  0
LINE
  5
28E
330
1F
100
AcDbEntity
  8
0
  6
Continuous
 62
     7
370
    25
100
AcDbLine
 10
6.9525846045
 20
2.3628397107
 30
0.0
 11
6.9525846045
 21
2.3908096569
 31
0.0
  0
LINE
  5
28F
330
1F
100
AcDbEntity
  8
0
  6
Continuous
 62
     7
370
    25
100
AcDbLine
 10
6.9246146583
 20
2.3628397107
 30
0.0
 11
6.9525846045
 21
2.3628397107
 31
0.0
  0
LINE
  5
290
330
1F
100
AcDbEntity
  8
0
  6
Continuous
 62
     7
370
    25
100
AcDbLine
 10
6.9246146583
 20
2.3378171862
 30
0.0
 11
6.9246146583
 21
2.3628397107
 31
0.0
  0
LINE
  5
291
330
1F
100
AcDbEntity
  8
0
  6
Continuous
 62
     7
370
    25
100
AcDbLine
 10
6.9525846045
 20
2.3378171862
 30
0.0
 11
6.9246146583
 21
2.3378171862
 31
0.0
  0
LINE
  5
292
330
1F
100
AcDbEntity
  8
0
  6
Continuous
 62
     7
370
    25
100
AcDbLine
 10
6.9525846045
 20
2.30984724
 30
0.0
 11
6.9525846045
 21
2.3378171862
 31
0.0
  0
LINE
  5
293
330
1F
100
AcDbEntity
  8
0
  6
Continuous
 62
     7
370
    25
100
AcDbLine
 10
6.977607129
 20
2.30984724
 30
0.0
 11
6.9525846045
 21
2.30984724
 31
0.0
  0
LINE
  5
294
330
1F
100
AcDbEntity
  8
0
  6
Continuous
 62
     7
370
    25
100
AcDbLine
 10
6.977607129
 20
2.3378171862
 30
0.0
 11
6.977607129
 21
2.30984724
 31
0.0
  0
LINE
  5
295
330
1F
100
AcDbEntity
  8
0
  6
Continuous
 62
     7
370
    25
100
AcDbLine
 10
7.0055770752
 20
2.3378171862
 30
0.0
 11
6.977607129
 21
2.3378171862
 31
0.0
  0
LINE
  5
296
330
1F
100
AcDbEntity
  8
0
  6
Continuous
 62
     7
370
    25
100
AcDbLine
 10
6.8690538464
 20
1.8811258137
 30
0.0
 11
6.8440313219
 21
1.8811258137
 31
0.0
  0
LINE
  5
297
330
1F
100
AcDbEntity
  8
0
  6
Continuous
 62
     7
370
    25
100
AcDbLine
 10
6.8690538464
 20
1.9090957599
 30
0.0
 11
6.8690538464
 21
1.8811258137
 31
0.0
  0
LINE
  5
298
330
1F
100
AcDbEntity
  8
0
  6
Continuous
 62
     7
370
    25
100
AcDbLine
 10
6.8970237926
 20
1.9090957599
 30
0.0
 11
6.8690538464
 21
1.9090957599
 31
0.0
  0
LINE
  5
299
330
1F
100
AcDbEntity
  8
0
  6
Continuous
 62
     7
370
    25
100
AcDbLine
 10
6.8970237926
 20
1.9341182844
 30
0.0
 11
6.8970237926
 21
1.9090957599
 31
0.0
  0
LINE
  5
29A
330
1F
100
AcDbEntity
  8
0
  6
Continuous
 62
     7
370
    25
100
AcDbLine
 10
6.8690538464
 20
1.9341182844
 30
0.0
 11
6.8970237926
 21
1.9341182844
 31
0.0
  0
LINE
  5
29B
330
1F
100
AcDbEntity
  8
0
  6
Continuous
 62
     7
370
    25
100
AcDbLine
 10
6.8690538464
 20
1.9620882306
 30
0.0
 11
6.8690538464
 21
1.9341182844
 31
0.0
  0
LINE
  5
29C
330
1F
100
AcDbEntity
  8
0
  6
Continuous
 62
     7
370
    25
100
AcDbLine
 10
6.8440313219
 20
1.9620882306
 30
0.0
 11
6.8690538464
 21
1.9620882306
 31
0.0
  0
LINE
  5
29D
330
1F
100
AcDbEntity
  8
0
  6
Continuous
 62
     7
370
    25
100
AcDbLine
 10
6.8440313219
 20
1.9341182844
 30
0.0
 11
6.8440313219
 21
1.9620882306
 31
0.0
  0
LINE
  5
29E
330
1F
100
AcDbEntity
  8
0
  6
Continuous
 62
     7
370
    25
100
AcDbLine
 10
6.8160613757
 20
1.9341182844
 30
0.0
 11
6.8440313219
 21
1.9341182844
 31
0.0
  0
LINE
  5
29F
330
1F
100
AcDbEntity
  8
0
  6
Continuous
 62
     7
370
    25
100
AcDbLine
 10
6.8160613757
 20
1.9090957599
 30
0.0
 11
6.8160613757
 21
1.9341182844
 31
0.0
  0
LINE
  5
2A0
330
1F
100
AcDbEntity
  8
0
  6
Continuous
 62
     7
370
    25
100
AcDbLine
 10
6.8440313219
 20
1.9090957599
 30
0.0
 11
6.8160613757
 21
1.9090957599
 31
0.0
  0
LINE
  5
2A1
330
1F
100
AcDbEntity
  8
0
  6
Continuous
 62
     7
370
    25
100
AcDbLine
 10
6.8440313219
 20
1.8811258137
 30
0.0
 11
6.8440313219
 21
1.9090957599
 31
0.0
  0
LINE
  5
2A2
330
1F
100
AcDbEntity
  8
0
  6
Continuous
 62
     7
370
    25
100
AcDbLine
 10
6.977607129
 20
1.2654895557
 30
0.0
 11
6.9525846045
 21
1.2654895557
 31
0.0
  0
LINE
  5
2A3
330
1F
100
AcDbEntity
  8
0
  6
Continuous
 62
     7
370
    25
100
AcDbLine
 10
6.977607129
 20
1.2934595019
 30
0.0
 11
6.977607129
 21
1.2654895557
 31
0.0
  0
LINE
  5
2A4
330
1F
100
AcDbEntity
  8
0
  6
Continuous
 62
     7
370
    25
100
AcDbLine
 10
7.0055770752
 20
1.2934595019
 30
0.0
 11
6.977607129
 21
1.2934595019
 31
0.0
  0
LINE
  5
2A5
330
1F
100
AcDbEntity
  8
0
  6
Continuous
 62
     7
370
    25
100
AcDbLine
 10
7.0055770752
 20
1.3184820264
 30
0.0
 11
7.0055770752
 21
1.2934595019
 31
0.0
  0
LINE
  5
2A6
330
1F
100
AcDbEntity
  8
0
  6
Continuous
 62
     7
370
    25
100
AcDbLine
 10
6.977607129
 20
1.3184820264
 30
0.0
 11
7.0055770752
 21
1.3184820264
 31
0.0
  0
LINE
  5
2A7
330
1F
100
AcDbEntity
  8
0
  6
Continuous
 62
     7
370
    25
100
AcDbLine
 10
6.977607129
 20
1.3464519726
 30
0.0
 11
6.977607129
 21
1.3184820264
 31
0.0
  0
LINE
  5
2A8
330
1F
100
AcDbEntity
  8
0
  6
Continuous
 62
     7
370
    25
100
AcDbLine
 10
6.9525846045
 20
1.3464519726
 30
0.0
 11
6.977607129
 21
1.3464519726
 31
0.0
  0
LINE
  5
2A9
330
1F
100
AcDbEntity
  8
0
  6
Continuous
 62
     7
370
    25
100
AcDbLine
 10
6.9525846045
 20
1.3184820264
 30
0.0
 11
6.9525846045
 21
1.3464519726
 31
0.0
  0
LINE
  5
2AA
330
1F
100
AcDbEntity
  8
0
  6
Continuous
 62
     7
370
    25
100
AcDbLine
 10
6.9246146583
 20
1.3184820264
 30
0.0
 11
6.9525846045
 21
1.3184820264
 31
0.0
  0
LINE
  5
2AB
330
1F
100
AcDbEntity
  8
0
  6
Continuous
 62
     7
370
    25
100
AcDbLine
 10
6.9246146583
 20
1.2934595019
 30
0.0
 11
6.9246146583
 21
1.3184820264
 31
0.0
  0
LINE
  5
2AC
330
1F
100
AcDbEntity
  8
0
  6
Continuous
 62
     7
370
    25
100
AcDbLine
 10
6.9525846045
 20
1.2934595019
 30
0.0
 11
6.9246146583
 21
1.2934595019
 31
0.0
  0
LINE
  5
2AD
330
1F
100
AcDbEntity
  8
0
  6
Continuous
 62
     7
370
    25
100
AcDbLine
 10
6.9525846045
 20
1.2654895557
 30
0.0
 11
6.9525846045
 21
1.2934595019
 31
0.0
  0
LINE
  5
2AE
330
1F
100
AcDbEntity
  8
0
  6
Continuous
 62
     7
370
    25
100
AcDbLine
 10
7.2901738488
 20
0.7241081163
 30
0.0
 11
7.2651513243
 21
0.7241081163
 31
0.0
  0
LINE
  5
2AF
330
1F
100
AcDbEntity
  8
0
  6
Continuous
 62
     7
370
    25
100
AcDbLine
 10
7.2901738488
 20
0.7520780624
 30
0.0
 11
7.2901738488
 21
0.7241081163
 31
0.0
  0
LINE
  5
2B0
330
1F
100
AcDbEntity
  8
0
  6
Continuous
 62
     7
370
    25
100
AcDbLine
 10
7.318143795
 20
0.7520780624
 30
0.0
 11
7.2901738488
 21
0.7520780624
 31
0.0
  0
LINE
  5
2B1
330
1F
100
AcDbEntity
  8
0
  6
Continuous
 62
     7
370
    25
100
AcDbLine
 10
7.318143795
 20
0.777100587
 30
0.0
 11
7.318143795
 21
0.7520780624
 31
0.0
  0
LINE
  5
2B2
330
1F
100
AcDbEntity
  8
0
  6
Continuous
 62
     7
370
    25
100
AcDbLine
 10
7.2901738488
 20
0.777100587
 30
0.0
 11
7.318143795
 21
0.777100587
 31
0.0
  0
LINE
  5
2B3
330
1F
100
AcDbEntity
  8
0
  6
Continuous
 62
     7
370
    25
100
AcDbLine
 10
7.2901738488
 20
0.8050705331
 30
0.0
 11
7.2901738488
 21
0.777100587
 31
0.0
  0
LINE
  5
2B4
330
1F
100
AcDbEntity
  8
0
  6
Continuous
 62
     7
370
    25
100
AcDbLine
 10
7.2651513243
 20
0.8050705331
 30
0.0
 11
7.2901738488
 21
0.8050705331
 31
0.0
  0
LINE
  5
2B5
330
1F
100
AcDbEntity
  8
0
  6
Continuous
 62
     7
370
    25
100
AcDbLine
 10
7.2651513243
 20
0.777100587
 30
0.0
 11
7.2651513243
 21
0.8050705331
 31
0.0
  0
LINE
  5
2B6
330
1F
100
AcDbEntity
  8
0
  6
Continuous
 62
     7
370
    25
100
AcDbLine
 10
7.2371813781
 20
0.777100587
 30
0.0
 11
7.2651513243
 21
0.777100587
 31
0.0
  0
LINE
  5
2B7
330
1F
100
AcDbEntity
  8
0
  6
Continuous
 62
     7
370
    25
100
AcDbLine
 10
7.2371813781
 20
0.7520780624
 30
0.0
 11
7.2371813781
 21
0.777100587
 31
0.0
  0
LINE
  5
2B8
330
1F
100
AcDbEntity
  8
0
  6
Continuous
 62
     7
370
    25
100
AcDbLine
 10
7.2651513243
 20
0.7520780624
 30
0.0
 11
7.2371813781
 21
0.7520780624
 31
0.0
  0
LINE
  5
2B9
330
1F
100
AcDbEntity
  8
0
  6
Continuous
 62
     7
370
    25
100
AcDbLine
 10
7.2651513243
 20
0.7241081163
 30
0.0
 11
7.2651513243
 21
0.7520780624
 31
0.0
  0
LINE
  5
2BA
330
1F
100
AcDbEntity
  8
0
  6
Continuous
 62
     7
370
    25
100
AcDbLine
 10
6.977607129
 20
2.4967620717
 30
0.0
 11
6.9525846045
 21
2.4967620717
 31
0.0
  0
LINE
  5
2BB
330
1F
100
AcDbEntity
  8
0
  6
Continuous
 62
     7
370
    25
100
AcDbLine
 10
6.977607129
 20
2.5247320179
 30
0.0
 11
6.977607129
 21
2.4967620717
 31
0.0
  0
LINE
  5
2BC
330
1F
100
AcDbEntity
  8
0
  6
Continuous
 62
     7
370
    25
100
AcDbLine
 10
7.0055770752
 20
2.5247320179
 30
0.0
 11
6.977607129
 21
2.5247320179
 31
0.0
  0
LINE
  5
2BD
330
1F
100
AcDbEntity
  8
0
  6
Continuous
 62
     7
370
    25
100
AcDbLine
 10
7.0055770752
 20
2.5497545424
 30
0.0
 11
7.0055770752
 21
2.5247320179
 31
0.0
  0
LINE
  5
2BE
330
1F
100
AcDbEntity
  8
0
  6
Continuous
 62
     7
370
    25
100
AcDbLine
 10
6.977607129
 20
2.5497545424
 30
0.0
 11
7.0055770752
 21
2.5497545424
 31
0.0
  0
LINE
  5
2BF
330
1F
100
AcDbEntity
  8
0
  6
Continuous
 62
     7
370
    25
100
AcDbLine
 10
6.977607129
 20
2.5777244885
 30
0.0
 11
6.977607129
 21
2.5497545424
 31
0.0
  0
LINE
  5
2C0
330
1F
100
AcDbEntity
  8
0
  6
Continuous
 62
     7
370
    25
100
AcDbLine
 10
6.9525846045
 20
2.5777244885
 30
0.0
 11
6.977607129
 21
2.5777244885
 31
0.0
  0
LINE
  5
2C1
330
1F
100
AcDbEntity
  8
0
  6
Continuous
 62
     7
370
    25
100
AcDbLine
 10
6.9525846045
 20
2.5497545424
 30
0.0
 11
6.9525846045
 21
2.5777244885
 31
0.0
  0
LINE
  5
2C2
330
1F
100
AcDbEntity
  8
0
  6
Continuous
 62
     7
370
    25
100
AcDbLine
 10
6.9246146583
 20
2.5497545424
 30
0.0
 11
6.9525846045
 21
2.5497545424
 31
0.0
  0
LINE
  5
2C3
330
1F
100
AcDbEntity
  8
0
  6
Continuous
 62
     7
370
    25
100
AcDbLine
 10
6.9246146583
 20
2.5247320179
 30
0.0
 11
6.9246146583
 21
2.5497545424
 31
0.0
  0
LINE
  5
2C4
330
1F
100
AcDbEntity
  8
0
  6
Continuous
 62
     7
370
    25
100
AcDbLine
 10
6.9525846045
 20
2.5247320179
 30
0.0
 11
6.9246146583
 21
2.5247320179
 31
0.0
  0
LINE
  5
2C5
330
1F
100
AcDbEntity
  8
0
  6
Continuous
 62
     7
370
    25
100
AcDbLine
 10
6.9525846045
 20
2.4967620717
 30
0.0
 11
6.9525846045
 21
2.5247320179
 31
0.0
  0
LINE
  5
2C6
330
1F
100
AcDbEntity
  8
0
  6
Continuous
 62
     7
370
    25
100
AcDbLine
 10
7.0029762074
 20
1.9341182844
 30
0.0
 11
7.0309461536
 21
1.9341182844
 31
0.0
  0
LINE
  5
2C7
330
1F
100
AcDbEntity
  8
0
  6
Continuous
 62
     7
370
    25
100
AcDbLine
 10
7.0029762074
 20
1.9090957599
 30
0.0
 11
7.0029762074
 21
1.9341182844
 31
0.0
  0
LINE
  5
2C8
330
1F
100
AcDbEntity
  8
0
  6
Continuous
 62
     7
370
    25
100
AcDbLine
 10
7.0309461536
 20
1.9090957599
 30
0.0
 11
7.0029762074
 21
1.9090957599
 31
0.0
  0
LINE
  5
2C9
330
1F
100
AcDbEntity
  8
0
  6
Continuous
 62
     7
370
    25
100
AcDbLine
 10
7.0309461536
 20
1.8811258137
 30
0.0
 11
7.0309461536
 21
1.9090957599
 31
0.0
  0
LINE
  5
2CA
330
1F
100
AcDbEntity
  8
0
  6
Continuous
 62
     7
370
    25
100
AcDbLine
 10
7.0559686781
 20
1.8811258137
 30
0.0
 11
7.0309461536
 21
1.8811258137
 31
0.0
  0
LINE
  5
2CB
330
1F
100
AcDbEntity
  8
0
  6
Continuous
 62
     7
370
    25
100
AcDbLine
 10
7.0559686781
 20
1.9090957599
 30
0.0
 11
7.0559686781
 21
1.8811258137
 31
0.0
  0
LINE
  5
2CC
330
1F
100
AcDbEntity
  8
0
  6
Continuous
 62
     7
370
    25
100
AcDbLine
 10
7.0839386243
 20
1.9090957599
 30
0.0
 11
7.0559686781
 21
1.9090957599
 31
0.0
  0
LINE
  5
2CD
330
1F
100
AcDbEntity
  8
0
  6
Continuous
 62
     7
370
    25
100
AcDbLine
 10
7.0839386243
 20
1.9341182844
 30
0.0
 11
7.0839386243
 21
1.9090957599
 31
0.0
  0
LINE
  5
2CE
330
1F
100
AcDbEntity
  8
0
  6
Continuous
 62
     7
370
    25
100
AcDbLine
 10
7.0559686781
 20
1.9341182844
 30
0.0
 11
7.0839386243
 21
1.9341182844
 31
0.0
  0
LINE
  5
2CF
330
1F
100
AcDbEntity
  8
0
  6
Continuous
 62
     7
370
    25
100
AcDbLine
 10
7.0559686781
 20
1.9620882306
 30
0.0
 11
7.0559686781
 21
1.9341182844
 31
0.0
  0
LINE
  5
2D0
330
1F
100
AcDbEntity
  8
0
  6
Continuous
 62
     7
370
    25
100
AcDbLine
 10
7.0309461536
 20
1.9620882306
 30
0.0
 11
7.0559686781
 21
1.9620882306
 31
0.0
  0
LINE
  5
2D1
330
1F
100
AcDbEntity
  8
0
  6
Continuous
 62
     7
370
    25
100
AcDbLine
 10
7.0309461536
 20
1.9341182844
 30
0.0
 11
7.0309461536
 21
1.9620882306
 31
0.0
  0
LINE
  5
2D2
330
1F
100
AcDbEntity
  8
0
  6
Continuous
 62
     7
370
    25
100
AcDbLine
 10
7.11152949
 20
1.3184820264
 30
0.0
 11
7.1394994362
 21
1.3184820264
 31
0.0
  0
LINE
  5
2D3
330
1F
100
AcDbEntity
  8
0
  6
Continuous
 62
     7
370
    25
100
AcDbLine
 10
7.11152949
 20
1.2934595019
 30
0.0
 11
7.11152949
 21
1.3184820264
 31
0.0
  0
LINE
  5
2D4
330
1F
100
AcDbEntity
  8
0
  6
Continuous
 62
     7
370
    25
100
AcDbLine
 10
7.1394994362
 20
1.2934595019
 30
0.0
 11
7.11152949
 21
1.2934595019
 31
0.0
  0
LINE
  5
2D5
330
1F
100
AcDbEntity
  8
0
  6
Continuous
 62
     7
370
    25
100
AcDbLine
 10
7.1394994362
 20
1.2654895557
 30
0.0
 11
7.1394994362
 21
1.2934595019
 31
0.0
  0
LINE
  5
2D6
330
1F
100
AcDbEntity
  8
0
  6
Continuous
 62
     7
370
    25
100
AcDbLine
 10
7.1645219607
 20
1.2654895557
 30
0.0
 11
7.1394994362
 21
1.2654895557
 31
0.0
  0
LINE
  5
2D7
330
1F
100
AcDbEntity
  8
0
  6
Continuous
 62
     7
370
    25
100
AcDbLine
 10
7.1645219607
 20
1.2934595019
 30
0.0
 11
7.1645219607
 21
1.2654895557
 31
0.0
  0
LINE
  5
2D8
330
1F
100
AcDbEntity
  8
0
  6
Continuous
 62
     7
370
    25
100
AcDbLine
 10
7.1924919068
 20
1.2934595019
 30
0.0
 11
7.1645219607
 21
1.2934595019
 31
0.0
  0
LINE
  5
2D9
330
1F
100
AcDbEntity
  8
0
  6
Continuous
 62
     7
370
    25
100
AcDbLine
 10
7.1924919068
 20
1.3184820264
 30
0.0
 11
7.1924919068
 21
1.2934595019
 31
0.0
  0
LINE
  5
2DA
330
1F
100
AcDbEntity
  8
0
  6
Continuous
 62
     7
370
    25
100
AcDbLine
 10
7.1645219607
 20
1.3184820264
 30
0.0
 11
7.1924919068
 21
1.3184820264
 31
0.0
  0
LINE
  5
2DB
330
1F
100
AcDbEntity
  8
0
  6
Continuous
 62
     7
370
    25
100
AcDbLine
 10
7.1645219607
 20
1.3464519726
 30
0.0
 11
7.1645219607
 21
1.3184820264
 31
0.0
  0
LINE
  5
2DC
330
1F
100
AcDbEntity
  8
0
  6
Continuous
 62
     7
370
    25
100
AcDbLine
 10
7.1394994362
 20
1.3464519726
 30
0.0
 11
7.1645219607
 21
1.3464519726
 31
0.0
  0
LINE
  5
2DD
330
1F
100
AcDbEntity
  8
0
  6
Continuous
 62
     7
370
    25
100
AcDbLine
 10
7.1394994362
 20
1.3184820264
 30
0.0
 11
7.1394994362
 21
1.3464519726
 31
0.0
  0
LINE
  5
2DE
330
1F
100
AcDbEntity
  8
0
  6
Continuous
 62
     7
370
    25
100
AcDbLine
 10
7.4240962098
 20
0.777100587
 30
0.0
 11
7.452066156
 21
0.777100587
 31
0.0
  0
LINE
  5
2DF
330
1F
100
AcDbEntity
  8
0
  6
Continuous
 62
     7
370
    25
100
AcDbLine
 10
7.4240962098
 20
0.7520780624
 30
0.0
 11
7.4240962098
 21
0.777100587
 31
0.0
  0
LINE
  5
2E0
330
1F
100
AcDbEntity
  8
0
  6
Continuous
 62
     7
370
    25
100
AcDbLine
 10
7.452066156
 20
0.7520780624
 30
0.0
 11
7.4240962098
 21
0.7520780624
 31
0.0
  0
LINE
  5
2E1
330
1F
100
AcDbEntity
  8
0
  6
Continuous
 62
     7
370
    25
100
AcDbLine
 10
7.452066156
 20
0.7241081163
 30
0.0
 11
7.452066156
 21
0.7520780624
 31
0.0
  0
LINE
  5
2E2
330
1F
100
AcDbEntity
  8
0
  6
Continuous
 62
     7
370
    25
100
AcDbLine
 10
7.4770886805
 20
0.7241081163
 30
0.0
 11
7.452066156
 21
0.7241081163
 31
0.0
  0
LINE
  5
2E3
330
1F
100
AcDbEntity
  8
0
  6
Continuous
 62
     7
370
    25
100
AcDbLine
 10
7.4770886805
 20
0.7520780624
 30
0.0
 11
7.4770886805
 21
0.7241081163
 31
0.0
  0
LINE
  5
2E4
330
1F
100
AcDbEntity
  8
0
  6
Continuous
 62
     7
370
    25
100
AcDbLine
 10
7.5050586266
 20
0.7520780624
 30
0.0
 11
7.4770886805
 21
0.7520780624
 31
0.0
  0
LINE
  5
2E5
330
1F
100
AcDbEntity
  8
0
  6
Continuous
 62
     7
370
    25
100
AcDbLine
 10
7.5050586266
 20
0.777100587
 30
0.0
 11
7.5050586266
 21
0.7520780624
 31
0.0
  0
LINE
  5
2E6
330
1F
100
AcDbEntity
  8
0
  6
Continuous
 62
     7
370
    25
100
AcDbLine
 10
7.4770886805
 20
0.777100587
 30
0.0
 11
7.5050586266
 21
0.777100587
 31
0.0
  0
LINE
  5
2E7
330
1F
100
AcDbEntity
  8
0
  6
Continuous
 62
     7
370
    25
100
AcDbLine
 10
7.4770886805
 20
0.8050705331
 30
0.0
 11
7.4770886805
 21
0.777100587
 31
0.0
  0
LINE
  5
2E8
330
1F
100
AcDbEntity
  8
0
  6
Continuous
 62
     7
370
    25
100
AcDbLine
 10
7.452066156
 20
0.8050705331
 30
0.0
 11
7.4770886805
 21
0.8050705331
 31
0.0
  0
LINE
  5
2E9
330
1F
100
AcDbEntity
  8
0
  6
Continuous
 62
     7
370
    25
100
AcDbLine
 10
7.452066156
 20
0.777100587
 30
0.0
 11
7.452066156
 21
0.8050705331
 31
0.0
  0
LINE
  5
2EA
330
1F
100
AcDbEntity
  8
0
  6
Continuous
 62
     7
370
    25
100
AcDbLine
 10
7.11152949
 20
2.5497545424
 30
0.0
 11
7.1394994362
 21
2.5497545424
 31
0.0
  0
LINE
  5
2EB
330
1F
100
AcDbEntity
  8
0
  6
Continuous
 62
     7
370
    25
100
AcDbLine
 10
7.11152949
 20
2.5247320179
 30
0.0
 11
7.11152949
 21
2.5497545424
 31
0.0
  0
LINE
  5
2EC
330
1F
100
AcDbEntity
  8
0
  6
Continuous
 62
     7
370
    25
100
AcDbLine
 10
7.1394994362
 20
2.5247320179
 30
0.0
 11
7.11152949
 21
2.5247320179
 31
0.0
  0
LINE
  5
2ED
330
1F
100
AcDbEntity
  8
0
  6
Continuous
 62
     7
370
    25
100
AcDbLine
 10
7.1394994362
 20
2.4967620717
 30
0.0
 11
7.1394994362
 21
2.5247320179
 31
0.0
  0
LINE
  5
2EE
330
1F
100
AcDbEntity
  8
0
  6
Continuous
 62
     7
370
    25
100
AcDbLine
 10
7.1645219607
 20
2.4967620717
 30
0.0
 11
7.1394994362
 21
2.4967620717
 31
0.0
  0
LINE
  5
2EF
330
1F
100
AcDbEntity
  8
0
  6
Continuous
 62
     7
370
    25
100
AcDbLine
 10
7.1645219607
 20
2.5247320179
 30
0.0
 11
7.1645219607
 21
2.4967620717
 31
0.0
  0
LINE
  5
2F0
330
1F
100
AcDbEntity
  8
0
  6
Continuous
 62
     7
370
    25
100
AcDbLine
 10
7.1924919068
 20
2.5247320179
 30
0.0
 11
7.1645219607
 21
2.5247320179
 31
0.0
  0
LINE
  5
2F1
330
1F
100
AcDbEntity
  8
0
  6
Continuous
 62
     7
370
    25
100
AcDbLine
 10
7.1924919068
 20
2.5497545424
 30
0.0
 11
7.1924919068
 21
2.5247320179
 31
0.0
  0
LINE
  5
2F2
330
1F
100
AcDbEntity
  8
0
  6
Continuous
 62
     7
370
    25
100
AcDbLine
 10
7.1645219607
 20
2.5497545424
 30
0.0
 11
7.1924919068
 21
2.5497545424
 31
0.0
  0
LINE
  5
2F3
330
1F
100
AcDbEntity
  8
0
  6
Continuous
 62
     7
370
    25
100
AcDbLine
 10
7.1645219607
 20
2.5777244885
 30
0.0
 11
7.1645219607
 21
2.5497545424
 31
0.0
  0
LINE
  5
2F4
330
1F
100
AcDbEntity
  8
0
  6
Continuous
 62
     7
370
    25
100
AcDbLine
 10
7.1394994362
 20
2.5777244885
 30
0.0
 11
7.1645219607
 21
2.5777244885
 31
0.0
  0
LINE
  5
2F5
330
1F
100
AcDbEntity
  8
0
  6
Continuous
 62
     7
370
    25
100
AcDbLine
 10
7.1394994362
 20
2.5497545424
 30
0.0
 11
7.1394994362
 21
2.5777244885
 31
0.0
  0
LINE
  5
2F6
330
1F
100
AcDbEntity
  8
0
  6
Continuous
 62
     7
370
    25
100
AcDbLine
 10
7.0839431433
 20
2.6053108353
 30
0.0
 11
7.0839431433
 21
2.469175725
 31
0.0
  0
LINE
  5
2F7
330
1F
100
AcDbEntity
  8
0
  6
Continuous
 62
     7
370
    25
100
AcDbLine
 10
7.1231869012
 20
2.6053108353
 30
0.0
 11
7.0839431433
 21
2.6053108353
 31
0.0
  0
LINE
  5
2F8
330
1F
100
AcDbEntity
  8
0
  6
Continuous
 62
     7
370
    25
100
AcDbLine
 10
7.1231869012
 20
2.6303083654
 30
0.0
 11
7.1231869012
 21
2.6053108353
 31
0.0
  0
LINE
  5
2F9
330
1F
100
AcDbEntity
  8
0
  6
Continuous
 62
     7
370
    25
100
AcDbLine
 10
6.993919664
 20
2.6303083654
 30
0.0
 11
7.1231869012
 21
2.6303083654
 31
0.0
  0
LINE
  5
2FA
330
1F
100
AcDbEntity
  8
0
  6
Continuous
 62
     7
370
    25
100
AcDbLine
 10
6.993919664
 20
2.6053108353
 30
0.0
 11
6.993919664
 21
2.6303083654
 31
0.0
  0
LINE
  5
2FB
330
1F
100
AcDbEntity
  8
0
  6
Continuous
 62
     7
370
    25
100
AcDbLine
 10
7.0331634219
 20
2.6053108353
 30
0.0
 11
6.993919664
 21
2.6053108353
 31
0.0
  0
LINE
  5
2FC
330
1F
100
AcDbEntity
  8
0
  6
Continuous
 62
     7
370
    25
100
AcDbLine
 10
7.0331634219
 20
2.469175725
 30
0.0
 11
7.0331634219
 21
2.6053108353
 31
0.0
  0
LINE
  5
2FD
330
1F
100
AcDbEntity
  8
0
  6
Continuous
 62
     7
370
    25
100
AcDbLine
 10
6.8970283116
 20
2.469175725
 30
0.0
 11
7.0331634219
 21
2.469175725
 31
0.0
  0
LINE
  5
2FE
330
1F
100
AcDbEntity
  8
0
  6
Continuous
 62
     7
370
    25
100
AcDbLine
 10
6.8970283116
 20
2.5084194829
 30
0.0
 11
6.8970283116
 21
2.469175725
 31
0.0
  0
LINE
  5
2FF
330
1F
100
AcDbEntity
  8
0
  6
Continuous
 62
     7
370
    25
100
AcDbLine
 10
6.8720307815
 20
2.5084194829
 30
0.0
 11
6.8970283116
 21
2.5084194829
 31
0.0
  0
LINE
  5
300
330
1F
100
AcDbEntity
  8
0
  6
Continuous
 62
     7
370
    25
100
AcDbLine
 10
6.8720307815
 20
2.3791522457
 30
0.0
 11
6.8720307815
 21
2.5084194829
 31
0.0
  0
LINE
  5
301
330
1F
100
AcDbEntity
  8
0
  6
Continuous
 62
     7
370
    25
100
AcDbLine
 10
6.8970283116
 20
2.3791522457
 30
0.0
 11
6.8720307815
 21
2.3791522457
 31
0.0
  0
LINE
  5
302
330
1F
100
AcDbEntity
  8
0
  6
Continuous
 62
     7
370
    25
100
AcDbLine
 10
6.8970283116
 20
2.4183960036
 30
0.0
 11
6.8970283116
 21
2.3791522457
 31
0.0
  0
LINE
  5
303
330
1F
100
AcDbEntity
  8
0
  6
Continuous
 62
     7
370
    25
100
AcDbLine
 10
7.0331634219
 20
2.4183960036
 30
0.0
 11
6.8970283116
 21
2.4183960036
 31
0.0
  0
LINE
  5
304
330
1F
100
AcDbEntity
  8
0
  6
Continuous
 62
     7
370
    25
100
AcDbLine
 10
7.0331634219
 20
2.2822608933
 30
0.0
 11
7.0331634219
 21
2.4183960036
 31
0.0
  0
LINE
  5
305
330
1F
100
AcDbEntity
  8
0
  6
Continuous
 62
     7
370
    25
100
AcDbLine
 10
6.993919664
 20
2.2822608933
 30
0.0
 11
7.0331634219
 21
2.2822608933
 31
0.0
  0
LINE
  5
306
330
1F
100
AcDbEntity
  8
0
  6
Continuous
 62
     7
370
    25
100
AcDbLine
 10
6.993919664
 20
2.2572633632
 30
0.0
 11
6.993919664
 21
2.2822608933
 31
0.0
  0
LINE
  5
307
330
1F
100
AcDbEntity
  8
0
  6
Continuous
 62
     7
370
    25
100
AcDbLine
 10
7.1231869012
 20
2.2572633632
 30
0.0
 11
6.993919664
 21
2.2572633632
 31
0.0
  0
LINE
  5
308
330
1F
100
AcDbEntity
  8
0
  6
Continuous
 62
     7
370
    25
100
AcDbLine
 10
7.1231869012
 20
2.2822608933
 30
0.0
 11
7.1231869012
 21
2.2572633632
 31
0.0
  0
LINE
  5
309
330
1F
100
AcDbEntity
  8
0
  6
Continuous
 62
     7
370
    25
100
AcDbLine
 10
7.0839431433
 20
2.2822608933
 30
0.0
 11
7.1231869012
 21
2.2822608933
 31
0.0
  0
LINE
  5
30A
330
1F
100
AcDbEntity
  8
0
  6
Continuous
 62
     7
370
    25
100
AcDbLine
 10
7.0839431433
 20
2.4183960036
 30
0.0
 11
7.0839431433
 21
2.2822608933
 31
0.0
  0
LINE
  5
30B
330
1F
100
AcDbEntity
  8
0
  6
Continuous
 62
     7
370
    25
100
AcDbLine
 10
7.2200782536
 20
2.4183960036
 30
0.0
 11
7.0839431433
 21
2.4183960036
 31
0.0
  0
LINE
  5
30C
330
1F
100
AcDbEntity
  8
0
  6
Continuous
 62
     7
370
    25
100
AcDbLine
 10
7.2200782536
 20
2.3791522457
 30
0.0
 11
7.2200782536
 21
2.4183960036
 31
0.0
  0
LINE
  5
30D
330
1F
100
AcDbEntity
  8
0
  6
Continuous
 62
     7
370
    25
100
AcDbLine
 10
7.2450757837
 20
2.3791522457
 30
0.0
 11
7.2200782536
 21
2.3791522457
 31
0.0
  0
LINE
  5
30E
330
1F
100
AcDbEntity
  8
0
  6
Continuous
 62
     7
370
    25
100
AcDbLine
 10
7.2450757837
 20
2.5084194829
 30
0.0
 11
7.2450757837
 21
2.3791522457
 31
0.0
  0
LINE
  5
30F
330
1F
100
AcDbEntity
  8
0
  6
Continuous
 62
     7
370
    25
100
AcDbLine
 10
7.2200782536
 20
2.5084194829
 30
0.0
 11
7.2450757837
 21
2.5084194829
 31
0.0
  0
LINE
  5
310
330
1F
100
AcDbEntity
  8
0
  6
Continuous
 62
     7
370
    25
100
AcDbLine
 10
7.2200782536
 20
2.469175725
 30
0.0
 11
7.2200782536
 21
2.5084194829
 31
0.0
  0
LINE
  5
311
330
1F
100
AcDbEntity
  8
0
  6
Continuous
 62
     7
370
    25
100
AcDbLine
 10
7.0839431433
 20
2.469175725
 30
0.0
 11
7.2200782536
 21
2.469175725
 31
0.0
  0
LINE
  5
312
330
1F
100
AcDbEntity
  8
0
  6
Continuous
 62
     7
370
    25
100
AcDbLine
 10
7.3965098631
 20
0.8326568799
 30
0.0
 11
7.3965098631
 21
0.6965217695
 31
0.0
  0
LINE
  5
313
330
1F
100
AcDbEntity
  8
0
  6
Continuous
 62
     7
370
    25
100
AcDbLine
 10
7.435753621
 20
0.8326568799
 30
0.0
 11
7.3965098631
 21
0.8326568799
 31
0.0
  0
LINE
  5
314
330
1F
100
AcDbEntity
  8
0
  6
Continuous
 62
     7
370
    25
100
AcDbLine
 10
7.435753621
 20
0.8576544099
 30
0.0
 11
7.435753621
 21
0.8326568799
 31
0.0
  0
LINE
  5
315
330
1F
100
AcDbEntity
  8
0
  6
Continuous
 62
     7
370
    25
100
AcDbLine
 10
7.3064863838
 20
0.8576544099
 30
0.0
 11
7.435753621
 21
0.8576544099
 31
0.0
  0
LINE
  5
316
330
1F
100
AcDbEntity
  8
0
  6
Continuous
 62
     7
370
    25
100
AcDbLine
 10
7.3064863838
 20
0.8326568799
 30
0.0
 11
7.3064863838
 21
0.8576544099
 31
0.0
  0
LINE
  5
317
330
1F
100
AcDbEntity
  8
0
  6
Continuous
 62
     7
370
    25
100
AcDbLine
 10
7.3457301417
 20
0.8326568799
 30
0.0
 11
7.3064863838
 21
0.8326568799
 31
0.0
  0
LINE
  5
318
330
1F
100
AcDbEntity
  8
0
  6
Continuous
 62
     7
370
    25
100
AcDbLine
 10
7.3457301417
 20
0.6965217695
 30
0.0
 11
7.3457301417
 21
0.8326568799
 31
0.0
  0
LINE
  5
319
330
1F
100
AcDbEntity
  8
0
  6
Continuous
 62
     7
370
    25
100
AcDbLine
 10
7.2095950314
 20
0.6965217695
 30
0.0
 11
7.3457301417
 21
0.6965217695
 31
0.0
  0
LINE
  5
31A
330
1F
100
AcDbEntity
  8
0
  6
Continuous
 62
     7
370
    25
100
AcDbLine
 10
7.2095950314
 20
0.7357655275
 30
0.0
 11
7.2095950314
 21
0.6965217695
 31
0.0
  0
LINE
  5
31B
330
1F
100
AcDbEntity
  8
0
  6
Continuous
 62
     7
370
    25
100
AcDbLine
 10
7.1845975013
 20
0.7357655275
 30
0.0
 11
7.2095950314
 21
0.7357655275
 31
0.0
  0
LINE
  5
31C
330
1F
100
AcDbEntity
  8
0
  6
Continuous
 62
     7
370
    25
100
AcDbLine
 10
7.1845975013
 20
0.6064982903
 30
0.0
 11
7.1845975013
 21
0.7357655275
 31
0.0
  0
LINE
  5
31D
330
1F
100
AcDbEntity
  8
0
  6
Continuous
 62
     7
370
    25
100
AcDbLine
 10
7.2095950314
 20
0.6064982903
 30
0.0
 11
7.1845975013
 21
0.6064982903
 31
0.0
  0
LINE
  5
31E
330
1F
100
AcDbEntity
  8
0
  6
Continuous
 62
     7
370
    25
100
AcDbLine
 10
7.2095950314
 20
0.6457420482
 30
0.0
 11
7.2095950314
 21
0.6064982903
 31
0.0
  0
LINE
  5
31F
330
1F
100
AcDbEntity
  8
0
  6
Continuous
 62
     7
370
    25
100
AcDbLine
 10
7.3457301417
 20
0.6457420482
 30
0.0
 11
7.2095950314
 21
0.6457420482
 31
0.0
  0
LINE
  5
320
330
1F
100
AcDbEntity
  8
0
  6
Continuous
 62
     7
370
    25
100
AcDbLine
 10
7.3457301417
 20
0.5096069379
 30
0.0
 11
7.3457301417
 21
0.6457420482
 31
0.0
  0
LINE
  5
321
330
1F
100
AcDbEntity
  8
0
  6
Continuous
 62
     7
370
    25
100
AcDbLine
 10
7.3064863838
 20
0.5096069379
 30
0.0
 11
7.3457301417
 21
0.5096069379
 31
0.0
  0
LINE
  5
322
330
1F
100
AcDbEntity
  8
0
  6
Continuous
 62
     7
370
    25
100
AcDbLine
 10
7.3064863838
 20
0.4846094078
 30
0.0
 11
7.3064863838
 21
0.5096069379
 31
0.0
  0
LINE
  5
323
330
1F
100
AcDbEntity
  8
0
  6
Continuous
 62
     7
370
    25
100
AcDbLine
 10
7.435753621
 20
0.4846094078
 30
0.0
 11
7.3064863838
 21
0.4846094078
 31
0.0
  0
LINE
  5
324
330
1F
100
AcDbEntity
  8
0
  6
Continuous
 62
     7
370
    25
100
AcDbLine
 10
7.435753621
 20
0.5096069379
 30
0.0
 11
7.435753621
 21
0.4846094078
 31
0.0
  0
LINE
  5
325
330
1F
100
AcDbEntity
  8
0
  6
Continuous
 62
     7
370
    25
100
AcDbLine
 10
7.3965098631
 20
0.5096069379
 30
0.0
 11
7.435753621
 21
0.5096069379
 31
0.0
  0
LINE
  5
326
330
1F
100
AcDbEntity
  8
0
  6
Continuous
 62
     7
370
    25
100
AcDbLine
 10
7.3965098631
 20
0.6457420482
 30
0.0
 11
7.3965098631
 21
0.5096069379
 31
0.0
  0
LINE
  5
327
330
1F
100
AcDbEntity
  8
0
  6
Continuous
 62
     7
370
    25
100
AcDbLine
 10
7.5326449734
 20
0.6457420482
 30
0.0
 11
7.3965098631
 21
0.6457420482
 31
0.0
  0
LINE
  5
328
330
1F
100
AcDbEntity
  8
0
  6
Continuous
 62
     7
370
    25
100
AcDbLine
 10
7.5326449734
 20
0.6064982903
 30
0.0
 11
7.5326449734
 21
0.6457420482
 31
0.0
  0
LINE
  5
329
330
1F
100
AcDbEntity
  8
0
  6
Continuous
 62
     7
370
    25
100
AcDbLine
 10
7.5576425035
 20
0.6064982903
 30
0.0
 11
7.5326449734
 21
0.6064982903
 31
0.0
  0
LINE
  5
32A
330
1F
100
AcDbEntity
  8
0
  6
Continuous
 62
     7
370
    25
100
AcDbLine
 10
7.5576425035
 20
0.7357655275
 30
0.0
 11
7.5576425035
 21
0.6064982903
 31
0.0
  0
LINE
  5
32B
330
1F
100
AcDbEntity
  8
0
  6
Continuous
 62
     7
370
    25
100
AcDbLine
 10
7.5326449734
 20
0.7357655275
 30
0.0
 11
7.5576425035
 21
0.7357655275
 31
0.0
  0
LINE
  5
32C
330
1F
100
AcDbEntity
  8
0
  6
Continuous
 62
     7
370
    25
100
AcDbLine
 10
7.5326449734
 20
0.6965217695
 30
0.0
 11
7.5326449734
 21
0.7357655275
 31
0.0
  0
LINE
  5
32D
330
1F
100
AcDbEntity
  8
0
  6
Continuous
 62
     7
370
    25
100
AcDbLine
 10
7.3965098631
 20
0.6965217695
 30
0.0
 11
7.5326449734
 21
0.6965217695
 31
0.0
  0
LINE
  5
32E
330
1F
100
AcDbEntity
  8
0
  6
Continuous
 62
     7
370
    25
100
AcDbLine
 10
7.0839431433
 20
1.3740383193
 30
0.0
 11
7.0839431433
 21
1.237903209
 31
0.0
  0
LINE
  5
32F
330
1F
100
AcDbEntity
  8
0
  6
Continuous
 62
     7
370
    25
100
AcDbLine
 10
7.1231869012
 20
1.3740383193
 30
0.0
 11
7.0839431433
 21
1.3740383193
 31
0.0
  0
LINE
  5
330
330
1F
100
AcDbEntity
  8
0
  6
Continuous
 62
     7
370
    25
100
AcDbLine
 10
7.1231869012
 20
1.3990358494
 30
0.0
 11
7.1231869012
 21
1.3740383193
 31
0.0
  0
LINE
  5
331
330
1F
100
AcDbEntity
  8
0
  6
Continuous
 62
     7
370
    25
100
AcDbLine
 10
6.993919664
 20
1.3990358494
 30
0.0
 11
7.1231869012
 21
1.3990358494
 31
0.0
  0
LINE
  5
332
330
1F
100
AcDbEntity
  8
0
  6
Continuous
 62
     7
370
    25
100
AcDbLine
 10
6.993919664
 20
1.3740383193
 30
0.0
 11
6.993919664
 21
1.3990358494
 31
0.0
  0
LINE
  5
333
330
1F
100
AcDbEntity
  8
0
  6
Continuous
 62
     7
370
    25
100
AcDbLine
 10
7.0331634219
 20
1.3740383193
 30
0.0
 11
6.993919664
 21
1.3740383193
 31
0.0
  0
LINE
  5
334
330
1F
100
AcDbEntity
  8
0
  6
Continuous
 62
     7
370
    25
100
AcDbLine
 10
7.0331634219
 20
1.237903209
 30
0.0
 11
7.0331634219
 21
1.3740383193
 31
0.0
  0
LINE
  5
335
330
1F
100
AcDbEntity
  8
0
  6
Continuous
 62
     7
370
    25
100
AcDbLine
 10
6.8970283116
 20
1.237903209
 30
0.0
 11
7.0331634219
 21
1.237903209
 31
0.0
  0
LINE
  5
336
330
1F
100
AcDbEntity
  8
0
  6
Continuous
 62
     7
370
    25
100
AcDbLine
 10
6.8970283116
 20
1.2771469669
 30
0.0
 11
6.8970283116
 21
1.237903209
 31
0.0
  0
LINE
  5
337
330
1F
100
AcDbEntity
  8
0
  6
Continuous
 62
     7
370
    25
100
AcDbLine
 10
6.8720307815
 20
1.2771469669
 30
0.0
 11
6.8970283116
 21
1.2771469669
 31
0.0
  0
LINE
  5
338
330
1F
100
AcDbEntity
  8
0
  6
Continuous
 62
     7
370
    25
100
AcDbLine
 10
6.8720307815
 20
1.1478797297
 30
0.0
 11
6.8720307815
 21
1.2771469669
 31
0.0
  0
LINE
  5
339
330
1F
100
AcDbEntity
  8
0
  6
Continuous
 62
     7
370
    25
100
AcDbLine
 10
6.8970283116
 20
1.1478797297
 30
0.0
 11
6.8720307815
 21
1.1478797297
 31
0.0
  0
LINE
  5
33A
330
1F
100
AcDbEntity
  8
0
  6
Continuous
 62
     7
370
    25
100
AcDbLine
 10
6.8970283116
 20
1.1871234876
 30
0.0
 11
6.8970283116
 21
1.1478797297
 31
0.0
  0
LINE
  5
33B
330
1F
100
AcDbEntity
  8
0
  6
Continuous
 62
     7
370
    25
100
AcDbLine
 10
7.0331634219
 20
1.1871234876
 30
0.0
 11
6.8970283116
 21
1.1871234876
 31
0.0
  0
LINE
  5
33C
330
1F
100
AcDbEntity
  8
0
  6
Continuous
 62
     7
370
    25
100
AcDbLine
 10
7.0331634219
 20
1.0509883773
 30
0.0
 11
7.0331634219
 21
1.1871234876
 31
0.0
  0
LINE
  5
33D
330
1F
100
AcDbEntity
  8
0
  6
Continuous
 62
     7
370
    25
100
AcDbLine
 10
6.993919664
 20
1.0509883773
 30
0.0
 11
7.0331634219
 21
1.0509883773
 31
0.0
  0
LINE
  5
33E
330
1F
100
AcDbEntity
  8
0
  6
Continuous
 62
     7
370
    25
100
AcDbLine
 10
6.993919664
 20
1.0259908472
 30
0.0
 11
6.993919664
 21
1.0509883773
 31
0.0
  0
LINE
  5
33F
330
1F
100
AcDbEntity
  8
0
  6
Continuous
 62
     7
370
    25
100
AcDbLine
 10
7.1231869012
 20
1.0259908472
 30
0.0
 11
6.993919664
 21
1.0259908472
 31
0.0
  0
LINE
  5
340
330
1F
100
AcDbEntity
  8
0
  6
Continuous
 62
     7
370
    25
100
AcDbLine
 10
7.1231869012
 20
1.0509883773
 30
0.0
 11
7.1231869012
 21
1.0259908472
 31
0.0
  0
LINE
  5
341
330
1F
100
AcDbEntity
  8
0
  6
Continuous
 62
     7
370
    25
100
AcDbLine
 10
7.0839431433
 20
1.0509883773
 30
0.0
 11
7.1231869012
 21
1.0509883773
 31
0.0
  0
LINE
  5
342
330
1F
100
AcDbEntity
  8
0
  6
Continuous
 62
     7
370
    25
100
AcDbLine
 10
7.0839431433
 20
1.1871234876
 30
0.0
 11
7.0839431433
 21
1.0509883773
 31
0.0
  0
LINE
  5
343
330
1F
100
AcDbEntity
  8
0
  6
Continuous
 62
     7
370
    25
100
AcDbLine
 10
7.2200782536
 20
1.1871234876
 30
0.0
 11
7.0839431433
 21
1.1871234876
 31
0.0
  0
LINE
  5
344
330
1F
100
AcDbEntity
  8
0
  6
Continuous
 62
     7
370
    25
100
AcDbLine
 10
7.2200782536
 20
1.1478797297
 30
0.0
 11
7.2200782536
 21
1.1871234876
 31
0.0
  0
LINE
  5
345
330
1F
100
AcDbEntity
  8
0
  6
Continuous
 62
     7
370
    25
100
AcDbLine
 10
7.2450757837
 20
1.1478797297
 30
0.0
 11
7.2200782536
 21
1.1478797297
 31
0.0
  0
LINE
  5
346
330
1F
100
AcDbEntity
  8
0
  6
Continuous
 62
     7
370
    25
100
AcDbLine
 10
7.2450757837
 20
1.2771469669
 30
0.0
 11
7.2450757837
 21
1.1478797297
 31
0.0
  0
LINE
  5
347
330
1F
100
AcDbEntity
  8
0
  6
Continuous
 62
     7
370
    25
100
AcDbLine
 10
7.2200782536
 20
1.2771469669
 30
0.0
 11
7.2450757837
 21
1.2771469669
 31
0.0
  0
LINE
  5
348
330
1F
100
AcDbEntity
  8
0
  6
Continuous
 62
     7
370
    25
100
AcDbLine
 10
7.2200782536
 20
1.237903209
 30
0.0
 11
7.2200782536
 21
1.2771469669
 31
0.0
  0
LINE
  5
349
330
1F
100
AcDbEntity
  8
0
  6
Continuous
 62
     7
370
    25
100
AcDbLine
 10
7.0839431433
 20
1.237903209
 30
0.0
 11
7.2200782536
 21
1.237903209
 31
0.0
  0
LINE
  5
34A
330
1F
100
AcDbEntity
  8
0
  6
Continuous
 62
     7
370
    25
100
AcDbLine
 10
6.9753898607
 20
1.9896745773
 30
0.0
 11
6.9753898607
 21
1.853539467
 31
0.0
  0
LINE
  5
34B
330
1F
100
AcDbEntity
  8
0
  6
Continuous
 62
     7
370
    25
100
AcDbLine
 10
7.0146336186
 20
1.9896745773
 30
0.0
 11
6.9753898607
 21
1.9896745773
 31
0.0
  0
LINE
  5
34C
330
1F
100
AcDbEntity
  8
0
  6
Continuous
 62
     7
370
    25
100
AcDbLine
 10
7.0146336186
 20
2.0146721074
 30
0.0
 11
7.0146336186
 21
1.9896745773
 31
0.0
  0
LINE
  5
34D
330
1F
100
AcDbEntity
  8
0
  6
Continuous
 62
     7
370
    25
100
AcDbLine
 10
6.8853663814
 20
2.0146721074
 30
0.0
 11
7.0146336186
 21
2.0146721074
 31
0.0
  0
LINE
  5
34E
330
1F
100
AcDbEntity
  8
0
  6
Continuous
 62
     7
370
    25
100
AcDbLine
 10
6.8853663814
 20
1.9896745773
 30
0.0
 11
6.8853663814
 21
2.0146721074
 31
0.0
  0
LINE
  5
34F
330
1F
100
AcDbEntity
  8
0
  6
Continuous
 62
     7
370
    25
100
AcDbLine
 10
6.9246101393
 20
1.9896745773
 30
0.0
 11
6.8853663814
 21
1.9896745773
 31
0.0
  0
LINE
  5
350
330
1F
100
AcDbEntity
  8
0
  6
Continuous
 62
     7
370
    25
100
AcDbLine
 10
6.9246101393
 20
1.853539467
 30
0.0
 11
6.9246101393
 21
1.9896745773
 31
0.0
  0
LINE
  5
351
330
1F
100
AcDbEntity
  8
0
  6
Continuous
 62
     7
370
    25
100
AcDbLine
 10
6.788475029
 20
1.853539467
 30
0.0
 11
6.9246101393
 21
1.853539467
 31
0.0
  0
LINE
  5
352
330
1F
100
AcDbEntity
  8
0
  6
Continuous
 62
     7
370
    25
100
AcDbLine
 10
6.788475029
 20
1.8927832249
 30
0.0
 11
6.788475029
 21
1.853539467
 31
0.0
  0
LINE
  5
353
330
1F
100
AcDbEntity
  8
0
  6
Continuous
 62
     7
370
    25
100
AcDbLine
 10
6.7634774989
 20
1.8927832249
 30
0.0
 11
6.788475029
 21
1.8927832249
 31
0.0
  0
LINE
  5
354
330
1F
100
AcDbEntity
  8
0
  6
Continuous
 62
     7
370
    25
100
AcDbLine
 10
6.7634774989
 20
1.7635159877
 30
0.0
 11
6.7634774989
 21
1.8927832249
 31
0.0
  0
LINE
  5
355
330
1F
100
AcDbEntity
  8
0
  6
Continuous
 62
     7
370
    25
100
AcDbLine
 10
6.788475029
 20
1.7635159877
 30
0.0
 11
6.7634774989
 21
1.7635159877
 31
0.0
  0
LINE
  5
356
330
1F
100
AcDbEntity
  8
0
  6
Continuous
 62
     7
370
    25
100
AcDbLine
 10
6.788475029
 20
1.8027597456
 30
0.0
 11
6.788475029
 21
1.7635159877
 31
0.0
  0
LINE
  5
357
330
1F
100
AcDbEntity
  8
0
  6
Continuous
 62
     7
370
    25
100
AcDbLine
 10
6.9246101393
 20
1.8027597456
 30
0.0
 11
6.788475029
 21
1.8027597456
 31
0.0
  0
LINE
  5
358
330
1F
100
AcDbEntity
  8
0
  6
Continuous
 62
     7
370
    25
100
AcDbLine
 10
6.9246101393
 20
1.6666246353
 30
0.0
 11
6.9246101393
 21
1.8027597456
 31
0.0
  0
LINE
  5
359
330
1F
100
AcDbEntity
  8
0
  6
Continuous
 62
     7
370
    25
100
AcDbLine
 10
6.8853663814
 20
1.6666246353
 30
0.0
 11
6.9246101393
 21
1.6666246353
 31
0.0
  0
LINE
  5
35A
330
1F
100
AcDbEntity
  8
0
  6
Continuous
 62
     7
370
    25
100
AcDbLine
 10
6.8853663814
 20
1.6416271052
 30
0.0
 11
6.8853663814
 21
1.6666246353
 31
0.0
  0
LINE
  5
35B
330
1F
100
AcDbEntity
  8
0
  6
Continuous
 62
     7
370
    25
100
AcDbLine
 10
7.0146336186
 20
1.6416271052
 30
0.0
 11
6.8853663814
 21
1.6416271052
 31
0.0
  0
LINE
  5
35C
330
1F
100
AcDbEntity
  8
0
  6
Continuous
 62
     7
370
    25
100
AcDbLine
 10
7.0146336186
 20
1.6666246353
 30
0.0
 11
7.0146336186
 21
1.6416271052
 31
0.0
  0
LINE
  5
35D
330
1F
100
AcDbEntity
  8
0
  6
Continuous
 62
     7
370
    25
100
AcDbLine
 10
6.9753898607
 20
1.6666246353
 30
0.0
 11
7.0146336186
 21
1.6666246353
 31
0.0
  0
LINE
  5
35E
330
1F
100
AcDbEntity
  8
0
  6
Continuous
 62
     7
370
    25
100
AcDbLine
 10
6.9753898607
 20
1.8027597456
 30
0.0
 11
6.9753898607
 21
1.6666246353
 31
0.0
  0
LINE
  5
35F
330
1F
100
AcDbEntity
  8
0
  6
Continuous
 62
     7
370
    25
100
AcDbLine
 10
7.111524971
 20
1.8027597456
 30
0.0
 11
6.9753898607
 21
1.8027597456
 31
0.0
  0
LINE
  5
360
330
1F
100
AcDbEntity
  8
0
  6
Continuous
 62
     7
370
    25
100
AcDbLine
 10
7.111524971
 20
1.7635159877
 30
0.0
 11
7.111524971
 21
1.8027597456
 31
0.0
  0
LINE
  5
361
330
1F
100
AcDbEntity
  8
0
  6
Continuous
 62
     7
370
    25
100
AcDbLine
 10
7.1365225011
 20
1.7635159877
 30
0.0
 11
7.111524971
 21
1.7635159877
 31
0.0
  0
LINE
  5
362
330
1F
100
AcDbEntity
  8
0
  6
Continuous
 62
     7
370
    25
100
AcDbLine
 10
7.1365225011
 20
1.8927832249
 30
0.0
 11
7.1365225011
 21
1.7635159877
 31
0.0
  0
LINE
  5
363
330
1F
100
AcDbEntity
  8
0
  6
Continuous
 62
     7
370
    25
100
AcDbLine
 10
7.111524971
 20
1.8927832249
 30
0.0
 11
7.1365225011
 21
1.8927832249
 31
0.0
  0
LINE
  5
364
330
1F
100
AcDbEntity
  8
0
  6
Continuous
 62
     7
370
    25
100
AcDbLine
 10
7.111524971
 20
1.853539467
 30
0.0
 11
7.111524971
 21
1.8927832249
 31
0.0
  0
LINE
  5
365
330
1F
100
AcDbEntity
  8
0
  6
Continuous
 62
     7
370
    25
100
AcDbLine
 10
6.9753898607
 20
1.853539467
 30
0.0
 11
7.111524971
 21
1.853539467
 31
0.0
  0
LINE
  5
366
330
1F
100
AcDbEntity
  8
0
  6
Continuous
 62
     7
370
    25
100
AcDbLine
 10
7.0309461536
 20
1.7751733989
 30
0.0
 11
7.0559686781
 21
1.7751733989
 31
0.0
  0
LINE
  5
367
330
1F
100
AcDbEntity
  8
0
  6
Continuous
 62
     7
370
    25
100
AcDbLine
 10
7.0309461536
 20
1.7472034527
 30
0.0
 11
7.0309461536
 21
1.7751733989
 31
0.0
  0
LINE
  5
368
330
1F
100
AcDbEntity
  8
0
  6
Continuous
 62
     7
370
    25
100
AcDbLine
 10
7.0029762074
 20
1.7472034527
 30
0.0
 11
7.0309461536
 21
1.7472034527
 31
0.0
  0
LINE
  5
369
330
1F
100
AcDbEntity
  8
0
  6
Continuous
 62
     7
370
    25
100
AcDbLine
 10
7.0029762074
 20
1.7221809282
 30
0.0
 11
7.0029762074
 21
1.7472034527
 31
0.0
  0
LINE
  5
36A
330
1F
100
AcDbEntity
  8
0
  6
Continuous
 62
     7
370
    25
100
AcDbLine
 10
7.0309461536
 20
1.7221809282
 30
0.0
 11
7.0029762074
 21
1.7221809282
 31
0.0
  0
LINE
  5
36B
330
1F
100
AcDbEntity
  8
0
  6
Continuous
 62
     7
370
    25
100
AcDbLine
 10
7.0309461536
 20
1.694210982
 30
0.0
 11
7.0309461536
 21
1.7221809282
 31
0.0
  0
LINE
  5
36C
330
1F
100
AcDbEntity
  8
0
  6
Continuous
 62
     7
370
    25
100
AcDbLine
 10
7.0559686781
 20
1.694210982
 30
0.0
 11
7.0309461536
 21
1.694210982
 31
0.0
  0
LINE
  5
36D
330
1F
100
AcDbEntity
  8
0
  6
Continuous
 62
     7
370
    25
100
AcDbLine
 10
7.0559686781
 20
1.7221809282
 30
0.0
 11
7.0559686781
 21
1.694210982
 31
0.0
  0
LINE
  5
36E
330
1F
100
AcDbEntity
  8
0
  6
Continuous
 62
     7
370
    25
100
AcDbLine
 10
7.0839386243
 20
1.7221809282
 30
0.0
 11
7.0559686781
 21
1.7221809282
 31
0.0
  0
LINE
  5
36F
330
1F
100
AcDbEntity
  8
0
  6
Continuous
 62
     7
370
    25
100
AcDbLine
 10
7.0839386243
 20
1.7472034527
 30
0.0
 11
7.0839386243
 21
1.7221809282
 31
0.0
  0
LINE
  5
370
330
1F
100
AcDbEntity
  8
0
  6
Continuous
 62
     7
370
    25
100
AcDbLine
 10
7.0559686781
 20
1.7472034527
 30
0.0
 11
7.0839386243
 21
1.7472034527
 31
0.0
  0
LINE
  5
371
330
1F
100
AcDbEntity
  8
0
  6
Continuous
 62
     7
370
    25
100
AcDbLine
 10
7.0559686781
 20
1.7751733989
 30
0.0
 11
7.0559686781
 21
1.7472034527
 31
0.0
  0
LINE
  5
372
330
1F
100
AcDbEntity
  8
0
  6
Continuous
 62
     7
370
    25
100
AcDbLine
 10
7.1394994362
 20
1.1595371409
 30
0.0
 11
7.1645219607
 21
1.1595371409
 31
0.0
  0
LINE
  5
373
330
1F
100
AcDbEntity
  8
0
  6
Continuous
 62
     7
370
    25
100
AcDbLine
 10
7.1394994362
 20
1.1315671947
 30
0.0
 11
7.1394994362
 21
1.1595371409
 31
0.0
  0
LINE
  5
374
330
1F
100
AcDbEntity
  8
0
  6
Continuous
 62
     7
370
    25
100
AcDbLine
 10
7.11152949
 20
1.1315671947
 30
0.0
 11
7.1394994362
 21
1.1315671947
 31
0.0
  0
LINE
  5
375
330
1F
100
AcDbEntity
  8
0
  6
Continuous
 62
     7
370
    25
100
AcDbLine
 10
7.11152949
 20
1.1065446702
 30
0.0
 11
7.11152949
 21
1.1315671947
 31
0.0
  0
LINE
  5
376
330
1F
100
AcDbEntity
  8
0
  6
Continuous
 62
     7
370
    25
100
AcDbLine
 10
7.1394994362
 20
1.1065446702
 30
0.0
 11
7.11152949
 21
1.1065446702
 31
0.0
  0
LINE
  5
377
330
1F
100
AcDbEntity
  8
0
  6
Continuous
 62
     7
370
    25
100
AcDbLine
 10
7.1394994362
 20
1.0785747241
 30
0.0
 11
7.1394994362
 21
1.1065446702
 31
0.0
  0
LINE
  5
378
330
1F
100
AcDbEntity
  8
0
  6
Continuous
 62
     7
370
    25
100
AcDbLine
 10
7.1645219607
 20
1.0785747241
 30
0.0
 11
7.1394994362
 21
1.0785747241
 31
0.0
  0
LINE
  5
379
330
1F
100
AcDbEntity
  8
0
  6
Continuous
 62
     7
370
    25
100
AcDbLine
 10
7.1645219607
 20
1.1065446702
 30
0.0
 11
7.1645219607
 21
1.0785747241
 31
0.0
  0
LINE
  5
37A
330
1F
100
AcDbEntity
  8
0
  6
Continuous
 62
     7
370
    25
100
AcDbLine
 10
7.1924919068
 20
1.1065446702
 30
0.0
 11
7.1645219607
 21
1.1065446702
 31
0.0
  0
LINE
  5
37B
330
1F
100
AcDbEntity
  8
0
  6
Continuous
 62
     7
370
    25
100
AcDbLine
 10
7.1924919068
 20
1.1315671947
 30
0.0
 11
7.1924919068
 21
1.1065446702
 31
0.0
  0
LINE
  5
37C
330
1F
100
AcDbEntity
  8
0
  6
Continuous
 62
     7
370
    25
100
AcDbLine
 10
7.1645219607
 20
1.1315671947
 30
0.0
 11
7.1924919068
 21
1.1315671947
 31
0.0
  0
LINE
  5
37D
330
1F
100
AcDbEntity
  8
0
  6
Continuous
 62
     7
370
    25
100
AcDbLine
 10
7.1645219607
 20
1.1595371409
 30
0.0
 11
7.1645219607
 21
1.1315671947
 31
0.0
  0
LINE
  5
37E
330
1F
100
AcDbEntity
  8
0
  6
Continuous
 62
     7
370
    25
100
AcDbLine
 10
7.452066156
 20
0.6181557014
 30
0.0
 11
7.4770886805
 21
0.6181557014
 31
0.0
  0
LINE
  5
37F
330
1F
100
AcDbEntity
  8
0
  6
Continuous
 62
     7
370
    25
100
AcDbLine
 10
7.452066156
 20
0.5901857553
 30
0.0
 11
7.452066156
 21
0.6181557014
 31
0.0
  0
LINE
  5
380
330
1F
100
AcDbEntity
  8
0
  6
Continuous
 62
     7
370
    25
100
AcDbLine
 10
7.4240962098
 20
0.5901857553
 30
0.0
 11
7.452066156
 21
0.5901857553
 31
0.0
  0
LINE
  5
381
330
1F
100
AcDbEntity
  8
0
  6
Continuous
 62
     7
370
    25
100
AcDbLine
 10
7.4240962098
 20
0.5651632308
 30
0.0
 11
7.4240962098
 21
0.5901857553
 31
0.0
  0
LINE
  5
382
330
1F
100
AcDbEntity
  8
0
  6
Continuous
 62
     7
370
    25
100
AcDbLine
 10
7.452066156
 20
0.5651632308
 30
0.0
 11
7.4240962098
 21
0.5651632308
 31
0.0
  0
LINE
  5
383
330
1F
100
AcDbEntity
  8
0
  6
Continuous
 62
     7
370
    25
100
AcDbLine
 10
7.452066156
 20
0.5371932846
 30
0.0
 11
7.452066156
 21
0.5651632308
 31
0.0
  0
LINE
  5
384
330
1F
100
AcDbEntity
  8
0
  6
Continuous
 62
     7
370
    25
100
AcDbLine
 10
7.4770886805
 20
0.5371932846
 30
0.0
 11
7.452066156
 21
0.5371932846
 31
0.0
  0
LINE
  5
385
330
1F
100
AcDbEntity
  8
0
  6
Continuous
 62
     7
370
    25
100
AcDbLine
 10
7.4770886805
 20
0.5651632308
 30
0.0
 11
7.4770886805
 21
0.5371932846
 31
0.0
  0
LINE
  5
386
330
1F
100
AcDbEntity
  8
0
  6
Continuous
 62
     7
370
    25
100
AcDbLine
 10
7.5050586266
 20
0.5651632308
 30
0.0
 11
7.4770886805
 21
0.5651632308
 31
0.0
  0
LINE
  5
387
330
1F
100
AcDbEntity
  8
0
  6
Continuous
 62
     7
370
    25
100
AcDbLine
 10
7.5050586266
 20
0.5901857553
 30
0.0
 11
7.5050586266
 21
0.5651632308
 31
0.0
  0
LINE
  5
388
330
1F
100
AcDbEntity
  8
0
  6
Continuous
 62
     7
370
    25
100
AcDbLine
 10
7.4770886805
 20
0.5901857553
 30
0.0
 11
7.5050586266
 21
0.5901857553
 31
0.0
  0
LINE
  5
389
330
1F
100
AcDbEntity
  8
0
  6
Continuous
 62
     7
370
    25
100
AcDbLine
 10
7.4770886805
 20
0.6181557014
 30
0.0
 11
7.4770886805
 21
0.5901857553
 31
0.0
  0
LINE
  5
38A
330
1F
100
AcDbEntity
  8
0
  6
Continuous
 62
     7
370
    25
100
AcDbLine
 10
7.1394994362
 20
2.3908096569
 30
0.0
 11
7.1645219607
 21
2.3908096569
 31
0.0
  0
LINE
  5
38B
330
1F
100
AcDbEntity
  8
0
  6
Continuous
 62
     7
370
    25
100
AcDbLine
 10
7.1394994362
 20
2.3628397107
 30
0.0
 11
7.1394994362
 21
2.3908096569
 31
0.0
  0
LINE
  5
38C
330
1F
100
AcDbEntity
  8
0
  6
Continuous
 62
     7
370
    25
100
AcDbLine
 10
7.11152949
 20
2.3628397107
 30
0.0
 11
7.1394994362
 21
2.3628397107
 31
0.0
  0
LINE
  5
38D
330
1F
100
AcDbEntity
  8
0
  6
Continuous
 62
     7
370
    25
100
AcDbLine
 10
7.11152949
 20
2.3378171862
 30
0.0
 11
7.11152949
 21
2.3628397107
 31
0.0
  0
LINE
  5
38E
330
1F
100
AcDbEntity
  8
0
  6
Continuous
 62
     7
370
    25
100
AcDbLine
 10
7.1394994362
 20
2.3378171862
 30
0.0
 11
7.11152949
 21
2.3378171862
 31
0.0
  0
LINE
  5
38F
330
1F
100
AcDbEntity
  8
0
  6
Continuous
 62
     7
370
    25
100
AcDbLine
 10
7.1394994362
 20
2.30984724
 30
0.0
 11
7.1394994362
 21
2.3378171862
 31
0.0
  0
LINE
  5
390
330
1F
100
AcDbEntity
  8
0
  6
Continuous
 62
     7
370
    25
100
AcDbLine
 10
7.1645219607
 20
2.30984724
 30
0.0
 11
7.1394994362
 21
2.30984724
 31
0.0
  0
LINE
  5
391
330
1F
100
AcDbEntity
  8
0
  6
Continuous
 62
     7
370
    25
100
AcDbLine
 10
7.1645219607
 20
2.3378171862
 30
0.0
 11
7.1645219607
 21
2.30984724
 31
0.0
  0
LINE
  5
392
330
1F
100
AcDbEntity
  8
0
  6
Continuous
 62
     7
370
    25
100
AcDbLine
 10
7.1924919068
 20
2.3378171862
 30
0.0
 11
7.1645219607
 21
2.3378171862
 31
0.0
  0
LINE
  5
393
330
1F
100
AcDbEntity
  8
0
  6
Continuous
 62
     7
370
    25
100
AcDbLine
 10
7.1924919068
 20
2.3628397107
 30
0.0
 11
7.1924919068
 21
2.3378171862
 31
0.0
  0
LINE
  5
394
330
1F
100
AcDbEntity
  8
0
  6
Continuous
 62
     7
370
    25
100
AcDbLine
 10
7.1645219607
 20
2.3628397107
 30
0.0
 11
7.1924919068
 21
2.3628397107
 31
0.0
  0
LINE
  5
395
330
1F
100
AcDbEntity
  8
0
  6
Continuous
 62
     7
370
    25
100
AcDbLine
 10
7.1645219607
 20
2.3908096569
 30
0.0
 11
7.1645219607
 21
2.3628397107
 31
0.0
  0
MTEXT
  5
397
330
1F
100
AcDbEntity
  8
0
  6
Continuous
 62
     7
100
AcDbMText
 10
0.0
 20
-0.0401404091
 30
0.0
 40
0.1903
 41
0.0
 71
     1
 72
     1
  1
SOLIDWORKS Maker Product.
  7
SLDTEXTSTYLE0
 73
     1
 44
1.0
  0
MTEXT
  5
398
330
1F
100
AcDbEntity
  8
0
  6
Continuous
 62
     7
100
AcDbMText
 10
0.0
 20
-0.3255904091
 30
0.0
 40
0.1903
 41
0.0
 71
     1
 72
     1
  1
For Personal Use Only.
  7
SLDTEXTSTYLE0
 73
     1
 44
1.0
  0
ENDSEC
  0
SECTION
  2
OBJECTS
  0
DICTIONARY
  5
C
330
0
100
AcDbDictionary
281
     1
  3
ACAD_GROUP
350
D
  3
ACAD_LAYOUT
350
1A
  3
ACAD_MLINESTYLE
350
17
  3
ACAD_PLOTSETTINGS
350
19
  3
ACAD_PLOTSTYLENAME
350
E
  3
ACAD_SCALELIST
350
47
  3
DWGPROPS
350
399
  0
DICTIONARY
  5
D
102
{ACAD_REACTORS
330
C
102
}
330
C
100
AcDbDictionary
281
     1
  0
DICTIONARY
  5
1A
102
{ACAD_REACTORS
330
C
102
}
330
C
100
AcDbDictionary
281
     1
  3
Layout1
350
1E
  3
Layout2
350
26
  3
Model
350
22
  0
DICTIONARY
  5
17
102
{ACAD_REACTORS
330
C
102
}
330
C
100
AcDbDictionary
281
     1
  3
Standard
350
18
  0
DICTIONARY
  5
19
102
{ACAD_REACTORS
330
C
102
}
330
C
100
AcDbDictionary
281
     1
  0
ACDBDICTIONARYWDFLT
  5
E
102
{ACAD_REACTORS
330
C
102
}
330
C
100
AcDbDictionary
281
     1
  3
Normal
350
F
100
AcDbDictionaryWithDefault
340
F
  0
DICTIONARY
  5
47
102
{ACAD_REACTORS
330
C
102
}
330
C
100
AcDbDictionary
281
     1
  3
A0
350
48
  3
A1
350
49
  3
A2
350
4A
  3
A3
350
4B
  3
A4
350
4C
  3
A5
350
4D
  3
A6
350
4E
  3
A7
350
4F
  3
A8
350
50
  3
A9
350
51
  3
B1
350
52
  3
B2
350
53
  3
B3
350
54
  3
B4
350
55
  3
B5
350
56
  3
B6
350
57
  3
B7
350
58
  0
XRECORD
  5
399
102
{ACAD_REACTORS
330
C
102
}
330
C
100
AcDbXrecord
280
     1
  1
DWGPROPS COOKIE
  2

  3

  4

  6

  7

  8
Caden
  9

300
=
301
=
302
=
303
=
304
=
305
=
306
=
307
=
308
=
309
=
 40
0.0
 41
2460158.470303889
 42
2460158.470329723
  1

 90
        0
  0
LAYOUT
  5
1E
102
{ACAD_REACTORS
330
1A
102
}
330
1A
100
AcDbPlotSettings
  1

  2
none_device
  4

  6

 40
0.0
 41
0.0
 42
0.0
 43
0.0
 44
0.0
 45
0.0
 46
0.0
 47
0.0
 48
0.0
 49
0.0
140
0.0
141
0.0
142
1.0
143
1.0
 70
   688
 72
     0
 73
     0
 74
     5
  7

 75
    16
147
1.0
148
0.0
149
0.0
100
AcDbLayout
  1
Layout1
 70
     1
 71
     1
 10
0.0
 20
0.0
 11
12.0
 21
9.0
 12
0.0
 22
0.0
 32
0.0
 14
1.0000000000E+20
 24
1.0000000000E+20
 34
1.0000000000E+20
 15
-1.0000000000E+20
 25
-1.0000000000E+20
 35
-1.0000000000E+20
146
0.0
 13
0.0
 23
0.0
 33
0.0
 16
1.0
 26
0.0
 36
0.0
 17
0.0
 27
1.0
 37
0.0
 76
     0
330
1B
  0
LAYOUT
  5
26
102
{ACAD_REACTORS
330
1A
102
}
330
1A
100
AcDbPlotSettings
  1

  2
none_device
  4

  6

 40
0.0
 41
0.0
 42
0.0
 43
0.0
 44
0.0
 45
0.0
 46
0.0
 47
0.0
 48
0.0
 49
0.0
140
0.0
141
0.0
142
1.0
143
1.0
 70
   688
 72
     0
 73
     0
 74
     5
  7

 75
    16
147
1.0
148
0.0
149
0.0
100
AcDbLayout
  1
Layout2
 70
     1
 71
     2
 10
0.0
 20
0.0
 11
0.0
 21
0.0
 12
0.0
 22
0.0
 32
0.0
 14
0.0
 24
0.0
 34
0.0
 15
0.0
 25
0.0
 35
0.0
146
0.0
 13
0.0
 23
0.0
 33
0.0
 16
1.0
 26
0.0
 36
0.0
 17
0.0
 27
1.0
 37
0.0
 76
     0
330
23
  0
LAYOUT
  5
22
102
{ACAD_REACTORS
330
1A
102
}
330
1A
100
AcDbPlotSettings
  1

  2
none_device
  4
ANSI_A_(11.00_x_8.50_Inches)
  6

 40
6.35
 41
19.05
 42
6.35000508
 43
19.05000254
 44
279.4
 45
215.9
 46
-4.95300254
 47
66.1787915871
 48
0.0
 49
0.0
140
0.0
141
0.0
142
0.6222857143
143
1.0
 70
  1696
 72
     0
 73
     0
 74
     0
  7

 75
     0
147
0.5913241897
148
-39.4088153714
149
0.0
100
AcDbLayout
  1
Model
 70
     1
 71
     0
 10
0.0
 20
0.0
 11
12.0
 21
9.0
 12
0.0
 22
0.0
 32
0.0
 14
0.0
 24
0.0
 34
0.0
 15
17.5
 25
2.875
 35
0.0
146
0.0
 13
0.0
 23
0.0
 33
0.0
 16
1.0
 26
0.0
 36
0.0
 17
0.0
 27
1.0
 37
0.0
 76
     0
330
1F
331
29
  0
MLINESTYLE
  5
18
102
{ACAD_REACTORS
330
17
102
}
330
17
100
AcDbMlineStyle
  2
Standard
 70
     0
  3

 62
   256
 51
90.0
 52
90.0
 71
     2
 49
0.5
 62
   256
  6
BYLAYER
 49
-0.5
 62
   256
  6
BYLAYER
  0
ACDBPLACEHOLDER
  5
F
102
{ACAD_REACTORS
330
E
102
}
330
E
  0
SCALE
  5
48
102
{ACAD_REACTORS
330
47
102
}
330
47
100
AcDbScale
 70
     0
300
1:1
140
1.0
141
1.0
290
     1
  0
SCALE
  5
49
102
{ACAD_REACTORS
330
47
102
}
330
47
100
AcDbScale
 70
     0
300
1/128" = 1'-0"
140
0.0078125
141
12.0
290
     0
  0
SCALE
  5
4A
102
{ACAD_REACTORS
330
47
102
}
330
47
100
AcDbScale
 70
     0
300
1/64" = 1'-0"
140
0.015625
141
12.0
290
     0
  0
SCALE
  5
4B
102
{ACAD_REACTORS
330
47
102
}
330
47
100
AcDbScale
 70
     0
300
1/32" = 1'-0"
140
0.03125
141
12.0
290
     0
  0
SCALE
  5
4C
102
{ACAD_REACTORS
330
47
102
}
330
47
100
AcDbScale
 70
     0
300
1/16" = 1'-0"
140
0.0625
141
12.0
290
     0
  0
SCALE
  5
4D
102
{ACAD_REACTORS
330
47
102
}
330
47
100
AcDbScale
 70
     0
300
3/32" = 1'-0"
140
0.09375
141
12.0
290
     0
  0
SCALE
  5
4E
102
{ACAD_REACTORS
330
47
102
}
330
47
100
AcDbScale
 70
     0
300
1/8" = 1'-0"
140
0.125
141
12.0
290
     0
  0
SCALE
  5
4F
102
{ACAD_REACTORS
330
47
102
}
330
47
100
AcDbScale
 70
     0
300
3/16" = 1'-0"
140
0.1875
141
12.0
290
     0
  0
SCALE
  5
50
102
{ACAD_REACTORS
330
47
102
}
330
47
100
AcDbScale
 70
     0
300
1/4" = 1'-0"
140
0.25
141
12.0
290
     0
  0
SCALE
  5
51
102
{ACAD_REACTORS
330
47
102
}
330
47
100
AcDbScale
 70
     0
300
3/8" = 1'-0"
140
0.375
141
12.0
290
     0
  0
SCALE
  5
52
102
{ACAD_REACTORS
330
47
102
}
330
47
100
AcDbScale
 70
     0
300
1/2" = 1'-0"
140
0.5
141
12.0
290
     0
  0
SCALE
  5
53
102
{ACAD_REACTORS
330
47
102
}
330
47
100
AcDbScale
 70
     0
300
3/4" = 1'-0"
140
0.75
141
12.0
290
     0
  0
SCALE
  5
54
102
{ACAD_REACTORS
330
47
102
}
330
47
100
AcDbScale
 70
     0
300
1" = 1'-0"
140
1.0
141
12.0
290
     0
  0
SCALE
  5
55
102
{ACAD_REACTORS
330
47
102
}
330
47
100
AcDbScale
 70
     0
300
1-1/2" = 1'-0"
140
1.5
141
12.0
290
     0
  0
SCALE
  5
56
102
{ACAD_REACTORS
330
47
102
}
330
47
100
AcDbScale
 70
     0
300
3" = 1'-0"
140
3.0
141
12.0
290
     0
  0
SCALE
  5
57
102
{ACAD_REACTORS
330
47
102
}
330
47
100
AcDbScale
 70
     0
300
6" = 1'-0"
140
6.0
141
12.0
290
     0
  0
SCALE
  5
58
102
{ACAD_REACTORS
330
47
102
}
330
47
100
AcDbScale
 70
     0
300
1'-0" = 1'-0"
140
12.0
141
12.0
290
     0
  0
ENDSEC
  0
EOF
