<?xml version="1.0" encoding="UTF-8" standalone="no"?>
<svg
   version="1.0"
   width="1244.000000pt"
   height="1245.000000pt"
   viewBox="0 0 1244.000000 1245.000000"
   preserveAspectRatio="xMidYMid meet"
   id="svg172"
   sodipodi:docname="chess_board_top.svg"
   inkscape:version="1.1.1 (3bf5ae0d25, 2021-09-20)"
   xmlns:inkscape="http://www.inkscape.org/namespaces/inkscape"
   xmlns:sodipodi="http://sodipodi.sourceforge.net/DTD/sodipodi-0.dtd"
   xmlns="http://www.w3.org/2000/svg"
   xmlns:svg="http://www.w3.org/2000/svg">
  <defs
     id="defs176">
    <rect
       x="-1882.1737"
       y="980.60369"
       width="395.16865"
       height="158.06746"
       id="rect6526" />
    <rect
       x="-1882.1737"
       y="980.60369"
       width="395.16865"
       height="158.06746"
       id="rect6526-0" />
  </defs>
  <sodipodi:namedview
     id="namedview174"
     pagecolor="#ffffff"
     bordercolor="#666666"
     borderopacity="1.0"
     inkscape:pageshadow="2"
     inkscape:pageopacity="0.0"
     inkscape:pagecheckerboard="0"
     inkscape:document-units="pt"
     showgrid="false"
     showborder="false"
     inkscape:zoom="0.21749345"
     inkscape:cx="-793.12733"
     inkscape:cy="1087.3891"
     inkscape:window-width="1920"
     inkscape:window-height="991"
     inkscape:window-x="-9"
     inkscape:window-y="-9"
     inkscape:window-maximized="1"
     inkscape:current-layer="g17732" />
  <g
     transform="matrix(0.09505863,0,0,-0.09876565,-21.953814,707.13156)"
     fill="#000000"
     stroke="none"
     id="g170">
    <g
       transform="matrix(1.0519823,0,0,1.0124978,-29657.207,5779.167)"
       fill="#000000"
       stroke="none"
       id="g1220">
      <g
         id="g14167"
         transform="translate(-106.24144,-1185.2952)">
        <g
           id="g17732"
           transform="translate(-14103.874,34.483796)">
          <path
             d="M 230.95025,-1699.664 V -10559.02 H 9435.7954 18640.641 v 8859.356 8859.3552 H 9435.7954 230.95025 Z m 18283.90075,0 v -8724.152 l -9074.616,-4.269 -9076.09575,-2.847 v 8731.268 8731.2692 l 9076.09575,-2.8466 9074.616,-4.27 z"
             id="path92"
             style="stroke-width:1.45124"
             transform="matrix(0.95058634,0,0,0.98765644,28297.977,-4522.5365)" />
          <path
             d="m 30672.253,2014.5165 c -77.4,-25.8865 -156.95,-117.3521 -156.95,-177.754 0,-50.0472 53.751,-134.6098 98.899,-155.319 30.101,-13.8061 25.801,-24.1608 -32.249,-89.7398 -66.65,-74.208 -86,-138.0614 -43,-138.0614 12.9,0 17.2,13.8062 8.599,32.7896 -21.5,55.2246 30.101,60.4018 139.751,13.8061 94.6,-39.6926 107.499,-41.4184 150.499,-17.2577 45.15,25.8866 42.999,27.6123 -75.25,65.5792 -148.35,48.3214 -152.65,51.7729 -118.249,86.2883 19.348,18.9834 68.8,25.8865 176.299,25.8865 172,0 204.249,-25.8865 122.55,-100.0945 -27.951,-25.8864 -36.55,-36.241 -19.35,-24.1607 42.998,29.3381 64.5,25.8866 64.5,-12.0803 0,-17.2577 15.049,-41.4185 34.399,-53.4988 27.949,-18.9834 40.85,-15.532 88.15,20.7092 47.299,39.6926 49.449,44.8699 15.049,43.1442 -38.701,-3.4516 -40.849,13.8061 -47.3,219.1724 -4.3,193.2858 0,227.8011 32.251,258.865 38.699,34.5154 38.699,34.5154 -4.3,10.3546 -23.651,-13.8062 -47.301,-31.0638 -55.901,-37.9669 -6.449,-8.6288 -49.449,1.7257 -94.599,20.7092 -98.9,39.6926 -187.05,43.1442 -283.798,8.6288 z m 212.849,-69.0306 c 4.301,-8.6289 -27.951,-18.9835 -70.95,-22.4351 -70.95,-5.1772 -191.349,-72.4821 -131.15,-72.4821 12.901,0 30.101,8.6287 36.55,17.2577 17.199,20.7092 34.399,20.7092 73.1,1.7257 21.5,-12.0804 10.751,-32.7896 -51.6,-101.8202 -45.149,-48.3215 -92.45,-82.8369 -107.5,-79.3853 -12.899,5.1774 -40.85,31.0638 -62.348,60.4018 -68.8,93.1915 -2.15,196.7375 141.899,220.8982 79.549,13.8062 163.397,1.7257 171.999,-24.1607 z m 70.949,-29.338 c 4.3,-12.0805 10.749,-63.8534 17.2,-112.1749 l 8.599,-91.4657 h -135.449 -137.598 l 103.199,112.1749 c 101.049,113.9006 126.849,129.4324 144.049,91.4657 z"
             id="path986"
             inkscape:transform-center-x="23.600255"
             inkscape:transform-center-y="-303.09731"
             style="stroke-width:1.92623" />
          <path
             d="m 32373.602,2009.1939 c -18.115,-15.475 -34.419,-38.6874 -34.419,-47.9725 0,-12.3798 9.057,-9.2849 18.116,4.6426 14.493,21.665 41.667,24.76 141.303,21.665 92.388,-4.6425 132.244,0 161.229,20.1174 39.856,24.76 34.42,26.3075 -105.071,27.8549 -121.375,3.0951 -152.172,-1.5474 -181.158,-26.3074 z"
             id="path988"
             style="stroke-width:1.6743" />
          <path
             d="m 32822.873,2030.8588 c -28.984,-6.1899 -27.175,-10.8323 12.681,-43.3298 59.783,-46.4249 59.783,-85.1123 0,-145.4648 -25.362,-26.3074 -36.232,-44.8775 -21.739,-40.235 39.853,12.3801 70.651,-15.4748 79.71,-74.2799 5.434,-46.4249 1.812,-57.2574 -23.552,-57.2574 -27.172,0 -25.36,-3.0949 5.435,-23.2124 34.42,-23.2125 34.42,-23.2125 -1.811,-47.9724 -34.42,-23.2126 -34.42,-23.2126 18.114,-12.38 79.712,15.475 81.522,17.0226 81.522,92.8499 0,85.1123 -25.362,129.9898 -72.465,129.9898 -47.1,0 -45.288,9.2849 9.06,64.9949 56.159,57.2573 57.971,111.4198 5.436,142.3697 -21.739,13.9274 -45.291,23.2125 -50.725,23.2125 -5.436,-1.5475 -23.552,-4.6426 -41.666,-9.2851 z"
             id="path990"
             style="stroke-width:1.6743" />
          <path
             d="m 35995.873,2024.1587 c 0,-49.2353 60.725,-83.1908 151.816,-83.1908 h 87.516 l -46.438,-45.8399 c -26.791,-27.1644 -51.795,-76.3998 -58.94,-110.3552 -8.929,-42.4444 -19.646,-59.4221 -35.721,-54.3288 -26.791,10.1867 -98.233,-20.3732 -98.233,-40.7465 0,-6.7911 21.433,-13.5822 50.01,-11.8845 39.293,0 50.01,-8.4887 53.581,-47.5376 5.357,-35.6532 -8.93,-59.422 -53.581,-100.1686 l -58.94,-54.3287 60.725,33.9555 c 69.657,39.0486 144.671,117.1463 146.457,156.1951 0,15.28 0,62.8176 -1.786,105.2618 -1.786,86.5865 50.009,169.7774 107.164,169.7774 26.791,0 35.719,-15.28 41.079,-71.3064 l 7.144,-73.0043 1.786,73.0043 c 3.572,66.2131 7.144,71.3064 55.367,71.3064 64.298,0 128.597,-69.6087 125.025,-134.1242 -1.785,-23.7687 3.572,-66.213 10.717,-91.6796 12.502,-45.8398 10.717,-47.5377 -37.508,-37.3511 l -51.795,8.489 50.01,-18.6756 c 37.505,-13.5822 48.222,-28.8621 48.222,-69.6086 0,-49.2356 -1.786,-50.9333 -66.084,-40.7465 -105.378,18.6754 -130.382,27.1643 -130.382,49.2352 0,13.5824 -3.572,15.2801 -14.288,1.6979 -7.145,-10.1866 -35.721,-23.7688 -62.512,-30.5599 -48.224,-10.1866 -48.224,-10.1866 -23.219,27.1644 14.289,23.7688 28.576,95.0753 32.148,178.2661 3.573,74.702 0,129.0307 -7.144,118.8441 -7.143,-11.8844 -14.287,-73.0042 -14.287,-135.8219 0,-64.5153 -8.932,-130.7285 -19.647,-149.4039 -8.93,-18.6755 -62.513,-61.1199 -116.095,-93.3776 -105.376,-64.5154 -128.595,-91.6798 -41.078,-49.2354 75.014,37.351 203.611,49.2354 317.917,28.8621 87.517,-15.2799 103.591,-13.5822 157.173,20.3733 51.796,32.2577 58.941,44.1422 58.941,112.053 0,162.9863 -32.151,276.737 -89.304,327.6703 -53.581,44.142 -58.94,45.8398 -273.267,45.8398 -146.456,0 -226.829,6.7912 -241.116,20.3734 -16.076,15.2798 -21.433,15.2798 -21.433,-5.0935 z"
             id="path994"
             style="stroke-width:1.74138" />
          <path
             d="m 32710.553,1992.1715 c -67.026,-30.9501 -81.519,-61.8999 -81.519,-181.0573 0,-71.1849 -10.869,-134.6322 -25.362,-159.3922 l -27.172,-43.33 45.288,26.3075 c 67.029,37.14 79.708,68.0899 79.708,204.2697 0,109.8724 3.626,126.8948 39.857,147.0123 45.288,27.8549 23.548,32.4974 -30.8,6.19 z"
             id="path1002"
             style="stroke-width:1.6743" />
          <path
             d="m 32531.212,1944.1991 c -25.364,-23.2125 -47.103,-58.805 -47.103,-80.4699 0,-30.9499 -9.059,-38.6875 -41.666,-38.6875 -23.551,0 -57.972,-13.9275 -76.086,-30.95 -34.42,-32.4973 -14.494,-44.8773 21.737,-13.9274 14.494,12.38 30.798,12.38 57.973,0 50.723,-23.2125 50.723,-75.8275 -1.813,-82.0174 -52.535,-6.1899 -61.592,-38.6874 -10.869,-37.14 63.405,1.5476 61.593,-52.6149 -3.623,-106.7773 -50.724,-41.7824 -74.275,-100.5873 -39.855,-100.5873 9.059,0 14.495,15.475 14.495,34.0449 -3.627,66.5424 134.053,94.3974 253.619,51.0675 57.97,-20.1175 67.028,-20.1175 117.751,6.1899 l 56.16,29.4025 -96.015,17.0224 c -54.347,7.7376 -128.621,12.3802 -164.853,9.2851 -67.028,-4.6426 -68.84,-4.6426 -41.666,27.8549 18.116,23.2125 27.174,71.185 27.174,154.7498 0,66.5424 9.057,134.6323 19.928,153.2023 28.983,46.4249 5.434,51.0674 -45.288,7.7375 z"
             id="path1010"
             style="stroke-width:1.6743" />
          <path
             d="m 36342.367,1762.7018 c -5.357,-13.5822 -7.145,-37.3511 -1.785,-54.3289 5.357,-20.3732 8.93,-15.2799 10.717,15.2801 1.785,42.4442 5.357,44.1421 78.586,35.6532 92.874,-11.8845 83.945,3.3956 -10.717,16.9777 -48.223,6.7911 -71.442,3.3956 -76.801,-13.5821 z"
             id="path1020"
             style="stroke-width:1.74138" />
          <path
             d="m 32806.571,1721.3594 c 10.866,-3.095 32.606,-3.095 45.288,0 10.868,4.6425 1.809,7.7375 -23.553,7.7375 -25.362,0 -34.417,-3.095 -21.735,-7.7375 z"
             id="path1024"
             style="stroke-width:1.6743" />
          <path
             d="m 36360.228,1659.1375 c -33.934,-25.4665 -33.934,-25.4665 1.787,-10.1866 19.645,8.4889 48.223,20.3734 62.513,25.4667 23.217,8.4888 23.217,10.1865 -1.788,10.1865 -14.289,1.6979 -42.865,-10.1865 -62.512,-25.4666 z"
             id="path1028"
             style="stroke-width:1.74138" />
          <path
             d="m 32755.846,1654.817 c 0,-7.7375 12.681,-10.8325 27.172,-6.19 14.493,6.19 27.174,12.3799 27.174,15.475 0,3.095 -12.681,6.1899 -27.174,6.1899 -14.491,0 -27.172,-6.1899 -27.172,-15.4749 z"
             id="path1030"
             style="stroke-width:1.6743" />
          <path
             d="m 29301.265,-3263.5451 c -89.611,-107.4851 -106.519,-148.5251 -106.519,-261.8731 1.69,-111.394 27.053,-170.0225 94.685,-222.7878 69.323,-52.7656 94.683,-46.9028 174.152,41.0396 57.488,64.4913 69.323,91.8513 69.323,152.434 0,54.7196 -11.835,87.9424 -42.27,121.1652 -45.651,48.8569 -60.869,46.9025 -172.461,-39.0856 l -55.797,-42.9943 v 72.3085 c 0,39.0853 11.836,95.7597 25.362,128.9822 l 27.053,56.674 67.632,-41.0397 c 54.106,-31.2684 74.395,-35.177 92.994,-15.6343 37.198,35.1771 28.742,52.7657 -40.579,93.8053 l -65.941,39.0857 z m 153.864,-271.6446 c 35.507,-58.6284 33.816,-119.211 -3.383,-158.2967 -27.051,-29.314 -33.816,-29.314 -87.92,9.7714 -113.283,78.1712 -126.81,130.9368 -47.344,187.6108 60.871,44.9484 94.687,35.1771 138.647,-39.0855 z"
             id="path1176-2"
             style="stroke-width:1.81775" />
          <path
             d="m 29290.887,431.25765 c -84.666,-105.561 -101.601,-181.79959 -54.188,-242.39949 25.4,-33.2321 25.4,-39.0967 -8.465,-87.9675 -45.719,-68.419301 -45.719,-115.335404 6.773,-173.980204 64.346,-76.238606 143.934,-66.464296 228.599,25.4128 82.972,91.877203 91.44,175.935004 25.4,246.309004 -42.335,44.9613 -42.335,44.9613 -8.468,80.14829 71.119,74.2836 27.095,170.0706 -86.359,193.5286 -50.8,9.7743 -66.04,3.9097 -103.292,-41.0515 z m 108.371,-44.9612 c 72.815,-23.4579 88.054,-58.6449 54.188,-115.3352 -18.627,-29.32249 -37.253,-39.09669 -67.734,-31.27729 -22.013,5.8645 -59.265,13.6837 -81.279,19.5483 -49.105,11.72899 -67.734,58.64489 -44.027,109.47069 20.32,41.0515 49.107,44.9612 138.852,17.5935 z m 45.721,-269.76709 c 74.506,-41.051701 81.28,-68.419201 33.867,-123.1548037 -28.786,-33.2320003 -49.107,-39.0964003 -110.066,-31.2771003 -88.054,9.7742 -125.306,41.0513003 -125.306,99.696493 0,93.832111 94.825,119.244811 201.505,54.735411 z"
             id="path1178-7"
             style="stroke-width:1.81938" />
          <path
             d="m 29264.936,-8709.5148 c -51.453,-38.535 -54.884,-44.62 -30.872,-73.014 22.298,-28.394 32.588,-24.338 87.472,24.338 78.895,70.986 120.057,58.817 104.622,-32.451 -13.721,-83.155 -37.732,-113.577 -102.907,-135.887 -51.455,-18.253 -51.455,-18.253 -8.576,-20.282 77.179,-4.056 135.495,-75.042 135.495,-164.281 0,-123.719 -36.019,-139.944 -128.634,-50.705 -44.594,44.62 -87.472,70.986 -102.907,62.874 -41.163,-18.254 -30.871,-44.62 44.592,-115.606 65.174,-60.845 73.75,-62.873 133.779,-42.592 142.354,50.705 181.803,194.705 75.464,279.888 l -54.883,42.591 41.162,38.536 c 24.013,20.281 46.31,62.873 53.171,93.295 8.575,48.676 1.714,56.789 -70.321,95.324 -99.477,52.733 -106.337,52.733 -176.657,-2.028 z"
             id="path1188-5"
             style="stroke-width:1.86508" />
          <path
             d="m 29222.339,-1423.2732 c -35.638,-90.9194 -37.336,-113.1441 -1.697,-54.5515 22.062,38.388 40.73,44.4494 135.767,44.4494 h 112.009 l -37.337,-54.5516 c -84.855,-131.3279 -139.16,-244.472 -162.92,-345.4937 -15.274,-60.6128 -23.76,-113.144 -18.668,-117.185 3.394,-6.0613 25.456,0 47.518,10.1021 33.942,14.1431 45.823,42.4291 64.49,145.471 23.759,135.369 66.187,252.5541 130.675,355.5958 22.062,34.3474 40.73,68.6949 40.73,74.7561 0,6.0613 -62.792,12.1226 -140.859,12.1226 h -140.858 z"
             id="path1194-1"
             style="stroke-width:1.85171" />
          <path
             d="m 29255.006,-5042.7142 c -5.351,-18.1923 -10.702,-46.4914 -8.919,-64.6836 0,-22.2349 3.568,-24.2563 10.703,-8.0853 5.353,14.1492 46.386,24.2563 112.395,24.2563 96.339,0 124.884,16.1707 124.884,72.7688 0,4.0427 -51.738,8.0855 -114.179,8.0855 -87.418,0 -115.963,-8.0855 -124.884,-32.3417 z"
             id="path1192-3"
             style="stroke-width:1.89899" />
          <path
             d="m 29230.03,-5212.5082 c 0,-28.2991 3.568,-38.4059 8.919,-24.2564 3.569,12.1281 3.569,36.3844 0,50.5339 -5.351,12.128 -8.919,2.0213 -8.919,-26.2775 z"
             id="path1206-6"
             style="stroke-width:1.89899" />
          <path
             d="m 29292.472,-5256.9781 c -46.385,-34.3632 -80.282,-66.705 -76.713,-72.7688 5.351,-4.043 32.112,12.128 62.441,34.363 62.44,50.5338 98.123,38.4058 160.562,-50.5341 46.386,-66.7047 48.17,-153.6231 3.569,-198.0929 -32.112,-32.3418 -37.465,-32.3418 -119.531,26.2775 -73.145,50.534 -90.986,56.5981 -112.396,34.3631 -30.327,-36.3843 -19.623,-52.5552 58.875,-101.0679 76.715,-46.4911 139.156,-32.3415 208.734,48.5127 71.36,78.8329 73.144,212.2424 5.351,291.0754 -58.872,66.7049 -83.849,64.6834 -190.892,-12.128 z"
             id="path1208-7"
             style="stroke-width:1.89899" />
          <path
             d="m 34444.615,1974.2104 -99.203,-67.7157 -6.334,-140.777 c -4.221,-80.1895 -16.885,-144.3411 -29.551,-147.9049 -33.772,-8.9101 -71.764,76.6254 -71.764,163.9427 0,64.1516 12.664,92.6634 69.654,144.3412 50.657,51.6776 56.991,62.3695 21.106,46.3317 -120.311,-55.2417 -192.079,-201.3648 -156.194,-317.1939 67.544,-212.0566 390.49,-272.6443 572.016,-105.1374 l 52.768,48.1136 -80.209,-40.9855 c -97.094,-46.3318 -232.183,-49.8958 -329.277,-8.91 -78.1,35.6397 -80.21,46.3317 -12.666,99.7913 44.326,35.6397 52.769,58.8056 56.99,174.6349 8.444,178.1987 54.879,197.8006 65.434,26.7298 l 6.333,-121.1752 4.22,126.5212 4.223,128.3031 86.541,-26.7298 c 80.209,-21.3838 90.762,-21.3838 128.757,7.1279 37.992,28.5118 35.882,30.2938 -61.214,51.6777 -54.878,12.4739 -105.538,23.1659 -111.869,24.9478 -6.332,0 -54.88,-30.2938 -109.761,-65.9335 z"
             id="path992-9"
             style="stroke-width:1.93942" />
          <path
             d="m 38100.346,1975.0126 -99.342,-73.7111 -6.34,-136.6349 c -4.227,-77.3067 -16.91,-140.2305 -29.592,-143.8262 -33.819,-8.9892 -71.865,77.3066 -71.865,165.4001 0,64.7219 12.683,93.4871 69.751,145.6242 46.502,46.7435 54.956,61.1262 25.364,48.5414 -63.41,-28.7653 -109.911,-79.1046 -147.957,-154.6134 -42.272,-86.2956 -40.157,-129.4435 12.684,-221.1328 48.612,-86.2958 173.319,-151.0176 293.798,-151.0176 86.659,0 234.615,57.5305 268.434,107.8698 l 27.477,35.9565 -69.75,-35.9565 c -35.932,-19.7762 -99.341,-35.9566 -137.387,-35.9566 h -69.751 l 6.34,131.2414 6.342,129.4436 88.773,5.3936 c 63.41,3.5957 97.229,16.1804 112.025,41.35 19.023,30.5631 14.796,34.1587 -35.934,34.1587 h -57.068 l 80.318,70.1154 78.207,68.3174 -80.319,10.7871 c -44.387,5.3933 -99.343,16.1804 -122.593,21.5739 -31.705,8.989 -69.751,-8.9892 -141.615,-62.924 z m 48.614,-226.5264 c 0,-115.061 -6.342,-213.9416 -12.682,-219.3351 -14.795,-12.5848 -158.524,44.9457 -158.524,64.7219 0,8.9892 23.25,34.1587 52.842,57.5305 46.5,35.9564 52.842,57.5304 52.842,161.8045 0,102.4763 29.59,179.7829 59.18,154.6133 4.229,-5.3935 8.456,-102.4762 6.342,-219.3351 z m 186.002,197.761 c 12.681,-8.989 -126.819,-133.0392 -150.069,-133.0392 -8.456,0 -16.91,35.9566 -16.91,80.9023 v 82.7 l 80.319,-12.5846 c 42.273,-7.1914 82.433,-14.3828 86.66,-17.9785 z"
             id="path996-4"
             style="stroke-width:1.94933" />
          <path
             d="m 40054.791,2007.7317 c -27.435,-21.3816 -78.873,-42.7633 -113.167,-47.345 -48.01,-7.6363 -60.012,-15.2726 -60.012,-41.2359 1.713,-25.9636 -10.289,-35.1271 -49.724,-38.1816 -58.299,-6.1091 -87.448,-24.4362 -114.883,-70.2538 -17.146,-30.5453 -17.146,-30.5453 13.718,-6.109 18.861,15.2725 60.011,29.0178 92.59,30.5451 l 60.012,4.5818 v -164.944 c 0,-187.8528 -10.287,-204.6526 -108.021,-167.9984 -70.3,25.9634 -140.601,7.6363 -140.601,-36.6542 0,-18.327 5.144,-21.3817 18.861,-9.1635 13.718,12.2181 34.293,12.2181 68.586,1.5272 60.01,-18.3271 250.337,32.0726 320.636,87.0539 41.151,32.0724 48.013,48.8722 54.869,163.4165 8.572,120.6534 10.29,126.7625 51.44,131.3442 72.015,9.1636 80.589,33.5997 12.005,33.5997 -60.014,0 -63.445,3.0545 -63.445,50.3996 0,48.8722 1.715,50.3995 56.584,44.2904 37.722,-3.0545 66.871,3.0545 85.732,19.8543 36.009,32.0726 39.437,64.1449 3.43,38.1815 -24.005,-18.3271 -48.011,-16.7998 -111.451,6.109 -13.719,4.5819 -48.013,-9.1635 -77.159,-29.0178 z m -29.15,-235.1978 c -5.143,-167.9984 -8.572,-184.7983 -46.295,-221.4525 -58.299,-54.9813 -70.301,-48.8722 -42.866,18.3271 13.716,33.5997 22.29,123.7079 24.005,221.4525 0,155.7804 1.713,163.4165 36.007,163.4165 34.293,0 36.008,-6.1088 29.149,-181.7436 z"
             id="path998-6"
             style="stroke-width:1.61823" />
          <path
             d="m 41670.472,1952.7784 c -145.36,-110.544 -193.815,-167.599 -209.321,-244.2666 -15.504,-80.2335 40.702,-181.8629 127.918,-224.6541 71.712,-33.8763 197.692,-41.0082 261.651,-12.4807 36.826,16.0467 36.826,16.0467 -3.876,8.9148 -40.7,-7.1319 -40.7,-1.7829 -42.639,160.4672 l -1.939,167.599 h 65.898 c 77.526,0 145.362,-44.5741 156.99,-106.9781 17.442,-82.0166 -3.877,-103.4122 -93.032,-98.0632 -44.576,1.7829 -60.082,1.7829 -32.948,-3.566 104.661,-16.0466 110.474,-23.1786 48.454,-71.3187 -34.886,-26.7445 -42.64,-37.4424 -17.443,-24.9616 23.257,10.6978 67.835,46.3571 102.722,82.0166 100.784,106.978 71.711,233.5688 -69.774,287.0578 -63.959,24.9617 -69.774,24.9617 -147.3,-28.5274 l -81.402,-55.272 -5.815,92.7144 c -3.875,49.9231 -1.939,94.4973 1.939,98.0632 11.628,10.6979 174.433,-44.5742 188,-62.4039 5.816,-8.9148 40.703,7.1319 77.526,33.8764 48.454,37.4423 56.208,49.9231 29.073,42.7912 -23.258,-5.3489 -79.464,3.5659 -125.98,17.8297 -48.454,16.0467 -93.03,28.5275 -100.784,28.5275 -7.752,0 -65.896,-39.2253 -127.918,-87.3655 z m -34.886,-196.1265 c -3.877,-139.0714 -13.568,-180.0798 -46.517,-180.0798 -29.071,0 -62.02,124.8078 -50.39,183.6457 13.566,58.838 62.02,137.2887 85.277,137.2887 7.753,0 11.63,-64.1869 11.63,-140.8546 z m 147.299,-128.3736 c 0,-158.6843 0,-160.4672 -42.64,-149.7694 -58.144,16.0467 -131.793,58.8379 -131.793,76.6676 0,8.9148 27.134,32.0935 58.144,53.489 44.578,30.3105 58.145,55.2721 58.145,99.8463 0,58.8379 11.629,82.0166 42.638,82.0166 7.753,0 15.506,-73.1018 15.506,-162.2501 z"
             id="path1000-7"
             style="stroke-width:1.85894" />
          <path
             d="m 43324.155,2021.0825 c -23.565,-13.365 -41.692,-31.1848 -41.692,-40.0948 0,-8.9099 9.062,-10.3949 23.564,-1.4849 10.877,7.4249 58.008,8.9098 101.513,4.4548 70.698,-5.9399 76.135,-10.3947 50.757,-28.2147 -18.128,-10.3949 -36.255,-46.0348 -41.693,-77.2197 -9.064,-47.5196 -19.94,-57.9145 -52.569,-57.9145 -21.753,0 -48.944,-8.91 -59.819,-19.3049 -14.503,-13.365 -5.44,-17.82 38.066,-17.82 45.317,0 59.82,-7.425 63.444,-32.6698 3.627,-20.79 -7.249,-38.6098 -30.815,-49.0047 -48.944,-20.79 -48.944,-40.0949 0,-38.6098 61.633,1.4849 59.82,-26.7299 -10.876,-95.0395 -67.071,-65.3397 -74.322,-81.6747 -45.319,-96.5246 10.878,-4.455 18.128,7.425 18.128,28.2149 0,51.9747 56.194,72.7647 179.459,65.3396 56.195,-4.4549 112.389,-10.3948 125.08,-13.3649 12.688,-2.9699 45.318,17.8199 72.508,46.0348 27.191,28.2149 34.442,43.0647 18.127,32.6699 -18.127,-11.8801 -67.071,-17.82 -126.89,-14.8501 l -96.076,4.4551 67.072,37.1248 c 56.195,31.1848 63.446,43.0647 56.195,81.6745 l -9.064,44.5498 h 112.389 110.575 l -9.063,-72.7647 c -5.438,-43.0648 -27.19,-90.5844 -52.569,-118.7994 -76.134,-83.1593 -74.322,-90.5843 10.877,-31.1847 45.318,31.1847 92.449,75.7346 105.137,99.4945 32.629,65.3397 12.689,197.5039 -38.067,242.0536 -54.382,46.0348 -67.07,46.0348 -145.019,-7.4249 -34.441,-25.2448 -68.883,-44.5497 -76.132,-44.5497 -7.252,0 -14.503,23.7599 -14.503,51.9746 0,53.4598 63.445,126.2244 110.576,126.2244 12.689,0 18.128,4.4549 12.689,8.9098 -18.127,14.8501 -135.953,-34.1548 -166.771,-69.7945 -21.753,-25.2449 -29.004,-68.3096 -29.004,-157.4092 0,-117.3143 -1.812,-124.7393 -56.194,-170.7741 -38.068,-34.1548 -50.756,-40.0947 -41.692,-19.3048 7.251,16.3349 18.127,96.5245 25.378,178.199 5.437,81.6746 16.314,157.4092 25.377,167.8041 7.252,11.8799 39.88,34.1548 72.51,50.4897 47.131,23.7599 48.943,26.7299 10.876,17.8199 -56.195,-14.8499 -101.513,-14.8499 -172.208,-1.485 -38.068,7.425 -67.071,4.4549 -94.262,-11.8799 z m 474.933,-155.9241 c 47.131,-43.0648 23.567,-74.2497 -58.006,-74.2497 -110.577,0 -126.89,19.3049 -56.195,65.3397 72.509,46.0347 72.509,46.0347 114.201,8.91 z"
             id="path1032-1"
             style="stroke-width:1.64068" />
          <path
             d="m 43677.636,1706.2643 c 12.689,-4.455 29.003,-2.97 34.442,1.4849 7.251,4.455 -3.625,8.91 -23.564,7.4249 -19.942,0 -25.38,-4.455 -10.878,-8.9098 z"
             id="path1078-8"
             style="stroke-width:1.64068" />
          <path
             d="m 43768.273,1706.2643 c 12.688,-4.455 29.003,-2.97 34.442,1.4849 7.251,4.455 -3.627,8.91 -23.566,7.4249 -19.94,0 -25.379,-4.455 -10.876,-8.9098 z"
             id="path1080-9"
             style="stroke-width:1.64068" />
          <path
             d="m 43717.515,1479.0604 c 0,-22.2749 38.069,-34.1548 58.009,-17.8199 10.876,8.9099 3.625,16.335 -19.94,22.2749 -21.752,4.455 -38.069,1.485 -38.069,-4.455 z"
             id="path1082-7"
             style="stroke-width:1.64068" />
          <path
             d="m 30672.253,-13758.98 c -77.4,-25.887 -156.95,-117.352 -156.95,-177.754 0,-50.048 53.751,-134.61 98.899,-155.319 30.101,-13.807 25.801,-24.161 -32.249,-89.741 -66.65,-74.207 -86,-138.061 -43,-138.061 12.9,0 17.2,13.807 8.599,32.79 -21.5,55.225 30.101,60.401 139.751,13.807 94.6,-39.694 107.499,-41.419 150.499,-17.259 45.15,25.887 42.999,27.613 -75.25,65.579 -148.35,48.322 -152.65,51.773 -118.249,86.289 19.348,18.983 68.8,25.887 176.299,25.887 172,0 204.249,-25.887 122.55,-100.095 -27.951,-25.886 -36.55,-36.24 -19.35,-24.161 42.998,29.339 64.5,25.887 64.5,-12.079 0,-17.259 15.049,-41.42 34.399,-53.501 27.949,-18.983 40.85,-15.531 88.15,20.711 47.299,39.692 49.449,44.869 15.049,43.144 -38.701,-3.452 -40.849,13.805 -47.3,219.172 -4.3,193.285 0,227.801 32.251,258.865 38.699,34.515 38.699,34.515 -4.3,10.354 -23.651,-13.805 -47.301,-31.063 -55.901,-37.966 -6.449,-8.629 -49.449,1.726 -94.599,20.709 -98.9,39.692 -187.05,43.144 -283.798,8.629 z m 212.849,-69.032 c 4.301,-8.628 -27.951,-18.983 -70.95,-22.435 -70.95,-5.176 -191.349,-72.482 -131.15,-72.482 12.901,0 30.101,8.629 36.55,17.259 17.199,20.709 34.399,20.709 73.1,1.725 21.5,-12.08 10.751,-32.789 -51.6,-101.82 -45.149,-48.322 -92.45,-82.836 -107.5,-79.386 -12.899,5.178 -40.85,31.064 -62.348,60.403 -68.8,93.191 -2.15,196.736 141.899,220.897 79.549,13.807 163.397,1.726 171.999,-24.161 z m 70.949,-29.337 c 4.3,-12.081 10.749,-63.854 17.2,-112.174 l 8.599,-91.467 h -135.449 -137.598 l 103.199,112.176 c 101.049,113.9 126.849,129.432 144.049,91.465 z"
             id="path986-7"
             inkscape:transform-center-x="23.600255"
             inkscape:transform-center-y="-303.09728"
             style="stroke-width:1.92623" />
          <path
             d="m 32373.602,-13764.304 c -18.115,-15.473 -34.419,-38.686 -34.419,-47.971 0,-12.38 9.057,-9.285 18.116,4.641 14.493,21.666 41.667,24.761 141.303,21.666 92.388,-4.643 132.244,0 161.229,20.117 39.856,24.76 34.42,26.308 -105.071,27.855 -121.375,3.096 -152.172,-1.547 -181.158,-26.308 z"
             id="path988-0"
             style="stroke-width:1.6743" />
          <path
             d="m 32822.873,-13742.638 c -28.984,-6.19 -27.175,-10.832 12.681,-43.33 59.783,-46.424 59.783,-85.112 0,-145.465 -25.362,-26.307 -36.232,-44.877 -21.739,-40.235 39.853,12.381 70.651,-15.474 79.71,-74.279 5.434,-46.426 1.812,-57.258 -23.552,-57.258 -27.172,0 -25.36,-3.095 5.435,-23.213 34.42,-23.212 34.42,-23.212 -1.811,-47.972 -34.42,-23.213 -34.42,-23.213 18.114,-12.379 79.712,15.474 81.522,17.022 81.522,92.849 0,85.112 -25.362,129.989 -72.465,129.989 -47.1,0 -45.288,9.285 9.06,64.996 56.159,57.258 57.971,111.42 5.436,142.369 -21.739,13.928 -45.291,23.213 -50.725,23.213 -5.436,-1.547 -23.552,-4.643 -41.666,-9.285 z"
             id="path990-5"
             style="stroke-width:1.6743" />
          <path
             d="m 35995.873,-13749.338 c 0,-49.235 60.725,-83.191 151.816,-83.191 h 87.516 l -46.438,-45.839 c -26.791,-27.165 -51.795,-76.401 -58.94,-110.356 -8.929,-42.445 -19.646,-59.423 -35.721,-54.328 -26.791,10.187 -98.233,-20.374 -98.233,-40.747 0,-6.791 21.433,-13.583 50.01,-11.885 39.293,0 50.01,-8.489 53.581,-47.537 5.357,-35.654 -8.93,-59.423 -53.581,-100.169 l -58.94,-54.328 60.725,33.955 c 69.657,39.049 144.671,117.146 146.457,156.195 0,15.28 0,62.818 -1.786,105.262 -1.786,86.586 50.009,169.777 107.164,169.777 26.791,0 35.719,-15.28 41.079,-71.306 l 7.144,-73.004 1.786,73.004 c 3.572,66.213 7.144,71.306 55.367,71.306 64.298,0 128.597,-69.608 125.025,-134.125 -1.785,-23.768 3.572,-66.211 10.717,-91.678 12.502,-45.841 10.717,-47.539 -37.508,-37.352 l -51.795,8.489 50.01,-18.676 c 37.505,-13.582 48.222,-28.861 48.222,-69.608 0,-49.235 -1.786,-50.933 -66.084,-40.746 -105.378,18.675 -130.382,27.164 -130.382,49.235 0,13.582 -3.572,15.28 -14.288,1.698 -7.145,-10.187 -35.721,-23.769 -62.512,-30.561 -48.224,-10.185 -48.224,-10.185 -23.219,27.165 14.289,23.769 28.576,95.075 32.148,178.266 3.573,74.702 0,129.031 -7.144,118.844 -7.143,-11.885 -14.287,-73.004 -14.287,-135.822 0,-64.515 -8.932,-130.729 -19.647,-149.403 -8.93,-18.676 -62.513,-61.12 -116.095,-93.378 -105.376,-64.515 -128.595,-91.68 -41.078,-49.235 75.014,37.35 203.611,49.235 317.917,28.861 87.517,-15.28 103.591,-13.582 157.173,20.374 51.796,32.258 58.941,44.143 58.941,112.052 0,162.986 -32.151,276.738 -89.304,327.671 -53.581,44.142 -58.94,45.84 -273.267,45.84 -146.456,0 -226.829,6.791 -241.116,20.373 -16.076,15.28 -21.433,15.28 -21.433,-5.093 z"
             id="path994-6"
             style="stroke-width:1.74138" />
          <path
             d="m 32710.553,-13781.325 c -67.026,-30.95 -81.519,-61.901 -81.519,-181.057 0,-71.186 -10.869,-134.633 -25.362,-159.393 l -27.172,-43.33 45.288,26.308 c 67.029,37.139 79.708,68.09 79.708,204.27 0,109.872 3.626,126.893 39.857,147.012 45.288,27.855 23.548,32.498 -30.8,6.19 z"
             id="path1002-1"
             style="stroke-width:1.6743" />
          <path
             d="m 32531.212,-13829.298 c -25.364,-23.213 -47.103,-58.805 -47.103,-80.469 0,-30.951 -9.059,-38.688 -41.666,-38.688 -23.551,0 -57.972,-13.927 -76.086,-30.951 -34.42,-32.496 -14.494,-44.877 21.737,-13.926 14.494,12.379 30.798,12.379 57.973,0 50.723,-23.213 50.723,-75.828 -1.813,-82.019 -52.535,-6.189 -61.592,-38.686 -10.869,-37.139 63.405,1.547 61.593,-52.615 -3.623,-106.777 -50.724,-41.782 -74.275,-100.588 -39.855,-100.588 9.059,0 14.495,15.476 14.495,34.045 -3.627,66.543 134.053,94.398 253.619,51.068 57.97,-20.117 67.028,-20.117 117.751,6.19 l 56.16,29.402 -96.015,17.023 c -54.347,7.737 -128.621,12.38 -164.853,9.285 -67.028,-4.642 -68.84,-4.642 -41.666,27.854 18.116,23.213 27.174,71.186 27.174,154.75 0,66.543 9.057,134.633 19.928,153.203 28.983,46.424 5.434,51.067 -45.288,7.737 z"
             id="path1010-2"
             style="stroke-width:1.6743" />
          <path
             d="m 36342.367,-14010.795 c -5.357,-13.583 -7.145,-37.352 -1.785,-54.329 5.357,-20.373 8.93,-15.28 10.717,15.281 1.785,42.443 5.357,44.141 78.586,35.652 92.874,-11.884 83.945,3.396 -10.717,16.978 -48.223,6.791 -71.442,3.396 -76.801,-13.582 z"
             id="path1020-36"
             style="stroke-width:1.74138" />
          <path
             d="m 32806.571,-14052.138 c 10.866,-3.094 32.606,-3.094 45.288,0 10.868,4.644 1.809,7.738 -23.553,7.738 -25.362,0 -34.417,-3.094 -21.735,-7.738 z"
             id="path1024-8"
             style="stroke-width:1.6743" />
          <path
             d="m 36360.228,-14114.36 c -33.934,-25.465 -33.934,-25.465 1.787,-10.185 19.645,8.488 48.223,20.372 62.513,25.466 23.217,8.489 23.217,10.186 -1.788,10.186 -14.289,1.698 -42.865,-10.186 -62.512,-25.467 z"
             id="path1028-1"
             style="stroke-width:1.74138" />
          <path
             d="m 32755.846,-14118.68 c 0,-7.738 12.681,-10.833 27.172,-6.189 14.493,6.189 27.174,12.379 27.174,15.473 0,3.096 -12.681,6.191 -27.174,6.191 -14.491,0 -27.172,-6.191 -27.172,-15.475 z"
             id="path1030-1"
             style="stroke-width:1.6743" />
          <path
             d="m 34444.615,-13799.287 -99.203,-67.716 -6.334,-140.776 c -4.221,-80.19 -16.885,-144.342 -29.551,-147.905 -33.772,-8.91 -71.764,76.626 -71.764,163.942 0,64.152 12.664,92.665 69.654,144.342 50.657,51.678 56.991,62.369 21.106,46.331 -120.311,-55.241 -192.079,-201.364 -156.194,-317.194 67.544,-212.056 390.49,-272.643 572.016,-105.137 l 52.768,48.114 -80.209,-40.985 c -97.094,-46.333 -232.183,-49.896 -329.277,-8.911 -78.1,35.64 -80.21,46.332 -12.666,99.792 44.326,35.639 52.769,58.805 56.99,174.635 8.444,178.198 54.879,197.8 65.434,26.729 l 6.333,-121.176 4.22,126.523 4.223,128.303 86.541,-26.731 c 80.209,-21.383 90.762,-21.383 128.757,7.129 37.992,28.511 35.882,30.293 -61.214,51.678 -54.878,12.473 -105.538,23.165 -111.869,24.947 -6.332,0 -54.88,-30.294 -109.761,-65.934 z"
             id="path992-9-6"
             style="stroke-width:1.93942" />
          <path
             d="m 38100.346,-13798.484 -99.342,-73.711 -6.34,-136.635 c -4.227,-77.307 -16.91,-140.231 -29.592,-143.827 -33.819,-8.989 -71.865,77.306 -71.865,165.4 0,64.722 12.683,93.487 69.751,145.625 46.502,46.744 54.956,61.126 25.364,48.541 -63.41,-28.765 -109.911,-79.104 -147.957,-154.613 -42.272,-86.295 -40.157,-129.444 12.684,-221.133 48.612,-86.296 173.319,-151.018 293.798,-151.018 86.659,0 234.615,57.531 268.434,107.871 l 27.477,35.956 -69.75,-35.956 c -35.932,-19.777 -99.341,-35.957 -137.387,-35.957 h -69.751 l 6.34,131.241 6.342,129.443 88.773,5.395 c 63.41,3.596 97.229,16.179 112.025,41.35 19.023,30.562 14.796,34.158 -35.934,34.158 h -57.068 l 80.318,70.116 78.207,68.316 -80.319,10.788 c -44.387,5.393 -99.343,16.18 -122.593,21.573 -31.705,8.99 -69.751,-8.989 -141.615,-62.923 z m 48.614,-226.527 c 0,-115.06 -6.342,-213.941 -12.682,-219.334 -14.795,-12.585 -158.524,44.945 -158.524,64.721 0,8.989 23.25,34.159 52.842,57.531 46.5,35.956 52.842,57.53 52.842,161.804 0,102.476 29.59,179.783 59.18,154.613 4.229,-5.393 8.456,-102.475 6.342,-219.335 z m 186.002,197.762 c 12.681,-8.989 -126.819,-133.04 -150.069,-133.04 -8.456,0 -16.91,35.957 -16.91,80.903 v 82.699 l 80.319,-12.585 c 42.273,-7.191 82.433,-14.381 86.66,-17.977 z"
             id="path996-4-3"
             style="stroke-width:1.94933" />
          <path
             d="m 40054.791,-13765.766 c -27.435,-21.38 -78.873,-42.763 -113.167,-47.344 -48.01,-7.636 -60.012,-15.273 -60.012,-41.236 1.713,-25.963 -10.289,-35.127 -49.724,-38.182 -58.299,-6.108 -87.448,-24.436 -114.883,-70.253 -17.146,-30.546 -17.146,-30.546 13.718,-6.11 18.861,15.273 60.011,29.018 92.59,30.546 l 60.012,4.582 v -164.944 c 0,-187.854 -10.287,-204.653 -108.021,-167.999 -70.3,25.963 -140.601,7.637 -140.601,-36.654 0,-18.327 5.144,-21.382 18.861,-9.163 13.718,12.217 34.293,12.217 68.586,1.526 60.01,-18.327 250.337,32.073 320.636,87.055 41.151,32.072 48.013,48.872 54.869,163.416 8.572,120.653 10.29,126.763 51.44,131.344 72.015,9.164 80.589,33.6 12.005,33.6 -60.014,0 -63.445,3.054 -63.445,50.4 0,48.872 1.715,50.398 56.584,44.29 37.722,-3.055 66.871,3.054 85.732,19.854 36.009,32.073 39.437,64.145 3.43,38.182 -24.005,-18.328 -48.011,-16.8 -111.451,6.108 -13.719,4.582 -48.013,-9.163 -77.159,-29.018 z m -29.15,-235.197 c -5.143,-167.999 -8.572,-184.798 -46.295,-221.453 -58.299,-54.98 -70.301,-48.872 -42.866,18.327 13.716,33.601 22.29,123.709 24.005,221.453 0,155.781 1.713,163.416 36.007,163.416 34.293,0 36.008,-6.108 29.149,-181.743 z"
             id="path998-6-4"
             style="stroke-width:1.61823" />
          <path
             d="m 41670.472,-13820.718 c -145.36,-110.544 -193.815,-167.6 -209.321,-244.267 -15.504,-80.233 40.702,-181.863 127.918,-224.654 71.712,-33.877 197.692,-41.009 261.651,-12.481 36.826,16.046 36.826,16.046 -3.876,8.915 -40.7,-7.132 -40.7,-1.783 -42.639,160.467 l -1.939,167.6 h 65.898 c 77.526,0 145.362,-44.575 156.99,-106.978 17.442,-82.017 -3.877,-103.413 -93.032,-98.065 -44.576,1.783 -60.082,1.783 -32.948,-3.565 104.661,-16.046 110.474,-23.179 48.454,-71.319 -34.886,-26.744 -42.64,-37.442 -17.443,-24.961 23.257,10.697 67.835,46.356 102.722,82.016 100.784,106.979 71.711,233.57 -69.774,287.059 -63.959,24.961 -69.774,24.961 -147.3,-28.528 l -81.402,-55.272 -5.815,92.714 c -3.875,49.923 -1.939,94.497 1.939,98.063 11.628,10.698 174.433,-44.574 188,-62.403 5.816,-8.915 40.703,7.131 77.526,33.876 48.454,37.442 56.208,49.922 29.073,42.791 -23.258,-5.349 -79.464,3.566 -125.98,17.829 -48.454,16.047 -93.03,28.528 -100.784,28.528 -7.752,0 -65.896,-39.226 -127.918,-87.365 z m -34.886,-196.128 c -3.877,-139.07 -13.568,-180.079 -46.517,-180.079 -29.071,0 -62.02,124.809 -50.39,183.646 13.566,58.839 62.02,137.289 85.277,137.289 7.753,0 11.63,-64.187 11.63,-140.856 z m 147.299,-128.372 c 0,-158.685 0,-160.468 -42.64,-149.77 -58.144,16.046 -131.793,58.838 -131.793,76.668 0,8.915 27.134,32.093 58.144,53.489 44.578,30.311 58.145,55.272 58.145,99.846 0,58.837 11.629,82.017 42.638,82.017 7.753,0 15.506,-73.102 15.506,-162.25 z"
             id="path1000-7-8"
             style="stroke-width:1.85894" />
          <path
             d="m 43324.155,-13752.414 c -23.565,-13.366 -41.692,-31.186 -41.692,-40.095 0,-8.91 9.062,-10.395 23.564,-1.486 10.877,7.425 58.008,8.911 101.513,4.456 70.698,-5.94 76.135,-10.395 50.757,-28.214 -18.128,-10.395 -36.255,-46.035 -41.693,-77.22 -9.064,-47.521 -19.94,-57.915 -52.569,-57.915 -21.753,0 -48.944,-8.91 -59.819,-19.305 -14.503,-13.366 -5.44,-17.82 38.066,-17.82 45.317,0 59.82,-7.425 63.444,-32.67 3.627,-20.79 -7.249,-38.61 -30.815,-49.005 -48.944,-20.79 -48.944,-40.094 0,-38.61 61.633,1.486 59.82,-26.729 -10.876,-95.039 -67.071,-65.339 -74.322,-81.675 -45.319,-96.525 10.878,-4.454 18.128,7.425 18.128,28.215 0,51.976 56.194,72.766 179.459,65.339 56.195,-4.454 112.389,-10.393 125.08,-13.363 12.688,-2.971 45.318,17.819 72.508,46.034 27.191,28.215 34.442,43.065 18.127,32.67 -18.127,-11.88 -67.071,-17.82 -126.89,-14.85 l -96.076,4.455 67.072,37.125 c 56.195,31.184 63.446,43.065 56.195,81.673 l -9.064,44.551 h 112.389 110.575 l -9.063,-72.764 c -5.438,-43.066 -27.19,-90.585 -52.569,-118.8 -76.134,-83.159 -74.322,-90.584 10.877,-31.185 45.318,31.185 92.449,75.735 105.137,99.494 32.629,65.341 12.689,197.505 -38.067,242.055 -54.382,46.035 -67.07,46.035 -145.019,-7.426 -34.441,-25.245 -68.883,-44.549 -76.132,-44.549 -7.252,0 -14.503,23.76 -14.503,51.975 0,53.46 63.445,126.223 110.576,126.223 12.689,0 18.128,4.455 12.689,8.911 -18.127,14.85 -135.953,-34.155 -166.771,-69.795 -21.753,-25.245 -29.004,-68.309 -29.004,-157.409 0,-117.314 -1.812,-124.74 -56.194,-170.775 -38.068,-34.154 -50.756,-40.094 -41.692,-19.304 7.251,16.335 18.127,96.524 25.378,178.199 5.437,81.674 16.314,157.41 25.377,167.805 7.252,11.879 39.88,34.154 72.51,50.489 47.131,23.759 48.943,26.729 10.876,17.82 -56.195,-14.85 -101.513,-14.85 -172.208,-1.486 -38.068,7.425 -67.071,4.456 -94.262,-11.879 z m 474.933,-155.925 c 47.131,-43.064 23.567,-74.249 -58.006,-74.249 -110.577,0 -126.89,19.305 -56.195,65.34 72.509,46.035 72.509,46.035 114.201,8.909 z"
             id="path1032-1-8"
             style="stroke-width:1.64068" />
          <path
             d="m 43677.636,-14067.233 c 12.689,-4.455 29.003,-2.969 34.442,1.486 7.251,4.454 -3.625,8.909 -23.564,7.425 -19.942,0 -25.38,-4.455 -10.878,-8.911 z"
             id="path1078-8-3"
             style="stroke-width:1.64068" />
          <path
             d="m 43768.273,-14067.233 c 12.688,-4.455 29.003,-2.969 34.442,1.486 7.251,4.454 -3.627,8.909 -23.566,7.425 -19.94,0 -25.379,-4.455 -10.876,-8.911 z"
             id="path1080-9-5"
             style="stroke-width:1.64068" />
          <path
             d="m 43717.515,-14294.437 c 0,-22.274 38.069,-34.154 58.009,-17.82 10.876,8.911 3.625,16.336 -19.94,22.275 -21.752,4.456 -38.069,1.486 -38.069,-4.455 z"
             id="path1082-7-5"
             style="stroke-width:1.64068" />
          <path
             d="m 29275.731,-12369.928 c -26.714,-26.154 -32.056,-38.225 -14.248,-32.19 58.771,22.131 71.237,-36.213 64.113,-265.566 -5.342,-215.268 -5.342,-223.315 35.618,-245.447 35.619,-22.13 46.304,-20.118 89.046,32.189 26.715,32.191 33.837,46.274 17.81,32.191 -55.209,-46.274 -67.675,-6.035 -67.675,237.399 0,287.697 -24.933,335.982 -124.664,241.424 z"
             id="path1184-3"
             style="stroke-width:1.89287" />
          <path
             d="m 29270.126,-10558.857 c -55.716,-54.825 -60.632,-64.278 -36.05,-86.964 22.941,-22.686 36.05,-15.124 99.96,45.373 40.968,37.81 70.464,77.511 65.548,86.964 -18.026,32.139 -65.548,17.014 -129.458,-45.373 z"
             id="path1186-8"
             style="stroke-width:1.76011" />
          <path
             d="m 29424.165,-10543.916 c 0,-6.116 8.194,-30.582 18.026,-55.048 29.497,-69.319 3.278,-134.561 -124.542,-303.782 -67.187,-89.707 -122.903,-171.259 -122.903,-183.492 0,-16.311 45.883,-12.233 111.431,14.271 11.472,4.078 55.717,-2.038 96.686,-14.271 67.185,-18.349 80.296,-16.311 108.154,20.388 32.774,38.737 32.774,40.776 -27.858,55.048 -34.414,6.116 -101.601,8.155 -150.761,2.038 -49.161,-6.116 -88.49,-8.155 -88.49,-2.038 0,4.077 49.161,48.931 111.43,97.862 136.014,108.057 168.787,154.95 172.066,234.463 3.277,50.97 -6.555,71.358 -49.161,106.018 -29.498,24.466 -54.078,36.698 -54.078,28.543 z"
             id="path1200-5"
             style="stroke-width:1.82784" />
          <path
             d="m 29363.175,-6880.5225 c -24.48,-34.4053 -24.48,-38.4529 -1.631,-50.5957 21.216,-8.0955 24.48,-36.4288 21.216,-127.5009 l -4.896,-117.382 -84.865,-6.0715 c -47.329,-4.0477 -86.498,0 -86.498,6.0715 0,8.0954 19.586,46.5479 42.434,87.0246 l 42.432,74.8813 -50.593,-70.8338 c -27.743,-38.4526 -48.96,-89.0482 -45.697,-111.3104 3.265,-34.4048 17.954,-42.5004 93.027,-50.5955 l 89.76,-10.1192 v -76.9053 c 0,-101.1915 40.802,-133.5724 102.818,-80.9532 44.065,36.429 44.065,36.429 8.161,42.5004 -29.378,6.0715 -37.538,20.2383 -37.538,66.7864 0,48.5717 6.528,58.6909 40.801,58.6909 26.111,0 40.8,12.143 40.8,30.3573 0,18.2144 -14.689,30.3573 -40.8,30.3573 -39.169,0 -40.801,4.0477 -40.801,139.644 0,204.4064 -24.48,252.9781 -88.13,165.9538 z"
             id="path1190-1"
             style="stroke-width:1.81738" />
          <path
             d="m 44963.104,-3149.2382 c -89.611,-107.4851 -106.519,-148.5251 -106.519,-261.8731 1.689,-111.394 27.053,-170.0225 94.685,-222.7878 69.322,-52.7656 94.683,-46.9028 174.153,41.0396 57.486,64.4913 69.322,91.8513 69.322,152.434 0,54.7196 -11.836,87.9424 -42.27,121.1652 -45.652,48.8569 -60.868,46.9026 -172.462,-39.0855 l -55.796,-42.9944 v 72.3085 c 0,39.0853 11.835,95.7597 25.362,128.9822 l 27.054,56.6741 67.632,-41.0398 c 54.104,-31.2683 74.394,-35.1769 92.994,-15.6343 37.196,35.1771 28.741,52.7657 -40.581,93.8053 l -65.939,39.0858 z m 153.864,-271.6446 c 35.507,-58.6284 33.816,-119.2109 -3.383,-158.2967 -27.051,-29.314 -33.816,-29.314 -87.92,9.7714 -113.284,78.1712 -126.81,130.9368 -47.344,187.6109 60.87,44.9483 94.686,35.1771 138.647,-39.0856 z"
             id="path1176-2-6"
             style="stroke-width:1.81775" />
          <path
             d="m 44952.725,545.56459 c -84.665,-105.56104 -101.6,-181.79974 -54.187,-242.39944 25.4,-33.2321 25.4,-39.09669 -8.466,-87.96749 -45.719,-68.4193 -45.719,-115.335401 6.774,-173.980301 64.346,-76.238603 143.933,-66.464303 228.598,25.41289 82.972,91.877111 91.442,175.934911 25.401,246.309001 -42.335,44.9612 -42.335,44.9612 -8.469,80.1482 71.12,74.2836 27.095,170.07065 -86.359,193.52861 -50.8,9.77433 -66.039,3.90973 -103.292,-41.05147 z m 108.372,-44.96124 c 72.814,-23.4579 88.055,-58.645 54.189,-115.3351 -18.629,-29.3225 -37.254,-39.0967 -67.734,-31.2773 -22.013,5.8645 -59.267,13.6837 -81.281,19.5483 -49.105,11.729 -67.733,58.6448 -44.027,109.4706 20.322,41.05149 49.108,44.96123 138.853,17.5935 z m 45.72,-269.76709 c 74.507,-41.0516 81.28,-68.4192 33.867,-123.1547 -28.786,-33.232001 -49.106,-39.096511 -110.064,-31.277101 -88.055,9.7741 -125.308,41.051301 -125.308,99.696401 0,93.83219 94.826,119.24489 201.505,54.7354 z"
             id="path1178-7-7"
             style="stroke-width:1.81938" />
          <path
             d="m 44926.775,-8595.2068 c -51.452,-38.536 -54.884,-44.621 -30.872,-73.016 22.299,-28.393 32.589,-24.337 87.472,24.339 78.894,70.986 120.057,58.818 104.621,-32.45 -13.721,-83.155 -37.73,-113.578 -102.906,-135.889 -51.456,-18.252 -51.456,-18.252 -8.577,-20.281 77.18,-4.056 135.497,-75.042 135.497,-164.281 0,-123.718 -36.019,-139.945 -128.634,-50.704 -44.594,44.618 -87.472,70.984 -102.907,62.873 -41.163,-18.255 -30.873,-44.621 44.59,-115.607 65.175,-60.844 73.752,-62.873 133.779,-42.591 142.354,50.704 181.803,194.705 75.466,279.888 l -54.885,42.591 41.163,38.535 c 24.012,20.282 46.311,62.873 53.171,93.296 8.574,48.676 1.715,56.79 -70.32,95.324 -99.477,52.732 -106.337,52.732 -176.658,-2.027 z"
             id="path1188-5-9"
             style="stroke-width:1.86508" />
          <path
             d="m 44884.177,-1308.9663 c -35.638,-90.9193 -37.335,-113.1441 -1.696,-54.5515 22.062,38.3881 40.73,44.4494 135.767,44.4494 h 112.008 l -37.335,-54.5516 c -84.856,-131.3279 -139.16,-244.472 -162.922,-345.4937 -15.272,-60.6128 -23.76,-113.144 -18.666,-117.1849 3.394,-6.0614 25.455,0 47.517,10.102 33.941,14.1431 45.823,42.4291 64.49,145.471 23.758,135.369 66.186,252.5541 130.675,355.5959 22.063,34.3473 40.73,68.6948 40.73,74.756 0,6.0614 -62.792,12.1226 -140.859,12.1226 h -140.858 z"
             id="path1194-1-8"
             style="stroke-width:1.85171" />
          <path
             d="m 44916.845,-4928.4073 c -5.352,-18.1923 -10.703,-46.4914 -8.919,-64.6836 0,-22.2349 3.567,-24.2563 10.703,-8.0853 5.352,14.1492 46.385,24.2563 112.394,24.2563 96.339,0 124.884,16.1707 124.884,72.7688 0,4.0427 -51.737,8.0855 -114.178,8.0855 -87.419,0 -115.964,-8.0855 -124.884,-32.3417 z"
             id="path1192-3-8"
             style="stroke-width:1.89899" />
          <path
             d="m 44891.869,-5098.2013 c 0,-28.2991 3.568,-38.4059 8.919,-24.2564 3.569,12.1281 3.569,36.3844 0,50.5339 -5.351,12.128 -8.919,2.0214 -8.919,-26.2775 z"
             id="path1206-6-1"
             style="stroke-width:1.89899" />
          <path
             d="m 44954.31,-5142.6712 c -46.384,-34.3632 -80.282,-66.7049 -76.713,-72.7688 5.353,-4.043 32.113,12.128 62.441,34.363 62.44,50.5338 98.123,38.4058 160.563,-50.5341 46.387,-66.7047 48.169,-153.6231 3.569,-198.0929 -32.113,-32.3418 -37.465,-32.3418 -119.531,26.2775 -73.146,50.534 -90.986,56.5981 -112.396,34.3632 -30.327,-36.3844 -19.623,-52.5553 58.875,-101.0679 76.714,-46.4912 139.156,-32.3415 208.733,48.5126 71.361,78.8329 73.144,212.2425 5.352,291.0754 -58.872,66.7049 -83.85,64.6834 -190.893,-12.128 z"
             id="path1208-7-2"
             style="stroke-width:1.89899" />
          <path
             d="m 44937.57,-12255.621 c -26.715,-26.154 -32.055,-38.225 -14.248,-32.19 58.771,22.131 71.238,-36.213 64.112,-265.566 -5.341,-215.269 -5.341,-223.315 35.618,-245.447 35.621,-22.131 46.304,-20.119 89.048,32.189 26.714,32.19 33.837,46.273 17.81,32.19 -55.211,-46.273 -67.676,-6.035 -67.676,237.4 0,287.696 -24.934,335.982 -124.664,241.424 z"
             id="path1184-3-7"
             style="stroke-width:1.89287" />
          <path
             d="m 44931.965,-10444.55 c -55.716,-54.826 -60.632,-64.278 -36.051,-86.965 22.941,-22.686 36.051,-15.123 99.96,45.373 40.968,37.811 70.464,77.512 65.548,86.964 -18.025,32.139 -65.548,17.015 -129.457,-45.372 z"
             id="path1186-8-2"
             style="stroke-width:1.76011" />
          <path
             d="m 45086.004,-10429.609 c 0,-6.116 8.194,-30.581 18.025,-55.047 29.497,-69.32 3.279,-134.562 -124.541,-303.783 -67.187,-89.708 -122.903,-171.259 -122.903,-183.492 0,-16.311 45.882,-12.233 111.431,14.271 11.472,4.078 55.717,-2.038 96.685,-14.271 67.185,-18.349 80.296,-16.311 108.155,20.388 32.773,38.737 32.773,40.776 -27.859,55.047 -34.413,6.116 -101.6,8.157 -150.76,2.039 -49.161,-6.117 -88.491,-8.155 -88.491,-2.039 0,4.078 49.162,48.932 111.431,97.863 136.013,108.056 168.787,154.95 172.066,234.463 3.277,50.97 -6.555,71.359 -49.162,106.018 -29.497,24.466 -54.077,36.699 -54.077,28.543 z"
             id="path1200-5-49"
             style="stroke-width:1.82784" />
          <path
             d="m 45025.014,-6766.2156 c -24.48,-34.4053 -24.48,-38.4528 -1.632,-50.5957 21.217,-8.0955 24.48,-36.4288 21.217,-127.5009 l -4.895,-117.382 -84.865,-6.0714 c -47.33,-4.0477 -86.499,0 -86.499,6.0714 0,8.0954 19.585,46.5479 42.435,87.0247 l 42.431,74.8813 -50.593,-70.8339 c -27.742,-38.4526 -48.96,-89.0481 -45.697,-111.3103 3.266,-34.4049 17.955,-42.5005 93.026,-50.5956 l 89.762,-10.1192 v -76.9052 c 0,-101.191 40.8,-133.5729 102.816,-80.9539 44.067,36.4301 44.067,36.4301 8.161,42.5004 -29.378,6.0717 -37.536,20.2385 -37.536,66.7871 0,48.5716 6.527,58.6908 40.799,58.6908 26.112,0 40.801,12.143 40.801,30.3573 0,18.2144 -14.688,30.3574 -40.801,30.3574 -39.168,0 -40.799,4.0477 -40.799,139.6439 0,204.4064 -24.481,252.9781 -88.131,165.9538 z"
             id="path1190-1-5"
             style="stroke-width:1.81738" />
          <g
             id="g16435"
             transform="matrix(1.3275608,0,0,1.3312326,46680.966,690.56197)">
            <g
               id="g16427"
               transform="matrix(0.95058634,0,0,0.98765644,27401.398,-5005.3096)">
              <path
                 d="M -42066.249,-173.82937 V -5722.58 h 5781.081 5781.082 V -173.82937 5374.9208 h -5781.082 -5781.081 z m 11483.161,0 V -5637.8998 l -5699.291,-2.6737 -5700.221,-1.7831 V -173.82937 5294.6986 l 5700.221,-1.783 5699.291,-2.6743 z"
                 id="path92-8"
                 style="stroke-width:0.910186" />
            </g>
            <g
               style="fill:#000000"
               id="g15263"
               transform="matrix(21.285419,0,0,-21.218975,-10275.789,-551.78112)">
              <path
                 d="m 147.35553,-35.553071 h -64 v 64 h 64 z m -255.9,63.97 v 64 h 64 v -64 z m 128,-63.97 h -64 v 64 h 64 z m 64,255.900001 v 64 h 64 v -64 z m -192,-63.98 v 64 h 64 v -64 z m 383.85,-191.920001 h -64 v 64 h 64 z m 128,0 h -64 v 64 h 64 z m -383.85,255.900001 h -64 v 64 h 64 z m 383.8,191.9 v -64 h -64 v 64 z m 0,-128 v -64 h -64 v 64 z m -127.95,192 h 64 v -64 h -64 z m 128,-319.88 V 92.366929 h -64 v 64.000001 z m -383.85,319.88 h 64 v -64 h -64 z m -128,0 h 64 v -64 h -64 z m 255.9,0 h 64 v -64 h -64 z m -255.9,-191.93 v 64 h 64 v -64 z m 319.88,-191.920001 v -64 h -64 v 64 z m -64,128.000001 h 64 v -64 h -64 z m -64,128 v 64 h 64 v -64 z m 128,-64 h 64 v -64 h -64 z m 0,-127.95 h 64 V 92.446929 h -64 z m 0,191.93 v 64 h 64 v -64 z m -255.88,-0.08 v 64 h 64 v -64 z m 128,-255.900001 v -64 h -64 v 64 z m 191.92,255.900001 h 64 v -64 h -64 z m -128,-191.93 V 92.366929 h -64 v 64.000001 z m 128,-127.950001 v 64 h 64 v -64 z m -128,255.900001 v 64 h 64 v -64 z m -64,-127.95 h -63.92 v 64 h 64 z m 191.92,64 h 64 v -64 h -64 z M 19.45553,92.396929 h -64 v 64.000001 h 64 z m 0,191.920001 v 64 h 64 v -64 z"
                 id="path15254" />
            </g>
          </g>
        </g>
      </g>
    </g>
  </g>
</svg>
